<svg data-name="123_24" xmlns="http://www.w3.org/2000/svg" width="1152" height="1152" viewBox="0 0 1152 1152"><title>123_24</title><path d="M869.647 587.307c-4.06 0-5.647-1.633-5.647-5.693v-80.4c0-4.877 0-8.12 4.853-8.12l40.5-.365c56.885 0 87.731-17.056 87.731-54.435 0-35.722-30.053-59.289-89.364-59.289-43.819 0-81.2 10.57-120.21 30.869-4.853 2.427-5.647 0-5.647-3.243V326.2c0-4.877-.84-6.487 4.06-8.936 37.332-20.3 86.891-31.663 141.3-31.663 107.237 0 173.829 53.6 173.829 138.083 0 55.229-36.539 91.791-71.492 106.4 42.279 13.813 96.691 48.742 96.691 126.72 0 103.971-95.851 159.2-207.941 159.2-54.412 0-100.751-6.487-138.923-26.809-4.853-1.61-4.853-6.487-4.853-10.546v-87.736c0-3.243 4.06-4.877 7.326-3.243 46.292 23.543 86.1 34.112 132.39 34.112 73.078 0 101.544-30.053 101.544-68.225 0-43.049-30.893-66.615-98.324-66.615zM96.193 392.33c-25.485 7.964-63.638 19.114-85.937 22.3-5.575.8-7.168-.8-7.168-5.575v-69.288c0-3.982.8-6.371 5.575-7.168 33.45-7.964 71.043-24.689 102.9-40.617 4.777-2.389 8.76-3.982 13.537-3.982h78.313c3.983 0 4.779 2.389 4.779 5.575L208 720h71.215c5.575 0 7.168 2.389 7.965 7.168l.193 80.072c.8 6.371-1.593 8.761-6.372 8.761H20c-5.575 0-7.168-2.389-6.371-7.168l-.193-81.664c.8-4.778 3.185-7.168 8.76-7.168H96zM342.372 816c-5.576 0-6.372-2.389-6.372-7.168v-57.341c0-5.575.8-7.168 3.982-10.353 31.857-25.485 84.42-70.084 149.725-134.594C552.624 545.22 580 505.6 580 461c0-50.174-40.914-79.53-101.443-79.53-43.006 0-91.587 15.132-128.222 35.042-4.779 2.389-7.964.8-7.964-4.779v-78.844c0-4.778.8-7.168 4.778-9.557 36.635-22.3 90-39.821 157.69-39.821 117.072 0 172.5 69.714 177.446 158.775 4 72-28.925 126.762-82.286 181.714-49.377 51.766-73.907 74.38-100.985 97.476 54.952 0 168.16-1.476 215.149-1.476 5.575 0 6.371 1.593 5.575 7.168l-23.76 82.461c-1.592 4.778-3.978 6.371-8.76 6.371H342.372z"/></svg>