<svg xmlns="http://www.w3.org/2000/svg" width="1152" height="1152" viewBox="0 0 1152 1152"><title>ABC_24</title><path d="M138.674 707.5l-33.948 102.509c-1.331 4.659-3.993 5.991-7.987 5.991H16.863c-5.325 0-6.657-2.663-5.325-7.322 35.279-99.846 91.858-263.594 133.793-378.749 2.663-6.656 5.325-15.309 6.657-41.27 0-3.328 2-4.659 4.66-4.659h107.167c2.663 0 3.994.665 5.325 3.328 48.591 133.794 101.843 286.225 151.1 422.016 2 4.659.666 6.656-3.994 6.656h-87.864c-3.994 0-5.325-1.331-6.657-4.66L284.449 707.5H138.674zm125.14-75.883c-13.312-45.263-39.938-121.146-53.252-169.072h-.662c-9.984 45.264-33.947 115.156-51.254 169.072h105.169zM433.931 391.935c0-4.629.661-5.952 3.968-6.613C467 384.661 522.544 384 578.753 384c136.887 0 165.984 60.177 165.984 113.741 0 45.629-25.79 78.032-62.822 92.58v1.323C716.3 601.563 761.269 630 761.269 691.5c0 82-70.758 124.322-191.112 124.322-50.919.661-104.483-.661-131.6-1.323-3.307-.661-4.629-2.645-4.629-5.951V391.935zm91.919 165.983h57.532c52.9 0 69.435-21.822 69.435-50.258 0-35.71-23.806-50.258-74.726-50.258-25.789 0-46.289.661-52.241 1.323v99.193zm0 183.176c7.275 0 22.484 1.323 49.6 1.323 55.548 0 88.612-14.548 88.612-55.548 0-34.387-21.161-54.226-80.015-54.226h-58.196v108.451zM1050.412 384c41.266 0 73.5 5.8 90.913 13.54 3.224 1.934 3.869 3.224 3.869 7.737v68.347c0 5.8-3.224 5.8-5.8 4.513-21.277-9.027-49.647-16.119-85.754-16.119-82.531 0-139.917 49.648-139.917 136.692 0 105.743 76.084 135.4 139.272 135.4 36.107 0 68.346-7.092 90.268-15.474 3.224-1.29 5.158 0 5.158 3.868v66.416c0 4.514-.645 7.092-5.158 9.027-23.216 10.961-61.257 18.053-106.392 18.053-115.415 0-217.289-63.832-217.289-214.71 0-123.153 90.269-217.29 230.83-217.29z"/></svg>