<svg xmlns="http://www.w3.org/2000/svg" width="1152" height="1152" viewBox="0 0 1152 1152"><title>Actions_24</title><path d="M817.137 653.719L714.492 756.48l281.1 281.1a43.654 43.654 0 0 0 61.723 0l40.98-40.969a43.647 43.647 0 0 0 0-61.734zM213.07 595.9l46.477-46.477c17.039-17.039-.7-41.2-.7-41.2l47.719-46.02a43.655 43.655 0 0 0 61.324-.4l25.957-25.969 49.966 49.966 102.7-102.7-49.969-49.957 16.922-16.922a43.647 43.647 0 0 0 0-61.734L492.984 234s60.293-67.687 72.961-80.355c53.273-53.273 171.223-18.926 176.672-46.207S480.738-20.941 334.383 125.4l-152.3 152.309a43.647 43.647 0 0 0 .117 61.84l10.3 9.9-45.258 47.156s-21.293-21.691-41.754-1.219l-46.472 46.469a21.82 21.82 0 0 0 0 30.855L182.2 595.9a21.813 21.813 0 0 0 30.87 0zM353.311 947.634c-50.34 18.123-113.282 40.871-156.768 56.438l56.129-156.789zm582.41-843.7L219.569 820.086a36.237 36.237 0 0 0-8.46 13.216l-67.952 187.639c-8.572 23.669 11.561 43.941 35.262 35.507l188.606-67.11a36.218 36.218 0 0 0 13.421-8.55l716.011-716.783c12.684-12.708 13.938-32.008 2.8-43.089L978.745 101.02c-11.112-11.055-30.359-9.751-43.025 2.915z"/></svg>