<svg xmlns="http://www.w3.org/2000/svg" width="1152" height="1152" viewBox="0 0 1152 1152"><title>Adjust_24</title><path d="M222.867 255.595C145.875 340.371 98.4 452.452 98.4 576c0 50.3 8.4 98.493 22.852 144h255.68zM770.461 140.525C710.977 113.877 645.4 98.4 576 98.4c-102.551 0-197.2 32.757-275.027 87.768l78.891 237.788zM1051.863 610.456c.891-11.4 1.734-22.822 1.734-34.456 0-156.812-76.043-295.38-192.762-382.447L666.82 334.339zM840.164 576.773L690.75 1038.917a477.481 477.481 0 0 0 341.719-324.229zM585.258 1053.132L661.922 816H163.57c82.793 141.938 236.262 237.6 412.43 237.6 3.129 0 6.188-.254 9.258-.468z"/></svg>