<svg xmlns="http://www.w3.org/2000/svg" width="1152" height="1152" viewBox="0 0 1152 1152"><title>AdobePrimetime_24</title><path d="M576.012 20.641C272.168 20.641 26.4 269.281 26.4 576s245.766 555.357 549.609 555.357S1125.6 882.719 1125.6 576 879.855 20.641 576.012 20.641zm0 1049.279c-269.274 0-488.649-221.759-488.649-493.92S306.738 82.08 576.012 82.08 1064.66 303.839 1064.66 576s-219.375 493.92-488.648 493.92z" fill-rule="evenodd"/><path d="M484.328 763.2a5.689 5.689 0 0 1 2.4-4.32l220.32-108.96 6.72-1.92c3.36-1.44 5.28.96 5.28 3.84V876c0 2.88-2.4 5.28-4.8 4.32l-5.28-1.44L486.728 768c-2.4-1.439-2.4-3.359-2.4-4.8zm422.88-398.88L648.488 206.4c-11.04-5.76-21.12-5.76-32.16.96a35.47 35.47 0 0 0-17.28 30.72l-.48 58.08-104.16-50.4c-5.76-3.36-14.88-4.32-21.12-4.8-.96 0-1.92.48-2.88.48h-1.44c-.96 0 .96-.48 0-.48-23.04 2.4-36.96 19.2-36.96 42.72l.96 217.44c0 24.96 49.44 45.12 74.4 45.12 9.12 0 12.48-2.88 17.76-5.76l208.32-113.76c14.88-8.16 24-14.4 24-30.72-.48-16.8-6.72-31.68-21.6-39.84l-119.52-55.68-1.44-62.4c0-6.72 4.32-12.96 10.08-16.32 5.28-3.36 9.6-3.36 15.36-.48l258.72 157.92a18.642 18.642 0 0 1 0 33.12l-297.12 162.24-297.12 156.96a35.549 35.549 0 0 0-.48 62.88l254.4 176.64a32.474 32.474 0 0 0 17.28 4.8c6.24 0 15.36-1.92 20.64-5.28 11.04-6.24 17.28-17.76 17.28-30.72l2.4-63.84 91.2 34.08a35.538 35.538 0 0 0 17.76 4.8c21.6 0 40.32-17.28 40.32-38.88V651.841c0-19.68-14.88-35.04-34.08-37.92l-8.16-.96h-1.92c-1.44 0-2.88.96-4.32.96-3.84.96-8.16.96-12 3.36l-234.24 111.84c-12.96 6.72-20.64 19.68-21.12 34.08 0 14.4 11.04 27.36 24 34.08l126.72 69.6-2.88 72.96a18.724 18.724 0 0 1-9.12 16.32c-5.76 3.36-15.84 3.36-21.6 0l-254.4-176.64a19.171 19.171 0 0 1-9.6-16.32 18.838 18.838 0 0 1 10.08-16.8l297.12-156.96 297.6-162.24a35.591 35.591 0 0 0 18.72-31.2c-.48-13.44-7.2-25.44-19.2-31.68z" fill-rule="evenodd"/></svg>