<svg xmlns="http://www.w3.org/2000/svg" width="1152" height="1152" viewBox="0 0 1152 1152"><title>AdobeMediaOptimizer_24</title><path d="M835.688 286.561L821.768 276l-206.4 226.08 1.44-228-28.8-5.76c-66.24.48-144.96 34.08-191.04 76.8l-82.56-78.72-11.52 12.48c-73.44 64.32-107.04 169.92-108 268.8-.48 98.4 53.76 187.2 120.48 257.28l9.6 9.6 253.44-234.24 1.92 207.36 20.64.96c66.24 0 84-13.44 130.08-51.84l84.96 116.16 40.8-40.8c140.16-134.399 135.36-387.839-21.12-525.599zm-255.36 21.12l-3.36 207.36-200.64-5.28c-2.88-133.44 96.48-192.48 204-202.08zM324.008 312l65.76 48c-44.64 47.52-48.96 91.68-49.44 162.72v25.44l223.2.96-231.84 217.44c-128.64-139.199-120-352.799-7.68-454.56zm295.68 436.32l1.92-197.76 155.52 1.44c-7.2 112.8-48 186.721-157.44 196.321zm203.52 47.52L758.888 720c45.12-48.48 63.84-120.96 63.36-193.92l-4.32-16.32-175.68 3.36 182.88-195.36c125.76 138.721 138.24 342.721-1.92 478.081z" fill-rule="evenodd"/><path d="M576.012 20.641C272.168 20.641 26.4 269.281 26.4 576s245.766 555.357 549.609 555.357S1125.6 882.719 1125.6 576 879.855 20.641 576.012 20.641zm0 1049.279c-269.274 0-488.649-221.759-488.649-493.92S306.738 82.08 576.012 82.08 1064.66 303.839 1064.66 576s-219.375 493.92-488.648 493.92z" fill-rule="evenodd"/></svg>