<svg xmlns="http://www.w3.org/2000/svg" width="1152" height="1152" viewBox="0 0 1152 1152"><title>AdobeSocial_24</title><path d="M365.288 715.2v-2.4c0-5.28.48-5.28-.96-10.08l285.6-144c7.68 11.04 17.76 12.96 32.16 14.4l6.72 208.8c-14.88 3.36-21.6 11.04-28.32 24zm176.64-428.64c8.64 12.96 23.52 21.12 40.8 21.12 3.36 0 2.4.96 5.76.48l66.72 166.08c-7.68 4.32-9.12 6.24-13.44 14.4l-288-94.08c.48-2.88-.96-.96-.96-3.84a46.4 46.4 0 0 0-1.92-13.92zm231.84 53.76c-.48 3.36 3.84 3.84 3.84 7.2a48.537 48.537 0 0 0 12.96 33.12l-90.24 93.6c-7.2-4.32-5.28-.48-13.92-.48-3.84 0-4.8-.48-8.16.48l-70.56-175.68c7.2-4.32 12-5.28 16.32-12.96zM875.048 600c-7.68 2.88-28.32 0-36 2.88l-105.12-65.76c1.92-5.28-1.92-12.96-1.92-18.72 0-12.96-13.92-17.76-21.6-26.4l92.16-101.76c7.2 4.32 14.4 4.8 23.52 4.8a10.492 10.492 0 0 0 2.4 1.44zm-546.24 59.04l-9.12-222.72c14.88-2.88 19.68-5.76 26.4-18.72l283.68 98.88c-.48 2.88.96 4.8.96 7.68 0 5.28 2.88.96 4.32 5.76l-283.2 144.96c-7.68-11.039-9.12-13.919-23.04-15.839zm388.8 121.92l-5.28-209.76c10.08-2.4 3.84-7.68 10.56-14.88L835.208 624a49.864 49.864 0 0 0-3.36 16.8c0 11.52 4.32 22.08 10.56 30.72l-111.36 120c-6.24-4.799-4.8-10.079-13.44-10.559zm181.92-189.6h-1.44l-45.6-204c19.2-7.2 24-18.24 24-39.84a49.37 49.37 0 0 0-49.44-49.44c-18.72 0-24.96 8.16-33.6 23.52 0 0-161.28-60-161.28-63.36a49.44 49.44 0 1 0-98.88 0c0 4.8-2.4 3.84-.96 8.16l-196.32 89.76c-9.12-13.44-15.36-14.88-32.64-14.88a49.37 49.37 0 0 0-49.44 49.44c0 25.44 15.36 45.6 39.84 48.48l9.6 223.68c-17.76 4.32-36.96 25.92-36.96 49.92a49.37 49.37 0 0 0 49.44 49.44c19.68 0 36.48-11.04 44.16-27.84l294.72 91.2-.48 6.72a49.44 49.44 0 0 0 98.88 0 47.268 47.268 0 0 0-10.56-30.24l111.36-120a48.349 48.349 0 0 0 27.36 8.16 49.37 49.37 0 0 0 49.44-49.44c0-27.359-15.84-50.879-31.2-49.439z" fill-rule="evenodd"/><path d="M576.012 20.641C272.168 20.641 26.4 269.281 26.4 576s245.766 555.357 549.609 555.357S1125.6 882.719 1125.6 576 879.855 20.641 576.012 20.641zm0 1049.279c-269.274 0-488.649-221.759-488.649-493.92S306.738 82.08 576.012 82.08 1064.66 303.839 1064.66 576s-219.375 493.92-488.648 493.92z" fill-rule="evenodd"/></svg>