<svg xmlns="http://www.w3.org/2000/svg" width="1152" height="1152" viewBox="0 0 1152 1152"><title>AdobeAudienceManager_24</title><path d="M576.012 24C272.168 24 26.4 272.64 26.4 579.36s245.766 555.357 549.609 555.357S1125.6 886.078 1125.6 579.36 879.855 24 576.012 24zm0 1049.279c-269.273 0-488.648-221.76-488.648-493.919S306.738 85.438 576.012 85.438 1064.66 307.2 1064.66 579.36s-219.375 493.919-488.648 493.919z" fill-rule="evenodd"/><path d="M614.888 582.24l259.68-73.44c23.52 99.36 8.16 182.88-67.68 261.12zm162.24 208.8c-116.64 103.68-291.36 95.52-401.76-14.4-109.92-109.92-114.24-280.32-11.04-396.96zm-201.12-255.36l-196.32-185.76c77.76-75.36 168-97.44 266.88-74.88zm24 19.68l73.44-262.56c27.36 8.16 73.92 20.16 119.04 65.28s63.84 95.04 72 122.4zm221.28-226.08c-72-72-157.92-88.8-161.28-89.28l-6.24 7.68c-104.64-24-217.44 4.8-300 84.96l-10.56-9.6c-135.84 135.36-137.76 355.68-3.84 489.6 134.4 133.92 353.76 132 489.6-3.84l-9.6-9.6c80.64-83.04 108-199.68 83.04-305.28l9.6-24c-.96-3.36-19.2-69.12-90.72-140.64z" fill-rule="evenodd"/></svg>