<svg xmlns="http://www.w3.org/2000/svg" width="1152" height="1152" viewBox="0 0 1152 1152"><title>AdobeConnect_24</title><path d="M360.02 360.005v-240h-240v240h240zm672 0v-240h-240v240h240zm-240 432v240h240v-240h-240z" fill-rule="evenodd"/><path d="M1104 403.688V72a23.986 23.986 0 0 0-24-24H769.922a23.939 23.939 0 0 0-21 12.422L432 635.845V72a23.986 23.986 0 0 0-24-24H72a23.986 23.986 0 0 0-24 24v332.156a23.886 23.886 0 0 0 6.844 16.781L347.227 720H48v384h384V808.09l329.3 289.934a23.94 23.94 0 0 0 15.841 5.976H1080a23.986 23.986 0 0 0 24-24V744a23.986 23.986 0 0 0-24-24H523.148l567.914-295.008A23.973 23.973 0 0 0 1104 403.688zM96 96h288v592.969L96 394.383V96zm960 672v288H786.188L459.094 768H1056zm0-378.891l-606.984 315.3L784.125 96H1056v293.109z" fill-rule="evenodd"/></svg>