<svg xmlns="http://www.w3.org/2000/svg" width="1152" height="1152" viewBox="0 0 1152 1152"><title>AdobeExperienceManager_24</title><path d="M576 236.64a101.178 101.178 0 0 1 90.72 56.16 121.816 121.816 0 0 0-24.96 19.68c-17.76 17.28-40.8 23.04-65.76 23.04s-48-5.76-65.76-23.04a136.271 136.271 0 0 0-24.96-19.68A101.178 101.178 0 0 1 576 236.64zm100.8 89.28c.48 3.84-2.4 9.6-2.4 13.44-1.44 69.6 46.08 118.56 120 117.6 3.84 0 8.64-1.92 12-1.92a76.377 76.377 0 0 1-9.6 11.52c-24 23.52-41.76 53.76-41.76 87.36s17.76 66.72 41.76 90.24c3.36 3.36 7.2 6.72 10.08 11.04-3.84.48-6.72-1.92-10.08-1.92-69.12-1.92-124.32 48.96-122.88 119.52 0 3.84 3.36 8.16 2.88 12a108.141 108.141 0 0 1-11.52-10.08c-24-23.52-53.76-41.76-87.84-41.76-33.6 0-66.72 18.24-90.72 41.76-3.84 3.84-5.76 8.64-9.6 11.52-.48-3.84 0-7.2 0-11.04 2.4-70.08-51.84-129.12-120-122.4-3.84.48-8.16 2.88-11.52 2.88 2.88-4.32 6.24-7.68 9.6-11.52 24-23.52 41.76-55.2 41.76-88.8s-17.76-65.28-41.76-88.8a76.377 76.377 0 0 1-9.6-11.52c3.36 0 12.48 2.4 16.32 2.4 65.28 0 114.72-50.4 114.72-115.2a151.807 151.807 0 0 1 1.44-15.36c3.84 2.88 4.8 5.28 8.64 9.12 24 23.52 52.8 38.88 86.88 38.88 33.6 0 67.68-15.36 91.68-38.88 3.84-3.84 7.2-7.2 11.52-10.08zM840 465.12c33.6 16.32 53.76 48.96 53.76 88.32 0 39.84-20.16 75.84-53.76 92.16a136.271 136.271 0 0 0-19.68-24.96c-17.28-17.28-21.6-40.8-21.6-65.28s4.32-48 21.6-65.28A136.271 136.271 0 0 0 840 465.12zm-173.28 352.8c-16.32 33.12-50.88 54.24-90.72 54.24s-74.4-21.12-90.72-54.24a136.271 136.271 0 0 0 24.96-19.68c17.76-17.28 40.8-24.96 65.76-24.96s48 7.68 65.76 24.96a136.271 136.271 0 0 0 24.96 19.68zM312 645.6c-33.6-16.32-51.84-50.4-51.84-90.24s18.24-73.92 51.84-90.24a136.271 136.271 0 0 0 19.68 24.96c17.28 17.28 23.04 40.8 23.04 65.28s-5.76 48-23.04 65.28A136.271 136.271 0 0 0 312 645.6zm264 246.24c46.56 0 86.4-27.84 106.08-66.24a129 129 0 0 0 48.96 9.6c33.6 0 74.4-4.32 97.92-27.84 24-24 28.32-64.32 28.32-97.92a130.837 130.837 0 0 0-9.6-48.96c38.88-19.2 65.76-59.04 65.76-105.12s-26.88-85.92-65.76-105.12a130.837 130.837 0 0 0 9.6-48.96c0-33.6-5.28-72.48-28.8-96.48-24-23.52-63.84-29.28-97.44-29.28a131.448 131.448 0 0 0-49.44 9.6A117.986 117.986 0 0 0 576 219.84c-46.56 0-86.4 26.88-106.08 65.28a129 129 0 0 0-48.96-9.6c-33.6 0-70.08 3.36-94.08 26.88-24 24-32.16 65.28-32.16 98.88a130.837 130.837 0 0 0 9.6 48.96c-38.88 19.2-65.76 59.04-65.76 105.12s26.88 85.92 65.76 105.12a130.837 130.837 0 0 0-9.6 48.96c0 33.6 4.32 72.96 28.32 96.96 23.52 23.52 64.32 28.8 97.92 28.8a129 129 0 0 0 48.96-9.6C489.6 864 529.44 891.84 576 891.84zm116.16-98.4a89.873 89.873 0 0 0 1.92-20.16c0-55.2 45.6-100.32 101.28-100.32a143.222 143.222 0 0 0 20.16-1.92 88.113 88.113 0 0 1 8.64 38.4c0 24.96-13.44 45.12-30.72 62.88-17.76 17.28-37.44 29.76-62.4 29.76a90.2 90.2 0 0 1-38.88-8.64zm123.36-353.76a143.222 143.222 0 0 0-20.16-1.92c-55.68 0-101.28-45.12-101.28-100.32a89.873 89.873 0 0 0-1.92-20.16 90.2 90.2 0 0 1 38.88-8.64c24.96 0 43.68 12 61.44 29.76 17.28 17.28 31.68 37.92 31.68 62.88a88.113 88.113 0 0 1-8.64 38.4zm-355.68-122.4a89.873 89.873 0 0 0-1.92 20.16c0 55.2-45.6 100.32-101.28 100.32a143.222 143.222 0 0 0-20.16 1.92 88.113 88.113 0 0 1-8.64-38.4c0-24.96 14.88-46.08 32.64-63.84 17.28-17.28 35.52-28.8 60.48-28.8a90.2 90.2 0 0 1 38.88 8.64zM336.48 671.04a143.222 143.222 0 0 0 20.16 1.92c55.68 0 101.28 45.12 101.28 100.32a89.873 89.873 0 0 0 1.92 20.16 90.2 90.2 0 0 1-38.88 8.64c-24.96 0-44.64-12.48-62.4-29.76-17.28-17.76-30.72-37.92-30.72-62.88a88.113 88.113 0 0 1 8.64-38.4z" fill-rule="evenodd"/><path d="M576 24C272.156 24 26.391 272.64 26.391 579.36S272.156 1134.721 576 1134.721s549.609-248.643 549.609-555.36S879.844 24 576 24zm0 1049.279c-269.273 0-488.648-221.76-488.648-493.919S306.727 85.438 576 85.438 1064.648 307.2 1064.648 579.36 845.273 1073.279 576 1073.279z" fill-rule="evenodd"/></svg>