<svg xmlns="http://www.w3.org/2000/svg" width="1152" height="1152" viewBox="0 0 1152 1152"><title>AdobeAnalytics_24</title><path d="M442.568 575.04h-56.16l-1.92 314.88c15.36 7.68 40.32 13.92 56.64 19.68zm88.32-19.68v381.6c7.2.48 24-6.24 31.2-6.24 8.64 0 16.8-.48 25.44-.96v-374.4h-56.64zm285.12 254.88c17.76-18.72 42.72-33.6 56.64-55.68v-254.4h-56.64v310.08zm-523.68-216l115.68-133.44 99.84 54.24s104.16-60 105.6-62.4c.96-2.88 133.44-108 133.44-108l113.28 94.56 58.08-41.76-10.08-38.4-44.16 12-116.64-98.4-239.52 176.64-98.88-58.56-132 153.6-82.56 5.76v53.28zm4.32 57.12h-56.64v76.32c13.92 21.12 38.88 34.08 56.16 51.84zm433.92-192h-56.16l-2.4 451.2c16.32-5.76 41.28-12.48 56.64-20.64z"/><path d="M576.012 24C272.168 24 26.4 272.64 26.4 579.36s245.766 555.357 549.609 555.357S1125.6 886.078 1125.6 579.36 879.855 24 576.012 24zm0 1049.279c-269.273 0-488.648-221.76-488.648-493.919S306.738 85.438 576.012 85.438 1064.66 307.2 1064.66 579.36s-219.375 493.919-488.648 493.919z" fill-rule="evenodd"/></svg>