<svg xmlns="http://www.w3.org/2000/svg" width="1152" height="1152" viewBox="0 0 1152 1152"><title>AdobeCampaign_24</title><path d="M614.4 660.48c-15.36 0-70.56-8.64-83.04-15.36l-.48 86.4c12.96 4.32 54.72 7.68 84.96 6.72 106.56-2.4 132-88.8 132-165.6l-.48-283.68c-14.4-5.76-57.12-16.8-72-20.64l1.44 299.04c0 52.8-15.36 93.12-62.4 93.12zM538.56 484.8c39.36 0 72.96 12.48 85.44 19.68l1.92-80.64c-13.44-4.32-55.2-15.84-91.68-15.84-92.64 0-144 84-144 154.56l-.48 292.8c14.4 5.28 72.96 11.04 87.84 14.4l-2.88-306.72c0-47.04 16.8-78.24 63.84-78.24zm279.36 80.64c1.92 144.96-59.04 236.16-202.56 236.16-14.4 0-70.56-5.28-84.48-7.2l-.48 39.84c13.44 2.4 48 9.12 84 9.12 154.56 0 251.52-106.56 248.16-271.68l-.96-215.04c-6.24-6.24-37.92-12-44.64-17.76zm-528 200.16c6.24 5.76 34.08 17.28 40.8 23.04V559.68c0-143.04 60.48-201.6 195.36-201.6 31.68 0 83.04 10.08 96.48 12.48v-39.84c-13.44-1.92-49.92-15.36-92.16-15.36-152.64 0-242.4 77.28-240 238.56z"/><path d="M576 24C272.156 24 26.391 272.64 26.391 579.36S272.156 1134.721 576 1134.721s549.609-248.64 549.609-555.36S879.844 24 576 24zm0 1049.279c-269.273 0-488.648-221.76-488.648-493.919S306.727 85.438 576 85.438 1064.648 307.2 1064.648 579.36 845.273 1073.279 576 1073.279z" fill-rule="evenodd"/></svg>