<svg id="AlertAdd_24" xmlns="http://www.w3.org/2000/svg" width="1152" height="1152" viewBox="0 0 1152 1152"><defs><style/></defs><title>AlertAdd_24</title><path d="M491.063 783.542c-3.727.674-7.143 2.235-11.074 2.235a64.373 64.373 0 0 1 0-128.745c20.063 0 37.254 9.724 49.061 24.1A382.549 382.549 0 0 1 751.594 499.28l-234-425.449c-16.3-29.643-58.9-29.643-75.205 0L42.908 800.162c-15.732 28.6 4.963 63.6 37.6 63.6h401.906a382.486 382.486 0 0 1 8.649-80.22zM428.5 284.411a21.459 21.459 0 0 1 21.457-21.457h60.082a21.459 21.459 0 0 1 21.457 21.457v300.4a21.459 21.459 0 0 1-21.457 21.457h-60.086a21.459 21.459 0 0 1-21.453-21.453v-300.4z"/><path d="M864 578.4c-157.733 0-285.6 127.867-285.6 285.6s127.867 285.6 285.6 285.6 285.6-127.871 285.6-285.6S1021.733 578.4 864 578.4zM1056 900a12 12 0 0 1-12 12H912v132a12 12 0 0 1-12 12h-72a12 12 0 0 1-12-12V912H684a12 12 0 0 1-12-12v-72a12 12 0 0 1 12-12h132V684a12 12 0 0 1 12-12h72a12 12 0 0 1 12 12v132h132a12 12 0 0 1 12 12v72z"/></svg>