<svg xmlns="http://www.w3.org/2000/svg" width="1152" height="1152" viewBox="0 0 1152 1152"><title>AmazonWebServices_24</title><path d="M624 1009.412L480 1080V912l144-70.588v168zM288 841.412L432 912v168l-144-70.588v-168zM614.79 796.342L456 871.2l-158.79-74.858a4.8 4.8 0 0 1 0-8.684L456 712.8l158.79 74.854a4.8 4.8 0 0 1 0 8.688zM432 676.84l-144 70.589v-168l144-70.589v168zM96 508.84l144 70.589v168L96 676.84v-168zM422.79 463.77L264 538.625 105.21 463.77a4.8 4.8 0 0 1 0-8.684L264 380.233l158.79 74.854a4.8 4.8 0 0 1 0 8.683zM816 676.84l-144 70.589v-168l144-70.589v168zM480 508.84l144 70.589v168L480 676.84v-168zM806.79 463.77L648 538.625 489.21 463.77a4.8 4.8 0 0 1 0-8.684L648 380.233l158.79 74.854a4.8 4.8 0 0 1 0 8.683zM1008 340.84l-144 70.589v-168l144-70.589v168zM672 172.84l144 70.589v168L672 340.84v-168zM998.79 127.77L840 202.625 681.21 127.77a4.8 4.8 0 0 1 0-8.684L840 44.233l158.79 74.854a4.8 4.8 0 0 1 0 8.683z"/></svg>