<svg xmlns="http://www.w3.org/2000/svg" data-name="S_Annotate_24_N@2x" height="48" id="S_Annotate_24_N_2x" viewBox="0 0 48 48" width="48"><defs><style>.fill{fill:#707070}</style></defs><title>S_Annotate_24_N@2x</title><path class="fill" d="M33.6 42l8.4-8.4h-7.9a.5.5 0 0 0-.5.5z"/><path class="fill" d="M40 6H8a2 2 0 0 0-2 2v32a2 2 0 0 0 2 2h22V32a2 2 0 0 1 2-2h10V8a2 2 0 0 0-2-2zM25.5 34h-13a.5.5 0 0 1-.5-.5v-3a.5.5 0 0 1 .5-.5h13a.5.5 0 0 1 .5.5v3a.5.5 0 0 1-.5.5zm10-8h-23a.5.5 0 0 1-.5-.5v-3a.5.5 0 0 1 .5-.5h23a.5.5 0 0 1 .5.5v3a.5.5 0 0 1-.5.5zm0-8h-23a.5.5 0 0 1-.5-.5v-3a.5.5 0 0 1 .5-.5h23a.5.5 0 0 1 .5.5v3a.5.5 0 0 1-.5.5z"/></svg>