<svg xmlns="http://www.w3.org/2000/svg" width="1152" height="1152" viewBox="0 0 1152 1152"><title>AnswerFavorite_24</title><path d="M653.566 980.092L487.359 819.486c-26.3-25.406-15.059-67.975 17.426-79.342 11-26.707 37.453-44.145 71.191-44.145 24.656 0 44.766 8.766 58.313 23.426l107.883-16.16 101.391-207.708c17.438-35.754 68.32-35.971 86.086-.375L1032.832 702l23.051 3.246L1056 192a47.992 47.992 0 0 0-47.988-48H144a48 48 0 0 0-48 48v672a48 48 0 0 0 48 48h288l144 240 67.7-112.828zM499.2 259.875c0-3.469 0-6.914 5.813-9.516C520.16 244.313 557.414 240 574.828 240c23.3 0 59.344 3.445 71.027 7.758 5.813 2.6 6.949 6.914 6.949 9.516V319.5c0 72.609-19.758 276.563-23.238 302.484 0 2.6-1.2 5.2-8.145 5.2H528.3c-4.676 0-7.008-1.734-8.145-5.2C517.828 597.8 499.2 394.688 499.2 322.1v-62.225z"/><path d="M806.3 790.73l70.2-143.806a12 12 0 0 1 21.521-.094l71.446 143.187 158.458 22.319a12 12 0 0 1 6.74 20.439l-114.1 112.2 27.739 157.6a12 12 0 0 1-17.356 12.726l-141.968-73.849-141.314 75.083a12 12 0 0 1-17.466-12.574l26.362-157.836-115.076-111.2a12 12 0 0 1 6.561-20.5z"/></svg>