<svg xmlns="http://www.w3.org/2000/svg" width="1152" height="1152" viewBox="0 0 1152 1152"><title>Answer_24</title><path d="M1008.012 144H144a48 48 0 0 0-48 48v672a48 48 0 0 0 48 48h288l144 240 144-240 287.859-.152a48.012 48.012 0 0 0 47.988-47.988L1056 192a47.992 47.992 0 0 0-47.988-48zM499.2 259.875c0-3.469 0-6.914 5.808-9.516 15.152-6.046 52.4-10.359 69.824-10.359 23.3 0 59.344 3.445 71.023 7.758 5.808 2.6 6.945 6.914 6.945 9.516V319.5c0 72.609-19.76 276.563-23.233 302.484 0 2.6-1.2 5.2-8.144 5.2H528.3c-4.672 0-7.008-1.734-8.144-5.2C517.824 597.8 499.2 394.688 499.2 322.1v-62.225zM575.971 840c-45.878 0-76.771-27.537-76.771-70.952C499.2 726.7 531.193 696 575.971 696c45.878 0 76.829 29.633 76.829 73.048 0 44.478-32.051 70.952-76.829 70.952z"/></svg>