<svg xmlns="http://www.w3.org/2000/svg" width="1152" height="1152" viewBox="0 0 1152 1152"><title>App_24</title><path d="M960 96H192a96 96 0 0 0-96 96v768a96 96 0 0 0 96 96h768a96 96 0 0 0 96-96V192a96 96 0 0 0-96-96zM576 960c-212.076 0-384-171.924-384-384s171.924-384 384-384 384 171.924 384 384-171.924 384-384 384z"/><path d="M784.942 761.344c-49.254-135.791-102.5-288.223-151.1-422.016-1.324-2.66-2.66-3.328-5.32-3.328h-107.17c-2.672 0-4.664 1.33-4.664 4.658-1.336 25.963-4 34.611-6.656 41.268-41.93 115.16-98.508 278.906-133.793 378.75-1.336 4.664 0 7.324 5.332 7.324h79.875c3.984 0 6.656-1.336 7.98-5.988L499.238 672h154.395l32.789 91.336c1.336 3.328 2.672 4.664 6.656 4.664h87.867c4.664 0 6-2 3.997-6.656zM574.6 414.545h.656c13.313 47.924 42.938 131.941 56.25 177.205H519.758c17.309-53.918 44.859-131.941 54.842-177.205z"/></svg>