<svg xmlns="http://www.w3.org/2000/svg" width="1152" height="1152" viewBox="0 0 1152 1152"><title>ArchiveRemove_24</title><rect y="96" width="960" height="192" rx="48" ry="48"/><path d="M864 578.4c-157.733 0-285.6 127.867-285.6 285.6s127.867 285.6 285.6 285.6 285.6-127.871 285.6-285.6S1021.733 578.4 864 578.4zM1056 900a12 12 0 0 1-12 12H684a12 12 0 0 1-12-12v-72a12 12 0 0 1 12-12h360a12 12 0 0 1 12 12v72z"/><path d="M312 672a24 24 0 0 1-24-24V504a24 24 0 0 1 24-24h336a24 24 0 0 1 24 24v30.6a379.305 379.305 0 0 1 192-52.2V384H96v432a48 48 0 0 0 48 48h338.4a379.305 379.305 0 0 1 52.2-192H312z"/></svg>