<svg xmlns="http://www.w3.org/2000/svg" data-name="S_Artboard_24_N@2x" height="48" id="S_Artboard_24_N_2x" viewBox="0 0 48 48" width="48"><defs><style>.fill{fill:#707070}</style></defs><title>S_Artboard_24_N@2x</title><path class="fill" d="M43.414 20.414l-7.828-7.828A2 2 0 0 0 34.172 12H14a2 2 0 0 0-2 2v28a2 2 0 0 0 2 2h28a2 2 0 0 0 2-2V21.828a2 2 0 0 0-.586-1.414zM40 40H16V16h16v6a2 2 0 0 0 2 2h6z"/><rect class="fill" height="8" rx="1" ry="1" width="4" x="12" y="2"/><rect class="fill" height="4" rx="1" ry="1" width="8" x="2" y="12"/></svg>