<svg xmlns="http://www.w3.org/2000/svg" data-name="S_AssetsExpired_24_N@2x" height="48" id="S_AssetsExpired_24_N_2x" viewBox="0 0 48 48" width="48"><defs><style>.fill{fill:#707070}</style></defs><title>S_AssetsExpired_24_N@2x</title><path class="fill" d="M18.719 32H6V8h36v18.128l4 7.158V5a1 1 0 0 0-1-1H3a1 1 0 0 0-1 1v30a1 1 0 0 0 1 1h13.483z"/><path class="fill" d="M47.627 44.4L32.939 18.115a1.076 1.076 0 0 0-1.878 0L16.373 44.4a1.076 1.076 0 0 0 .939 1.6h29.376a1.076 1.076 0 0 0 .939-1.6zM34 41.5a.5.5 0 0 1-.5.5h-3a.5.5 0 0 1-.5-.5v-3a.5.5 0 0 1 .5-.5h3a.5.5 0 0 1 .5.5zm0-6a.5.5 0 0 1-.5.5h-3a.5.5 0 0 1-.5-.5v-9a.5.5 0 0 1 .5-.5h3a.5.5 0 0 1 .5.5z"/></svg>