<svg xmlns="http://www.w3.org/2000/svg" width="1152" height="1152" viewBox="0 0 1152 1152"><title>AssetCheck_24</title><circle cx="571.2" cy="254.4" r="60"/><path d="M485.367 912H444a12 12 0 0 1-12-12v-72a12 12 0 0 1 12-12h42.094a381.532 381.532 0 0 1 9.586-48H444a12 12 0 0 1-12-12v-72a12 12 0 0 1 12-12h72a12 12 0 0 1 12 12v1.456c2.719-5.062 5.906-9.841 8.859-14.763C531.938 669.185 528 665.4 528 660v-24a12 12 0 0 1 12-12h29.3c69.981-85 176.013-139.2 294.7-139.2a380.938 380.938 0 0 1 96 12.662V384a48 48 0 0 0-48-48H432a48 48 0 0 0-48 48v528a48 48 0 0 0 48 48h62.438a381.314 381.314 0 0 1-9.071-48zM816 396a12 12 0 0 1 12-12h72a12 12 0 0 1 12 12v72a12 12 0 0 1-12 12h-72a12 12 0 0 1-12-12v-72zm-384 0a12 12 0 0 1 12-12h72a12 12 0 0 1 12 12v72a12 12 0 0 1-12 12h-72a12 12 0 0 1-12-12v-72zm0 144a12 12 0 0 1 12-12h72a12 12 0 0 1 12 12v72a12 12 0 0 1-12 12h-72a12 12 0 0 1-12-12v-72z" fill-rule="evenodd"/><path d="M816 48H48A48 48 0 0 0 0 96v576a48 48 0 0 0 48 48h240V363.516C269.531 346.934 251.625 336 234.844 336c-38.3 0-97.359 68.4-138.844 123.563V144h672v192h96V96a48 48 0 0 0-48-48zM864 578.4c-157.734 0-285.6 127.869-285.6 285.6s127.866 285.6 285.6 285.6 285.6-127.869 285.6-285.6S1021.734 578.4 864 578.4zm-53.485 475.118L663.329 906.329a12 12 0 0 1 0-16.971l42.279-42.279a12 12 0 0 1 16.971 0L816 940.5l214.546-214.546a12 12 0 0 1 16.971 0l45.279 45.279a12 12 0 0 1 0 16.971l-265.311 265.311a12 12 0 0 1-16.97 0z"/></svg>