<svg xmlns="http://www.w3.org/2000/svg" data-name="S_AssetsAdded_24_N@2x" height="48" id="S_AssetsAdded_24_N_2x" viewBox="0 0 48 48" width="48"><defs><style>.fill{fill:#707070}</style></defs><title>S_AssetsAdded_24_N@2x</title><path class="fill" d="M16 34a18.064 18.064 0 0 1 .118-2H6V8h36v9.9a18.037 18.037 0 0 1 4 2.722V5a1 1 0 0 0-1-1H3a1 1 0 0 0-1 1v30a1 1 0 0 0 1 1h13.118A18.064 18.064 0 0 1 16 34z"/><path class="fill" d="M34 20a14 14 0 1 0 14 14 14 14 0 0 0-14-14zm7 16h-5v5a2 2 0 0 1-4 0v-5h-5a2 2 0 0 1 0-4h5v-5a2 2 0 0 1 4 0v5h5a2 2 0 0 1 0 4z"/></svg>