<svg xmlns="http://www.w3.org/2000/svg" data-name="S_AssetsPublished_24_N@2x" height="48" id="S_AssetsPublished_24_N_2x" viewBox="0 0 48 48" width="48"><defs><style>.fill{fill:#707070}</style></defs><title>S_AssetsPublished_24_N@2x</title><path class="fill" d="M9.579 32H6V8h36v9.375l4-.875V5a1 1 0 0 0-1-1H3a1 1 0 0 0-1 1v30a1 1 0 0 0 1 1h13.971zM25.75 37.125l11.276 5.907a1 1 0 0 0 1.344-.446l8.916-20.729zM22.08 39.25v7.639a.713.713 0 0 0 1.174.544l5.36-4.516z"/><path class="fill" d="M45.479 20.135a.1.1 0 0 0-.084-.18l-30.878 9.952a.5.5 0 0 0-.08.926l7.917 3.953z"/></svg>