<svg xmlns="http://www.w3.org/2000/svg" width="1152" height="1152" viewBox="0 0 1152 1152"><title>AttachmentExclude_24</title><path d="M510.023 1008.448c-40.148 35.37-90.187 55.38-143.6 55.38h-3.469c-58.875-.937-114.937-25.031-157.781-67.828-89.437-89.484-90.937-228.187-3.422-315.8l546.421-547.122c29.016-29.016 65.391-46.172 102.422-48.328 37.922-2.906 71.461 8.414 99.68 36.586 27.891 27.938 42.82 64.992 36.4 100.43a187.5 187.5 0 0 1-51.8 98.027s-88.2 88.031-181.852 181.518A381.348 381.348 0 0 1 864 484.8c6.7 0 13.266.662 19.875 1l108.656-108.351c81.984-81.891 113.461-215.8 15.445-313.816-43.172-43.172-94.2-61.008-149.7-61.008-59.156 0-119.344 24.375-167.766 72.8L146.766 618.328c-120.281 120.234-120.281 315.891 0 436.125 109.758 109.887 282.328 119.01 403.008 28.254a380.029 380.029 0 0 1-39.751-74.259z"/><path d="M805.313 332.971a23.927 23.927 0 0 0 .469-33.366L783.7 276.123a24.017 24.017 0 0 0-34.523-.48L410.531 615.5c-33.187 33.188-74.648 106.465-2.344 178.767 25.313 25.3 51.563 33.961 76.148 33.923a378.585 378.585 0 0 1 18.141-83.247c-14.133 7.008-28.43 6.662-43.8-8.742-26.812-26.8-5.742-51.308 17.2-74.256 8.718-8.721 282.843-282.515 329.437-328.974zM864 578.405c-157.734 0-285.6 127.872-285.6 285.6s127.863 285.6 285.6 285.6 285.6-127.869 285.6-285.6-127.866-285.6-285.6-285.6zm214.2 285.6a212.605 212.605 0 0 1-39.914 123.8L740.2 689.722A212.629 212.629 0 0 1 864 649.808c118.3 0 214.2 95.9 214.2 214.198zm-428.391 0a212.6 212.6 0 0 1 39.914-123.8L987.8 1038.293a212.629 212.629 0 0 1-123.8 39.914c-118.3 0-214.2-95.9-214.2-214.201z"/></svg>