<svg xmlns="http://www.w3.org/2000/svg" width="1152" height="1152" viewBox="0 0 1152 1152"><title>Beaker_24</title><path d="M998.648 970.181L783.527 468.214A192.02 192.02 0 0 1 768 392.581V192a48 48 0 0 0 48-48V96a48 48 0 0 0-48-48H384a48 48 0 0 0-48 48v48a48 48 0 0 0 48 48v200.581a192.02 192.02 0 0 1-15.527 75.633L153.352 970.181C126.211 1033.529 172.676 1104 241.594 1104h668.812c68.918 0 115.383-70.471 88.242-133.819zM342.539 768l114.727-271.318A288.081 288.081 0 0 0 480 384.524V192h192v193.427a288 288 0 0 0 22.066 110.558L752.73 637.09z"/></svg>