<svg xmlns="http://www.w3.org/2000/svg" width="1152" height="1152" viewBox="0 0 1152 1152"><title>BeakerShare_24</title><path d="M953.329 631.952L816 480 679.011 631.952c-13.9 15.445-2.938 40.055 17.839 40.055H768v276a12 12 0 0 0 12 12h72a12 12 0 0 0 12-12v-276h71.49c20.778 0 31.738-24.607 17.839-40.055z"/><path d="M1128 720H960v96h96v240H576V816h96v-96H504a24 24 0 0 0-24 24v384a24 24 0 0 0 24 24h624a24 24 0 0 0 24-24V744a24 24 0 0 0-24-24z"/><path d="M720 48H336a48 48 0 0 0-48 48v48a48 48 0 0 0 48 48v200.581a192.02 192.02 0 0 1-15.527 75.633L105.352 970.181C78.211 1033.529 124.676 1104 193.594 1104h203.25V735.349L294.539 768l114.727-271.318A288.081 288.081 0 0 0 432 384.524V192h192v193.427a288 288 0 0 0 22.066 110.558l12.363 29.754 70.594-78.293C723.668 429.6 720 411.29 720 392.581V192a48 48 0 0 0 48-48V96a48 48 0 0 0-48-48z"/></svg>