<svg xmlns="http://www.w3.org/2000/svg" width="1152" height="1152" viewBox="0 0 1152 1152"><title>BeakerCheck_24</title><path d="M864 578.4c-157.734 0-285.6 127.869-285.6 285.6s127.866 285.6 285.6 285.6 285.6-127.869 285.6-285.6S1021.734 578.4 864 578.4zm-53.485 475.118L663.329 906.329a12 12 0 0 1 0-16.971l42.279-42.279a12 12 0 0 1 16.971 0L816 940.5l214.546-214.546a12 12 0 0 1 16.971 0l45.279 45.279a12 12 0 0 1 0 16.971l-265.311 265.311a12 12 0 0 1-16.97 0z"/><path d="M482.4 864a379.4 379.4 0 0 1 39.656-168.612L294.539 768l114.727-271.318A288.081 288.081 0 0 0 432 384.524V192h192v193.427a288 288 0 0 0 22.066 110.558l18.047 43.4a378.877 378.877 0 0 1 85.055-39.337l-13.641-31.837A192.02 192.02 0 0 1 720 392.581V192a48 48 0 0 0 48-48V96a48 48 0 0 0-48-48H336a48 48 0 0 0-48 48v48a48 48 0 0 0 48 48v200.581a192.02 192.02 0 0 1-15.527 75.633L105.352 970.181C78.211 1033.529 124.676 1104 193.594 1104h373.9A379.828 379.828 0 0 1 482.4 864z"/></svg>