<svg xmlns="http://www.w3.org/2000/svg" width="1152" height="1152" viewBox="0 0 1152 1152"><title>BidRuleAdd_24</title><path d="M451.81 353.338l-35.688-35.693a25.228 25.228 0 0 1 0-35.688L665.957 32.122a25.228 25.228 0 0 1 35.688 0l35.693 35.688a25.242 25.242 0 0 1 0 35.693L487.5 353.338a25.242 25.242 0 0 1-35.69 0zM864 578.4c-157.733 0-285.6 127.867-285.6 285.6s127.867 285.6 285.6 285.6 285.6-127.872 285.6-285.6S1021.733 578.4 864 578.4zM1056 900a12 12 0 0 1-12 12H912v132a12 12 0 0 1-12 12h-72a12 12 0 0 1-12-12V912H684a12 12 0 0 1-12-12v-72a12 12 0 0 1 12-12h132V684a12 12 0 0 1 12-12h72a12 12 0 0 1 12 12v132h132a12 12 0 0 1 12 12zM646.594 550.6L576 480 62.064 954.182a48.01 48.01 0 0 0 0 67.882l67.872 67.872a48 48 0 0 0 67.877 0l297.326-322.253A381.734 381.734 0 0 1 646.594 550.6zM861.47 482.53L960 384 768 192 576 384l131.99 131.99a379.483 379.483 0 0 1 153.48-33.46zM1066.8 541.162l54.1-54.1a25.242 25.242 0 0 0 0-35.693l-35.688-35.688a25.242 25.242 0 0 0-35.693 0l-81.456 81.451a378.734 378.734 0 0 1 98.737 44.03z"/></svg>