<svg xmlns="http://www.w3.org/2000/svg" width="1152" height="1152" viewBox="0 0 1152 1152"><title>BidRule_24</title><path d="M768 576L576 384l192-192 111.687 111.687L960 384 768 576zM835.378 736.9l-35.693-35.688a25.242 25.242 0 0 1 0-35.693l249.835-249.834a25.242 25.242 0 0 1 35.693 0l35.688 35.693a25.236 25.236 0 0 1 0 35.688L871.066 736.9a25.236 25.236 0 0 1-35.688 0zM451.81 353.338l-35.688-35.693a25.228 25.228 0 0 1 0-35.688L665.957 32.122a25.228 25.228 0 0 1 35.688 0l35.693 35.688a25.242 25.242 0 0 1 0 35.693L487.5 353.338a25.242 25.242 0 0 1-35.69 0zM129.936 1089.936l-67.872-67.872a48 48 0 0 1 0-67.882L576 480l96 96-474.182 513.936a48 48 0 0 1-67.882 0zM1104 1008v-48a48 48 0 0 0-48-48H768a48 48 0 0 0-48 48v48h-24a24 24 0 0 0-24 24v48a24 24 0 0 0 24 24h432a24 24 0 0 0 24-24v-48a24 24 0 0 0-24-24z"/></svg>