<svg xmlns="http://www.w3.org/2000/svg" width="1152" height="1152" viewBox="0 0 1152 1152"><title>Blackberry_24</title><path d="M274.339 192H119.7L78.069 382.322H244.6c65.423-1.19 118.951-36.875 127.278-95.161C379.54 233.533 326.894 192 274.339 192zM666.878 192H512.241l-41.633 190.322H637.14c65.423-1.19 118.951-36.875 127.278-95.161 7.661-53.628-44.985-95.161-97.54-95.161zM214.863 480H60.226L18.594 670.322h166.531c65.423-1.19 118.951-36.875 127.278-95.161 7.661-53.628-44.985-95.161-97.54-95.161zM607.4 480H452.766l-41.633 190.322h166.531c65.423-1.19 118.951-36.875 127.278-95.161C712.6 521.533 659.957 480 607.4 480zM1023.731 384H869.095l-41.633 190.322h166.532c65.423-1.19 118.951-36.875 127.278-95.161 7.661-53.628-44.985-95.161-97.541-95.161zM964.256 672H809.619l-41.633 190.322h166.532c65.423-1.19 118.951-36.875 127.278-95.161 7.661-53.628-44.985-95.161-97.54-95.161zM547.926 768H393.29l-41.633 190.322h166.532c65.423-1.19 118.951-36.875 127.278-95.161C653.128 809.533 600.482 768 547.926 768z"/></svg>