<svg xmlns="http://www.w3.org/2000/svg" data-name="S_Blog_24_N@2x" height="48" id="S_Blog_24_N_2x" viewBox="0 0 48 48" width="48"><defs><style>.fill{fill:#707070}</style></defs><title>S_Blog_24_N@2x</title><path class="fill" d="M12 4v6h6a20 20 0 0 1 20 20v6h6v-6A26 26 0 0 0 18 4z"/><path class="fill" d="M28 32v4h6v-4a18 18 0 0 0-18-18h-4v6h4a12 12 0 0 1 12 12z"/><path class="fill" d="M13 24c-.339 0-.669.031-1 .061V29.9a5.2 5.2 0 1 1 1 10.3c-2.872 0-5.1-1.955-5.1-6.553V14H2v21a11 11 0 1 0 11-11z"/></svg>