<svg xmlns="http://www.w3.org/2000/svg" data-name="S_Bookmark_24_N@2x" height="48" id="S_Bookmark_24_N_2x" viewBox="0 0 48 48" width="48"><defs><style>.fill{fill:#707070}</style></defs><title>S_Bookmark_24_N@2x</title><path class="fill" d="M14.884 46.939L19 42l4.116 4.939a.5.5 0 0 0 .884-.32V30H14v16.619a.5.5 0 0 0 .884.32zM44.429 20h-3.538L28 37.725V42h.981a2 2 0 0 0 1.618-.824l14.477-19.905A.8.8 0 0 0 44.429 20z"/><path class="fill" d="M44.429 4H21.617A2 2 0 0 0 20 4.824L4 26h.045c-2.282 3.019-2.982 7.3-.39 11.731A8.731 8.731 0 0 0 10 41.922v-4.331A5.959 5.959 0 0 1 12 26h16.981a2 2 0 0 0 1.618-.824L45.076 5.271A.8.8 0 0 0 44.429 4z"/></svg>