<svg xmlns="http://www.w3.org/2000/svg" width="1152" height="1152" viewBox="0 0 1152 1152"><title>Book_24</title><path d="M667.2 912H293.7c-69.644 0-133.622-46.931-146.907-115.3C128.931 704.775 199.211 624 288 624h407.557a48 48 0 0 0 38.819-19.768l347.447-477.739A19.2 19.2 0 0 0 1066.3 96H518.819A48 48 0 0 0 480 115.768L96 624h1.084c-54.767 72.467-71.562 175.149-9.353 281.547C128.618 975.476 207.275 1014.727 288 1008h407.557a48 48 0 0 0 38.819-19.768l347.447-477.739A19.2 19.2 0 0 0 1066.3 480h-84.913z"/></svg>