<svg xmlns="http://www.w3.org/2000/svg" data-name="S_Box_24_N@2x" height="48" id="S_Box_24_N_2x" viewBox="0 0 48 48" width="48"><defs><style>.fill{fill:#707070}</style></defs><title>S_Box_24_N@2x</title><path class="fill" d="M22 46L5.029 36.572A2 2 0 0 1 4 34.823V18l18 10zM42.971 36.572L26 46V28l18-10v16.823a2 2 0 0 1-1.029 1.749zM32.3 6.155l-7.347-3.978a2 2 0 0 0-1.905 0L4.74 12.094a1.031 1.031 0 0 0 0 1.813l6.912 3.744zM43.26 12.094l-6.8-3.682-20.645 11.5L24 24.339l19.26-10.433a1.031 1.031 0 0 0 0-1.812z"/></svg>