<svg xmlns="http://www.w3.org/2000/svg" width="1152" height="1152" viewBox="0 0 1152 1152"><title>BoxExport_24</title><path d="M432 1104L24.689 877.716A48 48 0 0 1 0 835.757V432l432 240v432zM679.1 147.709L502.863 52.248a48.005 48.005 0 0 0-45.727 0l-439.383 238a24.74 24.74 0 0 0 0 43.506l165.88 89.846zM942.246 290.247l-163.137-88.368-495.468 275.892L480 584.136l462.246-250.383a24.74 24.74 0 0 0 0-43.506zM840 576h120V432L528 672v432l96-53.332V768a48 48 0 0 1 48-48h144V600a24 24 0 0 1 24-24z"/><path d="M912 816V687.807a12 12 0 0 1 20.729-8.235L1152 912l-219.271 232.428a12 12 0 0 1-20.729-8.235V1008H744a24 24 0 0 1-24-24V840a24 24 0 0 1 24-24h168z"/></svg>