<svg xmlns="http://www.w3.org/2000/svg" width="1152" height="1152" viewBox="0 0 1152 1152"><title>BoxImport_24</title><path d="M1127.311 877.716L720 1104V672l432-240v403.757a48 48 0 0 1-24.689 41.959zM871.1 147.709L694.863 52.248a48.005 48.005 0 0 0-45.727 0l-439.383 238a24.74 24.74 0 0 0 0 43.506l165.88 89.846zM1134.246 290.247l-163.137-88.368-495.468 275.892L672 584.136l462.246-250.383a24.74 24.74 0 0 0 0-43.506zM192 432v115.037c12.352-.117 24.844 3.946 34.406 13.509l331.055 331.072a24 24 0 0 1 0 33.94l-90.937 90.952L624 1104V672z"/><path d="M192 816V687.807a12 12 0 0 1 20.729-8.235L432 912l-219.271 232.428a12 12 0 0 1-20.729-8.235V1008H24a24 24 0 0 1-24-24V840a24 24 0 0 1 24-24h168z"/></svg>