<svg xmlns="http://www.w3.org/2000/svg" width="1152" height="1152" viewBox="0 0 1152 1152"><title>Brackets_24</title><path d="M432.013 997.875a24 24 0 0 0-24-24h-48.586c-13.207 0-24-9.908-24-22.02V696c0-56.2-92.883-120.5-92.883-120.5s92.883-62.3 92.883-119.5V198.768c0-11.956 10.559-21.647 23.59-21.647h49a24 24 0 0 0 24-24V72a24 24 0 0 0-24-24h-23.03c-106.4 0-192.511 86.493-192 192.891.447 92.625.879 189.825.879 219.17 0 39.293-51.773 76.066-88.313 97.131-14.953 8.616-15.082 28.295-.234 37.049 36.563 21.551 88.547 58.843 88.547 96.7V912c0 106.039 85.961 192 192 192h22.148a24 24 0 0 0 24-24v-82.125zM719.987 997.875a24 24 0 0 1 24-24h48.586c13.207 0 24-9.908 24-22.02V696c0-56.2 92.883-120.5 92.883-120.5s-92.883-62.3-92.883-119.5V198.768c0-11.956-10.559-21.647-23.59-21.647h-49a24 24 0 0 1-24-24V72a24 24 0 0 1 24-24h23.03c106.4 0 192.511 86.493 192 192.891-.447 92.625-.879 189.825-.879 219.17 0 39.293 51.773 76.066 88.313 97.131 14.953 8.616 15.082 28.295.234 37.049-36.562 21.551-88.547 58.843-88.547 96.7V912c0 106.039-85.961 192-192 192h-22.147a24 24 0 0 1-24-24v-82.125z"/></svg>