<svg xmlns="http://www.w3.org/2000/svg" width="1152" height="1152" viewBox="0 0 1152 1152"><title>Branch1_24</title><path d="M912 576a191.618 191.618 0 0 0-147.7 69.328l-336.847-171.65A193.032 193.032 0 0 0 432 432c0-106.043-85.957-192-192-192S48 325.957 48 432s85.957 192 192 192a191.547 191.547 0 0 0 143.859-64.852l339.492 173A193.252 193.252 0 0 0 720 768c0 106.037 85.957 192 192 192s192-85.963 192-192-85.957-192-192-192zm0 292.8A100.8 100.8 0 1 1 1012.8 768 100.807 100.807 0 0 1 912 868.8z"/></svg>