<svg xmlns="http://www.w3.org/2000/svg" width="1152" height="1152" viewBox="0 0 1152 1152"><title>Branch2_24</title><path d="M912 720c-59.859 0-112.652 27.961-147.867 70.9L428.555 610.154a170.984 170.984 0 0 0 0-68.3l335.6-180.732C799.359 404.045 852.141 432 912 432c106.043 0 192-85.963 192-192S1018.043 48 912 48s-192 85.957-192 192a191.913 191.913 0 0 0 3.445 34.16l-335.59 180.727C352.641 411.961 299.859 384 240 384c-106.043 0-192 85.957-192 192s85.957 192 192 192c59.848 0 112.641-27.961 147.844-70.881l335.6 180.744A191.65 191.65 0 0 0 720 912c0 106.037 85.957 192 192 192s192-85.963 192-192-85.957-192-192-192zm0-580.8A100.8 100.8 0 1 1 811.2 240 100.812 100.812 0 0 1 912 139.2zm0 873.6A100.8 100.8 0 1 1 1012.8 912 100.807 100.807 0 0 1 912 1012.8z"/></svg>