<svg xmlns="http://www.w3.org/2000/svg" width="1152" height="1152" viewBox="0 0 1152 1152"><title>Branch-Circle_24</title><path d="M768 688.635A79.362 79.362 0 1 0 847.359 768 79.358 79.358 0 0 0 768 688.635zM768 463.359A79.362 79.362 0 1 0 688.641 384 79.353 79.353 0 0 0 768 463.359z"/><path d="M576 98.4C312.234 98.4 98.4 312.234 98.4 576s213.834 477.6 477.6 477.6 477.6-213.834 477.6-477.6S839.766 98.4 576 98.4zm192 818.4a146.926 146.926 0 0 1-146.227-174.382l-169.054-75.141C425.484 702.047 383.59 724.8 336 724.8a148.8 148.8 0 1 1 0-297.6c47.59 0 89.484 22.758 116.719 57.533l169.055-75.135A148.609 148.609 0 1 1 768 532.8c-47.578 0-89.473-22.752-116.719-57.51l-169.054 75.128a127.955 127.955 0 0 1-.012 51.17l169.066 75.135C678.516 641.947 720.41 619.2 768 619.2a148.8 148.8 0 1 1 0 297.6z"/></svg>