<svg xmlns="http://www.w3.org/2000/svg" width="1152" height="1152" viewBox="0 0 1152 1152"><title>Branch3_24</title><path d="M432 912c0-59.859-27.961-112.652-70.9-147.867l180.746-335.578a170.984 170.984 0 0 0 68.3 0l180.732 335.6C747.955 799.359 720 852.141 720 912c0 106.043 85.963 192 192 192s192-85.957 192-192-85.957-192-192-192a191.913 191.913 0 0 0-34.16 3.445l-180.727-335.59C740.039 352.641 768 299.859 768 240c0-106.043-85.957-192-192-192s-192 85.957-192 192c0 59.848 27.961 112.641 70.881 147.844l-180.744 335.6A191.65 191.65 0 0 0 240 720c-106.037 0-192 85.957-192 192s85.963 192 192 192 192-85.957 192-192zm580.8 0A100.8 100.8 0 1 1 912 811.2 100.812 100.812 0 0 1 1012.8 912zm-873.6 0A100.8 100.8 0 1 1 240 1012.8 100.807 100.807 0 0 1 139.2 912z"/></svg>