<svg xmlns="http://www.w3.org/2000/svg" width="1152" height="1152" viewBox="0 0 1152 1152"><title>BreakdownAdd_24</title><path d="M864 578.4c-157.733 0-285.6 127.867-285.6 285.6s127.867 285.6 285.6 285.6 285.6-127.871 285.6-285.6S1021.733 578.4 864 578.4zM1056 900a12 12 0 0 1-12 12H912v132a12 12 0 0 1-12 12h-72a12 12 0 0 1-12-12V912H684a12 12 0 0 1-12-12v-72a12 12 0 0 1 12-12h132V684a12 12 0 0 1 12-12h72a12 12 0 0 1 12 12v132h132a12 12 0 0 1 12 12v72z"/><path d="M495.059 960H336v-96h146.4a380.191 380.191 0 0 1 28.324-144H336v-96h231.492C637.453 537.674 744.223 482.4 864 482.4a380.909 380.909 0 0 1 94.043 12.161A23.992 23.992 0 0 0 936 480H336V240h600a24 24 0 0 0 24-24V72a24 24 0 0 0-24-24H72a24 24 0 0 0-24 24v144a24 24 0 0 0 24 24h168v816a48 48 0 0 0 48 48h279.492a380.167 380.167 0 0 1-72.433-144z"/></svg>