<svg xmlns="http://www.w3.org/2000/svg" width="1152" height="1152" viewBox="0 0 1152 1152"><title>Browse_24</title><path d="M1125.844 678.006l.164-.029S936.586 280.975 912 216c-23.461-61.986-53.719-120-120-120-74.344 0-112.969 53.854-120 120-2.016 18.979-6.363 63.5-11.625 120H491.508C485.051 267.442 480.27 219.1 480 216c-5.859-67.318-32.777-120-120-120-66.281 0-93.633 59.2-120 120-21.07 48.586-218.648 470.927-218.648 470.927l.468.073A263.092 263.092 0 0 0 0 792c0 145.8 118.2 264 264 264s264-118.2 264-264c0-8.1-.492-16.084-1.207-24h98.414c-.715 7.916-1.207 15.9-1.207 24 0 145.8 118.2 264 264 264s264-118.2 264-264a262.432 262.432 0 0 0-26.156-113.994zM264 964.8A172.8 172.8 0 1 1 436.8 792 172.8 172.8 0 0 1 264 964.8zm624 0A172.8 172.8 0 1 1 1060.8 792 172.8 172.8 0 0 1 888 964.8z"/></svg>