<svg xmlns="http://www.w3.org/2000/svg" width="1152" height="1152" viewBox="0 0 1152 1152"><title>Bug_24</title><path d="M838.219 231.741C779.637 152.622 695.508 96 576 96s-203.637 56.622-262.219 135.741C382.488 296.191 474.586 336 576 336s193.512-39.809 262.219-104.259zM166.9 204.548l-85.373 42.688a579.168 579.168 0 0 0 146.59 163.632A881.165 881.165 0 0 0 195.762 576H0v96h193.453c5.813 65.842 34.734 138.867 80.1 203.631A482.116 482.116 0 0 0 129.48 1072.74l86.414 43.2c24.328-66.1 66.926-122.982 120.762-166.4 53.844 51.616 119.532 89.723 191.344 101.925V431.977c-153.117-15.208-284.6-102.619-361.1-227.429zM1152 672v-96H956.238a881.165 881.165 0 0 0-32.355-165.132 579.168 579.168 0 0 0 146.59-163.632L985.1 204.548C908.6 329.358 777.117 416.769 624 431.977v619.488c71.813-12.2 137.5-50.309 191.344-101.921 53.848 43.418 96.434 100.3 120.762 166.4l86.414-43.2a482.116 482.116 0 0 0-144.07-197.109c45.363-64.764 74.285-137.789 80.1-203.631H1152z"/></svg>