<svg xmlns="http://www.w3.org/2000/svg" data-name="S_Building_24_N@2x" height="48" id="S_Building_24_N_2x" viewBox="0 0 48 48" width="48"><defs><style>.fill{fill:#707070}</style></defs><title>S_Building_24_N@2x</title><path class="fill" d="M4 6v36a2 2 0 0 0 2 2h14V33a1 1 0 0 1 1-1h6a1 1 0 0 1 1 1v11h14a2 2 0 0 0 2-2V6a2 2 0 0 0-2-2H6a2 2 0 0 0-2 2zm12 30H8v-4h8zm0-8H8v-4h8zm0-8H8v-4h8zm0-8H8V8h8zm12 16h-8v-4h8zm0-8h-8v-4h8zm0-8h-8V8h8zm12 24h-8v-4h8zm0-8h-8v-4h8zm0-8h-8v-4h8zm0-8h-8V8h8z"/></svg>