<svg xmlns="http://www.w3.org/2000/svg" width="1152" height="1152" viewBox="0 0 1152 1152"><title>Button_24</title><path d="M865.44 381.6c106.4 0 192.96 87.207 192.96 194.4s-86.563 194.4-192.96 194.4H286.56C180.163 770.4 93.6 683.193 93.6 576s86.563-194.4 192.96-194.4h578.88zM864 288H288C128.941 288 0 416.941 0 576s128.941 288 288 288h576c159.059 0 288-128.941 288-288s-128.941-288-288-288z"/><path d="M862.4 434.4H289.6c-79.082 0-143.2 63.4-143.2 141.6s64.118 141.6 143.2 141.6h572.8c79.082 0 143.2-63.4 143.2-141.6s-64.118-141.6-143.2-141.6z"/></svg>