<svg xmlns="http://www.w3.org/2000/svg" width="1152" height="1152" viewBox="0 0 1152 1152"><title>S_CalendarAdd_24_N_lt</title><rect x="240" y="432" width="96" height="96" rx="24" ry="24"/><rect x="432" y="432" width="96" height="96" rx="24" ry="24"/><rect x="624" y="432" width="96" height="96" rx="24" ry="24"/><rect x="240" y="576" width="96" height="96" rx="24" ry="24"/><rect x="432" y="576" width="96" height="96" rx="24" ry="24"/><rect x="240" y="720" width="96" height="96" rx="24" ry="24"/><rect x="432" y="720" width="96" height="96" rx="24" ry="24"/><path d="M864 482.4a383.154 383.154 0 0 1 48 3.34V456a24 24 0 0 0-24-24h-48a24 24 0 0 0-24 24v29.739a383.154 383.154 0 0 1 48-3.339z"/><path d="M485.742 912H144V288h96v24a24 24 0 0 0 24 24h48a24 24 0 0 0 24-24v-24h480v24a24 24 0 0 0 24 24h48a24 24 0 0 0 24-24v-24h96v222.727a381.18 381.18 0 0 1 96 56.766V216a24 24 0 0 0-24-24H912v-72a24 24 0 0 0-24-24h-48a24 24 0 0 0-24 24v72H336v-72a24 24 0 0 0-24-24h-48a24 24 0 0 0-24 24v72H72a24 24 0 0 0-24 24v768a24 24 0 0 0 24 24h438.727a378.9 378.9 0 0 1-24.985-96z"/><path d="M864 578.4c-157.733 0-285.6 127.867-285.6 285.6s127.867 285.6 285.6 285.6 285.6-127.871 285.6-285.6S1021.733 578.4 864 578.4zM1056 900a12 12 0 0 1-12 12H912v132a12 12 0 0 1-12 12h-72a12 12 0 0 1-12-12V912H684a12 12 0 0 1-12-12v-72a12 12 0 0 1 12-12h132V684a12 12 0 0 1 12-12h72a12 12 0 0 1 12 12v132h132a12 12 0 0 1 12 12v72z"/></svg>