<svg xmlns="http://www.w3.org/2000/svg" data-name="S_Calendar_24_N@2x" height="48" id="S_Calendar_24_N_2x" viewBox="0 0 48 48" width="48"><defs><style>.fill{fill:#707070}</style></defs><title>S_Calendar_24_N@2x</title><rect class="fill" height="4" rx="1" ry="1" width="4" x="10" y="18"/><rect class="fill" height="4" rx="1" ry="1" width="4" x="18" y="18"/><rect class="fill" height="4" rx="1" ry="1" width="4" x="26" y="18"/><rect class="fill" height="4" rx="1" ry="1" width="4" x="34" y="18"/><rect class="fill" height="4" rx="1" ry="1" width="4" x="10" y="24"/><rect class="fill" height="4" rx="1" ry="1" width="4" x="18" y="24"/><rect class="fill" height="4" rx="1" ry="1" width="4" x="26" y="24"/><rect class="fill" height="4" rx="1" ry="1" width="4" x="34" y="24"/><rect class="fill" height="4" rx="1" ry="1" width="4" x="10" y="30"/><rect class="fill" height="4" rx="1" ry="1" width="4" x="18" y="30"/><rect class="fill" height="4" rx="1" ry="1" width="4" x="26" y="30"/><rect class="fill" height="4" rx="1" ry="1" width="4" x="34" y="30"/><path class="fill" d="M45 8h-7V5a1 1 0 0 0-1-1h-2a1 1 0 0 0-1 1v3H14V5a1 1 0 0 0-1-1h-2a1 1 0 0 0-1 1v3H3a1 1 0 0 0-1 1v32a1 1 0 0 0 1 1h42a1 1 0 0 0 1-1V9a1 1 0 0 0-1-1zm-3 30H6V12h4v1a1 1 0 0 0 1 1h2a1 1 0 0 0 1-1v-1h20v1a1 1 0 0 0 1 1h2a1 1 0 0 0 1-1v-1h4z"/></svg>