<svg xmlns="http://www.w3.org/2000/svg" width="1152" height="1152" viewBox="0 0 1152 1152"><title>CallCenter_24</title><path d="M1008 480h-48c0-212.077-171.926-384-384-384S192 267.923 192 480h-48a96 96 0 0 0-96 96v192a96 96 0 0 0 96 96h144V480h-2.4c0-160.383 130.02-290.4 290.4-290.4S866.4 319.617 866.4 480H864v362.815A334.827 334.827 0 0 1 659.039 996.5C642.5 974.795 611.719 960 576 960c-53.016 0-96 32.235-96 72s42.984 72 96 72c47.449 0 86.613-25.881 94.359-59.815C771.727 1018.5 856.734 952.348 907.828 864H1008a96 96 0 0 0 96-96V576a96 96 0 0 0-96-96z"/></svg>