<svg xmlns="http://www.w3.org/2000/svg" width="1152" height="1152" viewBox="0 0 1152 1152"><title>CameraRefresh_24</title><path d="M485.039 816a417.98 417.98 0 0 1 12.469-52.438C386.016 729.891 304.8 626.476 304.8 504c0-149.783 121.406-271.2 271.2-271.2 141.973 0 258.27 109.134 270.035 248.06 5.988-.3 11.918-.858 17.965-.858a367.17 367.17 0 0 1 198.82 58.022L1104 495.97V240a48 48 0 0 0-48-48H894a47.982 47.982 0 0 1-39.937-21.375L734.25 69.375A47.982 47.982 0 0 0 694.313 48H457.688a47.982 47.982 0 0 0-39.938 21.375l-116.812 101.25A47.982 47.982 0 0 1 261 192H96a48 48 0 0 0-48 48v624a48 48 0 0 0 48 48h384.492c1.242-60.618 4.547-96 4.547-96z"/><path d="M1077.246 864c-10 114.237-101.379 204.2-213.246 204.2-60.035 0-109.312-22.392-148.09-64.014l92-92.188H578.4v229.98l82.7-82.875c51.656 55.518 123.574 90.5 202.9 90.5 151.84 0 275.6-126.144 285.6-285.6h-72.352zM1014.41 724.532h.012L924.844 816H1149.6V586.491l-81.715 83.449C1016.039 613.321 944.039 578.4 864 578.4c-151.84 0-275.6 126.138-285.6 285.6h72.352C660.75 749.757 752.133 659.792 864 659.792c58.547 0 111.867 24.753 150.41 64.74z" fill-rule="evenodd"/><path d="M743.672 500.795C741.914 409.661 667.547 336 576 336c-92.637 0-168 75.354-168 168 0 80.253 56.637 147.334 131.977 163.9 47.355-78 119.168-137.58 203.695-167.105z"/></svg>