<svg xmlns="http://www.w3.org/2000/svg" data-name="S_Camera_24_N@2x" height="48" id="S_Camera_24_N_2x" viewBox="0 0 48 48" width="48"><defs><style>.fill{fill:#707070}</style></defs><title>S_Camera_24_N@2x</title><circle class="fill" cx="24" cy="25" r="7"/><path class="fill" d="M44 12h-6.75a2 2 0 0 1-1.664-.891l-4.992-4.218A2 2 0 0 0 28.93 6h-9.86a2 2 0 0 0-1.664.891l-4.867 4.219a2 2 0 0 1-1.664.89H4a2 2 0 0 0-2 2v26a2 2 0 0 0 2 2h40a2 2 0 0 0 2-2V14a2 2 0 0 0-2-2zM24 36.3A11.3 11.3 0 1 1 35.3 25 11.3 11.3 0 0 1 24 36.3z"/></svg>