<svg xmlns="http://www.w3.org/2000/svg" width="1152" height="1152" viewBox="0 0 1152 1152"><title>CampaignClose_24</title><path d="M243.773 624H98.455C120.984 850.758 301.242 1031.063 528 1053.574V908.168C381.164 887.016 264.949 770.777 243.773 624zM243.773 528C264.949 381.223 381.164 264.984 528 243.832V98.426C301.242 120.938 120.984 301.242 98.455 528h145.318zM908.227 528h145.318C1031.016 301.242 850.758 120.938 624 98.426v145.406C770.836 264.984 887.051 381.223 908.227 528zM864 578.405c-157.734 0-285.6 127.872-285.6 285.6s127.863 285.6 285.6 285.6 285.6-127.869 285.6-285.6-127.866-285.6-285.6-285.6zm195.164 412.872a12 12 0 0 1 0 16.972l-50.918 50.912a12 12 0 0 1-16.969 0L864 931.881l-127.277 127.28a12 12 0 0 1-16.969 0l-50.918-50.912a12 12 0 0 1 0-16.972L796.125 864 668.836 736.72a12 12 0 0 1 0-16.972l50.918-50.909a12 12 0 0 1 16.969 0L864 796.116l127.277-127.277a12 12 0 0 1 16.969 0l50.918 50.909a12 12 0 0 1 0 16.972L931.875 864zM706.828 516.545C684.164 466.77 634.266 432 576 432a144 144 0 0 0-144 144c0 58.263 34.77 108.164 84.539 130.834a382.609 382.609 0 0 1 190.289-190.289z"/></svg>