<svg id="CampaignAdd_24" xmlns="http://www.w3.org/2000/svg" width="1152" height="1152" viewBox="0 0 1152 1152"><defs><style/></defs><title>CampaignAdd_24</title><path d="M243.773 528C264.949 381.223 381.164 264.984 528 243.832V98.426C301.242 120.938 120.984 301.242 98.455 528h145.318zM706.834 516.545C684.164 466.77 634.266 432 576 432a144 144 0 0 0-144 144c0 58.263 34.77 108.164 84.545 130.834a382.563 382.563 0 0 1 190.289-190.289zM484.125 898.11C358.582 862.236 262.781 755.73 243.773 624H98.455C120.984 850.758 301.242 1031.063 528 1053.574v-8.631a379 379 0 0 1-43.875-146.833zM898.16 484.122A379.125 379.125 0 0 1 1044.943 528h8.6C1031.016 301.242 850.758 120.938 624 98.426v145.406c131.777 18.984 238.266 114.797 274.16 240.29zM864 578.4c-157.733 0-285.6 127.867-285.6 285.6s127.867 285.6 285.6 285.6 285.6-127.871 285.6-285.6S1021.733 578.4 864 578.4zM1056 900a12 12 0 0 1-12 12H912v132a12 12 0 0 1-12 12h-72a12 12 0 0 1-12-12V912H684a12 12 0 0 1-12-12v-72a12 12 0 0 1 12-12h132V684a12 12 0 0 1 12-12h72a12 12 0 0 1 12 12v132h132a12 12 0 0 1 12 12v72z"/></svg>