<svg xmlns="http://www.w3.org/2000/svg" width="1152" height="1152" viewBox="0 0 1152 1152"><title>CampaignEdit_24</title><circle cx="576" cy="576" r="144"/><path d="M243.773 624H98.455C120.984 850.758 301.242 1031.063 528 1053.574V908.168C381.164 887.016 264.949 770.777 243.773 624zM243.773 528C264.949 381.223 381.164 264.984 528 243.832V98.426C301.242 120.938 120.984 301.242 98.455 528h145.318zM908.227 528h145.318C1031.016 301.242 850.758 120.938 624 98.426v145.406C770.836 264.984 887.051 381.223 908.227 528zM1144.026 696.235L1031.71 583.919a23.663 23.663 0 0 0-16.879-6.878l-.749.01a26.713 26.713 0 0 0-18.061 7.915l-346.7 346.7a19.433 19.433 0 0 0-4.892 8.2l-67.5 194.7c-2.219 7.335 8.945 16.572 15.255 16.572a5.346 5.346 0 0 0 1.194-.124c5.385-1.239 166.667-59.065 194.815-67.527a19.113 19.113 0 0 0 8.072-4.852l346.71-346.715a26.776 26.776 0 0 0 7.877-17.21 23.8 23.8 0 0 0-6.826-18.475zm-371.711 351.233c-42.1 12.653-108.118 41.94-144.488 52.8l52.528-144.528z"/></svg>