<svg id="Campaign_24" xmlns="http://www.w3.org/2000/svg" width="1152" height="1152" viewBox="0 0 1152 1152"><defs><style/></defs><title>Campaign_24</title><circle cx="576" cy="576" r="144"/><path d="M243.773 624H98.455C120.984 850.758 301.242 1031.063 528 1053.574V908.168C381.164 887.016 264.949 770.777 243.773 624zM243.773 528C264.949 381.223 381.164 264.984 528 243.832V98.426C301.242 120.938 120.984 301.242 98.455 528h145.318zM908.227 528h145.318C1031.016 301.242 850.758 120.938 624 98.426v145.406C770.836 264.984 887.051 381.223 908.227 528zM908.227 624C887.051 770.777 770.836 887.016 624 908.168v145.406c226.758-22.511 407.016-202.816 429.545-429.574H908.227z"/></svg>