<svg xmlns="http://www.w3.org/2000/svg" data-name="S_Capitals_24_N@2x" height="48" id="S_Capitals_24_N_2x" viewBox="0 0 48 48" width="48"><defs><style>.fill{fill:#707070}</style></defs><title>S_Capitals_24_N@2x</title><path class="fill" d="M3 12a1 1 0 0 0-1 1v6a1 1 0 0 0 1 1h2a1 1 0 0 0 1-1v-3h4v18H7a1 1 0 0 0-1 1v2a1 1 0 0 0 1 1h10a1 1 0 0 0 1-1v-2a1 1 0 0 0-1-1h-3V16h4v2.973a1 1 0 0 0 1 1h2a1 1 0 0 0 1-1V13a1 1 0 0 0-1-1zM25 12a1 1 0 0 0-1 1v6a1 1 0 0 0 1 1h2a1 1 0 0 0 1-1v-3h4v18h-3a1 1 0 0 0-1 1v2a1 1 0 0 0 1 1h10a1 1 0 0 0 1-1v-2a1 1 0 0 0-1-1h-3V16h4v2.973a1 1 0 0 0 1 1h2a1 1 0 0 0 1-1V13a1 1 0 0 0-1-1z"/></svg>