<svg xmlns="http://www.w3.org/2000/svg" width="1152" height="1152" viewBox="0 0 1152 1152"><title>Card_24</title><path d="M1008 48H144a48 48 0 0 0-48 48v960a48 48 0 0 0 48 48h864a48 48 0 0 0 48-48V96a48 48 0 0 0-48-48zM384 936a23.994 23.994 0 0 1-24 24H216a23.994 23.994 0 0 1-24-24v-48a23.992 23.992 0 0 1 24-24h144a23.992 23.992 0 0 1 24 24v48zm576 0a23.994 23.994 0 0 1-24 24H504a23.994 23.994 0 0 1-24-24v-48a23.992 23.992 0 0 1 24-24h432a23.992 23.992 0 0 1 24 24v48zm0-216H192V144h768v576z"/></svg>