<svg xmlns="http://www.w3.org/2000/svg" width="1152" height="1152" viewBox="0 0 1152 1152"><title>Channel_24</title><path d="M1036.008 484c-33.961 0-63.3 18.615-79.242 45.993H811.359c-10.992-56.54-42.328-105.229-85.453-140.042l83.859-159.328c49.031-2.013 88.242-42.1 88.242-91.623a92 92 0 1 0-169.687 48.884l-83.812 159.243C622.664 340.585 599.977 336 576 336s-46.664 4.585-68.508 11.127L423.68 187.884A91.911 91.911 0 1 0 253.992 139c0 49.523 39.211 89.61 88.242 91.623l83.86 159.327c-43.125 34.813-74.461 83.5-85.453 140.042H195.234C179.3 502.614 149.953 484 115.992 484a92 92 0 0 0 0 184c33.961 0 63.3-18.612 79.242-45.99h145.407c10.992 56.54 42.328 105.229 85.453 140.042l-83.86 159.326c-49.031 2.013-88.242 42.1-88.242 91.62a92 92 0 1 0 169.688-48.882l83.813-159.243C529.336 811.415 552.023 816 576 816s46.664-4.585 68.508-11.127l83.812 159.243A91.911 91.911 0 1 0 898.008 1013c0-49.523-39.211-89.607-88.242-91.62l-83.86-159.33c43.125-34.813 74.461-83.5 85.453-140.042h145.407C972.7 649.386 1002.047 668 1036.008 668a92 92 0 0 0 0-184zM576 722.4A146.4 146.4 0 1 1 722.391 576 146.389 146.389 0 0 1 576 722.4z"/></svg>