<svg id="Check-Circle_24" xmlns="http://www.w3.org/2000/svg" width="1152" height="1152" viewBox="0 0 1152 1152"><defs><style/></defs><title>Check-Circle_24</title><path d="M576 98.391c-263.767 0-477.6 213.829-477.6 477.6s213.833 477.6 477.6 477.6 477.6-213.833 477.6-477.6-213.833-477.6-477.6-477.6zm301.5 302.086v.023L528.422 848.18a29 29 0 0 1-21 11.063c-.562.047-1.172.047-1.734.047a28.785 28.785 0 0 1-20.391-8.437l-186.844-187.08a28.8 28.8 0 0 1 0-40.734l31.828-31.8a28.829 28.829 0 0 1 40.688 0l128.3 128.32L797.063 337.9a28.87 28.87 0 0 1 40.453-5.039l34.922 27.188a28.914 28.914 0 0 1 5.062 40.428z"/></svg>