<svg xmlns="http://www.w3.org/2000/svg" width="1152" height="1152" viewBox="0 0 1152 1152"><title>CheckPause_24</title><path d="M766.57 495.422l175.641-225.733a24 24 0 0 0-4.2-33.677l-71.339-55.532a24 24 0 0 0-33.68 4.2l-424.64 545.509-206.719-206.715a23.991 23.991 0 0 0-33.937 0l-64.664 64.664a24 24 0 0 0-.012 33.932l298.371 298.737a24 24 0 0 0 35.918-2.224l45.27-58.181c1.64-175.421 121.64-322.151 283.991-364.98z"/><path d="M864 578.4c-157.734 0-285.6 127.866-285.6 285.6s127.866 285.6 285.6 285.6 285.6-127.872 285.6-285.6S1021.734 578.4 864 578.4zM816 1008h-96V720h96v288zm192 0h-96V720h96v288z"/></svg>