<svg xmlns="http://www.w3.org/2000/svg" width="1152" height="1152" viewBox="0 0 1152 1152"><title>ChevronDoubleLeft_24</title><path d="M333.088 528l271.529-271.529a48 48 0 0 0 0-67.882l-33.941-33.941a48 48 0 0 0-67.882 0L163.383 494.059a48 48 0 0 0 0 67.882l339.411 339.411a48 48 0 0 0 67.882 0l33.941-33.941a48 48 0 0 0 0-67.882z"/><path d="M765.088 528l271.529-271.529a48 48 0 0 0 0-67.882l-33.941-33.941a48 48 0 0 0-67.882 0L595.383 494.059a48 48 0 0 0 0 67.882l339.411 339.411a48 48 0 0 0 67.882 0l33.941-33.941a48 48 0 0 0 0-67.882z"/></svg>