<svg xmlns="http://www.w3.org/2000/svg" width="1152" height="1152" viewBox="0 0 1152 1152"><title>ChevronDoubleRight_24</title><path d="M818.912 528L547.383 799.529a48 48 0 0 0 0 67.882l33.941 33.941a48 48 0 0 0 67.882 0l339.411-339.411a48 48 0 0 0 0-67.882L649.206 154.648a48 48 0 0 0-67.882 0l-33.941 33.941a48 48 0 0 0 0 67.882z"/><path d="M386.912 528L115.383 799.529a48 48 0 0 0 0 67.882l33.941 33.941a48 48 0 0 0 67.882 0l339.411-339.411a48 48 0 0 0 0-67.882L217.206 154.648a48 48 0 0 0-67.882 0l-33.941 33.941a48 48 0 0 0 0 67.882z"/></svg>