<svg xmlns="http://www.w3.org/2000/svg" width="1152" height="1152" viewBox="0 0 1152 1152"><title>Chrome_24</title><circle cx="576" cy="576" r="168"/><path d="M1024.148 408H747.117A239.028 239.028 0 0 1 816 576c0 27.337-5.543 53.171-13.969 77.651l.844-.237-119.414 390.621C896.613 996.123 1056 806.03 1056 578.4a475.536 475.536 0 0 0-31.852-170.4z"/><path d="M340.324 618.9A239.546 239.546 0 0 1 336 576c0-132.548 107.449-240 240-240h413.391C906.281 195.4 753.563 100.8 578.4 100.8c-225.2 0-413.484 156.056-463.887 365.783zM436.418 770.563L102.469 545.314c-.75 10.978-1.664 21.917-1.664 33.085 0 263.771 213.82 477.6 477.6 477.6 8.953 0 17.684-.853 26.508-1.339l81.563-266.78C653.273 805.245 616.066 816 576 816c-52.219 0-100.184-17.118-139.582-45.437z"/></svg>