<svg xmlns="http://www.w3.org/2000/svg" data-name="S_Clock_24_N@2x" height="48" id="S_Clock_24_N_2x" viewBox="0 0 48 48" width="48"><defs><style>.fill{fill:#707070}</style></defs><title>S_Clock_24_N@2x</title><path class="fill" d="M26 22.086V11a1 1 0 0 0-1-1h-2a1 1 0 0 0-1 1v12.586a1 1 0 0 0 .293.707l6.3 6.3a1 1 0 0 0 1.414 0l1.336-1.336a1 1 0 0 0 0-1.414l-5.054-5.054a1 1 0 0 1-.289-.703z"/><path class="fill" d="M24 7.8A16.2 16.2 0 1 1 7.8 24 16.219 16.219 0 0 1 24 7.8zM24 4a20 20 0 1 0 20 20A20 20 0 0 0 24 4z"/></svg>