<svg id="ClockCheck_24" xmlns="http://www.w3.org/2000/svg" width="1152" height="1152" viewBox="0 0 1152 1152"><defs><style/></defs><title>ClockCheck_24</title><path d="M480 530.059V264a24 24 0 0 1 24-24h48a24 24 0 0 1 24 24v302.059a24 24 0 0 1-7.029 16.971l-151.3 151.3a24 24 0 0 1-33.941 0l-32.059-32.059a24 24 0 0 1 0-33.941l121.3-121.3A24 24 0 0 0 480 530.059z"/><path d="M495.879 963.176C296.5 946.758 139.2 779.543 139.2 576c0-214.383 174.416-388.8 388.8-388.8 182.906 0 336.316 127.131 377.537 297.557a378.779 378.779 0 0 1 97.219 24.053C970 275.6 770.227 96 528 96 262.9 96 48 310.9 48 576s214.9 480 480 480c2.162 0 4.248-.293 6.4-.322a379.022 379.022 0 0 1-38.521-92.502z"/><path d="M864 578.4c-157.734 0-285.6 127.869-285.6 285.6s127.866 285.6 285.6 285.6 285.6-127.869 285.6-285.6S1021.734 578.4 864 578.4zm-53.485 475.118L663.329 906.329a12 12 0 0 1 0-16.971l42.279-42.279a12 12 0 0 1 16.971 0L816 940.5l214.546-214.546a12 12 0 0 1 16.971 0l45.279 45.279a12 12 0 0 1 0 16.971l-265.311 265.311a12 12 0 0 1-16.97 0z"/></svg>