<svg id="Close-Circle_24" xmlns="http://www.w3.org/2000/svg" width="1152" height="1152" viewBox="0 0 1152 1152"><defs><style/></defs><title>Close-Circle_24</title><path d="M913.715 238.276c-186.51-186.51-488.915-186.51-675.433 0s-186.508 488.921 0 675.431 488.915 186.51 675.427 0 186.516-488.92.006-675.431zM762.652 803.395a24 24 0 0 1-33.941 0L575.984 650.668 423.24 803.395a24 24 0 0 1-33.941 0l-40.7-40.7a24 24 0 0 1 0-33.941L501.315 576 348.6 423.281a24 24 0 0 1 0-33.941l40.732-40.74a24 24 0 0 1 33.941 0l152.719 152.722L728.744 348.6a24 24 0 0 1 33.941 0l40.7 40.7a24 24 0 0 1 0 33.941l-152.7 152.743 152.7 152.727a24 24 0 0 1 0 33.941z"/></svg>