<svg xmlns="http://www.w3.org/2000/svg" width="1152" height="1152" viewBox="0 0 1152 1152"><title>CloseCaptions_24</title><path d="M1008 192H144A144 144 0 0 0 0 336v480a144 144 0 0 0 144 144h864a144 144 0 0 0 144-144V336a144 144 0 0 0-144-144zM533.2 435.586c0 14.027-8.273 20.66-11.812 22.881l-10.359 6.4-14.672-5.842c-16.43-7.676-43.219-12.047-74.953-12.047-79.336 0-128.637 49.066-128.637 128.039 0 123.1 108.246 129.328 129.961 129.328 31.91 0 53.027-2.859 72.9-9.832l9.891-3.475 12.2 5.221c3.457 2.156 11.555 8.66 11.555 22.119v57.99c0 13.2-7 24.2-18.246 28.723-30.293 11.051-70 13.313-98.062 13.313-149.039 0-245.344-94.758-245.344-241.418C167.625 431.4 270.164 333.6 422.73 333.6c43.77 0 73.453 4.1 93.5 12.926 11.133 5.52 16.969 15.27 16.969 27.152v61.91zm432 0c0 14.027-8.273 20.66-11.812 22.881l-10.359 6.4-14.672-5.842c-16.43-7.676-43.219-12.047-74.953-12.047-79.336 0-128.637 49.066-128.637 128.039 0 123.1 108.246 129.328 129.961 129.328 31.91 0 53.027-2.859 72.9-9.832l9.891-3.475 12.2 5.221c3.457 2.156 11.555 8.66 11.555 22.119v57.99c0 13.2-7 24.2-18.246 28.723-30.293 11.051-70 13.313-98.062 13.313-149.039 0-245.344-94.758-245.344-241.418C599.625 431.4 702.164 333.6 854.73 333.6c43.77 0 73.453 4.1 93.5 12.926 11.133 5.52 16.969 15.27 16.969 27.152v61.91z"/></svg>