<svg xmlns="http://www.w3.org/2000/svg" data-name="S_CloseCircle_24_N@2x" height="48" id="S_CloseCircle_24_N_2x" viewBox="0 0 48 48" width="48"><defs><style>.fill{fill:#707070}</style></defs><title>S_CloseCircle_24_N@2x</title><path class="fill" d="M38.071 9.928a19.9 19.9 0 1 0 0 28.143 19.9 19.9 0 0 0 0-28.143zm-6.294 23.547a1 1 0 0 1-1.414 0L24 27.111l-6.364 6.364a1 1 0 0 1-1.414 0l-1.7-1.7a1 1 0 0 1 0-1.414L20.888 24l-6.363-6.363a1 1 0 0 1 0-1.414l1.7-1.7a1 1 0 0 1 1.414 0L24 20.888l6.365-6.363a1 1 0 0 1 1.414 0l1.7 1.7a1 1 0 0 1 0 1.414L27.112 24l6.363 6.364a1 1 0 0 1 0 1.414z"/></svg>