<svg xmlns="http://www.w3.org/2000/svg" data-name="S_Close_24_N@2x" height="48" id="S_Close_24_N_2x" viewBox="0 0 48 48" width="48"><defs><style>.fill{fill:#707070}</style></defs><title>S_Close_24_N@2x</title><path class="fill" d="M35.314 8.444L24 19.757 12.686 8.444a1 1 0 0 0-1.414 0l-2.828 2.828a1 1 0 0 0 0 1.414L19.757 24 8.444 35.314a1 1 0 0 0 0 1.414l2.828 2.828a1 1 0 0 0 1.414 0L24 28.243l11.314 11.313a1 1 0 0 0 1.414 0l2.828-2.828a1 1 0 0 0 0-1.414L28.243 24l11.313-11.314a1 1 0 0 0 0-1.414l-2.828-2.828a1 1 0 0 0-1.414 0z"/></svg>