<svg xmlns="http://www.w3.org/2000/svg" width="1152" height="1152" viewBox="0 0 1152 1152"><title>Cloud_24</title><path d="M624 288c105.867 0 192 86.133 192 192v96h96c79.406 0 144 64.6 144 144s-64.594 144-144 144H288c-105.867 0-192-86.133-192-192s86.133-192 192-192a193.313 193.313 0 0 1 41.52 4.664l85.043 18.768 26.93-82.822A191.467 191.467 0 0 1 624 288zm0-96c-127.945 0-236.262 83.5-273.8 198.92A288.227 288.227 0 0 0 288 384C128.941 384 0 512.941 0 672s128.941 288 288 288h624c132.551 0 240-107.449 240-240s-107.449-240-240-240c0-159.059-128.941-288-288-288z"/></svg>