<svg xmlns="http://www.w3.org/2000/svg" width="1152" height="1152" viewBox="0 0 1152 1152"><title>CollectionEdit_24</title><path d="M552.492 912H432V624h240v149.215l96-95.988V624h53.227l96-96H768V240h240v241.629c1.559-.105 3.023-.516 4.605-.562l.75-.012.738-.012h.738a118.868 118.868 0 0 1 84.75 34.992l4.418 4.418V192a48 48 0 0 0-48-48H48a48 48 0 0 0-48 48v768a48 48 0 0 0 48 48h471.211zM432 240h240v288H432V240zm-96 672H96V624h240v288zm0-384H96V240h240v288z"/><path d="M1144.026 696.235L1031.71 583.919a23.663 23.663 0 0 0-16.879-6.878l-.749.01a26.713 26.713 0 0 0-18.061 7.915l-346.7 346.7a19.433 19.433 0 0 0-4.892 8.2l-67.5 194.7c-2.219 7.335 8.945 16.572 15.255 16.572a5.346 5.346 0 0 0 1.194-.124c5.385-1.239 166.667-59.065 194.815-67.527a19.113 19.113 0 0 0 8.072-4.852l346.71-346.715a26.776 26.776 0 0 0 7.877-17.21 23.8 23.8 0 0 0-6.826-18.475zm-371.711 351.233c-42.1 12.653-108.118 41.94-144.488 52.8l52.528-144.528z"/></svg>