<svg xmlns="http://www.w3.org/2000/svg" width="1152" height="1152" viewBox="0 0 1152 1152"><title>CollectionLink_24</title><path d="M466.816 912H432V624h240v38.6l69.961-69.973L806.59 528H768V240h240v218.766a240.413 240.413 0 0 1 96 32.145V192a48 48 0 0 0-48-48H48a48 48 0 0 0-48 48v768a48 48 0 0 0 48 48h410.813a244.261 244.261 0 0 1 8.003-96zM432 240h240v288H432V240zm-96 672H96V624h240v288zm0-384H96V240h240v288z"/><path d="M788.76 854.844A76.3 76.3 0 0 0 803.6 876.4a77.3 77.3 0 0 0 109.188 0l127.391-127.39A77.208 77.208 0 1 0 930.99 639.822l-28.916 28.916a206.538 206.538 0 0 0-93.488-15.7l67.814-67.81A154.416 154.416 0 0 1 1094.773 803.6L967.386 930.99a153.574 153.574 0 0 1-234.937-19.835zM712.614 749.01L585.228 876.4A154.416 154.416 0 1 0 803.6 1094.773l67.811-67.811a206.538 206.538 0 0 1-93.488-15.7l-28.916 28.916A77.208 77.208 0 1 1 639.822 930.99L767.208 803.6a77.294 77.294 0 0 1 109.188 0 76.3 76.3 0 0 1 14.844 21.552l56.311-56.311a153.574 153.574 0 0 0-234.937-19.831z"/></svg>