<svg xmlns="http://www.w3.org/2000/svg" width="1152" height="1152" viewBox="0 0 1152 1152"><title>CollectionCheck_24</title><path d="M495.059 912H432V624h102.6a383.088 383.088 0 0 1 79.559-96H432V240h240v246.6a379.078 379.078 0 0 1 96-39.539V240h240v222.727a380.833 380.833 0 0 1 96 56.766V192a48 48 0 0 0-48-48H48a48 48 0 0 0-48 48v768a48 48 0 0 0 48 48h486.6a379.078 379.078 0 0 1-39.541-96zM336 912H96V624h240v288zm0-384H96V240h240v288z"/><path d="M864 530.4c-157.734 0-285.6 127.869-285.6 285.6s127.866 285.6 285.6 285.6 285.6-127.866 285.6-285.6S1021.734 530.4 864 530.4zm-53.485 475.118L663.329 858.329a12 12 0 0 1 0-16.971l42.279-42.279a12 12 0 0 1 16.971 0L816 892.5l214.546-214.546a12 12 0 0 1 16.971 0l45.279 45.279a12 12 0 0 1 0 16.971l-265.311 265.311a12 12 0 0 1-16.97 0z"/></svg>