<svg xmlns="http://www.w3.org/2000/svg" width="1152" height="1152" viewBox="0 0 1152 1152"><title>CollectionExclude_24</title><path d="M495.059 912H432V624h102.6a383.088 383.088 0 0 1 79.559-96H432V240h240v246.6a379.078 379.078 0 0 1 96-39.539V240h240v222.727a380.833 380.833 0 0 1 96 56.766V192a48 48 0 0 0-48-48H48a48 48 0 0 0-48 48v768a48 48 0 0 0 48 48h486.6a379.078 379.078 0 0 1-39.541-96zM336 912H96V624h240v288zm0-384H96V240h240v288z"/><path d="M864 530.405c-157.734 0-285.6 127.872-285.6 285.6s127.863 285.6 285.6 285.6 285.6-127.869 285.6-285.6-127.866-285.6-285.6-285.6zm214.2 285.6a212.605 212.605 0 0 1-39.914 123.8L740.2 641.722A212.629 212.629 0 0 1 864 601.808c118.3 0 214.2 95.9 214.2 214.198zm-428.391 0a212.6 212.6 0 0 1 39.914-123.8L987.8 990.293a212.629 212.629 0 0 1-123.8 39.914c-118.3 0-214.2-95.9-214.2-214.201z"/></svg>