<svg xmlns="http://www.w3.org/2000/svg" width="1152" height="1152" viewBox="0 0 1152 1152"><title>CollectionAdd_24</title><path d="M578.4 813.6c0 157.733 127.867 285.6 285.6 285.6s285.6-127.871 285.6-285.6S1021.733 528 864 528 578.4 655.867 578.4 813.6zm93.6-36a12 12 0 0 1 12-12h132v-132a12 12 0 0 1 12-12h72a12 12 0 0 1 12 12v132h132a12 12 0 0 1 12 12v72a12 12 0 0 1-12 12H912v132a12 12 0 0 1-12 12h-72a12 12 0 0 1-12-12v-132H684a12 12 0 0 1-12-12v-72z"/><path d="M495.059 912H432V624h102.6a383.088 383.088 0 0 1 79.559-96H432V240h240v246.6a379.078 379.078 0 0 1 96-39.539V240h240v222.727a380.833 380.833 0 0 1 96 56.766V192a48 48 0 0 0-48-48H48a48 48 0 0 0-48 48v768a48 48 0 0 0 48 48h486.6a379.078 379.078 0 0 1-39.541-96zM336 912H96V624h240v288zm0-384H96V240h240v288z"/></svg>