<svg xmlns="http://www.w3.org/2000/svg" width="1152" height="1152" viewBox="0 0 1152 1152"><title>CollectionAddTo_24</title><path d="M576 864H432V576h144v-96H432V192h240v192h96V192h240v192h96V144a48 48 0 0 0-48-48H48a48 48 0 0 0-48 48v768a48 48 0 0 0 48 48h528v-96zm-240 0H96V576h240v288zm0-384H96V192h240v288z"/><path d="M1144.5 808.5L980.667 644.667 1124 500.406a12 12 0 0 0-8.563-20.406H672v447.4a12.046 12.046 0 0 0 20.485 8.6l144.182-147.333L1000.5 952.5a24 24 0 0 0 33.941 0L1144.5 842.441a24 24 0 0 0 0-33.941z"/></svg>