<svg xmlns="http://www.w3.org/2000/svg" data-name="S_ColorWheel_24_N@2x" height="48" id="S_ColorWheel_24_N_2x" viewBox="0 0 48 48" width="48"><defs><style>.cls-1{fill:#707070}.cls-2,.cls-3{fill:#000;opacity:.2}.cls-3{opacity:.33}.cls-4,.cls-5{fill:#000;opacity:.47}.cls-5{opacity:.6}.cls-6,.cls-7{fill:#000;opacity:.7}.cls-7{opacity:.8}</style></defs><title>S_ColorWheel_24_N@2x</title><path class="cls-1" d="M24 4.2A19.8 19.8 0 1 0 43.8 24 19.8 19.8 0 0 0 24 4.2zM24 40a15.991 15.991 0 0 1-11.324-27.291L24 23.99V8a16 16 0 1 1 0 32z"/><path class="cls-2" d="M35.3 12.683L24 24h16a15.949 15.949 0 0 0-4.7-11.317z"/><path class="cls-3" d="M24 24l11.287 11.331A16 16 0 0 0 40 24z"/><path class="cls-4" d="M24 24v16a15.948 15.948 0 0 0 11.284-4.671z"/><path class="cls-5" d="M24 40V24L12.685 35.3A15.949 15.949 0 0 0 24 40z"/><path class="cls-6" d="M24 24H8a15.95 15.95 0 0 0 4.685 11.3z"/><path class="cls-7" d="M12.674 12.711A15.949 15.949 0 0 0 8 24h16z"/></svg>