<svg xmlns="http://www.w3.org/2000/svg" width="1152" height="1152" viewBox="0 0 1152 1152"><title>ColumnSettings_24</title><path d="M336 144v912H144a48 48 0 0 1-48-48V192a48 48 0 0 1 48-48zM505.57 688.418a107.975 107.975 0 0 1 12.375-137.865l32.6-32.607a107.223 107.223 0 0 1 76.313-31.611c16.043 0 31.031 4.582 45.141 11.174V144H432v596.76a108.139 108.139 0 0 1 73.57-52.342zM486.328 1005.135a107.131 107.131 0 0 1 19.242-61.553A108.164 108.164 0 0 1 432 891.234V1056h67.594a106.852 106.852 0 0 1-13.266-50.865zM794.484 417.6h43.031a108.1 108.1 0 0 1 106.067 87.97 107.158 107.158 0 0 1 61.559-19.236c.973 0 1.9.252 2.859.275V192a48 48 0 0 0-48-48H768v277.295a106.571 106.571 0 0 1 26.484-3.695zM1106.484 772.966h-75.352a217.854 217.854 0 0 0-31.816-77.244l53.648-53.646a21.516 21.516 0 0 0 0-30.428l-32.613-32.613a21.518 21.518 0 0 0-30.434 0l-53.647 53.649a217.949 217.949 0 0 0-77.238-31.825v-75.343A21.516 21.516 0 0 0 837.516 504h-43.032a21.516 21.516 0 0 0-21.516 21.516v75.343a217.949 217.949 0 0 0-77.238 31.825l-53.648-53.648a21.518 21.518 0 0 0-30.434 0l-32.613 32.613a21.516 21.516 0 0 0 0 30.428l53.648 53.646a217.854 217.854 0 0 0-31.816 77.244h-75.351A21.516 21.516 0 0 0 504 794.481v43.034a21.518 21.518 0 0 0 21.516 21.519h75.352a217.854 217.854 0 0 0 31.816 77.244l-53.648 53.646a21.512 21.512 0 0 0 0 30.425l32.613 32.613a21.518 21.518 0 0 0 30.434 0l53.648-53.646a217.928 217.928 0 0 0 77.238 31.813v75.352A21.518 21.518 0 0 0 794.484 1128h43.031a21.518 21.518 0 0 0 21.516-21.519v-75.351a217.928 217.928 0 0 0 77.238-31.813l53.648 53.646a21.518 21.518 0 0 0 30.434 0l32.613-32.613a21.512 21.512 0 0 0 0-30.425l-53.648-53.646a217.854 217.854 0 0 0 31.816-77.244h75.352A21.518 21.518 0 0 0 1128 837.516v-43.035a21.516 21.516 0 0 0-21.516-21.515zM816 900a84 84 0 1 1 84-84 84 84 0 0 1-84 84z"/></svg>