<svg xmlns="http://www.w3.org/2000/svg" width="1152" height="1152" viewBox="0 0 1152 1152"><title>CommentAdd_24</title><path d="M482.4 864a382.6 382.6 0 0 1 3.34-48H376.535a48 48 0 0 0-34.119 14.235L230.4 950.4V840a24 24 0 0 0-24-24H108a12 12 0 0 1-12-12V492a12 12 0 0 1 12-12h504a12 12 0 0 1 12 12v75.492a381.18 381.18 0 0 1 96-56.766V480a96 96 0 0 0-96-96H96a96 96 0 0 0-96 96v336a96 96 0 0 0 96 96h48v211.031a11.993 11.993 0 0 0 12.088 12.023 11.727 11.727 0 0 0 8.4-3.539L384 912h101.742a382.639 382.639 0 0 1-3.342-48z"/><path d="M816 432v53.739a383.154 383.154 0 0 1 48-3.34c103.008 0 196.3 41 264.955 107.335A95.127 95.127 0 0 0 1152 528V192a96 96 0 0 0-96-96H528a96 96 0 0 0-96 96v96h240a144 144 0 0 1 144 144zM864 578.4c-157.733 0-285.6 127.867-285.6 285.6s127.867 285.6 285.6 285.6 285.6-127.871 285.6-285.6S1021.733 578.4 864 578.4zM1056 900a12 12 0 0 1-12 12H912v132a12 12 0 0 1-12 12h-72a12 12 0 0 1-12-12V912H684a12 12 0 0 1-12-12v-72a12 12 0 0 1 12-12h132V684a12 12 0 0 1 12-12h72a12 12 0 0 1 12 12v132h132a12 12 0 0 1 12 12v72z"/></svg>