<svg xmlns="http://www.w3.org/2000/svg" width="1152" height="1152" viewBox="0 0 1152 1152"><title>Compare_24</title><path d="M1096.734 1015.266L924.867 843.4C946.7 807.234 960 765.322 960 720c0-132.551-107.449-240-240-240S480 587.449 480 720s107.449 240 240 240c45.328 0 87.234-13.3 123.4-35.133l171.867 171.867c11.25 11.25 60.111 21.358 81.469 0s22.498-58.968-.002-81.468zM571.2 720A148.8 148.8 0 1 1 720 868.793 148.8 148.8 0 0 1 571.2 720zM672 336v59.086a318.6 318.6 0 0 1 192 29.666V144a48 48 0 0 0-48-48H336a48 48 0 0 0-48 48v144h336a48 48 0 0 1 48 48z"/><path d="M391.2 720c0-129.34 74.871-240.914 183.469-294.6-3.34-23.244-22.5-41.4-46.664-41.4H48a48 48 0 0 0-48 48v576a48 48 0 0 0 48 48h480c24.164 0 43.324-18.158 46.664-41.4C466.066 960.914 391.2 849.34 391.2 720z"/></svg>