<svg xmlns="http://www.w3.org/2000/svg" width="1152" height="1152" viewBox="0 0 1152 1152"><title>Compass_24</title><path d="M48 624h48c1.7 0 3.129-.791 4.781-.961a473.93 473.93 0 0 0 53.953 177.088l59.8-88.559A384.679 384.679 0 0 1 189.6 576c0-213.4 173-386.4 386.4-386.4a384.687 384.687 0 0 1 133.84 24.3l88.793-59.959a473.853 473.853 0 0 0-175.594-53.162C623.2 99.129 624 97.7 624 96V48a48 48 0 0 0-96 0v48c0 1.7.8 3.129.961 4.781-226.2 22.119-406.055 201.979-428.18 428.18C99.129 528.791 97.7 528 96 528H48a48 48 0 0 0 0 96zM1104 528h-48c-1.7 0-3.129.791-4.781.961a474.156 474.156 0 0 0-53.156-175.605l-59.965 88.8A384.745 384.745 0 0 1 962.4 576c0 213.4-173 386.4-386.4 386.4a384.622 384.622 0 0 1-135.562-24.937l-88.57 59.8a474.058 474.058 0 0 0 177.094 53.953c-.162 1.655-.962 3.084-.962 4.784v48a48 48 0 0 0 96 0v-48c0-1.7-.8-3.129-.961-4.781 226.2-22.119 406.055-201.979 428.18-428.18 1.652.17 3.082.961 4.781.961h48a48 48 0 0 0 0-96zM470.624 503.851l-369.1 546.624 546.624-369.1a144 144 0 0 0 38.758-38.758l369.1-546.624-546.624 369.1a144 144 0 0 0-38.758 38.758zm105.629 159.124a87.228 87.228 0 1 1 87.228-87.228 87.232 87.232 0 0 1-87.228 87.228z"/></svg>