<svg xmlns="http://www.w3.org/2000/svg" width="1152" height="1152" viewBox="0 0 1152 1152"><title>ConversionFunnel_24</title><path d="M288 768v336a48 48 0 0 0 48 48h432a48 48 0 0 0 48-48V768H288zm415.2 134.4L541.5 1118a11.99 11.99 0 0 1-18.082 1.289l-116.871-116.867a12 12 0 0 1 0-16.969l50.906-50.906a12 12 0 0 1 16.969 0l48.378 48.375 103.614-138.129a11.994 11.994 0 0 1 16.793-2.4l57.586 43.207a12 12 0 0 1 2.407 16.8zM144 384l108 288h600l108-288H144zM1069.371 0H34.629a24 24 0 0 0-22.465 32.426L108 288h888l95.836-255.574A24 24 0 0 0 1069.371 0z"/></svg>