<svg xmlns="http://www.w3.org/2000/svg" data-name="S_Copy_24_N@2x" height="48" id="S_Copy_24_N_2x" viewBox="0 0 48 48" width="48"><defs><style>.fill{fill:#707070}</style></defs><title>S_Copy_24_N@2x</title><path class="fill" d="M14 30V14H4a2 2 0 0 0-2 2v26a2 2 0 0 0 2 2h26a2 2 0 0 0 2-2V32H16a2 2 0 0 1-2-2z"/><rect class="fill" height="4" rx="1" ry="1" width="4" x="18" y="24"/><rect class="fill" height="4" rx="1" ry="1" width="4" x="26" y="24"/><rect class="fill" height="4" rx="1" ry="1" width="4" x="34" y="24"/><rect class="fill" height="4" rx="1" ry="1" width="4" x="42" y="24"/><rect class="fill" height="4" rx="1" ry="1" width="4" x="42" y="16"/><rect class="fill" height="4" rx="1" ry="1" width="4" x="42" y="8"/><rect class="fill" height="4" rx="1" ry="1" width="4" x="42"/><rect class="fill" height="4" rx="1" ry="1" width="4" x="34"/><rect class="fill" height="4" rx="1" ry="1" width="4" x="26"/><rect class="fill" height="4" rx="1" ry="1" width="4" x="18"/><rect class="fill" height="4" rx="1" ry="1" width="4" x="18" y="8"/><rect class="fill" height="4" rx="1" ry="1" width="4" x="18" y="16"/></svg>