<svg xmlns="http://www.w3.org/2000/svg" width="1152" height="1152" viewBox="0 0 1152 1152"><title>CoverImage_24</title><path d="M830.256 393.693A74.256 74.256 0 1 1 756 319.387a74.33 74.33 0 0 1 74.256 74.306z"/><path d="M1104 144H48a48 48 0 0 0-48 48v672a48 48 0 0 0 48 48h85.078a396.069 396.069 0 0 1 107.016-38.18c-40.77-58.564-64.488-130.084-64.488-197a371.941 371.941 0 0 1 2.777-43.342c-33.867 27.99-64.031 56.2-82.383 79.225V240h960v511.453c-46.066-48.82-173.273-141.8-210.293-140.32-26.777 1.992-106.078 72.4-162.457 107.273-7.125 55.406-27.422 110.449-58.922 156.176A408.848 408.848 0 0 1 728.273 912H1104a48 48 0 0 0 48-48V192a48 48 0 0 0-48-48z"/><path d="M768 1092.066c0-27.441-11.36-53.779-32-71.864-37.635-32.979-95.261-60.12-175.272-68.245-18.064-1.835-30.247-18.352-30.247-35.073v-50.625a33.985 33.985 0 0 1 8.436-22.04c37.812-44.513 61.287-107.462 61.287-167.4C600.208 550.555 533.245 480 432.059 480s-170.054 73.33-170.054 196.817c0 60 26.477 123.007 64.3 167.521a33.751 33.751 0 0 1 8.342 21.92v50.408c0 16.76-12.209 33.513-30.337 35.092-82.828 7.2-140.448 34.571-177.435 68.17A95.5 95.5 0 0 0 96 1090.794V1152h672v-59.934z"/></svg>