<svg xmlns="http://www.w3.org/2000/svg" data-name="S_CreditCard_24_N@2x" height="48" id="S_CreditCard_24_N_2x" viewBox="0 0 48 48" width="48"><defs><style>.fill{fill:#707070}</style></defs><title>S_CreditCard_24_N@2x</title><path class="fill" d="M4 42a2 2 0 0 0 2 2h36a2 2 0 0 0 2-2v-4H4zM41.729 23.87c-3.147 1.574-14.1 6.66-14.5 6.849a8.614 8.614 0 0 1-3.557.813 6.3 6.3 0 0 1-5.885-3.791A7.086 7.086 0 0 1 19.346 20H6a2 2 0 0 0-2 2v12h40V22.263a11.087 11.087 0 0 1-2.271 1.607z"/><path class="fill" d="M16.768 16s.355-1.633 1.063-4.215c.482-1.761 6.685-9.481 9.06-10.273C29.234.73 42.376.167 42.376.167L47.9 10.2s-4.832 8.525-7.963 10.091-14.458 6.826-14.458 6.826-2.949 1.427-4.054-1.023c-.84-1.863 1.059-3.579 1.059-3.579s4.326-3 6-4.318c1.217-.958 2.5-2.867.788-4.581s-3.461-.017-4.37.771S23.1 16 23.1 16z"/></svg>