<svg xmlns="http://www.w3.org/2000/svg" data-name="S_CropRotate_24_N@2x" height="48" id="S_CropRotate_24_N_2x" viewBox="0 0 48 48" width="48"><defs><style>.fill{fill:#707070}</style></defs><title>S_CropRotate_24_N@2x</title><path class="fill" d="M32 30h4V12.5a.5.5 0 0 0-.5-.5H18v4h14z"/><path class="fill" d="M16 32V6.5a.5.5 0 0 0-.5-.5h-3a.5.5 0 0 0-.5.5V12H6.5a.5.5 0 0 0-.5.5v3a.5.5 0 0 0 .5.5H12v19.5a.5.5 0 0 0 .5.5H32v5.5a.5.5 0 0 0 .5.5h3a.5.5 0 0 0 .5-.5V36h5.5a.5.5 0 0 0 .5-.5v-3a.5.5 0 0 0-.5-.5zM40.5 13h2a.5.5 0 0 0 .5-.5V12a9 9 0 0 0-9-9h-1V.442a.431.431 0 0 0-.724-.262l-3.955 3.963a.5.5 0 0 0 0 .706l3.955 3.971A.431.431 0 0 0 33 8.558V6h1a6 6 0 0 1 6 6v.5a.5.5 0 0 0 .5.5zM7.5 35h-2a.5.5 0 0 0-.5.5v.5a9 9 0 0 0 9 9h1v2.558a.431.431 0 0 0 .724.262l3.954-3.963a.5.5 0 0 0 0-.706l-3.954-3.971a.431.431 0 0 0-.724.262V42h-1a6 6 0 0 1-6-6v-.5a.5.5 0 0 0-.5-.5z"/></svg>