<svg xmlns="http://www.w3.org/2000/svg" width="1152" height="1152" viewBox="0 0 1152 1152"><title>Crosshairs_24</title><path d="M576 96C310.91 96 96 310.91 96 576s214.91 480 480 480 480-214.91 480-480S841.09 96 576 96zm48 860.684V768h-96v188.684C354.387 934.98 217.02 797.613 195.316 624H384v-96H195.316C217.02 354.387 354.387 217.02 528 195.316V384h96V195.316C797.613 217.02 934.98 354.387 956.684 528H768v96h188.684C934.98 797.613 797.613 934.98 624 956.684z"/><circle cx="576" cy="576" r="52.8"/></svg>