<svg xmlns="http://www.w3.org/2000/svg" data-name="S_Curate_24_N@2x" height="48" id="S_Curate_24_N_2x" viewBox="0 0 48 48" width="48"><defs><style>.fill{fill:#707070}</style></defs><title>S_Curate_24_N@2x</title><path class="fill" d="M46 4H2a2 2 0 0 0-2 2v36a2 2 0 0 0 2 2h44a2 2 0 0 0 2-2V6a2 2 0 0 0-2-2zm-2 36H4v-8h10.328a4.164 4.164 0 0 0 7.344 0h2.656a4.164 4.164 0 0 0 7.344 0H44zm0-12H31.672a4.164 4.164 0 0 0-7.344 0h-2.656a4.164 4.164 0 0 0-7.344 0H4v-8h4.328a4.164 4.164 0 0 0 7.344 0h2.656a4.164 4.164 0 0 0 7.344 0h6.656a4.164 4.164 0 0 0 7.344 0H44zm0-12h-4.328a4.164 4.164 0 0 0-7.344 0h-6.656a4.164 4.164 0 0 0-7.344 0h-2.656a4.164 4.164 0 0 0-7.344 0H4V8h40z"/></svg>