<svg xmlns="http://www.w3.org/2000/svg" data-name="S_Dashboard_24_N@2x" height="48" id="S_Dashboard_24_N_2x" viewBox="0 0 48 48" width="48"><defs><style>.fill{fill:#707070}</style></defs><title>S_Dashboard_24_N@2x</title><path class="fill" d="M9.321 36.978a18.24 18.24 0 0 1-3.653-10.717 18.538 18.538 0 0 1 17.8-18.587 18.33 18.33 0 0 1 15.212 29.3 1 1 0 0 0 .143 1.373l1.277 1.07a1.008 1.008 0 0 0 1.442-.148 22 22 0 1 0-35.084 0 1 1 0 0 0 1.438.147l1.281-1.068a1 1 0 0 0 .144-1.37z"/><path class="fill" d="M27.9 31.127a4 4 0 1 1-4.773-3.027c1.027-.23 7.608-8.53 8.45-8.037C32.5 20.6 27.651 30 27.9 31.127z"/><circle class="fill" cx="10" cy="26" r="2.2"/><circle class="fill" cx="14" cy="16" r="2.2"/><circle class="fill" cx="34" cy="16" r="2"/><circle class="fill" cx="24" cy="12" r="2"/><circle class="fill" cx="38" cy="26" r="2"/></svg>