<svg xmlns="http://www.w3.org/2000/svg" width="1152" height="1152" viewBox="0 0 1152 1152"><title>DataBook_24</title><ellipse cx="576" cy="246" rx="480" ry="150"/><path d="M336 960c0-100.922 55.734-169.758 55.734-169.758l21.621-28.8C278.426 745.559 133.207 710.66 96 651.656V906c0 57.047 101.941 106.652 251.977 132.012C340.875 1013.051 336 987.176 336 960z" fill-rule="evenodd"/><g fill-rule="evenodd"><path d="M1056 432v-60.082c-19.242 24.334-51.387 44.063-90.75 60.082H1056zM616.078 491.355c-13.957.422-27.527.7-40.078.7-148.078 0-426.352-35.057-480-120.135v155.307c0 72.434 164.344 132.885 382.875 146.918z"/></g><path d="M858.762 1056H623.883v-.012a95.988 95.988 0 0 1 0-191.977V864h252.551a24 24 0 0 0 19.2-9.6l218.4-307.2a12 12 0 0 0-9.6-19.2H720.611a24 24 0 0 0-19.2 9.6L468.527 847.878l.188.021C445.852 879.5 432 918.018 432 960c0 105.788 85.576 191.522 191.268 191.927l.076.073h253.09a24 24 0 0 0 19.2-9.6l218.4-307.2a12 12 0 0 0-9.6-19.2h-77.672z"/></svg>