<svg xmlns="http://www.w3.org/2000/svg" width="1152" height="1152" viewBox="0 0 1152 1152"><title>DataRefresh_24</title><ellipse cx="576" cy="246" rx="480" ry="150"/><path d="M432 860.988c0-21.363 5.039-44.988 5.039-44.988a416.2 416.2 0 0 1 11.977-50.766C305.1 751.594 136.512 715.91 96 651.656V906c0 67.16 141.27 124 336 143.109V860.988zM816 480a367.113 367.113 0 0 1 198.82 58.02l20.59-21.029 20.59-21.03V371.918c-73.406 92.842-331.922 120.135-480 120.135S149.648 457 96 371.918v155.309c0 73.418 168.938 134.426 391.91 147.363C555.8 557.783 677.965 480 816 480zM1031.039 864C1020.961 979.2 928.8 1069.919 816 1069.919c-60.539 0-110.238-22.579-149.332-64.553L759.844 912H528v232.318l83.4-83.572C663.48 1116.729 736.008 1152 816 1152c153.117 0 277.922-127.2 288-288h-72.961z" fill-rule="evenodd"/><path d="M1021.594 668.312C969.316 611.215 896.719 576 816 576c-153.117 0-277.922 127.2-288 288h72.961C611.039 748.8 703.2 658.078 816 658.078c59.039 0 112.8 24.961 151.676 65.282h.012L876.961 816H1104V584.159z" fill-rule="evenodd"/></svg>