<svg xmlns="http://www.w3.org/2000/svg" width="1152" height="1152" viewBox="0 0 1152 1152"><title>DataAdobe_24</title><ellipse cx="576" cy="246" rx="480" ry="150"/><path d="M528 770.625c-153.516-6.416-383.7-42.363-432-118.969V906c0 77.777 189.445 141.715 432 149.244V770.625zM552 528h503.227l.773-.773V371.918c-73.406 92.842-331.922 120.135-480 120.135S149.648 457 96 371.918v155.309C96 605 285.445 668.941 528 676.471V552a24 24 0 0 1 24-24z" fill-rule="evenodd"/><path d="M956.832 624H1152v527L956.832 624zM819.322 624H624v527l195.322-527zM888.076 807.341l124.373 343.635h-81.503l-37.209-100.049h-91.004l85.343-243.586z"/></svg>