<svg xmlns="http://www.w3.org/2000/svg" width="1152" height="1152" viewBox="0 0 1152 1152"><title>DataUpload_24</title><ellipse cx="576" cy="246" rx="480" ry="150"/><path d="M624 960H518.063c-64.148 0-96.281-77.555-50.918-122.912l66.246-66.252C379.945 765.053 144.879 729.164 96 651.656V906c0 82.84 214.9 150 480 150q24.311 0 48-.756V960z" fill-rule="evenodd"/><g fill-rule="evenodd"><path d="M1012.875 589.113c27.445-18.885 43.125-39.8 43.125-61.887V371.918c-31.559 39.92-97.43 67.658-173.941 86.379zM627.914 676.318l208.055-208.054C745.816 485.52 647.918 492.053 576 492.053c-148.078 0-426.352-35.057-480-120.135v155.309c0 82.834 214.9 150 480 150 17.555 0 34.852-.334 51.914-.909z"/></g><path d="M1131.516 843.516a12 12 0 0 1-8.485 20.484H1008v288H720V864H604.969a12 12 0 0 1-8.484-20.484L864 576z"/></svg>