<svg xmlns="http://www.w3.org/2000/svg" width="1152" height="1152" viewBox="0 0 1152 1152"><title>DataDownload_24</title><ellipse cx="576" cy="246" rx="480" ry="150"/><path d="M467.145 890.906c-42.656-42.656-16.371-112.969 40.219-121.277C354.621 760.98 142.172 724.887 96 651.656V906c0 82.84 214.9 150 480 150 18.691 0 37.043-.41 55.172-1.066z" fill-rule="evenodd"/><g fill-rule="evenodd"><path d="M1056 480V371.918C1008.563 431.906 883.863 464.426 761.59 480H1056zM624 676.471V491.1c-16.84.592-33.094.955-48 .955-148.078 0-426.352-35.057-480-120.135v155.307c0 82.834 214.9 150 480 150q24.311 0 48-.756z"/></g><path d="M1131.516 884.484a12 12 0 0 0-8.485-20.484H1008V576H720v288H604.969a12 12 0 0 0-8.484 20.484L864 1152z"/><path d="M1131.516 884.484a12 12 0 0 0-8.485-20.484H1008V576H720v288H604.969a12 12 0 0 0-8.484 20.484L864 1152z"/></svg>