<svg xmlns="http://www.w3.org/2000/svg" width="1152" height="1152" viewBox="0 0 1152 1152"><title>DataUnavailable_24</title><ellipse cx="576" cy="246" rx="480" ry="150"/><path d="M482.4 864a380.876 380.876 0 0 1 12.445-95.156C343.23 758.977 140.93 722.918 96 651.656V906c0 78.434 192.715 142.711 438.2 149.344A379.253 379.253 0 0 1 482.4 864zM864 482.4a379.291 379.291 0 0 1 190.922 51.539c.316-2.238 1.078-4.453 1.078-6.715V371.918c-73.406 92.848-331.922 120.129-480 120.129S149.648 457 96 371.918v155.309c0 78.164 191.461 142.324 435.844 149.3C597.363 560.719 721.441 482.4 864 482.4z" fill-rule="evenodd"/><path d="M864 578.405c-157.734 0-285.6 127.872-285.6 285.6s127.863 285.6 285.6 285.6 285.6-127.869 285.6-285.6-127.866-285.6-285.6-285.6zm214.2 285.6a212.605 212.605 0 0 1-39.914 123.8L740.2 689.722A212.629 212.629 0 0 1 864 649.808c118.3 0 214.2 95.9 214.2 214.198zm-428.391 0a212.6 212.6 0 0 1 39.914-123.8L987.8 1038.293a212.629 212.629 0 0 1-123.8 39.914c-118.3 0-214.2-95.9-214.2-214.201z"/></svg>