<svg xmlns="http://www.w3.org/2000/svg" width="1152" height="1152" viewBox="0 0 1152 1152"><title>DataCorrelated_24</title><g fill-rule="evenodd"><path d="M815.168 448.43A286.989 286.989 0 0 0 720 432c-159.059 0-288 128.941-288 288a286.989 286.989 0 0 0 16.43 95.168c198.902-8.438 358.3-167.836 366.738-366.738z"/><path d="M336 720c0-212.074 171.926-384 384-384a384.462 384.462 0 0 1 85.992 10.008C766.9 175.406 614.461 48 432 48 219.926 48 48 219.926 48 432c0 182.461 127.406 334.9 298.008 373.992A384.462 384.462 0 0 1 336 720z"/></g><path d="M805.992 346.008A384.462 384.462 0 0 1 816 432c0 5.555-.6 10.945-.832 16.43C927.4 487.781 1008 594.34 1008 720c0 159.059-128.941 288-288 288-125.66 0-232.219-80.6-271.57-192.832-5.485.232-10.875.832-16.43.832a384.462 384.462 0 0 1-85.992-10.008C385.1 976.594 537.539 1104 720 1104c212.074 0 384-171.926 384-384 0-182.461-127.406-334.9-298.008-373.992z" fill-rule="evenodd"/></svg>