<svg xmlns="http://www.w3.org/2000/svg" width="1152" height="1152" viewBox="0 0 1152 1152"><title>DataUser_24</title><ellipse cx="576" cy="246" rx="480" ry="150"/><path d="M670.992 838.9a318.446 318.446 0 0 1-26.461-68.924c-24.422 1.192-47.648 1.808-68.531 1.808-148.078 0-426.352-35.06-480-120.135V906c0 73.339 168.563 134.294 391.148 147.331 10.125-74.713 57.727-173.812 183.844-214.431z" fill-rule="evenodd"/><g fill-rule="evenodd"><path d="M1051.125 547.479c2.859-6.642 4.875-13.368 4.875-20.256V371.918c-29.156 36.873-87.68 63.272-156.7 81.861 65.364 8.675 117.934 41.927 151.825 93.7zM637.641 675.853c6.937-88.053 48.468-157.253 112.687-194.464A1520.334 1520.334 0 0 1 576 492.053c-148.078 0-426.352-35.06-480-120.135v155.306c0 82.837 214.9 150 480 150 20.93 0 41.414-.56 61.641-1.371z"/></g><path d="M941.584 890.4v-39.839c0-6.542 2.66-12.616 7.018-17.783 29.527-35.005 47.849-84.33 47.849-131.3 0-99.367-52.7-154.894-132.326-154.894S730.3 604.291 730.3 701.474c0 46.973 20.615 96.3 50.141 131.3 4.359 5.167 7.02 11.243 7.02 17.786v39.668c0 13.192-9.614 26.379-23.873 27.619-159.989 13.917-183.9 123.355-183.9 166.512 0 4.8-.352 61.913 0 66.64h570.546s.5-61.844.5-66.64c0-41.362-28.258-150.405-185.345-166.357-14.217-1.442-23.804-14.435-23.805-27.602z"/></svg>