<svg xmlns="http://www.w3.org/2000/svg" width="1152" height="1152" viewBox="0 0 1152 1152"><title>DataEdit_24</title><ellipse cx="576" cy="246" rx="480" ry="150"/><path d="M553.336 909.539a115.939 115.939 0 0 1 28.09-45.75l95.754-95.754c-36.586 2.555-71.191 3.75-101.18 3.75-148.078 0-426.352-35.057-480-120.129V906c0 75.088 176.754 137.109 407.227 148.1zM782.789 662.438l145.395-145.395c22.277-22.248 51.762-35.016 85.16-35.988l.75-.006.375-.006h.363a120.182 120.182 0 0 1 41.168 7.588V371.918c-73.406 92.842-331.922 120.135-480 120.135S149.648 457 96 371.918v155.309c0 82.834 214.9 150 480 150 74.156 0 144.094-5.409 206.789-14.789z" fill-rule="evenodd"/><path d="M1144.026 696.235L1031.71 583.919a23.663 23.663 0 0 0-16.879-6.878l-.749.01a26.713 26.713 0 0 0-18.061 7.915l-346.7 346.7a19.433 19.433 0 0 0-4.892 8.2l-67.5 194.7c-2.219 7.335 8.945 16.572 15.255 16.572a5.346 5.346 0 0 0 1.194-.124c5.385-1.239 166.667-59.065 194.815-67.527a19.113 19.113 0 0 0 8.072-4.852l346.71-346.715a26.776 26.776 0 0 0 7.877-17.21 23.8 23.8 0 0 0-6.826-18.475zm-371.711 351.233c-42.1 12.653-108.118 41.94-144.488 52.8l52.528-144.528z"/></svg>