<svg xmlns="http://www.w3.org/2000/svg" width="1152" height="1152" viewBox="0 0 1152 1152"><title>DataCheck_24</title><ellipse cx="576" cy="246" rx="480" ry="150"/><path d="M482.4 864a380.876 380.876 0 0 1 12.445-95.156C343.23 758.971 140.93 722.906 96 651.656V906c0 78.434 192.715 142.711 438.2 149.344A379.269 379.269 0 0 1 482.4 864zM864 482.4a379.351 379.351 0 0 1 190.922 51.539c.316-2.244 1.078-4.453 1.078-6.715V371.918c-73.406 92.842-331.922 120.135-480 120.135S149.648 457 96 371.918v155.309c0 78.176 191.461 142.324 435.844 149.3C597.363 560.713 721.441 482.4 864 482.4z" fill-rule="evenodd"/><path d="M864 578.4c-157.734 0-285.6 127.869-285.6 285.6s127.866 285.6 285.6 285.6 285.6-127.869 285.6-285.6S1021.734 578.4 864 578.4zm-53.485 475.118L663.329 906.329a12 12 0 0 1 0-16.971l42.279-42.279a12 12 0 0 1 16.971 0L816 940.5l214.546-214.546a12 12 0 0 1 16.971 0l45.279 45.279a12 12 0 0 1 0 16.971l-265.311 265.311a12 12 0 0 1-16.97 0z"/></svg>