<svg xmlns="http://www.w3.org/2000/svg" width="1152" height="1152" viewBox="0 0 1152 1152"><title>Deduplication_24</title><circle cx="216" cy="168" r="120"/><path fill-rule="evenodd" d="M690.154 288h-280l140-240 140 240z"/><circle cx="416" cy="984" r="120"/><path fill-rule="evenodd" d="M885.263 1104h-280l140-240 140 240zM1029.846 288h-280l140-240 140 240zM912 385.852H240v66.222a48 48 0 0 0 24.277 41.726l178.305 101.37A96.027 96.027 0 0 1 480 671.227V792a24 24 0 0 0 24 24h144a24 24 0 0 0 24-24V671.227a96.027 96.027 0 0 1 37.418-76.055L887.723 493.8A48 48 0 0 0 912 452.074v-66.222z"/></svg>