<svg xmlns="http://www.w3.org/2000/svg" data-name="S_DeleteOutline_24_N@2x" height="48" id="S_DeleteOutline_24_N_2x" viewBox="0 0 48 48" width="48"><defs><style>.fill{fill:#707070}</style></defs><title>S_DeleteOutline_24_N@2x</title><path class="fill" d="M17.7 35.976a1.029 1.029 0 0 1-1.067-.928l-1.258-17.956a1 1 0 0 1 2-.14l1.256 17.956a1.029 1.029 0 0 1-.931 1.068zM23 36a1.029 1.029 0 0 1-1-1V17a1 1 0 0 1 2 0v18a1.029 1.029 0 0 1-1 1zM28.3 35.976a1.029 1.029 0 0 1-.928-1.067l1.258-17.957a1 1 0 0 1 2 .14l-1.26 17.956a1.029 1.029 0 0 1-1.07.928z"/><path class="fill" d="M42 8H32V6a4 4 0 0 0-4-4H18a4 4 0 0 0-4 4v2H4a2 2 0 0 0 0 4h2.2l2 30a2 2 0 0 0 2 2h25.6a2 2 0 0 0 2-2l2-30H42a2 2 0 0 0 0-4zM18 6h10v2H18zm16 34H12l-2-28h26z"/></svg>