<svg xmlns="http://www.w3.org/2000/svg" width="1152" height="1152" viewBox="0 0 1152 1152"><title>Delegate_24</title><path d="M877.4 572.436c-19.729-2.216-35.912-20.892-35.913-40.746v-58.2c0-9.559 3.587-18.437 9.45-25.987 39.721-51.142 64.367-135.826 64.367-204.447 0-145.147-70.9-213.615-178.026-213.615-19.71 0-37.78 3.263-54.934 8.1 41.484 52.087 68.422 126.562 68.422 229.253 0 95.715-31.882 200.453-82.018 271.688v8.854C904.936 590.28 1003.581 754.089 1008 864h144v-57.6c0-60.088-42.877-207.94-274.6-233.964z"/><path d="M616.348 632.754c-21.844-2.473-39.756-23.262-39.756-45.258l-.006-64.664c0-10.629 3.99-20.5 10.512-28.887 44.127-56.812 71.508-150.914 71.508-227.156 0-161.273-78.779-237.352-197.807-237.352s-200.057 79.618-200.057 237.352c0 76.289 30.855 170.461 75.029 227.262 6.5 8.355 10.424 18.2 10.424 28.781l-.006 64.383a43.457 43.457 0 0 1-3.814 17.145l279.211 260.425L517.207 960H912v-57.6c0-66.771-38.162-240.572-295.652-269.646z"/><path d="M212.969 614.937A12 12 0 0 0 192 622.909V768H24a24 24 0 0 0-24 24v144a24 24 0 0 0 24 24h168v139.636a12 12 0 0 0 20.969 7.972L480 864z"/></svg>