<svg xmlns="http://www.w3.org/2000/svg" width="1152" height="1152" viewBox="0 0 1152 1152"><title>DeliveryFusion_24</title><path d="M568.91 579.094a12 12 0 0 0 14.965 1.559l515.965-333.141 3.234-14.8c4.746-21.738-9.246-39.375-31.277-39.375H274.383c-22.008 0-43.711 17.637-48.469 39.375l-1.137 5.25zM1005.82 677.977l64.969-297.469-255.785 165.187 190.816 132.282zM727.746 602.039l-132.3 85.441a48 48 0 0 1-59.836-6.234l-76.277-75.6-354.914 183.4-7.488 34.242c-4.746 21.738 9.246 39.375 31.277 39.375h797.409c22.008 0 43.711-17.637 48.469-39.375l9.586-43.852zM139.98 624.281l-9.105 43.02L388.688 534.07l-187.36-190.078A772.667 772.667 0 0 0 77.613 247.77s-100.348-69.316-56.789-.5S180.832 435.68 139.98 624.281z"/></svg>