<svg id="Demographic_24" xmlns="http://www.w3.org/2000/svg" width="1152" height="1152" viewBox="0 0 1152 1152"><defs><style/></defs><title>Demographic_24</title><circle cx="240" cy="177" r="108"/><circle cx="912" cy="177" r="108"/><circle cx="576" cy="177" r="108"/><path d="M918.4 341.1h-12.8c-69.826 0-129.917 22.793-161.6 67.348-31.682-44.557-91.772-67.348-161.6-67.348h-12.8c-69.826 0-129.917 22.793-161.6 67.348-31.682-44.557-91.772-67.348-161.6-67.348h-12.8C131.095 341.1 48 389 48 485.1v203.4c0 16.57 14.326 30 32 30h32l32 304.5c0 16.57 14.326 30 32 30h128c17.675 0 32-13.43 32-30l32-304.5h32c2.839 0 5.382-.867 8-1.512 2.619.645 5.162 1.512 8 1.512h32l32 304.5c0 16.57 14.326 30 32 30h128c17.675 0 32-13.43 32-30l32-304.5h32c2.839 0 5.382-.867 8-1.512 2.619.645 5.162 1.512 8 1.512h32l32 304.5c0 16.57 14.326 30 32 30h128c17.675 0 32-13.43 32-30l32-304.5h32c17.675 0 32-13.43 32-30V485.1c0-96.1-83.095-144-185.6-144z"/></svg>