<svg xmlns="http://www.w3.org/2000/svg" data-name="S_Deselect_24_N@2x" height="48" id="S_Deselect_24_N_2x" viewBox="0 0 48 48" width="48"><defs><style>.fill{fill:#707070}</style></defs><title>S_Deselect_24_N@2x</title><rect class="fill" height="56" rx="1" ry="1" transform="rotate(-45 24 24)" width="4" x="22" y="-4"/><path class="fill" d="M5.516 14H4v8h4v-5.516L5.516 14zM8 40v-2H4v5a1 1 0 0 0 1 1h5v-4zM4 26h4v8H4zM14 40h8v4h-8zM34 42.484L31.516 40H26v4h8v-1.516z"/><path class="fill" d="M5.516 14H4v8h4v-5.516L5.516 14zM8 40v-2H4v5a1 1 0 0 0 1 1h5v-4zM4 26h4v8H4zM14 40h8v4h-8zM34 42.484L31.516 40H26v4h8v-1.516zM22 4h-8v1.516L16.484 8H22V4zM26 4h8v4h-8zM43 4h-5v4h2v2h4V5a1 1 0 0 0-1-1zM40 14h4v8h-4zM44 34v-8h-4v5.516L42.484 34H44z"/></svg>