<svg xmlns="http://www.w3.org/2000/svg" data-name="S_DesktopAndMobile_24_N@2x" height="48" id="S_DesktopAndMobile_24_N_2x" viewBox="0 0 48 48" width="48"><defs><style>.fill{fill:#707070}</style></defs><title>S_DesktopAndMobile_24_N@2x</title><path class="fill" d="M24 28H4V8h34v2h4V6a2 2 0 0 0-2-2H2a2 2 0 0 0-2 2v24a2 2 0 0 0 2 2h14v4a2.006 2.006 0 0 1-2 2h-3a1 1 0 0 0-1 1v2a1 1 0 0 0 1 1h13z"/><path class="fill" d="M46 14H30a2 2 0 0 0-2 2v30a2 2 0 0 0 2 2h16a2 2 0 0 0 2-2V16a2 2 0 0 0-2-2zm-9 2h2a1 1 0 0 1 0 2h-2a1 1 0 0 1 0-2zm1 31.1a2.1 2.1 0 1 1 2.1-2.1 2.1 2.1 0 0 1-2.1 2.1zm8-5.1H30V20h16z"/></svg>