<svg xmlns="http://www.w3.org/2000/svg" data-name="S_DeviceTV_24_N@2x" height="48" id="S_DeviceTV_24_N_2x" viewBox="0 0 48 48" width="48"><defs><style>.fill{fill:#707070}</style></defs><title>S_DeviceTV_24_N@2x</title><path class="fill" d="M44 14H25.414l9.107-9.107a1.8 1.8 0 0 0-.021-2.421 1.788 1.788 0 0 0-2.4.007L24 10.586 15.909 2.5a1.784 1.784 0 0 0-2.4 0 1.8 1.8 0 0 0-.01 2.414L22.586 14H4a2 2 0 0 0-2 2v26a2 2 0 0 0 2 2h40a2 2 0 0 0 2-2V16a2 2 0 0 0-2-2zm-6 26H6V18h32zm6-2a2 2 0 0 1-4 0v-2.128a2 2 0 0 1 4 0z"/></svg>