<svg xmlns="http://www.w3.org/2000/svg" data-name="S_DeviceRotatePortrait_24_N@2x" height="48" id="S_DeviceRotatePortrait_24_N_2x" viewBox="0 0 48 48" width="48"><defs><style>.fill{fill:#707070}</style></defs><title>S_DeviceRotatePortrait_24_N@2x</title><path class="fill" d="M42 8H6a4 4 0 0 0-4 4v18a4 4 0 0 0 4 4h12.239a15.781 15.781 0 0 1 1.041-4H8V12h32v9.28c.208.085.409.18.611.273A2.407 2.407 0 0 1 40.5 21a2.5 2.5 0 0 1 5 0 2.466 2.466 0 0 1-1.866 2.372q.395.3.77.628H36v10l3.7-3.7a8 8 0 0 1 2.4 5.7A8.1 8.1 0 1 1 32 28.179v-3.9a11.978 11.978 0 1 0 10.379 3.34l2.853-2.853q.4.4.768.822V12a4 4 0 0 0-4-4zM6 23a1 1 0 0 1-2 0v-4a1.04 1.04 0 0 1 1-1 1.04 1.04 0 0 1 1 1z"/></svg>