<svg xmlns="http://www.w3.org/2000/svg" data-name="S_Devices_24_N@2x" height="48" id="S_Devices_24_N_2x" viewBox="0 0 48 48" width="48"><defs><style>.fill{fill:#707070}</style></defs><title>S_Devices_24_N@2x</title><path class="fill" d="M28 12H12a2 2 0 0 0-2 2v32a2 2 0 0 0 2 2h16a2 2 0 0 0 2-2V14a2 2 0 0 0-2-2zm-9 2h2a1 1 0 1 1 0 2h-2a1 1 0 0 1 0-2zm1 33.1a2.1 2.1 0 1 1 2.1-2.1 2.1 2.1 0 0 1-2.1 2.1zm8-5.1H12V18h16z"/><path class="fill" d="M42 4H6a4 4 0 0 0-4 4v24a4 4 0 0 0 4 4V8h34v24h-6v4h8a4 4 0 0 0 4-4V8a4 4 0 0 0-4-4zm1 18.5a2.5 2.5 0 1 1 0-5 2.5 2.5 0 0 1 0 5z"/></svg>