<svg xmlns="http://www.w3.org/2000/svg" data-name="S_DeviceRotateLandscape_24_N@2x" height="48" id="S_DeviceRotateLandscape_24_N_2x" viewBox="0 0 48 48" width="48"><defs><style>.fill{fill:#707070}</style></defs><title>S_DeviceRotateLandscape_24_N@2x</title><path class="fill" d="M42.379 27.621L46 24H36v10l3.7-3.7a8 8 0 0 1 2.4 5.7A8.1 8.1 0 1 1 32 28.179v-3.9a11.978 11.978 0 1 0 10.379 3.34z"/><path class="fill" d="M18.7 40H10V8h18v13.417a15.791 15.791 0 0 1 4-1.062V6a4 4 0 0 0-4-4H10a4 4 0 0 0-4 4v36a4 4 0 0 0 4 4h11.671a15.834 15.834 0 0 1-2.971-6zM17 4h4a1.04 1.04 0 0 1 1 1 1.04 1.04 0 0 1-1 1h-4a1 1 0 0 1 0-2z"/></svg>