<svg xmlns="http://www.w3.org/2000/svg" data-name="S_DeviceLaptop_24_N@2x" height="48" id="S_DeviceLaptop_24_N_2x" viewBox="0 0 48 48" width="48"><defs><style>.fill{fill:#707070}</style></defs><title>S_DeviceLaptop_24_N@2x</title><path class="fill" d="M46.805 39.212L42 28V8a2 2 0 0 0-2-2H8a2 2 0 0 0-2 2v20L1.195 39.212A2 2 0 0 0 3.033 42h41.934a2 2 0 0 0 1.838-2.788zM29.719 38H18.281a1 1 0 0 1-.97-1.243l.5-2a1 1 0 0 1 .97-.757h10.438a1 1 0 0 1 .97.757l.5 2a1 1 0 0 1-.97 1.243zM38 26H10V10h28z"/></svg>