<svg xmlns="http://www.w3.org/2000/svg" width="1152" height="1152" viewBox="0 0 1152 1152"><title>Dimension_24</title><ellipse cx="744" cy="168" rx="408" ry="120"/><path d="M744 672c-21.727 0-65.977-.773-119.437-5.344C586.453 670.125 545.977 672 504 672c-225.328 0-408-53.73-408-120v384c0 66.27 182.672 120 408 120s408-53.73 408-120V661.523A1454.264 1454.264 0 0 1 744 672zM744 384c-225.328 0-408-53.73-408-120v192c0 66.27 182.672 120 408 120s408-53.73 408-120V264c0 66.27-182.672 120-408 120zM240 456v-91.336C151.98 386.648 96 419.367 96 456c0 42.516 75.4 79.781 188.8 101.1C257.273 530.121 240 497.109 240 456z" fill-rule="evenodd"/></svg>