<svg xmlns="http://www.w3.org/2000/svg" width="1152" height="1152" viewBox="0 0 1152 1152"><title>Disqus_24</title><path d="M583.131 1056c-117.461 0-224.86-42.923-307.9-113.927L70.882 969.991l78.947-194.851A481.121 481.121 0 0 1 106.892 576c0-265.081 213.22-480 476.238-480 263 0 476.2 214.919 476.2 480-.004 265.131-213.195 480-476.199 480zm260.032-481.372v-1.337c0-138.51-97.678-237.276-266.1-237.276h-181.9v480H574.37c169.73.006 268.793-102.884 268.793-241.387zM579.07 698.084h-53.205V453.98h53.205c78.144 0 130.012 44.551 130.012 121.387v1.333c.001 77.487-51.868 121.384-130.012 121.384z"/></svg>