<svg xmlns="http://www.w3.org/2000/svg" data-name="S_DistributeLeftEdge_24_N@2x" height="48" id="S_DistributeLeftEdge_24_N_2x" viewBox="0 0 48 48" width="48"><defs><style>.fill{fill:#707070}</style></defs><title>S_DistributeLeftEdge_24_N@2x</title><path class="fill" d="M42 14H32V3a1 1 0 0 0-1-1h-2a1 1 0 0 0-1 1v42a1 1 0 0 0 1 1h2a1 1 0 0 0 1-1V34h10a2 2 0 0 0 2-2V16a2 2 0 0 0-2-2zM18 8h-8V3a1 1 0 0 0-1-1H7a1 1 0 0 0-1 1v42a1 1 0 0 0 1 1h2a1 1 0 0 0 1-1v-5h8a2 2 0 0 0 2-2V10a2 2 0 0 0-2-2z"/></svg>