<svg xmlns="http://www.w3.org/2000/svg" data-name="S_DistributeSpaceHoriz_24_N@2x" height="48" id="S_DistributeSpaceHoriz_24_N_2x" viewBox="0 0 48 48" width="48"><defs><style>.fill{fill:#707070}</style></defs><title>S_DistributeSpaceHoriz_24_N@2x</title><path class="fill" d="M17 2h-2a1 1 0 0 0-1 1v9H6a2 2 0 0 0-2 2v20a2 2 0 0 0 2 2h8v9a1 1 0 0 0 1 1h2a1 1 0 0 0 1-1V3a1 1 0 0 0-1-1zM40 12h-8V3a1 1 0 0 0-1-1h-2a1 1 0 0 0-1 1v42a1 1 0 0 0 1 1h2a1 1 0 0 0 1-1v-9h8a2 2 0 0 0 2-2V14a2 2 0 0 0-2-2z"/></svg>