<svg xmlns="http://www.w3.org/2000/svg" data-name="S_DistributeRightEdge_24_N@2x" height="48" id="S_DistributeRightEdge_24_N_2x" viewBox="0 0 48 48" width="48"><defs><style>.fill{fill:#707070}</style></defs><title>S_DistributeRightEdge_24_N@2x</title><path class="fill" d="M41 2h-2a1 1 0 0 0-1 1v5h-8a2 2 0 0 0-2 2v28a2 2 0 0 0 2 2h8v5a1 1 0 0 0 1 1h2a1 1 0 0 0 1-1V3a1 1 0 0 0-1-1zM19 2h-2a1 1 0 0 0-1 1v11H6a2 2 0 0 0-2 2v16a2 2 0 0 0 2 2h10v11a1 1 0 0 0 1 1h2a1 1 0 0 0 1-1V3a1 1 0 0 0-1-1z"/></svg>