<svg xmlns="http://www.w3.org/2000/svg" data-name="S_DistributeSpaceVert_24_N@2x" height="48" id="S_DistributeSpaceVert_24_N_2x" viewBox="0 0 48 48" width="48"><defs><style>.fill{fill:#707070}</style></defs><title>S_DistributeSpaceVert_24_N@2x</title><path class="fill" d="M46 17v-2a1 1 0 0 0-1-1h-9V6a2 2 0 0 0-2-2H14a2 2 0 0 0-2 2v8H3a1 1 0 0 0-1 1v2a1 1 0 0 0 1 1h42a1 1 0 0 0 1-1zM36 40v-8h9a1 1 0 0 0 1-1v-2a1 1 0 0 0-1-1H3a1 1 0 0 0-1 1v2a1 1 0 0 0 1 1h9v8a2 2 0 0 0 2 2h20a2 2 0 0 0 2-2z"/></svg>