<svg xmlns="http://www.w3.org/2000/svg" data-name="S_DividePath_24_N@2x" height="48" id="S_DividePath_24_N_2x" viewBox="0 0 48 48" width="48"><defs><style>.fill{fill:#707070}</style></defs><title>S_DividePath_24_N@2x</title><path class="fill" d="M14 12h18V6a2 2 0 0 0-2-2H6a2 2 0 0 0-2 2v24a2 2 0 0 0 2 2h6V14a2 2 0 0 1 2-2z"/><path class="fill" d="M32 16H18a2 2 0 0 0-2 2v14h14a2 2 0 0 0 2-2z"/><path class="fill" d="M42 16h-6v18a2 2 0 0 1-2 2H16v6a2 2 0 0 0 2 2h24a2 2 0 0 0 2-2V18a2 2 0 0 0-2-2z"/></svg>