<svg xmlns="http://www.w3.org/2000/svg" width="1152" height="1152" viewBox="0 0 1152 1152"><title>DocumentFragment_24</title><path d="M1104 144H48a48 48 0 0 0-48 48v768a48 48 0 0 0 48 48h1056a48 48 0 0 0 48-48V192a48 48 0 0 0-48-48zM96 240h480v480c-24.961-44.086-69.094-88.184-89.145-86.859-19.289 2.391-91.676 51.434-115.43 51.434-21.258 0-105.5-78.855-129.141-78.855C176 605.719 139.43 676.57 96 720V240zm960 672H96v-96h960v96zm0-192H672v-96h384v96zm0-192H672v-96h384v96zm0-192H672v-96h384v96z"/><circle cx="420" cy="444" r="72"/></svg>