<svg xmlns="http://www.w3.org/2000/svg" width="1152" height="1152" viewBox="0 0 1152 1152"><title>DocumentFragmentGroup_24</title><path d="M1104 336H240a48 48 0 0 0-48 48v576a48 48 0 0 0 48 48h864a48 48 0 0 0 48-48V384a48 48 0 0 0-48-48zm-816 96h384v288c-24.961-44.086-69.094-88.184-89.145-86.859-19.289 2.391-91.676 51.434-115.43 51.434C446.168 684.574 401.637 618 378 618c-66.281 0-46.57 58.57-90 102V432zm768 480H288v-96h768v96zm0-192H768v-96h288v96zm0-192H768v-96h288v96z"/><circle cx="516" cy="540" r="72"/><path d="M96 264a24 24 0 0 1 24-24h840v-72a24 24 0 0 0-24-24H24a24 24 0 0 0-24 24v624a24 24 0 0 0 24 24h72V264z"/></svg>