<svg xmlns="http://www.w3.org/2000/svg" data-name="S_Download_24_N@2x" height="48" id="S_Download_24_N_2x" viewBox="0 0 48 48" width="48"><defs><style>.fill{fill:#707070}</style></defs><title>S_Download_24_N@2x</title><path class="fill" d="M32.586 24H26V5a1 1 0 0 0-1-1h-4a1 1 0 0 0-1 1v19h-6.586a1 1 0 0 0-.707 1.707L23 36l10.293-10.293A1 1 0 0 0 32.586 24z"/><path class="fill" d="M40 33v7H6v-7a1 1 0 0 0-1-1H3a1 1 0 0 0-1 1v9a2 2 0 0 0 2 2h38a2 2 0 0 0 2-2v-9a1 1 0 0 0-1-1h-2a1 1 0 0 0-1 1z"/></svg>