<svg xmlns="http://www.w3.org/2000/svg" width="1152" height="1152" viewBox="0 0 1152 1152"><title>DPS_24</title><path d="M48 48v1056h1056V48H48zm84 84h888v888H132V132z" fill-rule="evenodd"/><g fill-rule="evenodd"><path d="M513.041 690.495l-64.508-50L576 541.679l64.582 50.066 59.26-45.879-94.042-72.827a48.69 48.69 0 0 0-59.592 0l-94.12 72.871-14.7 11.383-58.266 45.1a48.211 48.211 0 0 0 0 76.184l74.655 57.794zM772.861 602.4l-42.226-32.692-59.278 45.892 32.116 24.89L576 739.3l-32.19-24.948-59.242 45.87 61.636 47.718a48.681 48.681 0 0 0 59.592 0l77.694-60.162 14.861-11.509 74.508-57.69a48.189 48.189 0 0 0 .002-76.179z"/></g><path d="M513.041 690.495l30.772 23.859L671.357 615.6l-30.772-23.855-127.544 98.75zM822.122 399.671L614.4 239.09a61.914 61.914 0 0 0-76.719-.09l-207.8 160.654a62.454 62.454 0 0 0-24.566 50.089 61.548 61.548 0 0 0 24.529 49.132l91.431 70.887 16.117-12.462 14.7-11.385-99.331-76.98a24.255 24.255 0 0 1-9.723-19.391 25.045 25.045 0 0 1 9.902-20.044l207.907-160.761a24.264 24.264 0 0 1 30.385.092l207.834 160.691a24.985 24.985 0 0 1 9.907 20.017 24.338 24.338 0 0 1-9.907 19.52l-99.221 76.807 30.79 23.841 91.3-70.687a61.618 61.618 0 0 0 24.75-49.279 62.393 62.393 0 0 0-24.563-50.07zM710.673 746l-12.32-9.732-14.861 11.512-15.855 12.285 19.686 15.57a25.158 25.158 0 0 1 .11 39.648L591.306 889.5a25.359 25.359 0 0 1-30.569.074l-96.054-74.213a25.1 25.1 0 0 1-.11-39.648l20-15.485-30.79-23.848-12.375 9.574a62.811 62.811 0 0 0 .11 99.166l96.238 74.36a63.172 63.172 0 0 0 76.533-.074l96.311-74.36a62.885 62.885 0 0 0 .073-99.046z"/></svg>