<svg xmlns="http://www.w3.org/2000/svg" width="1152" height="1152" viewBox="0 0 1152 1152"><title>Dropdown_24</title><path d="M1008 48H144a48 48 0 0 0-48 48v192a48 48 0 0 0 48 48h864a48 48 0 0 0 48-48V96a48 48 0 0 0-48-48zM840 276L736.4 163.682A12 12 0 0 1 745.62 144h188.76a12 12 0 0 1 9.219 19.682zM1008 432H144a48 48 0 0 0-48 48v576a48 48 0 0 0 48 48h864a48 48 0 0 0 48-48V480a48 48 0 0 0-48-48zM192 552a24 24 0 0 1 24-24h528a24 24 0 0 1 24 24v48a24 24 0 0 1-24 24H216a24 24 0 0 1-24-24v-48zm672 432a24 24 0 0 1-24 24H216a24 24 0 0 1-24-24v-48a24 24 0 0 1 24-24h624a24 24 0 0 1 24 24v48zm96-192a24 24 0 0 1-24 24H216a24 24 0 0 1-24-24v-48a24 24 0 0 1 24-24h720a24 24 0 0 1 24 24v48z"/></svg>