<svg xmlns="http://www.w3.org/2000/svg" data-name="S_Duplicate_24_N@2x" height="48" id="S_Duplicate_24_N_2x" viewBox="0 0 48 48" width="48"><defs><style>.fill{fill:#707070}</style></defs><title>S_Duplicate_24_N@2x</title><path class="fill" d="M8 10a2 2 0 0 1 2-2h26V6a2 2 0 0 0-2-2H6a2 2 0 0 0-2 2v28a2 2 0 0 0 2 2h2z"/><path class="fill" d="M42 12H14a2 2 0 0 0-2 2v28a2 2 0 0 0 2 2h28a2 2 0 0 0 2-2V14a2 2 0 0 0-2-2zm-5 18h-7v7a1 1 0 0 1-1 1h-2a1 1 0 0 1-1-1v-7h-7a1 1 0 0 1-1-1v-2a1 1 0 0 1 1-1h7v-7a1 1 0 0 1 1-1h2a1 1 0 0 1 1 1v7h7a1 1 0 0 1 1 1v2a1 1 0 0 1-1 1z"/></svg>