<svg xmlns="http://www.w3.org/2000/svg" width="1152" height="1152" viewBox="0 0 1152 1152"><title>EditExclude_24</title><path d="M482.4 864c0-210.75 170.848-381.6 381.6-381.6a386.832 386.832 0 0 1 40.418 2.18l141.738-142.02c18.75-18.773 20.6-47.3 4.148-63.668L872.227 101.73c-16.418-16.336-44.859-14.4-63.574 4.313L211.676 703.02a53.617 53.617 0 0 0-12.5 19.523L98.766 999.809c-12.668 34.969 17.086 64.934 52.1 52.465l278.7-99.164a53.5 53.5 0 0 0 19.828-12.633l35.3-35.367A384.051 384.051 0 0 1 482.4 864zM177.656 974.883L260.59 743.2 409.3 891.48c-74.39 26.778-167.39 60.399-231.644 83.403z"/><path d="M864 578.405c-157.734 0-285.6 127.872-285.6 285.6s127.863 285.6 285.6 285.6 285.6-127.869 285.6-285.6-127.866-285.6-285.6-285.6zm214.2 285.6a212.605 212.605 0 0 1-39.914 123.8L740.2 689.722A212.629 212.629 0 0 1 864 649.808c118.3 0 214.2 95.9 214.2 214.198zm-428.391 0a212.6 212.6 0 0 1 39.914-123.8L987.8 1038.293a212.629 212.629 0 0 1-123.8 39.914c-118.3 0-214.2-95.9-214.2-214.201z"/></svg>