<svg xmlns="http://www.w3.org/2000/svg" width="1152" height="1152" viewBox="0 0 1152 1152"><title>Edit-Circle_24</title><path d="M347.991 804.038c37.445-11.182 105.441-41.343 148.8-54.374l-94.7-94.47z"/><path d="M576 98.4C312.234 98.4 98.4 312.234 98.4 576s213.834 477.6 477.6 477.6 477.6-213.834 477.6-477.6S839.766 98.4 576 98.4zm-49.383 686.08a20.746 20.746 0 0 1-8.754 5.262c-30.5 9.176-205.254 71.824-211.09 73.172a5.832 5.832 0 0 1-1.3.129c-6.832 0-18.937-10.008-16.535-17.953l73.148-210.973a21.136 21.136 0 0 1 5.309-8.895l375.68-375.68a28.965 28.965 0 0 1 19.57-8.578l.809-.012a25.66 25.66 0 0 1 18.293 7.453l121.71 121.714a25.8 25.8 0 0 1 7.395 20.016 29 29 0 0 1-8.531 18.645z"/></svg>