<svg xmlns="http://www.w3.org/2000/svg" width="1152" height="1152" viewBox="0 0 1152 1152"><title>Efficient_24</title><path d="M293.578 434.016a48.021 48.021 0 0 1-17.625-92.672c7.219-2.836 177.844-69.937 303.563-98.18 153.375-34.477 269.813-42.211 274.734-42.516 26.063-2.2 49.219 18.375 50.953 44.836a48.027 48.027 0 0 1-44.812 50.977c-1.125.07-114.328 7.664-259.875 40.359-118.5 26.625-287.625 93.141-289.312 93.82a48.11 48.11 0 0 1-17.626 3.376zM303.745 236.966a48.021 48.021 0 0 1-17.625-92.672c7.219-2.836 167.677-64.888 293.4-93.13a2120.275 2120.275 0 0 1 73.359-15.117 48 48 0 0 1 17.719 94.359 2107.11 2107.11 0 0 0-70.078 14.414c-118.5 26.625-277.458 88.091-279.146 88.77a48.11 48.11 0 0 1-17.629 3.376z"/><path d="M432 1056v28.118a48 48 0 0 0 14.059 33.941l19.882 19.882A48 48 0 0 0 499.882 1152h152.236a48 48 0 0 0 33.941-14.059l19.882-19.882A48 48 0 0 0 720 1084.118V1056a48 48 0 0 0 48-48v-96a48 48 0 0 0-48-48H432a48 48 0 0 0-48 48v96c0 46.021 48 48 48 48z" fill-rule="evenodd"/><path d="M310.433 619.294a48.021 48.021 0 0 1-17.625-92.672c7.219-2.836 160.989-63.216 286.708-91.458 153.375-34.477 269.813-42.211 274.734-42.516 26.063-2.2 49.219 18.375 50.953 44.836a48.027 48.027 0 0 1-44.812 50.977c-1.125.07-114.328 7.664-259.875 40.359-118.5 26.625-270.77 86.419-272.458 87.1a48.11 48.11 0 0 1-17.625 3.374zM432 696v72h96v-72a118.6 118.6 0 0 0-13.266-53.719c-34.312 10.857-67.828 22.395-96.07 32.508A23.855 23.855 0 0 1 432 696zM846.516 576H744a120.126 120.126 0 0 0-120 120v72h96v-72a24.031 24.031 0 0 1 24-24h102.516a48 48 0 0 0 0-96z"/></svg>