<svg xmlns="http://www.w3.org/2000/svg" width="1152" height="1152" viewBox="0 0 1152 1152"><title>EmailSchedule_24</title><path d="M1099.641 96H52.359C23.438 96 0 117.492 0 144v33.3l568.43 416.808a12.946 12.946 0 0 0 15.188 0L1152 177.3V144c0-26.508-23.437-48-52.359-48zM0 291.87v406.254l316.125-174.469L0 291.87zM507.48 664l-110.05-80.72L0 802.485V864c0 26.508 23.438 48 52.359 48h430.957A386.035 386.035 0 0 1 480 864a381.831 381.831 0 0 1 49.887-188.865c-7.746-3.235-15.668-6.188-22.407-11.135zM1152 610.594V291.876L893.438 481.488A382.579 382.579 0 0 1 1152 610.594zM864 578.405c-157.734 0-285.6 127.872-285.6 285.6s127.863 285.6 285.6 285.6 285.6-127.869 285.6-285.6-127.866-285.6-285.6-285.6zm0 499.8c-118.3 0-214.2-95.9-214.2-214.2 0-101.795 71-187 166.2-208.8v214.233a21.488 21.488 0 0 0 6.281 15.182l112.1 112.1a21.47 21.47 0 0 0 30.363 0l28.676-28.679a21.456 21.456 0 0 0 0-30.36l-85.266-85.26a21.488 21.488 0 0 1-6.281-15.182V653.147c100.242 17.883 176.32 105.486 176.32 210.858.007 118.302-95.893 214.202-214.193 214.202z"/></svg>