<svg xmlns="http://www.w3.org/2000/svg" data-name="S_EmailOutline_24_N@2x" height="48" id="S_EmailOutline_24_N_2x" viewBox="0 0 48 48" width="48"><defs><style>.fill{fill:#707070}</style></defs><title>S_EmailOutline_24_N@2x</title><path class="fill" d="M46 6H2a2 2 0 0 0-2 2v32a2 2 0 0 0 2 2h44a2 2 0 0 0 2-2V8a2 2 0 0 0-2-2zm-2 4v1.105l-19.941 14.5a.1.1 0 0 1-.118 0L4 11.105V10zm0 5.8v16.29l-11.2-8.143zm-28.8 8.147L4 32.09V15.8zM4 38v-1.212L18.427 26.3l3.28 2.386a3.889 3.889 0 0 0 4.587 0l3.279-2.386L44 36.788V38z"/></svg>