<svg xmlns="http://www.w3.org/2000/svg" width="1152" height="1152" viewBox="0 0 1152 1152"><title>EmailGear_24</title><path d="M316.125 523.656L0 291.871v406.254l316.125-174.469zM408 837.516v-43.032a117.692 117.692 0 0 1 82.594-112.219 117.021 117.021 0 0 1-12.494-39.811l-80.67-59.177L0 802.488V864c0 26.508 23.438 48 52.359 48h382.735A116.572 116.572 0 0 1 408 837.516zM511.078 543.867L543.7 511.2a117.706 117.706 0 0 1 138.566-20.63A117.722 117.722 0 0 1 794.484 408H837.4L1152 177.3V144c0-26.508-23.437-48-52.359-48H52.359C23.438 96 0 117.492 0 144v33.3l506.813 371.618c1.476-1.655 2.671-3.46 4.265-5.051zM949.734 490.57a117.671 117.671 0 0 1 138.422 20.508l32.719 32.719A116.541 116.541 0 0 1 1152 601.286V291.879L930.586 454.245a117.149 117.149 0 0 1 19.148 36.325zM1106.484 772.966h-75.352a217.854 217.854 0 0 0-31.816-77.244l53.648-53.646a21.516 21.516 0 0 0 0-30.428l-32.613-32.613a21.518 21.518 0 0 0-30.434 0l-53.647 53.649a217.949 217.949 0 0 0-77.238-31.825v-75.343A21.516 21.516 0 0 0 837.516 504h-43.032a21.516 21.516 0 0 0-21.516 21.516v75.343a217.949 217.949 0 0 0-77.238 31.825l-53.648-53.648a21.518 21.518 0 0 0-30.434 0l-32.613 32.613a21.516 21.516 0 0 0 0 30.428l53.648 53.646a217.854 217.854 0 0 0-31.816 77.244h-75.351A21.516 21.516 0 0 0 504 794.481v43.034a21.518 21.518 0 0 0 21.516 21.519h75.352a217.854 217.854 0 0 0 31.816 77.244l-53.648 53.646a21.512 21.512 0 0 0 0 30.425l32.613 32.613a21.518 21.518 0 0 0 30.434 0l53.648-53.646a217.928 217.928 0 0 0 77.238 31.813v75.352A21.518 21.518 0 0 0 794.484 1128h43.031a21.518 21.518 0 0 0 21.516-21.519v-75.351a217.928 217.928 0 0 0 77.238-31.813l53.648 53.646a21.518 21.518 0 0 0 30.434 0l32.613-32.613a21.512 21.512 0 0 0 0-30.425l-53.648-53.646a217.854 217.854 0 0 0 31.816-77.244h75.352A21.518 21.518 0 0 0 1128 837.516v-43.035a21.516 21.516 0 0 0-21.516-21.515zM816 900a84 84 0 1 1 84-84 84 84 0 0 1-84 84z"/></svg>