<svg xmlns="http://www.w3.org/2000/svg" width="1152" height="1152" viewBox="0 0 1152 1152"><title>EmailRefresh_24</title><g fill-rule="evenodd"><path d="M1099.641 96H52.359C23.438 96 0 117.492 0 144v33.3l568.43 416.808a12.946 12.946 0 0 0 15.188 0L1152 177.3V144c0-26.508-23.437-48-52.359-48zM0 291.87v406.254l316.125-174.469L0 291.87zM507.48 664l-110.05-80.72L0 802.485V864c0 26.508 23.438 48 52.359 48h430.957A386.035 386.035 0 0 1 480 864a381.831 381.831 0 0 1 49.887-188.865c-7.746-3.235-15.668-6.188-22.407-11.135zM864 1069.919c-60.562 0-110.379-22.395-149.484-64.4L807.844 912H576v232.318l83.25-83.417C711.328 1116.888 784.008 1152 864 1152c153.117 0 277.922-127.2 288-288h-72.961C1068.961 979.2 976.8 1069.919 864 1069.919zM1066.7 538.38l85.3-87.1v-159.4L893.438 481.488A381.157 381.157 0 0 1 1066.7 538.38zM864 576c-153.117 0-277.922 127.2-288 288h72.961C659.039 748.8 751.2 658.078 864 658.078c59.039 0 112.8 24.961 151.676 65.282L924.961 816H1152V584.159l-82.383 84.12C1017.352 611.18 944.719 576 864 576z"/></g></svg>