<svg id="EmailCheck_24" xmlns="http://www.w3.org/2000/svg" width="1152" height="1152" viewBox="0 0 1152 1152"><defs><style/></defs><title>EmailCheck_24</title><path d="M568.432 594.109a12.946 12.946 0 0 0 15.188 0L1152 177.3V144c0-26.508-23.443-48-52.364-48H52.364C23.443 96 0 117.492 0 144v33.3zM316.125 523.656L0 291.871v406.254l316.125-174.469zM482.4 864a379.479 379.479 0 0 1 49.641-187.793c-8.566-3.363-17.168-6.785-24.563-12.211L397.43 583.277 0 802.488V864c0 26.508 23.443 48 52.359 48h433.383a382.755 382.755 0 0 1-3.342-48zM1152 614.156V291.879L890.379 483.727A380.241 380.241 0 0 1 1152 614.156zM864 578.4c-157.734 0-285.6 127.869-285.6 285.6s127.866 285.6 285.6 285.6 285.6-127.869 285.6-285.6S1021.734 578.4 864 578.4zm-53.485 475.118L663.329 906.329a12 12 0 0 1 0-16.971l42.279-42.279a12 12 0 0 1 16.971 0L816 940.5l214.546-214.546a12 12 0 0 1 16.971 0l45.279 45.279a12 12 0 0 1 0 16.971l-265.311 265.311a12 12 0 0 1-16.97 0z"/></svg>