<svg xmlns="http://www.w3.org/2000/svg" width="1152" height="1152" viewBox="0 0 1152 1152"><title>EmailCancel_24</title><path d="M568.432 594.109a12.946 12.946 0 0 0 15.188 0L1152 177.3V144c0-26.508-23.443-48-52.364-48H52.364C23.443 96 0 117.492 0 144v33.3zM316.125 523.656L0 291.871v406.254l316.125-174.469zM480 864a381.831 381.831 0 0 1 49.887-188.865c-7.746-3.237-15.668-6.187-22.406-11.136L397.43 583.28 0 802.485V864c0 26.508 23.438 48 52.359 48h430.957A386.035 386.035 0 0 1 480 864zM1152 610.594V291.876L893.438 481.488A382.579 382.579 0 0 1 1152 610.594zM864 578.405c-157.734 0-285.6 127.872-285.6 285.6s127.863 285.6 285.6 285.6 285.6-127.869 285.6-285.6-127.866-285.6-285.6-285.6zm195.164 412.872a12 12 0 0 1 0 16.972l-50.918 50.912a12 12 0 0 1-16.969 0L864 931.881l-127.277 127.28a12 12 0 0 1-16.969 0l-50.918-50.912a12 12 0 0 1 0-16.972L796.125 864 668.836 736.72a12 12 0 0 1 0-16.972l50.918-50.909a12 12 0 0 1 16.969 0L864 796.116l127.277-127.277a12 12 0 0 1 16.969 0l50.918 50.909a12 12 0 0 1 0 16.972L931.875 864z"/></svg>