<svg xmlns="http://www.w3.org/2000/svg" width="1152" height="1152" viewBox="0 0 1152 1152"><title>EmailKey_24</title><path d="M316.125 571.656L0 339.871v406.254l316.125-174.469zM816 828.2c-61.781-32.531-107.578-85.143-129.469-146.971L644.578 712c-39.07 28.594-98.133 28.594-137.109 0L397.43 631.28 0 850.485V912c0 26.508 23.438 48 52.359 48H816V828.2zM960 336a314 314 0 0 1 37.617 2.517L1152 225.3V192c0-26.508-23.437-48-52.359-48H52.359C23.438 144 0 165.492 0 192v33.3l568.43 416.808a12.946 12.946 0 0 0 15.188 0l89.7-65.771C686.414 441.826 809.906 336 960 336zM1152 403.781v-63.905l-45.4 33.293a289.794 289.794 0 0 1 45.4 30.612zM1152 600c0-92.783-85.969-168-192-168s-192 75.217-192 168c0 78.19 61.336 143.323 144 162.059V1128a23.994 23.994 0 0 0 24 24h156a12 12 0 0 0 12-12v-87.32a12 12 0 0 0-12-12h-84V1008h84a12 12 0 0 0 12-12v-72a12 12 0 0 0-12-12h-84V762.059c82.664-18.736 144-83.869 144-162.059zm-192 18.566a57.6 57.6 0 1 1 57.609-57.6 57.614 57.614 0 0 1-57.609 57.6z"/></svg>