<svg xmlns="http://www.w3.org/2000/svg" data-name="S_Erase_24_N@2x" height="48" id="S_Erase_24_N_2x" viewBox="0 0 48 48" width="48"><defs><style>.cls-1{fill:#707070}</style></defs><title>S_Erase_24_N@2x</title><path class="cls-1" d="M26.851 35.422a2.472 2.472 0 0 0 3.495 0l15.038-15.038a2.472 2.472 0 0 0 0-3.5L32.176 3.681a2.458 2.458 0 0 0-3.518.024c-4.087 4.248-10.884 10.813-15.09 14.917a2.458 2.458 0 0 0-.011 3.506l.193.192-7.65 7.651a3.757 3.757 0 0 0 0 5.315l7.6 7.6A3.786 3.786 0 0 0 16.025 44H44a1 1 0 0 0 1-1v-2a1 1 0 0 0-1-1H21.889l4.77-4.77zm-11.17 4.344l-7.065-7a.2.2 0 0 1 0-.279l7.651-7.652 7.875 7.874-7.05 7.05a1 1 0 0 1-1.411.007z"/></svg>