<svg xmlns="http://www.w3.org/2000/svg" width="1152" height="1152" viewBox="0 0 1152 1152"><title>EventShare_24</title><path d="M96 96h576v321.601l37.336 37.338L768 389.871V0H0v768h192v-96H96V96z"/><path d="M384 672a48 48 0 0 1 48-48h148.488c3.938-20.517 12.6-40.087 27.223-56.329l34.641-38.42-333.868-332.426a11.738 11.738 0 0 0-8.391-3.539A12 12 0 0 0 288 205.31v642.741a12 12 0 0 0 12.094 12.023 11.738 11.738 0 0 0 8.391-3.539L384 780.832V672zM1128 720H960v96h96v240H576V816h96v-96H504a24 24 0 0 0-24 24v384a24 24 0 0 0 24 24h624a24 24 0 0 0 24-24V744a24 24 0 0 0-24-24z"/><path d="M953.329 631.952L816 480 679.011 631.952c-13.9 15.445-2.938 40.055 17.839 40.055H768v276a12 12 0 0 0 12 12h72a12 12 0 0 0 12-12v-276h71.49c20.778 0 31.738-24.607 17.839-40.055z"/></svg>