<svg xmlns="http://www.w3.org/2000/svg" width="1152" height="1152" viewBox="0 0 1152 1152"><title>EventExclude_24</title><path d="M863.982 578.405c-157.734 0-285.6 127.872-285.6 285.6s127.863 285.6 285.6 285.6 285.6-127.869 285.6-285.6-127.865-285.6-285.6-285.6zm214.2 285.6a212.605 212.605 0 0 1-39.914 123.8L740.186 689.722a212.629 212.629 0 0 1 123.8-39.914c118.297 0 214.192 95.9 214.192 214.198zm-428.391 0a212.6 212.6 0 0 1 39.914-123.8l298.078 298.087a212.629 212.629 0 0 1-123.8 39.914c-118.301.001-214.196-95.899-214.196-214.2zM96 96h576v438.586a378.736 378.736 0 0 1 96-39.53V0H0v768h192v-96H96V96z"/><path d="M656.766 543.835l-348.282-347.01a11.719 11.719 0 0 0-8.391-3.539A11.987 11.987 0 0 0 288 205.31v642.741a11.987 11.987 0 0 0 12.094 12.023 11.719 11.719 0 0 0 8.391-3.539L480 684.832l46.992.264a383.115 383.115 0 0 1 129.774-141.261z"/></svg>