<svg id="Exclude_24" xmlns="http://www.w3.org/2000/svg" width="1152" height="1152" viewBox="0 0 1152 1152"><defs><style/></defs><title>Exclude_24</title><path d="M576 98.391C312.229 98.391 98.4 312.234 98.4 576s213.829 477.609 477.6 477.609S1053.6 839.766 1053.6 576 839.771 98.391 576 98.391zM189.6 576c0-89.25 30.709-171.3 81.727-236.8L812.8 880.676C747.311 931.688 665.256 962.4 576 962.4c-213.062 0-386.4-173.33-386.4-386.4zm691.073 236.8L339.2 271.324C404.689 220.313 486.744 189.6 576 189.6c213.062 0 386.4 173.332 386.4 386.4 0 89.25-30.71 171.3-81.727 236.8z"/></svg>