<svg xmlns="http://www.w3.org/2000/svg" width="1152" height="1152" viewBox="0 0 1152 1152"><title>ExperienceAddTo_24</title><path d="M576 864H384v-96h192v-96H384v-96h576V144a48 48 0 0 0-48-48H48a48 48 0 0 0-48 48v768a48 48 0 0 0 48 48h528v-96zM96 192h768v288H96V192zm192 672H96V576h192v288z"/><path d="M1144.5 1000.5L980.667 836.667 1124 692.406a12 12 0 0 0-8.563-20.406H672v447.4a12.046 12.046 0 0 0 20.485 8.6l144.182-147.333L1000.5 1144.5a24 24 0 0 0 33.941 0l110.059-110.059a24 24 0 0 0 0-33.941z"/></svg>