<svg xmlns="http://www.w3.org/2000/svg" width="1152" height="1152" viewBox="0 0 1152 1152"><title>ExperienceAdd_24</title><path d="M482.391 866.4c0-.809.117-1.591.141-2.4H384v-96h111.68a378.427 378.427 0 0 1 40.383-96H384v-96h232.8A377.879 377.879 0 0 1 960 497.461V144a48 48 0 0 0-48-48H48a48 48 0 0 0-48 48v768a48 48 0 0 0 48 48h446.438a381.585 381.585 0 0 1-12.047-93.6zM96 192h768v288H96V192zm192 672H96V576h192v288z"/><path d="M864 578.4c-157.733 0-285.6 127.867-285.6 285.6s127.867 285.6 285.6 285.6 285.6-127.871 285.6-285.6S1021.733 578.4 864 578.4zM1056 900a12 12 0 0 1-12 12H912v132a12 12 0 0 1-12 12h-72a12 12 0 0 1-12-12V912H684a12 12 0 0 1-12-12v-72a12 12 0 0 1 12-12h132V684a12 12 0 0 1 12-12h72a12 12 0 0 1 12 12v132h132a12 12 0 0 1 12 12v72z"/></svg>