<svg xmlns="http://www.w3.org/2000/svg" data-name="S_Exposure_24_N@2x" height="48" id="S_Exposure_24_N_2x" viewBox="0 0 48 48" width="48"><defs><style>.fill{fill:#707070}</style></defs><title>S_Exposure_24_N@2x</title><path class="fill" d="M9.286 10.65A19.662 19.662 0 0 0 5.052 30h10.654zM32.1 5.855a19.7 19.7 0 0 0-19.562 1.9l3.287 9.908zM43.828 25.436c.037-.475.072-.951.072-1.436a19.839 19.839 0 0 0-8.032-15.935l-8.084 5.866zM35.007 24.032l-6.226 19.256A19.9 19.9 0 0 0 43.02 29.779zM24.386 43.88L27.58 34H6.815A19.874 19.874 0 0 0 24 43.9c.13 0 .258-.011.386-.02z"/></svg>