<svg xmlns="http://www.w3.org/2000/svg" data-name="S_ExportOriginal_24_N@2x" height="48" id="S_ExportOriginal_24_N_2x" viewBox="0 0 48 48" width="48"><defs><style>.fill{fill:#707070}</style></defs><title>S_ExportOriginal_24_N@2x</title><path class="fill" d="M20 29V19a2 2 0 0 1 2-2h14V8a2 2 0 0 0-2-2H4a2 2 0 0 0-2 2v32a2 2 0 0 0 2 2h30a2 2 0 0 0 2-2v-9H22a2 2 0 0 1-2-2z"/><path class="fill" d="M40 16.564a.5.5 0 0 1 .858-.349l6.989 7.431a.5.5 0 0 1 0 .708l-6.989 7.457a.5.5 0 0 1-.858-.349V27H25a1 1 0 0 1-1-1v-4a1 1 0 0 1 1-1h15z"/></svg>