<svg xmlns="http://www.w3.org/2000/svg" width="1152" height="1152" viewBox="0 0 1152 1152"><title>Extension_24</title><path d="M1008 288h-48V72a24 24 0 0 0-24-24h-48a24 24 0 0 0-24 24v216H672V72a24 24 0 0 0-24-24h-48a24 24 0 0 0-24 24v216h-48a48 48 0 0 0-48 48v96a48 48 0 0 0 48 48v144a144 144 0 0 0 144 144h48v96c-11.742 81.313-83.437 144-168 144s-156.258-62.687-168-144V369.161c0-86.536-61.263-165.582-147.181-175.905-79.684-9.574-148.988 36.69-175.727 104.723-4.883 12.424.37 26.559 12.635 31.829l41.25 17.723c12.76 5.482 28.681.362 33.526-12.653A72.013 72.013 0 0 1 288 360v504c12.141 134.537 126.3 240 264 240s251.859-105.463 264-240v-96h48a144 144 0 0 0 144-144V480a48 48 0 0 0 48-48v-96a48 48 0 0 0-48-48z" fill-rule="evenodd"/></svg>