<svg xmlns="http://www.w3.org/2000/svg" width="1152" height="1152" viewBox="0 0 1152 1152"><title>Eyedropper_24</title><path d="M1043.2 108.938c-55.676-55.676-112.942-57.258-163.559-6.645L730.717 252l-48.378-48.375a48.141 48.141 0 0 0-67.88 0l-98.215 98.21a48 48 0 0 0 0 67.882l10.974 10.976-274.849 274.854c-34.564 34.57-50.285 80.109-59.936 117-53.051 19.359-96.018 67.828-108.4 121.746-11.329 49.371 2.933 97.043 40.151 134.262 35.139 35.133 72.946 42.5 98.476 42.5 72.367 0 135.562-57.376 157.412-110.647l.144-.127c35.7-9.385 80.1-25.029 115.991-60.941l274.83-274.83 11.39 11.39a48 48 0 0 0 67.882 0l98.191-98.185a48.063 48.063 0 0 0-.264-68.144l-48.084-47.344L1050.4 273.574c53.169-53.168 48.482-108.961-7.2-164.636zM435.1 838.266c-18.6 18.609-43.166 29.895-80.487 39.4-16.942 4.313-40.2 16.605-54.765 50.648-11.4 26.66-45.908 56.344-77.191 56.344-13.576 0-25.8-5.625-37.386-17.2-16.081-16.078-21.653-33.691-17.033-53.824 5.947-25.9 28.406-51 53.394-59.684 27.349-9.48 46.825-29.836 53.437-55.852 9.375-36.891 20.64-63.7 38.391-81.457l274.85-274.858 121.64 121.641z"/></svg>