<svg xmlns="http://www.w3.org/2000/svg" width="1152" height="1152" viewBox="0 0 1152 1152"><title>FacebookCoverImage_24</title><path d="M466.084 838.345v-30.4a21.162 21.162 0 0 1 5.3-13.569c22.3-26.71 36.129-64.346 36.129-100.188C507.512 618.369 467.718 576 407.6 576s-101.055 44.035-101.055 118.187c0 35.842 15.565 73.476 37.86 100.185a21.167 21.167 0 0 1 5.3 13.571v30.267c0 10.066-7.259 20.128-18.026 21.074C210.876 869.9 192 953.407 192 986.338c0 3.66.426 18.056.692 21.662h430.932s.376-18 .376-21.662c0-31.56-21.337-114.762-139.949-126.934-10.728-1.104-17.967-11.015-17.967-21.059z"/><path d="M1008 144H144a48 48 0 0 0-48 48v672c0 15.073 7.383 27.961 18.234 36.762 20.414-46.362 58.266-88.421 115.125-113.73C206.488 758.916 192 686.529 192 648.838V288h768v425.7a184.461 184.461 0 0 1-99.3-66.592C819.445 592.8 762.422 528 725.156 528c-38.93 0-83.719 58.474-127.9 110.892a264.967 264.967 0 0 1 6.258 55.3 255.394 255.394 0 0 1-18.047 93.328c61.688 27.521 100.711 74.235 120 124.477H1008a48 48 0 0 0 48-48V192a48 48 0 0 0-48-48z"/></svg>