<svg xmlns="http://www.w3.org/2000/svg" width="1152" height="1152" viewBox="0 0 1152 1152"><title>Fast_24</title><path d="M887.227 364.046a150.436 150.436 0 0 0-33.445-1.345L588.7 124.646s-15.023 76 30.656 147.352c25.664 40.107 99.773 85.682 159.773 117.905-20.273 15.867-34.758 37.365-38.977 62.962a97.335 97.335 0 0 0 3.117 44.385c-34.969-40.148-104.062-108.018-188.016-131-172.8-47.3-237.593-21-283.687-16a88.429 88.429 0 1 0-69.422 45.085l-8.972 21.965C102.773 604.011 227.25 703.041 302.6 745.5c26.641 15.013 112.172 48.779 112.172 48.779l-114.584 82.966a58.778 58.778 0 0 0-18.07 76.881s102.14-61.462 209.082-126.612l144.73 62.926A68.043 68.043 0 0 0 720 864l-151.523-83.7c58.242-35.739 110.6-68.235 139.734-87.208 51.867-33.782 73.055-56.88 106.078-120.633A149.871 149.871 0 0 0 851.18 584c71.25 11.684 176.414-21.636 186.375-82.374S958.5 375.729 887.227 364.046zM492.258 738.19l-95.18-52.579c29.648-32.906 45.509-60.45 53.759-90.611 76.008 36.762 151.67 63.359 151.67 63.359z"/></svg>