<svg xmlns="http://www.w3.org/2000/svg" width="1152" height="1152" viewBox="0 0 1152 1152"><title>FeedAdd_24</title><path d="M866.4 580.792c-157.733 0-285.6 127.867-285.6 285.6S708.667 1152 866.4 1152 1152 1024.129 1152 866.4s-127.867-285.608-285.6-285.608zm192 321.6a12 12 0 0 1-12 12h-132v132a12 12 0 0 1-12 12h-72a12 12 0 0 1-12-12v-132h-132a12 12 0 0 1-12-12v-72a12 12 0 0 1 12-12h132v-132a12 12 0 0 1 12-12h72a12 12 0 0 1 12 12v132h132a12 12 0 0 1 12 12v72z"/><path d="M482.391 864H240V720h270.539a381.606 381.606 0 0 1 56.789-96H240V480h672c32.019 0 71.963 16.81 96 30.533V192a48 48 0 0 0-48-48H192a48 48 0 0 0-48 48v720a48 48 0 0 0 48 48h302.578a382.4 382.4 0 0 1-12.187-96zM240 240h672v144H240V240z"/></svg>