<svg xmlns="http://www.w3.org/2000/svg" width="1152" height="1152" viewBox="0 0 1152 1152"><title>FeedManagement_24</title><path d="M482.391 864H240V720h270.539a381.606 381.606 0 0 1 56.789-96H240V480h672c32.019 0 71.963 16.81 96 30.533V192a48 48 0 0 0-48-48H192a48 48 0 0 0-48 48v720a48 48 0 0 0 48 48h302.578a382.4 382.4 0 0 1-12.187-96zM240 240h672v144H240V240z"/><path d="M1131.5 824.371h-69.39a200.617 200.617 0 0 0-29.3-71.133l49.4-49.4a19.813 19.813 0 0 0 0-28.02l-30.033-30.033a19.815 19.815 0 0 0-28.026 0l-49.4 49.4a200.7 200.7 0 0 0-71.127-29.307V596.5a19.813 19.813 0 0 0-19.813-19.813h-39.624a19.813 19.813 0 0 0-19.814 19.813v69.382a200.7 200.7 0 0 0-71.127 29.307l-49.4-49.4a19.815 19.815 0 0 0-28.026 0l-30.033 30.033a19.813 19.813 0 0 0 0 28.02l49.4 49.4a200.617 200.617 0 0 0-29.3 71.133H596.5a19.813 19.813 0 0 0-19.813 19.813v39.629a19.816 19.816 0 0 0 19.813 19.812h69.39a200.617 200.617 0 0 0 29.3 71.133l-49.4 49.4a19.81 19.81 0 0 0 0 28.018l30.033 30.033a19.815 19.815 0 0 0 28.026 0l49.4-49.4a200.685 200.685 0 0 0 71.127 29.3v69.39a19.816 19.816 0 0 0 19.813 19.816h39.627a19.816 19.816 0 0 0 19.813-19.816v-69.39a200.685 200.685 0 0 0 71.127-29.3l49.4 49.4a19.815 19.815 0 0 0 28.026 0l30.033-30.033a19.81 19.81 0 0 0 0-28.018l-49.4-49.4a200.617 200.617 0 0 0 29.3-71.133h69.39a19.816 19.816 0 0 0 19.813-19.816v-39.629a19.813 19.813 0 0 0-19.818-19.813zM864 941.354A77.354 77.354 0 1 1 941.354 864 77.356 77.356 0 0 1 864 941.354z"/></svg>