<svg xmlns="http://www.w3.org/2000/svg" width="1152" height="1152" viewBox="0 0 1152 1152"><title>FileCode_24</title><path fill-rule="evenodd" d="M672 96v288h288L672 96z"/><path d="M624 480a48 48 0 0 1-48-48V96H240a48 48 0 0 0-48 48v864a48 48 0 0 0 48 48h672a48 48 0 0 0 48-48V480H624zM473.859 893.268a23.988 23.988 0 0 1-19.523 37.932h-48.3a24.032 24.032 0 0 1-19.219-9.6L289.641 792l97.172-129.595a24.032 24.032 0 0 1 19.219-9.6h48.3a23.988 23.988 0 0 1 19.523 37.928L401.719 792zm215.93-305.81l-116.32 403.2A24.021 24.021 0 0 1 550.406 1008H511.9a24.005 24.005 0 0 1-23.062-30.653l116.32-403.2a24.018 24.018 0 0 1 23.061-17.347h38.508a24.005 24.005 0 0 1 23.062 30.658zM796.8 921.595a23.987 23.987 0 0 1-19.2 9.6h-48.3a24 24 0 0 1-19.547-37.928L781.922 792l-72.164-101.268A24 24 0 0 1 729.3 652.8h48.3a23.987 23.987 0 0 1 19.2 9.6L894 792z" fill-rule="evenodd"/></svg>