<svg xmlns="http://www.w3.org/2000/svg" width="1152" height="1152" viewBox="0 0 1152 1152"><title>FileGlobe_24</title><path fill-rule="evenodd" d="M672 96v288h288L672 96z"/><path d="M624 934.8C624 763.148 763.148 624 934.8 624c8.508 0 16.852.6 25.2 1.274V480H624a48 48 0 0 1-48-48V96H240a48 48 0 0 0-48 48v864a48 48 0 0 0 48 48h408.539A309.65 309.65 0 0 1 624 934.8z" fill-rule="evenodd"/><path d="M857.614 953.07c33.935 50.5 85.377 128.04 58.1 197.554a94.056 94.056 0 0 1-14.244-2.258c-76.47-16.212-184.732-90.223-184.732-214.418A219.067 219.067 0 0 1 805.8 758.316c3.63 44.107-33.2 66.323-18.931 117.939 16.793 60.756 42.484 34.745 70.745 76.815zm278.657-5.093c-21.949-8.356-40.773 20.1-42.443-56.758-.453-20.794 7.75-36.6 22.716-54.519a41.978 41.978 0 0 1 9.934-4.753c-2.6-4.757-5.51-9.322-8.449-13.869-.509.265-.963.6-1.486.847-17.037 7.95-19.4 10.292-27.259 0-11.265-14.744-1.572-26.354 4.717-31.7-40.086-43.27-96.842-71.067-158.833-71.165 27.64.379 60.607 20.847 43.8 53.551 2.526-5.2-54.887-17.583-62.691-17.583-10.523 0 21.476-39.375 18.541-35.968a219.16 219.16 0 0 0-90.157 19.395c14.894 9.627 31.5 6.262 48.293 10.414 3.6.416 8.469 2.3 14.971 6.159a50.4 50.4 0 0 0-14.971-6.159c-24.777-2.872 11.989 65.114 10.6 56.069 6.783-31.239 49.233-43.292 62.229-2 1.17 3.416-2.131 18.666-11.417 30.871-19.222 25.27-23.118 70.245-32.712 58.742-89.824-36.781-79.94 11.873-50.456 44.4 47.2 52.07 23.253 5.337 85.079 32.6 49.72 21.922 109.56 27.111 94.959 43.644-44.177 50.023-34.888 83.178-113.027 141.808 6.509-.176 27.243-2.248 31.5-2.942 96.857-15.766 173.438-98.917 182.3-196.283-4.599-.028-9.809-1.47-15.738-4.801z"/></svg>