<svg xmlns="http://www.w3.org/2000/svg" width="1152" height="1152" viewBox="0 0 1152 1152"><title>FileCSV_24</title><path fill-rule="evenodd" d="M672 96v288h288L672 96z"/><path d="M624 480a48 48 0 0 1-48-48V96H240a48 48 0 0 0-48 48v864a48 48 0 0 0 48 48h672a48 48 0 0 0 48-48V480H624zM309.938 959.915A20.114 20.114 0 0 1 288 939.885v-9.246c0-8.209 4.57-17.18 12.656-18.6 39.445-6.926 86.906-35.121 86.906-72.885a120.09 120.09 0 0 1-98.109-137.221c8.016-52.251 51.516-94 104.039-100.16A120.037 120.037 0 0 1 528 720.917c0 158.317-117.516 229.907-218.062 238.998z" fill-rule="evenodd"/></svg>