<svg xmlns="http://www.w3.org/2000/svg" width="1152" height="1152" viewBox="0 0 1152 1152"><title>FileMobile_24</title><path fill-rule="evenodd" d="M384 96v288H96L384 96z"/><path d="M1008 336H720a48 48 0 0 0-48 48v624a48 48 0 0 0 48 48h288a48 48 0 0 0 48-48V384a48 48 0 0 0-48-48zm-168 48.012h48c13.255 0 24 12.171 24 24s-10.745 24-24 24h-48c-13.255 0-24-11.589-24-24s10.745-24 24-24zm23.93 650.388a50.4 50.4 0 1 1 50.4-50.4 50.4 50.4 0 0 1-50.4 50.4zM1008 912H720V480h288v432z"/><path d="M576 1008V384c0-79.406 64.594-144 144-144h144v-96a48 48 0 0 0-48-48H480v336a48 48 0 0 1-48 48H96v528a48 48 0 0 0 48 48h440.859c-5.39-15.088-8.859-31.09-8.859-48z" fill-rule="evenodd"/></svg>