<svg xmlns="http://www.w3.org/2000/svg" width="1152" height="1152" viewBox="0 0 1152 1152"><title>FileImportant_24</title><path fill-rule="evenodd" d="M672 96v288h288L672 96z"/><path d="M624 480a48 48 0 0 1-48-48V96H240a48 48 0 0 0-48 48v864a48 48 0 0 0 48 48h672a48 48 0 0 0 48-48V480H624zm-287.484-42.732c0-3.838 0-7.635 4.781-10.506 12.422-6.662 42.938-11.461 57.211-11.461 19.148 0 48.68 3.832 58.2 8.6a11.9 11.9 0 0 1 5.742 10.5v68.7c0 80.139-16.2 192.938-19.078 221.572 0 2.871-.914 5.7-6.656 5.7h-76.341c-3.8 0-5.742-1.9-6.656-5.7-1.945-26.736-17.2-138.574-17.2-218.707v-68.7zM398.508 960c-48.633 0-81.422-29.4-81.422-75.809 0-45.258 33.914-78.059 81.422-78.059 48.68 0 81.492 31.7 81.492 78.059C480 931.7 446.086 960 398.508 960z" fill-rule="evenodd"/></svg>