<svg xmlns="http://www.w3.org/2000/svg" width="1152" height="1152" viewBox="0 0 1152 1152"><title>FileChart_24</title><path fill-rule="evenodd" d="M672 96v288h288L672 96z"/><path d="M624 480a48 48 0 0 1-48-48V96H240a48 48 0 0 0-48 48v864a48 48 0 0 0 48 48h672a48 48 0 0 0 48-48V480H624zM408 960h-96a24 24 0 0 1-24-24v-48a24 24 0 0 1 24-24h96a24 24 0 0 1 24 24v48a24 24 0 0 1-24 24zm192 0h-96a24 24 0 0 1-24-24V792a24 24 0 0 1 24-24h96a24 24 0 0 1 24 24v144a24 24 0 0 1-24 24zm192 0h-96a24 24 0 0 1-24-24V648a24 24 0 0 1 24-24h96a24 24 0 0 1 24 24v288a24 24 0 0 1-24 24z" fill-rule="evenodd"/></svg>