<svg xmlns="http://www.w3.org/2000/svg" width="1152" height="1152" viewBox="0 0 1152 1152"><title>FileZip_24</title><path fill-rule="evenodd" d="M672 96v288h288L672 96z"/><g fill-rule="evenodd"><path d="M427.547 702.25a77.082 77.082 0 1 0 77.061 77.082 77.08 77.08 0 0 0-77.061-77.082z"/><path d="M624 480a48 48 0 0 1-48-48V96h-96v432a48 48 0 0 1-96 0V96H240a48 48 0 0 0-48 48v864a48 48 0 0 0 48 48h144v-48a48 48 0 0 1 96 0v48h432a48 48 0 0 0 48-48V480H624zm-48 384a48 48 0 0 1-48 48H336a48 48 0 0 1-48-48V552a23.994 23.994 0 0 1 24-24h24v48a48 48 0 0 0 48 48h96a48 48 0 0 0 48-48v-48h24a23.994 23.994 0 0 1 24 24v312z"/></g></svg>