<svg xmlns="http://www.w3.org/2000/svg" width="1152" height="1152" viewBox="0 0 1152 1152"><title>FileKey_24</title><path fill-rule="evenodd" d="M672 96v288h288L672 96z"/><g fill-rule="evenodd"><path d="M709.711 787.98a61.037 61.037 0 1 0 61.055 61.037 61.037 61.037 0 0 0-61.055-61.037z"/><path d="M624 480a48 48 0 0 1-48-48V96H240a48 48 0 0 0-48 48v864a48 48 0 0 0 48 48h672a48 48 0 0 0 48-48V480H624zm196.406 345.434a144.316 144.316 0 0 1-165.539 132.99c-61.945-8.971-112.359-59.279-121.148-121.242a147.973 147.973 0 0 1 1.57-51.6l-69.727-71.953v-64.375h-77.671a11.13 11.13 0 0 1-11.109-11.1v-77.681h-77.673A11.13 11.13 0 0 1 288 549.375V438.4a11.13 11.13 0 0 1 11.109-11.1h50.859a11.4 11.4 0 0 1 7.852 3.234l255.446 255.441a142.713 142.713 0 0 1 65.834-14.526c80.838 1.489 146.58 73.342 141.306 153.985z"/></g></svg>