<svg xmlns="http://www.w3.org/2000/svg" width="1152" height="1152" viewBox="0 0 1152 1152"><title>FileTemplate_24</title><path fill-rule="evenodd" d="M672 96v288h288L672 96z"/><path d="M624 480a48 48 0 0 1-48-48V96H240a48 48 0 0 0-48 48v864a48 48 0 0 0 48 48h672a48 48 0 0 0 48-48V480H624zM480 936a23.994 23.994 0 0 1-24 24H312a23.994 23.994 0 0 1-24-24V792a23.994 23.994 0 0 1 24-24h144a23.994 23.994 0 0 1 24 24v144zm0-288a23.994 23.994 0 0 1-24 24H312a23.994 23.994 0 0 1-24-24V504a23.994 23.994 0 0 1 24-24h144a23.994 23.994 0 0 1 24 24v144zm0-288a23.994 23.994 0 0 1-24 24H312a23.994 23.994 0 0 1-24-24V216a23.994 23.994 0 0 1 24-24h144a23.994 23.994 0 0 1 24 24v144z" fill-rule="evenodd"/></svg>