<svg xmlns="http://www.w3.org/2000/svg" width="1152" height="1152" viewBox="0 0 1152 1152"><title>FileWord_24</title><path fill-rule="evenodd" d="M672 96v288h288L672 96z"/><path d="M624 480a48 48 0 0 1-48-48V96H240a48 48 0 0 0-48 48v864a48 48 0 0 0 48 48h672a48 48 0 0 0 48-48V480H624zm102.141 467.18C721.5 959.4 712.148 959.4 709.1 959.4h-59.084c-9.891 0-13.8-5.2-16.125-9.738l-13.055-54.812c-12.82-55.137-29.086-125.3-40.594-177.076-13.453 56.625-34.055 134.549-49.1 191.408l-9.586 36.357c-2.7 12.809-13.734 13.863-17.086 13.863h-57.915c-10.219 0-14.508-7.137-16.312-10.178L336 589.424l4.383-8.221 3.633-4.266 8.367-.937h61.9c13.852 0 16.734 9.914 17.3 14.186 26.813 112.436 41.6 177.281 50.2 218.35 2.742-11.379 5.953-24.48 9.656-39.691 10.008-41.1 23.859-97.875 43.055-179.215 1.055-7.723 8.016-13.629 17.086-13.629h63.4c11.7 0 14.813 9.563 15.8 12.727l6.961 29.25c14.813 62.561 31.008 131.326 43.828 190.207 9.234-45.539 23.859-114.457 47.016-218.408C730.172 581.555 736.9 576 745.734 576h62.953l6.891 5.32c2.039 2.461 4.336 6.82 3.281 13.488z" fill-rule="evenodd"/></svg>