<svg xmlns="http://www.w3.org/2000/svg" width="1152" height="1152" viewBox="0 0 1152 1152"><title>FileXML_24</title><path fill-rule="evenodd" d="M672 96v288h288L672 96z"/><path d="M624 480a48 48 0 0 1-48-48V96H240a48 48 0 0 0-48 48v864a48 48 0 0 0 48 48h672a48 48 0 0 0 48-48V480H624zM508.969 907.283c13.336 18.715-.047 44.678-23.016 44.678h-34.547a28.217 28.217 0 0 1-22.617-11.309L314.32 787.98l114.469-152.671A28.233 28.233 0 0 1 451.406 624h34.547c22.969 0 36.352 25.969 23.016 44.684l-81.211 124.007zm312.773 40.324H765.7c-7.992 0-13.758-3.369-17.109-9.973 0 0-40.9-69.744-55.359-94.869a4652.158 4652.158 0 0 1-53.062 95.408 16.424 16.424 0 0 1-15.469 9.434h-53.342a13.81 13.81 0 0 1-11.789-21.029l85.289-139.3-83.273-137.965a13.818 13.818 0 0 1 11.814-20.959h54.844a19.458 19.458 0 0 1 16.945 9.92l52.148 92.742L746.93 638.6a19.427 19.427 0 0 1 17.109-10.248h51.82a13.808 13.808 0 0 1 11.766 21.018l-82.078 134.31 87.938 142.875a13.81 13.81 0 0 1-11.743 21.052z" fill-rule="evenodd"/></svg>