<svg xmlns="http://www.w3.org/2000/svg" width="1152" height="1152" viewBox="0 0 1152 1152"><title>FileTxt_24</title><path fill-rule="evenodd" d="M672 96v288h288L672 96z"/><path d="M624 480a48 48 0 0 1-48-48V96H240a48 48 0 0 0-48 48v864a48 48 0 0 0 48 48h672a48 48 0 0 0 48-48V480H624zm192 456a23.994 23.994 0 0 1-24 24H360a23.994 23.994 0 0 1-24-24v-48a23.994 23.994 0 0 1 24-24h432a23.994 23.994 0 0 1 24 24v48zm0-144a23.994 23.994 0 0 1-24 24H360a23.994 23.994 0 0 1-24-24v-48a23.994 23.994 0 0 1 24-24h432a23.994 23.994 0 0 1 24 24v48zm0-144a23.994 23.994 0 0 1-24 24H360a23.994 23.994 0 0 1-24-24v-48a23.994 23.994 0 0 1 24-24h432a23.994 23.994 0 0 1 24 24v48z" fill-rule="evenodd"/></svg>