<svg xmlns="http://www.w3.org/2000/svg" width="1152" height="1152" viewBox="0 0 1152 1152"><title>FileAdd_24</title><path fill-rule="evenodd" d="M480 96v288H192L480 96z"/><path d="M482.391 864c0-210.753 170.859-381.6 381.609-381.6a380.938 380.938 0 0 1 96 12.662V144a48 48 0 0 0-48-48H576v336a48 48 0 0 1-48 48H192v528a48 48 0 0 0 48 48h294.609a379.09 379.09 0 0 1-52.218-192z" fill-rule="evenodd"/><path d="M864 578.4c-157.733 0-285.6 127.867-285.6 285.6s127.867 285.6 285.6 285.6 285.6-127.871 285.6-285.6S1021.733 578.4 864 578.4zM1056 900a12 12 0 0 1-12 12H912v132a12 12 0 0 1-12 12h-72a12 12 0 0 1-12-12V912H684a12 12 0 0 1-12-12v-72a12 12 0 0 1 12-12h132V684a12 12 0 0 1 12-12h72a12 12 0 0 1 12 12v132h132a12 12 0 0 1 12 12v72z"/></svg>