<svg xmlns="http://www.w3.org/2000/svg" width="1152" height="1152" viewBox="0 0 1152 1152"><title>FilePDF_24</title><path fill-rule="evenodd" d="M672 96v288h288L672 96z"/><path d="M502.594 533.971c0-24.129-7.5-35.736-22.523-35.736-7.289 0-11.6 2.959-15.7 10.02l-.68 1.588c-12.07 20.713-2.953 75.568 21.4 136.107.675 1.827 17.737-85.805 17.503-111.979zm-8.414 171.386c-8.18 24.58-14.344 48.709-23.906 72.381-8.18 19.8-18.422 41.648-30.258 64.184 20.25-6.826 46.2-16.617 68.063-22.535 24.492-6.516 43.5-8.613 65.672-12.609-16.828-16.371-35.437-35.449-50.883-56.807a525.7 525.7 0 0 1-28.688-44.614zm-241.031 261.3c-1.359 7.277.68 13.652 6.82 19.348a19.559 19.559 0 0 0 13.664 5c26.18 0 68.039-44.613 110.6-117.674-76.452 31.869-126.092 67.146-131.085 93.325zm320.7-159.785l.68-.223c-.258.047-.492.076-.773.129-.006-.001.064.064.088.093zm138.375 2.73c-19.336-4.1-60.07-5.461-111.281 3.867 24.8 21.627 51.891 41.66 89.672 50.531a53.26 53.26 0 0 0 14.109 1.822c17.531 0 31.641-8.42 34.359-22.529 3.417-17.754-7.27-29.593-26.864-33.693zM624 480a48 48 0 0 1-48-48V96H240a48 48 0 0 0-48 48v864a48 48 0 0 0 48 48h672a48 48 0 0 0 48-48V480H624zm149.461 364.887a32.24 32.24 0 0 1-2.039 11.145C768 864.914 755.016 887.9 721.781 887.9c-26.859 0-78.07-13.881-138.844-68.965-24.562 4.324-47.555 8.42-74.859 15.709-25.266 6.6-53.508 16.611-76.945 24.809-41.883 75.563-97.2 147.715-147.258 147.715-15.7 0-23.437-3.187-32.555-12.293-8.18-8.191-12.75-22.535-10.922-33 6.609-37.781 65.555-75.34 152.953-110.168 15.938-28.676 30.047-52.8 42.8-83.3 15.234-37.1 24.8-66.92 35.508-99.24-30.729-67.825-40.526-138.835-23.459-168.202 5.7-9.785 15.492-20.256 31.2-20.941 40.289-1.359 52.125 49.395 52.125 76.711 0 36.188-11.625 79.207-27.773 128.824 9.773 17.754 23.906 43.471 35.953 60.088 16.617 23.443 33.7 38.924 51.914 55.986 31.617-5.227 56.2-7.734 81.469-7.734 45.07 0 76.711 11.379 91.969 27.768a34.665 34.665 0 0 1 8.414 22.764v.457z" fill-rule="evenodd"/></svg>