<svg xmlns="http://www.w3.org/2000/svg" width="1152" height="1152" viewBox="0 0 1152 1152"><title>FileHTML_24</title><path fill-rule="evenodd" d="M672 96v288h288L672 96z"/><path d="M624 480a48 48 0 0 1-48-48V96H240a48 48 0 0 0-48 48v864a48 48 0 0 0 48 48h672a48 48 0 0 0 48-48V480H624zM508.969 907.283c13.336 18.715-.047 44.681-23.016 44.681h-34.547a28.228 28.228 0 0 1-22.617-11.312L314.32 787.983l114.469-152.671A28.228 28.228 0 0 1 451.406 624h34.547c22.969 0 36.352 25.966 23.016 44.681l-81.211 124.007zm324.961 41.593H754.2V827.845H652.383v121.031h-79.735v-321.8h79.734V748.11H754.2V627.079h79.73v321.8z" fill-rule="evenodd"/></svg>