<svg xmlns="http://www.w3.org/2000/svg" width="1152" height="1152" viewBox="0 0 1152 1152"><title>FilingCabinet_24</title><path d="M912 144H240a48 48 0 0 0-48 48v720a48 48 0 0 0 48 48h48v72a23.994 23.994 0 0 0 24 24h48a23.994 23.994 0 0 0 24-24v-72h384v72a23.994 23.994 0 0 0 24 24h48a23.994 23.994 0 0 0 24-24v-72h48a48 48 0 0 0 48-48V192a48 48 0 0 0-48-48zm-48 720H288V576h576v288zM288 528V240h576v288H288z"/><path d="M576 336a55.2 55.2 0 1 0 55.2 55.2A55.192 55.192 0 0 0 576 336zM576 800.4a55.2 55.2 0 1 0-55.2-55.2 55.194 55.194 0 0 0 55.2 55.2z"/></svg>