<svg xmlns="http://www.w3.org/2000/svg" data-name="S_FilmrollAutoAdd_24_N@2x" height="48" id="S_FilmrollAutoAdd_24_N_2x" viewBox="0 0 48 48" width="48"><defs><style>.fill{fill:#707070}</style></defs><title>S_FilmrollAutoAdd_24_N@2x</title><rect class="fill" height="28" rx="2" ry="2" width="18" x="4" y="12"/><path class="fill" d="M30 29a5.015 5.015 0 0 1 5-5h3a2 2 0 0 0 2-2v-6a2 2 0 0 0-2-2H26v22h2a2 2 0 0 0 2-2zM18 8V5a1 1 0 0 0-1-1H9a1 1 0 0 0-1 1v3zM42 36v-5a1 1 0 0 0-1-1h-2a1 1 0 0 0-1 1v5h-5a1 1 0 0 0-1 1v2a1 1 0 0 0 1 1h5v5a1 1 0 0 0 1 1h2a1 1 0 0 0 1-1v-5h5a1 1 0 0 0 1-1v-2a1 1 0 0 0-1-1z"/></svg>