<svg xmlns="http://www.w3.org/2000/svg" width="1152" height="1152" viewBox="0 0 1152 1152"><title>Film_24</title><path d="M1008 96H144a48 48 0 0 0-48 48v864a48 48 0 0 0 48 48h864a48 48 0 0 0 48-48V144a48 48 0 0 0-48-48zM240 984a23.994 23.994 0 0 1-24 24h-48a23.994 23.994 0 0 1-24-24v-96a23.994 23.994 0 0 1 24-24h48a23.994 23.994 0 0 1 24 24v96zm0-240a23.994 23.994 0 0 1-24 24h-48a23.994 23.994 0 0 1-24-24v-96a23.994 23.994 0 0 1 24-24h48a23.994 23.994 0 0 1 24 24v96zm0-240a23.994 23.994 0 0 1-24 24h-48a23.994 23.994 0 0 1-24-24v-96a23.994 23.994 0 0 1 24-24h48a23.994 23.994 0 0 1 24 24v96zm0-240a23.994 23.994 0 0 1-24 24h-48a23.994 23.994 0 0 1-24-24v-96a23.994 23.994 0 0 1 24-24h48a23.994 23.994 0 0 1 24 24v96zm576 336a23.994 23.994 0 0 1-24 24H360a23.994 23.994 0 0 1-24-24v-48a23.994 23.994 0 0 1 24-24h432a23.994 23.994 0 0 1 24 24v48zm192 384a23.994 23.994 0 0 1-24 24h-48a23.994 23.994 0 0 1-24-24v-96a23.994 23.994 0 0 1 24-24h48a23.994 23.994 0 0 1 24 24v96zm0-240a23.994 23.994 0 0 1-24 24h-48a23.994 23.994 0 0 1-24-24v-96a23.994 23.994 0 0 1 24-24h48a23.994 23.994 0 0 1 24 24v96zm0-240a23.994 23.994 0 0 1-24 24h-48a23.994 23.994 0 0 1-24-24v-96a23.994 23.994 0 0 1 24-24h48a23.994 23.994 0 0 1 24 24v96zm0-240a23.994 23.994 0 0 1-24 24h-48a23.994 23.994 0 0 1-24-24v-96a23.994 23.994 0 0 1 24-24h48a23.994 23.994 0 0 1 24 24v96z" fill-rule="evenodd"/></svg>