<svg id="FilterCheck_24" xmlns="http://www.w3.org/2000/svg" width="1152" height="1152" viewBox="0 0 1152 1152"><defs><style/></defs><title>FilterCheck_24</title><path d="M487.2 864c0-99.776 34.776-175.736 102.369-257.646s361.343-453.038 361.343-453.038C969.6 130.359 953.262 96 923.66 96H36.686c-29.6 0-45.937 34.359-27.252 57.316l376.453 472.108v442c0 30.659 36.545 46.617 59.033 25.752l78.154-69.253C498.791 982.3 487.2 916.828 487.2 864z"/><path d="M864 578.4c-157.734 0-285.6 127.869-285.6 285.6s127.866 285.6 285.6 285.6 285.6-127.869 285.6-285.6S1021.734 578.4 864 578.4zm-53.485 475.118L663.329 906.329a12 12 0 0 1 0-16.971l42.279-42.279a12 12 0 0 1 16.971 0L816 940.5l214.546-214.546a12 12 0 0 1 16.971 0l45.279 45.279a12 12 0 0 1 0 16.971l-265.311 265.311a12 12 0 0 1-16.97 0z"/></svg>