<svg xmlns="http://www.w3.org/2000/svg" width="1152" height="1152" viewBox="0 0 1152 1152"><title>FilterStar_24</title><path d="M487.2 864c0-99.776 34.776-175.736 102.369-257.646s361.343-453.038 361.343-453.038C969.6 130.359 953.262 96 923.66 96H36.686c-29.6 0-45.937 34.359-27.252 57.316l376.453 472.108v442c0 30.659 36.545 46.617 59.033 25.752l78.154-69.253C498.791 982.3 487.2 916.828 487.2 864z"/><path d="M864 578.405c-157.734 0-285.6 127.872-285.6 285.6s127.863 285.6 285.6 285.6 285.6-127.869 285.6-285.6-127.866-285.6-285.6-285.6zm5.3 97.254l48 126.962 135.582 6.42a5.662 5.662 0 0 1 3.273 10.074L950.24 904l35.791 130.93a5.662 5.662 0 0 1-8.57 6.226L864 966.66l-113.461 74.5a5.662 5.662 0 0 1-8.57-6.226L777.76 904l-105.914-84.884a5.662 5.662 0 0 1 3.273-10.074l135.582-6.42 48-126.962a5.662 5.662 0 0 1 10.599 0z"/></svg>