<svg xmlns="http://www.w3.org/2000/svg" width="1152" height="1152" viewBox="0 0 1152 1152"><title>FilterDelete_24</title><path d="M864 578.4c-157.733 0-285.6 127.867-285.6 285.6s127.867 285.6 285.6 285.6 285.6-127.871 285.6-285.6S1021.733 578.4 864 578.4zM1056 900a12 12 0 0 1-12 12H684a12 12 0 0 1-12-12v-72a12 12 0 0 1 12-12h360a12 12 0 0 1 12 12v72z"/><path d="M487.2 864c0-99.776 34.776-175.736 102.369-257.646s361.343-453.038 361.343-453.038C969.6 130.359 953.262 96 923.66 96H36.686c-29.6 0-45.937 34.359-27.252 57.316l376.453 472.108v442c0 30.659 36.545 46.617 59.033 25.752l78.154-69.253C498.791 982.3 487.2 916.828 487.2 864z"/></svg>