<svg xmlns="http://www.w3.org/2000/svg" width="1152" height="1152" viewBox="0 0 1152 1152"><title>FilterHeart_24</title><path d="M864 578.4c-157.734 0-285.609 127.875-285.609 285.6S706.266 1149.6 864 1149.6s285.609-127.875 285.609-285.6S1021.734 578.4 864 578.4zm0 488.016S654.891 905.051 654.891 819.281a114.058 114.058 0 0 1 114.047-114.058c39.7 0 74.625 26.262 95.063 57.029 20.438-30.768 55.359-57.029 95.063-57.029a114.058 114.058 0 0 1 114.047 114.059C1073.109 905.051 864 1066.418 864 1066.418z"/><path d="M487.2 864c0-99.776 34.776-175.736 102.369-257.646s361.343-453.038 361.343-453.038C969.6 130.359 953.262 96 923.66 96H36.686c-29.6 0-45.937 34.359-27.252 57.316l376.453 472.108v442c0 30.659 36.545 46.617 59.033 25.752l78.154-69.253C498.791 982.3 487.2 916.828 487.2 864z"/></svg>