<svg xmlns="http://www.w3.org/2000/svg" width="1152" height="1152" viewBox="0 0 1152 1152"><title>FilterRemove_24</title><path d="M864 578.405c-157.734 0-285.6 127.872-285.6 285.6s127.863 285.6 285.6 285.6 285.6-127.869 285.6-285.6-127.866-285.6-285.6-285.6zm195.164 412.872a12 12 0 0 1 0 16.972l-50.918 50.912a12 12 0 0 1-16.969 0L864 931.881l-127.277 127.28a12 12 0 0 1-16.969 0l-50.918-50.912a12 12 0 0 1 0-16.972L796.125 864 668.836 736.72a12 12 0 0 1 0-16.972l50.918-50.909a12 12 0 0 1 16.969 0L864 796.116l127.277-127.277a12 12 0 0 1 16.969 0l50.918 50.909a12 12 0 0 1 0 16.972L931.875 864z"/><path d="M487.2 864c0-99.776 34.776-175.736 102.369-257.646s361.343-453.038 361.343-453.038C969.6 130.359 953.262 96 923.66 96H36.686c-29.6 0-45.937 34.359-27.252 57.316l376.453 472.108v442c0 30.659 36.545 46.617 59.033 25.752l78.154-69.253C498.791 982.3 487.2 916.828 487.2 864z"/></svg>