<svg xmlns="http://www.w3.org/2000/svg" width="1152" height="1152" viewBox="0 0 1152 1152"><title>FilterEdit_24</title><path d="M1145.124 695.194l-112.316-112.316a23.663 23.663 0 0 0-16.879-6.878l-.749.01a26.713 26.713 0 0 0-18.061 7.915l-346.7 346.7a19.433 19.433 0 0 0-4.892 8.2l-67.5 194.7c-2.219 7.335 8.945 16.572 15.255 16.572a5.346 5.346 0 0 0 1.194-.124c5.385-1.239 166.667-59.065 194.815-67.527a19.113 19.113 0 0 0 8.072-4.852l346.717-346.719a26.776 26.776 0 0 0 7.877-17.21 23.8 23.8 0 0 0-6.833-18.471zm-371.711 351.234c-42.1 12.653-108.118 41.94-144.488 52.8L681.453 954.7zM1029.237 96h-906.39c-29.6 0-45.936 34.359-27.256 57.316l386.294 472.11v321.718c0 30.661 36.547 46.618 59.036 25.754l118.31-130.672A35.147 35.147 0 0 0 670.985 816V624.64l385.508-471.324c18.68-22.957 2.346-57.316-27.256-57.316z"/></svg>