<svg xmlns="http://www.w3.org/2000/svg" width="1152" height="1152" viewBox="0 0 1152 1152"><title>FindAndReplace_24</title><path d="M1134.634 1039.266l-165.4-241.031a382.092 382.092 0 0 0 104.789-199.98c38.836-208.5-98.719-408.984-307.2-447.82-208.5-38.824-409.008 98.707-447.82 307.207a382.227 382.227 0 0 0-4.9 101.156c28.477 26.215 64.641 42.035 102.164 43.957a288 288 0 0 1-5.25-127.98c29.32-157.418 181.242-261.633 338.648-232.312 157.43 29.309 261.656 181.23 232.313 338.648-27.953 150.209-167.57 251.67-317.055 235.217a416.343 416.343 0 0 1-46.823 28.031 410.624 410.624 0 0 1-84 31.125 380.441 380.441 0 0 0 316.406 4.2l165.4 241.043a71.995 71.995 0 0 0 118.728-81.461z"/><path d="M290.673 153.738C345.048 126.352 405.7 126 459.8 146.273a446.078 446.078 0 0 1 84.891-41.555c-85.8-58.945-196.031-72.094-290.93-24.293-71.437 35.988-120.352 100.113-141.68 173.543L0 216.855l104.508 207.48 207.07-104.3-125.225-41.469c16.031-55.066 50.273-97.593 104.32-124.828zM739.831 555.63c-24.373 86.467-81.23 160.864-164.888 203C416.252 838.569 220.5 771.894 126.107 610.5l75.617-38.089c70.586 114.134 213.459 160.048 330.37 101.158 61.189-30.822 103.881-84.76 123.117-146.842l.012-.006-142.392-48.651 235.306-118.526L869.17 599.826z" fill-rule="evenodd"/></svg>