<svg xmlns="http://www.w3.org/2000/svg" data-name="S_Firefox_24_N@2x" height="48" id="S_Firefox_24_N_2x" viewBox="0 0 48 48" width="48"><defs><style>.fill{fill:#707070}</style></defs><title>S_Firefox_24_N@2x</title><path class="fill" d="M45.478 31.241c.037-.074.074-.148.111-.231a21.271 21.271 0 0 0 2.161-8.99 14.93 14.93 0 0 0-.157-2.182 11.636 11.636 0 0 0-.52-2.21l.033.132a.57.57 0 0 0-.029-.078s-.285.874-.689 2.252a24.77 24.77 0 0 0-1.031-7.106 14.819 14.819 0 0 0-1.34-2.813 8.408 8.408 0 0 0-2.095-2.573 1.754 1.754 0 0 1 .206.19c-.132-.128-.206-.19-.206-.19.033.037.066.078.1.115l-.132-.124.136.755a8.983 8.983 0 0 0-3.25-3.06s.049.3.136.916A22.306 22.306 0 0 0 6.984 8.023c-.153-.2-.3-.417-.433-.639 0-.008 0-.016-.012-.012s-.082.136-.082.136a6.77 6.77 0 0 1-.714-2.628h-.008a2.834 2.834 0 0 0-.969 1.6c-.066.22-.166.474-.166.474v-.008c0-.058.016-.363.016-.359-.074.157-.235.417-.351.68a1.84 1.84 0 0 0-.165.6s-.016-.293-.037-.243c-.285.845-.462 1.621-.466 1.633a12.57 12.57 0 0 0-.214 1.386v.025a9.95 9.95 0 0 0-.033 2.808 15.339 15.339 0 0 0-.837 1.34A23.2 23.2 0 0 0 .25 22.242l.008-.021v.029l.042-.136a.5.5 0 0 0-.033.111l.008-.025v.029c0 .008.049-.157.144-.425v-.025a17.915 17.915 0 0 1 .961-2.157c0 .008 0 .016-.008.021a.2.2 0 0 0-.012.029.2.2 0 0 0 .012-.029 26.393 26.393 0 0 0-.71 8.727c0 .012.045-.313.095-.672v-.016c.066-.474.181-1.163.355-1.971a21.182 21.182 0 0 0 2.912 9.964c1.629 2.874 5.868 9.444 16.541 11.914l-.091-.029c.029.008.058.012.087.021a5.075 5.075 0 0 1-1.9-1.043s.227.074.606.186l.021.012a22.628 22.628 0 0 0 6.268 1.014c-.012 0-.021 0-.033-.008h.033c-.911-.161-1.093-.614-1.093-.614l.272.012.008.008c1.476.045 8.471.091 12.31-3.023a4.728 4.728 0 0 0 1.782-2.367 13.66 13.66 0 0 0 1.349-.825 17.033 17.033 0 0 0 3.6-3.27 9.267 9.267 0 0 0 1.043-1.6 1.043 1.043 0 0 1-.054.091c.033-.062.066-.124.095-.186a7.828 7.828 0 0 0 .866-3.171 2.6 2.6 0 0 1-.062.4l.062-.4a3.95 3.95 0 0 1-.041.2 2.614 2.614 0 0 0-.215-1.756zM23.922 2.224a20.2 20.2 0 0 1 11.362 3.5 15.774 15.774 0 0 1 3.984 5.353 8.77 8.77 0 0 0-4.528-2.623c2.017 1.542 5.382 6.1 5.068 13a8.207 8.207 0 0 0-2.153-3.373 35.4 35.4 0 0 1 .1 8.211c-.124.7-.28 1.245-.425 1.81a7.507 7.507 0 0 0-.586-1.732 16.778 16.778 0 0 1-.421 2.342 18.906 18.906 0 0 1-.866 2.507 10.634 10.634 0 0 1-1.419 2.474c-.54.631-1.006.85-1.274.8a.341.341 0 0 1-.132-.033.263.263 0 0 1-.058-.033 2.044 2.044 0 0 0-.016-.817 4.026 4.026 0 0 0-.878.6c-.161.148-.346.305-.528.5-.664.709-1.262 1.493-1.571 1.27a1.08 1.08 0 0 0 .586-.841 5.006 5.006 0 0 1-2.4.924 10.273 10.273 0 0 1-6.623-1.192 2.842 2.842 0 0 1 1.819.107c-1.274-1.155-2.7.437-5.567-2.978a.3.3 0 0 1 .058.016 9.492 9.492 0 0 0 2.763.276 7.989 7.989 0 0 0 4.26-1.254c1.1-.771 2.664-1.926 3.386-1.8l.087.012c.87.2 1.452-.7.771-1.5a4.466 4.466 0 0 0-4.545-1.295c-1.707.437-3.163 1.848-5.559.87-.144-.058-.293-.128-.45-.206s.5.095.338 0A10.462 10.462 0 0 1 17 26.401c-.033-.025.346.074.305.045-.429-.3-2.128-1.056-2.128-2.969a3.456 3.456 0 0 1 .144-.755 1.929 1.929 0 0 1 .8-1.089 4.206 4.206 0 0 1 .524.227s-.153-.239-.247-.355a.348.348 0 0 1 .07-.021 12.389 12.389 0 0 1 1.175.478 1.489 1.489 0 0 1 .553.433s.095-.062 0-.28a1.482 1.482 0 0 0-.6-.61.031.031 0 0 0 .021 0 5.153 5.153 0 0 1 .693.346 3.273 3.273 0 0 0 .128-1.443 2.476 2.476 0 0 0-.181-.775c-.074-.161.029-.214.181-.082-.016-.054-.037-.1-.058-.157a.9.9 0 0 1-.058-.169c.709-.883 3.538-2.235 4.169-2.92a3.745 3.745 0 0 0 .874-1.159c.173-.412.355-1.4-.19-1.6a23.277 23.277 0 0 0-3.823-.214 2.738 2.738 0 0 1-2.433-1.9v.008s0-.012-.008-.016a8.091 8.091 0 0 1 2.672-4.182c.082-.07-.326.049-.247-.029a7.913 7.913 0 0 1 .775-.433c.14-.082-.627-.293-1.283-.153a3.169 3.169 0 0 0-1.126.4c.136-.148.586-.379.474-.355A6.931 6.931 0 0 0 15.9 7.843a.965.965 0 0 1 0-.233 3.854 3.854 0 0 0-1.36 1.324 2.223 2.223 0 0 0-.012-.28 4.835 4.835 0 0 0-.66.767l-.008.012a10.924 10.924 0 0 0-2.96-.346 13.9 13.9 0 0 0-2.544.392 20.472 20.472 0 0 1 15.566-7.255z"/></svg>