<svg xmlns="http://www.w3.org/2000/svg" width="1152" height="1152" viewBox="0 0 1152 1152"><title>FlagExclude_24</title><path d="M168 96h-48a23.994 23.994 0 0 0-24 24v912a23.994 23.994 0 0 0 24 24h48a23.994 23.994 0 0 0 24-24V120a23.994 23.994 0 0 0-24-24zM579.539 610.254C649.43 531.973 750.8 482.4 864 482.4a379.24 379.24 0 0 1 192 52.2V273.445c0-15.586-10.406-29.625-25.547-33.293a612.113 612.113 0 0 0-144.445-17.215 595.668 595.668 0 0 0-129.094 14.25c-21.141 4.664-40.922-12.41-40.922-34.043V152.5c0-15.574-10.406-29.613-25.547-33.281A611.355 611.355 0 0 0 546 102c-112.523 0-217.2 41.684-306 94.031V672c88.758-52.5 193.594-94.055 306.281-94 17.86 0 32.039 14.828 33.258 32.254z"/><path d="M864 578.405c-157.734 0-285.6 127.872-285.6 285.6s127.863 285.6 285.6 285.6 285.6-127.869 285.6-285.6-127.866-285.6-285.6-285.6zm214.2 285.6a212.605 212.605 0 0 1-39.914 123.8L740.2 689.722A212.629 212.629 0 0 1 864 649.808c118.3 0 214.2 95.9 214.2 214.198zm-428.391 0a212.6 212.6 0 0 1 39.914-123.8L987.8 1038.293a212.629 212.629 0 0 1-123.8 39.914c-118.3 0-214.2-95.9-214.2-214.201z"/></svg>