<svg xmlns="http://www.w3.org/2000/svg" data-name="S_FlashOff_24_N@2x" height="48" id="S_FlashOff_24_N_2x" viewBox="0 0 48 48" width="48"><defs><style>.fill{fill:#707070}</style></defs><title>S_FlashOff_24_N@2x</title><path class="fill" d="M31.992 24.921l4.571-5.266A1 1 0 0 0 35.807 18H25.07zM24.828 17.758L34.3 3.555A1 1 0 0 0 33.465 2H17.387a1 1 0 0 0-.949.684L14.768 7.7zM19.223 26.293l-7.88 20.937a.5.5 0 0 0 .845.5l13.233-15.239zM11.232 18.3l-2.127 6.384A1 1 0 0 0 10.054 26h8.876z"/><rect class="fill" height="56" rx=".5" ry=".5" transform="rotate(-45 24 24)" width="4" x="22" y="-4"/></svg>