<svg xmlns="http://www.w3.org/2000/svg" width="1152" height="1152" viewBox="0 0 1152 1152"><title>Flashlight_24</title><path d="M895.642 592.386l194.3-194.333a48 48 0 0 0 0-67.882l-268.1-268.1a48.007 48.007 0 0 0-67.9-.017L559.629 256.372a23.991 23.991 0 0 0-6.861 14.253l-16.208 141.2L82.323 866.061a54.337 54.337 0 0 0-.008 76.84l126.8 126.8a54.342 54.342 0 0 0 76.856.008l454.21-454.245 141.225-16.2a24.109 24.109 0 0 0 14.236-6.878zm-339.505 3.474a81.6 81.6 0 1 1 115.4 0 81.614 81.614 0 0 1-115.4 0z"/></svg>