<svg xmlns="http://www.w3.org/2000/svg" data-name="S_FlipVertical_24_N@2x" height="48" id="S_FlipVertical_24_N_2x" viewBox="0 0 48 48" width="48"><defs><style>.fill{fill:#707070}</style></defs><title>S_FlipVertical_24_N@2x</title><path class="fill" d="M2 22h4v4H2zM10 22h4v4h-4zM18 22h4v4h-4zM26 22h4v4h-4zM34 22h4v4h-4zM42 22h4v4h-4zM9.257 44h29.486a1 1 0 0 0 .669-1.743L24.669 28.988a1 1 0 0 0-1.338 0L8.588 42.257A1 1 0 0 0 9.257 44zM31.968 7.6L24 14.771 16.032 7.6zM38.743 4H9.257a1 1 0 0 0-.669 1.743l14.743 13.269a1 1 0 0 0 1.338 0L39.412 5.743A1 1 0 0 0 38.743 4z"/></svg>