<svg xmlns="http://www.w3.org/2000/svg" data-name="S_FlipHorizontal_24_N@2x" height="48" id="S_FlipHorizontal_24_N_2x" viewBox="0 0 48 48" width="48"><defs><style>.fill{fill:#707070}</style></defs><title>S_FlipHorizontal_24_N@2x</title><path class="fill" d="M22 42h4v4h-4zM22 34h4v4h-4zM22 26h4v4h-4zM22 18h4v4h-4zM22 10h4v4h-4zM22 2h4v4h-4zM44 38.743V9.257a1 1 0 0 0-1.743-.669L28.988 23.331a1 1 0 0 0 0 1.338l13.269 14.743A1 1 0 0 0 44 38.743zM7.6 16.033L14.771 24 7.6 31.967zM5.008 8.255A1 1 0 0 0 4 9.257v29.486a1 1 0 0 0 1.008 1 .977.977 0 0 0 .735-.333l13.269-14.741a1 1 0 0 0 0-1.338L5.743 8.588a.977.977 0 0 0-.735-.333z"/></svg>