<svg xmlns="http://www.w3.org/2000/svg" width="1152" height="1152" viewBox="0 0 1152 1152"><title>FolderRemove_24</title><path d="M434.4 115.2A48 48 0 0 0 396 96H144a48 48 0 0 0-48 48v96h432zM482.391 866.4c0-210.762 170.859-381.6 381.609-381.6a379.751 379.751 0 0 1 192 51.773V384a48 48 0 0 0-48-48H96v624a48 48 0 0 0 48 48h365.555a380.547 380.547 0 0 1-27.164-141.6z"/><path d="M866.4 580.8c-157.734 0-285.6 127.872-285.6 285.6S708.668 1152 866.4 1152 1152 1024.131 1152 866.4s-127.863-285.6-285.6-285.6zm195.164 412.872a12 12 0 0 1 0 16.972l-50.918 50.912a12 12 0 0 1-16.969 0L866.4 934.274l-127.277 127.28a12 12 0 0 1-16.969 0l-50.918-50.912a12 12 0 0 1 0-16.972l127.291-127.276-127.289-127.281a12 12 0 0 1 0-16.972l50.918-50.909a12 12 0 0 1 16.969 0L866.4 798.51l127.28-127.278a12 12 0 0 1 16.969 0l50.918 50.909a12 12 0 0 1 0 16.972l-127.29 127.281z"/></svg>