<svg xmlns="http://www.w3.org/2000/svg" width="1152" height="1152" viewBox="0 0 1152 1152"><title>FolderDelete_24</title><path d="M434.4 115.2A48 48 0 0 0 396 96H144a48 48 0 0 0-48 48v96h432zM482.391 864c0-210.75 170.859-381.6 381.609-381.6a379.24 379.24 0 0 1 192 52.2V384a48 48 0 0 0-48-48H96v624a48 48 0 0 0 48 48h366.727a380.232 380.232 0 0 1-28.336-144z"/><path d="M864 578.4c-157.733 0-285.6 127.867-285.6 285.6s127.867 285.6 285.6 285.6 285.6-127.871 285.6-285.6S1021.733 578.4 864 578.4zM1056 900a12 12 0 0 1-12 12H684a12 12 0 0 1-12-12v-72a12 12 0 0 1 12-12h360a12 12 0 0 1 12 12v72z"/></svg>