<svg xmlns="http://www.w3.org/2000/svg" width="1152" height="1152" viewBox="0 0 1152 1152"><title>FolderGear_24</title><path d="M434.4 115.2A48 48 0 0 0 396 96H144a48 48 0 0 0-48 48v96h432zM484.8 864c0-210.75 170.836-381.6 381.586-381.6A379.466 379.466 0 0 1 1056 533.133V384a48 48 0 0 0-48-48H96v624a48 48 0 0 0 48 48h369.117A380.218 380.218 0 0 1 484.8 864z"/><path d="M1132.187 825.056H1062.8a200.617 200.617 0 0 0-29.3-71.133l49.4-49.4a19.813 19.813 0 0 0 0-28.02l-30.033-30.033a19.815 19.815 0 0 0-28.026 0l-49.4 49.4a200.7 200.7 0 0 0-71.127-29.307v-69.378a19.813 19.813 0 0 0-19.814-19.814h-39.628a19.813 19.813 0 0 0-19.813 19.813v69.382a200.7 200.7 0 0 0-71.127 29.307l-49.4-49.4a19.815 19.815 0 0 0-28.026 0L646.47 676.5a19.813 19.813 0 0 0 0 28.02l49.4 49.4a200.617 200.617 0 0 0-29.3 71.133h-69.39a19.813 19.813 0 0 0-19.813 19.813V884.5a19.816 19.816 0 0 0 19.813 19.816h69.39a200.617 200.617 0 0 0 29.3 71.133l-49.4 49.4a19.81 19.81 0 0 0 0 28.018l30.03 30.033a19.815 19.815 0 0 0 28.026 0l49.4-49.4a200.685 200.685 0 0 0 71.127 29.3v69.39a19.816 19.816 0 0 0 19.819 19.81H884.5a19.816 19.816 0 0 0 19.813-19.816v-69.39a200.685 200.685 0 0 0 71.127-29.3l49.4 49.4a19.815 19.815 0 0 0 28.026 0l30.033-30.033a19.81 19.81 0 0 0 0-28.018l-49.4-49.4a200.617 200.617 0 0 0 29.3-71.133h69.39A19.816 19.816 0 0 0 1152 884.5v-39.63a19.813 19.813 0 0 0-19.813-19.814zM864.686 942.04a77.354 77.354 0 1 1 77.354-77.354 77.356 77.356 0 0 1-77.354 77.354z"/></svg>