<svg xmlns="http://www.w3.org/2000/svg" width="1152" height="1152" viewBox="0 0 1152 1152"><title>FolderLocked_24</title><path d="M434.4 115.2A48 48 0 0 0 396 96H144a48 48 0 0 0-48 48v96h432zM480 792a119.985 119.985 0 0 1 48.891-96.609C541.547 521.578 687 384 864 384a333.653 333.653 0 0 1 192 60.832V384a48 48 0 0 0-48-48H96v624a48 48 0 0 0 48 48h336V792z"/><path d="M1104 768v-38.62c0-124.466-100.925-241.461-225.167-248.932C739.563 472.071 624 582.537 624 720v48a48 48 0 0 0-48 48v288a48 48 0 0 0 48 48h480a48 48 0 0 0 48-48V816a48 48 0 0 0-48-48zm-384-48a144 144 0 0 1 288 0v48H720v-48zm192 245.32V1032a24 24 0 0 1-24 24h-48a24 24 0 0 1-24-24v-66.68a72 72 0 1 1 96 0z"/></svg>