<svg xmlns="http://www.w3.org/2000/svg" width="1152" height="1152" viewBox="0 0 1152 1152"><title>FolderAddTo_24</title><path d="M434.4 115.2A48 48 0 0 0 396 96H144a48 48 0 0 0-48 48v96h432zM326.578 877.359l303.938-315c26.109-26.156 58.922-39.75 93.7-39.75 72.188 0 130.922 58.641 130.922 130.781v1.594c80.742 15.656 146.836 48.41 200.859 90V384a48 48 0 0 0-48-48H96v624a48 48 0 0 0 48 48h308.648z"/><path d="M744.727 755.167V653.389c0-18.141-21.935-27.224-34.761-14.4L480 877.349l229.966 238.358c12.827 12.827 34.761 3.744 34.761-14.4V998c220.281-37.078 337.392 88.629 381.321 148.213 8.064 10.928 25.952 5.389 25.952-8.332 0-61.45-70.159-382.714-407.273-382.714z"/></svg>