<svg xmlns="http://www.w3.org/2000/svg" width="1152" height="1152" viewBox="0 0 1152 1152"><title>FolderLockedAdobe_24</title><path d="M434.4 115.2A48 48 0 0 0 396 96H144a48 48 0 0 0-48 48v96h432zM1128 192h-24v-48a96 96 0 0 0-192 0v48h-24a23.994 23.994 0 0 0-24 24v144a23.994 23.994 0 0 0 24 24h240a23.994 23.994 0 0 0 24-24V216a23.994 23.994 0 0 0-24-24zm-168 0v-48a48 48 0 0 1 96 0v48h-96zM624 623.625v526.992l195.328-526.992H624z"/><path d="M1056 432H816v-96H96v624a48 48 0 0 0 48 48h384V527.625h528V432zM802.734 1050.551h91.008l37.196 100.043h81.515L888.07 806.965l-85.336 243.586zM1152 1150.617V623.625H956.836L1152 1150.617z"/></svg>