<svg xmlns="http://www.w3.org/2000/svg" width="1152" height="1152" viewBox="0 0 1152 1152"><title>FolderArchive_24</title><path d="M434.4 115.2A48 48 0 0 0 396 96H144a48 48 0 0 0-48 48v96h432zM576 887.953A119.985 119.985 0 0 1 528 792v-48a120.111 120.111 0 0 1 120-120h408V384a48 48 0 0 0-48-48H96v624a48 48 0 0 0 48 48h432V887.953z"/><path d="M1128 816H648a24 24 0 0 1-24-24v-48a24 24 0 0 1 24-24h480a24 24 0 0 1 24 24v48a24 24 0 0 1-24 24zm-24 48v264a24 24 0 0 1-24 24H696a24 24 0 0 1-24-24V864h432zm-144 144v-24a24 24 0 0 0-24-24h-96a24 24 0 0 0-24 24v24a24 24 0 0 0 24 24h96a24 24 0 0 0 24-24z"/></svg>