<svg xmlns="http://www.w3.org/2000/svg" width="1152" height="1152" viewBox="0 0 1152 1152"><title>FolderSearch_24</title><path d="M434.4 115.2A48 48 0 0 0 396 96H144a48 48 0 0 0-48 48v96h432zM422.813 762.75c0-185.25 150.75-336 336-336 128.742 0 240.8 72.82 297.188 179.4V384a48 48 0 0 0-48-48H96v624a48 48 0 0 0 48 48h385.406c-65.554-61.359-106.593-148.594-106.593-245.25z"/><path d="M1135.551 1058.022L963.683 886.155c21.832-36.164 35.133-78.076 35.133-123.4 0-132.551-107.449-240-240-240s-240 107.449-240 240 107.449 240 240 240c45.328 0 87.234-13.3 123.4-35.133l171.867 171.867c11.25 11.25 60.111 21.358 81.469 0s22.499-58.967-.001-81.467zm-525.54-295.265a148.8 148.8 0 1 1 148.8 148.793 148.8 148.8 0 0 1-148.8-148.793z"/></svg>