<svg xmlns="http://www.w3.org/2000/svg" width="1152" height="1152" viewBox="0 0 1152 1152"><title>Follow_24</title><path d="M519.785 895.8l-22.242 2.883a85.158 85.158 0 0 1-95.4-73.507l-8.913-79.921 191.146-24.774 8.913 79.921a85.158 85.158 0 0 1-73.504 95.398zM456.923 87.246c-49.141-57.287-104.1-62.692-142.927 57.8C256.508 400.212 301.081 503.2 382.124 670.7l191.146-24.775c-20.505-158.215 18.879-229.243 10.63-292.913-15.46-119.258-79.034-209.877-126.977-265.766zM733.464 1099.069l22.116 3.731a85.158 85.158 0 0 0 98.138-69.805l11.83-78.008-190.06-32.065-11.83 78.008a85.158 85.158 0 0 0 69.806 98.139zm93.73-805.563c51.3-55.366 106.422-58.666 140.612 63.223 47.692 257.176-.787 358.384-88.175 522.663l-190.059-32.063c26.54-157.315-10.1-229.8.581-293.1 20.004-118.585 86.996-206.708 137.041-260.723z"/></svg>