<svg xmlns="http://www.w3.org/2000/svg" width="1152" height="1152" viewBox="0 0 1152 1152"><title>FollowOff_24</title><path d="M279.785 895.8l-22.242 2.883a85.158 85.158 0 0 1-95.4-73.507l-8.913-79.921 191.146-24.774 8.913 79.921a85.158 85.158 0 0 1-73.504 95.398zM216.923 87.246C167.782 29.959 112.822 24.554 74 145.047 16.508 400.212 61.081 503.2 142.124 670.7l191.146-24.775c-20.505-158.215 18.879-229.243 10.63-292.913-15.46-119.258-79.034-209.877-126.977-265.766zM449.578 847.324l33.094 5.59c5.672-163.594 114.3-300.984 263.133-349.43-1.922-43.137-7.711-91.312-18-146.754-34.2-121.887-89.32-118.594-140.6-63.223-50.064 54.013-117.049 142.138-137.064 260.72-10.664 63.304 25.968 135.785-.563 293.097zM487.992 931.781l-52.5-8.859-11.836 78.012a85.155 85.155 0 0 0 69.8 98.133l22.125 3.738a84.85 84.85 0 0 0 45.234-4.687 380.035 380.035 0 0 1-72.823-166.337zM866.4 580.8c-157.734 0-285.6 127.872-285.6 285.6S708.668 1152 866.4 1152 1152 1024.131 1152 866.4s-127.863-285.6-285.6-285.6zm214.2 285.6a212.605 212.605 0 0 1-39.914 123.8L742.605 692.115A212.629 212.629 0 0 1 866.4 652.2c118.3 0 214.2 95.9 214.2 214.2zm-428.391 0a212.6 212.6 0 0 1 39.914-123.8L990.2 1040.687a212.629 212.629 0 0 1-123.8 39.913c-118.3 0-214.193-95.9-214.193-214.2z"/></svg>