<svg xmlns="http://www.w3.org/2000/svg" width="1152" height="1152" viewBox="0 0 1152 1152"><title>Forecast_24</title><path d="M846.356 1008H305.644a48 48 0 0 1-45.74-62.554L301.091 816h549.818L892.1 945.446A48 48 0 0 1 846.356 1008zM1152 292.083l-42.8 50.856a54.158 54.158 0 0 0-9.895 52.139l21.191 63-50.856-42.8a54.158 54.158 0 0 0-52.139-9.895l-63 21.191 42.8-50.856a54.158 54.158 0 0 0 9.895-52.139l-21.191-63 50.856 42.8a54.158 54.158 0 0 0 52.139 9.895zM926.352 74.219l-55.12 65.5a69.749 69.749 0 0 0-12.743 67.148L885.781 288l-65.5-55.12a69.749 69.749 0 0 0-67.148-12.743L672 247.429l55.12-65.5a69.749 69.749 0 0 0 12.743-67.148l-27.292-81.133 65.5 55.12a69.749 69.749 0 0 0 67.148 12.743z"/><path d="M912 528a335.642 335.642 0 0 0-32.25-143.836s-2.65-3.164-10.57-1.617a95.877 95.877 0 0 1-45.164-21.094l-54.281-45.609-67.125 22.547A95.99 95.99 0 0 1 593.3 192.434q-8.578-.439-17.3-.434c-185.578 0-336 150.434-336 336a335.016 335.016 0 0 0 100.875 240h470.25A334.975 334.975 0 0 0 912 528.035V528z"/></svg>