<svg xmlns="http://www.w3.org/2000/svg" width="1152" height="1152" viewBox="0 0 1152 1152"><title>ForPlacementOnly_24</title><path d="M520.5 471.656c-9.7 0-18.469.188-24.937.469v99.75c4.641.094 18.891.094 19.359.094 65.625 0 65.625-38.719 65.625-51.422 0-42.563-37.641-48.891-60.047-48.891zM835.359 468.609c-47.156 0-75.281 40.313-75.281 107.859 0 52.875 20.438 109.359 77.813 109.359 46.5 0 74.25-40.875 74.25-109.359-.469-67.499-29.203-107.859-76.782-107.859z"/><path d="M576 96C310.9 96 96 310.9 96 576s214.9 480 480 480 480-214.9 480-480S841.1 96 576 96zM389.578 469.875c-2.437 2.906-5.953 4.359-10.5 4.359H253.453l.047 70.781h111.844c8.109 0 13.172 5.063 13.172 13.172v45.75a12.73 12.73 0 0 1-13.172 13.172H253.5v122.11c0 8.3-5.391 13.641-13.734 13.641h-51.8c-6.328 0-12.7-4.687-12.7-13.641V414.8c0-7.875 5.3-13.172 13.172-13.172h185.015c7.734 0 12.891 4.453 14.063 12.234l5.109 49.828zm125.344 173.672c-7.875 0-19.359-.328-19.359-.328v96.469c0 7.875-5.3 13.172-13.172 13.172h-51.328c-7.875 0-13.172-5.3-13.172-13.172v-323.86c0-10.078 6.844-13.687 12.656-13.687l5.391-.141c20.016-.562 51.469-1.406 82.547-1.406 103.031 0 139.734 61.453 139.734 118.922 0 76.5-54.938 124.031-143.297 124.031zm320.953 113.859h-.094c-94.734 0-155.953-71.016-155.953-180.937 0-105.656 64.359-179.437 156.516-179.437 92.766 0 155.484 71.484 156.047 177.844 0 110.905-61.453 182.53-156.516 182.53z"/></svg>