<svg xmlns="http://www.w3.org/2000/svg" data-name="S_FullScreenExit_24_N@2x" height="48" id="S_FullScreenExit_24_N_2x" viewBox="0 0 48 48" width="48"><defs><style>.fill{fill:#707070}</style></defs><title>S_FullScreenExit_24_N@2x</title><rect class="fill" height="24" rx="2" ry="2" width="28" x="10" y="12"/><path class="fill" d="M6 2.5V8H.5a.5.5 0 0 0-.5.5v3a.5.5 0 0 0 .5.5H10V2.5a.5.5 0 0 0-.5-.5h-3a.5.5 0 0 0-.5.5zM42 8V2.5a.5.5 0 0 0-.5-.5h-3a.5.5 0 0 0-.5.5V12h9.5a.5.5 0 0 0 .5-.5v-3a.5.5 0 0 0-.5-.5zM0 36.5v3a.5.5 0 0 0 .5.5H6v5.5a.5.5 0 0 0 .5.5h3a.5.5 0 0 0 .5-.5V36H.5a.5.5 0 0 0-.5.5zM42 40h5.5a.5.5 0 0 0 .5-.5v-3a.5.5 0 0 0-.5-.5H38v9.5a.5.5 0 0 0 .5.5h3a.5.5 0 0 0 .5-.5z"/></svg>