<svg xmlns="http://www.w3.org/2000/svg" width="1152" height="1152" viewBox="0 0 1152 1152"><title>Game_24</title><path d="M1062.941 972.261c48.3 0 89.06-44.906 89.06-99.083a111.433 111.433 0 0 0-4.754-32.017l-82.716-276.31c-56.419-188.56-214.9-352.9-393.384-352.9H480.853c-178.481 0-336.965 164.342-393.384 352.9L4.754 841.162A111.432 111.432 0 0 0 0 873.178c0 54.177 40.757 99.083 89.059 99.083a82.094 82.094 0 0 0 31.766-6.538l52.678-42.3C293.667 826.9 434.834 778.643 576 778.643S858.333 826.9 978.5 923.42l52.678 42.3a82.094 82.094 0 0 0 31.763 6.541zM494.593 596.279a172.75 172.75 0 1 1-143.386-197.817 172.751 172.751 0 0 1 143.386 197.817zM772.82 576.01A100.805 100.805 0 1 1 873.6 475.2a100.8 100.8 0 0 1-100.78 100.81zm144 201.6a100.805 100.805 0 1 1 100.78-100.805A100.8 100.8 0 0 1 916.82 777.61z"/><circle cx="324" cy="569.063" r="96"/></svg>