<svg xmlns="http://www.w3.org/2000/svg" width="1152" height="1152" viewBox="0 0 1152 1152"><title>Gauge3_24</title><path d="M96 673.055a473.681 473.681 0 0 0 44.109 199.629c6.867 14.836 26.859 17.716 38.414 6.158l36.727-36.721a23.777 23.777 0 0 0 4.969-25.9c-42.187-103.934-39.492-225.27 24.586-334.975A391.287 391.287 0 0 1 425.484 320.6l3.094-40.1c2.063-26.4 11.484-50.558 25.594-71.224C248.2 263.273 96 450.132 96 673.055zm953.7-77.968c-30.188-187.107-172.148-338.988-352.148-386.3 14.273 20.742 23.789 45.047 25.875 71.6l3.047 39.516C863.6 378.554 960 514.711 960 673.055a380.845 380.845 0 0 1-28.219 143.191 23.669 23.669 0 0 0 4.969 25.854l36.7 36.721c11.578 11.563 31.57 8.681 38.438-6.158 38.206-82.485 53.979-177.337 37.812-277.576zM576 198.494a37.8 37.8 0 0 0-37.687 34.9l-50.95 534.89A88.9 88.9 0 0 0 576 864a88.9 88.9 0 0 0 88.637-95.717l-50.95-534.89A37.8 37.8 0 0 0 576 198.494z"/></svg>