<svg xmlns="http://www.w3.org/2000/svg" width="1152" height="1152" viewBox="0 0 1152 1152"><title>Gauge4_24</title><path d="M952.617 601.207l67.734-82.093c2.508-3.056 4.266-6.472 6.492-9.674a473.729 473.729 0 0 1-14.953 363.243c-6.867 14.836-26.859 17.716-38.414 6.158l-36.726-36.72a23.777 23.777 0 0 1-4.969-25.9 376.355 376.355 0 0 0 20.836-215.014zM773.555 345.234c-43.969-27.023-92.977-45.712-144.914-52.655C393.586 261.158 192 444.009 192 673.055a380.845 380.845 0 0 0 28.219 143.191 23.669 23.669 0 0 1-4.969 25.854l-36.7 36.721c-11.578 11.563-31.57 8.681-38.437-6.158-38.2-82.488-53.977-177.34-37.8-277.579 34.031-210.908 209.977-377.37 422.461-399.375 120.883-12.517 233.791 19.931 324.2 82.572zM950.933 357.192a40.431 40.431 0 0 1 4.239 54.778L640.093 827.745a88.9 88.9 0 0 1-130.066 10.065 88.9 88.9 0 0 1-.06-130.454l386.024-350.138a40.431 40.431 0 0 1 54.942-.026z"/></svg>