<svg xmlns="http://www.w3.org/2000/svg" width="1152" height="1152" viewBox="0 0 1152 1152"><title>Gauge1_24</title><path d="M68.891 822.966a40.431 40.431 0 0 0 40.982 36.593l474.455 4a88.9 88.9 0 0 0 86.887-97.309 88.9 88.9 0 0 0-103.686-79.168L102.233 779.3a40.431 40.431 0 0 0-33.342 43.666z"/><path d="M1049.67 593.875c-34.229-211.737-211.478-378.437-424.93-399.47-280.028-27.593-516.216 185.868-527.476 457.456-.635 15.312 13.9 27.1 28.942 24.148l48.613-9.556a23.882 23.882 0 0 0 19.081-21.976c6.074-80.8 36.734-162.722 104.075-235.779 50.91-55.231 118.143-95.071 191.508-111.19C738.708 242.751 960 432.02 960 672a380.8 380.8 0 0 1-28.214 143.175 23.713 23.713 0 0 0 4.965 25.874l36.7 36.721c11.557 11.563 31.56 8.687 38.431-6.148 38.23-82.534 54.002-177.445 37.788-277.747z"/></svg>