<svg xmlns="http://www.w3.org/2000/svg" width="1152" height="1152" viewBox="0 0 1152 1152"><title>Gauge2_24</title><path d="M199.383 601.207l-67.734-82.093c-2.508-3.056-4.266-6.472-6.492-9.674a473.729 473.729 0 0 0 14.953 363.243c6.867 14.836 26.859 17.716 38.414 6.158l36.727-36.721a23.777 23.777 0 0 0 4.969-25.9 376.355 376.355 0 0 1-20.837-215.013zm179.062-255.973c43.969-27.023 92.977-45.712 144.914-52.655C758.414 261.158 960 444.009 960 673.055a380.845 380.845 0 0 1-28.219 143.191 23.669 23.669 0 0 0 4.969 25.854l36.7 36.721c11.578 11.563 31.57 8.681 38.438-6.158 38.2-82.488 53.977-177.34 37.8-277.579-34.031-210.908-209.977-377.37-422.461-399.375-120.883-12.517-233.791 19.931-324.2 82.572zM201.067 357.192a40.431 40.431 0 0 0-4.239 54.778l315.079 415.775a88.9 88.9 0 0 0 130.066 10.065 88.9 88.9 0 0 0 .06-130.454L256.009 357.218a40.431 40.431 0 0 0-54.942-.026z"/></svg>