<svg id="Gear_24" xmlns="http://www.w3.org/2000/svg" width="1152" height="1152" viewBox="0 0 1152 1152"><defs><style/></defs><title>Gear_24</title><path d="M1008 496.8h-71.842a11.686 11.686 0 0 1-11.317-8.967 357.166 357.166 0 0 0-39.927-96.1 11.646 11.646 0 0 1 1.686-14.329l50.872-50.873a48 48 0 0 0 0-67.882l-44.122-44.126a48 48 0 0 0-67.879 0L774.589 265.4a11.648 11.648 0 0 1-14.33 1.685 356.886 356.886 0 0 0-96.089-39.921 11.686 11.686 0 0 1-8.968-11.317V144a48 48 0 0 0-48-48H544.8a48 48 0 0 0-48 48v71.845a11.686 11.686 0 0 1-8.968 11.317 356.886 356.886 0 0 0-96.089 39.921 11.648 11.648 0 0 1-14.33-1.685l-50.881-50.878a48 48 0 0 0-67.879 0l-44.127 44.13a48 48 0 0 0 0 67.882l50.874 50.873a11.646 11.646 0 0 1 1.686 14.329 357.166 357.166 0 0 0-39.927 96.1 11.686 11.686 0 0 1-11.317 8.967H144a48 48 0 0 0-48 48v62.4a48 48 0 0 0 48 48h71.841a11.686 11.686 0 0 1 11.317 8.967 357.169 357.169 0 0 0 39.93 96.1 11.648 11.648 0 0 1-1.686 14.33l-50.874 50.874a48 48 0 0 0 0 67.876l44.124 44.127a48 48 0 0 0 67.885 0l50.874-50.87a11.648 11.648 0 0 1 14.328-1.687 357.159 357.159 0 0 0 96.093 39.921 11.686 11.686 0 0 1 8.969 11.317V1008a48 48 0 0 0 48 48h62.4a48 48 0 0 0 48-48v-71.846a11.686 11.686 0 0 1 8.969-11.317 357.159 357.159 0 0 0 96.093-39.921 11.648 11.648 0 0 1 14.328 1.687l50.874 50.87a48 48 0 0 0 67.885 0l44.124-44.127a48 48 0 0 0 0-67.876L886.6 774.594a11.648 11.648 0 0 1-1.686-14.33 357.169 357.169 0 0 0 39.93-96.1 11.686 11.686 0 0 1 11.317-8.967H1008a48 48 0 0 0 48-48V544.8a48 48 0 0 0-48-48zM576 756a180 180 0 1 1 180-180 180 180 0 0 1-180 180z"/></svg>