<svg xmlns="http://www.w3.org/2000/svg" width="1152" height="1152" viewBox="0 0 1152 1152"><title>Gears_24</title><path d="M626.484 772.966h-75.351a217.854 217.854 0 0 0-31.816-77.244l53.648-53.646a21.516 21.516 0 0 0 0-30.428l-32.613-32.613a21.518 21.518 0 0 0-30.434 0l-53.648 53.649a217.949 217.949 0 0 0-77.238-31.825v-75.343A21.516 21.516 0 0 0 357.516 504h-43.032a21.516 21.516 0 0 0-21.516 21.516v75.343a217.949 217.949 0 0 0-77.238 31.825l-53.648-53.648a21.518 21.518 0 0 0-30.434 0l-32.613 32.612a21.516 21.516 0 0 0 0 30.428l53.648 53.646a217.854 217.854 0 0 0-31.816 77.244H45.516A21.516 21.516 0 0 0 24 794.481v43.034a21.518 21.518 0 0 0 21.516 21.519h75.352a217.854 217.854 0 0 0 31.816 77.244l-53.649 53.646a21.512 21.512 0 0 0 0 30.425l32.613 32.613a21.518 21.518 0 0 0 30.434 0l53.648-53.646a217.928 217.928 0 0 0 77.238 31.813v75.352A21.518 21.518 0 0 0 314.484 1128h43.031a21.518 21.518 0 0 0 21.516-21.519v-75.351a217.928 217.928 0 0 0 77.238-31.813l53.648 53.646a21.518 21.518 0 0 0 30.434 0l32.613-32.613a21.512 21.512 0 0 0 0-30.425l-53.648-53.646a217.854 217.854 0 0 0 31.816-77.244h75.352A21.518 21.518 0 0 0 648 837.516v-43.035a21.516 21.516 0 0 0-21.516-21.515zM336 900a84 84 0 1 1 84-84 84 84 0 0 1-84 84z"/><path d="M1133.57 443.625l-83.552-34.071a261 261 0 0 0-.362-100.04l83.751-35.228a25.769 25.769 0 0 0 13.757-33.737l-21.427-50.909A25.752 25.752 0 0 0 1092 175.88l-83.739 35.228a261 261 0 0 0-71.254-70.208l34.062-83.542a25.763 25.763 0 0 0-14.131-33.591L909.219 4.305a25.766 25.766 0 0 0-33.588 14.128l-34.062 83.542a261.059 261.059 0 0 0-100.04.365L706.3 18.6a25.752 25.752 0 0 0-33.737-13.76l-50.917 21.413a25.776 25.776 0 0 0-13.757 33.737l35.234 83.742A260.76 260.76 0 0 0 572.917 215l-83.552-34.071a25.762 25.762 0 0 0-33.588 14.131l-19.457 47.718a25.765 25.765 0 0 0 14.119 33.588l83.552 34.071a260.984 260.984 0 0 0 .362 100.037L450.6 445.7a25.772 25.772 0 0 0-13.757 33.741l21.427 50.909a25.755 25.755 0 0 0 33.737 13.76l83.739-35.228a261.046 261.046 0 0 0 71.267 70.2l-34.073 83.556a25.759 25.759 0 0 0 14.131 33.588l47.719 19.46a25.77 25.77 0 0 0 33.588-14.131L742.452 618a260.937 260.937 0 0 0 100.028-.349l35.234 83.742a25.758 25.758 0 0 0 33.737 13.76l50.912-21.415A25.78 25.78 0 0 0 976.12 660l-35.234-83.742a260.748 260.748 0 0 0 70.206-71.263l83.552 34.068a25.757 25.757 0 0 0 33.588-14.128l19.457-47.719a25.764 25.764 0 0 0-14.119-33.591zM792 484.8A124.805 124.805 0 1 1 916.8 360 124.8 124.8 0 0 1 792 484.8z"/></svg>