<svg xmlns="http://www.w3.org/2000/svg" width="1152" height="1152" viewBox="0 0 1152 1152"><title>GearsEdit_24</title><path d="M541.477 958.43l-22.16-22.151a217.854 217.854 0 0 0 31.816-77.244h41.836L648 804.009v-9.527a21.516 21.516 0 0 0-21.516-21.516h-75.351a217.854 217.854 0 0 0-31.816-77.244l53.648-53.646a21.516 21.516 0 0 0 0-30.428l-32.613-32.613a21.518 21.518 0 0 0-30.434 0l-53.648 53.649a217.949 217.949 0 0 0-77.238-31.825v-75.343A21.516 21.516 0 0 0 357.516 504h-43.032a21.516 21.516 0 0 0-21.516 21.516v75.343a217.949 217.949 0 0 0-77.238 31.825l-53.648-53.648a21.518 21.518 0 0 0-30.434 0l-32.613 32.612a21.516 21.516 0 0 0 0 30.428l53.648 53.646a217.854 217.854 0 0 0-31.816 77.244H45.516A21.516 21.516 0 0 0 24 794.481v43.034a21.518 21.518 0 0 0 21.516 21.519h75.352a217.854 217.854 0 0 0 31.816 77.244l-53.649 53.646a21.512 21.512 0 0 0 0 30.425l32.613 32.613a21.518 21.518 0 0 0 30.434 0l53.648-53.646a217.928 217.928 0 0 0 77.238 31.813v75.352A21.518 21.518 0 0 0 314.484 1128h43.031a21.518 21.518 0 0 0 21.516-21.519v-75.351a217.928 217.928 0 0 0 77.238-31.813l52.746 52.737zM336 900a84 84 0 1 1 84-84 84.006 84.006 0 0 1-84 84z"/><path d="M575.742 508.881a261.05 261.05 0 0 0 71.273 70.2l-34.078 83.555a25.768 25.768 0 0 0 14.133 33.589l47.719 19.459a25.766 25.766 0 0 0 33.586-14.13L742.453 618c30.6 5.909 61.254 5.385 91 .563l98.109-98.1c21.422-21.419 49.793-33.694 78.258-34.509l2.883-.111h2.133a114.145 114.145 0 0 1 81.363 33.589l18.984 18.981a25.531 25.531 0 0 0 13.055-13.479l19.453-47.719a25.76 25.76 0 0 0-14.121-33.586l-83.543-34.072a261.113 261.113 0 0 0-.363-100.04l83.754-35.227a25.781 25.781 0 0 0 13.758-33.738l-21.434-50.909A25.756 25.756 0 0 0 1092 175.878l-83.742 35.229a260.8 260.8 0 0 0-71.25-70.213l34.055-83.543a25.756 25.756 0 0 0-14.122-33.591L909.223 4.3a25.778 25.778 0 0 0-33.6 14.13l-34.055 83.54a261.068 261.068 0 0 0-100.043.366L706.289 18.6a25.74 25.74 0 0 0-33.726-13.763l-50.918 21.416a25.776 25.776 0 0 0-13.758 33.738l35.238 83.739A260.675 260.675 0 0 0 572.918 215l-83.555-34.072a25.763 25.763 0 0 0-33.586 14.133l-19.453 47.719a25.763 25.763 0 0 0 14.121 33.589l83.543 34.069a261.1 261.1 0 0 0 .363 100.037L450.6 445.7a25.764 25.764 0 0 0-13.746 33.738l21.422 50.909a25.752 25.752 0 0 0 33.738 13.761zM792 235.187a124.806 124.806 0 1 1-124.793 124.807A124.8 124.8 0 0 1 792 235.187z"/><path d="M1144.026 696.235L1031.71 583.919a23.663 23.663 0 0 0-16.879-6.878l-.749.01a26.713 26.713 0 0 0-18.061 7.915l-346.7 346.7a19.433 19.433 0 0 0-4.892 8.2l-67.5 194.7c-2.219 7.335 8.945 16.572 15.255 16.572a5.346 5.346 0 0 0 1.194-.124c5.385-1.239 166.667-59.065 194.815-67.527a19.113 19.113 0 0 0 8.072-4.852l346.71-346.715a26.776 26.776 0 0 0 7.877-17.21 23.8 23.8 0 0 0-6.826-18.475zm-371.711 351.233c-42.1 12.653-108.118 41.94-144.488 52.8l52.528-144.528z"/></svg>