<svg xmlns="http://www.w3.org/2000/svg" width="1152" height="1152" viewBox="0 0 1152 1152"><title>GearsAdd_24</title><path d="M480 864c0-96.076 35.52-183.694 93.844-251.036-.352-.41-.492-.926-.879-1.315l-32.613-32.613a21.518 21.518 0 0 0-30.434 0l-53.648 53.648a217.949 217.949 0 0 0-77.238-31.825v-75.343A21.516 21.516 0 0 0 357.516 504h-43.032a21.516 21.516 0 0 0-21.516 21.516v75.343a217.949 217.949 0 0 0-77.238 31.825l-53.648-53.648a21.518 21.518 0 0 0-30.434 0l-32.613 32.612a21.516 21.516 0 0 0 0 30.428l53.648 53.646a217.854 217.854 0 0 0-31.816 77.244H45.516A21.516 21.516 0 0 0 24 794.481v43.034a21.518 21.518 0 0 0 21.516 21.519h75.352a217.854 217.854 0 0 0 31.816 77.244l-53.649 53.646a21.512 21.512 0 0 0 0 30.425l32.613 32.613a21.518 21.518 0 0 0 30.434 0l53.648-53.646a217.928 217.928 0 0 0 77.238 31.813v75.352A21.518 21.518 0 0 0 314.484 1128h43.031a21.518 21.518 0 0 0 21.516-21.519v-75.351a217.928 217.928 0 0 0 77.238-31.813l53.648 53.646a21.471 21.471 0 0 0 22.945 4.8A381.681 381.681 0 0 1 480 864zm-144 36a84 84 0 1 1 84-84 84.006 84.006 0 0 1-84 84zM492.012 544.11l83.73-35.229c13.9 20.221 31.523 37.772 50.895 53.646a382.493 382.493 0 0 1 381.763-54.214c.809-1.192 1.9-2.115 2.7-3.322l83.555 34.069a25.761 25.761 0 0 0 33.586-14.13l19.453-47.719a25.76 25.76 0 0 0-14.121-33.586l-83.543-34.072a261.113 261.113 0 0 0-.363-100.04l83.754-35.227a25.781 25.781 0 0 0 13.758-33.738l-21.434-50.909A25.756 25.756 0 0 0 1092 175.878l-83.742 35.229a260.8 260.8 0 0 0-71.25-70.213l34.055-83.543a25.756 25.756 0 0 0-14.122-33.591L909.223 4.3a25.778 25.778 0 0 0-33.6 14.13l-34.055 83.54a261.068 261.068 0 0 0-100.043.366L706.289 18.6a25.74 25.74 0 0 0-33.726-13.763l-50.918 21.416a25.776 25.776 0 0 0-13.758 33.738l35.238 83.739A260.675 260.675 0 0 0 572.918 215l-83.555-34.072a25.763 25.763 0 0 0-33.586 14.133l-19.453 47.719a25.763 25.763 0 0 0 14.121 33.589l83.543 34.069a261.1 261.1 0 0 0 .363 100.037L450.6 445.7a25.764 25.764 0 0 0-13.746 33.738l21.422 50.909a25.752 25.752 0 0 0 33.736 13.763zM792 235.187a124.806 124.806 0 1 1-124.793 124.807A124.8 124.8 0 0 1 792 235.187zM864 578.4c-157.733 0-285.6 127.867-285.6 285.6s127.867 285.6 285.6 285.6 285.6-127.871 285.6-285.6S1021.733 578.4 864 578.4zM1056 900a12 12 0 0 1-12 12H912v132a12 12 0 0 1-12 12h-72a12 12 0 0 1-12-12V912H684a12 12 0 0 1-12-12v-72a12 12 0 0 1 12-12h132V684a12 12 0 0 1 12-12h72a12 12 0 0 1 12 12v132h132a12 12 0 0 1 12 12v72z"/></svg>