<svg xmlns="http://www.w3.org/2000/svg" width="1152" height="1152" viewBox="0 0 1152 1152"><title>Gift_24</title><path d="M880.523 1.043c-67.242 0-212.883 52.26-296.508 199.318C500.367 53.3 354.727 1.043 287.484 1.043a143.479 143.479 0 1 0 0 286.957h593.039a143.479 143.479 0 1 0 0-286.957zM287.484 216a71.479 71.479 0 1 1 0-142.957C328.594 73.043 438.4 109 509.414 216h-221.93zm593.039 0H658.594c71.016-107 180.82-142.957 221.93-142.957A71.479 71.479 0 1 1 880.523 216zM96 1008a48 48 0 0 0 48 48h384V672H96v336zM0 432v96a48 48 0 0 0 48 48h480V384H48a48 48 0 0 0-48 48zm672 624h336a48 48 0 0 0 48-48V672H672v384zm432-672H672v192h432a48 48 0 0 0 48-48v-96a48 48 0 0 0-48-48z"/></svg>