<svg xmlns="http://www.w3.org/2000/svg" width="1152" height="1152" viewBox="0 0 1152 1152"><title>GlobeEnter_24</title><path d="M636.258 1045.465c-15.445 13.6-32.484 27.656-52.289 42.533 15.281-.416 63.961-5.279 73.945-6.908 4.781-.773 9.422-2.033 14.18-2.953zM990.773 605.209A107.1 107.1 0 0 1 1008 663.258v49.078h60.3a494.349 494.349 0 0 0 17.6-92.08c-10.781-.059-23.016-3.445-36.914-11.268-21.509-8.179-41.666-1.453-58.213-3.779zM512.859 148.934a118.281 118.281 0 0 0-35.159-14.461c-58.172-6.738 28.148 152.877 24.891 131.643 15.938-73.342 115.594-101.643 146.109-4.7 2.742 8.021-5.016 43.822-26.812 72.48-45.117 59.326-54.281 164.924-76.8 137.912-210.888-86.355-187.666 27.88-118.455 104.245 110.836 122.25 54.586 12.533 199.758 76.541 30.023 13.236 61.57 23.848 91.359 33.012l106.172-99.012A107.681 107.681 0 0 1 960.8 574.119c-6.3-19.23-10.406-49.553-11.461-98.385s18.188-85.934 53.32-128a98.716 98.716 0 0 1 23.341-11.16c-6.117-11.168-12.937-21.891-19.852-32.566-1.2.621-2.25 1.418-3.492 1.992-39.984 18.662-45.539 24.164-63.984 0-26.461-34.617-3.7-61.875 11.063-74.426-94.1-101.59-227.367-166.852-372.891-167.086 64.875.891 142.289 48.949 102.82 125.73 5.93-12.2-128.883-41.285-147.187-41.285-24.727 0 50.414-92.443 43.523-84.445a514.461 514.461 0 0 0-211.664 45.539c34.969 22.6 73.945 14.7 113.367 24.445 8.461.979 19.897 5.403 35.156 14.462z"/><path d="M482.391 905.109L526.9 863.6c-30.867-91.078-87.82-176.7-132.141-242.654-66.352-98.766-126.68-37.705-166.1-180.346-33.492-121.184 52.969-173.344 44.438-276.9-130.55 95.706-209.089 250.511-209.089 412.353 0 291.586 254.18 465.352 433.711 503.414 16.266 3.445 18.984 3.891 33.445 5.3 15.352-39.158 19.875-79.395 17.086-119.59zM891.031 655.276A12 12 0 0 1 912 663.249V808.34h216a24 24 0 0 1 24 24v144a24 24 0 0 1-24 24H912v139.636a12 12 0 0 1-20.969 7.972L624 904.34z"/></svg>