<svg xmlns="http://www.w3.org/2000/svg" width="1152" height="1152" viewBox="0 0 1152 1152"><title>GlobeSearch_24</title><path d="M364.336 110.027c34.969 22.6 73.945 14.7 113.367 24.445 8.461.979 19.9 5.4 35.156 14.461a118.281 118.281 0 0 0-35.159-14.46c-58.172-6.738 28.148 152.877 24.891 131.643 15.938-73.342 115.594-101.643 146.109-4.7 2.742 8.021-5.016 43.822-26.812 72.48-45.117 59.326-54.281 164.924-76.8 137.912-210.888-86.355-187.666 27.88-118.455 104.245 110.836 122.25 54.586 12.533 199.758 76.541 31.078 13.705 63.773 24.574 94.477 33.955 51.3-76 137.906-126.193 236.063-127.143-4.078-19.184-6.773-45.721-7.594-83.672-1.055-48.82 18.188-85.934 53.32-128a98.716 98.716 0 0 1 23.343-11.16c-6.117-11.168-12.937-21.891-19.852-32.566-1.2.621-2.25 1.418-3.492 1.992-39.984 18.662-45.539 24.164-63.984 0-26.461-34.617-3.7-61.875 11.063-74.426-94.1-101.59-227.367-166.852-372.891-167.086 64.875.891 142.289 48.949 102.82 125.73 5.93-12.2-128.883-41.285-147.187-41.285-24.727 0 50.414-92.443 43.523-84.445a514.461 514.461 0 0 0-211.664 45.539z"/><path d="M273.094 163.7C142.547 259.406 64.008 414.211 64.008 576.053c0 291.586 254.18 465.352 433.711 503.414 16.266 3.445 18.984 3.891 33.445 5.3 64.036-163.204-56.742-345.244-136.406-463.82-66.352-98.766-126.68-37.705-166.1-180.346-33.494-121.183 52.967-173.343 44.436-276.901zM863.719 1012.576c28.359 16.523 60.914 26.678 96.094 26.678 106.031 0 192-85.963 192-192s-85.969-192-192-192-192 85.957-192 192c0 43.975 15.375 84.006 40.242 116.379l-129.024 129.023a24 24 0 0 0 0 33.943l18.375 18.369a23.991 23.991 0 0 0 33.938 0zM959.813 722.6a124.649 124.649 0 1 1-124.641 124.654A124.648 124.648 0 0 1 959.813 722.6z"/></svg>