<svg xmlns="http://www.w3.org/2000/svg" width="1152" height="1152" viewBox="0 0 1152 1152"><title>GlobeRemove_24</title><path d="M1026 336.574c-6.117-11.168-12.937-21.891-19.852-32.566-1.2.621-2.25 1.418-3.492 1.992-39.984 18.662-45.539 24.164-63.984 0-26.461-34.617-3.7-61.875 11.063-74.426-94.1-101.59-227.367-166.852-372.891-167.086 64.875.891 142.289 48.949 102.82 125.73 5.93-12.2-128.883-41.285-147.187-41.285-24.727 0 50.414-92.443 43.523-84.445a514.461 514.461 0 0 0-211.664 45.539c34.969 22.6 73.945 14.7 113.367 24.445 8.461.979 19.9 5.4 35.156 14.461a118.281 118.281 0 0 0-35.159-14.46c-58.172-6.738 28.148 152.877 24.891 131.643 15.938-73.342 115.594-101.643 146.109-4.7 2.742 8.021-5.016 43.822-26.812 72.48-45.117 59.326-54.281 164.924-76.8 137.912-210.888-86.355-187.666 27.88-118.455 104.245 89.039 98.209 70.43 46.846 134.859 55.975C631.242 541.2 740.625 482.4 864 482.4a381.87 381.87 0 0 1 85.992 10.084c-.234-5.537-.516-10.658-.656-16.752-1.055-48.82 18.188-85.934 53.32-128A98.716 98.716 0 0 1 1026 336.574zM491.766 780.82c-29.906-59.52-66.445-114.387-97.008-159.873-66.352-98.766-126.68-37.705-166.1-180.346-33.492-121.184 52.969-173.344 44.438-276.9-130.549 95.705-209.088 250.51-209.088 412.352 0 291.586 254.18 465.352 433.711 503.414 16.266 3.445 18.984 3.891 33.445 5.3 2.93-7.453 5.063-14.988 7.242-22.512a377.385 377.385 0 0 1-46.64-281.435zM864 578.4c-157.733 0-285.6 127.867-285.6 285.6s127.867 285.6 285.6 285.6 285.6-127.871 285.6-285.6S1021.733 578.4 864 578.4zM1056 900a12 12 0 0 1-12 12H684a12 12 0 0 1-12-12v-72a12 12 0 0 1 12-12h360a12 12 0 0 1 12 12v72z"/></svg>