<svg xmlns="http://www.w3.org/2000/svg" width="1152" height="1152" viewBox="0 0 1152 1152"><title>GlobeExit_24</title><path d="M884.969 655.276A12 12 0 0 0 864 663.249V808.34H648a24 24 0 0 0-24 24v144a24 24 0 0 0 24 24h216v139.636a12 12 0 0 0 20.969 7.972L1152 904.34z"/><path d="M528 866.625c-30.609-92.209-88.43-178.98-133.242-245.678-66.352-98.766-126.68-37.705-166.1-180.346-33.492-121.184 52.969-173.344 44.438-276.9-130.549 95.705-209.088 250.51-209.088 412.352 0 291.586 254.18 465.352 433.711 503.414 16.266 3.445 18.984 3.891 33.445 5.3a255.014 255.014 0 0 0 13.313-48.826C534.281 1018.313 528 998.133 528 976.336V866.625zm520.992-257.637c-51.539-19.617-95.742 47.2-99.656-133.254-1.055-48.82 18.188-85.934 53.32-128a98.716 98.716 0 0 1 23.344-11.16c-6.117-11.168-12.937-21.891-19.852-32.566-1.2.621-2.25 1.418-3.492 1.992-39.984 18.662-45.539 24.164-63.984 0-26.461-34.617-3.7-61.875 11.063-74.426-94.1-101.59-227.367-166.852-372.891-167.086 64.875.891 142.289 48.949 102.82 125.73 5.93-12.2-128.883-41.285-147.187-41.285-24.727 0 50.414-92.443 43.523-84.445a514.461 514.461 0 0 0-211.664 45.539c34.969 22.6 73.945 14.7 113.367 24.445 8.461.979 19.9 5.4 35.156 14.461a118.281 118.281 0 0 0-35.159-14.46c-58.172-6.738 28.148 152.877 24.891 131.643 15.938-73.342 115.594-101.643 146.109-4.7 2.742 8.021-5.016 43.822-26.812 72.48-45.117 59.326-54.281 164.924-76.8 137.912-210.888-86.355-187.666 27.88-118.455 104.245 110.836 122.25 54.586 12.533 199.758 76.541 47.809 21.082 99.468 35.543 141.609 47.97v-37.306a107.989 107.989 0 0 1 184.078-76.664l120.047 111.973a490.953 490.953 0 0 0 13.781-78.311c-10.781-.056-23.015-3.445-36.914-11.268z"/></svg>