<svg xmlns="http://www.w3.org/2000/svg" width="1152" height="1152" viewBox="0 0 1152 1152"><title>GlobeStrikeClock_24</title><path d="M866.391 578.019c-157.734 0-285.586 127.863-285.586 285.6s127.852 285.6 285.586 285.6S1152 1021.351 1152 863.617s-127.875-285.598-285.609-285.598zM864 1073.656c-115.994 0-210.04-94.036-210.04-210.04S748.006 653.577 864 653.577s210.04 94.036 210.04 210.04-94.046 210.039-210.04 210.039z"/><path d="M900.615 863.489V738.223a39.657 39.657 0 0 0-39.657-39.657 39.657 39.657 0 0 0-39.658 39.657v168.951l99.227 62.719a39.657 39.657 0 0 0 54.708-12.316 39.657 39.657 0 0 0-12.321-54.723zM1026 336.574c-6.117-11.168-12.937-21.891-19.852-32.566-1.2.621-2.25 1.418-3.492 1.992-39.984 18.662-45.539 24.164-63.984 0-26.461-34.617-3.7-61.875 11.063-74.426-94.1-101.59-227.367-166.852-372.891-167.086 64.875.891 142.289 48.949 102.82 125.73 5.93-12.2-128.883-41.285-147.187-41.285-24.727 0 50.414-92.443 43.523-84.445a514.461 514.461 0 0 0-211.664 45.539c34.969 22.6 73.945 14.7 113.367 24.445 8.461.979 19.9 5.4 35.156 14.461a118.281 118.281 0 0 0-35.159-14.46c-58.172-6.738 28.148 152.877 24.891 131.643 15.938-73.342 115.594-101.643 146.109-4.7 2.742 8.021-5.016 43.822-26.812 72.48-12.211 16.043-21.727 35.461-29.625 54.732l123.612 123.61a378.6 378.6 0 0 1 234.117-19.752c-.234-5.537-.516-10.658-.656-16.752-1.055-48.82 18.188-85.934 53.32-128a98.716 98.716 0 0 1 23.344-11.16zM112.969 79.031l-33.938 33.938a24 24 0 0 0 0 33.943l483.586 483.6a382.8 382.8 0 0 1 67.9-67.881l-483.611-483.6a23.991 23.991 0 0 0-33.937 0zm378.8 701.789c-29.906-59.52-66.445-114.387-97.008-159.873-66.352-98.766-126.68-37.705-166.1-180.346-1.031-3.7-1.594-7.148-2.414-10.729l-98.6-98.613C86.953 405.691 64.008 489.7 64.008 576.053c0 291.586 254.18 465.352 433.711 503.414 16.266 3.445 18.984 3.891 33.445 5.3 2.93-7.453 5.063-14.988 7.242-22.512a377.385 377.385 0 0 1-46.64-281.435z"/></svg>