<svg xmlns="http://www.w3.org/2000/svg" width="1152" height="1152" viewBox="0 0 1152 1152"><title>GlobeClock_24</title><path d="M1026 336.574c-6.117-11.168-12.937-21.891-19.852-32.566-1.2.621-2.25 1.418-3.492 1.992-39.984 18.662-45.539 24.164-63.984 0-26.461-34.617-3.7-61.875 11.063-74.426-94.1-101.59-227.367-166.852-372.891-167.086 64.875.891 142.289 48.949 102.82 125.73 5.93-12.2-128.883-41.285-147.187-41.285-24.727 0 50.414-92.443 43.523-84.445a514.461 514.461 0 0 0-211.664 45.539c34.969 22.6 73.945 14.7 113.367 24.445 8.461.979 19.9 5.4 35.156 14.461a118.281 118.281 0 0 0-35.159-14.46c-58.172-6.738 28.148 152.877 24.891 131.643 15.938-73.342 115.594-101.643 146.109-4.7 2.742 8.021-5.016 43.822-26.812 72.48-45.117 59.326-54.281 164.924-76.8 137.912-210.888-86.355-187.666 27.88-118.455 104.245 90.117 99.4 69.8 45.451 137.086 56.221C633.445 541.307 742.922 482.4 866.391 482.4a382.05 382.05 0 0 1 83.578 9.457c-.211-5.35-.516-10.26-.633-16.125-1.055-48.82 18.188-85.934 53.32-128A98.716 98.716 0 0 1 1026 336.574zM493.336 784.061c-30.211-60.756-67.477-116.807-98.578-163.113-66.352-98.766-126.68-37.705-166.1-180.346-33.492-121.184 52.969-173.344 44.438-276.9C142.547 259.406 64.008 414.211 64.008 576.053c0 291.586 254.18 465.352 433.711 503.414 16.266 3.445 18.984 3.891 33.445 5.3a251.666 251.666 0 0 0 8.063-25.1 378.915 378.915 0 0 1-45.891-275.606zM866.391 578.4C708.656 578.4 580.8 706.266 580.8 864s127.852 285.6 285.586 285.6S1152 1021.734 1152 864s-127.875-285.6-285.609-285.6zM864 1074.04c-115.994 0-210.04-94.04-210.04-210.04S748.006 653.96 864 653.96 1074.04 748 1074.04 864 979.994 1074.04 864 1074.04z"/><path d="M900.615 863.872V738.607a39.657 39.657 0 0 0-39.657-39.657 39.657 39.657 0 0 0-39.658 39.657v168.95l99.227 62.719a39.657 39.657 0 0 0 54.708-12.316 39.657 39.657 0 0 0-12.321-54.723z"/></svg>