<svg xmlns="http://www.w3.org/2000/svg" width="1152" height="1152" viewBox="0 0 1152 1152"><title>GlobeStrike_24</title><path d="M583.968 1088c15.283-.413 63.96-5.28 73.944-6.907a496.69 496.69 0 0 0 162.494-57.053l-87.8-87.792c-29.248 44.824-70.076 92.786-148.638 151.752zm-355.31-647.4c-1.032-3.7-1.594-7.147-2.414-10.728l-98.6-98.616c-40.69 74.434-63.634 158.443-63.634 244.8 0 291.586 254.179 465.35 433.709 503.414 16.267 3.446 18.984 3.888 33.446 5.3 64.032-163.21-56.741-345.25-136.406-463.824-66.353-98.764-126.679-37.703-166.101-180.346zm820.334 168.39c-51.538-19.618-95.741 47.2-99.658-133.258-1.051-48.821 18.187-85.934 53.323-128A98.611 98.611 0 0 1 1026 336.576c-6.115-11.17-12.936-21.893-19.853-32.568-1.2.619-2.246 1.416-3.49 1.992-39.984 18.662-45.542 24.163-63.984 0-26.462-34.618-3.706-61.877 11.059-74.424C855.634 129.984 722.366 64.723 576.845 64.488c64.872.893 142.286 48.95 102.821 125.731 5.928-12.2-128.885-41.285-147.187-41.285-24.73 0 50.414-92.443 43.522-84.446a514.506 514.506 0 0 0-211.666 45.538c34.968 22.6 73.949 14.7 113.366 24.446 8.462.979 19.9 5.4 35.16 14.462a118.225 118.225 0 0 0-35.16-14.462c-58.171-6.739 28.152 152.88 24.893 131.645 15.936-73.344 115.594-101.645 146.107-4.7 2.746 8.021-5.011 43.819-26.808 72.48-12.211 16.042-21.73 35.458-29.626 54.73L1023.7 820.066c33.869-60.878 55.738-128.717 62.2-199.81-10.777-.056-23.007-3.446-36.908-11.266zM1005.086 1072.973L79.027 146.914a24.005 24.005 0 0 1 0-33.941l33.946-33.946a24.005 24.005 0 0 1 33.941 0l926.059 926.059a24.005 24.005 0 0 1 0 33.941l-33.946 33.946a24.005 24.005 0 0 1-33.941 0z"/></svg>