<svg xmlns="http://www.w3.org/2000/svg" width="1152" height="1152" viewBox="0 0 1152 1152"><title>GlobeCheck_24</title><path d="M484.8 864a382.251 382.251 0 0 1 8.531-79.939c-30.211-60.759-67.477-116.81-98.578-163.113-66.352-98.766-126.68-37.7-166.1-180.346-33.492-121.184 52.969-173.344 44.438-276.9C142.547 259.406 64.008 414.211 64.008 576.053c0 291.586 254.18 465.352 433.711 503.414 16.266 3.445 18.984 3.891 33.445 5.3a252.349 252.349 0 0 0 8.063-25.1A379.157 379.157 0 0 1 484.8 864z"/><path d="M512.859 148.937a118.281 118.281 0 0 0-35.159-14.461c-58.172-6.741 28.148 152.874 24.891 131.64 15.938-73.342 115.594-101.64 146.109-4.7 2.742 8.021-5.016 43.825-26.812 72.48-45.117 59.329-54.281 164.924-76.8 137.915-210.888-86.355-187.666 27.877-118.455 104.242 90.117 99.4 69.8 45.454 137.086 56.221C633.445 541.307 742.922 482.4 866.391 482.4a382.051 382.051 0 0 1 83.578 9.463c-.211-5.353-.516-10.263-.633-16.128-1.055-48.82 18.188-85.931 53.32-128A98.618 98.618 0 0 1 1026 336.574c-6.117-11.168-12.937-21.888-19.852-32.563-1.2.621-2.25 1.418-3.492 1.989-39.984 18.662-45.539 24.164-63.984 0-26.461-34.617-3.7-61.875 11.063-74.426-94.1-101.59-227.367-166.852-372.891-167.083 64.875.891 142.289 48.946 102.82 125.728 5.93-12.2-128.883-41.282-147.187-41.282-24.727 0 50.414-92.446 43.523-84.445a514.458 514.458 0 0 0-211.664 45.536c34.969 22.6 73.945 14.7 113.367 24.448 8.461.975 19.897 5.399 35.156 14.461zM866.4 578.4c-157.734 0-285.6 127.869-285.6 285.6s127.863 285.6 285.6 285.6S1152 1021.734 1152 864s-127.866-285.6-285.6-285.6zm-53.485 475.118L665.729 906.329a12 12 0 0 1 0-16.971l42.279-42.279a12 12 0 0 1 16.971 0L818.4 940.5l214.546-214.546a12 12 0 0 1 16.971 0l45.279 45.279a12 12 0 0 1 0 16.971l-265.311 265.311a12 12 0 0 1-16.97 0z"/></svg>