<svg xmlns="http://www.w3.org/2000/svg" width="1152" height="1152" viewBox="0 0 1152 1152"><title>GooglePlus1_24</title><path d="M1151.378 370.029v507.005h-69.932V474.926h-87.415V439.96zM288.47 582.323h272.4c2.472 14.422 4.534 28.846 4.534 47.8C565.4 794.966 454.956 912 288.47 912 128.988 912 0 783.014 0 623.532s128.988-288.468 288.47-288.468c77.886 0 143 28.435 193.274 75.413l-78.3 75.415c-21.43-20.606-58.931-44.507-114.976-44.507-98.492 0-178.85 81.6-178.85 182.147s80.358 182.148 178.85 182.148c114.151 0 157.009-82.007 163.6-124.453H288.47v-98.9zm618.147 0H824.2V499.9h-82.424v82.421h-82.418v82.418h82.418v82.42H824.2v-82.42h82.42v-82.416z"/></svg>