<svg xmlns="http://www.w3.org/2000/svg" data-name="S_GooglePlus_24_N@2x" height="48" id="S_GooglePlus_24_N_2x" viewBox="0 0 48 48" width="48"><defs><style>.fill{fill:#707070}</style></defs><title>S_GooglePlus_24_N@2x</title><path class="fill" d="M15.273 22.545v5.236h8.662c-.349 2.248-2.618 6.589-8.662 6.589a9.645 9.645 0 0 1 0-19.287 8.594 8.594 0 0 1 6.087 2.357l4.146-3.993a14.64 14.64 0 0 0-10.233-3.992 15.273 15.273 0 1 0 0 30.545c8.814 0 14.662-6.2 14.662-14.924a14.054 14.054 0 0 0-.24-2.531zM43.636 22.545v-4.363h-4.364v4.363h-4.363v4.364h4.363v4.364h4.364v-4.364H48v-4.364h-4.364z"/></svg>