<svg xmlns="http://www.w3.org/2000/svg" width="1152" height="1152" viewBox="0 0 1152 1152"><title>GraphProfitCurve_24</title><path d="M552 336h-48a23.994 23.994 0 0 0-24 24v48a23.994 23.994 0 0 0 24 24h48a23.994 23.994 0 0 0 24-24v-48a23.994 23.994 0 0 0-24-24zM360 336h-48a23.994 23.994 0 0 0-24 24v48a23.994 23.994 0 0 0 24 24h48a23.994 23.994 0 0 0 24-24v-48a23.994 23.994 0 0 0-24-24zM168 336h-48a23.994 23.994 0 0 0-24 24v48a23.994 23.994 0 0 0 24 24h48a23.994 23.994 0 0 0 24-24v-48a23.994 23.994 0 0 0-24-24zM744 528h-48a23.994 23.994 0 0 0-24 24v48a23.994 23.994 0 0 0 24 24h48a23.994 23.994 0 0 0 24-24v-48a23.994 23.994 0 0 0-24-24zM744 912h-48a23.994 23.994 0 0 0-24 24v48a23.994 23.994 0 0 0 24 24h48a23.994 23.994 0 0 0 24-24v-48a23.994 23.994 0 0 0-24-24zM744 720h-48a23.994 23.994 0 0 0-24 24v48a23.994 23.994 0 0 0 24 24h48a23.994 23.994 0 0 0 24-24v-48a23.994 23.994 0 0 0-24-24z"/><path d="M120.82 96.211A24.558 24.558 0 0 0 96 120.516v47.977c0 13.055 10.734 23.484 23.789 23.719C368.2 196.57 545.883 269.344 672 374.508V408a23.994 23.994 0 0 0 24 24h37.031C889.313 597.809 945.633 817.793 957.4 985.852A23.635 23.635 0 0 0 981.141 1008h48.047c13.852 0 25.1-11.437 24.164-25.277C1030.5 643.5 842.32 108.2 120.82 96.211z"/></svg>