<svg xmlns="http://www.w3.org/2000/svg" width="1152" height="1152" viewBox="0 0 1152 1152"><title>GraphTrend_24</title><path d="M1012.339 218l-185.98 265.677L686.5 204c-9.424-18.845-36.82-17.269-44.021 2.533L469.02 742.418 307.9 590.109a24 24 0 0 0-32.333-1.464L104.635 731.106A24 24 0 0 0 96 749.542v61.81c0 20.347 23.731 31.463 39.363 18.438l148.231-123.506L482.368 905.1a24 24 0 0 0 39.527-8.767l156.228-473.044 109.5 241.887a24 24 0 0 0 41.129 3.032l222.911-318.445A24 24 0 0 0 1056 336V231.759c0-23.465-30.205-32.987-43.661-13.759z"/></svg>