<svg xmlns="http://www.w3.org/2000/svg" width="1152" height="1152" viewBox="0 0 1152 1152"><title>GraphTrendAlert_24</title><path d="M1028.2 1000.43L826.336 596.7c-14.133-28.312-54.539-28.312-68.672 0L555.8 1000.43c-12.773 25.523 5.789 55.57 34.336 55.57h403.731c28.547 0 47.11-30.047 34.333-55.57zm-265-293.63c0-5.97 6.441-10.8 14.4-10.8h28.8c7.959 0 14.4 4.83 14.4 10.8v194.4c0 5.97-6.441 10.8-14.4 10.8h-28.8c-7.959 0-14.4-4.83-14.4-10.8V706.8zM828 1008a11.993 11.993 0 0 1-12 12h-48a11.993 11.993 0 0 1-12-12v-48a11.993 11.993 0 0 1 12-12h48a11.993 11.993 0 0 1 12 12v48z"/><path d="M493.031 911.3l70.453-140.859 114.633-347.16 36.844 81.375c22.172-15.668 48.539-25.172 77.039-25.172 50.25 0 95.18 27.609 118.5 71.918l141.164-201.645A24.064 24.064 0 0 0 1056 336V231.762c0-23.473-30.211-32.988-43.664-13.77L826.359 483.68 686.508 204c-9.422-18.844-36.82-17.273-44.039 2.531L469.031 742.418 307.9 590.109a23.983 23.983 0 0 0-32.32-1.465L104.625 731.109A24.012 24.012 0 0 0 96 749.543v61.8c0 20.355 23.719 31.465 39.375 18.445l148.219-123.5L482.367 905.1a24.013 24.013 0 0 0 10.664 6.2z"/></svg>