<svg xmlns="http://www.w3.org/2000/svg" width="1152" height="1152" viewBox="0 0 1152 1152"><title>GraphBarVerticalStacked_24</title><rect y="960" width="1056" height="96" rx="24" ry="24"/><path d="M336 768h192v144H336zM816 480h192v432H816zM576 720h192v192H576zM96 816h192v96H96zM768 528v144H576V528a48 48 0 0 1 48-48h96a48 48 0 0 1 48 48zM288 720v48H96v-48a48 48 0 0 1 48-48h96a48 48 0 0 1 48 48zM1008 144v288H816V144a48 48 0 0 1 48-48h96a48 48 0 0 1 48 48zM528 624v96H336v-96a48 48 0 0 1 48-48h96a48 48 0 0 1 48 48z"/></svg>