<svg xmlns="http://www.w3.org/2000/svg" width="1152" height="1152" viewBox="0 0 1152 1152"><title>GraphPathing_24</title><rect x="96" y="96" width="192" height="384" rx="25.657" ry="25.657"/><rect x="864" y="144" width="240" height="240" rx="24" ry="24"/><rect x="864" y="480" width="240" height="240" rx="24" ry="24"/><rect x="864" y="816" width="240" height="240" rx="24" ry="24"/><path d="M816 250.847c0 13.7-11.605 25.225-25.266 24.238-56.515-4.08-106.168-21.217-158.39-39.211-71.314-24.622-151.568-52.307-272.544-55.557-13.044-.35-23.8-10.745-23.8-23.794v-23.978a24.463 24.463 0 0 1 24.9-24.221c132.675 3.483 222.189 34.357 294.932 59.488 48.4 16.685 91.159 31.43 137.293 35.237 12.754 1.052 22.879 11 22.879 23.8v24zM816 585.981c0 15.169-12.416 26.258-27.417 24.009-76.837-11.515-126.649-70.637-174.989-128.022-62.02-73.668-126.063-149.7-255.841-157.339C345.432 323.9 336 313.288 336 300.945v-24.066a24.36 24.36 0 0 1 25.956-24.134c160.629 9.354 241.289 105.1 306.715 182.818 47.922 56.9 81.754 94.467 127.636 102.721a23.8 23.8 0 0 1 19.693 23.4v24.3zM816 921.3c0 14.85-13.5 26.871-28.013 23.726-85.145-18.452-142.435-119.945-202.753-226.805-64.649-114.547-131.372-232.75-227.464-248.46-11.924-1.949-21.77-12.968-21.77-25.05v-23.046c0-14.993 12.243-25.857 27.115-23.955 133.532 17.07 213.641 159 284.838 285.119 48.2 85.441 97.923 173.5 150.39 190.308C807.914 876.2 816 885.953 816 896v25.3z"/></svg>