<svg xmlns="http://www.w3.org/2000/svg" width="1152" height="1152" viewBox="0 0 1152 1152"><title>GraphDonut_24</title><path d="M624 125.954V322.2c0 10.966 7.591 20.049 18.134 23.065C742.518 373.982 816 466.391 816 576s-73.482 202.018-173.866 230.733C631.591 809.749 624 818.832 624 829.8v196.247c0 14.555 12.972 26.285 27.35 24.019C880.647 1013.916 1056 815.459 1056 576S880.647 138.084 651.35 101.936C636.972 99.669 624 111.4 624 125.954zM441.314 378.028a238.177 238.177 0 0 1 68.581-32.728C520.417 342.245 528 333.178 528 322.221V126c0-14.572-13.012-26.33-27.405-24.051-92.585 14.656-176.165 56-243.132 115.635-10.932 9.735-9.977 27.284 1.426 36.463L412.2 377.46c8.455 6.809 20.167 6.724 29.114.568zM336 576a234.217 234.217 0 0 1 17.912-89.162c4.129-10.074 1.7-21.577-6.779-28.4L193.516 334.78c-11.413-9.187-28.8-6.387-35.992 6.379A476.977 476.977 0 0 0 96 576c0 239.459 175.353 437.916 404.65 474.064 14.378 2.267 27.35-9.463 27.35-24.019V829.8c0-10.966-7.591-20.049-18.134-23.065C409.482 778.018 336 685.609 336 576z"/></svg>