<svg xmlns="http://www.w3.org/2000/svg" data-name="S_Graphic_24_N@2x" height="48" id="S_Graphic_24_N_2x" viewBox="0 0 48 48" width="48"><defs><style>.fill{fill:#707070}</style></defs><title>S_Graphic_24_N@2x</title><path class="fill" d="M45 18H32V1.151a1 1 0 0 0-1.707-.707L.4 30.293A1 1 0 0 0 1.111 32H14.18a11.982 11.982 0 0 0 20.746 10H45a1 1 0 0 0 1-1V19a1 1 0 0 0-1-1zM15.5 28.2h-8L28.2 7.536V18H23a1 1 0 0 0-1 1v3.7a12.027 12.027 0 0 0-6.5 5.5zm10.5 14a8.2 8.2 0 1 1 8.2-8.2 8.209 8.209 0 0 1-8.2 8.2z"/></svg>