<svg xmlns="http://www.w3.org/2000/svg" width="1152" height="1152" viewBox="0 0 1152 1152"><title>GraphStreamRanked_24</title><path d="M335.344 480.094c78.188 0 132.422 36.75 180.234 69.141 40.031 27.141 74.578 50.531 118.969 50.531 21.469-12.375 30.563-120.7 35.484-178.875.984-11.836 2.063-24.07 3.188-36.457-11.461 14.906-23.812 23.965-38.7 23.965-97.852 0-167.977-119.672-299.18-119.672C156.422 288.727 175.922 408.4 96 408.4v191.366c21.844 0 37.688-13.687 66.141-39.844 36.559-33.703 86.672-79.828 173.203-79.828zM1053.375 994.875c-222.635 0-292.246-56.253-346.5-58.887-186.239-9.04-245.993 58.887-371.531 58.887-91.411 0-210.234-59.859-239.344-59.859v131.59h957.375v-71.73zM1053.375 576h-59.812c-78.891 0-93.609 51.328-108.422 168.469-5.437 43.266-12.516 94.664-34.055 133.336 45.938 11.391 108 21.07 202.289 21.07V576z"/><path d="M1053.375 157.219H873.891c-79.219 0-94.828 112.641-108.187 271.734-11.063 131.156-22.454 266.813-131.157 266.813-73.875 0-126.422-35.625-172.828-67.031-41.672-28.266-77.672-52.641-126.375-52.641-49.078 0-75.141 24-108.141 54.422-33.234 30.563-70.875 65.25-131.2 65.25v143.25c52.125 0 87.516 16.313 118.734 30.7 32.578 15 63.328 29.156 120.609 29.156 47.2 0 84.516-9.562 131.766-21.7 56.016-14.391 123.961-31.594 227.25-36.6 0 0 8.977-1 13.406-.668 14.813-.551 30.164-.891 46.453-.891 19.031 0 26.391-32.859 35.672-106.594C802.594 631.922 821.766 480 993.563 480h59.813V157.219z"/></svg>