<svg xmlns="http://www.w3.org/2000/svg" width="1152" height="1152" viewBox="0 0 1152 1152"><title>GraphTrendAdd_24</title><path d="M482.391 864c0-123.645 59.063-233.227 150.234-302.953l45.492-137.766 39.914 88.172a377.39 377.39 0 0 1 233.461-18.586l100.172-143.109A24.064 24.064 0 0 0 1056 336V231.762c0-23.473-30.211-32.988-43.664-13.77L826.359 483.68 686.508 204c-9.422-18.844-36.82-17.273-44.039 2.531L469.031 742.418 307.9 590.109a23.983 23.983 0 0 0-32.32-1.465L104.625 731.109A24.012 24.012 0 0 0 96 749.543v61.8c0 20.355 23.719 31.465 39.375 18.445l148.219-123.5L482.367 905.1c.75.75 1.734.867 2.555 1.488A381.213 381.213 0 0 1 482.391 864z"/><path d="M578.4 864c0 157.733 127.867 285.6 285.6 285.6s285.6-127.867 285.6-285.6S1021.733 578.4 864 578.4 578.4 706.267 578.4 864zM900 672a12 12 0 0 1 12 12v132h132a12 12 0 0 1 12 12v72a12 12 0 0 1-12 12H912v132a12 12 0 0 1-12 12h-72a12 12 0 0 1-12-12V912H684a12 12 0 0 1-12-12v-72a12 12 0 0 1 12-12h132V684a12 12 0 0 1 12-12h72z"/></svg>