<svg xmlns="http://www.w3.org/2000/svg" width="1152" height="1152" viewBox="0 0 1152 1152"><title>GraphHistogram_24</title><path d="M1041.3 912H926.7a14.7 14.7 0 0 0-14.7 14.7V740.086A20.088 20.088 0 0 0 891.914 720H788.086A20.088 20.088 0 0 0 768 740.086V550.078A22.086 22.086 0 0 0 745.922 528h-99.844A22.086 22.086 0 0 0 624 550.078V264a23.994 23.994 0 0 0-24-24h-96a23.994 23.994 0 0 0-24 24V120a23.994 23.994 0 0 0-24-24h-96a23.994 23.994 0 0 0-24 24v336a23.994 23.994 0 0 0-24-24h-96a23.994 23.994 0 0 0-24 24v264h-74.836A21.155 21.155 0 0 0 96 741.164V1056h960V926.7a14.7 14.7 0 0 0-14.7-14.7z"/></svg>