<svg xmlns="http://www.w3.org/2000/svg" width="1152" height="1152" viewBox="0 0 1152 1152"><title>GraphStream_24</title><path d="M768 520c-67.008 0-115.242-33.129-161.93-65.121-47.133-32.379-91.641-62.883-158.062-62.883-54.82 0-94.125 20.754-143.883 47.063C251.906 466.629 189.68 499.184 96 513.07v125.578c49.734 6.352 94.336 16.252 137.367 26.415C300.633 681 364.125 696 448.008 696c51.867 0 107.672-16.441 161.672-32.32 55.266-16.312 107.508-31.687 158.32-31.687 46.055 0 96.633 12.633 155.133 27.258 41.25 10.336 86.109 21 132.867 28.266v-225.3c-53.6 7.078-96.328 19.113-135.445 30.281C871.125 506.625 824.367 520 768 520zm0-232C609.68 288 596.6 96 448.008 96 320.836 96 265.688 283.078 96 337.137v94.98c72.914-12.539 122.6-38.379 170.742-63.809C321.563 339.375 373.383 312 448.008 312c91.242 0 150.8 40.875 203.3 76.875 40.008 27.434 74.508 51.117 116.7 51.117 45.188 0 84.75-11.309 130.617-24.375 42.633-12.211 92.836-26.285 157.383-33.926V172.5C941.32 204.656 895.8 288 768 288zm0 424c-39.258 0-86.133 13.816-135.75 28.371-59.437 17.508-120.867 35.625-184.242 35.625-93.258 0-164.32-16.8-233.062-33.059-39.146-9.273-77.508-17.851-118.946-23.71v93.738C217.266 845.426 305.6 928 448.008 928c110.719 0 226.055-64 319.992-64 79.031 0 136.875 90.3 288 119.074V768.328c-54.445-7.664-105.586-19.781-152.32-31.453C850.313 723.492 804.188 712 768 712z"/></svg>