<svg xmlns="http://www.w3.org/2000/svg" width="1152" height="1152" viewBox="0 0 1152 1152"><title>GraphBarHorizontalStacked_24</title><rect x="96" y="96" width="96" height="1056" rx="24" ry="24"/><path d="M240 624h144v192H240zM240 144h432v192H240zM240 384h192v192H240zM240 864h96v192h-96zM624 384H480v192h144a48 48 0 0 0 48-48v-96a48 48 0 0 0-48-48zM432 864h-48v192h48a48 48 0 0 0 48-48v-96a48 48 0 0 0-48-48zM1008 144H720v192h288a48 48 0 0 0 48-48v-96a48 48 0 0 0-48-48zM528 624h-96v192h96a48 48 0 0 0 48-48v-96a48 48 0 0 0-48-48z"/></svg>