<svg xmlns="http://www.w3.org/2000/svg" width="1152" height="1152" viewBox="0 0 1152 1152"><title>GraphAreaStacked_24</title><path d="M953.827 551.653L1056 756v300H96V576l300 360 100.031-150.046a24 24 0 0 1 39.938 0L636 936l276.831-387.563a24 24 0 0 1 40.996 3.216z"/><path d="M387.445 775.77l68.646-102.97c28.5-42.75 91.318-42.75 119.817 0l62.811 94.222 242.332-339.265c31.536-44.15 98.72-38.88 122.986 9.647L1056 541.318V255.75l-99.375-149.063a24 24 0 0 0-40.312.592L636 555.75 535.969 405.7a24 24 0 0 0-39.937 0L396 555.75 96 192v234.035z"/></svg>