<svg xmlns="http://www.w3.org/2000/svg" width="1152" height="1152" viewBox="0 0 1152 1152"><title>GraphBarVerticalAdd_24</title><path d="M866.391 578.4C708.656 578.4 580.8 706.266 580.8 864s127.852 285.6 285.586 285.6S1151.977 1021.758 1152 864.059v-.117c-.023-157.7-127.875-285.542-285.609-285.542zm192 321.6a12 12 0 0 1-12 12h-132v132a12 12 0 0 1-12 12h-72a12.016 12.016 0 0 1-12-12V912h-132a12.016 12.016 0 0 1-12-12v-72a12.008 12.008 0 0 1 12-12h132V684a12.008 12.008 0 0 1 12-12h72a11.993 11.993 0 0 1 12 12v132h132a11.993 11.993 0 0 1 12 12v72zM756.938 498.521C748.148 487.5 735.188 480 720 480h-96a48 48 0 0 0-48 48v88.8a381.709 381.709 0 0 1 180.938-118.279zM144 768a48 48 0 0 0-48 48v96h192v-96a48 48 0 0 0-48-48h-96zM24 1056h513a379.078 379.078 0 0 1-39.539-96H24a23.994 23.994 0 0 0-24 24v48a23.994 23.994 0 0 0 24 24zM1008 144a48 48 0 0 0-48-48h-96a48 48 0 0 0-48 48v342.105a369.613 369.613 0 0 1 192 23.742V144zM480 672h-96a48 48 0 0 0-48 48v192h152.133a386.03 386.03 0 0 1-3.328-48 379.22 379.22 0 0 1 37.9-164.953C514.875 683.168 498.891 672 480 672z"/></svg>