<svg xmlns="http://www.w3.org/2000/svg" width="1152" height="1152" viewBox="0 0 1152 1152"><title>GraphScatter_24</title><path d="M523.8 491.895a71.391 71.391 0 1 0 71.4-71.395 71.391 71.391 0 0 0-71.4 71.395zM530.3 303.68a71.391 71.391 0 1 0-71.391-71.391A71.391 71.391 0 0 0 530.3 303.68z"/><circle cx="984.609" cy="167.391" r="71.391"/><path d="M660.094 550.313a71.391 71.391 0 1 0 71.39 71.387 71.391 71.391 0 0 0-71.39-71.387zM854.813 420.5a71.391 71.391 0 1 0 71.387 71.395 71.383 71.383 0 0 0-71.387-71.395zM400.5 550.313a71.391 71.391 0 1 0 71.391 71.387 71.391 71.391 0 0 0-71.391-71.387zM400.5 368.578a71.391 71.391 0 1 0-71.391-71.391 71.391 71.391 0 0 0 71.391 71.391zM530.3 809.918a71.391 71.391 0 1 0 71.391 71.391 71.391 71.391 0 0 0-71.391-71.391zM205.781 874.816a71.391 71.391 0 1 0 71.391 71.391 71.391 71.391 0 0 0-71.391-71.391z"/></svg>