<svg xmlns="http://www.w3.org/2000/svg" width="1152" height="1152" viewBox="0 0 1152 1152"><title>GraphArea_24</title><path d="M954.127 612.254L1056 816v192a48 48 0 0 1-48 48H144a48 48 0 0 1-48-48V576l300 360 100.712-151.068a24 24 0 0 1 39.5-.637L666 966l246.928-356.674a24 24 0 0 1 41.199 2.928z"/><path d="M387.445 775.77l67.972-101.955c27.95-41.923 89.209-42.911 118.5-1.91l90.868 127.214 215.361-311.092c31.149-44.994 99.122-40.164 123.6 8.781L1056 601.318V96L816 384 690.364 174.607a24 24 0 0 0-39.78-2.052L287.836 656.227z"/></svg>