<svg xmlns="http://www.w3.org/2000/svg" width="1152" height="1152" viewBox="0 0 1152 1152"><title>GraphBullet_24</title><path d="M480 480H120a24 24 0 0 0-24 24v96a24 24 0 0 0 24 24h360V480zM96 216v96a23.994 23.994 0 0 0 24 24h120V192H120a23.994 23.994 0 0 0-24 24zm792-24H480v144h408a23.994 23.994 0 0 0 24-24v-96a23.994 23.994 0 0 0-24-24z"/><rect x="288" y="144" width="144" height="240" rx="58.788" ry="58.788"/><rect x="720" y="720" width="144" height="240" rx="58.788" ry="58.788"/><rect x="528" y="432" width="144" height="240" rx="58.788" ry="58.788"/><path d="M1032 768H912v144h120a23.994 23.994 0 0 0 24-24v-96a23.994 23.994 0 0 0-24-24zM96 792v96a23.994 23.994 0 0 0 24 24h552V768H120a23.994 23.994 0 0 0-24 24z"/></svg>