<svg xmlns="http://www.w3.org/2000/svg" width="1152" height="1152" viewBox="0 0 1152 1152"><title>GraphStreamRankedAdd_24</title><path d="M634.523 397.793c-97.852 0-167.977-119.672-299.18-119.672-178.921 0-159.421 119.672-239.343 119.672V589.16c21.844 0 37.688-13.687 66.141-39.844 36.563-33.7 86.672-79.828 173.2-79.828 78.188 0 132.422 36.75 180.234 69.141 30.375 20.6 57.656 38.906 88.43 46.605a383.41 383.41 0 0 1 48.984-39.094c8.883-40.055 13.852-98.262 17.039-135.855.984-11.836 2.063-24.07 3.188-36.457-11.458 14.906-23.81 23.965-38.693 23.965zm239.367-251.18c-79.219 0-94.828 112.641-108.187 271.734-2.25 26.648-4.547 53.426-7.641 79.277a368.318 368.318 0 0 1 151.453-12.258c22.992-10.055 50.531-15.973 84.047-15.973h59.813v-322.78H873.891zM335.344 565.488c-49.078 0-75.141 24-108.141 54.422-33.234 30.563-70.875 65.25-131.2 65.25v143.25c52.125 0 87.516 16.313 118.734 30.7 32.578 15 63.328 29.156 120.609 29.156 47.2 0 84.516-9.562 131.766-21.7 4.969-1.277 10.172-2.59 15.352-3.9a379.313 379.313 0 0 1 56.953-198.6c-28.8-12.926-54.07-29.953-77.7-45.937-41.67-28.266-77.67-52.641-126.373-52.641zm0 418.781C243.938 984.27 125.109 924.41 96 924.41V1056h438.609a378.194 378.194 0 0 1-41.367-103.043c-51.726 15.398-97.148 31.313-157.898 31.313zM578.4 864c0 157.733 127.867 285.6 285.6 285.6s285.6-127.867 285.6-285.6S1021.733 578.4 864 578.4 578.4 706.267 578.4 864zM900 672a12 12 0 0 1 12 12v132h132a12 12 0 0 1 12 12v72a12 12 0 0 1-12 12H912v132a12 12 0 0 1-12 12h-72a12 12 0 0 1-12-12V912H684a12 12 0 0 1-12-12v-72a12 12 0 0 1 12-12h132V684a12 12 0 0 1 12-12h72z"/></svg>