<svg xmlns="http://www.w3.org/2000/svg" width="1152" height="1152" viewBox="0 0 1152 1152"><title>GraphSunburst_24</title><path d="M336.689 512.3h99.92c8.095 0 15.314-4.31 20.034-10.887a136.9 136.9 0 0 1 31.432-31.439c6.579-4.721 10.893-11.941 10.893-20.038v-99.914c0-16.87-17.1-28.811-32.759-22.543a273.407 273.407 0 0 0-152.063 152.063c-6.268 15.658 5.674 32.758 22.543 32.758zM595.405 853.071C722.953 840.3 826.941 736.335 839.732 608.79c12.75-127.127-62.268-237.99-171.376-281.42-15.584-6.2-32.518 5.8-32.518 22.57v100.2c0 7.965 4.244 15.086 10.731 19.708 43.274 30.836 68.221 85.665 53.419 145.415a134.569 134.569 0 0 1-98.154 98.083c-59.725 14.754-114.488-10.195-145.32-53.446-4.622-6.484-11.741-10.726-19.7-10.726H336.6c-16.772 0-28.772 16.932-22.571 32.515C357.443 790.768 468.283 865.8 595.405 853.071z"/><path d="M647.712 123.951V214.7c0 11.093 7.707 20.39 18.436 23.208 146.734 38.541 255.3 172.3 255.3 330.96a292.77 292.77 0 0 1-2.962 39.809A24.227 24.227 0 0 0 933.4 634.72l85.145 33.518c14.334 5.643 29.909-3.526 32.577-18.7a464.966 464.966 0 0 0 7.2-80.677c0-230.571-163.964-423.13-381.3-468.421a24.188 24.188 0 0 0-29.31 23.511zM298.512 220.53l17.288 17.282a24.169 24.169 0 0 0 30.3 2.9 407.714 407.714 0 0 1 133.5-55.232 24.156 24.156 0 0 0 19.374-23.456v-26.21c0-15.484-14.388-26.613-29.54-23.419A475.121 475.121 0 0 0 302.476 183.3c-12.717 8.539-14.797 26.4-3.964 37.23zM122.491 512.3h21.9a24.069 24.069 0 0 0 23.313-19.01 407.276 407.276 0 0 1 54.244-128.446 24.075 24.075 0 0 0-2.885-30.213l-16.521-16.521a24.181 24.181 0 0 0-37.444 4.264 475.777 475.777 0 0 0-66.063 160.484c-3.164 15.114 8.015 29.442 23.456 29.442zM187.964 649.172h-65.478c-15.423 0-26.62 14.3-23.471 29.4 38.715 185.6 185.013 331.883 370.548 370.628 15.1 3.153 29.4-8.045 29.4-23.47v-60.955c0-11.252-7.906-20.67-18.835-23.346C346.5 908.7 242.264 802.735 211.39 668.353c-2.55-11.097-12.04-19.181-23.426-19.181zm680.12 144.044c-50.049 72.727-125.157 126.556-213.408 148.209-10.929 2.682-18.837 12.1-18.837 23.354v60.921c0 15.475 14.364 26.576 29.512 23.412 125.8-26.268 233.519-101.81 302.01-205.7 8.511-12.911 3.38-30.359-11.009-36.023l-59.439-23.4c-10.587-4.165-22.379-.146-28.829 9.227z"/></svg>