<svg xmlns="http://www.w3.org/2000/svg" width="1152" height="1152" viewBox="0 0 1152 1152"><title>GraphBarHorizontalAdd_24</title><rect x="96" y="96" width="96" height="1056" rx="24" ry="24"/><path d="M1008 144H240v192h768a48 48 0 0 0 48-48v-96a48 48 0 0 0-48-48zM624 384H240v192h374.156a382.323 382.323 0 0 1 56.32-40.482C670.9 532.969 672 530.666 672 528v-96a48 48 0 0 0-48-48zM432 624H240v192h192a48 48 0 0 0 48-48v-96a48 48 0 0 0-48-48zm-96 240h-96v192h96a48 48 0 0 0 48-48v-96a48 48 0 0 0-48-48zM578.4 864c0 157.733 127.867 285.6 285.6 285.6s285.6-127.867 285.6-285.6S1021.733 578.4 864 578.4 578.4 706.267 578.4 864zM900 672a12 12 0 0 1 12 12v132h132a12 12 0 0 1 12 12v72a12 12 0 0 1-12 12H912v132a12 12 0 0 1-12 12h-72a12 12 0 0 1-12-12V912H684a12 12 0 0 1-12-12v-72a12 12 0 0 1 12-12h132V684a12 12 0 0 1 12-12h72z"/></svg>