<svg xmlns="http://www.w3.org/2000/svg" width="1152" height="1152" viewBox="0 0 1152 1152"><title>GraphDonutAdd_24</title><path d="M441.3 378.023a238.215 238.215 0 0 1 68.6-32.719c10.5-3.059 18.094-12.129 18.094-23.086V126c0-14.566-13.008-26.332-27.4-24.047C408 116.6 324.422 157.945 257.461 217.582c-10.922 9.738-9.984 27.293 1.43 36.469l153.3 123.41c8.465 6.809 20.184 6.727 29.109.562zM157.523 341.156A477.039 477.039 0 0 0 96 576c0 239.461 175.359 437.918 404.648 474.07 11.016 1.734 21.07-4.8 25.242-14.484A373.092 373.092 0 0 1 490.664 799.5C400.43 765 336 678.352 336 576a234.186 234.186 0 0 1 17.906-89.156c4.125-10.078 1.711-21.586-6.773-28.406l-153.61-123.657c-11.414-9.187-28.804-6.386-36 6.375zM866.391 578.4C708.656 578.4 580.8 706.266 580.8 864s127.852 285.6 285.586 285.6S1151.977 1021.758 1152 864.059v-.117c-.023-157.7-127.875-285.542-285.609-285.542zm192 321.6a12 12 0 0 1-12 12h-132v132a12 12 0 0 1-12 12h-72a12.016 12.016 0 0 1-12-12V912h-132a12.016 12.016 0 0 1-12-12v-72a12.008 12.008 0 0 1 12-12h132V684a12.008 12.008 0 0 1 12-12h72a11.993 11.993 0 0 1 12 12v132h132a11.993 11.993 0 0 1 12 12v72zM798.984 488.7a375.965 375.965 0 0 1 255 43.219c-19.969-219.375-187.57-396.07-402.633-429.984C636.984 99.668 624 111.4 624 125.953V322.2c0 10.969 7.594 20.051 18.141 23.074 72.07 20.609 129.75 74.351 156.843 143.426z"/></svg>