<svg xmlns="http://www.w3.org/2000/svg" width="1152" height="1152" viewBox="0 0 1152 1152"><title>GraphPie_24</title><path d="M96 576c0 239.459 175.353 437.916 404.65 474.064 14.378 2.267 27.35-9.463 27.35-24.019V614.178a24 24 0 0 0-10.533-19.866L176.733 363.33c-12.018-8.147-28.894-4.062-35.084 9.072A476.086 476.086 0 0 0 96 576zm134.856-291.968l259.677 176.041A24 24 0 0 0 528 440.207V126.023c0-14.579-13.03-26.348-27.43-24.07C393 118.974 297.553 171.936 226.318 247.912c-9.966 10.631-7.523 27.943 4.538 36.12zm420.494-182.1C636.972 99.669 624 111.4 624 125.954v424.593l1.219.832L624 553.2v472.85c0 14.555 12.972 26.285 27.35 24.019C880.647 1013.916 1056 815.459 1056 576S880.647 138.084 651.35 101.936z"/></svg>