<svg xmlns="http://www.w3.org/2000/svg" width="1152" height="1152" viewBox="0 0 1152 1152"><title>GraphConfidenceBands_24</title><path d="M911.016 400.781l-46.125 13.172a35.992 35.992 0 0 0 9.891 70.594 34.774 34.774 0 0 0 9.891-1.406l46.127-13.172a35.98 35.98 0 0 0-19.784-69.188zM724.547 485.906l-33.937 33.938a36 36 0 1 0 50.906 50.906l33.938-33.937a36 36 0 0 0-50.907-50.907zM0 696.234l256.406-256.359 214.875 53.719a36.349 36.349 0 0 0 34.172-9.469L734.578 255 1152 98.461v-76.9L702 190.313a35.366 35.366 0 0 0-12.8 8.25L468.938 418.781l-214.875-53.718a36.118 36.118 0 0 0-34.172 9.469L0 594.422v101.812zM1095.656 348l-46.172 13.172a36.01 36.01 0 0 0 9.891 70.641 36.433 36.433 0 0 0 9.891-1.359l46.172-13.172A36.025 36.025 0 0 0 1095.656 348zM588.8 621.656l-33.984 33.984a36 36 0 1 0 50.906 50.906l33.978-33.983a36 36 0 0 0-50.9-50.907zM492.516 670.594L453.422 642.7a35.991 35.991 0 1 0-41.813 58.6l39.091 27.888a35.991 35.991 0 0 0 41.816-58.594zM55.781 878.344a36 36 0 0 0-48.469-53.25L0 831.738v88.032a35.858 35.858 0 0 0 20.25-9.129zM1152 653.508l-384.562 62.976a36.288 36.288 0 0 0-19.547 10.078l-264 263.953-151.125-201.468a36.119 36.119 0 0 0-24.609-14.156A36.973 36.973 0 0 0 280.922 783L0 1017.117v93.762l297.938-248.285 153.281 204.328a35.914 35.914 0 0 0 26.25 14.3 36.81 36.81 0 0 0 27.984-10.453l285.188-285.144L1152 726.492v-72.984z"/><path d="M291.422 566.766l-35.531 32.3a36 36 0 0 0 48.469 53.25l35.531-32.3a36 36 0 0 0-48.469-53.25zM149.344 695.953l-35.484 32.3a36 36 0 0 0 48.469 53.25l35.484-32.3a36 36 0 0 0-48.469-53.25z"/></svg>