<svg xmlns="http://www.w3.org/2000/svg" width="1152" height="1152" viewBox="0 0 1152 1152"><title>Group_24</title><path d="M1056 240v-96a48 48 0 0 0-48-48h-96a48 48 0 0 0-48 48H288a48 48 0 0 0-48-48h-96a48 48 0 0 0-48 48v96a48 48 0 0 0 48 48v576a48 48 0 0 0-48 48v96a48 48 0 0 0 48 48h96a48 48 0 0 0 48-48h576a48 48 0 0 0 48 48h96a48 48 0 0 0 48-48v-96a48 48 0 0 0-48-48V288a48 48 0 0 0 48-48zM912 864a48 48 0 0 0-48 48H288a48 48 0 0 0-48-48V288a48 48 0 0 0 48-48h576a48 48 0 0 0 48 48v576z"/><path d="M720 432v-48a48 48 0 0 0-48-48H384a48 48 0 0 0-48 48v288a48 48 0 0 0 48 48h48V432h288z"/><path d="M768 480H480v288a48 48 0 0 0 48 48h240a48 48 0 0 0 48-48V528a48 48 0 0 0-48-48z"/></svg>