<svg xmlns="http://www.w3.org/2000/svg" width="1152" height="1152" viewBox="0 0 1152 1152"><title>Hammer_24</title><path d="M362.49 129.147l-167.5 167.5a48 48 0 0 0 .128 68.009l11.33 10.886-49.774 51.855s-23.414-23.844-45.921-1.337l-51.1 51.1a24 24 0 0 0 0 33.941L195.129 646.57a24 24 0 0 0 33.941 0l51.109-51.109c18.748-18.748-.767-45.327-.767-45.327l52.468-50.607a48 48 0 0 0 67.443-.433l28.556-28.556 556.182 556.182a48 48 0 0 0 67.882 0l45.06-45.06a48 48 0 0 0 0-67.882l-556.18-556.183 18.61-18.61a48 48 0 0 0 0-67.882l-22.53-22.53s66.307-74.433 80.24-88.366c58.589-58.589 188.292-20.824 194.292-50.824S523.433-31.8 362.49 129.147z"/></svg>