<svg xmlns="http://www.w3.org/2000/svg" width="1152" height="1152" viewBox="0 0 1152 1152"><title>Hand_24</title><path d="M1028.742 338.61c-32.672-10.055-68.625 15.091-83.813 45.715l-94.1 145.368c-6.867 13.828-24.492 26.692-37.008 21.261s-15.984-20.045-9.656-43.526L849.4 241.714a68.618 68.618 0 0 0-59.719-86.139c-33.984-3.483-64.781 21.006-73.664 54.006l-43.079 247.734s-3.141 32.18-28.781 31.063-22.857-34.007-22.857-34.007v-289.8a68.566 68.566 0 1 0-137.133 0v288.6c0 18.108-27.562 17.66-32.672 2.786-23.6-68.81-75.445-224.476-75.445-224.476-11.016-32.355-43.312-54.812-77.016-49.143a68.633 68.633 0 0 0-54.023 89.821l93.422 271.7a230.557 230.557 0 0 1 8.578 36.888s11.133 41.824-25.711 62.874c-13.336 7.62-140.648-89.815-150.891-94.421-59.6-34.515-97.2-19.913-113.555-.524-18.867 22.348-5.719 59.045 21.516 87.316l200.649 227.78a306.228 306.228 0 0 1 32.2 44c15.217 25.147 33.287 52.964 47.228 68.228 48 52.57 116.016 80 217.125 80 127.641 0 222.328-48.794 256.008-128 22.852-66.284 44.484-155.751 54.867-186.876 6.773-20.347 172.945-311.8 172.945-311.8 18.475-37.276 10.952-77.899-30.65-90.714z"/></svg>