<svg xmlns="http://www.w3.org/2000/svg" width="1152" height="1152" viewBox="0 0 1152 1152"><title>Hand4_24</title><path d="M796.031 550.676L849.4 241.711a68.615 68.615 0 0 0-59.719-86.133c-33.984-3.486-64.781 21-73.664 54l-38.7 226.351s-4.565 32.7-27.741 32.7c-14.324 0-28.27-7.272-28.27-36.624V164.566a68.566 68.566 0 1 0-137.133 0V432s1.617 28.957-9.469 33.152c-8.508 2.953-20.016.082-23.2-9.2-23.6-68.807-75.445-224.473-75.445-224.473-11.016-32.355-43.312-54.809-77.016-49.143a68.632 68.632 0 0 0-54.023 89.818l93.422 271.7a230.705 230.705 0 0 1 8.578 36.891s11.133 41.824-25.711 62.871c-5.18 2.965-25.945-6.645-49.312-19.453-42.75-31.184-86.555-65.971-86.555-65.971-68.578-46.67-110.859-30.521-128.578-9.521-18.867 22.348-5.719 59.045 21.516 87.316L254.039 835.5c10.289 12.422 25.711 30.615 44.672 51.135 16.734 28.811 41.7 69.615 59.742 89.361 48 52.57 116.016 80 217.125 80 .07 0 .117-.012.164-.012s.07.012.117.012c.422 0 .844-.076 1.266-.076 83.508-.264 152.344-21.744 199.523-58.717 33.8-23.654 59.508-52.793 73.289-85.207 23.555-68.273 43.242-143.074 50.578-176.057 14.11-63.539 7.735-119.439-104.484-185.263z"/></svg>