<svg xmlns="http://www.w3.org/2000/svg" width="1152" height="1152" viewBox="0 0 1152 1152"><title>Hand1_24</title><path d="M857.156 621.428c-15.328-8.654-31.641-79.1-93.82-79.1-3.187 0-12.375.791-16.758-2.01-3.867-2.479-13.875-72.012-81.891-72.012-10.242 0-40.453-.246-46.2-3.334-4.172-2.256-21.773-51.639-78.211-51.639-6.445 0-38.531 7.242-39.516 7.242-34.992 0-46.219-34.723-100.711-21.9C338.32 413.2 336 487.605 336 527.027c0 7.84 0 40.7-6.422 70.781-2.32 12.5-8.859 26.766-26.039 36.574-13.336 7.617-118.1-76.189-118.1-76.189-68.578-46.67-110.859-30.521-128.578-9.521-18.867 22.348-5.719 59.045 21.516 87.316L254.039 835.5c45.547 54.983 187.8 220.5 321.82 220.5 131.461 0 239.391-62.42 274.078-144 23.555-68.273 43.242-143.074 50.578-176.057 14.11-63.543-21.984-102.443-43.359-114.515z"/></svg>