<svg xmlns="http://www.w3.org/2000/svg" width="1152" height="1152" viewBox="0 0 1152 1152"><title>Hand3_24</title><path d="M857.156 621.428c-15.328-8.654-31.641-79.1-93.82-79.1-3.187 0-12.375.791-16.758-2.01-3.867-2.479-13.875-72.012-81.891-72.012-9.375 0-43.383 7.38-43.383-36.3v-267.44a68.566 68.566 0 1 0-137.133 0V432s1.616 28.955-9.469 33.152c-8.508 2.953-20.016.082-23.2-9.2-23.6-68.807-75.445-224.473-75.445-224.473-11.016-32.355-43.312-54.809-77.016-49.143a68.632 68.632 0 0 0-54.023 89.818l93.422 271.7a230.705 230.705 0 0 1 8.578 36.891s11.133 41.824-25.711 62.871c-5.18 2.965-25.945-6.645-49.312-19.453-42.75-31.184-86.555-65.971-86.555-65.971-68.578-46.67-110.859-30.521-128.578-9.521-18.867 22.348-5.719 59.045 21.516 87.316L254.039 835.5c10.289 12.422 25.711 30.615 44.672 51.135 16.734 28.811 41.7 69.615 59.742 89.361 48 52.57 116.016 80 217.125 80 .07 0 .117-.012.164-.012s.07.012.117.012c.422 0 .844-.076 1.266-.076 83.508-.264 152.344-21.744 199.523-58.717 33.8-23.654 59.508-52.793 73.289-85.207 23.555-68.273 43.242-143.074 50.578-176.057 14.11-63.539-21.984-102.439-43.359-114.511z"/></svg>