<svg xmlns="http://www.w3.org/2000/svg" width="1152" height="1152" viewBox="0 0 1152 1152"><title>Hand0_24</title><path d="M857.105 617.946c-15.891-8.978-32.793-82.03-97.292-82.03-3.294 0-12.832.82-17.371-2.087-4.005-2.566-14.4-74.672-84.92-74.672-10.62 0-41.964-.255-47.909-3.461-4.338-2.339-22.591-53.55-81.107-53.55-6.693 0-39.975 7.505-40.976 7.505-36.3 0-47.938-36-104.452-22.7-64.008 15.061-66.435 92.217-66.435 133.107 0 19.335-60.9 85.431-60.9 85.431a161.641 161.641 0 0 0-15.914 149.191C269.843 830.67 339.648 1056 576.2 1056c136.315 0 237.451-52.116 273.421-136.717 24.428-70.8 44.846-148.372 52.45-182.579 14.652-65.904-22.804-106.237-44.966-118.758z"/></svg>