<svg xmlns="http://www.w3.org/2000/svg" data-name="S_Heal_24_N@2x" height="48" id="S_Heal_24_N_2x" viewBox="0 0 48 48" width="48"><defs><style>.fill{fill:#707070}</style></defs><title>S_Heal_24_N@2x</title><path class="fill" d="M43.637 4.363a8 8 0 0 0-11.314 0l-8.608 8.608L4.363 32.324a8 8 0 1 0 11.313 11.313l7.93-7.93 20.031-20.031a8 8 0 0 0 0-11.313zM29.625 20.508a2.933 2.933 0 1 1-2.933 2.933 2.933 2.933 0 0 1 2.933-2.933zm-5.062-5.062a2.933 2.933 0 1 1-2.933 2.933 2.933 2.933 0 0 1 2.933-2.933zM24 26.133a2.933 2.933 0 1 1-2.933 2.933A2.933 2.933 0 0 1 24 26.133zm-5.062-5.062A2.933 2.933 0 1 1 16 24a2.933 2.933 0 0 1 2.933-2.929z"/></svg>