<svg id="Help-Circle_24" xmlns="http://www.w3.org/2000/svg" width="1152" height="1152" viewBox="0 0 1152 1152"><defs><style/></defs><title>Help-Circle_24</title><path d="M576 98.4C312.229 98.4 98.4 312.229 98.4 576s213.829 477.6 477.6 477.6 477.6-213.834 477.6-477.6S839.771 98.4 576 98.4zm-1.5 813.287c-39.275 0-68.742-25.535-68.742-68.742 0-41.256 29.467-67.764 68.742-67.764 41.232 0 68.742 28.471 68.742 67.764 0 41.229-25.532 68.739-68.742 68.739zm36.34-274.969c0 17.678 6.87 33.381 17.66 52.043 1.978 3.932 0 7.852-4.9 7.852h-86.418c-4.913 0-6.873 0-11.786-4.9-17.681-19.658-25.532-47.145-25.532-66.785 0-78.574 128.637-126.68 128.637-205.248 0-38.3-31.427-71.678-91.318-71.678-49.1 0-84.463 9.809-118.825 24.551-3.935 1.957-6.873 0-6.873-3.937v-77.569c0-3.937 0-7.852 3.917-9.832 24.551-11.789 73.655-30.445 146.335-30.445 114.888 0 188.546 65.807 188.546 160.078-.002 108.017-139.443 169.886-139.443 225.867z"/></svg>