<svg xmlns="http://www.w3.org/2000/svg" data-name="S_History_24_N@2x" height="48" id="S_History_24_N_2x" viewBox="0 0 48 48" width="48"><defs><style>.fill{fill:#707070}</style></defs><title>S_History_24_N@2x</title><path class="fill" d="M26 22.086V11a1 1 0 0 0-1-1h-2a1 1 0 0 0-1 1v12.586a1 1 0 0 0 .293.707l6.3 6.3a1 1 0 0 0 1.414 0l1.336-1.336a1 1 0 0 0 0-1.414l-5.054-5.054a1 1 0 0 1-.289-.703z"/><path class="fill" d="M24.647 4A20 20 0 0 0 5.182 18H1.25a.5.5 0 0 0-.4.8l5.4 7.2 7.15-7.146a.5.5 0 0 0-.358-.854H9.215a16.2 16.2 0 1 1 3.933 17.787.493.493 0 0 0-.69.005l-1.987 1.987a.507.507 0 0 0 0 .722 20 20 0 0 0 33.75-15.586A20.14 20.14 0 0 0 24.647 4z"/></svg>