<svg xmlns="http://www.w3.org/2000/svg" data-name="S_Home_24_N@2x" height="48" id="S_Home_24_N_2x" viewBox="0 0 48 48" width="48"><defs><style>.fill{fill:#707070}</style></defs><title>S_Home_24_N@2x</title><path class="fill" d="M46.669 24.544L25.456 3.331a2 2 0 0 0-2.828 0L1.414 24.544a2 2 0 0 0 0 2.828l2.042 2.042A2 2 0 0 0 4.87 30H6v12a2 2 0 0 0 2 2h9a1 1 0 0 0 1-1V27a1 1 0 0 1 1-1h10a1 1 0 0 1 1 1l.037 16a1 1 0 0 0 1 1H40a2 2 0 0 0 2-2V30h1.213a2 2 0 0 0 1.414-.586l2.042-2.042a2 2 0 0 0 0-2.828z"/></svg>