<svg xmlns="http://www.w3.org/2000/svg" width="1152" height="1152" viewBox="0 0 1152 1152"><title>ImageNext_24</title><path d="M542.256 441.693A74.256 74.256 0 1 1 468 367.387a74.33 74.33 0 0 1 74.256 74.306zM952.055 761.329L1152 552 952.055 343.011C936.609 329.112 912 340.072 912 360.85V480H636a12 12 0 0 0-12 12v120a12 12 0 0 0 12 12h276v119.49c0 20.778 24.609 31.738 40.055 17.839z"/><path d="M816 384V240a48 48 0 0 0-48-48H48a48 48 0 0 0-48 48v672a48 48 0 0 0 48 48h720a48 48 0 0 0 48-48V720h-96v79.453c-46.078-48.82-123.352-111.475-160.359-110-57.82 0-84 96.146-162.07 96.146-52.852 0-80.789-180.457-140.109-180.457S155.484 686.086 96 760.7V288h624v96h96z"/></svg>