<svg xmlns="http://www.w3.org/2000/svg" width="1152" height="1152" viewBox="0 0 1152 1152"><title>ImageMapRectangle_24</title><path d="M1032 384a23.994 23.994 0 0 0 24-24V120a23.994 23.994 0 0 0-24-24H792a23.994 23.994 0 0 0-24 24v72H384v-72a23.994 23.994 0 0 0-24-24H120a23.994 23.994 0 0 0-24 24v240a23.994 23.994 0 0 0 24 24h72v384h-72a23.994 23.994 0 0 0-24 24v240a23.994 23.994 0 0 0 24 24h240a23.994 23.994 0 0 0 24-24v-72h384v72a23.994 23.994 0 0 0 24 24h240a23.994 23.994 0 0 0 24-24V792a23.994 23.994 0 0 0-24-24h-72V384h72zM192 192h96v96h-96v-96zm96 768h-96v-96h96v96zm480-168v72H384v-72a23.994 23.994 0 0 0-24-24h-72V384h72a23.994 23.994 0 0 0 24-24v-72h384v72a23.994 23.994 0 0 0 24 24h72v384h-72a23.994 23.994 0 0 0-24 24zm192 168h-96v-96h96v96zm-96-672v-96h96v96h-96z"/></svg>