<svg xmlns="http://www.w3.org/2000/svg" width="1152" height="1152" viewBox="0 0 1152 1152"><title>ImageMapPolygon_24</title><path d="M1128 0H888a23.994 23.994 0 0 0-24 24v179.473l-144 64V264a23.994 23.994 0 0 0-24-24H456a23.994 23.994 0 0 0-24 24v38.824l-144-32V120a23.994 23.994 0 0 0-24-24H24a23.994 23.994 0 0 0-24 24v240a23.994 23.994 0 0 0 24 24h99.328l118.149 384H216a23.994 23.994 0 0 0-24 24v240a23.994 23.994 0 0 0 24 24h240a23.994 23.994 0 0 0 24-24v-95.332l288-48.012V936a23.994 23.994 0 0 0 24 24h240a23.994 23.994 0 0 0 24-24V696a23.994 23.994 0 0 0-24-24h-49.289l59.089-384h86.2a23.994 23.994 0 0 0 24-24V24a23.994 23.994 0 0 0-24-24zM528 336h96v96h-96v-96zm-336-48H96v-96h96v96zm192 672h-96v-96h96v96zm384-264v95.344l-288 47.988V792a23.994 23.994 0 0 0-24-24H341.906L223.734 384H264a23.89 23.89 0 0 0 22.219-15.217L432 401.18V504a23.994 23.994 0 0 0 24 24h240a23.994 23.994 0 0 0 24-24V372.527L910.172 288h34.5l-59.063 384H792a23.994 23.994 0 0 0-24 24zm192 168h-96v-96h96v96zm96-672h-96V96h96v96z"/></svg>