<svg xmlns="http://www.w3.org/2000/svg" data-name="S_ImageText_24_N@2x" height="48" id="S_ImageText_24_N_2x" viewBox="0 0 48 48" width="48"><defs><style>.fill{fill:#707070}</style></defs><title>S_ImageText_24_N@2x</title><circle class="fill" cx="27.5" cy="14.404" r="3.094"/><path class="fill" d="M24 28.573c-2.156-1.044-5-7.358-7.273-7.358-2.471 0-6.249 3.373-8.727 6.481V8h32v12h4V6a2 2 0 0 0-2-2H6a2 2 0 0 0-2 2v28a2 2 0 0 0 2 2h18z"/><path class="fill" d="M29 24a1 1 0 0 0-1 1v6a1 1 0 0 0 1 1h2a1 1 0 0 0 1-1v-3h4v12h-3a1 1 0 0 0-1 1v2a1 1 0 0 0 1 1h10a1 1 0 0 0 1-1v-2a1 1 0 0 0-1-1h-3V28h4v3a1 1 0 0 0 1 1h2a1 1 0 0 0 1-1v-6a1 1 0 0 0-1-1z"/></svg>