<svg xmlns="http://www.w3.org/2000/svg" width="1152" height="1152" viewBox="0 0 1152 1152"><title>ImageProfile_24</title><path d="M1104 144H48a48 48 0 0 0-48 48v768a48 48 0 0 0 48 48h1056a48 48 0 0 0 48-48V192a48 48 0 0 0-48-48zm-48 768H927.164c-32.953-52.887-96.464-104.824-215.473-116.906-19.043-1.934-31.887-19.348-31.887-36.979v-53.379c0-8.766 3.563-16.9 9.4-23.824 39.563-46.9 64.113-112.98 64.113-175.916 0-133.125-70.605-207.516-177.281-207.516S396.738 374.8 396.738 505c0 62.936 27.621 129.012 67.172 175.91 5.848 6.926 9.41 15.059 9.41 23.83v53.145c0 17.672-12.879 35.338-31.992 37C318.645 805.559 255.551 858.129 223.758 912H96V240h960v672z"/></svg>