<svg xmlns="http://www.w3.org/2000/svg" data-name="S_ImageCarousel_24_N@2x" height="48" id="S_ImageCarousel_24_N_2x" viewBox="0 0 48 48" width="48"><defs><style>.fill{fill:#707070}</style></defs><title>S_ImageCarousel_24_N@2x</title><rect class="fill" height="28" rx="2" ry="2" width="28" x="10" y="4"/><path class="fill" d="M2 28h4V8H2a2 2 0 0 0-2 2v16a2 2 0 0 0 2 2zM46 28h-4V8h4a2 2 0 0 1 2 2v16a2 2 0 0 1-2 2z"/><circle class="fill" cx="20" cy="42" r="3"/><circle class="fill" cx="28" cy="42" r="2.25"/><circle class="fill" cx="12" cy="42" r="2.25"/><circle class="fill" cx="36" cy="42" r="2.25"/></svg>