<svg xmlns="http://www.w3.org/2000/svg" width="1152" height="1152" viewBox="0 0 1152 1152"><title>ImageMapCircle_24</title><path d="M1008 373.348V168a23.994 23.994 0 0 0-24-24H778.664a473.126 473.126 0 0 0-405.328 0H168a23.994 23.994 0 0 0-24 24v205.348a473.019 473.019 0 0 0 0 405.3V984a23.994 23.994 0 0 0 24 24h205.336a473.126 473.126 0 0 0 405.328 0H984a23.994 23.994 0 0 0 24-24V778.652a473.019 473.019 0 0 0 0-405.304zM816 240h96v96h-96v-96zm-576 0h96v96h-96v-96zm96 672h-96v-96h96v96zm576 0h-96v-96h96v96zM744 720a23.994 23.994 0 0 0-24 24v190.289a382.85 382.85 0 0 1-288 0V744a23.994 23.994 0 0 0-24-24H217.711a383 383 0 0 1 0-288H408a23.994 23.994 0 0 0 24-24V217.711a382.85 382.85 0 0 1 288 0V408a23.994 23.994 0 0 0 24 24h190.289a383 383 0 0 1 0 288H744z"/></svg>