<svg id="ImageAdd_24" xmlns="http://www.w3.org/2000/svg" width="1152" height="1152" viewBox="0 0 1152 1152"><defs><style/></defs><title>ImageAdd_24</title><path d="M830.256 393.693A74.256 74.256 0 1 1 756 319.387a74.33 74.33 0 0 1 74.256 74.306z"/><path d="M482.4 864a379.318 379.318 0 0 1 59.766-204.46c-65.742-66.187-143.4-150.4-169.9-150.4C338.484 509.145 155.473 638.086 96 712.7V240h960v294.6a382.8 382.8 0 0 1 96 79.559V192a48 48 0 0 0-48-48H48a48 48 0 0 0-48 48v768a48 48 0 0 0 48 48h462.727A380.2 380.2 0 0 1 482.4 864z"/><path d="M864 578.4c-157.733 0-285.6 127.867-285.6 285.6s127.867 285.6 285.6 285.6 285.6-127.871 285.6-285.6S1021.733 578.4 864 578.4zM1056 900a12 12 0 0 1-12 12H912v132a12 12 0 0 1-12 12h-72a12 12 0 0 1-12-12V912H684a12 12 0 0 1-12-12v-72a12 12 0 0 1 12-12h132V684a12 12 0 0 1 12-12h72a12 12 0 0 1 12 12v132h132a12 12 0 0 1 12 12v72z"/></svg>