<svg xmlns="http://www.w3.org/2000/svg" data-name="S_Inbox_24_N@2x" height="48" id="S_Inbox_24_N_2x" viewBox="0 0 48 48" width="48"><defs><style>.fill{fill:#707070}</style></defs><title>S_Inbox_24_N@2x</title><rect class="fill" height="4" rx="1" ry="1" width="32" x="8" y="20"/><rect class="fill" height="4" rx="1" ry="1" width="32" x="8" y="12"/><rect class="fill" height="4" rx="1" ry="1" width="32" x="8" y="4"/><path class="fill" d="M44 13v15h-6a2 2 0 0 0-2 2v4a2 2 0 0 1-2 2H14a2 2 0 0 1-2-2v-4a2 2 0 0 0-2-2H4V13a1 1 0 0 0-1-1H1a1 1 0 0 0-1 1v29a2 2 0 0 0 2 2h44a2 2 0 0 0 2-2V13a1 1 0 0 0-1-1h-2a1 1 0 0 0-1 1z"/></svg>