<svg xmlns="http://www.w3.org/2000/svg" width="1152" height="1152" viewBox="0 0 1152 1152"><title>Individual_24</title><rect x="480" y="480" width="192" height="192" rx="48" ry="48"/><path d="M888 432a23.994 23.994 0 0 0 24-24V264a23.994 23.994 0 0 0-24-24H744a23.994 23.994 0 0 0-24 24v24H432v-24a23.994 23.994 0 0 0-24-24H264a23.994 23.994 0 0 0-24 24v144a23.994 23.994 0 0 0 24 24h24v288h-24a23.994 23.994 0 0 0-24 24v144a23.994 23.994 0 0 0 24 24h144a23.994 23.994 0 0 0 24-24v-24h288v24a23.994 23.994 0 0 0 24 24h144a23.994 23.994 0 0 0 24-24V744a23.994 23.994 0 0 0-24-24h-24V432h24zM768 720h-24a23.994 23.994 0 0 0-24 24v24H432v-24a23.994 23.994 0 0 0-24-24h-24V432h24a23.994 23.994 0 0 0 24-24v-24h288v24a23.994 23.994 0 0 0 24 24h24v288z"/></svg>