<svg id="Info-Circle_24" xmlns="http://www.w3.org/2000/svg" width="1152" height="1152" viewBox="0 0 1152 1152"><defs><style/></defs><title>Info-Circle_24</title><path d="M576 98.4C312.231 98.4 98.4 312.234 98.4 576s213.831 477.6 477.6 477.6 477.6-213.834 477.6-477.6S839.769 98.4 576 98.4zm-7.2 148.77c41.232 0 68.742 28.477 68.742 67.77 0 41.238-25.532 68.742-68.742 68.742-39.275 0-68.742-25.535-68.742-68.742-.001-41.26 29.465-67.768 68.742-67.768zM672 840a24 24 0 0 1-24 24H504a24 24 0 0 1-24-24v-48a24 24 0 0 1 24-24h24V576h-24a24 24 0 0 1-24-24v-48a24 24 0 0 1 24-24h96a24 24 0 0 1 24 24v264h24a24 24 0 0 1 24 24v48z"/></svg>