<svg xmlns="http://www.w3.org/2000/svg" data-name="S_Info_24_N@2x" height="48" id="S_Info_24_N_2x" viewBox="0 0 48 48" width="48"><defs><style>.fill{fill:#707070}</style></defs><title>S_Info_24_N@2x</title><path class="fill" d="M24 4.1A19.9 19.9 0 1 0 43.9 24 19.9 19.9 0 0 0 24 4.1zm-.3 6.2a2.718 2.718 0 0 1 2.864 2.824 2.665 2.665 0 0 1-2.864 2.863 2.706 2.706 0 0 1-2.864-2.864A2.717 2.717 0 0 1 23.7 10.3zM28 35a1 1 0 0 1-1 1h-6a1 1 0 0 1-1-1v-2a1 1 0 0 1 1-1h1v-8h-1a1 1 0 0 1-1-1v-2a1 1 0 0 1 1-1h4a1 1 0 0 1 1 1v11h1a1 1 0 0 1 1 1z"/></svg>