<svg xmlns="http://www.w3.org/2000/svg" data-name="S_InfoOutline_24_N@2x" height="48" id="S_InfoOutline_24_N_2x" viewBox="0 0 48 48" width="48"><defs><style>.fill{fill:#707070}</style></defs><title>S_InfoOutline_24_N@2x</title><path class="fill" d="M24 7.9A16.1 16.1 0 1 1 7.9 24 16.118 16.118 0 0 1 24 7.9zm0-3.8A19.9 19.9 0 1 0 43.9 24 19.9 19.9 0 0 0 24 4.1z"/><path class="fill" d="M21.56 14.747a2.24 2.24 0 0 1 4.48 0 2.084 2.084 0 0 1-2.24 2.24 2.116 2.116 0 0 1-2.24-2.24zM27.5 32H26V21a1 1 0 0 0-1-1h-4.5a.5.5 0 0 0-.5.5v1a.5.5 0 0 0 .5.5H22v10h-1.5a.5.5 0 0 0-.5.5v1a.5.5 0 0 0 .5.5h7a.5.5 0 0 0 .5-.5v-1a.5.5 0 0 0-.5-.5z"/></svg>