<svg xmlns="http://www.w3.org/2000/svg" width="1152" height="1152" viewBox="0 0 1152 1152"><title>Key_24</title><path d="M1136.719 280.816L929.906 73.98a48.032 48.032 0 0 0-67.9 0L422.555 513.445A286.541 286.541 0 0 0 288 480C128.953 480 0 608.941 0 768s128.953 288 288 288 288-128.941 288-288a286.426 286.426 0 0 0-32.742-133.078l214.406-214.406L877.336 540.2a24 24 0 0 0 33.938 0l107.039-107.027L881.672 296.52l39.375-39.387 136.641 136.652 79.031-79.031a23.991 23.991 0 0 0 0-33.938zM240 912a96 96 0 1 1 96-96 96 96 0 0 1-96 96z"/></svg>