<svg xmlns="http://www.w3.org/2000/svg" width="1152" height="1152" viewBox="0 0 1152 1152"><title>Keyboard_24</title><rect x="240" y="624" width="624" height="144" rx="24" ry="24"/><rect y="624" width="192" height="144" rx="24" ry="24"/><rect x="912" y="624" width="192" height="144" rx="24" ry="24"/><rect y="432" width="240" height="144" rx="24" ry="24"/><rect x="864" y="432" width="240" height="144" rx="24" ry="24"/><rect y="240" width="144" height="144" rx="24" ry="24"/><rect x="288" y="432" width="144" height="144" rx="24" ry="24"/><rect x="480" y="432" width="144" height="144" rx="24" ry="24"/><rect x="672" y="432" width="144" height="144" rx="24" ry="24"/><rect x="192" y="240" width="144" height="144" rx="24" ry="24"/><rect x="384" y="240" width="144" height="144" rx="24" ry="24"/><rect x="576" y="240" width="144" height="144" rx="24" ry="24"/><rect x="768" y="240" width="144" height="144" rx="24" ry="24"/><rect x="960" y="240" width="144" height="144" rx="24" ry="24"/></svg>