<svg xmlns="http://www.w3.org/2000/svg" width="1152" height="1152" viewBox="0 0 1152 1152"><title>Launch_24</title><path d="M1074.032 59.067c-546.65 121.568-720.661 564.4-744.856 633.983a15.342 15.342 0 0 0 3.677 15.965l110.053 110.054a15.349 15.349 0 0 0 15.88 3.706c69.468-23.664 512.5-194.743 634.05-744.924 2.433-11.012-7.795-21.232-18.804-18.784zM276.725 609.671H74.334a15.38 15.38 0 0 1-13.483-22.965C107.3 505.856 280.313 239.239 542.2 239.239c-60.771 60.776-260.65 324.128-265.475 370.432zM542.2 875.147v202.617a15.377 15.377 0 0 0 22.862 13.541c80.725-45.591 347.57-216.359 347.57-481.635-60.771 60.777-324.126 260.653-370.432 265.477z" fill-rule="evenodd"/></svg>