<svg xmlns="http://www.w3.org/2000/svg" width="1152" height="1152" viewBox="0 0 1152 1152"><title>Lightbulb_24</title><path d="M921.609 339.614C921.539 157.286 766.6 9.533 575.537 9.6a361.935 361.935 0 0 0-69.377 6.732C348.591 54.351 236.239 187.07 230.409 342.069c0 174.681 157.437 267.353 157.437 425.931v48h376.308v-48c0-160.116 157.455-257.55 157.455-428.386zM384 912l.007 59.739a48 48 0 0 0 11.475 31.138l112.778 132.266A48 48 0 0 0 544.785 1152h62.447a48 48 0 0 0 36.525-16.857l112.774-132.262a48 48 0 0 0 11.475-31.149L768 912H384z"/></svg>