<svg xmlns="http://www.w3.org/2000/svg" width="1152" height="1152" viewBox="0 0 1152 1152"><title>LinkFacebook_24</title><path d="M480 885.258c-19.828 20.344-43.5 44.977-49.312 50.789a151.836 151.836 0 0 1-214.735-214.723c25.523-25.535 171.609-171.615 197.133-197.145 39.211-39.2 98.32-54.82 151.1-44.18h178.8c-8.953-13.354-18.727-26.3-30.516-38.1-103.758-103.77-276.141-102.012-379.9 1.752-23.664 23.681-173.476 173.47-197.148 197.149-103.758 103.758-103.758 272 0 375.773 94.055 94.055 240.609 101.941 344.578 25.477v-156.8zM647.789 287.93c19.242-19.242 65.578-64.031 73.523-71.982a151.838 151.838 0 0 1 214.735 214.728c-7.687 7.688-26.367 26.379-49.312 49.324h155.32c76.453-103.969 68.578-250.518-25.477-344.578-103.778-103.764-272.015-103.764-375.778 0-14.273 14.268-91.336 89.795-131.578 130.037a307.624 307.624 0 0 1 138.567 22.471z"/><path d="M480 596.977c-4.992-7.078-9.352-14.437-11.719-22.734a74.641 74.641 0 0 0-15.82 11.777l-60.586 63.387c11.977 22.16 26.719 43.219 45.422 61.945A226.73 226.73 0 0 0 480 744.8V596.977zM1107.445 576h-486.89A44.67 44.67 0 0 0 576 620.543v486.914A44.67 44.67 0 0 0 620.555 1152h266.461V934.172h-84.7v-89.484h84.7v-81.235a113.729 113.729 0 0 1 113.625-113.625l69.047 4.406V747.8H999.7a31.708 31.708 0 0 0-31.687 31.688v65.2h93.563l-.375 2.766-13.031 86.719h-80.154V1152h139.43a44.67 44.67 0 0 0 44.554-44.543V620.543A44.67 44.67 0 0 0 1107.445 576z"/></svg>