<svg xmlns="http://www.w3.org/2000/svg" width="1152" height="1152" viewBox="0 0 1152 1152"><title>LinkGlobe_24</title><path d="M766.46 891.473c44.442 66.142 111.813 167.686 76.094 258.725a123.179 123.179 0 0 1-18.654-2.957c-100.147-21.232-241.936-118.161-241.936-280.811 0-90.279 43.821-176.631 116.64-230.015 4.754 57.764-43.477 86.86-24.792 154.458 21.988 79.569 55.636 45.507 92.648 100.6zm364.94-6.673c-28.745-10.943-53.4 26.328-55.585-74.333-.593-27.233 10.15-47.933 29.749-71.4a54.977 54.977 0 0 1 13.011-6.225c-3.408-6.23-7.217-12.209-11.065-18.164-.667.346-1.262.791-1.946 1.109-22.313 10.411-25.4 13.479-35.7 0-14.754-19.31-2.059-34.515 6.177-41.516-52.5-56.668-126.828-93.072-208.014-93.2 36.2.5 79.373 27.3 57.357 70.132 3.308-6.8-71.882-23.027-82.1-23.027-13.782 0 28.126-51.567 24.282-47.1a287.021 287.021 0 0 0-118.073 25.4c19.506 12.607 41.254 8.2 63.246 13.638 4.713.545 11.091 3.011 19.606 8.067a66 66 0 0 0-19.606-8.067c-32.449-3.761 15.7 85.276 13.882 73.431 8.884-40.912 64.478-56.7 81.5-2.621 1.532 4.473-2.791 24.446-14.952 40.431-25.174 33.094-30.277 92-42.84 76.93-117.638-48.17-104.692 15.549-66.079 58.148 61.819 68.193 30.453 6.99 111.423 42.695 65.116 28.71 143.484 35.506 124.362 57.158C962.174 1031.8 974.339 1075.216 872 1152c8.524-.231 35.678-2.944 41.254-3.852C1040.106 1127.5 1140.4 1018.6 1152 891.087c-6.012-.032-12.838-1.922-20.6-6.287zM647.795 286.172c19.239-19.239 65.572-64.028 73.529-71.982a151.836 151.836 0 1 1 214.729 214.728L882.1 482.871a382.1 382.1 0 0 1 131.578 29.467l2.9-2.9c103.767-103.767 103.767-272.007 0-375.773s-272.01-103.767-375.776 0c-14.268 14.267-91.342 89.794-131.584 130.035a307.666 307.666 0 0 1 138.577 22.472z"/><path d="M481.386 882.076c-20.092 20.6-44.754 46.26-50.71 52.216a151.836 151.836 0 0 1-214.729-214.729c25.538-25.535 171.615-171.612 197.145-197.145 59.3-59.3 164.5-65.994 223.8-6.7a225.565 225.565 0 0 1 22.893 26.142 382.072 382.072 0 0 1 95.965-43.605c-11.572-20.748-25.641-40.479-43.277-58.116C608.707 336.375 436.336 338.13 332.569 441.9c-23.675 23.678-173.47 173.47-197.145 197.145-103.767 103.767-103.767 272.01 0 375.776 103.67 103.67 271.7 103.761 375.486.284a382.2 382.2 0 0 1-29.524-133.029z"/><path d="M514.228 632.675c-18.835-18.835-39.088-36.281-45.958-60.187a74.99 74.99 0 0 0-15.817 11.771l-60.565 63.393c11.962 22.154 26.7 43.222 45.419 61.945a228.636 228.636 0 0 0 60.779 43.362 382.244 382.244 0 0 1 46.239-97.746 133.764 133.764 0 0 1-30.097-22.538z"/></svg>