<svg xmlns="http://www.w3.org/2000/svg" width="1152" height="1152" viewBox="0 0 1152 1152"><title>LinkOff_24</title><path d="M356.354 304.746l-47.867 46.06-170.508-167.67 47.866-46.06 170.509 167.67zM1017.633 968.864l-47.866 46.06L800.18 844.231l47.867-46.06 169.586 170.693zM353.829 57.6h74.057v148.114h-74.057zM57.6 353.829h148.114v74.057H57.6zM946.286 724.114H1094.4v74.057H946.286zM724.114 946.286h74.057V1094.4h-74.057zM1010.281 141.71C908 39.429 742.158 39.429 639.873 141.71c-9.8 9.8-106.263 105.517-157.1 155.925l79.49 79.481c52.406-51.981 152.381-151.423 156.983-156.033a149.669 149.669 0 0 1 211.662 211.666c-11.44 11.445-104.7 104.7-156.508 156.5l79.373 79.373c51.515-51.511 145.33-145.312 156.508-156.5 102.285-102.28 102.285-268.114 0-370.412zM588.692 773.835c-51.637 52.144-151.256 152.381-155.939 157.082a149.669 149.669 0 0 1-211.661-211.666c11.427-11.427 104.681-104.685 156.5-156.522l-79.373-79.373c-52.18 52.18-145.9 145.908-156.5 156.522-102.285 102.281-102.285 268.114 0 370.412 102.285 102.281 268.123 102.281 370.408 0 10.044-10.053 105.634-106.529 155.8-157.227z"/></svg>