<svg xmlns="http://www.w3.org/2000/svg" data-name="S_LinkedIn_24_N@2x" height="48" id="S_LinkedIn_24_N_2x" viewBox="0 0 48 48" width="48"><defs><style>.fill{fill:#707070}</style></defs><title>S_LinkedIn_24_N@2x</title><path class="fill" d="M41.039 4H6.952A2.919 2.919 0 0 0 4 6.883v34.231A2.921 2.921 0 0 0 6.952 44h34.087A2.927 2.927 0 0 0 44 41.114V6.883A2.925 2.925 0 0 0 41.039 4zM15.864 38.085H9.931V19h5.933zM12.9 16.387a3.44 3.44 0 1 1 3.438-3.44 3.44 3.44 0 0 1-3.438 3.44zm25.186 21.7h-5.93V28.8c0-2.213-.041-5.061-3.083-5.061-3.087 0-3.561 2.411-3.561 4.9v9.443h-5.927V19h5.69v2.6h.079a6.234 6.234 0 0 1 5.613-3.083c6.008 0 7.117 3.954 7.117 9.093z"/></svg>