<svg xmlns="http://www.w3.org/2000/svg" width="1152" height="1152" viewBox="0 0 1152 1152"><title>LinkUser_24</title><path d="M904.747 890.824v-46.621c0-7.655 3.113-14.763 8.212-20.808 34.551-40.961 55.99-98.678 55.99-153.644 0-116.272-61.669-181.247-154.839-181.247s-156.6 67.53-156.6 181.247c0 54.965 24.122 112.68 58.671 153.639 5.1 6.047 8.215 13.155 8.214 20.812v46.417c0 15.437-11.249 30.867-27.935 32.318C509.252 939.223 480 1067.279 480 1117.779c0 5.612.66 27.689 1.072 33.221h667.815s.582-27.608.582-33.221c0-48.4-33.066-175.995-216.878-194.66-16.625-1.688-27.843-16.892-27.844-32.295zM526.11 875.065c-9.056-2.786-18.094-5.675-26.912-9.328-19.239 19.239-60.565 62.358-68.522 70.313a151.836 151.836 0 0 1-214.729-214.729c25.538-25.535 171.615-171.612 197.145-197.145 51.565-51.562 137.783-63.226 198.4-26.437a234.256 234.256 0 0 1 79.649-73.151C586.321 340 429.727 346.5 332.569 443.654 308.895 467.332 159.1 617.124 135.425 640.8c-103.767 103.767-103.767 272.01 0 375.776 68.045 68.045 163.617 90.571 250.752 69.372 8.742-68.611 46.479-156.648 139.933-210.883z"/><path d="M514.228 634.433c-18.835-18.835-39.088-36.281-45.958-60.187a74.99 74.99 0 0 0-15.817 11.771l-60.565 63.393c11.962 22.154 26.7 43.222 45.419 61.945 39.369 39.369 90.85 61.386 145.233 67.983-13.169-36-21.023-73.4-21.023-109.588 0-1.74.384-3.284.407-5.016-17.585-6.799-33.986-16.59-47.696-30.301zM647.795 287.93c19.239-19.239 65.572-64.028 73.529-71.982a151.834 151.834 0 0 1 214.729 0c57.747 57.747 58.8 150.176 4.069 209.748a228.644 228.644 0 0 1 81.765 79c97.775-104.159 96.431-267.527-5.312-369.27-103.767-103.767-272.01-103.767-375.776 0-14.265 14.265-91.339 89.792-131.581 130.034a307.666 307.666 0 0 1 138.577 22.47z"/></svg>