<svg xmlns="http://www.w3.org/2000/svg" width="1152" height="1152" viewBox="0 0 1152 1152"><title>LinkPage_24</title><path d="M552 576h576a24 24 0 0 1 24 24v528a24 24 0 0 1-24 24H552a24 24 0 0 1-24-24V600a24 24 0 0 1 24-24zm504 144H624v336h432V720zM647.795 287.93c19.239-19.239 65.572-64.028 73.529-71.982a151.836 151.836 0 1 1 214.729 214.728c-7.693 7.69-26.382 26.382-49.324 49.324h155.332c76.456-103.972 68.572-250.518-25.485-344.575-103.767-103.767-272.01-103.767-375.776 0-14.265 14.265-91.339 89.792-131.581 130.034a307.666 307.666 0 0 1 138.576 22.471z"/><path d="M432 934.7c-.387.393-1.028 1.052-1.324 1.348a151.836 151.836 0 0 1-214.729-214.727c25.538-25.535 171.615-171.612 197.145-197.145 39.2-39.2 98.3-54.817 151.1-44.177h178.791c-8.938-13.354-18.706-26.3-30.51-38.1-103.767-103.767-276.138-102.012-379.9 1.755L135.425 640.8c-103.767 103.767-103.767 272.01 0 375.776 80.268 80.268 198.832 97.7 296.575 53.792V934.7z"/></svg>