<svg xmlns="http://www.w3.org/2000/svg" width="1152" height="1152" viewBox="0 0 1152 1152"><title>LinkCheck_24</title><path d="M483.188 881.994c-20.414 20.889-46.359 47.912-52.5 54.053a151.836 151.836 0 0 1-214.735-214.723c25.523-25.535 171.609-171.615 197.133-197.145 59.3-59.3 164.508-66 223.8-6.7a221.119 221.119 0 0 1 23.18 26.76 379.307 379.307 0 0 1 95.789-43.652c-11.625-20.924-25.617-40.91-43.383-58.682-103.758-103.77-276.141-102.012-379.9 1.752-23.666 23.675-173.478 173.464-197.15 197.143-103.758 103.764-103.758 272.01 0 375.779 103.781 103.764 272.016 103.764 375.773 0 .3-.3.984-1 1.336-1.348-17.461-41.174-27.445-86.163-29.343-133.237zM647.789 287.93c19.242-19.242 65.578-64.031 73.523-71.982a151.838 151.838 0 0 1 214.735 214.728l-54.984 54.984c46.547 2.063 91.031 11.994 131.766 29.273l3.75-3.738c103.758-103.764 103.758-272 0-375.773-103.779-103.764-272.016-103.764-375.779 0-14.273 14.268-91.336 89.795-131.578 130.037a307.624 307.624 0 0 1 138.567 22.471z"/><path d="M545.273 656.818c-11.156-6.076-21.82-13.148-31.055-22.389-18.82-18.832-39.07-36.281-45.937-60.187a74.442 74.442 0 0 0-15.82 11.777l-60.586 63.387c11.977 22.16 26.719 43.225 45.422 61.945a228.718 228.718 0 0 0 61.734 43.594 380.389 380.389 0 0 1 46.242-98.127zM864 578.4c-157.734 0-285.6 127.869-285.6 285.6s127.866 285.6 285.6 285.6 285.6-127.869 285.6-285.6S1021.734 578.4 864 578.4zm-53.485 475.118L663.329 906.329a12 12 0 0 1 0-16.971l42.279-42.279a12 12 0 0 1 16.971 0L816 940.5l214.546-214.546a12 12 0 0 1 16.971 0l45.279 45.279a12 12 0 0 1 0 16.971l-265.311 265.311a12 12 0 0 1-16.97 0z"/></svg>