<svg xmlns="http://www.w3.org/2000/svg" width="1152" height="1152" viewBox="0 0 1152 1152"><title>LinkNav_24</title><rect x="576" y="576" width="576" height="96" rx="24" ry="24"/><rect x="576" y="768" width="576" height="96" rx="24" ry="24"/><rect x="576" y="960" width="576" height="96" rx="24" ry="24"/><path d="M647.795 287.93c19.239-19.239 65.572-64.028 73.529-71.982a151.836 151.836 0 1 1 214.729 214.728L886.726 480h156.6c76.078-103.942 67.166-250.661-26.748-344.575-103.767-103.767-272.01-103.767-375.776 0-14.265 14.265-91.339 89.792-131.581 130.034a307.666 307.666 0 0 1 138.574 22.471zM480 885.255c-19.825 20.341-43.5 44.977-49.324 50.795a151.836 151.836 0 0 1-214.729-214.729c25.538-25.535 171.615-171.612 197.145-197.145C452.938 484.333 513.5 468.284 566.941 480h176.62a250.164 250.164 0 0 0-31.087-38.1c-103.767-103.767-276.138-102.012-379.9 1.755C308.895 467.332 159.1 617.124 135.425 640.8c-103.767 103.767-103.767 272.01 0 375.776 93.911 93.91 240.633 102.824 344.575 26.75V885.255z"/><path d="M452.452 586.017l-60.565 63.393c11.962 22.154 26.7 43.222 45.419 61.945A226.24 226.24 0 0 0 480 744.806V597.6a76.571 76.571 0 0 1-11.73-23.353 74.99 74.99 0 0 0-15.818 11.77z"/></svg>