<svg xmlns="http://www.w3.org/2000/svg" width="1152" height="1152" viewBox="0 0 1152 1152"><title>Linux_24</title><path d="M449.611 955.5s23-23-.023-55.652c-12.826-18.19-102.687-69.18-126.406-93.842 0 0-11.108-17.105-11.571-46.007-.251-15.64 6.963-54 11.5-80.5 18.507-109.249 114.348-233.044 113.45-280.3-.539-30.725 29.109 37.823 58.846 52.289 33.332 16.262 69.9-30.547 121.735-54.266 14.643-6.738 33.51-14.465 32.253-20.125-6.109-27.625-68.19 34.051-123.622 36.117-25.245.988-34.679-4.582-44.472-13.387-29.469-26.414 3.055-4.313 46.988-11.679 19.5-3.324 26.055-6.379 46.808-14.106 20.663-7.725 44.381-19.225 67.829-25.154 16.261-4.088 14.914-15.453 8.624-18.868-3.683-1.976-9.164-1.8-13.386 5.076-10.063 16.172-57.32 25.471-72.141 29.649-18.867 5.346-39.891 10.375-67.742 9.3-42.316-1.526-32.433-19.539-62.71-35.621-8.894-4.717-6.469-17.115 5.3-28.031 6.2-5.75 23.18-8.984 31.535-22.012 1.168-1.842 11.948-12.354 20.484-17.789 2.875-1.887 3.144-47.8-23.359-48.785-22.551-.854-25.516 13.342-24.528 29.469.9 16.127 6.738 29.469 12.847 29.379 11.769-.09.539 11.5-5.66 13.926-14.1 5.436-29.468-35.892-27.851-54.535 1.528-19.451 18.6-60.285 45.1-59.611 23.9.629 41.238 34.769 40.339 82.7-.09 8.131 38.722-3.863 51.749 8.805 9.254 9.119-31.894-94.2 59.654-100.715 24.077 4.313 58.425 25.278 60.732 72.459.312 6.384 2.066 41.193-12.757 45.461-18.149 5.211-34.589 3.908-24.077-12.129 7.187-16.082-.359-70.213-31.355-59.252-37.642 13.252-31.894 62.891-21.832 64.1s35.487 17.879 53.187 21.113c58.128 10.467 15.362 41.373 22.909 78.791C676.615 424 784.334 536.12 806.166 622.01c19.585 77.445-16.351 124.253-18.507 173.171-13.924.269-24.616 1.3-33.6 11.231-32.971 36.342-16.891 114.6-50.581 148.512-28.66 28.748-71.425 48.514-116.975 53.769-45.728 5.346-73.44-4.213-102.4-18.691-22.992-11.502-34.492-34.502-34.492-34.502zm-44.4 6.834c16.351 23.9 73.94 124.342-27.042 137.369-33.779 4.4-88.089-18.149-140.826-30.188-47.257-10.691-95.411-17.07-122.364-24.078-16.172-4.177-23-9.568-24.347-15.9-3.773-16.666 19.676-40.07 20.844-59.789 1.168-19.766-7.816-30.052-15.094-46.135-7.367-16.172-9.254-28.256-3.414-35.219 4.582-5.346 13.836-7.637 28.93-6.244 19.226 1.752 42.316-1.887 54.8-8.939 21.023-11.814 30.815-36.118 21.472-65.361 0 28.615-10.153 39.486-35.575 52.559-23.988 12.354-60.824 2.336-77.8 16.037-20.394 16.4 7.277 58.8 5.031 89.934-1.707 23.9-28.66 50.85-16.62 74.838 12.039 24.123 68.28 26.774 127.125 38.094 83.374 16.262 131.934 44.382 170.476 45.731 56.24 1.887 64.865-51.57 153.179-52.379 25.785-1.168 50.941-1.976 76.1-2.246 28.57-.359 57.049-.09 86.248.539 58.757 1.347 38.543 29.738 76.636 47.887 32.252 15.363 89.93 9.344 103.856-2.965 18.687-16.531 68.909-56.332 107.451-74.346 48.064-22.461 160.727-61.092 78.88-108.17-19.057-10.963-64.157-22.6-67.932-102.875-17.158 14.061-15.182 88.9 32.524 103.724 53.187 16.576 86.429 44.382-12.4 75.736-65.584 20.8-76.724 27.177-128.562 67.2-52.469 40.519-130.27 24.438-116.7-60.869 7.1-44.425 11.141-81.127-.719-119.805-5.84-18.868-8.715-43.035-4.762-60.016 7.726-33.017 26.951-42.99 45.818-11.276 11.858 19.9 15.992 43.17 58.4 45.057 66.664 2.965 79.87-59.746 101.164-62.621 14.195-1.887 28.388-39.215 17.608-99.544-11.596-64.64-52.562-166.746-105.12-218.406-43.664-43.035-71.155-80.769-88.4-134.493-14.642-45.236-22.729-89.26-19.764-131.307 3.863-54.488-28.66-130.361-80.589-166.029-32.438-22.323-83.377-34.317-129.464-33.823-25.785.269-50.222 3.729-68.91 13.162-76.9 38.723-93.234 96.157-93.234 159.324 0 57.5 10.04 124.984 17.228 189.4-8.535 29.558-49.317 89.476-82.025 119.761-38.7 35.839-59.727 102.547-84.7 162.339-13.3 31.805-34.5 57.5-34.5 92 0 11.464-1.5 37.066 10.36 28.621 45.1-32.387 101.477 49.234 186.736 173.713z"/></svg>