<svg xmlns="http://www.w3.org/2000/svg" data-name="S_LockOpen_24_N@2x" height="48" id="S_LockOpen_24_N_2x" viewBox="0 0 48 48" width="48"><defs><style>.fill{fill:#707070}</style></defs><title>S_LockOpen_24_N@2x</title><path class="fill" d="M38 20H16v-7.652a8.24 8.24 0 0 1 6.857-8.268 7.983 7.983 0 0 1 8.576 5.02.983.983 0 0 0 1.359.5l1.808-.9a1 1 0 0 0 .5-1.249A12 12 0 0 0 22.691.069 12.292 12.292 0 0 0 12 12.437V20h-2a2 2 0 0 0-2 2v20a2 2 0 0 0 2 2h28a2 2 0 0 0 2-2V22a2 2 0 0 0-2-2zM26 33.445V37a1 1 0 0 1-1 1h-2a1 1 0 0 1-1-1v-3.555a4 4 0 1 1 4 0z"/></svg>