<svg id="LockOff_24" xmlns="http://www.w3.org/2000/svg" width="1152" height="1152" viewBox="0 0 1152 1152"><defs><style/></defs><title>LockOff_24</title><path d="M912 480H384V296.363c0-97.084 68.419-185.027 164.572-198.444C641.417 84.963 723.4 139 754.384 218.437 759.4 231.289 774.661 236.669 787 230.5l43.516-21.758c10.989-5.495 16.547-18.61 11.883-29.977C795.669 64.886 678.212-12.48 544.592 1.667 396.532 17.343 288 149.594 288 298.481V480h-48a48 48 0 0 0-48 48v480a48 48 0 0 0 48 48h672a48 48 0 0 0 48-48V528a48 48 0 0 0-48-48zM624 802.685v85.307a24 24 0 0 1-24 24h-48a24 24 0 0 1-24-24v-85.307c-28.573-16.629-48-47.241-48-82.685a96 96 0 1 1 192 0c0 35.443-19.427 66.056-48 82.685z"/></svg>