<svg id="LockOn_24" xmlns="http://www.w3.org/2000/svg" width="1152" height="1152" viewBox="0 0 1152 1152"><defs><style/></defs><title>LockOn_24</title><path d="M912 480h-48v-48c0-159.059-128.941-288-288-288S288 272.941 288 432v48h-48a48 48 0 0 0-48 48v480a48 48 0 0 0 48 48h672a48 48 0 0 0 48-48V528a48 48 0 0 0-48-48zM624 802.685v85.307a24 24 0 0 1-24 24h-48a24 24 0 0 1-24-24v-85.307c-28.573-16.629-48-47.241-48-82.685a96 96 0 1 1 192 0c0 35.443-19.427 66.056-48 82.685zM768 480H384v-48c0-105.87 86.13-192 192-192s192 86.13 192 192v48z"/></svg>