<svg xmlns="http://www.w3.org/2000/svg" width="1152" height="1152" viewBox="0 0 1152 1152"><title>Login_24</title><path d="M384 976c0-145.57 118.43-264 264-264a254.354 254.354 0 0 1 52.734 5.52l12.7-12.7a49.7 49.7 0 0 1-16.828-36.832v-67.379c0-11.062 4.148-21.328 10.922-30.059 45.984-59.191 74.508-157.219 74.508-236.637 0-168-82.055-247.242-206.039-247.242s-208.38 82.934-208.38 247.243c0 79.418 32.086 177.445 78.07 236.625 6.8 8.742 10.922 19.008 10.922 30.07v67.078c0 22.3-14.977 44.5-37.172 46.688C148.359 741.152 96 935.039 96 1008c0 8.109.891 40.008 1.43 48h299.039A262.55 262.55 0 0 1 384 976z"/><path d="M1143.086 691.807l-120.641-120.65a28.012 28.012 0 0 0-39.612 0L725.966 828.029C702.578 815.665 676.31 808 648 808a168 168 0 1 0 168 168c0-27.973-7.492-53.949-19.578-77.146L921.966 773.3l69.818 69.813a14 14 0 0 0 19.8 0l62.435-62.43-79.719-79.716 22.987-22.973 79.7 79.712 46.1-46.1a14 14 0 0 0-.001-19.799zm-514.98 360.087a56 56 0 1 1 56-56 56.009 56.009 0 0 1-56.001 56.001z"/></svg>