<svg xmlns="http://www.w3.org/2000/svg" data-name="S_MapView_24_N@2x" height="48" id="S_MapView_24_N_2x" viewBox="0 0 48 48" width="48"><defs><style>.fill{fill:#707070}</style></defs><title>S_MapView_24_N@2x</title><path class="fill" d="M33.151 4.486l-9.386 4.693-9.33-4.665a1.235 1.235 0 0 0-1.1 0L4.683 8.838A1.235 1.235 0 0 0 4 9.943v31.826a1.235 1.235 0 0 0 1.788 1.1l8.095-4.047 9.33 4.665a1.235 1.235 0 0 0 1.1 0l9.33-4.665 10.663 4.268A1.235 1.235 0 0 0 46 41.943V10.016a1.235 1.235 0 0 0-.777-1.147L34.162 4.444a1.235 1.235 0 0 0-1.011.042zM24 41.328l-10.118-5.174V6.827L24 12zm20-.93l-10.353-4.042V6.709L44 10.75z"/></svg>