<svg xmlns="http://www.w3.org/2000/svg" data-name="S_Maximize_24_N@2x" height="48" id="S_Maximize_24_N_2x" viewBox="0 0 48 48" width="48"><defs><style>.fill{fill:#707070}</style></defs><title>S_Maximize_24_N@2x</title><path class="fill" d="M31.352 4a.667.667 0 0 0-.471 1.139l4.242 4.233-9.323 9.316a.667.667 0 0 0 0 .943l2.568 2.569a.667.667 0 0 0 .943 0l9.322-9.321 4.229 4.221A.667.667 0 0 0 44 16.623V4zM16.648 44a.667.667 0 0 0 .471-1.139l-4.242-4.233 9.323-9.316a.667.667 0 0 0 0-.943L19.632 25.8a.667.667 0 0 0-.943 0l-9.322 9.326L5.138 30.9A.667.667 0 0 0 4 31.377V44z"/></svg>