<svg xmlns="http://www.w3.org/2000/svg" width="1152" height="1152" viewBox="0 0 1152 1152"><title>MBox_24</title><path d="M1104 144H48a48 48 0 0 0-48 48v768a48 48 0 0 0 48 48h1056a48 48 0 0 0 48-48V192a48 48 0 0 0-48-48zm-48 768H96V336h960v576z"/><path d="M384 432h96v48h-96zM288 432h48v48h-48zM528 432h96v48h-96zM672 432h96v48h-96zM816 432h48v48h-48zM384 768h96v48h-96zM288 768h48v48h-48zM528 768h96v48h-96zM672 768h96v48h-96zM816 768h48v48h-48zM912.014 432h48v96.001h-48zM912.014 576h48v96.001h-48zM912.014 720h48v96.001h-48zM192.014 432h48v96.001h-48zM192.014 576h48v96.001h-48zM192.014 720h48v96.001h-48z"/></svg>