<svg xmlns="http://www.w3.org/2000/svg" data-name="S_Measure_24_N@2x" height="48" id="S_Measure_24_N_2x" viewBox="0 0 48 48" width="48"><defs><style>.fill{fill:#707070}</style></defs><title>S_Measure_24_N@2x</title><path class="fill" d="M42.385 19.757L32.9 10.271a.5.5 0 0 0-.707 0l-2.121 2.121a.5.5 0 0 0 0 .707l9.487 9.487-7.071 7.071-5.3-5.3a.5.5 0 0 0-.707 0l-2.121 2.121a.5.5 0 0 0 0 .707l5.3 5.3-7.071 7.071-9.489-9.487a.5.5 0 0 0-.707 0l-2.121 2.121a.5.5 0 0 0 0 .707l9.487 9.487-4.243 4.243a2 2 0 0 1-2.828 0L1.373 35.314a2 2 0 0 1 0-2.828L32.485 1.373a2 2 0 0 1 2.828 0l11.314 11.313a2 2 0 0 1 0 2.828z"/></svg>