<svg xmlns="http://www.w3.org/2000/svg" data-name="S_MergeLayers_24_N@2x" height="48" id="S_MergeLayers_24_N_2x" viewBox="0 0 48 48" width="48"><defs><style>.fill{fill:#707070}</style></defs><title>S_MergeLayers_24_N@2x</title><path class="fill" d="M31.763 25.171l12.379-8.589a.5.5 0 0 0 0-.822L24.566 2.177a.994.994 0 0 0-1.132 0L3.858 15.76a.5.5 0 0 0 0 .822l12.379 8.589L3.858 33.76a.5.5 0 0 0 0 .822l19.576 13.183a.993.993 0 0 0 1.132 0l19.576-13.184a.5.5 0 0 0 0-.822zm-.47 10.536L24 43l-7.293-7.293A1 1 0 0 1 17.414 34H22v-9.212L9.581 16.171 24 6.166l14.419 10.005L26 24.788V34h4.586a1 1 0 0 1 .707 1.707z"/></svg>