<svg xmlns="http://www.w3.org/2000/svg" data-name="S_MobileServices_24_N@2x" height="48" id="S_MobileServices_24_N_2x" viewBox="0 0 48 48" width="48"><defs><style>.fill{fill:#707070}</style></defs><title>S_MobileServices_24_N@2x</title><path class="fill" d="M42 8H6a4 4 0 0 0-4 4v24a4 4 0 0 0 4 4h36a4 4 0 0 0 4-4V12a4 4 0 0 0-4-4zm-2 28H6V12h34zm3-9.5a2.5 2.5 0 1 1 0-5 2.5 2.5 0 0 1 0 5z"/><path class="fill" d="M9.525 32.959a1.648 1.648 0 0 1-.9-.553 1.486 1.486 0 0 1 .241-2.156l5.842-4.514a.83.83 0 0 1 1.119.114l2.925 3.319 6.644-9.216a.822.822 0 0 1 1.382.121l2.554 5.026 5.755-10.243a1.619 1.619 0 0 1 2.185-.536 1.522 1.522 0 0 1 .6 2.106l-8 13.947a.819.819 0 0 1-1.424-.056l-2.727-5.361-6.087 8.443a.821.821 0 0 1-1.271.043l-3.457-3.923-4.029 3.161a1.638 1.638 0 0 1-1.352.278z"/></svg>