<svg xmlns="http://www.w3.org/2000/svg" width="1152" height="1152" viewBox="0 0 1152 1152"><title>Money_24</title><path d="M96 384H48a48 48 0 0 0-48 48v528a48 48 0 0 0 48 48h864a48 48 0 0 0 48-48v-48H96V384z"/><path d="M240 240h-48a48 48 0 0 0-48 48v528a48 48 0 0 0 48 48h816a48 48 0 0 0 48-48v-48H240V240z"/><path d="M1098.938 144H341.063A53.069 53.069 0 0 0 288 197.065v469.87A53.071 53.071 0 0 0 341.063 720h757.875A53.071 53.071 0 0 0 1152 666.935v-469.87A53.069 53.069 0 0 0 1098.938 144zM480 624a96 96 0 0 0-96-96V336a96 96 0 0 0 96-96h480a96 96 0 0 0 96 96v192a96 96 0 0 0-96 96H480z"/><circle cx="720" cy="432" r="144"/></svg>