<svg xmlns="http://www.w3.org/2000/svg" data-name="S_MoreCircle_24_N@2x" height="48" id="S_MoreCircle_24_N_2x" viewBox="0 0 48 48" width="48"><defs><style>.fill{fill:#707070}</style></defs><title>S_MoreCircle_24_N@2x</title><path class="fill" d="M24 4a20 20 0 1 0 20 20A20 20 0 0 0 24 4zM12.775 28.239A4.239 4.239 0 1 1 17.014 24a4.239 4.239 0 0 1-4.239 4.239zm11.225 0A4.239 4.239 0 1 1 28.238 24 4.239 4.239 0 0 1 24 28.239zm11.028 0A4.239 4.239 0 1 1 39.266 24a4.239 4.239 0 0 1-4.238 4.239z"/></svg>