<svg xmlns="http://www.w3.org/2000/svg" data-name="S_MoveTo_24_N@2x" height="48" id="S_MoveTo_24_N_2x" viewBox="0 0 48 48" width="48"><defs><style>.fill{fill:#707070}</style></defs><title>S_MoveTo_24_N@2x</title><path class="fill" d="M38.057 19.843l-8.812 8.915a2 2 0 0 1-2.834.011l-7.137-7.108a2 2 0 0 1 0-2.831l8.886-8.886L26.213 8H4a2 2 0 0 0-2 2v32a2 2 0 0 0 2 2h34a2 2 0 0 0 2-2V21.786z"/><path class="fill" d="M30.241 4a1.008 1.008 0 0 0-.655 1.716l4.228 4.228-9.842 9.842a.5.5 0 0 0 0 .707l3.536 3.535a.5.5 0 0 0 .707 0l9.842-9.842 4.217 4.214a1 1 0 0 0 1.706-.655V4z"/></svg>