<svg xmlns="http://www.w3.org/2000/svg" data-name="S_Move_24_N@2x" height="48" id="S_Move_24_N_2x" viewBox="0 0 48 48" width="48"><defs><style>.fill{fill:#707070}</style></defs><title>S_Move_24_N@2x</title><path class="fill" d="M46 24l-6.293-6.293a1 1 0 0 0-1.707.707V22H26V10h3.586a1 1 0 0 0 .707-1.707L24 2l-6.293 6.293A1 1 0 0 0 18.414 10H22v12H10v-3.586a1 1 0 0 0-1.707-.707L2 24l6.293 6.293A1 1 0 0 0 10 29.586V26h12v12h-3.586a1 1 0 0 0-.707 1.707L24 46l6.293-6.293A1 1 0 0 0 29.586 38H26V26h12v3.586a1 1 0 0 0 1.707.707z"/></svg>