<svg xmlns="http://www.w3.org/2000/svg" width="1152" height="1152" viewBox="0 0 1152 1152"><title>MultipleAdd_24</title><path d="M624 480v89.268a380.53 380.53 0 0 1 144-74.033V348a60 60 0 0 0-60-60H348a60 60 0 0 0-60 60v84h288a48 48 0 0 1 48 48z"/><path d="M864 240v242.429c.8-.006 1.594-.029 2.391-.029a380.841 380.841 0 0 1 129 22.377A59.7 59.7 0 0 0 1008 468V108a60 60 0 0 0-60-60H588a60 60 0 0 0-60 60v84h288a48 48 0 0 1 48 48zM484.8 864A379.865 379.865 0 0 1 528 687.521V588a60 60 0 0 0-60-60H108a60 60 0 0 0-60 60v360a60 60 0 0 0 60 60h360a59.672 59.672 0 0 0 39.281-14.678A381.234 381.234 0 0 1 484.8 864zM580.792 866.4c0 157.733 127.867 285.6 285.6 285.6S1152 1024.133 1152 866.4s-127.871-285.6-285.6-285.6-285.608 127.867-285.608 285.6zm321.6-192a12 12 0 0 1 12 12v132h132a12 12 0 0 1 12 12v72a12 12 0 0 1-12 12h-132v132a12 12 0 0 1-12 12h-72a12 12 0 0 1-12-12v-132h-132a12 12 0 0 1-12-12v-72a12 12 0 0 1 12-12h132v-132a12 12 0 0 1 12-12h72z"/></svg>