<svg xmlns="http://www.w3.org/2000/svg" width="1152" height="1152" viewBox="0 0 1152 1152"><title>MultipleExclude_24</title><path d="M864 240v244.828c.8-.006 1.594-.029 2.391-.029a380.875 380.875 0 0 1 127.5 21.85A59.827 59.827 0 0 0 1008 468V108a60 60 0 0 0-60-60H588a60 60 0 0 0-60 60v84h288a48 48 0 0 1 48 48zM484.8 866.4A379.88 379.88 0 0 1 528 689.918V588a60 60 0 0 0-60-60H108a60 60 0 0 0-60 60v360a60 60 0 0 0 60 60h360a59.772 59.772 0 0 0 38.648-14.115A380.846 380.846 0 0 1 484.8 866.4z"/><path d="M624 480v91.664a380.6 380.6 0 0 1 144-74.027V348a60 60 0 0 0-60-60H348a60 60 0 0 0-60 60v84h288a48 48 0 0 1 48 48zM866.4 580.8c-157.734 0-285.6 127.872-285.6 285.6S708.668 1152 866.4 1152 1152 1024.131 1152 866.4s-127.863-285.6-285.6-285.6zm214.2 285.6a212.605 212.605 0 0 1-39.914 123.8L742.605 692.115A212.629 212.629 0 0 1 866.4 652.2c118.3 0 214.2 95.9 214.2 214.2zm-428.391 0a212.6 212.6 0 0 1 39.914-123.8L990.2 1040.687a212.629 212.629 0 0 1-123.8 39.913c-118.3 0-214.193-95.9-214.193-214.2z"/></svg>