<svg xmlns="http://www.w3.org/2000/svg" width="1152" height="1152" viewBox="0 0 1152 1152"><title>MultipleCheck_24</title><path d="M864 240v242.4a380.865 380.865 0 0 1 130.875 23.039A59.76 59.76 0 0 0 1008 468V108a60 60 0 0 0-60-60H588a60 60 0 0 0-60 60v84h288a48 48 0 0 1 48 48zM482.391 864A379.855 379.855 0 0 1 528 682.975V588a60 60 0 0 0-60-60H108a60 60 0 0 0-60 60v360a60 60 0 0 0 60 60h360a59.681 59.681 0 0 0 37.43-13.131A381.318 381.318 0 0 1 482.391 864z"/><path d="M624 480v87.337a380.243 380.243 0 0 1 144-72.753V348a60 60 0 0 0-60-60H348a60 60 0 0 0-60 60v84h288a48 48 0 0 1 48 48zM866.4 580.793c-157.734 0-285.6 127.869-285.6 285.6S708.668 1152 866.4 1152 1152 1024.131 1152 866.4s-127.863-285.607-285.6-285.607zm-53.485 475.118L665.731 908.726a12 12 0 0 1 0-16.971l42.279-42.279a12 12 0 0 1 16.971 0L818.4 942.9l214.546-214.546a12 12 0 0 1 16.971 0l45.283 45.276a12 12 0 0 1 0 16.971l-265.312 265.31a12 12 0 0 1-16.971 0z"/></svg>