<svg xmlns="http://www.w3.org/2000/svg" width="1152" height="1152" viewBox="0 0 1152 1152"><title>NewsAdd_24</title><path d="M482.391 864a386.282 386.282 0 0 1 3-48H384v-48h110.578a378.376 378.376 0 0 1 15.961-48H384V336h192v277.652a383.9 383.9 0 0 1 48-46.312V480h336v14.584a379.348 379.348 0 0 1 96 39.592V120a23.994 23.994 0 0 0-24-24H312a23.994 23.994 0 0 0-24 24v696a48 48 0 0 1-96 0V216a23.994 23.994 0 0 0-24-24h-48a23.994 23.994 0 0 0-24 24v600a144 144 0 0 0 144 144h254.578a382.4 382.4 0 0 1-12.187-96zM960 432H624v-96h336v96zM384 192h576v96H384v-96z"/><path d="M578.4 864c0 157.733 127.867 285.6 285.6 285.6s285.6-127.867 285.6-285.6S1021.732 578.4 864 578.4 578.4 706.267 578.4 864zM900 672a12 12 0 0 1 12 12v132h132a12 12 0 0 1 12 12v72a12 12 0 0 1-12 12H912v132a12 12 0 0 1-12 12h-72a12 12 0 0 1-12-12V912H684a12 12 0 0 1-12-12v-72a12 12 0 0 1 12-12h132V684a12 12 0 0 1 12-12h72z"/></svg>