<svg xmlns="http://www.w3.org/2000/svg" width="1152" height="1152" viewBox="0 0 1152 1152"><title>Nielsen_24</title><path d="M405.98 366.628c34-33.89 62.7-58.229 90.518-75.892q41.4-26.41 103.875-26.438 98.19 0 139.751 67.006 41.561 67.142 41.616 176.731V984.3q0 30.137-30.246 38.69-30.219 8.445-81.245 12.254V1056H1056v-17c-11.315-1.162-23.678-2.76-36.87-4.692a290.932 290.932 0 0 1-36.87-7.562c-11.315-3.2-21.139-7.837-29.253-14.13-8.169-6.4-12.308-13.909-12.308-22.684V434.348q0-128.407-58.561-209.737-58.616-81.218-168.176-81.19a251.05 251.05 0 0 0-98.245 19.87 395.411 395.411 0 0 0-86.93 50.009 449.675 449.675 0 0 0-70.814 67.117q-31.212 36.844-51.937 68.939zm-47.367 34.857v586.487c2.539 12.64 6.954 21.692 13.191 27.322a57.142 57.142 0 0 0 22.685 12.419 139.252 139.252 0 0 0 30.246 4.692 242.252 242.252 0 0 1 35.931 4.746v18.822H96v-18.822q43.465-3.893 74.622-17c20.753-8.885 31.185-23.236 31.185-43.492V326.7c0-10.1-.993-17.607-2.87-22.684-1.877-5.024-7.23-10.764-16.006-17.054q-17.055-9.439-39.684-21.692a499.8 499.8 0 0 0-45.369-21.8v-11.321l247.545-88.7h12.75z"/></svg>