<svg xmlns="http://www.w3.org/2000/svg" data-name="S_NoEdit_24_N@2x" height="48" id="S_NoEdit_24_N_2x" viewBox="0 0 48 48" width="48"><defs><style>.fill{fill:#707070}</style></defs><title>S_NoEdit_24_N@2x</title><rect class="fill" height="50.558" rx="1" ry="1" transform="rotate(-45 23.875 23.875)" width="4" x="21.875" y="-1.404"/><path class="fill" d="M33.145 24.738L43.59 14.274a1.887 1.887 0 0 0 .172-2.653l-7.42-7.382a1.888 1.888 0 0 0-2.649.179L23.26 14.853zM14.853 23.26L8.82 29.292a2.231 2.231 0 0 0-.521.814L4.115 41.659a1.654 1.654 0 0 0 2.171 2.186L17.9 39.713a2.231 2.231 0 0 0 .826-.526l6.022-6.033zM7.4 40.62l3.456-9.653 6.2 6.178c-3.101 1.116-6.977 2.516-9.656 3.475z"/></svg>