<svg id="NoteAdd_24" xmlns="http://www.w3.org/2000/svg" width="1152" height="1152" viewBox="0 0 1152 1152"><defs><style/></defs><title>NoteAdd_24</title><path d="M482.4 864a381.14 381.14 0 0 1 12.656-96H216a24 24 0 0 1-24-24v-48a24 24 0 0 1 24-24h318.6a382.91 382.91 0 0 1 79.559-96H216a24 24 0 0 1-24-24v-48a24 24 0 0 1 24-24h672a23.374 23.374 0 0 1 12.867 4.26 378.9 378.9 0 0 1 107.063 26.44L1008 192a47.989 47.989 0 0 0-47.988-48H96a48 48 0 0 0-48 48v672a48 48 0 0 0 48 48h240l133.711 222.85a12 12 0 0 0 20.578 0l45.82-76.362A379.236 379.236 0 0 1 482.4 864zM192 312a24 24 0 0 1 24-24h576a24 24 0 0 1 24 24v48a24 24 0 0 1-24 24H216a24 24 0 0 1-24-24v-48z"/><path d="M864 578.4c-157.733 0-285.6 127.867-285.6 285.6s127.867 285.6 285.6 285.6 285.6-127.871 285.6-285.6S1021.733 578.4 864 578.4zM1056 900a12 12 0 0 1-12 12H912v132a12 12 0 0 1-12 12h-72a12 12 0 0 1-12-12V912H684a12 12 0 0 1-12-12v-72a12 12 0 0 1 12-12h132V684a12 12 0 0 1 12-12h72a12 12 0 0 1 12 12v132h132a12 12 0 0 1 12 12v72z"/></svg>