<svg xmlns="http://www.w3.org/2000/svg" width="1152" height="1152" viewBox="0 0 1152 1152"><title>OneDrive_24</title><path d="M373.9 907.829c-69.569-17.382-108.327-72.681-108.449-154.729-.039-26.232 1.859-38.8 8.407-55.674 16.051-41.359 58.547-72.561 114.466-84.046 27.825-5.715 36.4-11.851 36.4-26.054 0-4.456 3.312-17.728 7.359-29.493 18.388-53.445 52.433-98 88.812-116.225 38.074-19.075 57.3-23.377 103.354-23.13 65.411.351 98.045 14.54 143.688 62.475l25.1 26.362 22.488-7.782c108.838-37.666 217.34 26.452 226.086 133.6l2.389 29.314 21.433 7.679c61.209 21.93 89.979 67.981 84.763 135.677-3.411 44.27-24.109 79.615-56.9 97.161l-15.415 8.249-342.581.66c-263.256.507-346.94-.429-361.4-4.043z"/><path d="M117.081 860.5c-40.613-9.652-83.646-45.523-103.826-86.545C1.808 750.689 1.2 747.267 1.2 706.1c0-39.156.977-45.438 10.089-64.88 19.21-40.986 56.017-70.6 102.2-82.23 9.746-2.454 18.9-6.371 20.352-8.7s3.055-15.045 3.572-28.249c3.215-82 57.017-154.253 132.144-177.457 40.588-12.536 91.578-9.452 135.724 8.208 14 5.6 12.425 6.8 42.029-32.016 17.508-22.957 52.884-51.508 81.842-66.052 31.252-15.7 63.755-22.928 102.625-22.833 108.637.267 202.264 68.218 236.886 171.923 11.062 33.135 10.51 42.414-2.537 42.688-5.694.119-22.009 3.255-36.255 6.968l-25.9 6.751-23.635-23.635c-66.641-66.641-175.4-81.045-267.855-35.475a222.309 222.309 0 0 0-89.038 78.4c-15.983 24.283-36.363 69.584-36.363 80.831 0 7.979-6.461 11.966-34.053 21.015-85.427 28.016-135.289 92.716-135.255 175.506.011 30.133 7.772 67 18.545 88.121 4.061 7.961 6.327 15.531 5.036 16.822-3.3 3.3-109.574 2.19-124.267-1.3z"/></svg>