<svg xmlns="http://www.w3.org/2000/svg" data-name="S_OpenInLight_24_N@2x" height="48" id="S_OpenInLight_24_N_2x" viewBox="0 0 48 48" width="48"><defs><style>.fill{fill:#707070}</style></defs><title>S_OpenInLight_24_N@2x</title><path class="fill" d="M8 21.5V8h32v32H26.5a.5.5 0 0 0-.5.5v3a.5.5 0 0 0 .5.5H43a1 1 0 0 0 1-1V5a1 1 0 0 0-1-1H5a1 1 0 0 0-1 1v16.5a.5.5 0 0 0 .5.5h3a.5.5 0 0 0 .5-.5z"/><path class="fill" d="M10.241 24a1.008 1.008 0 0 0-.655 1.716l4.228 4.228-9.842 9.842a.5.5 0 0 0 0 .707l3.536 3.535a.5.5 0 0 0 .707 0l9.842-9.842 4.217 4.214a1 1 0 0 0 1.706-.655V24z"/></svg>