<svg xmlns="http://www.w3.org/2000/svg" width="1152" height="1152" viewBox="0 0 1152 1152"><title>Organize_24</title><path d="M434.4 115.2A48 48 0 0 0 396 96H144a48 48 0 0 0-48 48v96h432zM1008 336H96v624a48 48 0 0 0 48 48h864a48 48 0 0 0 48-48V384a48 48 0 0 0-48-48zM384 456a23.994 23.994 0 0 1 24-24h432a23.994 23.994 0 0 1 24 24v48a23.994 23.994 0 0 1-24 24H408a23.994 23.994 0 0 1-24-24v-48zm-96 432a23.994 23.994 0 0 1-24 24h-48a23.994 23.994 0 0 1-24-24v-48a23.994 23.994 0 0 1 24-24h48a23.994 23.994 0 0 1 24 24v48zm0-192a23.994 23.994 0 0 1-24 24h-48a23.994 23.994 0 0 1-24-24v-48a23.994 23.994 0 0 1 24-24h48a23.994 23.994 0 0 1 24 24v48zm0-192a23.994 23.994 0 0 1-24 24h-48a23.994 23.994 0 0 1-24-24v-48a23.994 23.994 0 0 1 24-24h48a23.994 23.994 0 0 1 24 24v48zm528 384a23.994 23.994 0 0 1-24 24H408a23.994 23.994 0 0 1-24-24v-48a23.994 23.994 0 0 1 24-24h384a23.994 23.994 0 0 1 24 24v48zm144-192a23.994 23.994 0 0 1-24 24H408a23.994 23.994 0 0 1-24-24v-48a23.994 23.994 0 0 1 24-24h528a23.994 23.994 0 0 1 24 24v48z"/></svg>