<svg xmlns="http://www.w3.org/2000/svg" width="1152" height="1152" viewBox="0 0 1152 1152"><title>OS_24</title><path d="M621.333 548.737c.932 193.109-118.478 319.044-288.266 319.044-180.977 0-289.192-134.336-289.192-316.244 0-179.114 117.541-315.318 289.192-315.318 182.851 0 287.333 139.935 288.266 312.518zM336.8 767.967c105.415 0 168.851-86.763 167.914-216.43 0-130.6-64.368-215.5-173.514-215.5-98.883 0-170.72 77.431-170.72 215.5.004 120.341 61.578 216.43 176.32 216.43zM709.931 834.2c-4.663-2.8-6.532-6.532-6.532-13.995v-97.02c0-3.732 3.732-5.6 7.463-3.732 50.373 32.652 111.946 48.51 166.057 48.51 76.494 0 109.146-29.852 109.146-69.968 0-34.515-22.389-60.636-93.289-90.489L848 588.852C733.252 540.342 703.4 482.5 703.4 412.533c0-99.815 75.562-176.314 216.43-176.314 58.773 0 111.946 8.4 142.73 24.258 4.663 2.795 5.6 5.595 5.6 12.126v90.489c0 3.732-2.8 7.463-8.4 3.732-35.447-20.524-86.76-30.785-140.86-30.785-80.231 0-105.42 33.584-105.42 66.236 0 33.584 21.458 56.9 95.157 87.689l35.452 14.926c121.272 50.379 155.788 109.146 155.788 182.846 0 109.152-85.826 180.046-226.693 180.046-68.101-.001-125.006-13.058-163.253-33.582z"/></svg>