<svg xmlns="http://www.w3.org/2000/svg" width="1152" height="1152" viewBox="0 0 1152 1152"><title>PageTag_24</title><path d="M478.969 912H96V336h864v190.98l96 96V192a48 48 0 0 0-48-48H48a48 48 0 0 0-48 48v768a48 48 0 0 0 48 48h526.969z"/><path d="M1142.725 845.458L832.3 535.029A24 24 0 0 0 815.326 528H552a24 24 0 0 0-24 24v263.331a24 24 0 0 0 7.029 16.971l310.429 310.428a24 24 0 0 0 33.941 0l263.326-263.33a24 24 0 0 0 0-33.942zM648.306 720.32a72.008 72.008 0 1 1 72-72.008 72.011 72.011 0 0 1-72 72.008z"/></svg>