<svg id="Pages_24" xmlns="http://www.w3.org/2000/svg" width="1152" height="1152" viewBox="0 0 1152 1152"><defs><style/></defs><title>Pages_24</title><path d="M1056 336H288a48 48 0 0 0-48 48v624a48 48 0 0 0 48 48h768a48 48 0 0 0 48-48V384a48 48 0 0 0-48-48zm-48 624H336V528h672v432z"/><path d="M144 240h768v-96a48 48 0 0 0-48-48H96a48 48 0 0 0-48 48v624a48 48 0 0 0 48 48h48V240z"/><path d="M1056 336H288a48 48 0 0 0-48 48v624a48 48 0 0 0 48 48h768a48 48 0 0 0 48-48V384a48 48 0 0 0-48-48zm-48 624H336V528h672v432z"/><path d="M144 240h768v-96a48 48 0 0 0-48-48H96a48 48 0 0 0-48 48v624a48 48 0 0 0 48 48h48V240z"/></svg>