<svg xmlns="http://www.w3.org/2000/svg" width="1152" height="1152" viewBox="0 0 1152 1152"><title>PageShare_24</title><path d="M953.329 631.952L816 480 679.011 631.952c-13.9 15.445-2.938 40.055 17.839 40.055H768v276a12 12 0 0 0 12 12h72a12 12 0 0 0 12-12v-276h71.49c20.778 0 31.738-24.607 17.839-40.055z"/><path d="M1128 720H960v96h96v240H576V816h96v-96H504a24 24 0 0 0-24 24v384a24 24 0 0 0 24 24h624a24 24 0 0 0 24-24V744a24 24 0 0 0-24-24z"/><path d="M384 912H144V336h864v288h96V192a48 48 0 0 0-48-48H96a48 48 0 0 0-48 48v768a48 48 0 0 0 48 48h288v-96z"/></svg>