<svg xmlns="http://www.w3.org/2000/svg" width="1152" height="1152" viewBox="0 0 1152 1152"><title>PagesExclude_24</title><path d="M96 192h768V96a48 48 0 0 0-48-48H48A48 48 0 0 0 0 96v624a48 48 0 0 0 48 48h48V192z"/><path d="M485.367 912H288V480h672v17.461A379.078 379.078 0 0 1 1056 537V336a48 48 0 0 0-48-48H240a48 48 0 0 0-48 48v624a48 48 0 0 0 48 48h269.859a378.43 378.43 0 0 1-24.492-96z"/><path d="M864 578.405c-157.734 0-285.6 127.872-285.6 285.6s127.863 285.6 285.6 285.6 285.6-127.869 285.6-285.6-127.866-285.6-285.6-285.6zm214.2 285.6a212.605 212.605 0 0 1-39.914 123.8L740.2 689.722A212.629 212.629 0 0 1 864 649.808c118.3 0 214.2 95.9 214.2 214.198zm-428.391 0a212.6 212.6 0 0 1 39.914-123.8L987.8 1038.293a212.629 212.629 0 0 1-123.8 39.914c-118.3 0-214.2-95.9-214.2-214.201z"/></svg>