<svg xmlns="http://www.w3.org/2000/svg" width="1152" height="1152" viewBox="0 0 1152 1152"><title>PaintBucket_24</title><path d="M1107.378 766.375c-7.55-75.492-49.295-215.273-49.295-215.273-12.146-76.359-94.492-96.478-172.855-107.083l-299.288-299.3a48.018 48.018 0 0 0-67.881 0L413.323 249.461l148.612 148.605a48 48 0 1 1-67.881 67.887L345.442 317.336 48.706 614.078a47.993 47.993 0 0 0 0 67.875l373.354 373.36a48.011 48.011 0 0 0 67.881 0l469.353-469.36c12.791-12.785 16.16-30.879 11.493-47.121-1.037-1.066-3.287-7.816-3.287-7.816s11.25-5.25 17.874 7.281c16.069 30.4 29.367 91.164-10.04 181.062-12.205 27.832-44.944 69.527-44.944 105.387 0 55.793 29.438 90.6 89.95 90.6 53.144-.002 96.949-49.865 87.038-148.971z"/><path d="M256.342 92.477a48 48 0 0 0-67.884 67.875l156.984 156.984 67.881-67.875z"/></svg>