<svg xmlns="http://www.w3.org/2000/svg" width="1152" height="1152" viewBox="0 0 1152 1152"><title>PasteText_24</title><path d="M720 144a144 144 0 0 0-288 0h-96v120a24 24 0 0 0 24 24h432a24 24 0 0 0 24-24V144h-96zm-144 72a72 72 0 1 1 72-72 72 72 0 0 1-72 72z"/><path d="M960 144h-48v192a48 48 0 0 1-48 48H288a48 48 0 0 1-48-48V144h-48a48 48 0 0 0-48 48v816a48 48 0 0 0 48 48h768a48 48 0 0 0 48-48V192a48 48 0 0 0-48-48zM816 648a24 24 0 0 1-24 24h-48a24 24 0 0 1-24-24v-24h-96v240h24a24 24 0 0 1 24 24v48a24 24 0 0 1-24 24H504a24 24 0 0 1-24-24v-48a24 24 0 0 1 24-24h24V624h-96v23.344a24 24 0 0 1-24 24h-48a24 24 0 0 1-24-24V552a24.077 24.077 0 0 1 24-24h432a24.077 24.077 0 0 1 24 24v96z"/></svg>