<svg xmlns="http://www.w3.org/2000/svg" width="1152" height="1152" viewBox="0 0 1152 1152"><title>PasteHTML_24</title><path d="M720 144a144 144 0 0 0-288 0h-96v120a24 24 0 0 0 24 24h432a24 24 0 0 0 24-24V144h-96zm-144 72a72 72 0 1 1 72-72 72 72 0 0 1-72 72z"/><path d="M960 144h-48v192a48 48 0 0 1-48 48H288a48 48 0 0 1-48-48V144h-48a48 48 0 0 0-48 48v816a48 48 0 0 0 48 48h768a48 48 0 0 0 48-48V192a48 48 0 0 0-48-48zM461.813 816a12 12 0 0 1 0 16.969l-50.906 50.906a12 12 0 0 1-16.969 0L247.031 736.969a23.991 23.991 0 0 1 0-33.937l146.907-146.907a12 12 0 0 1 16.969 0l50.906 50.906a12 12 0 0 1 0 16.969l-96 96zm115.605 141.656a12.006 12.006 0 0 1-14.121 9.41L492.7 952.934a12.006 12.006 0 0 1-9.41-14.121l91.289-456.469a12.006 12.006 0 0 1 14.121-9.41l70.6 14.132a12.006 12.006 0 0 1 9.41 14.121zm337.495-220.687L768.007 883.875a12 12 0 0 1-16.969 0l-50.906-50.906a12 12 0 0 1 0-16.969l96-96-96-96a12 12 0 0 1 0-16.969l50.906-50.906a12 12 0 0 1 16.969 0l146.906 146.906a23.991 23.991 0 0 1 0 33.938z"/></svg>