<svg xmlns="http://www.w3.org/2000/svg" data-name="S_Pattern_24_N@2x" height="48" id="S_Pattern_24_N_2x" viewBox="0 0 48 48" width="48"><defs><style>.fill{fill:#707070}</style></defs><title>S_Pattern_24_N@2x</title><rect class="fill" height="4" rx="1" ry="1" width="8" x="4" y="8"/><rect class="fill" height="4" rx="1" ry="1" width="10" x="18" y="8"/><rect class="fill" height="4" rx="1" ry="1" width="8" x="34" y="8"/><path class="fill" d="M15 16a1 1 0 0 1-1-1V7a1 1 0 0 1 2 0v8a1 1 0 0 1-1 1z"/><path class="fill" d="M15 16a1 1 0 0 1-1-1V7a1 1 0 0 1 2 0v8a1 1 0 0 1-1 1zM31 16a1 1 0 0 1-1-1V7a1 1 0 0 1 2 0v8a1 1 0 0 1-1 1z"/><path class="fill" d="M31 16a1 1 0 0 1-1-1V7a1 1 0 0 1 2 0v8a1 1 0 0 1-1 1z"/><rect class="fill" height="4" rx="1" ry="1" width="8" x="26" y="18"/><rect class="fill" height="4" rx="1" ry="1" width="8" x="12" y="18"/><path class="fill" d="M9 24a1 1 0 0 1-1-1v-8a1 1 0 0 1 2 0v8a1 1 0 0 1-1 1z"/><path class="fill" d="M9 24a1 1 0 0 1-1-1v-8a1 1 0 0 1 2 0v8a1 1 0 0 1-1 1zM23 24a1 1 0 0 1-1-1v-8a1 1 0 0 1 2 0v8a1 1 0 0 1-1 1z"/><path class="fill" d="M23 24a1 1 0 0 1-1-1v-8a1 1 0 0 1 2 0v8a1 1 0 0 1-1 1zM37 24a1 1 0 0 1-1-1v-8a1 1 0 0 1 2 0v8a1 1 0 0 1-1 1z"/><path class="fill" d="M37 24a1 1 0 0 1-1-1v-8a1 1 0 0 1 2 0v8a1 1 0 0 1-1 1z"/><rect class="fill" height="4" rx="1" ry="1" width="8" x="4" y="26"/><rect class="fill" height="4" rx="1" ry="1" width="10" x="18" y="26"/><rect class="fill" height="4" rx="1" ry="1" width="8" x="34" y="26"/><path class="fill" d="M15 34a1 1 0 0 1-1-1v-8a1 1 0 0 1 2 0v8a1 1 0 0 1-1 1z"/><path class="fill" d="M15 34a1 1 0 0 1-1-1v-8a1 1 0 0 1 2 0v8a1 1 0 0 1-1 1z"/><g><path class="fill" d="M31 34a1 1 0 0 1-1-1v-8a1 1 0 0 1 2 0v8a1 1 0 0 1-1 1z"/><path class="fill" d="M31 34a1 1 0 0 1-1-1v-8a1 1 0 0 1 2 0v8a1 1 0 0 1-1 1z"/></g><rect class="fill" height="4" rx="1" ry="1" width="8" x="26" y="36"/><rect class="fill" height="4" rx="1" ry="1" width="8" x="12" y="36"/><g><path class="fill" d="M9 42a1 1 0 0 1-1-1v-8a1 1 0 0 1 2 0v8a1 1 0 0 1-1 1z"/><path class="fill" d="M9 42a1 1 0 0 1-1-1v-8a1 1 0 0 1 2 0v8a1 1 0 0 1-1 1z"/></g><g><path class="fill" d="M23 42a1 1 0 0 1-1-1v-8a1 1 0 0 1 2 0v8a1 1 0 0 1-1 1z"/><path class="fill" d="M23 42a1 1 0 0 1-1-1v-8a1 1 0 0 1 2 0v8a1 1 0 0 1-1 1z"/></g><g><path class="fill" d="M37 42a1 1 0 0 1-1-1v-8a1 1 0 0 1 2 0v8a1 1 0 0 1-1 1z"/><path class="fill" d="M37 42a1 1 0 0 1-1-1v-8a1 1 0 0 1 2 0v8a1 1 0 0 1-1 1z"/></g></svg>