<svg xmlns="http://www.w3.org/2000/svg" width="1152" height="1152" viewBox="0 0 1152 1152"><title>PausePlay-Circle_24</title><path d="M576 98.4C312.234 98.4 98.391 312.234 98.391 576S312.234 1053.6 576 1053.6s477.609-213.834 477.609-477.6S839.766 98.4 576 98.4zM480 792a23.994 23.994 0 0 1-24 24h-96a23.994 23.994 0 0 1-24-24V360a23.994 23.994 0 0 1 24-24h96a23.994 23.994 0 0 1 24 24v432zm133.945 19.922c-15.867 11.355-37.945 0-37.945-19.522V359.6c0-19.523 22.078-30.879 37.945-19.523l302.813 216.4a24.006 24.006 0 0 1 0 39.047z"/></svg>