<svg xmlns="http://www.w3.org/2000/svg" data-name="S_Pending_24_N@2x" height="48" id="S_Pending_24_N_2x" viewBox="0 0 48 48" width="48"><defs><style>.fill{fill:#707070}</style></defs><title>S_Pending_24_N@2x</title><path class="fill" d="M26 22.086V11a1 1 0 0 0-1-1h-2a1 1 0 0 0-1 1v12.586a1 1 0 0 0 .293.707l6.3 6.3a1 1 0 0 0 1.414 0l1.336-1.336a1 1 0 0 0 0-1.414l-5.054-5.054a1 1 0 0 1-.289-.703z"/><path class="fill" d="M40.063 26A16.193 16.193 0 1 1 22 7.937V4.1A20 20 0 1 0 43.9 26zM32.171 5.759A19.842 19.842 0 0 0 26 4.1v3.837a16.055 16.055 0 0 1 4.261 1.148zM37.026 14.419l3.344-1.871a20.1 20.1 0 0 0-4.726-4.8l-1.917 3.338a16.371 16.371 0 0 1 3.299 3.333zM38.975 17.914A15.963 15.963 0 0 1 40.063 22H43.9a19.832 19.832 0 0 0-1.566-5.965z"/></svg>