<svg xmlns="http://www.w3.org/2000/svg" width="1152" height="1152" viewBox="0 0 1152 1152"><title>PersonalizationField_24</title><path d="M1008 48H144a48 48 0 0 0-48 48v960a48 48 0 0 0 48 48h864a48 48 0 0 0 48-48V96a48 48 0 0 0-48-48zM384 936a23.994 23.994 0 0 1-24 24H216a23.994 23.994 0 0 1-24-24v-48a23.992 23.992 0 0 1 24-24h144a23.992 23.992 0 0 1 24 24v48zm576 0a23.994 23.994 0 0 1-24 24H504a23.994 23.994 0 0 1-24-24v-48a23.992 23.992 0 0 1 24-24h432a23.992 23.992 0 0 1 24 24v48zm0-216h-82.922c-29.719-43.734-84.4-85.348-183.141-95.373-16.547-1.682-27.7-16.822-27.7-32.15V546.07c0-7.617 3.094-14.7 8.156-20.713 34.406-40.775 55.734-98.227 55.734-152.941C730.125 256.676 668.766 192 576 192c-92.742 0-155.883 67.219-155.883 180.416 0 54.715 24.023 112.166 58.406 152.936 5.086 6.023 8.18 13.09 8.18 20.719v46.207c0 15.363-11.2 30.721-27.8 32.168-101.88 8.854-156.465 50.993-185.27 95.554H192V144h768v576z"/></svg>