<svg xmlns="http://www.w3.org/2000/svg" data-name="S_Perspective_24_N@2x" height="48" id="S_Perspective_24_N_2x" viewBox="0 0 48 48" width="48"><defs><style>.fill{fill:#707070}</style></defs><title>S_Perspective_24_N@2x</title><path class="fill" d="M4 6.322v36.859a2 2 0 0 0 2.661 1.888l36-12.6A2 2 0 0 0 44 30.581V11.722a2 2 0 0 0-1.7-1.978l-36-5.4A2 2 0 0 0 4 6.322zm36 13l-6 .626v-7.403l6 .9zM22 21.2V10.745l8 1.2v8.425zm8 3.187v8.271l-8 2.8V25.226zM18 10.145v11.477L8 22.665V8.645zM8 26.687l10-1.044v11.219l-10 3.5zm26 4.575v-7.288l6-.626v5.815z"/></svg>