<svg xmlns="http://www.w3.org/2000/svg" width="1152" height="1152" viewBox="0 0 1152 1152"><title>Plug_24</title><path d="M103.087 849.792c-82.479-82.479-82.479-216.2 0-298.682l149.341-149.341a70.4 70.4 0 0 1 0-99.561l99.561-99.561a70.4 70.4 0 0 1 99.561 0l49.78 49.78 224.011-224.01a35.2 35.2 0 0 1 49.78 0L824.9 78.2a35.2 35.2 0 0 1 0 49.78L600.89 351.989 800.011 551.11l224.012-224.01a35.2 35.2 0 0 1 49.78 0l49.78 49.78a35.2 35.2 0 0 1 0 49.78L899.572 650.67l49.78 49.78a70.4 70.4 0 0 1 0 99.561l-99.561 99.561a70.4 70.4 0 0 1-99.561 0l-149.34 149.341c-82.479 82.479-216.2 82.479-298.682 0z" fill-rule="evenodd"/></svg>