<svg xmlns="http://www.w3.org/2000/svg" data-name="S_Polygon_24_N@2x" height="48" id="S_Polygon_24_N_2x" viewBox="0 0 48 48" width="48"><defs><style>.fill{fill:#707070}</style></defs><title>S_Polygon_24_N@2x</title><path class="fill" d="M41.261 24.049l-8.387 14.094H15.181L6.743 23.976l8.434-14.119h17.69zM34.279 6H13.773a1.384 1.384 0 0 0-1.216.721l-9.91 16.59a1.385 1.385 0 0 0 0 1.324l9.912 16.641a1.384 1.384 0 0 0 1.215.724h20.507a1.385 1.385 0 0 0 1.217-.724l9.856-16.562a1.385 1.385 0 0 0 0-1.319L35.5 6.727A1.385 1.385 0 0 0 34.279 6z"/></svg>