<svg xmlns="http://www.w3.org/2000/svg" data-name="S_Preset_24_N@2x" height="48" id="S_Preset_24_N_2x" viewBox="0 0 48 48" width="48"><defs><style>.cls-1{fill:#707070}</style></defs><title>S_Preset_24_N@2x</title><path class="cls-1" d="M16 18h2v2h-2zM18 16h2v2h-2zM22 16h2v2h-2zM20 18h2v2h-2zM24 18h2v2h-2zM18 20h2v2h-2zM22 20h2v2h-2zM26 20h2v2h-2zM16 22h2v2h-2zM20 22h2v2h-2zM24 22h2v2h-2zM28 22h2v2h-2zM18 24h2v2h-2zM22 24h2v2h-2zM26 24h2v2h-2zM20 26h2v2h-2zM24 26h2v2h-2zM28 26h2v2h-2zM22 28h2v2h-2zM26 28h2v2h-2zM30 28h2v2h-2zM24 30h2v2h-2zM28 30h2v2h-2z"/><path class="cls-1" d="M32 33.688V32h-2v1.962c-.331.022-.664.038-1 .038s-.668-.029-1-.051V32h-2v1.7a14.819 14.819 0 0 1-2-.571V32h-2v.262c-.157-.083-.308-.173-.462-.262H22v-2h-2v.979A15.01 15.01 0 0 1 18.826 30H20v-2h-2v1.174A15.065 15.065 0 0 1 17.021 28H18v-2h-2v.462c-.088-.153-.179-.3-.262-.462H16v-2h-1.128a14.855 14.855 0 0 1-.571-2H16v-2h-1.949c-.022-.332-.051-.662-.051-1s.016-.669.038-1H16v-2h-1.688c.094-.458.2-.911.334-1.353a15 15 0 1 0 18.707 18.706c-.442.134-.895.241-1.353.335zM30 24h2v2h-2zM20 14.051V16h2v-1.7a15.013 15.013 0 0 0-2-.249zM24 14.872V16h2v-.262a14.912 14.912 0 0 0-2-.866zM26.462 16H26v2h2v-.98A14.993 14.993 0 0 0 26.462 16zM29.174 18H28v2h2v-1.174q-.4-.426-.826-.826zM30.98 20H30v2h2v-.462A15 15 0 0 0 30.98 20zM32.262 22H32v2h1.128a14.874 14.874 0 0 0-.866-2zM33.7 26H32v2h1.949a15 15 0 0 0-.249-2z"/><path class="cls-1" d="M29 4a15 15 0 0 0-14.353 10.647c.441-.134.9-.233 1.353-.326V16h2v-1.96h.029a12.045 12.045 0 1 1 15.934 15.931V30H32v2h1.679c-.093.457-.192.912-.326 1.353A15 15 0 0 0 29 4z"/></svg>