<svg xmlns="http://www.w3.org/2000/svg" width="1152" height="1152" viewBox="0 0 1152 1152"><title>Preview_24</title><path d="M991.694 1054.225L828.867 891.4C850.7 855.234 864 813.322 864 768c0-132.551-107.449-240-240-240S384 635.449 384 768s107.449 240 240 240c45.328 0 87.234-13.3 123.4-35.133l162.827 162.827c11.25 11.25 60.111 21.358 81.469 0s22.498-58.969-.002-81.469zM475.2 768A148.8 148.8 0 1 1 624 916.793 148.8 148.8 0 0 1 475.2 768z"/><path d="M720.141 1007.994L720 1008h.141v-.006zM1056 672.185zM1008 144H48a48 48 0 0 0-48 48v768a48 48 0 0 0 48 48h341.063a336.5 336.5 0 0 1-68.3-96H96V336h864v510.176l96 96V192a48 48 0 0 0-48-48z"/></svg>