<svg xmlns="http://www.w3.org/2000/svg" width="1152" height="1152" viewBox="0 0 1152 1152"><title>PrintPreview_24</title><path fill-rule="evenodd" d="M336 48v240H96L336 48z"/><path d="M336 768c0-185.569 150.422-336 336-336a335.784 335.784 0 0 1 96 14.1V96a48 48 0 0 0-48-48H432v288a48 48 0 0 1-48 48H96v480a48 48 0 0 0 48 48h224.766A334.09 334.09 0 0 1 336 768z" fill-rule="evenodd"/><path d="M1038.23 1052.761L876.867 891.4C898.7 855.234 912 813.322 912 768c0-132.551-107.449-240-240-240S432 635.449 432 768s107.449 240 240 240c45.328 0 87.234-13.3 123.4-35.133l161.361 161.363c11.25 11.25 60.111 21.358 81.469 0s22.5-58.969 0-81.469zM523.2 768A148.8 148.8 0 1 1 672 916.793 148.8 148.8 0 0 1 523.2 768z"/></svg>