<svg xmlns="http://www.w3.org/2000/svg" width="1152" height="1152" viewBox="0 0 1152 1152"><title>Project_24</title><path d="M434.4 115.2A48 48 0 0 0 396 96H144a48 48 0 0 0-48 48v96h432zM1008 336H96v624a48 48 0 0 0 48 48h864a48 48 0 0 0 48-48V384a48 48 0 0 0-48-48zM336 888a23.994 23.994 0 0 1-24 24h-48a23.994 23.994 0 0 1-24-24V456a23.992 23.992 0 0 1 24-24h48a23.992 23.992 0 0 1 24 24v432zm192 0a23.994 23.994 0 0 1-24 24h-48a23.994 23.994 0 0 1-24-24V648a23.992 23.992 0 0 1 24-24h48a23.992 23.992 0 0 1 24 24v240zm192 0a23.994 23.994 0 0 1-24 24h-48a23.994 23.994 0 0 1-24-24V744a23.992 23.992 0 0 1 24-24h48a23.992 23.992 0 0 1 24 24v144zm192 0a23.994 23.994 0 0 1-24 24h-48a23.994 23.994 0 0 1-24-24v-48a23.992 23.992 0 0 1 24-24h48a23.992 23.992 0 0 1 24 24v48z"/></svg>