<svg xmlns="http://www.w3.org/2000/svg" data-name="S_ProjectNameEdit_24_N@2x" height="48" id="S_ProjectNameEdit_24_N_2x" viewBox="0 0 48 48" width="48"><defs><style>.fill{fill:#707070}</style></defs><title>S_ProjectNameEdit_24_N@2x</title><path class="fill" d="M24 32H6V8h36v6h2a5.93 5.93 0 0 1 2 .369V5a1 1 0 0 0-1-1H3a1 1 0 0 0-1 1v30a1 1 0 0 0 1 1h21z"/><path class="fill" d="M44 18H20a2 2 0 0 0-2 2v7a1 1 0 0 0 1 1h2a1 1 0 0 0 1-1v-5h6v20h-3a1 1 0 0 0-1 1v2a1 1 0 0 0 1 1h14a1 1 0 0 0 1-1v-2a1 1 0 0 0-1-1h-3V22h6v5a1 1 0 0 0 1 1h2a1 1 0 0 0 1-1v-7a2 2 0 0 0-2-2z"/></svg>