<svg xmlns="http://www.w3.org/2000/svg" width="1152" height="1152" viewBox="0 0 1152 1152"><title>ProjectAdd_24</title><path d="M338.4 115.2A48 48 0 0 0 300 96H48a48 48 0 0 0-48 48v96h432zM482.391 866.4c0-210.753 170.859-381.6 381.609-381.6a380.938 380.938 0 0 1 96 12.662V384a48 48 0 0 0-48-48H0v624a48 48 0 0 0 48 48h461.859a379.746 379.746 0 0 1-27.468-141.6zM240 888a23.994 23.994 0 0 1-24 24h-48a23.994 23.994 0 0 1-24-24V456a23.992 23.992 0 0 1 24-24h48a23.992 23.992 0 0 1 24 24v432zm192 0a23.994 23.994 0 0 1-24 24h-48a23.994 23.994 0 0 1-24-24V648a23.992 23.992 0 0 1 24-24h48a23.992 23.992 0 0 1 24 24v240z"/><path d="M864 578.4c-157.733 0-285.6 127.867-285.6 285.6s127.867 285.6 285.6 285.6 285.6-127.871 285.6-285.6S1021.733 578.4 864 578.4zM1056 900a12 12 0 0 1-12 12H912v132a12 12 0 0 1-12 12h-72a12 12 0 0 1-12-12V912H684a12 12 0 0 1-12-12v-72a12 12 0 0 1 12-12h132V684a12 12 0 0 1 12-12h72a12 12 0 0 1 12 12v132h132a12 12 0 0 1 12 12v72z"/></svg>