<svg xmlns="http://www.w3.org/2000/svg" data-name="S_Properties_24_N@2x" height="48" id="S_Properties_24_N_2x" viewBox="0 0 48 48" width="48"><defs><style>.fill{fill:#707070}</style></defs><title>S_Properties_24_N@2x</title><path class="fill" d="M43 8H21.675a6.955 6.955 0 0 0-13.35 0H5a1 1 0 0 0-1 1v2a1 1 0 0 0 1 1h3.325a6.955 6.955 0 0 0 13.35 0H43a1 1 0 0 0 1-1V9a1 1 0 0 0-1-1zm-28 5.3a3.3 3.3 0 1 1 3.3-3.3 3.3 3.3 0 0 1-3.3 3.3zM5 26h21.325a6.955 6.955 0 0 0 13.35 0H43a1 1 0 0 0 1-1v-2a1 1 0 0 0-1-1h-3.325a6.955 6.955 0 0 0-13.35 0H5a1 1 0 0 0-1 1v2a1 1 0 0 0 1 1zm24.7-2a3.3 3.3 0 1 1 3.3 3.3 3.3 3.3 0 0 1-3.3-3.3z"/><path class="fill" d="M43 36H27.675a6.955 6.955 0 0 0-13.35 0H5a1 1 0 0 0-1 1v2a1 1 0 0 0 1 1h9.325a6.955 6.955 0 0 0 13.35 0H43a1 1 0 0 0 1-1v-2a1 1 0 0 0-1-1zm-22 5.3a3.3 3.3 0 1 1 3.3-3.3 3.3 3.3 0 0 1-3.3 3.3z"/></svg>