<svg xmlns="http://www.w3.org/2000/svg" width="1152" height="1152" viewBox="0 0 1152 1152"><title>PublishSchedule_24</title><path d="M1060.662 106.164L48 407.972c-22.533 6.268-25.5 37.007-4.579 47.466l232.054 116.028zM487.477 807.047L289.594 696v244.447c0 19.436 22.734 29.965 37.547 17.4l157.57-132.756c.68-6.097 1.828-12.032 2.766-18.044zM864 484.8a380.736 380.736 0 0 1 99 13.436l175.922-352.056-753.047 478.834 137.766 69.475C586.547 570.2 715.172 484.8 864 484.8zM864 578.4c-157.734 0-285.6 127.866-285.6 285.6s127.866 285.6 285.6 285.6 285.6-127.872 285.6-285.6S1021.734 578.4 864 578.4zm0 482.4c-108.691 0-196.8-88.11-196.8-196.8 0-92.039 63.439-168.694 148.8-190.216v198.58a24 24 0 0 0 7.031 16.969l82.081 82.083a24 24 0 0 0 33.943 0l32.057-32.06a24 24 0 0 0 0-33.94l-52.081-52.083A24 24 0 0 1 912 836.364v-162.58c85.359 21.521 148.8 98.177 148.8 190.216 0 108.688-88.109 196.8-196.8 196.8z"/></svg>