<svg xmlns="http://www.w3.org/2000/svg" width="1152" height="1152" viewBox="0 0 1152 1152"><title>PublishCheck_24</title><path d="M1060.662 106.164L48 407.972c-22.533 6.268-25.5 37.007-4.579 47.466l232.054 116.028zM487.125 806.862L289.594 696v244.447c0 19.433 22.734 29.965 37.547 17.394L484.359 825.4c.61-6.277 1.852-12.356 2.766-18.538zM864 482.4a380.89 380.89 0 0 1 100.055 13.7l174.867-349.92-753.047 478.834 136.852 69.009C585.281 568.69 714.4 482.4 864 482.4zM864 578.4c-157.734 0-285.6 127.869-285.6 285.6s127.866 285.6 285.6 285.6 285.6-127.869 285.6-285.6S1021.734 578.4 864 578.4zm-53.485 475.118L663.329 906.329a12 12 0 0 1 0-16.971l42.279-42.279a12 12 0 0 1 16.971 0L816 940.5l214.546-214.546a12 12 0 0 1 16.971 0l45.279 45.279a12 12 0 0 1 0 16.971l-265.311 265.311a12 12 0 0 1-16.97 0z"/></svg>