<svg xmlns="http://www.w3.org/2000/svg" width="1152" height="1152" viewBox="0 0 1152 1152"><title>PublishReject_24</title><path d="M1060.662 106.164L48 407.972c-22.533 6.268-25.5 37.007-4.579 47.466l232.054 116.028zM487.477 807.05L289.594 696v244.447c0 19.433 22.734 29.965 37.547 17.394l157.57-132.753c.68-6.094 1.828-12.032 2.766-18.038zM864 484.8a380.86 380.86 0 0 1 99 13.433l175.922-352.053-753.047 478.834 137.766 69.478C586.547 570.2 715.172 484.8 864 484.8zM864 578.4c-157.733 0-285.6 127.867-285.6 285.6s127.867 285.6 285.6 285.6 285.6-127.871 285.6-285.6S1021.733 578.4 864 578.4zM1056 900a12 12 0 0 1-12 12H684a12 12 0 0 1-12-12v-72a12 12 0 0 1 12-12h360a12 12 0 0 1 12 12v72z"/></svg>