<svg xmlns="http://www.w3.org/2000/svg" width="1152" height="1152" viewBox="0 0 1152 1152"><title>PublishPending_24</title><path d="M1061.862 106.164L49.2 407.972c-22.533 6.268-25.5 37.007-4.579 47.466l232.054 116.028zM488.672 807.053L290.789 696v244.447c0 19.433 22.734 29.965 37.57 17.394L485.93 825.085c.656-6.094 1.804-12.026 2.742-18.032zM865.2 484.8a380.86 380.86 0 0 1 99 13.433l175.917-352.053L387.07 625.014l137.789 69.478C587.766 570.2 716.367 484.8 865.2 484.8zM913.2 676.8v195.564a24 24 0 0 1-7.031 16.969l-82.078 82.084a24 24 0 0 1-33.937 0l-32.062-32.06a24 24 0 0 1 0-33.94l52.078-52.084a24 24 0 0 0 7.031-16.969V676.8h96zM1033.341 964.26l63.984 63.981c24.164-34.175 41.859-73.266 49.148-116.241h-91.055a196.783 196.783 0 0 1-22.077 52.26z"/><path d="M965.794 1032.457A193.869 193.869 0 0 1 865.2 1060.8c-108.7 0-196.8-88.11-196.8-196.8 0-92.039 63.445-168.694 148.8-190.216v-91.043C682.364 605.61 579.591 722.657 579.591 864c0 157.731 127.875 285.6 285.609 285.6 61.5 0 117.773-20.306 164.32-53.405zM1055.372 816h91.1a283.671 283.671 0 0 0-48.7-116.7l-64.359 64.365A196.57 196.57 0 0 1 1055.372 816zM1029.9 631.424a283.479 283.479 0 0 0-116.7-48.683v91.043a194.56 194.56 0 0 1 52.383 21.958z"/></svg>