<svg xmlns="http://www.w3.org/2000/svg" width="1152" height="1152" viewBox="0 0 1152 1152"><title>PublishRemove_24</title><path d="M1060.662 106.164L48 407.972c-22.533 6.268-25.5 37.007-4.579 47.466l232.054 116.028zM487.477 807.047L289.594 696v244.447c0 19.436 22.734 29.965 37.547 17.4l157.57-132.756c.68-6.097 1.828-12.032 2.766-18.044zM864 484.8a380.736 380.736 0 0 1 99 13.436l175.922-352.056-753.047 478.834 137.766 69.475C586.547 570.2 715.172 484.8 864 484.8zM864 578.405c-157.734 0-285.6 127.872-285.6 285.6s127.863 285.6 285.6 285.6 285.6-127.869 285.6-285.6-127.866-285.6-285.6-285.6zm195.164 412.872a12 12 0 0 1 0 16.972l-50.918 50.912a12 12 0 0 1-16.969 0L864 931.881l-127.277 127.28a12 12 0 0 1-16.969 0l-50.918-50.912a12 12 0 0 1 0-16.972L796.125 864 668.836 736.72a12 12 0 0 1 0-16.972l50.918-50.909a12 12 0 0 1 16.969 0L864 796.116l127.277-127.277a12 12 0 0 1 16.969 0l50.918 50.909a12 12 0 0 1 0 16.972L931.875 864z"/></svg>