<svg xmlns="http://www.w3.org/2000/svg" width="1152" height="1152" viewBox="0 0 1152 1152"><title>PushNotification_24</title><path d="M864 2.391C706.266 2.391 578.4 130.266 578.4 288S706.266 573.609 864 573.609 1149.6 445.734 1149.6 288 1021.734 2.391 864 2.391zM958.453 480h-193.02c-3.551 0-4.559-1.523-4.055-4.559l-.129-69.6c.516-3.047 2.039-4.559 5.578-4.559H813.8l.117-224.546C797.694 181.8 778.351 189.973 764.16 192c-3.551.516-4.559-.5-4.559-3.539v-58.433c0-2.531.5-4.055 3.539-4.559 21.293-5.074 40.284-16.8 60.558-26.938 3.035-1.523 5.578-2.531 8.613-2.531h76.771c2.531 0 3.035 1.523 3.035 3.551L912 401.28h45.316c3.551 0 4.559 1.512 5.074 4.559l.117 68.583c.505 4.055-1.007 5.578-4.054 5.578zM482.4 288H144a48 48 0 0 0-48 48v672a48 48 0 0 0 48 48h672a48 48 0 0 0 48-48V669.6c-210.75 0-381.6-170.85-381.6-381.6z"/></svg>