<svg xmlns="http://www.w3.org/2000/svg" width="1152" height="1152" viewBox="0 0 1152 1152"><title>Question_24</title><path d="M1008 96H144a48 48 0 0 0-48 48v624a48 48 0 0 0 48 48h288l133.711 222.85a12 12 0 0 0 20.578 0L720 816h287.859a48.126 48.126 0 0 0 47.977-48.152L1056 144a47.987 47.987 0 0 0-48-48zM581.859 777.97c-52.219 0-87.3-35.115-87.3-87.378 0-50.065 36.727-86.4 87.3-86.4 50.625 0 87.375 36.334 87.375 86.4 0 53.08-34.289 87.378-87.375 87.378zm98.813-363.823l-5.578 5.309c-22.664 21.4-48.3 45.665-48.3 60.545 0 11.856 3.07 22.2 9.586 33.621A19.69 19.69 0 0 1 637.688 534c-3.422 6.437-10.055 10.28-17.789 10.28h-67.477c-5.062 0-11.953 0-22.406-8.748-20.906-24.4-22.523-55.207-22.523-64.066 0-43.942 27.07-71 64.523-108.448 24.727-24.732 35.555-37.359 35.555-54.489 0-8.528 0-31.178-49.711-31.178-41.883 0-71.461 13.491-90.562 23.909l-5.859 2.317h-3.82A19.686 19.686 0 0 1 437.7 283.7v-75.276c0-3.981 0-16.1 11.555-22 24.539-13.266 66.281-29.08 125.672-29.08 96 0 160.453 55.45 160.453 137.982-.005 59.034-27.638 93.195-54.708 118.82z"/></svg>