<svg xmlns="http://www.w3.org/2000/svg" width="1152" height="1152" viewBox="0 0 1152 1152"><title>RailRight_24</title><path d="M0 144v768a48 48 0 0 0 48 48h1056a48 48 0 0 0 48-48V144a48 48 0 0 0-48-48H48a48 48 0 0 0-48 48zm864 600v-48a24 24 0 0 1 24-24h144a24 24 0 0 1 24 24v48a24 24 0 0 1-24 24H888a24 24 0 0 1-24-24zm0-192v-48a24 24 0 0 1 24-24h144a24 24 0 0 1 24 24v48a24 24 0 0 1-24 24H888a24 24 0 0 1-24-24zm0-192v-48a24 24 0 0 1 24-24h144a24 24 0 0 1 24 24v48a24 24 0 0 1-24 24H888a24 24 0 0 1-24-24zM96 288h672v576H96V288z"/></svg>