<svg xmlns="http://www.w3.org/2000/svg" data-name="S_RangeMask_24_N@2x" height="48" id="S_RangeMask_24_N_2x" viewBox="0 0 48 48" width="48"><defs><style>.fill{fill:#707070}</style></defs><title>S_RangeMask_24_N@2x</title><path class="fill" d="M8.837 18.576a14.758 14.758 0 0 1 2.739-2.739l-1.908-3.305a18.577 18.577 0 0 0-4.136 4.136zM8.837 36.424l-3.305 1.908a18.577 18.577 0 0 0 4.136 4.136l1.908-3.305a14.758 14.758 0 0 1-2.739-2.739zM32.163 36.424a14.758 14.758 0 0 1-2.739 2.739l1.908 3.305a18.577 18.577 0 0 0 4.136-4.136zM14.854 13.926a14.61 14.61 0 0 1 3.749-.992V9.1a18.349 18.349 0 0 0-5.654 1.527zM26.146 41.074a14.61 14.61 0 0 1-3.749.992V45.9a18.349 18.349 0 0 0 5.654-1.527zM5.935 25.6a14.61 14.61 0 0 1 .992-3.749l-3.3-1.9A18.349 18.349 0 0 0 2.1 25.6zM35.065 29.4a14.61 14.61 0 0 1-.992 3.749l3.3 1.9A18.349 18.349 0 0 0 38.9 29.4zM6.926 33.146a14.61 14.61 0 0 1-.991-3.746H2.1a18.349 18.349 0 0 0 1.527 5.654zM18.6 42.065a14.61 14.61 0 0 1-3.749-.992l-1.9 3.3A18.349 18.349 0 0 0 18.6 45.9zM46.034 1.957c-2.32-2.32-4.706-2.386-6.815-.277l-5.206 5.238L32 4.9a2.006 2.006 0 0 0-2.828 0l-4.095 4.094a2 2 0 0 0 0 2.828l.782.782-14.076 14.077a6.708 6.708 0 0 0 9.486 9.486l14.076-14.076.823.823a2 2 0 0 0 2.828 0l4.091-4.091a2 2 0 0 0-.011-2.839l-2-1.973 5.26-5.194c2.213-2.217 2.018-4.541-.302-6.86zM18.653 33.551A3.008 3.008 0 1 1 14.4 29.3l14.075-14.079 4.254 4.254z"/></svg>