<svg xmlns="http://www.w3.org/2000/svg" width="1152" height="1152" viewBox="0 0 1152 1152"><title>ReflectHorizontal_24</title><path d="M901.758 794.435A23.994 23.994 0 0 0 864 814.1V864H120a23.992 23.992 0 0 0-24 24v96a23.994 23.994 0 0 0 24 24h744v49.9a24 24 0 0 0 37.758 19.661L1104 936zM528 134.632V744a24 24 0 0 1-24 24H138.388a24 24 0 0 1-20.58-36.348L483.42 122.284C495.943 101.411 528 110.29 528 134.632zM647.789 767.977h129.4a119.969 119.969 0 0 1 179.578-52.266l69.492 48.653a23.983 23.983 0 0 0 7.945-32.7L668.578 122.3C656.063 101.429 624 110.309 624 134.648v609.37a23.976 23.976 0 0 0 23.789 23.959z"/></svg>