<svg xmlns="http://www.w3.org/2000/svg" width="1152" height="1152" viewBox="0 0 1152 1152"><title>ReflectVertical_24</title><path d="M405.565 901.758A23.994 23.994 0 0 0 385.9 864H336V120a23.992 23.992 0 0 0-24-24h-96a23.994 23.994 0 0 0-24 24v744h-49.9a24 24 0 0 0-19.661 37.758L264 1104zM1065.368 528H456a24 24 0 0 1-24-24V138.388a24 24 0 0 1 36.348-20.58l609.368 365.612c20.873 12.523 11.994 44.58-12.348 44.58zM432.023 647.789v129.4a119.969 119.969 0 0 1 52.266 179.578l-48.653 69.492a23.983 23.983 0 0 0 32.7 7.945L1077.7 668.578c20.871-12.516 11.991-44.578-12.349-44.578H455.982a23.976 23.976 0 0 0-23.959 23.789z"/></svg>