<svg xmlns="http://www.w3.org/2000/svg" width="1152" height="1152" viewBox="0 0 1152 1152"><title>ReportAdd_24</title><path d="M497.461 960H360a23.994 23.994 0 0 1-24-24v-48a23.994 23.994 0 0 1 24-24h124.8a381.407 381.407 0 0 1 12.656-96H360a23.994 23.994 0 0 1-24-24v-48a23.994 23.994 0 0 1 24-24h177a382.632 382.632 0 0 1 183-160.395V216a23.994 23.994 0 0 1 24-24h48a23.994 23.994 0 0 1 24 24v270.105a347.945 347.945 0 0 1 96-.732V144a48 48 0 0 0-48-48H288a48 48 0 0 0-48 48v864a48 48 0 0 0 48 48h249a379.078 379.078 0 0 1-39.539-96zM528 360a23.994 23.994 0 0 1 24-24h48a23.994 23.994 0 0 1 24 24v192a23.994 23.994 0 0 1-24 24h-48a23.994 23.994 0 0 1-24-24V360zm-192 96a23.994 23.994 0 0 1 24-24h48a23.994 23.994 0 0 1 24 24v96a23.994 23.994 0 0 1-24 24h-48a23.994 23.994 0 0 1-24-24v-96z"/><path d="M580.792 866.4c0 157.733 127.867 285.6 285.6 285.6S1152 1024.133 1152 866.4s-127.871-285.6-285.6-285.6-285.608 127.867-285.608 285.6zm321.6-192a12 12 0 0 1 12 12v132h132a12 12 0 0 1 12 12v72a12 12 0 0 1-12 12h-132v132a12 12 0 0 1-12 12h-72a12 12 0 0 1-12-12v-132h-132a12 12 0 0 1-12-12v-72a12 12 0 0 1 12-12h132v-132a12 12 0 0 1 12-12h72z"/></svg>