<svg xmlns="http://www.w3.org/2000/svg" width="1152" height="1152" viewBox="0 0 1152 1152"><title>Report_24</title><path d="M864 96H288a48 48 0 0 0-48 48v864a48 48 0 0 0 48 48h576a48 48 0 0 0 48-48V144a48 48 0 0 0-48-48zM528 360a23.992 23.992 0 0 1 24-24h48a23.992 23.992 0 0 1 24 24v192a23.994 23.994 0 0 1-24 24h-48a23.994 23.994 0 0 1-24-24V360zm-192 96a23.992 23.992 0 0 1 24-24h48a23.992 23.992 0 0 1 24 24v96a23.994 23.994 0 0 1-24 24h-48a23.994 23.994 0 0 1-24-24v-96zm384 480a23.994 23.994 0 0 1-24 24H360a23.994 23.994 0 0 1-24-24v-48a23.992 23.992 0 0 1 24-24h336a23.992 23.992 0 0 1 24 24v48zm96-192a23.994 23.994 0 0 1-24 24H360a23.994 23.994 0 0 1-24-24v-48a23.992 23.992 0 0 1 24-24h432a23.992 23.992 0 0 1 24 24v48zm0-192a23.994 23.994 0 0 1-24 24h-48a23.994 23.994 0 0 1-24-24V216a23.992 23.992 0 0 1 24-24h48a23.992 23.992 0 0 1 24 24v336z"/></svg>