<svg xmlns="http://www.w3.org/2000/svg" width="1152" height="1152" viewBox="0 0 1152 1152"><title>Revenue_24</title><path d="M0 1008a48 48 0 0 0 48 48h96a48 48 0 0 0 48-48V553.9L0 713.924V1008zM288 1008a48 48 0 0 0 48 48h96a48 48 0 0 0 48-48V687.539l-192-192V1008zM576 1008a48 48 0 0 0 48 48h96a48 48 0 0 0 48-48V663.82L576 816v192zM960.984 518.3L864 591.428V1008a48 48 0 0 0 48 48h96a48 48 0 0 0 48-48V539.666a120.7 120.7 0 0 1-24.187 2.443 118.424 118.424 0 0 1-70.829-23.809z"/><path d="M777.938 155.742c-21.375 0-32.086 25.852-16.969 40.969l79.852 79.852-223.946 188.531L309.4 157.623a23.983 23.983 0 0 0-32.32-1.471L0 387.035v201.926l282.094-235.1 302.3 302.3a24 24 0 0 0 31.43 2.191l330.02-276.778 69.188 69.2C1030.148 465.891 1056 455.18 1056 433.8V155.742H777.938z"/></svg>