<svg xmlns="http://www.w3.org/2000/svg" width="1152" height="1152" viewBox="0 0 1152 1152"><title>Rewind-Circle_24</title><path d="M576 1053.6c263.766 0 477.609-213.832 477.609-477.6S839.766 98.4 576 98.4 98.391 312.234 98.391 576 312.234 1053.6 576 1053.6zm-35.555-713.52c15.867-11.355 37.945 0 37.945 19.523V792.4c0 19.523-22.078 30.879-37.945 19.523l-302.812-216.4a24.006 24.006 0 0 1 0-39.047zm133.946 110.09l154.054-110.092c15.867-11.355 37.945 0 37.945 19.523V792.4c0 19.523-22.078 30.879-37.945 19.523L674.391 701.83V450.17z"/></svg>