<svg xmlns="http://www.w3.org/2000/svg" width="1152" height="1152" viewBox="0 0 1152 1152"><title>Ribbon_24</title><path d="M332.391 744.639l-118.1 238.377c-11.039 22.271 10.641 46.652 34.031 38.309l102.352-36.5a27.64 27.64 0 0 1 35.32 16.752l36.492 102.34c8.344 23.408 40.945 24.762 51.211 2.133l74.836-165.094-56.51-118.616a382.8 382.8 0 0 1-159.632-77.701zm605.32 238.377l-118.1-238.383A382.4 382.4 0 0 1 576 831.832c-9.187 0-18.211-.738-27.234-1.377l129.539 275.6c10.266 22.629 42.867 21.275 51.211-2.133l36.492-102.34a27.64 27.64 0 0 1 35.32-16.752l102.352 36.5c23.39 8.338 45.07-16.043 34.031-38.314zM576 135.82c-172.312 0-312 139.688-312 312s139.688 312 312 312 312-139.682 312-312-139.687-312-312-312zm0 504c-106.031 0-192-85.957-192-192s85.969-192 192-192 192 85.963 192 192-85.969 192-192 192z"/></svg>