<svg xmlns="http://www.w3.org/2000/svg" data-name="S_RotateLeft_24_N@2x" height="48" id="S_RotateLeft_24_N_2x" viewBox="0 0 48 48" width="48"><defs><style>.fill{fill:#707070}</style></defs><title>S_RotateLeft_24_N@2x</title><path class="fill" d="M44 18v22H22V18zm-24-4a2 2 0 0 0-2 2v26a2 2 0 0 0 2 2h26a2 2 0 0 0 2-2V16a2 2 0 0 0-2-2zM21 4h-5A10 10 0 0 0 6 14v4H1.207a.5.5 0 0 0-.354.854L8 26l7.146-7.146a.5.5 0 0 0-.353-.854H10v-4.387A5.613 5.613 0 0 1 15.613 8H21a1 1 0 0 0 1-1V5a1 1 0 0 0-1-1z"/></svg>