<svg xmlns="http://www.w3.org/2000/svg" data-name="S_RotateCCWBold_24_N@2x" height="48" id="S_RotateCCWBold_24_N_2x" viewBox="0 0 48 48" width="48"><defs><style>.fill{fill:#707070}</style></defs><title>S_RotateCCWBold_24_N@2x</title><circle class="fill" cx="7.618" cy="31.925" r="2"/><circle class="fill" cx="38.785" cy="34.823" r="2"/><circle class="fill" cx="33.167" cy="39.85" r="2"/><circle class="fill" cx="25.892" cy="42.215" r="2"/><circle class="fill" cx="18.441" cy="41.506" r="2"/><circle class="fill" cx="12.054" cy="37.839" r="2"/><path class="fill" d="M24 4.1a19.8 19.8 0 0 0-14.976 6.86L3.516 8.586a.5.5 0 0 0-.678.6L6.353 21.3l12.589-5.141a.5.5 0 0 0 .061-.9l-6.113-2.631A15.9 15.9 0 0 1 39.945 24a12.246 12.246 0 0 1-.373 3.38 1.979 1.979 0 1 0 3.845.926A18.412 18.412 0 0 0 43.9 24 19.9 19.9 0 0 0 24 4.1z"/></svg>