<svg xmlns="http://www.w3.org/2000/svg" data-name="S_RotateRight_24_N@2x" height="48" id="S_RotateRight_24_N_2x" viewBox="0 0 48 48" width="48"><defs><style>.fill{fill:#707070}</style></defs><title>S_RotateRight_24_N@2x</title><path class="fill" d="M4 18h22v22H4zm-2-4a2 2 0 0 0-2 2v26a2 2 0 0 0 2 2h26a2 2 0 0 0 2-2V16a2 2 0 0 0-2-2zM46.793 18H42v-4A10 10 0 0 0 32 4h-5a1 1 0 0 0-1 1v2a1 1 0 0 0 1 1h5.387A5.613 5.613 0 0 1 38 13.613V18h-4.793a.5.5 0 0 0-.354.854L40 26l7.146-7.146a.5.5 0 0 0-.353-.854z"/></svg>