<svg xmlns="http://www.w3.org/2000/svg" width="1152" height="1152" viewBox="0 0 1152 1152"><title>RSS_24</title><circle cx="243.692" cy="908.308" r="147.692"/><path d="M703.154 1056h-95.36c-24.678.569-46.312-15.447-48.58-40.027-20.567-222.9-199.045-402.7-421.846-423.249-24.328-2.244-42.419-23.572-42.153-48v-95.877c.014-28.432 25.648-50.228 53.988-47.944 320.139 25.8 576.284 282.027 601.921 602.174 2.269 28.342-19.539 52.923-47.97 52.923z"/><path d="M1054.588 1058.178H959.7c-26.391.606-47.552-20.246-49.075-46.6-23.883-413.1-355.94-746.529-769-770.23-26.115-1.5-46.876-22.294-46.605-48.451V97.412c0-27.055 23.413-49.526 50.436-48.214 516.531 25.076 932.27 440.815 957.344 957.352 1.314 27.023-21.157 51.628-48.212 51.628z"/></svg>