<svg xmlns="http://www.w3.org/2000/svg" data-name="S_SaveTo_24_N@2x" height="48" id="S_SaveTo_24_N_2x" viewBox="0 0 48 48" width="48"><defs><style>.fill{fill:#707070}</style></defs><title>S_SaveTo_24_N@2x</title><path class="fill" d="M43 12h-6a1 1 0 0 0-1 1v2a1 1 0 0 0 1 1h3v22H6V16h3a1 1 0 0 0 1-1v-2a1 1 0 0 0-1-1H3a1 1 0 0 0-1 1v28a1 1 0 0 0 1 1h40a1 1 0 0 0 1-1V13a1 1 0 0 0-1-1z"/><path class="fill" d="M32.586 16H26V3a1 1 0 0 0-1-1h-4a1 1 0 0 0-1 1v13h-6.586a1 1 0 0 0-.707 1.707L23 28l10.293-10.293A1 1 0 0 0 32.586 16z"/></svg>