<svg id="SaveAs_24" xmlns="http://www.w3.org/2000/svg" width="1152" height="1152" viewBox="0 0 1152 1152"><defs><style/></defs><title>SaveAs_24</title><path d="M576 96h144v192H576z"/><path d="M495.059 960H240V576h374.156C681.129 517.846 768.34 482.4 864 482.4a379.307 379.307 0 0 1 192 52.2V288L864 96h-48v288H384V96H144a48 48 0 0 0-48 48v864a48 48 0 0 0 48 48h390.6a379.122 379.122 0 0 1-39.541-96z"/><path d="M864 578.4c-157.733 0-285.6 127.867-285.6 285.6s127.867 285.6 285.6 285.6 285.6-127.871 285.6-285.6S1021.733 578.4 864 578.4zM1056 900a12 12 0 0 1-12 12H912v132a12 12 0 0 1-12 12h-72a12 12 0 0 1-12-12V912H684a12 12 0 0 1-12-12v-72a12 12 0 0 1 12-12h132V684a12 12 0 0 1 12-12h72a12 12 0 0 1 12 12v132h132a12 12 0 0 1 12 12v72z"/></svg>