<svg xmlns="http://www.w3.org/2000/svg" width="1152" height="1152" viewBox="0 0 1152 1152"><title>Scribble_24</title><path d="M861.365 123.069C873.034 111.3 872.381 91.85 860 79.476c-12.419-12.422-31.92-13.123-43.595-1.406a43.369 43.369 0 0 0-3.749 4.642l-.374-.47L532.627 361.8l.373.52a21.733 21.733 0 0 0-4.637 3.8c-11.674 11.626-10.968 31.171 1.45 43.454 12.38 12.466 31.877 13.123 43.5 1.45a29.157 29.157 0 0 0 3.8-4.642l.422.422 279.658-279.61-.47-.418a27.5 27.5 0 0 0 4.642-3.707zM918.221 171.818c-23.059 23.064-305.2 308.626-306.84 310.267-13.973 13.92-60.379 16.123-75.566.936-1.123-1.075-24.562-23.2-24.562-23.2l-345.442 338.89a48 48 0 0 0-10.467 15.368l-59.876 205.006a12 12 0 0 0 15.831 15.708L317.17 972.2a48 48 0 0 0 14.707-10l690.691-688.117zM950.707 117.069l99.375 94.594c12.138-22.781 13.17-64.267-25.83-103.454C988.3 72.3 946.067 65.556 921.221 74.272c-5.717 2.064 2.064 9.749 4.406 12 2.3 2.343 23.535 27.706 25.08 30.797zM1060.219 927.938C986.25 885.539 893.438 874.43 798.75 896.7c-72.469 17.063-146.156 53.367-225.141 110.977-29.672 21.633-48.7 30.914-56.625 27.516-5.672-2.484-13.687-15.023-20.719-26.086-6.375-10.008-12.891-19.992-20.25-28.945a162.424 162.424 0 0 0-23.039-22.86l-68.836 70.143c6.445 3.911 12.914 7.863 17.719 13.7 4.969 6 9.141 12.82 13.453 19.57 13.734 21.539 30.8 48.328 63.328 62.484a103.762 103.762 0 0 0 41.859 8.789c45.563 0 85.594-29.2 109.641-46.734 68.484-49.922 130.828-81.023 190.641-95.086 69.7-16.547 139.641-8.789 191.719 21.07a48 48 0 0 0 47.719-83.3z"/></svg>