<svg xmlns="http://www.w3.org/2000/svg" width="1152" height="1152" viewBox="0 0 1152 1152"><title>SeatAdd_24</title><path d="M717.727 96H434.273C326.977 96 240 182.977 240 290.265V576a48 48 0 0 0 48 48h283.688c69.984-85 176.016-139.2 294.7-139.2A383.918 383.918 0 0 1 912 487.772V290.265C912 182.977 825.023 96 717.727 96zM1056 480c-21.3 0-38.766 14.118-45.047 33.331A381.945 381.945 0 0 1 1152 613.916V576a96 96 0 0 0-96-96zM288 720a48 48 0 0 0-48 48v192a48 48 0 0 0 48 48h224.25a380.3 380.3 0 0 1 1.758-288H288zM96 480a96 96 0 0 0-96 96v480a48 48 0 0 0 48 48h48a48 48 0 0 0 48-48V528a48 48 0 0 0-48-48zM580.792 866.4c0 157.733 127.867 285.6 285.6 285.6S1152 1024.133 1152 866.4s-127.871-285.6-285.6-285.6-285.608 127.867-285.608 285.6zm321.6-192a12 12 0 0 1 12 12v132h132a12 12 0 0 1 12 12v72a12 12 0 0 1-12 12h-132v132a12 12 0 0 1-12 12h-72a12 12 0 0 1-12-12v-132h-132a12 12 0 0 1-12-12v-72a12 12 0 0 1 12-12h132v-132a12 12 0 0 1 12-12h72z"/></svg>