<svg xmlns="http://www.w3.org/2000/svg" width="1152" height="1152" viewBox="0 0 1152 1152"><title>Seat_24</title><rect x="240" y="720" width="672" height="288" rx="48" ry="48"/><path d="M717.733 96H434.267C326.976 96 240 182.976 240 290.267V576a48 48 0 0 0 48 48h576a48 48 0 0 0 48-48V290.267C912 182.976 825.024 96 717.733 96zM96 480a96 96 0 0 0-96 96v480a48 48 0 0 0 48 48h48a48 48 0 0 0 48-48V528a48 48 0 0 0-48-48zM1056 480a96 96 0 0 1 96 96v480a48 48 0 0 1-48 48h-48a48 48 0 0 1-48-48V528a48 48 0 0 1 48-48z"/></svg>