<svg xmlns="http://www.w3.org/2000/svg" width="1152" height="1152" viewBox="0 0 1152 1152"><title>SelectAll_24</title><path d="M948 336H444a108 108 0 0 0-108 108v504a108 108 0 0 0 108 108h504a108 108 0 0 0 108-108V444a108 108 0 0 0-108-108zm37.008 259.688L629.32 951.328a23.991 23.991 0 0 1-33.937 0L406.992 762.984a23.991 23.991 0 0 1 0-33.937l74.719-74.719a23.981 23.981 0 0 1 33.938.012l96.7 96.738 264-264.047a23.991 23.991 0 0 1 33.938 0l74.719 74.719a23.991 23.991 0 0 1 .002 33.938z"/><path d="M240 240h624v-28.8A115.207 115.207 0 0 0 748.8 96H211.2A115.207 115.207 0 0 0 96 211.2v537.6A115.209 115.209 0 0 0 211.2 864H240V240z"/></svg>