<svg xmlns="http://www.w3.org/2000/svg" data-name="S_Selection_24_N@2x" height="48" id="S_Selection_24_N_2x" viewBox="0 0 48 48" width="48"><defs><style>.cls-1{fill:#707070}</style></defs><title>S_Selection_24_N@2x</title><path class="cls-1" d="M14 4h8v4h-8zM14 40h8v4h-8z"/><path class="cls-1" d="M14 4h8v4h-8zM14 40h8v4h-8zM26 4h8v4h-8zM26 40h8v4h-8z"/><path class="cls-1" d="M26 4h8v4h-8zM26 40h8v4h-8z"/><path class="fill" d="M6 4a2 2 0 0 0-2 2v4h4V8h2V4zM4 14h4v8H4z"/><g><path class="cls-1" d="M4 26h4v8H4zM8 40v-2H4v4a2 2 0 0 0 2 2h4v-4z"/><g><path class="cls-1" d="M4 26h4v8H4zM8 40v-2H4v4a2 2 0 0 0 2 2h4v-4z"/></g></g><path class="fill" d="M42 4h-4v4h2v2h4V6a2 2 0 0 0-2-2z"/><path class="cls-1" d="M40 14h4v8h-4z"/><g><path class="cls-1" d="M40 40h-2v4h4a2 2 0 0 0 2-2v-4h-4zM40 26h4v8h-4z"/><g><path class="cls-1" d="M40 40h-2v4h4a2 2 0 0 0 2-2v-4h-4zM40 26h4v8h-4z"/></g></g></svg>