<svg xmlns="http://www.w3.org/2000/svg" width="1152" height="1152" viewBox="0 0 1152 1152"><title>SelectGear_24</title><path d="M192 192h384v144l96 96V144a48 48 0 0 0-48-48H144a48 48 0 0 0-48 48v480a48 48 0 0 0 48 48h48V192zM1131.5 824.371h-69.39a200.617 200.617 0 0 0-29.3-71.133l49.4-49.4a19.813 19.813 0 0 0 0-28.02l-30.033-30.033a19.815 19.815 0 0 0-28.026 0l-49.4 49.4a200.7 200.7 0 0 0-71.127-29.307V596.5a19.813 19.813 0 0 0-19.813-19.813h-39.624a19.813 19.813 0 0 0-19.814 19.813v69.382a200.7 200.7 0 0 0-71.127 29.307l-49.4-49.4a19.815 19.815 0 0 0-28.026 0l-30.033 30.033a19.813 19.813 0 0 0 0 28.02l49.4 49.4a200.617 200.617 0 0 0-29.3 71.133H596.5a19.813 19.813 0 0 0-19.813 19.813v39.629a19.816 19.816 0 0 0 19.813 19.812h69.39a200.617 200.617 0 0 0 29.3 71.133l-49.4 49.4a19.81 19.81 0 0 0 0 28.018l30.033 30.033a19.815 19.815 0 0 0 28.026 0l49.4-49.4a200.685 200.685 0 0 0 71.127 29.3v69.39a19.816 19.816 0 0 0 19.813 19.816h39.627a19.816 19.816 0 0 0 19.813-19.816v-69.39a200.685 200.685 0 0 0 71.127-29.3l49.4 49.4a19.815 19.815 0 0 0 28.026 0l30.033-30.033a19.81 19.81 0 0 0 0-28.018l-49.4-49.4a200.617 200.617 0 0 0 29.3-71.133h69.39a19.816 19.816 0 0 0 19.813-19.816v-39.629a19.813 19.813 0 0 0-19.818-19.813zM864 941.354A77.354 77.354 0 1 1 941.354 864 77.356 77.356 0 0 1 864 941.354z"/><path d="M608.672 580.433L267.7 244.708c-10.312-10.128-27.7-2.839-27.7 11.6v670.42c0 14.5 17.531 21.759 27.773 11.508L432 738.19h71.648a382.192 382.192 0 0 1 105.024-157.757z"/></svg>