<svg xmlns="http://www.w3.org/2000/svg" data-name="S_SentimentNegative_24_N@2x" height="48" id="S_SentimentNegative_24_N_2x" viewBox="0 0 48 48" width="48"><defs><style>.fill{fill:#707070}</style></defs><title>S_SentimentNegative_24_N@2x</title><path class="fill" d="M24 4.1A19.9 19.9 0 1 0 43.9 24 19.9 19.9 0 0 0 24 4.1zm7 7.9c1.767 0 3.2 1.791 3.2 4s-1.433 4-3.2 4-3.2-1.791-3.2-4 1.433-4 3.2-4zm-14 0c1.767 0 3.2 1.791 3.2 4s-1.433 4-3.2 4-3.2-1.791-3.2-4 1.433-4 3.2-4zm19.674 20.763l-2.416 1.208a1.155 1.155 0 0 1-1.346-.229 12.383 12.383 0 0 0-8.857-3.336 12.364 12.364 0 0 0-8.889 3.362 1.174 1.174 0 0 1-.84.358 1.144 1.144 0 0 1-.52-.124L11.4 32.8a1.156 1.156 0 0 1-.375-1.772c2.9-3.482 7.768-5.561 13.029-5.561 5.238 0 10.1 2.062 12.992 5.516a1.152 1.152 0 0 1-.373 1.778z"/></svg>