<svg xmlns="http://www.w3.org/2000/svg" data-name="S_SentimentPositive_24_N@2x" height="48" id="S_SentimentPositive_24_N_2x" viewBox="0 0 48 48" width="48"><defs><style>.fill{fill:#707070}</style></defs><title>S_SentimentPositive_24_N@2x</title><path class="fill" d="M24 4.1A19.9 19.9 0 1 0 43.9 24 19.9 19.9 0 0 0 24 4.1zm7 7.9c1.767 0 3.2 1.791 3.2 4s-1.433 4-3.2 4-3.2-1.791-3.2-4 1.433-4 3.2-4zm-14 0c1.767 0 3.2 1.791 3.2 4s-1.433 4-3.2 4-3.2-1.791-3.2-4 1.433-4 3.2-4zm7 24c-6.259 0-11.393-4.494-11.945-10.1h23.89C35.393 31.506 30.259 36 24 36z"/></svg>