<svg xmlns="http://www.w3.org/2000/svg" width="1152" height="1152" viewBox="0 0 1152 1152"><title>Servers_24</title><path d="M1008 768H432a48 48 0 0 0-48 48v192a48 48 0 0 0 48 48h576a48 48 0 0 0 48-48V816a48 48 0 0 0-48-48zm-432 96H432v-48h144v48zM192 120a23.994 23.994 0 0 0-24-24h-48a23.994 23.994 0 0 0-24 24v912a23.994 23.994 0 0 0 24 24h48a23.994 23.994 0 0 0 24-24v-72h144v-96H192V624h144v-96H192V288h144v-96H192v-72zm816-24H432a48 48 0 0 0-48 48v192a48 48 0 0 0 48 48h576a48 48 0 0 0 48-48V144a48 48 0 0 0-48-48zm-432 96H432v-48h144v48zm432 240H432a48 48 0 0 0-48 48v192a48 48 0 0 0 48 48h576a48 48 0 0 0 48-48V480a48 48 0 0 0-48-48zm-432 96H432v-48h144v48z"/></svg>