<svg xmlns="http://www.w3.org/2000/svg" width="1152" height="1152" viewBox="0 0 1152 1152"><title>ShareCheck_24</title><path d="M864 578.4c-157.734 0-285.6 127.869-285.6 285.6s127.866 285.6 285.6 285.6 285.6-127.869 285.6-285.6S1021.734 578.4 864 578.4zm-53.485 475.118L663.329 906.329a12 12 0 0 1 0-16.971l42.279-42.279a12 12 0 0 1 16.971 0L816 940.5l214.546-214.546a12 12 0 0 1 16.971 0l45.279 45.279a12 12 0 0 1 0 16.971l-265.311 265.311a12 12 0 0 1-16.97 0zM576 288h119.484c20.789 0 31.746-24.609 17.848-40.055L480 0 247.008 247.945c-13.9 15.445-2.93 40.055 17.836 40.055H384v324a12 12 0 0 0 12 12h168a12 12 0 0 0 12-12V288zM487.77 912H96V384h84a12 12 0 0 0 12-12v-72a12 12 0 0 0-12-12H24a24 24 0 0 0-24 24v672a24 24 0 0 0 24 24h488.25a378.842 378.842 0 0 1-24.48-96zM780 384h84v100.919c.809-.006 1.594-.12 2.4-.12a381.138 381.138 0 0 1 93.6 12.044V312a24 24 0 0 0-24-24H780a12 12 0 0 0-12 12v72a12 12 0 0 0 12 12z"/></svg>