<svg xmlns="http://www.w3.org/2000/svg" data-name="S_ShoppingCart_24_N@2x" height="48" id="S_ShoppingCart_24_N_2x" viewBox="0 0 48 48" width="48"><defs><style>.fill{fill:#707070}</style></defs><title>S_ShoppingCart_24_N@2x</title><path class="fill" d="M17.56 42a4 4 0 1 1-4-4 4 4 0 0 1 4 4zM37.56 42a4 4 0 1 1-4-4 4 4 0 0 1 4 4zM39.56 32H14.483l.922-4H39.56a2 2 0 0 0 1.961-1.608l4.44-18A2 2 0 0 0 44 6H11.78l-.41-2.294A2 2 0 0 0 9.392 2H4a2 2 0 0 0 0 4h3.667l3.893 19.9-1.94 7.611A2 2 0 0 0 11.56 36h28a2 2 0 1 0 0-4zm2-22l-3.641 14h-22.6l-2.692-14z"/></svg>