<svg xmlns="http://www.w3.org/2000/svg" data-name="S_ShowOneLayer_24_N@2x" height="48" id="S_ShowOneLayer_24_N_2x" viewBox="0 0 48 48" width="48"><defs><style>.fill{fill:#707070}</style></defs><title>S_ShowOneLayer_24_N@2x</title><path class="fill" d="M28.739 16.158l-4.291-2.149a1 1 0 0 0-.9 0l-4.291 2.149L24 18.532z"/><path class="fill" d="M43.842 23.724l-11.085-5.553-8.309 4.163a1 1 0 0 1-.9 0l-8.309-4.163-11.081 5.553a.5.5 0 0 0 0 .894l19.394 9.716a1 1 0 0 0 .9 0l19.394-9.716a.5.5 0 0 0-.004-.894zM11.3 12.171L24 5.81l12.7 6.361-7.958 3.987 4.019 2.013 11.085-5.553a.5.5 0 0 0 0-.894L24.448 2.008a1 1 0 0 0-.9 0l-19.39 9.716a.5.5 0 0 0 0 .894l11.085 5.553 4.019-2.013z"/><path class="fill" d="M24 22.44a1 1 0 0 0 .448-.106l8.309-4.163-4.019-2.013L24 18.532l-4.739-2.374-4.019 2.013 8.309 4.163a1 1 0 0 0 .449.106zM43.842 35.724l-11.085-5.553-4.019 2.013 7.962 3.987L24 42.532l-12.7-6.361 7.958-3.987-4.019-2.013-11.081 5.553a.5.5 0 0 0 0 .894l19.394 9.716a1 1 0 0 0 .9 0l19.394-9.716a.5.5 0 0 0-.004-.894z"/></svg>