<svg xmlns="http://www.w3.org/2000/svg" data-name="S_ShowAllLayers_24_N@2x" height="48" id="S_ShowAllLayers_24_N_2x" viewBox="0 0 48 48" width="48"><defs><style>.fill{fill:#707070}</style></defs><title>S_ShowAllLayers_24_N@2x</title><path class="fill" d="M43.842 35.724l-7.092-3.553-12.3 6.163a1 1 0 0 1-.9 0l-12.3-6.163-7.092 3.553a.5.5 0 0 0 0 .894l19.394 9.716a1 1 0 0 0 .9 0l19.394-9.716a.5.5 0 0 0-.004-.894z"/><path class="fill" d="M43.842 23.724l-7.092-3.553-12.3 6.163a1 1 0 0 1-.9 0l-12.3-6.163-7.092 3.553a.5.5 0 0 0 0 .894l19.394 9.716a1 1 0 0 0 .9 0l19.394-9.716a.5.5 0 0 0-.004-.894z"/><path class="fill" d="M23.552 22.334L4.158 12.618a.5.5 0 0 1 0-.894l19.394-9.716a1 1 0 0 1 .9 0l19.394 9.716a.5.5 0 0 1 0 .894l-19.398 9.716a1 1 0 0 1-.896 0z"/></svg>