<svg xmlns="http://www.w3.org/2000/svg" width="1152" height="1152" viewBox="0 0 1152 1152"><title>SinaWeibo_24</title><path d="M990.52 275.88c-63.052-69.94-156.041-96.565-241.877-78.285a36.71 36.71 0 0 0 15.366 71.795A180.675 180.675 0 0 1 973.7 501.728a36.758 36.758 0 0 0 69.94 22.651v-.132a253.519 253.519 0 0 0-53.12-248.367z"/><path d="M893.689 363.305a123.386 123.386 0 0 0-117.759-38.017 31.617 31.617 0 1 0 13.114 61.86 60.385 60.385 0 0 1 70.205 77.752 31.669 31.669 0 0 0 60.27 19.472 123.687 123.687 0 0 0-25.83-121.067zM508.091 723.868c-5.563 9.537-17.882 14.041-27.42 10.067-9.537-3.841-12.451-14.571-7.02-23.843 5.563-9.272 17.353-13.776 26.757-10.067 9.537 3.444 12.981 14.175 7.683 23.843zm-50.733 64.907c-15.366 24.506-48.349 35.235-73.119 23.976-24.373-11.127-31.659-39.606-16.293-63.582 15.233-23.843 47.024-34.44 71.662-24.108 24.903 10.729 32.851 38.939 17.75 63.714zm57.754-173.526c-75.636-19.737-161.074 18.015-193.925 84.644-33.513 67.953-1.06 143.457 75.239 168.095 79.213 25.565 172.466-13.644 204.92-86.9C633.4 709.3 593.4 635.516 515.111 615.249z"/><path d="M499.348 912.76C340.393 928.523 203.162 856.6 192.83 752.348 182.5 647.967 303.039 550.74 461.862 534.977c158.955-15.763 296.186 56.164 306.386 160.412 10.464 104.38-110.077 201.74-268.9 217.371zm317.778-346.39c-13.511-4.106-22.784-6.756-15.763-24.506 15.366-38.547 16.955-71.795.265-95.638-31.128-44.507-116.435-42.126-214.192-1.191 0 0-30.731 13.379-22.784-10.862 14.968-48.349 12.716-88.75-10.6-112.2C501.07 268.859 360 323.964 239.06 444.9 148.588 535.374 96 631.409 96 714.463c0 158.69 203.595 255.255 402.686 255.255 261.084 0 434.742-151.67 434.742-272.078.133-72.854-61.197-114.182-116.302-131.27z"/></svg>