<svg xmlns="http://www.w3.org/2000/svg" data-name="S_Slice_24_N@2x" height="48" id="S_Slice_24_N_2x" viewBox="0 0 48 48" width="48"><defs><style>.fill{fill:#707070}</style></defs><title>S_Slice_24_N@2x</title><path class="fill" d="M45.155 11.4L33.947 2.551a2 2 0 0 0-2.809.331L25.516 9.9a1.979 1.979 0 0 0 .2 2.652l-.905 1.144a9.99 9.99 0 0 1-1.369 1.417L19.7 18.289a10 10 0 0 0-1.745 1.924L.084 45.981l30.628-13.636 4.676-8.027a10.033 10.033 0 0 1 .8-1.171l1.2-1.51a1.976 1.976 0 0 0 2.529-.473l5.575-6.957a2 2 0 0 0-.337-2.807zM32.6 21.556l-4.554 7.817-17.1 7.613 10.591-15.274 5.405-4.59 1.742-2.2 5.665 4.424z"/></svg>