<svg xmlns="http://www.w3.org/2000/svg" width="1152" height="1152" viewBox="0 0 1152 1152"><title>Slow_24</title><path d="M1038.12 320.146c-48.754 0-88.272 39.518-88.272 88.272 0 23.15 21.374 54.216 31.69 64.536l-149.54 286.91 24.413-324.106c28.435-8.774 69.528-43.896 69.528-83.77 0-48.753-39.513-88.276-88.267-88.276S749.4 303.235 749.4 351.989c0 35.966 34.92 69.883 59.093 80.899l-14.525 294.878-185.755.408c55.766-53.424 90.662-128.472 90.662-211.804 0-162.101-131.395-293.506-293.481-293.506-162.106 0-293.525 131.405-293.525 293.506 0 111.052 40.454 228.283 225.845 246.6-69.687 73.627-205.767 86.596-264.279 94.219C29.41 862.925 45.758 912 90.135 912h881.327c33.053 0 63.077-19.742 3.423-56.76-23.827-14.784-28.215-44.611-41.3-61.18-21.014-26.622-35.179-35.487-51.945-43.354l138.648-259.743c2.323.24 14.458 5.727 17.832 5.727 48.754 0 88.267-39.524 88.267-88.272 0-48.754-39.513-88.272-88.267-88.272z"/></svg>