<svg xmlns="http://www.w3.org/2000/svg" data-name="S_SmallCaps_24_N@2x" height="48" id="S_SmallCaps_24_N_2x" viewBox="0 0 48 48" width="48"><defs><style>.fill{fill:#707070}</style></defs><title>S_SmallCaps_24_N@2x</title><path class="fill" d="M2 6h28a2 2 0 0 1 2 2v7a1 1 0 0 1-1 1h-2a1 1 0 0 1-1-1v-5h-8v28h3a1 1 0 0 1 1 1v2a1 1 0 0 1-1 1H9a1 1 0 0 1-1-1v-2a1 1 0 0 1 1-1h3V10H4v5a1 1 0 0 1-1 1H1a1 1 0 0 1-1-1V8a2 2 0 0 1 2-2z"/><path class="fill" d="M29 20a1 1 0 0 0-1 1v6a1 1 0 0 0 1 1h2a1 1 0 0 0 1-1v-3h4v14h-3a1 1 0 0 0-1 1v2a1 1 0 0 0 1 1h10a1 1 0 0 0 1-1v-2a1 1 0 0 0-1-1h-3V24h4v2.973a1 1 0 0 0 1 1h2a1 1 0 0 0 1-1V21a1 1 0 0 0-1-1z"/></svg>