<svg xmlns="http://www.w3.org/2000/svg" width="1152" height="1152" viewBox="0 0 1152 1152"><title>SMSKey_24</title><path d="M475.781 975.75c-4.172-64.687 19.031-129.609 63.7-178.172 44.578-48.469 107.109-76.922 171.609-78.141h.188a280.3 280.3 0 0 1 39.516 2.719l86.906-86.918c-16.125-2.977-30.469-7.477-41.859-13.594-5.766-3.445-6.234-8.52-6.234-13.008v-57.3l7.969-2.5c28.969 16.922 58.078 25.559 86.836 25.559a98.345 98.345 0 0 0 15.7-1.564l35.088-35.075c-1.289-13.148-10.477-25.295-45.258-42.434l-21.8-9.627c-55.078-25.84-78.539-56.531-78.539-102.627 0-61.33 46.852-100.939 119.438-100.939 32.484 0 59.391 4.781 75.8 13.535 6.234 2.508 6.234 9.217 6.234 11.438v54.2l-8.109 2.918h-2.109L977.2 362c-16.008-9.217-40.453-14.584-68.156-14.584-31.758 0-49.992 11.379-49.992 31.1 0 14.408 7.523 26.2 45.844 43.881l18.375 8.162c35.742 16.389 58.922 34.418 71.906 56.309 14.883-7.418 30.586-11.555 46.852-11.555h13.875L1056 144a47.987 47.987 0 0 0-48-48H144a48 48 0 0 0-48 48v624a48 48 0 0 0 48 48h144l133.711 222.85a12 12 0 0 0 20.578 0l34.43-57.387c-.188-1.951-.797-3.75-.938-5.713zM237.234 639.27c-34.945 0-65.812-6.246-86.977-17.625C144 617.859 144 611.848 144 608.637v-57.3l7.992-2.5c28.945 16.922 58.055 25.559 86.836 25.559 32.906 0 51.047-11.789 51.047-33.088 0-14.578-7.664-27.3-45.469-45.979l-21.89-9.629C167.438 459.855 144 429.164 144 383.068c0-61.33 46.852-100.939 119.438-100.939 32.531 0 59.461 4.781 75.8 13.535 6.234 2.508 6.234 9.217 6.234 11.438v54.2l-8.109 2.918h-2.086L331.57 362c-15.867-9.217-40.312-14.584-68.133-14.584-31.734 0-50.016 11.379-50.016 31.1 0 14.408 7.547 26.2 45.891 43.881l18.422 8.162c59.414 27.246 84.656 58.816 84.656 105.609.001 62.66-49.124 103.102-125.156 103.102zm227.016-13.946l-.234 5.719-9.375 3.563h-54.657l-4.148-10.1 19.242-334.148 9.75-3.094h78.141c6.75 0 9.258 3.908 10.641 7.289 10.1 35.18 45.352 160.922 60.516 226.389 10.336-37.811 28.781-98.783 44.25-149.771 9.445-31.219 17.859-58.992 22.758-75.973l1.547-3.445 8.227-4.488h81.539l4.477 7.992 13.547 331.354-2.062 4.893-1.734 2.1-5.859 1h-59.91l-4.078-9.516c-1.523-80.344-2.461-180.469-2.7-240.158-12.492 46.271-31.664 112.723-48.07 169.383l-22.055 76.729-9.047 3.563h-48.839c-4.125 0-8.6-.879-10.852-7.7-17.2-64.535-45.328-173.355-62.414-244.248-1.476 62.368-5.132 159.874-8.601 242.667z"/><path d="M621.234 993.018a61.043 61.043 0 1 0 61.055-61.037 61.1 61.1 0 0 0-61.055 61.037zM712.9 815.45a142.713 142.713 0 0 1 65.836 14.525l255.444-255.439a11.4 11.4 0 0 1 7.852-3.234h50.859A11.13 11.13 0 0 1 1104 582.4v110.976a11.13 11.13 0 0 1-11.109 11.1h-77.672v77.684a11.13 11.13 0 0 1-11.109 11.1h-77.672v64.371l-69.727 71.953a147.973 147.973 0 0 1 1.57 51.6c-8.789 61.963-59.2 112.271-121.148 121.242a144.316 144.316 0 0 1-165.539-132.99C566.32 888.792 632.063 816.938 712.9 815.45z" fill-rule="evenodd"/></svg>