<svg xmlns="http://www.w3.org/2000/svg" width="1152" height="1152" viewBox="0 0 1152 1152"><title>SMSLighting_24</title><path d="M1008 96H144a48 48 0 0 0-48 48v624a48 48 0 0 0 48 48h144l133.711 222.85a12 12 0 0 0 20.578 0l51.141-85.225A380.434 380.434 0 0 1 482.391 864c0-86.227 28.945-165.5 77.18-229.395h-13.454c-4.125 0-8.6-.879-10.852-7.7-17.2-64.535-45.328-173.355-62.414-244.248-1.477 62.367-5.133 159.873-8.6 242.666l-.234 5.719-9.375 3.563h-54.658l-4.148-10.1 19.242-334.148 9.75-3.094h78.141c6.75 0 9.258 3.908 10.641 7.289 10.1 35.18 45.352 160.922 60.516 226.389 10.336-37.811 28.781-98.783 44.25-149.771 9.445-31.219 17.859-58.992 22.758-75.973l1.547-3.445 8.227-4.488h81.539l4.477 7.992 8.438 206.191A380.793 380.793 0 0 1 861.984 482.5c-50.437-25.189-72.375-55.189-72.375-99.434 0-61.33 46.852-100.939 119.438-100.939 32.484 0 59.391 4.781 75.8 13.535 6.234 2.508 6.234 9.217 6.234 11.438v54.2l-8.109 2.918h-2.109L977.2 362c-16.008-9.217-40.453-14.584-68.156-14.584-31.758 0-49.992 11.379-49.992 31.1 0 14.408 7.523 26.2 45.844 43.881l18.375 8.162c47.273 21.68 72.656 46.23 81.188 78.873a379.685 379.685 0 0 1 51.445 25.1L1056 144a47.987 47.987 0 0 0-48-48zM237.234 639.27c-34.945 0-65.812-6.246-86.977-17.625C144 617.859 144 611.848 144 608.637v-57.3l7.992-2.5c28.945 16.922 58.055 25.559 86.836 25.559 32.906 0 51.047-11.789 51.047-33.088 0-14.578-7.664-27.3-45.469-45.979l-21.89-9.629C167.438 459.855 144 429.164 144 383.068c0-61.33 46.852-100.939 119.438-100.939 32.531 0 59.461 4.781 75.8 13.535 6.234 2.508 6.234 9.217 6.234 11.438v54.2l-8.109 2.918h-2.086L331.57 362c-15.867-9.217-40.312-14.584-68.133-14.584-31.734 0-50.016 11.379-50.016 31.1 0 14.408 7.547 26.2 45.891 43.881l18.422 8.162c59.414 27.246 84.656 58.816 84.656 105.609.001 62.66-49.124 103.102-125.156 103.102zm388.828-84.955l-4.262 14.818a384.053 384.053 0 0 1 53.6-36.6c-.68-55.23-1.125-109.605-1.266-147.6-12.493 46.267-31.665 112.721-48.071 169.381z"/><path d="M864 578.4c-157.734 0-285.609 127.863-285.609 285.6S706.266 1149.6 864 1149.6s285.609-127.863 285.609-285.6S1021.734 578.4 864 578.4zm122.859 308.123L808.43 1090.518c-13.8 15.785-39.047 0-30.891-19.324l60.188-142.922-85.148-36.551a31.873 31.873 0 0 1-11.414-50.256l178.43-203.988c13.781-15.785 39.047 0 30.891 19.324l-60.213 142.922 85.148 36.551a31.885 31.885 0 0 1 11.438 50.249z"/></svg>