<svg xmlns="http://www.w3.org/2000/svg" width="1152" height="1152" viewBox="0 0 1152 1152"><title>SMSRefresh_24</title><path d="M1008 98.4H144a48 48 0 0 0-48 48v624a48 48 0 0 0 48 48h144l133.711 222.85a12 12 0 0 0 20.578 0l51.141-85.225a380.434 380.434 0 0 1-11.039-89.625c0-86.227 28.945-165.5 77.18-229.395h-13.454c-4.125 0-8.6-.879-10.852-7.7-17.2-64.535-45.328-173.355-62.414-244.248-1.477 62.367-5.133 159.873-8.6 242.666l-.234 5.719-9.375 3.563h-54.658l-4.148-10.1 19.242-334.148 9.75-3.094h78.141c6.75 0 9.258 3.908 10.641 7.289 10.1 35.18 45.352 160.922 60.516 226.389 10.336-37.811 28.781-98.783 44.25-149.771 9.445-31.219 17.859-58.992 22.758-75.973l1.547-3.445 8.227-4.488h81.539l4.477 7.992 8.438 206.191A380.793 380.793 0 0 1 861.984 484.9c-50.437-25.189-72.375-55.189-72.375-99.434 0-61.33 46.852-100.939 119.438-100.939 32.484 0 59.391 4.781 75.8 13.535 6.234 2.508 6.234 9.217 6.234 11.438v54.2l-8.109 2.918h-2.109L977.2 364.4c-16.008-9.217-40.453-14.584-68.156-14.584-31.758 0-49.992 11.379-49.992 31.1 0 14.408 7.523 26.2 45.844 43.881l18.375 8.162c47.273 21.68 72.656 46.23 81.188 78.873a379.685 379.685 0 0 1 51.445 25.1L1056 146.4a47.987 47.987 0 0 0-48-48zM237.234 641.67c-34.945 0-65.812-6.246-86.977-17.625C144 620.259 144 614.248 144 611.037v-57.3l7.992-2.5c28.945 16.922 58.055 25.559 86.836 25.559 32.906 0 51.047-11.789 51.047-33.088 0-14.578-7.664-27.3-45.469-45.979l-21.89-9.629C167.438 462.255 144 431.564 144 385.468c0-61.33 46.852-100.939 119.438-100.939 32.531 0 59.461 4.781 75.8 13.535 6.234 2.508 6.234 9.217 6.234 11.438v54.2l-8.109 2.918h-2.086l-3.7-2.215c-15.867-9.217-40.312-14.584-68.133-14.584-31.734 0-50.016 11.379-50.016 31.1 0 14.408 7.547 26.2 45.891 43.881l18.422 8.162c59.414 27.246 84.656 58.816 84.656 105.609-.006 62.655-49.131 103.097-125.163 103.097zm388.828-84.955l-4.262 14.818a384.053 384.053 0 0 1 53.6-36.6c-.68-55.23-1.125-109.605-1.266-147.6-12.493 46.267-31.665 112.721-48.071 169.381z"/><path d="M1079.648 866.4c-10 114.237-101.379 204.2-213.246 204.2-60.035 0-109.312-22.392-148.09-64.014l92-92.188H580.8v229.98l82.7-82.875c51.656 55.518 123.574 90.5 202.9 90.5 151.84 0 275.6-126.144 285.6-285.6h-72.352zM1016.813 726.932L927.246 818.4H1152V588.891l-81.715 83.449c-51.844-56.619-123.844-91.54-203.885-91.54-151.84 0-275.6 126.138-285.6 285.6h72.352c10-114.243 101.379-204.208 213.246-204.208 58.551-.001 111.872 24.752 150.415 64.74z"/></svg>