<svg xmlns="http://www.w3.org/2000/svg" data-name="S_SortOrderDown_24_N@2x" height="48" id="S_SortOrderDown_24_N_2x" viewBox="0 0 48 48" width="48"><defs><style>.fill{fill:#707070}</style></defs><title>S_SortOrderDown_24_N@2x</title><path class="fill" d="M38 13v19l-3.405.011a.5.5 0 0 0-.349.862L40 38.615l5.766-5.742a.5.5 0 0 0-.349-.862L42 32V13a1 1 0 0 0-1-1h-2a1 1 0 0 0-1 1z"/><rect class="fill" height="4" rx="1" ry="1" width="28" x="4" y="12"/><rect class="fill" height="4" rx="1" ry="1" width="24" x="4" y="22"/><rect class="fill" height="4" rx="1" ry="1" width="20" x="4" y="32"/></svg>