<svg xmlns="http://www.w3.org/2000/svg" width="1152" height="1152" viewBox="0 0 1152 1152"><title>Spam_24</title><path d="M1099.641 96H52.359C23.438 96 0 117.492 0 144v33.3l568.43 416.808a12.946 12.946 0 0 0 15.188 0L1152 177.3V144c0-26.508-23.437-48-52.359-48zM0 291.87v406.254l316.125-174.469L0 291.87zM507.48 664l-110.05-80.72L0 802.485V864c0 26.508 23.438 48 52.359 48h430.957A386.035 386.035 0 0 1 480 864a381.831 381.831 0 0 1 49.887-188.865c-7.746-3.235-15.668-6.188-22.407-11.135zM1152 610.594V291.876L893.438 481.488A382.579 382.579 0 0 1 1152 610.594zM864 578.405c-157.734 0-285.6 127.872-285.6 285.6s127.863 285.6 285.6 285.6 285.6-127.869 285.6-285.6-127.866-285.6-285.6-285.6zm-214.2 285.6a213.2 213.2 0 0 1 39.6-124.113L988.113 1038.6A213.223 213.223 0 0 1 864 1078.207c-118.3 0-214.2-95.9-214.2-214.201zm388.8 124.117L739.887 689.411A213.223 213.223 0 0 1 864 649.808c118.3 0 214.2 95.9 214.2 214.2a213.213 213.213 0 0 1-39.6 124.114z"/></svg>