<svg xmlns="http://www.w3.org/2000/svg" width="1152" height="1152" viewBox="0 0 1152 1152"><title>Spellcheck_24</title><path d="M1082.015 396.594l-71.338-55.531a24 24 0 0 0-33.681 4.2L552.353 890.772 345.635 684.054a24 24 0 0 0-33.941 0l-64.665 64.665a24 24 0 0 0-.01 33.931l298.371 298.737a24 24 0 0 0 35.923-2.222l504.9-648.894a24 24 0 0 0-4.198-33.677z"/><path d="M930.914 131.672c-12.187-5.344-32.391-8.531-63.187-8.531-108.844 0-178.969 73.313-179.016 179.484 0 77.842 32.273 128.262 79.359 154.77l37.969-48.762c-30.07-17.543-53.578-50.906-53.578-108.117.047-75.422 45.188-122.109 114.75-122.109 25.453 0 47.766 3.7 62.625 11.109 2.156.563 4.266.563 4.266-3.7v-48.332c-.002-3.184-1.079-4.784-3.188-5.812zm-702.469-3.234h-71.156c-2.109 0-3.187 1.594-3.187 3.7-.516 17.016-2.109 22.313-4.266 27.609L48.4 470.391c-1.078 3.188 0 4.781 3.188 4.781h50.953c2.672 0 4.266-1.078 5.3-3.7l27.609-89.2H252.3l29.2 89.766c1.031 2.109 2.109 3.188 4.781 3.188H343.1c3.188 0 3.7-1.594 3.188-4.266l-114.14-339.335c-.515-2.672-1.593-3.187-3.703-3.187zm-77.578 198.046c14.859-48.844 34.031-110.437 42.516-146.016h.563c9 37.688 32.859 110.438 42.938 146.016h-86.017zm434.906-38.156c13.828-10.125 33.516-31.875 33.516-69.562 0-33.984-17.531-91.359-122.672-91.359-34.5 0-79.641 1.078-96.656 1.594-2.625.516-3.187 2.109-3.187 4.781l-.047 337.172a4.038 4.038 0 0 0 3.188 4.266c19.125.516 53.625 1.078 95.063 1.078 84.984.516 141.234-39.844 141.234-106.219-.001-48.845-30.235-72.235-50.439-81.751zm-129-107.3c10.125 0 22.828-.516 38.25-.516 41.438 0 64.266 15.375 64.266 46.734 0 21.75-8.531 33.984-20.25 42.984a407.349 407.349 0 0 0-44.578-2.625h-37.734zm36.609 243.234c-14.344 0-25.5-.562-36.656-1.078V320.719h44.109c12.7 0 24.938 1.031 34.5 3.7 26.016 6.891 37.172 24.422 37.172 47.25.001 36.659-31.874 52.597-79.124 52.597z"/></svg>