<svg xmlns="http://www.w3.org/2000/svg" width="1152" height="1152" viewBox="0 0 1152 1152"><title>Spin_24</title><path d="M816 648c-280.993 8.326-353 12.037-387.469 9.029-63.961-3.521-129-22.992-160.312-66.492-20.971-26.068-23-52.606-26.133-81.861-.516-22.02 7.852-52.963 23.273-75.961 31.313-48.568 86.2-79.23 135.75-94.477 28.054-9.358 50.332-13.075 78.891-17.027V576h192V120a23.994 23.994 0 0 0-24-24H504a23.994 23.994 0 0 0-24 24v123.152c-41.542 2.293-74.384 8.079-101.742 15.451a376.688 376.688 0 0 0-97.734 39.24c-33.094 18.961-66.258 45.293-92.367 81.311-26.016 36.709-44.789 79.365-46.219 134.1 2.444 52.314 7.589 93.093 37.664 137.479 27.281 43.764 70.078 73.822 111.773 92.947 42.3 19.189 84.984 28.289 125.3 33.428C460.737 783.4 543.718 783.933 816 792v120l240-192-240-192v120z"/><path d="M480 1032a23.994 23.994 0 0 0 24 24h144a23.994 23.994 0 0 0 24-24V864H480v168z"/><circle cx="768" cy="288" r="48"/><path d="M916.313 358.447a48 48 0 1 0-48-48 48.017 48.017 0 0 0 48 48z"/><circle cx="1056" cy="384" r="48"/></svg>