<svg xmlns="http://www.w3.org/2000/svg" width="1152" height="1152" viewBox="0 0 1152 1152"><title>Stamp_24</title><path d="M1152 192V96h-144c0 53.016-21.492 48-48 48s-48 5.016-48-48h-96c0 53.016-21.492 57.6-48 57.6s-48-4.584-48-57.6h-96c0 53.016-21.492 57.6-48 57.6s-48-4.584-48-57.6h-96c0 53.016-21.492 57.6-48 57.6s-48-4.584-48-57.6h-96c0 53.016-21.492 57.6-48 57.6s-48-4.584-48-57.6H0v96c53.016 0 57.6 21.492 57.6 48S53.016 288 0 288v96c53.016 0 57.6 21.492 57.6 48S53.016 480 0 480v96c53.016 0 57.6 21.492 57.6 48S53.016 672 0 672v96c53.016 0 57.6 21.492 57.6 48S53.016 864 0 864v96h144c0-53.021 21.492-57.6 48-57.6s48 4.579 48 57.6h96c0-53.021 21.492-57.6 48-57.6s48 4.579 48 57.6h96c0-53.021 21.492-57.6 48-57.6s48 4.579 48 57.6h96c0-53.021 21.492-57.6 48-57.6s48 4.579 48 57.6h96c0-53.021 21.492-57.6 48-57.6s48 4.579 48 57.6h144v-96c-53.016 0-48-21.492-48-48s-5.016-48 48-48v-96c-53.016 0-57.6-21.492-57.6-48s4.584-48 57.6-48v-96c-53.016 0-57.6-21.492-57.6-48s4.584-48 57.6-48v-96c-53.016 0-57.6-21.492-57.6-48s4.584-48 57.6-48zM432 768h-96V384h-48v-96h144v480zm432-168a168 168 0 0 1-336 0V456a168 168 0 0 1 336 0v144z"/><path d="M768 456a72 72 0 0 0-144 0v144a72 72 0 0 0 144 0V456z"/><path d="M768 456a72 72 0 0 0-144 0v144a72 72 0 0 0 144 0V456z"/></svg>