<svg xmlns="http://www.w3.org/2000/svg" width="1152" height="1152" viewBox="0 0 1152 1152"><title>Starburst_24</title><path d="M601.494 113.73l76.917 216.294 207.331-98.554c22.658-10.77 46.301 12.868 35.53 35.53l-98.555 207.331 216.294 76.917c23.64 8.407 23.64 41.839 0 50.246l-216.294 76.917 98.554 207.331c10.772 22.661-12.869 46.3-35.529 35.529l-207.331-98.554-76.917 216.294c-8.407 23.64-41.839 23.64-50.246 0l-76.917-216.294L267 921.272c-22.661 10.772-46.3-12.869-35.529-35.529l98.554-207.331-216.295-76.918c-23.64-8.407-23.64-41.839 0-50.246l216.294-76.917L231.47 267c-10.77-22.662 12.868-46.3 35.53-35.53l207.331 98.554 76.917-216.294c8.406-23.64 41.839-23.64 50.246 0z"/></svg>