<svg xmlns="http://www.w3.org/2000/svg" width="1152" height="1152" viewBox="0 0 1152 1152"><title>StarStroke_24</title><path d="M1127.2 423.231l-390.417-18.389L601.1 41.942c-7.721-20.65-36.862-20.839-44.849-.291L415.067 404.842 24.778 423.579c-22.072 1.06-31.1 28.861-13.87 42.691l304.747 244.538-103.349 377.456c-5.84 21.328 17.826 38.535 36.314 26.4l327.3-214.761 326.057 212.742c18.476 12.055 42.061-5.107 36.274-26.4L836.194 710.808 1141.1 465.917c17.232-13.841 8.178-41.646-13.9-42.686zM347.81 940.216l71.96-263.232-212.949-170.675 272.593-12.9 96.508-255.269 96.519 255.268 272.588 12.9L732.08 676.983l71.96 263.232-228.118-149.779z"/></svg>