<svg xmlns="http://www.w3.org/2000/svg" data-name="S_StarOutline_24_N@2x" height="48" id="S_StarOutline_24_N_2x" viewBox="0 0 48 48" width="48"><defs><style>.fill{fill:#707070}</style></defs><title>S_StarOutline_24_N@2x</title><path class="fill" d="M46.967 17.635L30.7 16.868l-5.654-15.12a1 1 0 0 0-1.869-.012l-5.883 15.132-16.262.781a1 1 0 0 0-.578 1.779l12.7 10.189-4.308 15.727a1 1 0 0 0 1.513 1.1L24 37.5l13.582 8.86a1 1 0 0 0 1.511-1.1l-4.252-15.643 12.7-10.2a1 1 0 0 0-.574-1.782zM14.492 39.176l3-10.968L8.618 21.1l11.358-.538L24 9.922l4.022 10.636 11.358.538-8.88 7.112 3 10.968-9.5-6.241z"/></svg>