<svg xmlns="http://www.w3.org/2000/svg" data-name="S_Straighten_24_N@2x" height="48" id="S_Straighten_24_N_2x" viewBox="0 0 48 48" width="48"><defs><style>.fill{fill:#707070}</style></defs><title>S_Straighten_24_N@2x</title><path class="fill" d="M2 22a2 2 0 0 0-2 2v14a2 2 0 0 0 2 2h4V22zM46 22h-4v18h4a2 2 0 0 0 2-2V24a2 2 0 0 0-2-2z"/><path class="fill" d="M46 22h-4v18h4a2 2 0 0 0 2-2V24a2 2 0 0 0-2-2zM24 28c4.057 0 7.4-2.641 7.753-6H16.247c.353 3.359 3.696 6 7.753 6z"/><path class="fill" d="M36.1 22c0 5.523-5.473 10.2-12.1 10.2S11.9 27.523 11.9 22H10v18h28V22z"/><circle class="fill" cx="8" cy="16" r="2.2"/><circle class="fill" cx="40" cy="16" r="2.2"/><circle class="fill" cx="24" cy="8" r="2.2"/><circle class="fill" cx="15" cy="10" r="2.2"/><circle class="fill" cx="33" cy="10" r="2.2"/></svg>