<svg xmlns="http://www.w3.org/2000/svg" data-name="S_StraightenOutline_24_N@2x" height="48" id="S_StraightenOutline_24_N_2x" viewBox="0 0 48 48" width="48"><defs><style>.fill{fill:#707070}</style></defs><title>S_StraightenOutline_24_N@2x</title><circle class="fill" cx="10" cy="13.8" r="2.2"/><circle class="fill" cx="38" cy="13.8" r="2.2"/><circle class="fill" cx="24" cy="5.8" r="2.2"/><circle class="fill" cx="16" cy="7.8" r="2.2"/><circle class="fill" cx="32" cy="7.8" r="2.2"/><path class="fill" d="M46 20H2a2 2 0 0 0-2 2v16a2 2 0 0 0 2 2h44a2 2 0 0 0 2-2V22a2 2 0 0 0-2-2zm-15.872 4A6.868 6.868 0 0 1 24 28.2a6.868 6.868 0 0 1-6.128-4.2zM4 36V24h4v12zm8 0V24h2.2a10 10 0 0 0 19.6 0H36v12zm32 0h-4V24h4z"/></svg>