<svg xmlns="http://www.w3.org/2000/svg" data-name="S_Subscribe_24_N@2x" height="48" id="S_Subscribe_24_N_2x" viewBox="0 0 48 48" width="48"><defs><style>.fill{fill:#707070}</style></defs><title>S_Subscribe_24_N@2x</title><rect class="fill" height="2" rx=".5" ry=".5" width="24" x="12" y="18"/><path class="fill" d="M47.109 15.406L25.109.74a2 2 0 0 0-2.219 0l-22 14.667A2 2 0 0 0 0 17.07v19.836l13.951-7.666L.716 20H8v-7a1 1 0 0 1 1-1h30a1 1 0 0 1 1 1v7h7.284l-13.253 9.251L48 36.959V17.07a2 2 0 0 0-.891-1.664z"/><path class="fill" d="M30.269 31.743l-4.062 2.687a4 4 0 0 1-4.414 0l-4.075-2.7L0 41.47V42a2 2 0 0 0 2 2h44a2 2 0 0 0 2-2v-.472zM34.811 24.452a.25.25 0 0 0-.148-.452H13.374a.25.25 0 0 0-.149.451l1.819 1.35a1 1 0 0 0 .594.2h16.741a1 1 0 0 0 .593-.195z"/></svg>