<svg xmlns="http://www.w3.org/2000/svg" width="1152" height="1152" viewBox="0 0 1152 1152"><title>SuccessMetric_24</title><rect x="96" y="817.533" width="240" height="240" rx="48" ry="48"/><rect x="432" y="337.533" width="240" height="720" rx="48.062" ry="48.062"/><rect x="768" y="673.54" width="239.991" height="383.994" rx="48" ry="48"/><path d="M372.7 518.234H216.934a24 24 0 0 1-24-24v-11.922a24 24 0 0 1 24-24H372.7v59.922zM253.487 231.563L372.7 307.877l-32.307 50.467-119.212-76.314a24 24 0 0 1-7.274-33.153l6.428-10.041a24 24 0 0 1 33.152-7.273zM511.417 278.545l-55.441-174.59a12 12 0 0 0-15.07-7.805l-34.238 10.875a12 12 0 0 0-7.8 15.07l49.705 156.45h62.848zM732.234 518.234H888a24 24 0 0 0 24-24v-11.922a24 24 0 0 0-24-24H732.234v59.922zM851.447 231.563l-119.213 76.314 32.307 50.467 119.213-76.314a24 24 0 0 0 7.274-33.153l-6.428-10.04a24 24 0 0 0-33.153-7.274zM593.517 278.545l55.441-174.59a12 12 0 0 1 15.07-7.805l34.238 10.875a12 12 0 0 1 7.8 15.07l-49.705 156.45h-62.844z" fill-rule="evenodd"/></svg>