<svg xmlns="http://www.w3.org/2000/svg" width="1152" height="1152" viewBox="0 0 1152 1152"><title>SyncRemove_24</title><path d="M285.6 580.8C127.863 580.8 0 708.671 0 866.4S127.863 1152 285.6 1152s285.6-127.869 285.6-285.6-127.868-285.6-285.6-285.6zm195.162 412.871a12 12 0 0 1 0 16.972l-50.918 50.912a12 12 0 0 1-16.969 0L285.6 934.274l-127.28 127.281a12 12 0 0 1-16.969 0l-50.918-50.912a12 12 0 0 1 0-16.972l127.29-127.277L90.434 739.113a12 12 0 0 1 0-16.972l50.918-50.909a12 12 0 0 1 16.969 0L285.6 798.51l127.275-127.278a12 12 0 0 1 16.969 0l50.918 50.909a12 12 0 0 1 0 16.972L353.473 866.394zM720 456V264a23.994 23.994 0 0 0-24-24H336V76.969a12 12 0 0 0-20.484-8.484L14.391 360l147.4 142.7A368.972 368.972 0 0 1 336 482.977V480h360a23.994 23.994 0 0 0 24-24zm116.484-51.516A12 12 0 0 0 816 412.969V576H542.883c68.3 60.422 114.773 144.715 126.141 240H816v163.031a12 12 0 0 0 20.484 8.484L1137.609 696z"/></svg>