<svg xmlns="http://www.w3.org/2000/svg" width="1152" height="1152" viewBox="0 0 1152 1152"><title>TableColumnAddRight_24</title><path d="M578.4 864c0 157.733 127.867 285.6 285.6 285.6s285.6-127.871 285.6-285.6S1021.733 578.4 864 578.4 578.4 706.263 578.4 864zm93.6-36a12 12 0 0 1 12-12h132V684a12 12 0 0 1 12-12h72a12 12 0 0 1 12 12v132h132a12 12 0 0 1 12 12v72a12 12 0 0 1-12 12H912v132a12 12 0 0 1-12 12h-72a12 12 0 0 1-12-12V912H684a12 12 0 0 1-12-12v-72z"/><path d="M96 144v864a48 48 0 0 0 48 48h390.6a379.078 379.078 0 0 1-39.539-96H480V768h15.059a379.078 379.078 0 0 1 39.541-96H480V480h192v54.6a379.233 379.233 0 0 1 384 0V144a48 48 0 0 0-48-48H144a48 48 0 0 0-48 48zm384 48h192v192H480V192zM192 768h192v192H192V768zm0-288h192v192H192V480zm0-288h192v192H192V192z"/></svg>