<svg xmlns="http://www.w3.org/2000/svg" width="1152" height="1152" viewBox="0 0 1152 1152"><title>TableAndChart_24</title><rect x="48" y="336" width="288" height="144" rx="24" ry="24"/><rect x="432" y="192" width="288" height="288" rx="24" ry="24"/><path d="M840 0h240a24 24 0 0 1 24 24v456H816V24a24 24 0 0 1 24-24zM1056 576H96a48 48 0 0 0-48 48v384a48 48 0 0 0 48 48h960a48 48 0 0 0 48-48V624a48 48 0 0 0-48-48zM336 960H144v-96h192v96zm0-192H144v-96h192v96zm672 192H432v-96h576v96zm0-192H432v-96h576v96z"/></svg>