<svg xmlns="http://www.w3.org/2000/svg" width="1152" height="1152" viewBox="0 0 1152 1152"><title>TableRowRemoveCenter_24</title><path d="M1149.6 576c0-157.733-127.867-285.6-285.6-285.6S578.4 418.267 578.4 576 706.267 861.6 864 861.6s285.6-127.863 285.6-285.6zm-93.6 36a12 12 0 0 1-12 12H684a12 12 0 0 1-12-12v-72a12 12 0 0 1 12-12h360a12 12 0 0 1 12 12v72z"/><path d="M96 144v864a48 48 0 0 0 48 48h864a48 48 0 0 0 48-48V903.949a378.82 378.82 0 0 1-96 40.371V960H768v-14.437a379.352 379.352 0 0 1-96-38.7V960H480V816h85.09a380.155 380.155 0 0 1-72.428-144H240V480h252.662a380.155 380.155 0 0 1 72.428-144H480V192h192v53.133a379.352 379.352 0 0 1 96-38.7V192h192v15.68a378.82 378.82 0 0 1 96 40.371V144a48 48 0 0 0-48-48H144a48 48 0 0 0-48 48zm288 672v144H192V816h192zm0-624v144H192V192h192z"/></svg>