<svg xmlns="http://www.w3.org/2000/svg" width="1152" height="1152" viewBox="0 0 1152 1152"><title>TableEdit_24</title><path d="M505.336 861.539a115.939 115.939 0 0 1 28.09-45.75L581.215 768H384v-96h293.227L864 485.227V144a48 48 0 0 0-48-48H144a48 48 0 0 0-48 48v672a48 48 0 0 0 48 48h360.48zM768 576H384v-96h384v96zM192 192h576v192H192V192zm96 576h-96v-96h96v96zm0-192h-96v-96h96v96zM1096.026 648.235L983.71 535.919a23.663 23.663 0 0 0-16.879-6.878l-.749.01a26.713 26.713 0 0 0-18.061 7.915l-346.7 346.7a19.433 19.433 0 0 0-4.892 8.2l-67.5 194.7c-2.219 7.335 8.945 16.572 15.255 16.572a5.346 5.346 0 0 0 1.194-.124c5.385-1.239 166.667-59.065 194.815-67.527a19.113 19.113 0 0 0 8.072-4.852l346.71-346.715a26.776 26.776 0 0 0 7.877-17.21 23.8 23.8 0 0 0-6.826-18.475zM724.315 999.468c-42.1 12.653-108.118 41.94-144.488 52.8l52.528-144.528z"/></svg>