<svg xmlns="http://www.w3.org/2000/svg" width="1152" height="1152" viewBox="0 0 1152 1152"><title>TableColumnAddLeft_24</title><path d="M288 578.4C130.267 578.4 2.4 706.263 2.4 864s127.867 285.6 285.6 285.6S573.6 1021.732 573.6 864 445.733 578.4 288 578.4zM480 900a12 12 0 0 1-12 12H336v132a12 12 0 0 1-12 12h-72a12 12 0 0 1-12-12V912H108a12 12 0 0 1-12-12v-72a12 12 0 0 1 12-12h132V684a12 12 0 0 1 12-12h72a12 12 0 0 1 12 12v132h132a12 12 0 0 1 12 12v72z"/><path d="M1008 96H144a48 48 0 0 0-48 48v390.6a379.233 379.233 0 0 1 384 0V480h192v192h-54.6a379.078 379.078 0 0 1 39.539 96H672v192h-15.059a379.078 379.078 0 0 1-39.539 96H1008a48 48 0 0 0 48-48V144a48 48 0 0 0-48-48zM672 384H480V192h192v192zm288 576H768V768h192v192zm0-288H768V480h192v192zm0-288H768V192h192v192z"/></svg>