<svg xmlns="http://www.w3.org/2000/svg" width="1152" height="1152" viewBox="0 0 1152 1152"><title>Tableau_24</title><path d="M768 528H624V384h-96v144H384v96h144v144h96V624h144v-96zM672 120h-72V48h-48v72h-72v48h72v72h48v-72h72v-48zM672 984h-72v-72h-48v72h-72v48h72v72h48v-72h72v-48zM1104 552h-72v-72h-48v72h-72v48h72v72h48v-72h72v-48zM240 552h-72v-72h-48v72H48v48h72v72h48v-72h72v-48zM998.402 261.595H890.405V153.598H818.4v107.997H710.402V333.6H818.4v107.998h72.005V333.6h107.997v-72.005zM441.598 261.595H333.6V153.598h-72.005v107.997H153.598V333.6h107.997v107.998H333.6V333.6h107.998v-72.005zM998.402 818.4H890.405V710.402H818.4V818.4H710.402v72.005H818.4v107.997h72.005V890.405h107.997V818.4zM441.598 818.4H333.6V710.402h-72.005V818.4H153.598v72.005h107.997v107.997H333.6V890.405h107.998V818.4z"/></svg>