<svg xmlns="http://www.w3.org/2000/svg" width="1152" height="1152" viewBox="0 0 1152 1152"><title>TableRowAddTop_24</title><path d="M864 573.6c157.733 0 285.6-127.867 285.6-285.6S1021.733 2.4 864 2.4 578.4 130.268 578.4 288 706.267 573.6 864 573.6zM672 252a12 12 0 0 1 12-12h132V108a12 12 0 0 1 12-12h72a12 12 0 0 1 12 12v132h132a12 12 0 0 1 12 12v72a12 12 0 0 1-12 12H912v132a12 12 0 0 1-12 12h-72a12 12 0 0 1-12-12V336H684a12 12 0 0 1-12-12v-72z"/><path d="M534.6 96H144a48 48 0 0 0-48 48v864a48 48 0 0 0 48 48h864a48 48 0 0 0 48-48V617.4a379.078 379.078 0 0 1-96 39.539V672H768v-15.059a379.078 379.078 0 0 1-96-39.541V672H480V480h54.6a379.233 379.233 0 0 1 0-384zM768 768h192v192H768V768zm-288 0h192v192H480V768zm-96-96H192V480h192v192zm0 288H192V768h192v192z"/></svg>