<svg xmlns="http://www.w3.org/2000/svg" width="1152" height="1152" viewBox="0 0 1152 1152"><title>TableColumnRemoveCenter_24</title><path d="M290.4 864c0 157.733 127.867 285.6 285.6 285.6S861.6 1021.732 861.6 864 733.733 578.4 576 578.4 290.4 706.263 290.4 864zm93.6-36a12 12 0 0 1 12-12h360a12 12 0 0 1 12 12v72a12 12 0 0 1-12 12H396a12 12 0 0 1-12-12v-72z"/><path d="M1008 96H144a48 48 0 0 0-48 48v864a48 48 0 0 0 48 48h104.051a378.82 378.82 0 0 1-40.371-96H192V768h14.438a379.352 379.352 0 0 1 38.7-96H192V480h144v85.09a380.155 380.155 0 0 1 144-72.428V240h192v252.662a380.155 380.155 0 0 1 144 72.428V480h144v192h-53.133a379.352 379.352 0 0 1 38.7 96H960v192h-15.68a378.82 378.82 0 0 1-40.371 96H1008a48 48 0 0 0 48-48V144a48 48 0 0 0-48-48zM336 384H192V192h144v192zm624 0H816V192h144v192z"/></svg>