<svg xmlns="http://www.w3.org/2000/svg" width="1152" height="1152" viewBox="0 0 1152 1152"><title>TagExclude_24</title><path d="M482.391 866.4c0-210.756 170.859-381.6 381.609-381.6a382.86 382.86 0 0 1 78.539 8.174L559.617 110.063A47.981 47.981 0 0 0 525.68 96H144a48 48 0 0 0-48 48v381.691a48.02 48.02 0 0 0 14.062 33.943l379.454 379.448a382.784 382.784 0 0 1-7.125-72.682zM288 372.018a84.009 84.009 0 1 1 84-84.006 84.017 84.017 0 0 1-84 84.006z"/><path d="M864 578.405c-157.734 0-285.6 127.872-285.6 285.6s127.863 285.6 285.6 285.6 285.6-127.869 285.6-285.6-127.866-285.6-285.6-285.6zm214.2 285.6a212.605 212.605 0 0 1-39.914 123.8L740.2 689.722A212.629 212.629 0 0 1 864 649.808c118.3 0 214.2 95.9 214.2 214.198zm-428.391 0a212.6 212.6 0 0 1 39.914-123.8L987.8 1038.293a212.629 212.629 0 0 1-123.8 39.914c-118.3 0-214.2-95.9-214.2-214.201z"/></svg>