<svg xmlns="http://www.w3.org/2000/svg" width="1152" height="1152" viewBox="0 0 1152 1152"><title>Tags_24</title><path d="M991.026 463.029l-408-408A24 24 0 0 0 566.056 48H216a24 24 0 0 0-24 24v350.062a24 24 0 0 0 7.029 16.971l408 408a24 24 0 0 0 33.941 0L991.027 496.97a24 24 0 0 0-.001-33.941zM336 254.407A62.407 62.407 0 1 1 398.4 192a62.409 62.409 0 0 1-62.4 62.407z"/><path d="M936 695.994L640.969 991.025a24 24 0 0 1-33.937 0l-408-408A24.017 24.017 0 0 1 192 566.051v144a24.017 24.017 0 0 0 7.031 16.975l408 408a24 24 0 0 0 33.938 0l350.062-350.063a24 24 0 0 0 0-33.943z"/></svg>