<svg xmlns="http://www.w3.org/2000/svg" data-name="S_Targeted_24_N@2x" height="48" id="S_Targeted_24_N_2x" viewBox="0 0 48 48" width="48"><defs><style>.cls-1{fill:#707070}</style></defs><title>S_Targeted_24_N@2x</title><path class="cls-1" d="M24 4a19.964 19.964 0 0 0-5.209.709l1.625 1.64a5.177 5.177 0 0 1 1.508 3.656v.166a14.12 14.12 0 1 1-11.753 11.752h-.166a5.165 5.165 0 0 1-3.656-1.508l-1.64-1.625A19.989 19.989 0 1 0 24 4z"/><path class="cls-1" d="M25.685 17.213a5.993 5.993 0 0 1-8.472 8.472 7 7 0 1 0 8.472-8.472z"/><path class="cls-1" d="M8.37 1.05L6.178 6.178 1.05 8.37a.6.6 0 0 0-.185.98l8.3 8.224a1.206 1.206 0 0 0 .847.349l5.09.007 4.8 4.8a2 2 0 0 0 2.827-2.83l-4.8-4.8-.007-5.09a1.205 1.205 0 0 0-.349-.847L9.35.864a.6.6 0 0 0-.98.186z"/></svg>