<svg xmlns="http://www.w3.org/2000/svg" width="1152" height="1152" viewBox="0 0 1152 1152"><title>Teapot_24</title><path d="M833.484 288c-57.75-55.793-131.25-92.391-212.367-100.3a71.845 71.845 0 1 0-86.625 2.965C461.508 202.313 395.367 236.947 342.516 288h490.968zM890.2 384h-619c-19.594 37.863-35.648 85.055-45.422 133.078-.258-.07-.82.012-1.055-.076-41.531-17.174-35.93-31.277-71.32-123.311-20.391-53-84.82-59.725-108.258-65.062-10.687-2.437-21.492 3.234-26.273 13.084L4.594 370.248c-6.281 12.932-.586 32.1 13.758 33.082 22.948 1.565 37.312 14.87 41.086 23.83 9.445 22.605 13.359 43.863 17.531 66.4 6.914 37.676 13.219 107.748 50.555 154.705 29.977 37.7 70.313 58.365 105.258 71.186C260.438 818.32 320.953 901.43 400.9 952.57a48.985 48.985 0 0 0 26.366 7.43h321.468a48.985 48.985 0 0 0 26.367-7.43c71.32-45.627 127.2-116.707 158.133-201.668 3.094-1.125 6.281-2.2 9.211-3.457 38.438-16.406 75.492-37.1 108.094-63.48 58.875-47.684 95.953-121.453 93.492-198.164C1139.6 347.7 983.883 291.141 890.2 384zm134.6 226.9c-19.359 20.684-43.664 36.7-69.3 50.338A446.226 446.226 0 0 0 960 600c0-51.105-11.25-106.113-28.312-155.25 27.727-31.2 81.234-52.582 116.789-20.168 51.281 46.77 15.398 144.586-23.677 186.318z"/></svg>