<svg xmlns="http://www.w3.org/2000/svg" width="1152" height="1152" viewBox="0 0 1152 1152"><title>TestABEdit_24</title><path d="M154.208 579.561l-41.871 125.613c-1.522 4.568-3.806 6.09-8.374 6.09H27.834c-4.567 0-6.09-2.284-5.329-7.613l156.826-446.115c3.045-7.613 5.329-15.226 6.852-41.11 0-3.045 1.522-5.329 4.568-5.329h105.818c3.806 0 4.567.761 5.329 4.568l175.858 488.748c.761 4.568 0 6.852-4.568 6.852h-85.264c-3.807 0-6.09-1.522-7.613-4.568l-44.155-127.136H154.208zm157.592-82.98c-15.987-50.245-51.767-156.064-66.994-209.355h-.766c-12.181 51.007-42.632 140.077-65.471 209.355H311.8zM561.55 740.194c-.761 3.045-2.284 3.806-5.329 3.806h-63.187c-3.806 0-4.567-1.522-3.806-4.568L639.2 181.407c.762-3.045 1.523-3.045 4.568-3.045h63.948c3.045 0 3.807.761 3.045 3.806zM858.609 586.629v-96.9h69.258a245.792 245.792 0 0 1 36.211 2.6 121.335 121.335 0 0 1 47.25-11.227h.234c35.625 0 65.719 12.492 88.219 35.109l27.867 27.879c-5.977-59.7-45.844-89.719-71.883-103.084 19.031-13.705 47.977-44.912 47.977-98.971 0-48.721-24.375-132.457-183.469-132.457-51.023 0-120.3 1.518-147.7 2.279-3.8.762-4.57 3.041-4.57 6.85v458.514zm0-297.879c15.984 0 35.766-.762 60.141-.762 62.414 0 95.906 22.078 95.906 67 0 29.684-12.937 47.191-28.922 60.141-11.414-2.285-41.859-4.57-69.281-4.57h-57.844V288.75z"/><path d="M1144.026 696.235L1031.71 583.919a23.663 23.663 0 0 0-16.879-6.878l-.749.01a26.713 26.713 0 0 0-18.061 7.915l-346.7 346.7a19.433 19.433 0 0 0-4.892 8.2l-67.5 194.7c-2.219 7.335 8.945 16.572 15.255 16.572a5.346 5.346 0 0 0 1.194-.124c5.385-1.239 166.667-59.065 194.815-67.527a19.113 19.113 0 0 0 8.072-4.852l346.71-346.715a26.776 26.776 0 0 0 7.877-17.21 23.8 23.8 0 0 0-6.826-18.475zm-371.711 351.233c-42.1 12.653-108.118 41.94-144.488 52.8l52.528-144.528z"/></svg>