<svg xmlns="http://www.w3.org/2000/svg" width="1152" height="1152" viewBox="0 0 1152 1152"><title>TestProfile_24</title><path d="M1034.906 933.094l-237.3-237.3A382.072 382.072 0 0 0 864 480c0-212.08-171.914-384-384-384S96 267.92 96 480s171.914 384 384 384a382.134 382.134 0 0 0 215.789-66.4l237.3 237.3a71.992 71.992 0 0 0 101.817-101.806zm-334.64-264.358c-27.891-20.139-66.258-35.9-119.062-41.268-14.461-1.465-24.211-14.684-24.211-28.078v-40.535c0-6.656 2.7-12.832 7.148-18.088 30.023-35.613 48.68-85.8 48.68-133.588C612.82 306.094 559.2 249.6 478.2 249.6c-81.023 0-136.148 58.711-136.148 157.582 0 47.789 20.953 97.969 51 133.582 4.43 5.262 7.148 11.438 7.148 18.094v40.359c0 13.418-9.773 26.836-24.3 28.1-52.781 4.588-90.562 19.646-118.266 39.076A288.877 288.877 0 0 1 189.609 480c0-160.125 130.266-290.4 290.391-290.4S770.391 319.875 770.391 480a288.96 288.96 0 0 1-70.125 188.736z"/></svg>