<svg xmlns="http://www.w3.org/2000/svg" width="1152" height="1152" viewBox="0 0 1152 1152"><title>TestABGear_24</title><path d="M154.208 579.561l-41.871 125.613c-1.522 4.568-3.806 6.09-8.374 6.09H27.834c-4.567 0-6.09-2.284-5.329-7.613l156.826-446.115c3.045-7.613 5.329-15.226 6.852-41.11 0-3.045 1.522-5.329 4.568-5.329h105.818c3.806 0 4.567.761 5.329 4.568l175.858 488.748c.761 4.568 0 6.852-4.568 6.852h-85.264c-3.807 0-6.09-1.522-7.613-4.568l-44.155-127.136H154.208zm157.592-82.98c-15.987-50.245-51.767-156.064-66.994-209.355h-.766c-12.181 51.007-42.632 140.077-65.471 209.355H311.8zM626.859 476.742c1.688 0 3.281.539 4.969.609l78.938-295.184c.75-3.047 0-3.809-3.047-3.809h-63.938c-3.047 0-3.82 0-4.57 3.047l-86.7 322.559c21.052-17.349 46.833-27.222 74.348-27.222zM794.484 408h43.031a117.544 117.544 0 0 1 21.094 2.027V288.75c15.984 0 35.766-.762 60.141-.762 62.414 0 95.906 22.078 95.906 67 0 29.684-12.937 47.191-28.922 60.141-11.414-2.285-41.859-4.57-69.281-4.57H860.7a117.748 117.748 0 0 1 89.039 80.016 117.671 117.671 0 0 1 138.422 20.508l32.719 32.719c2.766 2.777 5.039 5.859 7.477 8.836-2.766-65.5-45.328-97.629-72.586-111.627 19.031-13.705 47.977-44.912 47.977-98.971 0-48.721-24.375-132.457-183.469-132.457-51.023 0-120.3 1.518-147.7 2.279-3.8.762-4.57 3.041-4.57 6.85v192.669A116.594 116.594 0 0 1 794.484 408zM1106.484 772.966h-75.352a217.854 217.854 0 0 0-31.816-77.244l53.648-53.646a21.516 21.516 0 0 0 0-30.428l-32.613-32.613a21.518 21.518 0 0 0-30.434 0l-53.647 53.649a217.949 217.949 0 0 0-77.238-31.825v-75.343A21.516 21.516 0 0 0 837.516 504h-43.032a21.516 21.516 0 0 0-21.516 21.516v75.343a217.949 217.949 0 0 0-77.238 31.825l-53.648-53.648a21.518 21.518 0 0 0-30.434 0l-32.613 32.613a21.516 21.516 0 0 0 0 30.428l53.648 53.646a217.854 217.854 0 0 0-31.816 77.244h-75.351A21.516 21.516 0 0 0 504 794.481v43.034a21.518 21.518 0 0 0 21.516 21.519h75.352a217.854 217.854 0 0 0 31.816 77.244l-53.648 53.646a21.512 21.512 0 0 0 0 30.425l32.613 32.613a21.518 21.518 0 0 0 30.434 0l53.648-53.646a217.928 217.928 0 0 0 77.238 31.813v75.352A21.518 21.518 0 0 0 794.484 1128h43.031a21.518 21.518 0 0 0 21.516-21.519v-75.351a217.928 217.928 0 0 0 77.238-31.813l53.648 53.646a21.518 21.518 0 0 0 30.434 0l32.613-32.613a21.512 21.512 0 0 0 0-30.425l-53.648-53.646a217.854 217.854 0 0 0 31.816-77.244h75.352A21.518 21.518 0 0 0 1128 837.516v-43.035a21.516 21.516 0 0 0-21.516-21.515zM816 900a84 84 0 1 1 84-84 84 84 0 0 1-84 84z"/></svg>