<svg xmlns="http://www.w3.org/2000/svg" width="1152" height="1152" viewBox="0 0 1152 1152"><title>TestAB_24</title><path d="M154.208 675.561l-41.871 125.613c-1.522 4.568-3.806 6.09-8.374 6.09H27.834c-4.567 0-6.09-2.284-5.329-7.613l156.826-446.115c3.045-7.613 5.329-15.226 6.852-41.11 0-3.045 1.522-5.329 4.568-5.329h105.818c3.806 0 4.567.761 5.329 4.568l175.858 488.748c.761 4.568 0 6.852-4.568 6.852h-85.264c-3.807 0-6.09-1.522-7.613-4.568l-44.155-127.136H154.208zm157.592-82.98c-15.987-50.245-51.767-156.064-66.994-209.355h-.766c-12.181 51.007-42.632 140.077-65.471 209.355H311.8zM561.55 836.194c-.761 3.045-2.284 3.806-5.329 3.806h-63.187c-3.806 0-4.567-1.522-3.806-4.568L639.2 277.407c.762-3.045 1.523-3.045 4.568-3.045h63.948c3.045 0 3.807.761 3.045 3.806zM768.006 314.71c0-3.806.761-6.09 4.568-6.852 27.406-.761 96.684-2.284 147.69-2.284 159.11 0 183.471 83.742 183.471 132.464 0 54.052-28.929 85.264-47.961 98.968 28.168 14.464 73.084 47.961 73.084 118 0 95.923-82.981 153.781-208.593 153.781-66.233 0-118-.761-146.929-1.522-3.807-.761-5.329-3.045-5.329-6.09V314.71zM858.6 506.555h57.858c27.406 0 57.858 2.284 69.277 4.568 15.987-12.942 28.929-30.452 28.929-60.142 0-44.916-33.5-66.994-95.922-66.994-24.362 0-44.155.762-60.142.762v121.806zm0 223.819c16.749.761 35.781 1.522 58.62 1.522 71.561.762 117.238-23.6 117.238-74.606 0-31.213-15.226-56.335-54.812-66.232-13.7-3.806-31.213-5.329-51.768-5.329H858.6v144.645z"/></svg>