<svg xmlns="http://www.w3.org/2000/svg" width="1152" height="1152" viewBox="0 0 1152 1152"><title>TestABRemove_24</title><path d="M154.208 579.561l-41.871 125.613c-1.522 4.568-3.806 6.09-8.374 6.09H27.834c-4.567 0-6.09-2.284-5.329-7.613l156.826-446.115c3.045-7.613 5.329-15.226 6.852-41.11 0-3.045 1.522-5.329 4.568-5.329h105.818c3.806 0 4.567.761 5.329 4.568l175.858 488.748c.761 4.568 0 6.852-4.568 6.852h-85.264c-3.807 0-6.09-1.522-7.613-4.568l-44.155-127.136H154.208zm157.592-82.98c-15.987-50.245-51.767-156.064-66.994-209.355h-.766c-12.181 51.007-42.632 140.077-65.471 209.355H311.8zM493.031 744h9.8A381.246 381.246 0 0 1 601.8 589.617l108.966-407.449c.75-3.047 0-3.809-3.047-3.809h-63.938c-3.047 0-3.82 0-4.57 3.047L489.234 739.43c-.773 3.047 0 4.57 3.797 4.57zM864 484.8a382.585 382.585 0 0 1 58.43 4.928h5.438c20.555 0 38.086 1.523 51.773 5.332 18.516 4.629 31.266 12.826 40.055 23.18a381.838 381.838 0 0 1 105.82 70.76 149.363 149.363 0 0 0 3.352-29.994c0-70.043-44.93-103.535-73.1-118 19.031-13.705 47.977-44.912 47.977-98.971 0-48.721-24.375-132.457-183.469-132.457-51.023 0-120.3 1.518-147.7 2.279-3.8.762-4.57 3.041-4.57 6.85v278.754A380.947 380.947 0 0 1 864 484.8zm-5.391-196.05c15.984 0 35.766-.762 60.141-.762 62.414 0 95.906 22.078 95.906 67 0 29.684-12.937 47.191-28.922 60.141-11.414-2.285-41.859-4.57-69.281-4.57h-57.844V288.75zM864 578.405c-157.734 0-285.6 127.872-285.6 285.6s127.863 285.6 285.6 285.6 285.6-127.869 285.6-285.6-127.866-285.6-285.6-285.6zm195.164 412.872a12 12 0 0 1 0 16.972l-50.918 50.912a12 12 0 0 1-16.969 0L864 931.881l-127.277 127.28a12 12 0 0 1-16.969 0l-50.918-50.912a12 12 0 0 1 0-16.972L796.125 864 668.836 736.72a12 12 0 0 1 0-16.972l50.918-50.909a12 12 0 0 1 16.969 0L864 796.116l127.277-127.277a12 12 0 0 1 16.969 0l50.918 50.909a12 12 0 0 1 0 16.972L931.875 864z"/></svg>