<svg xmlns="http://www.w3.org/2000/svg" data-name="S_TextStroke_24_N@2x" height="48" id="S_TextStroke_24_N_2x" viewBox="0 0 48 48" width="48"><defs><style>.fill{fill:#707070}</style></defs><title>S_TextStroke_24_N@2x</title><path class="fill" d="M37 10a1 1 0 0 1 1 1v4a1 1 0 0 1-1 1 1 1 0 0 1-1-1v-3H26v24h3a1 1 0 0 1 1 1 1 1 0 0 1-1 1H17a1 1 0 0 1-1-1 1 1 0 0 1 1-1h3V12H10v3a1 1 0 0 1-1 1 1 1 0 0 1-1-1v-4a1 1 0 0 1 1-1zM6 6a2 2 0 0 0-2 2v10a2 2 0 0 0 2 2h6a2 2 0 0 0 2-2v-2h2v16h-2a2 2 0 0 0-2 2v6a2 2 0 0 0 2 2h18a2 2 0 0 0 2-2v-6a2 2 0 0 0-2-2h-2V16h2v2a2 2 0 0 0 2 2h6a2 2 0 0 0 2-2V8a2 2 0 0 0-2-2z"/></svg>