<svg xmlns="http://www.w3.org/2000/svg" width="1152" height="1152" viewBox="0 0 1152 1152"><title>TextIndentIncrease_24</title><rect x="288" y="144" width="768" height="96" rx="24" ry="24"/><rect x="576" y="336" width="480" height="96" rx="24" ry="24"/><rect x="576" y="528" width="480" height="96" rx="24" ry="24"/><rect x="576" y="720" width="480" height="96" rx="24" ry="24"/><rect x="288" y="912" width="768" height="96" rx="24" ry="24"/><path d="M240 480V351.807a12 12 0 0 1 20.729-8.235L480 576 260.729 808.428A12 12 0 0 1 240 800.193V672H24a24 24 0 0 1-24-24V504a24 24 0 0 1 24-24h216z"/></svg>