<svg xmlns="http://www.w3.org/2000/svg" data-name="S_TextStrikethrough_24_N@2x" height="48" id="S_TextStrikethrough_24_N_2x" viewBox="0 0 48 48" width="48"><defs><style>.fill{fill:#707070}.cls-1{fill:#000;fill-rule:evenodd}</style></defs><title>S_TextStrikethrough_24_N@2x</title><rect class="fill" height="4" rx=".5" ry=".5" width="34" x="6" y="22"/><path class="fill" d="M29 38h-3v-8h-6v8h-3a1 1 0 0 0-1 1v2a1 1 0 0 0 1 1h12a1 1 0 0 0 1-1v-2a1 1 0 0 0-1-1zM38 6H8a2 2 0 0 0-2 2v7a1 1 0 0 0 1 1h2a1 1 0 0 0 1-1v-5h10v8h6v-8h10v5a1 1 0 0 0 1 1h2a1 1 0 0 0 1-1V8a2 2 0 0 0-2-2z"/><g><path class="cls-1" d="M29 38h-3v-8h-6v8h-3a1 1 0 0 0-1 1v2a1 1 0 0 0 1 1h12a1 1 0 0 0 1-1v-2a1 1 0 0 0-1-1zM38 6H8a2 2 0 0 0-2 2v7a1 1 0 0 0 1 1h2a1 1 0 0 0 1-1v-5h10v8h6v-8h10v5a1 1 0 0 0 1 1h2a1 1 0 0 0 1-1V8a2 2 0 0 0-2-2z"/></g></svg>