<svg xmlns="http://www.w3.org/2000/svg" data-name="S_TextDecrease_24_N@2x" height="48" id="S_TextDecrease_24_N_2x" viewBox="0 0 48 48" width="48"><defs><style>.fill{fill:#707070}</style></defs><title>S_TextDecrease_24_N@2x</title><path class="fill" d="M47.9 36A11.9 11.9 0 1 0 36 47.9 11.9 11.9 0 0 0 47.9 36zm-5.165-2.9L36 43.755 29.265 33.1a.669.669 0 0 1 .5-1.109h12.466a.669.669 0 0 1 .504 1.109z"/><path class="fill" d="M20.239 38H20V8h8v5a1 1 0 0 0 1 1h2a1 1 0 0 0 1-1V6a2 2 0 0 0-2-2H2a2 2 0 0 0-2 2v7a1 1 0 0 0 1 1h2a1 1 0 0 0 1-1V8h8v30H9a1 1 0 0 0-1 1v2a1 1 0 0 0 1 1h12.28a15.781 15.781 0 0 1-1.041-4z"/></svg>