<svg xmlns="http://www.w3.org/2000/svg" width="1152" height="1152" viewBox="0 0 1152 1152"><title>TextRomanLowercase_24</title><rect x="432" y="192" width="624" height="96" rx="24" ry="24"/><rect x="432" y="576" width="624" height="96" rx="24" ry="24"/><rect x="432" y="960" width="624" height="96" rx="24" ry="24"/><path d="M288 96V60a12 12 0 0 0-12-12h-24a12 12 0 0 0-12 12v36zM240 144v180a12 12 0 0 0 12 12h24a12 12 0 0 0 12-12V144zM336 480v-36a12 12 0 0 0-12-12h-24a12 12 0 0 0-12 12v36zM288 528v180a12 12 0 0 0 12 12h24a12 12 0 0 0 12-12V528zM240 480v-36a12 12 0 0 0-12-12h-24a12 12 0 0 0-12 12v36zM192 528v180a12 12 0 0 0 12 12h24a12 12 0 0 0 12-12V528zM336 864v-36a12 12 0 0 0-12-12h-24a12 12 0 0 0-12 12v36zM288 912v180a12 12 0 0 0 12 12h24a12 12 0 0 0 12-12V912zM240 864v-36a12 12 0 0 0-12-12h-24a12 12 0 0 0-12 12v36zM192 912v180a12 12 0 0 0 12 12h24a12 12 0 0 0 12-12V912zM144 864v-36a12 12 0 0 0-12-12h-24a12 12 0 0 0-12 12v36zM96 912v180a12 12 0 0 0 12 12h24a12 12 0 0 0 12-12V912z"/></svg>