<svg xmlns="http://www.w3.org/2000/svg" data-name="S_TextBulletedHierarchyExclude_24_N@2x" height="48" id="S_TextBulletedHierarchyExclude_24_N_2x" viewBox="0 0 48 48" width="48"><defs><style>.fill{fill:#707070}</style></defs><title>S_TextBulletedHierarchyExclude_24_N@2x</title><path class="fill" d="M36 24.1A11.9 11.9 0 1 0 47.9 36 11.9 11.9 0 0 0 36 24.1zM44.925 36a8.859 8.859 0 0 1-1.663 5.158l-12.42-12.42A8.9 8.9 0 0 1 44.925 36zm-17.85 0a8.858 8.858 0 0 1 1.663-5.158l12.42 12.42A8.9 8.9 0 0 1 27.075 36z"/><rect class="fill" height="4" rx="1" ry="1" width="28" x="12" y="8"/><circle class="fill" cx="4" cy="8" r="4"/><circle class="fill" cx="12" cy="24" r="4"/><circle class="fill" cx="12" cy="40" r="4"/><path class="fill" d="M21.556 40H21a1 1 0 0 0-1 1v2a1 1 0 0 0 1 1h2.327a14.9 14.9 0 0 1-1.771-4zM23.327 28a15.047 15.047 0 0 1 3.7-4H21a1 1 0 0 0-1 1v2a1 1 0 0 0 1 1z"/></svg>