<svg xmlns="http://www.w3.org/2000/svg" width="1152" height="1152" viewBox="0 0 1152 1152"><title>TextSpaceAfter_24</title><rect x="384" y="96" width="672" height="96" rx="24" ry="24"/><rect x="384" y="288" width="672" height="96" rx="24" ry="24"/><rect x="384" y="480" width="672" height="96" rx="24" ry="24"/><path d="M1056 1032V696a24 24 0 0 0-24-24H408a24 24 0 0 0-24 24v336a24 24 0 0 0 24 24h624a24 24 0 0 0 24-24zm-96-72H480V768h480v192zM116.73 1096.43a12 12 0 0 1-20.73-8.239V639.809a12 12 0 0 1 20.73-8.238L336 864z"/></svg>