<svg xmlns="http://www.w3.org/2000/svg" data-name="S_TextSize_24_N@2x" height="48" id="S_TextSize_24_N_2x" viewBox="0 0 48 48" width="48"><defs><style>.fill{fill:#707070}</style></defs><title>S_TextSize_24_N@2x</title><path class="fill" d="M46 4H18a2 2 0 0 0-2 2v7a1 1 0 0 0 1 1h2a1 1 0 0 0 1-1V8h8v30h-3a1 1 0 0 0-1 1v2a1 1 0 0 0 1 1h14a1 1 0 0 0 1-1v-2a1 1 0 0 0-1-1h-3V8h8v5a1 1 0 0 0 1 1h2a1 1 0 0 0 1-1V6a2 2 0 0 0-2-2z"/><path class="fill" d="M19 18a1 1 0 0 1 1 1v6a1 1 0 0 1-1 1h-2a1 1 0 0 1-1-1v-3h-4v16h3a1 1 0 0 1 1 1v2a1 1 0 0 1-1 1H5a1 1 0 0 1-1-1v-2a1 1 0 0 1 1-1h3V22H4v2.973a1 1 0 0 1-1 1H1a1 1 0 0 1-1-1V19a1 1 0 0 1 1-1z"/></svg>