<svg xmlns="http://www.w3.org/2000/svg" data-name="S_TextBold_24_N@2x" height="48" id="S_TextBold_24_N_2x" viewBox="0 0 48 48" width="48"><defs><style>.fill{fill:#707070}</style></defs><title>S_TextBold_24_N@2x</title><path class="fill" d="M8 6.8c0-.271.06-.433.372-.486 2.227-.054 8.567-.163 12.715-.163C34.021 6.152 36 12.106 36 15.572a8.193 8.193 0 0 1-3.9 7.039c2.29 1.029 5.94 3.411 5.94 8.392 0 6.822-6.743 10.937-16.955 10.937-5.384 0-10.3-.054-12.655-.108-.306-.055-.43-.218-.43-.432zm7.971 13.422h4.479a41.245 41.245 0 0 1 5.362.31 4.714 4.714 0 0 0 2.241-4.081c0-3.05-2.595-4.548-7.424-4.548-1.887 0-3.417.052-4.657.052zm0 15.857c1.3.054 2.786.107 4.565.107 5.568.054 9.124-1.661 9.124-5.251 0-2.2-1.183-3.966-4.264-4.661a17.168 17.168 0 0 0-4.03-.375h-5.395z"/></svg>