<svg xmlns="http://www.w3.org/2000/svg" width="1152" height="1152" viewBox="0 0 1152 1152"><title>TextSpaceBefore_24</title><rect x="384" y="960" width="672" height="96" rx="24" ry="24"/><rect x="384" y="768" width="672" height="96" rx="24" ry="24"/><rect x="384" y="576" width="672" height="96" rx="24" ry="24"/><path d="M1032 96H408a24 24 0 0 0-24 24v336a24 24 0 0 0 24 24h624a24 24 0 0 0 24-24V120a24 24 0 0 0-24-24zm-72 288H480V192h480v192zM116.73 55.57A12 12 0 0 0 96 63.809v448.382a12 12 0 0 0 20.73 8.238L336 288z"/></svg>