<svg xmlns="http://www.w3.org/2000/svg" width="1152" height="1152" viewBox="0 0 1152 1152"><title>Trap_24</title><path d="M1094.125 217.875c-7.062-7.047-23.688-17.784-36.719-23.266-64.588-27.17-328.218-137.078-467.781-154.523-131.906-16.492-251.469 0-313.312 61.836s-20.625 230.867 37.094 350.422c35.625 73.789 91.625 164.766 129.313 223.664L85.188 1033.547c-25 25-23.969 66.555 3.375 93.891 27.312 27.328 68.906 28.375 93.906 3.383L506.594 806.7c21.25 20.883 50.531 31.43 86.094 31.43 31.438 0 67.688-8.125 107.5-24.562 76.5-31.437 178.125-108.062 236.5-166.766 58.406-58.7 133.438-158.109 164.875-234.609 35.187-85.38 32.5-154.38-7.438-194.318zm-51.687 169.938C1014.063 456.688 960.125 532.875 890.5 602.5S744.688 726.063 675.813 754.438c-58 24-104.687 26.375-124.687 6.438-19.937-19.875-17.5-66.5 6.438-124.687C585.938 567.313 639.875 491.125 709.5 421.5s145.813-123.562 214.688-151.937c32-13.187 60.563-19.812 83.063-19.812 18.313 0 32.688 4.438 41.625 13.375 19.937 19.874 17.499 66.499-6.438 124.687z"/></svg>