<svg xmlns="http://www.w3.org/2000/svg" width="1152" height="1152" viewBox="0 0 1152 1152"><title>TreeExpandAll_24</title><path d="M192 240a48 48 0 0 1 48-48h624v-48a48 48 0 0 0-48-48H144a48 48 0 0 0-48 48v672a48 48 0 0 0 48 48h48V240z" fill-rule="evenodd"/><path d="M1008 288H336a48 48 0 0 0-48 48v672a48 48 0 0 0 48 48h672a48 48 0 0 0 48-48V336a48 48 0 0 0-48-48zM888 720H720v168a24 24 0 0 1-24 24h-48a24 24 0 0 1-24-24V720H456a24 24 0 0 1-24-24v-48a24 24 0 0 1 24-24h168V456a24 24 0 0 1 24-24h48a24 24 0 0 1 24 24v168h168a24 24 0 0 1 24 24v48a24 24 0 0 1-24 24z" fill-rule="evenodd"/></svg>