<svg xmlns="http://www.w3.org/2000/svg" width="1152" height="1152" viewBox="0 0 1152 1152"><title>TrendInspect_24</title><path d="M738.234 682.617A193.118 193.118 0 0 0 770.391 576c0-16.02-2.508-31.348-6.164-46.248l-15.445 16.717L642.82 394.184c-2.133-.791-4.383-1.324-6.539-2.039L427.547 700c18.68 22.324 41.789 40.629 68.625 52.793L639.75 541.031zM1015.922 384.574l131.714-146.756-63.469-58.594-112.354 125.792a480.6 480.6 0 0 1 44.109 79.558zM270.545 931.636l-37.091 41.455-117.818-231.273L2.182 826.909l44.974 76.278 37.935-32.642 144 264L338.182 984c-25.008-14.6-45.746-33.625-67.637-52.364z"/><path d="M192 576c0 212.08 171.923 384 384 384a382.148 382.148 0 0 0 215.789-66.4l237.3 237.3a71.992 71.992 0 0 0 101.813-101.812l-237.3-237.3A382.139 382.139 0 0 0 960 576c0-212.08-171.923-384-384-384S192 363.92 192 576zm93.6 0c0-160.126 130.273-290.4 290.4-290.4S866.4 415.874 866.4 576 736.126 866.4 576 866.4 285.6 736.126 285.6 576z"/><path d="M192 576c0 212.08 171.923 384 384 384a382.148 382.148 0 0 0 215.789-66.4l237.3 237.3a71.992 71.992 0 0 0 101.813-101.812l-237.3-237.3A382.139 382.139 0 0 0 960 576c0-212.08-171.923-384-384-384S192 363.92 192 576zm93.6 0c0-160.126 130.273-290.4 290.4-290.4S866.4 415.874 866.4 576 736.126 866.4 576 866.4 285.6 736.126 285.6 576z"/></svg>