<svg xmlns="http://www.w3.org/2000/svg" width="1152" height="1152" viewBox="0 0 1152 1152"><title>Type_24</title><path d="M768.009 144H888a24 24 0 0 0 24-24V72a24 24 0 0 0-24-24H759.765a96 96 0 0 0-67.882 28.118L576 192 460.118 76.118A96 96 0 0 0 392.235 48H264a24 24 0 0 0-24 24v48a24 24 0 0 0 24 24h120.006l144 144L528 720H360a24 24 0 0 0-24 24v48a24 24 0 0 0 24 24h168l.006 48-144 144H264a24 24 0 0 0-24 24v48a24 24 0 0 0 24 24h128.235a96 96 0 0 0 67.882-28.118L576 960l115.882 115.882A96 96 0 0 0 759.765 1104H888a24 24 0 0 0 24-24v-48a24 24 0 0 0-24-24H768.009L624 864v-48h168a24 24 0 0 0 24-24v-48a24 24 0 0 0-24-24H624V288z" fill-rule="evenodd"/></svg>