<svg xmlns="http://www.w3.org/2000/svg" width="1152" height="1152" viewBox="0 0 1152 1152"><title>Ungroup_24</title><rect x="672" y="672" width="192" height="192" rx="48" ry="48"/><path d="M1080 624a23.994 23.994 0 0 0 24-24V456a23.994 23.994 0 0 0-24-24H936a23.994 23.994 0 0 0-24 24v24H624v-24a23.994 23.994 0 0 0-24-24H456a23.994 23.994 0 0 0-24 24v144a23.994 23.994 0 0 0 24 24h24v288h-24a23.994 23.994 0 0 0-24 24v144a23.994 23.994 0 0 0 24 24h144a23.994 23.994 0 0 0 24-24v-24h288v24a23.994 23.994 0 0 0 24 24h144a23.994 23.994 0 0 0 24-24V936a23.994 23.994 0 0 0-24-24h-24V624h24zM960 912h-24a23.994 23.994 0 0 0-24 24v24H624v-24a23.994 23.994 0 0 0-24-24h-24V624h24a23.994 23.994 0 0 0 24-24v-24h288v24a23.994 23.994 0 0 0 24 24h24v288z"/><path d="M336 576H192v-24a23.994 23.994 0 0 0-24-24h-24V240h24a23.994 23.994 0 0 0 24-24v-24h288v24a23.994 23.994 0 0 0 24 24h24v96h96v-96h24a23.994 23.994 0 0 0 24-24V72a23.994 23.994 0 0 0-24-24H504a23.994 23.994 0 0 0-24 24v24H192V72a23.994 23.994 0 0 0-24-24H24A23.994 23.994 0 0 0 0 72v144a23.994 23.994 0 0 0 24 24h24v288H24a23.994 23.994 0 0 0-24 24v144a23.994 23.994 0 0 0 24 24h144a23.994 23.994 0 0 0 24-24v-24h144v-96z"/><path d="M336 384a48 48 0 0 1 48-48h48a48 48 0 0 0-48-48h-96a48 48 0 0 0-48 48v96a48 48 0 0 0 48 48h48v-96z"/></svg>