<svg xmlns="http://www.w3.org/2000/svg" data-name="S_Unlink_24_N@2x" height="48" id="S_Unlink_24_N_2x" viewBox="0 0 48 48" width="48"><defs><style>.fill{fill:#707070}</style></defs><title>S_Unlink_24_N@2x</title><path class="fill" d="M14.848 12.698l-1.994 1.919-7.105-6.986 1.995-1.92 7.104 6.987zM42.401 40.369l-1.994 1.92-7.066-7.113 1.994-1.919 7.066 7.112zM14.743 2.4h3.086v6.171h-3.086zM2.4 14.743h6.171v3.086H2.4zM39.429 30.171H45.6v3.086h-6.171zM30.171 39.429h3.086V45.6h-3.086zM42.1 5.9a10.914 10.914 0 0 0-15.434 0c-.408.408-4.428 4.4-6.546 6.5l3.312 3.312a8392.05 8392.05 0 0 0 6.541-6.5 6.236 6.236 0 0 1 8.819 8.819l-6.521 6.521 3.307 3.307 6.522-6.521a10.913 10.913 0 0 0 0-15.438zM24.529 32.243c-2.152 2.173-6.3 6.349-6.5 6.545a6.236 6.236 0 0 1-8.819-8.819l6.521-6.522-3.305-3.307L5.9 26.662A10.913 10.913 0 0 0 21.339 42.1c.418-.419 4.4-4.439 6.492-6.551z"/></svg>