<svg id="Upload_24" xmlns="http://www.w3.org/2000/svg" width="1152" height="1152" viewBox="0 0 1152 1152"><defs><style>.cls-2{fill-rule:evenodd}</style></defs><title>Upload_24</title><path class="cls-2" d="M888.014 406.582a207.773 207.773 0 0 0 3.366-35.6c0-126.062-86.972-238.458-226.129-238.458-117.737 0-196.7 95.839-224.352 194.72a216.356 216.356 0 0 0-61.984-9.1c-109.336 0-189.025 90.693-189.025 189.755a163.565 163.565 0 0 0 7.85 49.636c-2.639-.181-5.162-.725-7.85-.725-67.913 0-129.258 67.192-129.258 130.349C60.632 755.368 121.3 816 180.939 816H528V624H393.941c-21.382 0-32.09-25.851-16.971-40.971L576 384l199.029 199.029c15.12 15.12 4.412 40.971-16.97 40.971H624v192h276.846l35.994-2.062c82.147-15.124 153.266-81.243 153.266-189.938-.001-117-118.319-203.479-202.092-217.418zM624 816h-96v216a24 24 0 0 0 24 24h48a24 24 0 0 0 24-24V816z"/></svg>