<svg xmlns="http://www.w3.org/2000/svg" width="1152" height="1152" viewBox="0 0 1152 1152"><title>USA_24</title><path d="M337.513 784.451c5.045-39.9 60.739 23.685 63.16 25.479 14.689 10.884 25.834 33.144 44.156 39.333 8.653 2.923 18.329-17.473 21.831-15.846 31.1 14.452 68.016 91.676 97.781 98.01C590.631 937 611.019 841.7 666.25 828.4c20.363-4.905 103.3 21 110.815 10.576.7-.978-26.169-20.989-9.328-28.848 1.475-.714 44.019-20.771 29.618-20.771 29.744 0 167.415 31.157 139.914 59.908 11.987 32.965 30.128 46.852 51.158 63.619-5.872 2.921-2.86 11.871-1.347 17.541 63.459-39.371-43.362-129.589-37.846-179.412 2.166-19.564 86.744-135.37 97.177-127.629-6.828.216 4.394-11.5 3.943-22.79-2.593-4.459-67.011-99.142-32.791-99.142-6.954 11.952 17.646 62.593 17.309 62.5 0 1.957 5.422-61.757 7.02-51.446 18.422 0 3.659-43.488 6.274-47.708 6.571-10.6 23.374-25 31.128-36.814 7.626-11.623 41.738-18.791 15.774-46.353-19.156-20.335.291-24.525 10.494-46.157 5.039-10.684 33.889-22.388 31.913-43.561.384 4.114-45.11-48.919-38.849-47.7-63.153-12.342-13.2 27.392-32.118 51.446-23.531 29.919-53.252 53.013-84.488 77.265-5.581 4.333-123.811 135.74-128.776 106.933.424 2.462 16.471-80.667-8.936-65.318q-5.6 8.3-11.183 16.611c-12.582 0 14.738-37.688-5.842-44.414-46.36-15.152-16.957 18.162-34.738 18.162-39.829-6.337 18.976 67.54-12.6 87.218-37.025 14.607-9.259-91.8-15.29-98.661A83.89 83.89 0 0 1 746 420.674c-26.575-40.087 67.591-44.509 73.275-52.408-2.115-1.857-29.47-20.128-26.06-18.559 1.385.637-61.283 10.7-65 12.116q11.346-7.7 11.155-20.771c-23.418-10.408-34 33.734-48.657 20.771a261.942 261.942 0 0 1-30.771 11.155c0-8.193 45.772-37.382 43.753-40.484 3.722 5.719-109.04-24.8-101.93-25.867-132.53 21.608-335 9.231-481.669-48.369-10.412 9.359 14.436 25.924-.962 34.906a290.838 290.838 0 0 1-32.6-27.5c-8.98 2.405-34.385 161.871-37.214 174.147-1.092 4.738-36.219 136.195 2.116 112.6a106.651 106.651 0 0 0 1.154 17.694 26.393 26.393 0 0 0-7.885-7.693c-43.438 30.662 70.261 139 90.776 151.549 18.448 11.283 200.209 84.631 202.034 70.486 2.114-16.728-.386 2.985-.002.004zm758.324-371.084a.751.751 0 0 0-.481-.192.457.457 0 0 1 .481.191zm-7.4-42.792z"/></svg>