<svg xmlns="http://www.w3.org/2000/svg" width="1152" height="1152" viewBox="0 0 1152 1152"><title>UsersLock_24</title><path d="M1056 767.993v-38.62c0-124.466-100.925-241.461-225.167-248.932C691.563 472.065 576 582.531 576 719.993v48a48 48 0 0 0-48 48v288a48 48 0 0 0 48 48h480a48 48 0 0 0 48-48v-288a48 48 0 0 0-48-48zm-384-48a144 144 0 0 1 288 0v48H672v-48zm192 245.32v66.68a24 24 0 0 1-24 24h-48a24 24 0 0 1-24-24v-66.68a72 72 0 1 1 96 0zM737.273 125.443c-19.711 0-37.781 3.264-54.914 8.1 41.484 52.087 68.414 126.563 68.414 229.254 0 9.2-.562 18.536-1.148 27.864a334.3 334.3 0 0 1 159.938 6.688c3.469-19.916 5.742-39.709 5.742-58.292-.005-145.144-70.899-213.614-178.032-213.614zm-276.469 0c-119.039 0-200.062 79.617-200.062 237.352 0 76.283 30.844 170.455 75.023 227.259 6.516 8.353 10.43 18.193 10.43 28.775v64.386c0 22.14-18.07 42.932-40.078 45.278C49.711 755.845 0 928.746 0 998.4v57.6h432V792a119.951 119.951 0 0 1 48.891-96.609c8.414-115.611 75.773-214.919 171.891-268.644a384.933 384.933 0 0 0 5.813-63.952c-.001-161.279-78.775-237.352-197.795-237.352z"/></svg>