<svg xmlns="http://www.w3.org/2000/svg" data-name="S_User_24_N@2x" height="48" id="S_User_24_N_2x" viewBox="0 0 48 48" width="48"><defs><style>.fill{fill:#707070}</style></defs><title>S_User_24_N@2x</title><path class="fill" d="M29.026 27.832v-2.806a2.038 2.038 0 0 1 .455-1.253 17.506 17.506 0 0 0 3.1-9.86c0-7-3.419-10.3-8.585-10.3s-8.683 3.456-8.683 10.3a17.634 17.634 0 0 0 3.253 9.86 2.038 2.038 0 0 1 .455 1.253v2.794a1.888 1.888 0 0 1-1.549 1.946C6.182 30.881 4 38.96 4 42c0 .338.037 1.667.059 2h39.882c.023-.333.059-1.662.059-2 0-2.914-2.091-11.028-13.431-12.223a1.891 1.891 0 0 1-1.543-1.945z"/></svg>