<svg xmlns="http://www.w3.org/2000/svg" width="1152" height="1152" viewBox="0 0 1152 1152"><title>UserExclude_24</title><path d="M482.4 864c0-98.848 37.9-188.625 99.563-256.406a41.9 41.9 0 0 1-5.373-20.1l-.006-64.664c0-10.629 3.99-20.5 10.512-28.887 44.127-56.812 71.508-150.914 71.508-227.156 0-161.273-78.779-237.352-197.807-237.352s-200.055 79.62-200.055 237.354c0 76.289 30.855 170.461 75.029 227.262 6.5 8.355 10.424 18.2 10.424 28.781l-.006 64.383c0 22.137-18.053 42.926-40.072 45.281C49.7 659.848 0 832.746 0 902.4V960h495.059a381.14 381.14 0 0 1-12.659-96zM864 578.391c-157.734 0-285.6 127.875-285.6 285.609s127.866 285.609 285.6 285.609S1149.6 1021.734 1149.6 864 1021.734 578.391 864 578.391zM1058.4 864c0 37.992-11.326 73.16-30.164 103.113L760.887 699.762C790.84 680.93 826.008 669.6 864 669.6c107.367 0 194.4 87.033 194.4 194.4zm-388.8 0c0-37.992 11.326-73.16 30.164-103.113l267.352 267.352C937.16 1047.07 901.992 1058.4 864 1058.4c-107.367 0-194.4-87.033-194.4-194.4z"/></svg>