<svg xmlns="http://www.w3.org/2000/svg" width="1152" height="1152" viewBox="0 0 1152 1152"><title>S_UserGroup_24_N_lt</title><path d="M576.591 683.5v-64.668c0-10.624 3.988-20.493 10.5-28.883 44.131-56.817 71.513-150.917 71.513-227.152 0-161.28-78.782-237.352-197.807-237.352S260.745 205.061 260.745 362.8c0 76.284 30.85 170.455 75.027 227.258 6.5 8.353 10.42 18.194 10.42 28.776v64.384c0 22.141-18.058 42.931-40.075 45.28C49.7 755.847 0 928.747 0 998.4v57.6h912v-57.6c0-66.773-38.161-240.574-295.65-269.646-21.85-2.467-39.758-23.266-39.759-45.254z"/><path d="M877.4 668.436c-19.729-2.216-35.912-20.892-35.913-40.746v-58.2c0-9.559 3.587-18.437 9.45-25.987 39.721-51.142 64.367-135.826 64.367-204.447 0-145.147-70.9-213.615-178.026-213.615-19.71 0-37.78 3.263-54.934 8.1 41.484 52.088 68.422 126.563 68.422 229.253 0 95.715-31.882 200.453-82.018 271.688v8.854C904.936 686.28 1003.581 850.089 1008 960h144v-57.6c0-60.088-42.877-207.94-274.6-233.964z"/></svg>