<svg xmlns="http://www.w3.org/2000/svg" width="1152" height="1152" viewBox="0 0 1152 1152"><title>UserShare_24</title><path d="M384 768a144 144 0 0 1 144-144h48v-96c0-10.629 4.576-25.664 11.1-34.055 44.127-56.812 71.508-150.914 71.508-227.156 0-161.273-78.779-237.352-197.807-237.352s-200.059 79.618-200.059 237.352c0 76.289 30.855 170.461 75.029 227.262 6.5 8.355 10.424 18.2 10.424 28.781l-.006 64.383c0 22.137-18.053 42.926-40.072 45.281C49.7 659.848 0 832.746 0 902.4V960h384V768zM953.329 631.952L816 480 679.011 631.952c-13.9 15.445-2.938 40.055 17.839 40.055H768v276a12 12 0 0 0 12 12h72a12 12 0 0 0 12-12v-276h71.49c20.778 0 31.738-24.607 17.839-40.055z"/><path d="M1128 720H960v96h96v240H576V816h96v-96H504a24 24 0 0 0-24 24v384a24 24 0 0 0 24 24h624a24 24 0 0 0 24-24V744a24 24 0 0 0-24-24z"/></svg>