<svg xmlns="http://www.w3.org/2000/svg" width="1152" height="1152" viewBox="0 0 1152 1152"><title>UsersShare_24</title><path d="M584.707 707.622c-4.734-7.266-8.121-15.425-8.121-24.123v-64.67c0-10.623 3.984-20.49 10.512-28.881 44.121-56.818 71.508-150.917 71.508-227.153 0-161.279-78.785-237.352-197.8-237.352s-200.064 79.618-200.064 237.352c0 76.283 30.855 170.455 75.023 227.259 6.5 8.353 10.43 18.193 10.43 28.775v64.386c0 22.14-18.059 42.932-40.078 45.278C49.7 755.845 0 928.746 0 998.4v57.6h366.867c16.125-99.445 79.055-254.071 217.84-348.378zM769.676 633.75v-13.655c0-60.331 46.348-109.512 105.246-115.266 25.336-49.471 40.378-112.386 40.378-165.77 0-145.146-70.9-213.615-178.031-213.615-19.7 0-37.77 3.264-54.926 8.1 41.484 52.087 68.426 126.563 68.426 229.254 0 95.713-31.887 200.452-82.02 271.687v8.854c11.555 2.1 22.512 4.717 33.41 7.377a489.213 489.213 0 0 1 67.517-16.966zM865.673 721.874V620.1c0-18.141 21.935-27.224 34.761-14.4L1130.4 844.056l-229.966 238.358c-12.827 12.827-34.761 3.744-34.761-14.4V964.706c-220.281-37.078-337.392 88.629-381.321 148.213-8.064 10.928-25.952 5.389-25.952-8.332 0-61.449 70.159-382.713 407.273-382.713z"/></svg>