<svg xmlns="http://www.w3.org/2000/svg" width="1152" height="1152" viewBox="0 0 1152 1152"><title>UserArrow_24</title><path d="M760.348 632.754c-21.844-2.473-39.756-23.262-39.756-45.258l-.006-64.664c0-10.629 3.99-20.5 10.512-28.887 44.127-56.812 71.508-150.914 71.508-227.156 0-161.273-78.779-237.352-197.807-237.352s-200.057 79.618-200.057 237.352c0 76.289 30.855 170.461 75.029 227.262 6.5 8.355 10.424 18.2 10.424 28.781l-.006 64.383a43.457 43.457 0 0 1-3.814 17.145l279.211 260.425L661.207 960H1056v-57.6c0-66.771-38.162-240.572-295.652-269.646z"/><path d="M356.969 614.937A12 12 0 0 0 336 622.909V768H120a24 24 0 0 0-24 24v144a24 24 0 0 0 24 24h216v139.636a12 12 0 0 0 20.969 7.972L624 864z"/></svg>