<svg xmlns="http://www.w3.org/2000/svg" width="1152" height="1152" viewBox="0 0 1152 1152"><title>UserEdit_24</title><path d="M534.891 960l18.234-52.664c4.406-14.719 14.484-31.523 28.078-44.977l187.313-187.3c-40.266-20.426-90.4-35.877-153.047-42.56-14.6-1.564-26.93-11.575-33.937-24.39.164-.164.281-.349.422-.513a42.03 42.03 0 0 1-5.367-20.1v-64.664c0-10.629 3.984-20.5 10.523-28.887 17.438-22.465 32.133-50.845 43.688-81.56 18.656-46.966 30.047-99.5 30.047-145.6 0-79.225-20.484-138.68-55.922-178.3C570.328 48.8 520.688 29.438 460.8 29.438c-59.906 0-109.523 19.356-144.141 59.045-35.437 39.621-55.922 99.076-55.922 178.307 0 46.1 11.391 98.631 30.07 145.6 11.531 30.715 26.25 59.095 43.688 81.56 6.516 8.391 10.5 18.258 10.5 28.887V587.5a42.03 42.03 0 0 1-5.367 20.1c.141.164.281.352.422.516-7.008 12.817-19.312 22.822-33.937 24.387C49.688 659.848 0 832.746 0 902.4V960h534.891zM1145.124 697.093l-112.316-112.316a23.663 23.663 0 0 0-16.879-6.878l-.749.01a26.713 26.713 0 0 0-18.061 7.915l-346.7 346.7a19.433 19.433 0 0 0-4.892 8.2l-67.5 194.7c-2.219 7.335 8.945 16.572 15.255 16.572a5.346 5.346 0 0 0 1.194-.124c5.385-1.239 166.667-59.065 194.815-67.527a19.113 19.113 0 0 0 8.072-4.852l346.717-346.719a26.776 26.776 0 0 0 7.877-17.21 23.8 23.8 0 0 0-6.833-18.471zm-371.711 351.234c-42.1 12.653-108.118 41.94-144.488 52.8L681.453 956.6z"/></svg>