<svg xmlns="http://www.w3.org/2000/svg" width="1152" height="1152" viewBox="0 0 1152 1152"><title>UserLock_24</title><path d="M432 791.988a119.918 119.918 0 0 1 48.891-96.609c7.2-98.859 57.422-185.895 131.906-242.66 28.693-55.219 45.809-125.977 45.809-185.93 0-161.273-78.779-237.352-197.807-237.352s-200.057 79.618-200.057 237.352c0 76.289 30.855 170.461 75.029 227.262 6.5 8.355 10.424 18.2 10.424 28.781l-.006 64.383c0 22.137-18.053 42.926-40.072 45.281C49.7 659.848 0 832.746 0 902.4V960h432V791.988zM1080 767.993h-24v-48c0-132.551-107.452-240-240-240s-240 107.449-240 240v48h-24a24 24 0 0 0-24 24v336a24 24 0 0 0 24 24h528a24 24 0 0 0 24-24v-336a24 24 0 0 0-24-24zm-408-48a144 144 0 0 1 288 0v48H672v-48zm192 245.32v66.68a24 24 0 0 1-24 24h-48a24 24 0 0 1-24-24v-66.68a72 72 0 1 1 96 0z"/></svg>