<svg xmlns="http://www.w3.org/2000/svg" width="1152" height="1152" viewBox="0 0 1152 1152"><title>UsersAdd_24</title><path d="M728.3 508.567A380.079 380.079 0 0 1 866.391 482.4c6.234 0 12.328.636 18.492.932 19.2-45.439 30.422-98.355 30.422-144.272 0-145.146-70.9-213.615-178.031-213.615-19.711 0-37.781 3.264-54.914 8.1 41.484 52.087 68.414 126.563 68.414 229.254-.001 48.113-8.086 98.495-22.474 145.768zM484.8 864c0-72.268 22.739-171.444 102.281-274.052 44.133-56.818 71.508-150.917 71.508-227.153 0-161.279-78.773-237.352-197.789-237.352-119.039 0-200.062 79.617-200.062 237.352 0 76.283 30.844 170.455 75.023 227.259 6.516 8.353 10.43 18.193 10.43 28.775v64.386c0 22.14-18.07 42.932-40.078 45.278C49.711 755.845 0 928.746 0 998.4v57.6h537a379.305 379.305 0 0 1-52.2-192z"/><path d="M866.4 578.4c-157.733 0-285.6 127.867-285.6 285.6s127.867 285.6 285.6 285.6S1152 1021.732 1152 864s-127.867-285.6-285.6-285.6zm192 321.6a12 12 0 0 1-12 12h-132v132a12 12 0 0 1-12 12h-72a12 12 0 0 1-12-12V912h-132a12 12 0 0 1-12-12v-72a12 12 0 0 1 12-12h132V684a12 12 0 0 1 12-12h72a12 12 0 0 1 12 12v132h132a12 12 0 0 1 12 12v72z"/></svg>