<svg xmlns="http://www.w3.org/2000/svg" data-name="S_UserActivity_24_N@2x" height="48" id="S_UserActivity_24_N_2x" viewBox="0 0 48 48" width="48"><defs><style>.fill{fill:#707070}</style></defs><title>S_UserActivity_24_N@2x</title><path class="fill" d="M32 4v8h8l-8-8z"/><path class="fill" d="M30 16a2 2 0 0 1-2-2V4H10a2 2 0 0 0-2 2v36a2 2 0 0 0 2 2h28a2 2 0 0 0 2-2V16zm6.042 24H12.1a26.318 26.318 0 0 1-.038-1.091c0-1.658 1.049-5.862 7.76-6.4a1.086 1.086 0 0 0 1-1.061v-1.52a1.012 1.012 0 0 0-.294-.683 7.788 7.788 0 0 1-2.1-5.044c0-3.733 2.274-5.95 5.614-5.95s5.551 2.133 5.551 5.95a7.685 7.685 0 0 1-2.007 5.044 1.012 1.012 0 0 0-.294.683v1.531a1.09 1.09 0 0 0 1 1.06c6.59.613 7.775 4.8 7.775 6.391L36.042 40z"/></svg>