<svg id="ViewOn_24" xmlns="http://www.w3.org/2000/svg" width="1152" height="1152" viewBox="0 0 1152 1152"><defs><style/></defs><title>ViewOn_24</title><path d="M787.619 274.57C716.572 239.66 645.381 221.977 576 221.977c-277.242 0-504 276.012-504 365.555 0 95.906 238.663 342.492 501.961 342.492C839.4 930.023 1080 683.438 1080 587.531c0-75.656-134.855-234.914-292.381-312.961zM576 871.2c-163.037 0-295.2-132.177-295.2-295.2 0-163.041 132.163-295.2 295.2-295.2S871.2 412.959 871.2 576c0 163.023-132.163 295.2-295.2 295.2z"/><path d="M661.333 578.672A85.342 85.342 0 0 1 576 493.33c0-31.465 17.842-57.814 43.185-72.615C605.364 416.795 591.082 414 576 414a162 162 0 1 0 162 162c0-13.324-2.382-25.945-5.594-38.25-15.095 24.05-40.597 40.922-71.073 40.922z"/></svg>