<svg xmlns="http://www.w3.org/2000/svg" data-name="S_ViewDay_24_N@2x" height="48" id="S_ViewDay_24_N_2x" viewBox="0 0 48 48" width="48"><defs><style>.fill{fill:#707070}</style></defs><title>S_ViewDay_24_N@2x</title><path class="fill" d="M22.332 34c-.216 0-.288-.076-.288-.264v-10.95a13.778 13.778 0 0 1-3.709 1.326c-.216.037-.288 0-.288-.227v-3.2c0-.188.036-.264.216-.3a16.926 16.926 0 0 0 4.937-2.234.913.913 0 0 1 .54-.151h2.06c.144 0 .18.076.18.264v15.472c0 .188-.072.264-.216.264z"/><path class="fill" d="M45 8h-7V5a1 1 0 0 0-1-1h-2a1 1 0 0 0-1 1v3H14V5a1 1 0 0 0-1-1h-2a1 1 0 0 0-1 1v3H3a1 1 0 0 0-1 1v32a1 1 0 0 0 1 1h42a1 1 0 0 0 1-1V9a1 1 0 0 0-1-1zm-3 30H6V12h4v1a1 1 0 0 0 1 1h2a1 1 0 0 0 1-1v-1h20v1a1 1 0 0 0 1 1h2a1 1 0 0 0 1-1v-1h4z"/></svg>