<svg xmlns="http://www.w3.org/2000/svg" width="1152" height="1152" viewBox="0 0 1152 1152"><title>ViewOff_24</title><path d="M864 578.405c-157.734 0-285.6 127.872-285.6 285.6s127.863 285.6 285.6 285.6 285.6-127.869 285.6-285.6-127.866-285.6-285.6-285.6zm214.2 285.6a212.605 212.605 0 0 1-39.914 123.8L740.2 689.722A212.629 212.629 0 0 1 864 649.808c118.3 0 214.2 95.9 214.2 214.198zm-428.391 0a212.6 212.6 0 0 1 39.914-123.8L987.8 1038.293a212.629 212.629 0 0 1-123.8 39.914c-118.3 0-214.2-95.9-214.2-214.201zM735.234 507.563A161.8 161.8 0 0 0 738 480c0-13.324-2.391-25.945-5.6-38.25-15.1 24.05-40.6 40.922-71.064 40.922A85.34 85.34 0 0 1 576 397.336c0-31.477 17.836-57.82 43.2-72.621C605.367 320.789 591.094 318 576 318a162 162 0 0 0-162 162c0 83.051 62.719 150.7 143.25 160.113a381.784 381.784 0 0 1 177.984-132.55z"/><path d="M496.688 764.109C372.234 729.422 280.8 615.5 280.8 480c0-163.043 132.164-295.2 295.2-295.2S871.2 316.957 871.2 480c0 1.734-.234 3.422-.258 5.156a379.1 379.1 0 0 1 193.758 57.117c9.609-19.23 15.3-36.715 15.3-50.742 0-75.656-134.859-234.914-292.383-312.961-71.039-34.91-142.242-52.593-211.617-52.593-277.242 0-504 276.012-504 365.555 0 84.914 187.172 287.613 412.8 333.035a376.126 376.126 0 0 1 11.888-60.458z"/></svg>