<svg xmlns="http://www.w3.org/2000/svg" width="1152" height="1152" viewBox="0 0 1152 1152"><title>ViewAllTags_24</title><rect x="96" y="96" width="144" height="144" rx="24" ry="24"/><rect x="336" y="96" width="672" height="144" rx="24" ry="24"/><rect x="96" y="336" width="144" height="144" rx="24" ry="24"/><rect x="96" y="576" width="144" height="144" rx="24" ry="24"/><rect x="96" y="816" width="144" height="144" rx="24" ry="24"/><path d="M467.156 900.188A118.974 118.974 0 0 1 432.07 816H360a23.994 23.994 0 0 0-24 24v96a23.994 23.994 0 0 0 24 24h166.969zM432 576h-72a23.994 23.994 0 0 0-24 24v96a23.994 23.994 0 0 0 24 24h72V576zM552 432h263.344a120.672 120.672 0 0 1 84.844 35.156L913.031 480H984a23.994 23.994 0 0 0 24-24v-96a23.994 23.994 0 0 0-24-24H360a23.994 23.994 0 0 0-24 24v96a23.994 23.994 0 0 0 24 24h96.609c21.914-28.969 56.321-48 95.391-48zM1142.725 845.458L832.3 535.029A24 24 0 0 0 815.326 528H552a24 24 0 0 0-24 24v263.331a24 24 0 0 0 7.029 16.971l310.429 310.428a24 24 0 0 0 33.941 0l263.326-263.33a24 24 0 0 0 0-33.942zM648.306 720.32a72.008 72.008 0 1 1 72-72.008 72.011 72.011 0 0 1-72 72.008z"/></svg>