<svg xmlns="http://www.w3.org/2000/svg" width="1152" height="1152" viewBox="0 0 1152 1152"><title>ViewDetail_24</title><path d="M1096.734 1015.266L924.867 843.4C946.7 807.234 960 765.322 960 720c0-132.551-107.449-240-240-240S480 587.449 480 720s107.449 240 240 240c45.328 0 87.234-13.3 123.4-35.133l171.867 171.867c11.25 11.25 60.111 21.358 81.469 0s22.498-58.968-.002-81.468zM571.2 720A148.8 148.8 0 1 1 720 868.793 148.8 148.8 0 0 1 571.2 720z"/><path d="M416.766 864H192V192h672v224.766a336.577 336.577 0 0 1 96 68.3V144a48 48 0 0 0-48-48H144a48 48 0 0 0-48 48v768a48 48 0 0 0 48 48h341.063a336.577 336.577 0 0 1-68.297-96z"/></svg>