<svg xmlns="http://www.w3.org/2000/svg" data-name="S_Vignette_24_N@2x" height="48" id="S_Vignette_24_N_2x" viewBox="0 0 48 48" width="48"><defs><style>.fill{fill:#707070}</style></defs><title>S_Vignette_24_N@2x</title><path class="fill" d="M2 4v40a2 2 0 0 0 2 2h40a2 2 0 0 0 2-2V4a2 2 0 0 0-2-2H4a2 2 0 0 0-2 2zm40 38H6V6h36z"/><path class="fill" d="M38 21.718V10H26.282A14.187 14.187 0 0 1 38 21.718zM21.718 10H10v11.718A14.187 14.187 0 0 1 21.718 10zM10 26.282V38h11.718A14.187 14.187 0 0 1 10 26.282zM26.282 38H38V26.282A14.187 14.187 0 0 1 26.282 38z"/></svg>