<svg xmlns="http://www.w3.org/2000/svg" width="1152" height="1152" viewBox="0 0 1152 1152"><title>Visit_24</title><path d="M1056 144H96a48 48 0 0 0-48 48v720a48 48 0 0 0 48 48h72.68a280.762 280.762 0 0 1 69.445-96H144V336h864v528h-99.961a290.321 290.321 0 0 1 71.93 96H1056a48 48 0 0 0 48-48V192a48 48 0 0 0-48-48z"/><path d="M665.077 844.914v-46.8c0-7.684 3.125-14.818 8.243-20.887 34.681-41.116 56.2-99.051 56.2-154.225 0-116.712-61.9-181.932-155.424-181.932s-157.19 67.785-157.19 181.932c0 55.173 24.213 113.106 58.893 154.22 5.12 6.07 8.246 13.205 8.245 20.891v46.592c0 15.495-11.292 30.983-28.04 32.44C268.087 893.5 240 1022.036 240 1072.727c0 5.634-.413 72.72 0 78.273h670.14s.584-72.639.584-78.273c0-48.582-33.191-176.66-217.7-195.4-16.686-1.69-27.946-16.952-27.947-32.413z"/></svg>