<svg xmlns="http://www.w3.org/2000/svg" width="1152" height="1152" viewBox="0 0 1152 1152"><title>VisitShare_24</title><path d="M1128 720H960v96h96v240H576V816h96v-96H504a24 24 0 0 0-24 24v384a24 24 0 0 0 24 24h624a24 24 0 0 0 24-24V744a24 24 0 0 0-24-24z"/><path d="M953.329 631.952L816 480 679.011 631.952c-13.9 15.445-2.938 40.055 17.839 40.055H768v276a12 12 0 0 0 12 12h72a12 12 0 0 0 12-12v-276h71.49c20.778 0 31.738-24.607 17.839-40.055z"/><path d="M96 192h768v197.938l96 106.216V96a48 48 0 0 0-48-48H48A48 48 0 0 0 0 96v672c0 24.841 19.1 44.578 43.289 47.051 32.4-37.655 77.262-71.5 137.484-95.051H96V192z"/><path d="M384 744a120 120 0 0 1 120-120h71.555c19.711-43.3 31.313-95.353 31.313-140.112 0-133.1-65.016-195.888-163.242-195.888s-165.118 65.707-165.118 195.888c0 62.959 25.465 140.681 61.922 187.562a38.549 38.549 0 0 1 8.6 23.748v53.139c0 18.272-14.906 35.432-33.07 37.368C104.332 808.277 63.316 950.977 63.316 1008.46V1056H384V744z"/></svg>