<svg xmlns="http://www.w3.org/2000/svg" data-name="S_Visibility_24_N@2x" height="48" id="S_Visibility_24_N_2x" viewBox="0 0 48 48" width="48"><defs><style>.fill{fill:#707070}</style></defs><title>S_Visibility_24_N@2x</title><path class="fill" d="M32.817 11.44A19.965 19.965 0 0 0 24 9.249c-11.552 0-21 11.5-21 15.231 0 4 9.944 14.271 20.915 14.271C34.975 38.751 45 28.477 45 24.48c0-3.152-5.619-9.788-12.183-13.04zM24 36.3A12.3 12.3 0 1 1 36.3 24 12.3 12.3 0 0 1 24 36.3z"/><path class="fill" d="M27.556 24.111A3.556 3.556 0 0 1 24 20.555a3.508 3.508 0 0 1 1.8-3.026 6.551 6.551 0 0 0-1.8-.28A6.75 6.75 0 1 0 30.75 24a6.268 6.268 0 0 0-.233-1.594 3.5 3.5 0 0 1-2.961 1.705z"/></svg>