<svg xmlns="http://www.w3.org/2000/svg" width="1152" height="1152" viewBox="0 0 1152 1152"><title>VK_24</title><path d="M568.334 859.243h65.937s19.912-2.2 30.095-13.153c9.359-10.068 9.059-28.964 9.059-28.964s-1.29-88.475 39.769-101.506c40.489-12.842 92.47 85.512 147.565 123.331 41.662 28.612 73.323 22.349 73.323 22.349l147.326-2.056s77.064-4.757 40.52-65.349c-2.99-4.951-21.286-44.822-109.545-126.742-92.383-85.743-80-71.87 31.278-220.182 67.766-90.324 94.856-145.463 86.389-169.08-8.065-22.5-57.91-16.555-57.91-16.555l-165.877 1.028s-12.307-1.677-21.423 3.778c-8.915 5.332-14.636 17.794-14.636 17.794s-26.263 69.89-61.267 129.338c-73.862 125.42-103.4 132.058-115.474 124.258-28.092-18.152-21.07-72.912-21.07-111.825 0-121.552 18.437-172.231-35.9-185.347-18.028-4.353-31.309-7.232-77.424-7.7-59.19-.605-109.278.18-137.642 14.074-18.873 9.245-33.432 29.831-24.558 31.019 10.965 1.461 35.789 6.7 48.951 24.609 17 23.134 16.405 75.063 16.405 75.063s9.77 143.082-22.811 160.854c-22.356 12.189-53.029-12.7-118.883-126.487-33.733-58.283-59.211-122.72-59.211-122.72s-4.907-12.037-13.672-18.484c-10.628-7.807-25.48-10.283-25.48-10.283l-157.631 1.03s-23.659.662-32.35 10.951c-7.735 9.16-.618 28.084-.618 28.084S154.967 589.087 294.7 734.58C422.849 868 568.334 859.243 568.334 859.243z" fill-rule="evenodd"/></svg>