<svg xmlns="http://www.w3.org/2000/svg" data-name="S_VoiceOver_24_N@2x" height="48" id="S_VoiceOver_24_N_2x" viewBox="0 0 48 48" width="48"><defs><style>.fill{fill:#707070}</style></defs><title>S_VoiceOver_24_N@2x</title><path class="fill" d="M32 9a9 9 0 0 0-18 0v16a9 9 0 0 0 18 0z"/><path class="fill" d="M38 25v-4.5a.5.5 0 0 0-.5-.5H36a.5.5 0 0 0-.5.5v4.085A12.772 12.772 0 0 1 23.234 37.5 12.5 12.5 0 0 1 10.5 25v-4.5a.5.5 0 0 0-.5-.5H8.5a.5.5 0 0 0-.5.5v4.076a15.292 15.292 0 0 0 13.75 15.355V44H13a1 1 0 0 0-1 1v2a1 1 0 0 0 1 1h20a1 1 0 0 0 1-1v-2a1 1 0 0 0-1-1h-8.75v-4.066A14.991 14.991 0 0 0 38 25z"/></svg>