<svg xmlns="http://www.w3.org/2000/svg" data-name="S_VolumeMute_24_N@2x" height="48" id="S_VolumeMute_24_N_2x" viewBox="0 0 48 48" width="48"><defs><style>.fill{fill:#707070}</style></defs><title>S_VolumeMute_24_N@2x</title><path class="fill" d="M32.1 24.1A11.9 11.9 0 1 0 44 36a11.9 11.9 0 0 0-11.9-11.9zM41.025 36a8.859 8.859 0 0 1-1.663 5.158l-12.42-12.42A8.9 8.9 0 0 1 41.025 36zm-17.85 0a8.858 8.858 0 0 1 1.663-5.158l12.42 12.42A8.9 8.9 0 0 1 23.175 36zM16.2 36.1A15.777 15.777 0 0 1 22 23.746V7.155a.931.931 0 0 0-1.542-.762l-9.8 9.154a2.013 2.013 0 0 1-1.283.46L2 16.013A1.994 1.994 0 0 0 0 18v12.013A1.994 1.994 0 0 0 2 32h7.375a2 2 0 0 1 1.279.455l5.634 5.313A15.949 15.949 0 0 1 16.2 36.1z"/></svg>