<svg xmlns="http://www.w3.org/2000/svg" width="1152" height="1152" viewBox="0 0 1152 1152"><title>Wand_24</title><path d="M876.477 412.679l-67.884-67.874a47.99 47.99 0 0 0-67.881 0L129.773 955.73a48 48 0 0 0 0 67.886l67.881 67.874a47.99 47.99 0 0 0 67.881 0l610.942-610.925a48.006 48.006 0 0 0 0-67.886zm-23.76 44.132L739.251 570.283 651 482.03l113.473-113.471a14.383 14.383 0 0 1 20.364.012l67.878 67.862a14.433 14.433 0 0 1 .003 20.378zM1060.619 452.81l2.493 68.938a56.207 56.207 0 0 0 28.7 47.007L1152 602.468l-68.939 2.493a56.208 56.208 0 0 0-47.008 28.7l-33.713 60.185-2.493-68.938a56.207 56.207 0 0 0-28.7-47.007l-60.188-33.711 68.941-2.49a56.208 56.208 0 0 0 47.008-28.7zM1002.606 0l3.458 95.621a77.962 77.962 0 0 0 39.812 65.2l83.48 46.76-95.622 3.457a77.963 77.963 0 0 0-65.2 39.811L921.77 334.33l-3.458-95.621a77.962 77.962 0 0 0-39.812-65.2l-83.48-46.76 95.622-3.457a77.963 77.963 0 0 0 65.2-39.811zM459.153 72.911l4.453 123.148a100.4 100.4 0 0 0 51.272 83.971l107.513 60.22-123.15 4.45a100.407 100.407 0 0 0-83.972 51.272l-60.222 107.513-4.453-123.148a100.4 100.4 0 0 0-51.272-83.971l-107.512-60.22 123.149-4.453a100.407 100.407 0 0 0 83.972-51.272z"/></svg>