<svg xmlns="http://www.w3.org/2000/svg" data-name="S_Watch_24_N@2x" height="48" id="S_Watch_24_N_2x" viewBox="0 0 48 48" width="48"><defs><style>.fill{fill:#707070}</style></defs><title>S_Watch_24_N@2x</title><path class="fill" d="M10 8a1.914 1.914 0 0 0-2 2v26a2.02 2.02 0 0 0 2 2 2.112 2.112 0 0 1 2 2v4a2 2 0 0 0 2 2h18a2 2 0 0 0 2-2v-4a2.112 2.112 0 0 1 2-2 2.02 2.02 0 0 0 2-2V22a2 2 0 0 0 2-2v-2a2 2 0 0 0-2-2v-6a1.987 1.987 0 0 0-2.083-2A1.946 1.946 0 0 1 34 6V2a2 2 0 0 0-2-2H14a2 2 0 0 0-2 2v4a1.875 1.875 0 0 1-2 2zm24 4v22H12V12z"/></svg>