<svg xmlns="http://www.w3.org/2000/svg" width="1152" height="1152" viewBox="0 0 1152 1152"><title>Windows7_24</title><path d="M939.593 213.176c-112.043 0-180.67-43.947-205.891-63.73L627.8 553.851c26.406 20.267 93.726 61.878 203.374 61.878 113.7 0 179.256-16.814 202.354-24.076L1152 194.882s-67.809 18.294-212.407 18.294zM656.849 110.944C631.451 91.1 563.611 48 452 48c-113.7 0-179.161 16.815-202.278 24.076L131.27 468.847s67.791-18.293 212.407-18.293c114.135 0 183.229 45.614 207.264 64.82zM808.322 701.428c-108.062 0-175.753-40.893-203.05-61.544L499.38 1044.255C527.585 1065.182 594 1104 699.905 1104c113.7 0 179.256-16.833 202.373-24.077l118.451-396.77s-67.79 18.275-212.407 18.275zM528.348 601.654C505.4 583.039 436.783 536.5 320.825 536.5c-113.7 0-179.256 16.833-202.355 24.076L0 957.35s67.809-18.275 212.407-18.275c118.873 0 188.877 49.469 210.019 67.063z"/></svg>