<svg xmlns="http://www.w3.org/2000/svg" width="1152" height="1152" viewBox="0 0 1152 1152"><title>Wordpress_24</title><path d="M576.008 96.019c-264.662 0-479.984 215.315-479.984 479.974S311.346 1056 576.008 1056 1056 840.662 1056 575.993 840.667 96.019 576.008 96.019zM144.466 575.993a429.879 429.879 0 0 1 37.368-175.628l205.856 564.01c-143.968-69.939-243.224-217.57-243.224-388.382zm431.543 431.575a431.37 431.37 0 0 1-121.917-17.584l129.493-376.241 132.64 363.414a40.32 40.32 0 0 0 3.09 5.947 430.719 430.719 0 0 1-143.307 24.464zm59.475-633.907c25.976-1.367 49.389-4.1 49.389-4.1 23.253-2.75 20.51-36.927-2.753-35.565 0 0-69.9 5.486-115.022 5.486-42.4 0-113.656-5.486-113.656-5.486-23.271-1.362-26 34.19-2.738 35.565 0 0 22.013 2.735 45.264 4.1L563.2 557.879l-94.454 283.235L311.6 373.662c26-1.367 49.387-4.1 49.387-4.1 23.239-2.75 20.493-36.927-2.761-35.565 0 0-69.887 5.486-115.015 5.486-8.1 0-17.641-.2-27.775-.523 77.166-117.145 209.8-194.507 360.567-194.507a429.926 429.926 0 0 1 291.414 113.3c-1.86-.116-3.675-.349-5.59-.349-42.39 0-72.468 36.929-72.468 76.591 0 35.565 20.52 65.653 42.39 101.218 16.413 28.739 35.579 65.664 35.579 119.015 0 36.931-14.206 79.792-32.836 139.508l-43.05 143.816zm319.209-4.7a429.447 429.447 0 0 1 52.856 207.031c0 159.21-86.283 298.205-214.578 373.01l131.808-381.1c24.618-61.566 32.817-110.793 32.817-154.567a331.125 331.125 0 0 0-2.903-44.373z"/></svg>