<svg xmlns="http://www.w3.org/2000/svg" width="1152" height="1152" viewBox="0 0 1152 1152"><title>Workflow_24</title><rect x="96" y="336" width="288" height="480" rx="48" ry="48"/><rect x="768" y="96" width="288" height="288" rx="48" ry="48"/><rect x="768" y="432" width="288" height="288" rx="48" ry="48"/><rect x="768" y="768" width="288" height="288" rx="48" ry="48"/><path d="M720 264v-48a24 24 0 0 0-24-24H552a24 24 0 0 0-24 24v312h-72a24 24 0 0 0-24 24v48a24 24 0 0 0 24 24h72v312a24 24 0 0 0 24 24h144a24 24 0 0 0 24-24v-48a24 24 0 0 0-24-24h-72V624h72a24 24 0 0 0 24-24v-48a24 24 0 0 0-24-24h-72V288h72a24 24 0 0 0 24-24z"/></svg>