<svg xmlns="http://www.w3.org/2000/svg" width="1152" height="1152" viewBox="0 0 1152 1152"><title>WorkflowAdd_24</title><path d="M1008 432H816a48 48 0 0 0-48 48v15.062a376.287 376.287 0 0 1 288 39.538V480a48 48 0 0 0-48-48zm0-336H816a48 48 0 0 0-48 48v192a48 48 0 0 0 48 48h192a48 48 0 0 0 48-48V144a48 48 0 0 0-48-48zm-312 96H552a23.992 23.992 0 0 0-24 24v312h-72a23.992 23.992 0 0 0-24 24v48a23.994 23.994 0 0 0 24 24h72v59.057A383.233 383.233 0 0 1 683.063 528H624V288h72a23.994 23.994 0 0 0 24-24v-48a23.992 23.992 0 0 0-24-24zM336 336H144a48 48 0 0 0-48 48v384a48 48 0 0 0 48 48h192a48 48 0 0 0 48-48V384a48 48 0 0 0-48-48zM580.792 866.4c0 157.733 127.867 285.6 285.6 285.6S1152 1024.133 1152 866.4s-127.871-285.6-285.6-285.6-285.608 127.867-285.608 285.6zm321.6-192a12 12 0 0 1 12 12v132h132a12 12 0 0 1 12 12v72a12 12 0 0 1-12 12h-132v132a12 12 0 0 1-12 12h-72a12 12 0 0 1-12-12v-132h-132a12 12 0 0 1-12-12v-72a12 12 0 0 1 12-12h132v-132a12 12 0 0 1 12-12h72z"/></svg>