<svg data-name="123_18" xmlns="http://www.w3.org/2000/svg" width="648" height="648" viewBox="0 0 648 648"><title>123_18</title><path d="M495.3 308.31c-2.2 0-3.054-.883-3.054-3.079v-43.487c0-2.638 0-4.392 2.625-4.392l21.907-.2c30.767 0 47.45-9.225 47.45-29.442 0-19.321-16.254-32.067-48.333-32.067-23.7 0-43.916 5.717-65.016 16.7-2.625 1.312-3.054 0-3.054-1.754v-43.5c0-2.638-.454-3.508 2.2-4.833 20.191-10.979 47-17.125 76.425-17.125 58 0 94.016 28.987 94.016 74.683 0 29.871-19.762 49.646-38.667 57.546 22.867 7.471 52.3 26.362 52.3 68.537 0 56.233-51.842 86.1-112.466 86.1-29.429 0-54.492-3.508-75.137-14.5-2.625-.871-2.625-3.508-2.625-5.7v-47.45c0-1.754 2.2-2.638 3.963-1.754 25.037 12.733 46.567 18.45 71.6 18.45 39.525 0 54.921-16.254 54.921-36.9 0-23.283-16.708-36.029-53.179-36.029zM83.1 202.856c-13.784 4.308-34.419 10.338-46.48 12.061-3.015.431-3.877-.431-3.877-3.015v-37.475c0-2.154.431-3.446 3.015-3.877 18.089-4.307 38.422-13.35 55.652-21.968 2.584-1.292 4.738-2.154 7.322-2.154h42.356c2.154 0 2.585 1.292 2.585 3.015l-.1 230.635h38.517c3.015 0 3.877 1.292 4.308 3.877l.1 43.307c.431 3.446-.862 4.738-3.446 4.738H41.888c-3.015 0-3.877-1.292-3.446-3.877l-.1-44.169c.431-2.584 1.723-3.877 4.738-3.877h39.913zM216.244 432c-3.016 0-3.446-1.292-3.446-3.877V397.11c0-3.015.431-3.877 2.154-5.6 17.23-13.784 45.659-37.905 80.98-72.8 34.029-33.167 48.835-54.6 48.835-78.718 0-27.137-22.129-43.015-54.866-43.015-23.26 0-49.535 8.184-69.35 18.953-2.585 1.292-4.307.431-4.307-2.585v-42.639c0-2.584.431-3.877 2.584-5.169C238.643 153.477 267.5 144 304.116 144c63.319 0 93.3 37.705 95.973 85.874 2.163 38.942-15.644 68.56-44.5 98.281-26.706 28-39.973 40.229-54.618 52.72 29.721 0 90.95-.8 116.364-.8 3.015 0 3.446.862 3.015 3.877l-12.851 44.6c-.862 2.584-2.154 3.446-4.738 3.446H216.244z"/></svg>