<svg xmlns="http://www.w3.org/2000/svg" width="648" height="648" viewBox="0 0 648 648"><title>ABC_18</title><path d="M88.843 368.709l-19.8 59.8c-.779 2.714-2.332 3.491-4.662 3.491H17.787c-3.106 0-3.883-1.553-3.106-4.271 20.579-58.244 53.584-153.763 78.046-220.937 1.553-3.883 3.106-8.93 3.883-24.074A2.453 2.453 0 0 1 99.327 180h62.515a2.909 2.909 0 0 1 3.106 1.941c28.345 78.046 59.408 166.965 88.142 246.176 1.165 2.718.388 3.883-2.33 3.883h-51.254c-2.33 0-3.106-.777-3.883-2.718l-21.744-60.573H88.843zm73-44.265c-7.766-26.4-23.3-70.669-31.063-98.626h-.39c-5.824 26.4-19.8 67.174-29.9 98.626h61.35z"/><path d="M252.816 184.629c0-2.7.386-3.472 2.315-3.857 16.969-.386 49.376-.772 82.169-.772 79.851 0 96.824 35.1 96.824 66.349 0 26.617-15.044 45.519-36.646 54v.772c20.059 5.786 46.29 22.373 46.29 58.248 0 47.833-41.275 72.521-111.482 72.521-29.7.386-60.949-.386-76.764-.772-1.929-.386-2.7-1.543-2.7-3.472V184.629zm53.619 96.823H340c30.86 0 40.5-12.73 40.5-29.317 0-20.831-13.887-29.317-43.59-29.317-15.044 0-27 .386-30.474.772v57.862zm0 106.853c4.243 0 13.116.772 28.931.772 32.4 0 51.69-8.487 51.69-32.4 0-20.059-12.344-31.632-46.676-31.632h-33.944v63.263zM589.54 180c24.072 0 42.877 3.385 53.032 7.9 1.881 1.128 2.257 1.881 2.257 4.513v39.869c0 3.385-1.881 3.385-3.385 2.633-12.411-5.266-28.961-9.4-50.023-9.4-48.143 0-81.618 28.961-81.618 79.737 0 61.684 44.383 78.985 81.242 78.985 21.063 0 39.868-4.137 52.656-9.027 1.881-.752 3.009 0 3.009 2.257V416.2c0 2.633-.376 4.137-3.009 5.266C630.161 427.863 607.97 432 581.642 432c-67.325 0-126.752-37.236-126.752-125.248C454.89 234.913 507.547 180 589.54 180z"/></svg>