<svg xmlns="http://www.w3.org/2000/svg" width="648" height="648" viewBox="0 0 648 648"><title>Actions_18</title><path d="M459.639 384.08l-57.738 57.8L560.019 600a24.555 24.555 0 0 0 34.719 0l23.052-23.045a24.551 24.551 0 0 0 0-34.726zM119.852 351.557L146 325.413c9.584-9.584-.4-23.177-.4-23.177l26.842-25.886a24.556 24.556 0 0 0 34.495-.224l14.6-14.607 28.107 28.107 57.771-57.771-28.107-28.1 9.519-9.519a24.551 24.551 0 0 0 0-34.726L277.3 147.989s33.915-38.074 41.041-45.2c29.966-29.966 96.313-10.646 99.378-25.991S270.415 4.584 188.09 86.9l-85.667 85.674a24.552 24.552 0 0 0 .066 34.785l5.794 5.57-25.457 26.527s-11.977-12.2-23.487-.686L33.2 264.907a12.274 12.274 0 0 0 0 17.356l69.293 69.293a12.27 12.27 0 0 0 17.359.001zM198.737 549.408c-28.316 10.194-63.721 22.99-88.182 31.747l31.572-88.194zM526.343 74.827L123.508 477.662a20.383 20.383 0 0 0-4.759 7.434L80.526 590.643c-4.822 13.314 6.5 24.717 19.835 19.973l106.091-37.75a20.373 20.373 0 0 0 7.55-4.809l402.756-403.19c7.135-7.148 7.84-18 1.575-24.238l-67.789-67.442c-6.25-6.218-17.077-5.487-24.201 1.64z"/></svg>