<svg xmlns="http://www.w3.org/2000/svg" width="648" height="648" viewBox="0 0 648 648"><title>Adjust_18</title><path d="M111.055 130.79C64.627 181.912 36 249.5 36 324a286.116 286.116 0 0 0 13.78 86.835h154.179zM441.263 61.4a285.116 285.116 0 0 0-283.11 27.523l47.572 143.391zM610.954 344.778C611.491 337.9 612 331.015 612 324c0-94.56-45.855-178.119-116.239-230.623l-116.995 84.9zM483.3 324.466l-90.1 278.681a287.929 287.929 0 0 0 206.059-195.515zM329.583 611.719l46.23-142.995H75.3C125.223 554.315 217.768 612 324 612c1.887 0 3.731-.152 5.583-.281z"/></svg>