<svg xmlns="http://www.w3.org/2000/svg" width="648" height="648" viewBox="0 0 648 648"><title>AdobeSocial_18</title><path d="M205.475 402.3v-1.35c0-2.97.27-2.97-.54-5.67l160.65-81c4.32 6.21 9.99 7.29 18.09 8.1l3.78 117.45c-8.37 1.89-12.15 6.21-15.93 13.5zm99.36-241.11a27.179 27.179 0 0 0 22.95 11.88c1.89 0 1.35.54 3.24.27l37.53 93.42c-4.32 2.43-5.13 3.51-7.56 8.1l-162-52.92c.27-1.62-.54-.54-.54-2.16a26.1 26.1 0 0 0-1.08-7.83zm130.41 30.24c-.27 1.89 2.16 2.16 2.16 4.05a27.3 27.3 0 0 0 7.29 18.63l-50.76 52.65c-4.05-2.43-2.97-.27-7.83-.27-2.16 0-2.7-.27-4.59.27l-39.69-98.82c4.05-2.43 6.75-2.97 9.18-7.29zm56.97 146.07c-4.32 1.62-15.93 0-20.25 1.62l-59.13-36.99c1.08-2.97-1.08-7.29-1.08-10.53 0-7.29-7.83-9.99-12.15-14.85l51.84-57.24c4.05 2.43 8.1 2.7 13.23 2.7a5.9 5.9 0 0 0 1.35.81zm-307.26 33.21l-5.13-125.28c8.37-1.62 11.07-3.24 14.85-10.53l159.57 55.62c-.27 1.62.54 2.7.54 4.32 0 2.97 1.62.54 2.43 3.24l-159.3 81.54c-4.32-6.21-5.13-7.83-12.96-8.91zm218.7 68.58l-2.97-117.99c5.67-1.35 2.16-4.32 5.94-8.37L469.8 351a28.049 28.049 0 0 0-1.89 9.45 29.652 29.652 0 0 0 5.94 17.28l-62.64 67.5c-3.51-2.7-2.695-5.67-7.555-5.94zm102.33-106.65h-.81l-25.65-114.75c10.8-4.05 13.5-10.26 13.5-22.41a27.77 27.77 0 0 0-27.81-27.81c-10.53 0-14.04 4.59-18.9 13.23 0 0-90.72-33.75-90.72-35.64a27.81 27.81 0 0 0-55.62 0c0 2.7-1.35 2.16-.54 4.59L189 200.34c-5.13-7.56-8.64-8.37-18.36-8.37a27.77 27.77 0 0 0-27.81 27.81c0 14.31 8.64 25.65 22.41 27.27l5.4 125.82c-9.99 2.43-20.79 14.58-20.79 28.08a27.77 27.77 0 0 0 27.81 27.81 26.959 26.959 0 0 0 24.84-15.66l165.78 51.3-.27 3.78a27.81 27.81 0 1 0 55.62 0 26.588 26.588 0 0 0-5.94-17.01l62.64-67.5a27.2 27.2 0 0 0 15.39 4.59 27.77 27.77 0 0 0 27.81-27.81c.005-15.39-8.905-28.62-17.545-27.81z" fill-rule="evenodd"/><path d="M324.007 11.611C153.094 11.611 14.851 151.47 14.851 324s138.243 312.389 309.156 312.389S633.149 496.53 633.149 324 494.919 11.611 324.007 11.611zm0 590.22C172.54 601.83 49.142 477.09 49.142 324S172.54 46.17 324.007 46.17 598.871 170.91 598.871 324 475.473 601.83 324.007 601.83z" fill-rule="evenodd"/></svg>