<svg xmlns="http://www.w3.org/2000/svg" width="648" height="648" viewBox="0 0 648 648"><title>AdobeAudienceManager_18</title><path d="M324.007 13.5c-170.913 0-309.156 139.86-309.156 312.39s138.243 312.389 309.156 312.389 309.142-139.86 309.142-312.389S494.919 13.5 324.007 13.5zm0 590.22c-151.467 0-274.865-124.74-274.865-277.83S172.54 48.059 324.007 48.059 598.871 172.8 598.871 325.89 475.473 603.72 324.007 603.72z" fill-rule="evenodd"/><path d="M345.875 327.51l146.07-41.31c13.23 55.89 4.59 102.87-38.07 146.88zm91.26 117.45c-65.61 58.32-163.89 53.73-225.99-8.1-61.83-61.83-64.26-157.68-6.21-223.29zM324 301.32L213.575 196.83c43.74-42.39 94.5-54.81 150.12-42.12zm13.5 11.07l41.31-147.69c15.39 4.59 41.58 11.34 66.96 36.72s35.91 53.46 40.5 68.85zm124.47-127.17c-40.5-40.5-88.83-49.95-90.72-50.22l-3.51 4.32c-58.86-13.5-122.31 2.7-168.75 47.79l-5.94-5.4c-76.41 76.14-77.49 200.07-2.16 275.4 75.6 75.33 198.99 74.25 275.4-2.16l-5.4-5.4c45.36-46.71 60.75-112.32 46.71-171.72l5.4-13.5c-.535-1.89-10.8-38.88-51.025-79.11z" fill-rule="evenodd"/></svg>