<svg xmlns="http://www.w3.org/2000/svg" width="648" height="648" viewBox="0 0 648 648"><title>AdobeTarget_18</title><path d="M324.007 11.611C153.094 11.611 14.851 151.47 14.851 324s138.243 312.389 309.156 312.389S633.149 496.53 633.149 324 494.919 11.611 324.007 11.611zm0 590.22C172.54 601.83 49.142 477.09 49.142 324S172.54 46.17 324.007 46.17 598.871 170.91 598.871 324 475.473 601.83 324.007 601.83z" fill-rule="evenodd"/><path d="M465.684 294.892c-13.75-.105-22.953 9.94-23.269 23.053-.211 9.835 8.358 22.313 22.953 22.42 10.257.105 23.045-7.4 22.939-21.679-.107-14.804-11.207-23.686-22.623-23.794z" fill-rule="evenodd"/><path d="M465.091 247.524a71.771 71.771 0 0 0-50.638 122.484l1.332 1.333-36.69 36.695a74.875 74.875 0 0 0-43.414-22.478V258.936c38.892-2.979 69.636-35.133 69.636-74.8a75.379 75.379 0 1 0-132.363 48.825l-34.831 34.948a76.035 76.035 0 1 0 8.319 8.248l35.12-34.657a74.621 74.621 0 0 0 44.125 17.59v125.459c-.382-.007-.738-.114-1.134-.114a75.585 75.585 0 1 0 61.818 32.417l38.074-38.447a71.681 71.681 0 1 0 40.646-130.881zM249.71 324.959a60.1 60.1 0 1 1-102.621-42.649 60.1 60.1 0 0 1 102.621 42.649zm54.316-86.865a60.159 60.159 0 0 1 26.064-114.387 59.638 59.638 0 0 1 33.262 10.015 60.558 60.558 0 0 1 9.149 92.9 59.42 59.42 0 0 1-68.474 11.472zm63.083 264.2a60.1 60.1 0 0 1-102.621-42.651 61.935 61.935 0 0 1 1.094-11.31 60.1 60.1 0 1 1 101.528 53.962zm132.378-148.413c-9.2 9.2-21.067 13.2-34.119 13.2s-25.589-4-34.792-13.2a48.462 48.462 0 0 1-14.265-34.52 49 49 0 0 1 14.265-34.653 48.756 48.756 0 0 1 68.911 0 49.047 49.047 0 0 1 14.251 34.653 48.5 48.5 0 0 1-14.251 34.52z" fill-rule="evenodd"/></svg>