<svg xmlns="http://www.w3.org/2000/svg" width="648" height="648" viewBox="0 0 648 648"><title>AdobeExperienceManager_18</title><path d="M324 133.11a56.912 56.912 0 0 1 51.03 31.59 68.522 68.522 0 0 0-14.04 11.07c-9.99 9.72-22.95 12.96-36.99 12.96s-27-3.24-36.99-12.96a76.652 76.652 0 0 0-14.04-11.07A56.912 56.912 0 0 1 324 133.11zm56.7 50.22c.27 2.16-1.35 5.4-1.35 7.56-.81 39.15 25.92 66.69 67.5 66.15 2.16 0 4.86-1.08 6.75-1.08a42.962 42.962 0 0 1-5.4 6.48c-13.5 13.23-23.49 30.24-23.49 49.14s9.99 37.53 23.49 50.76a41.92 41.92 0 0 1 5.67 6.21c-2.16.27-3.78-1.08-5.67-1.08-38.88-1.08-69.93 27.54-69.12 67.23 0 2.16 1.89 4.59 1.62 6.75a60.829 60.829 0 0 1-6.48-5.67c-13.5-13.23-30.24-23.49-49.41-23.49-18.9 0-37.53 10.26-51.03 23.49-2.16 2.16-3.24 4.86-5.4 6.48a47.661 47.661 0 0 1 0-6.21c1.35-39.42-29.16-72.63-67.5-68.85-2.16.27-4.59 1.62-6.48 1.62a62.439 62.439 0 0 1 5.4-6.48c13.5-13.23 23.49-31.05 23.49-49.95s-9.99-36.72-23.49-49.95a42.962 42.962 0 0 1-5.4-6.48c1.89 0 7.02 1.35 9.18 1.35 36.72 0 64.53-28.35 64.53-64.8a85.391 85.391 0 0 1 .81-8.64c2.16 1.62 2.7 2.97 4.86 5.13 13.5 13.23 29.7 21.87 48.87 21.87 18.9 0 38.07-8.64 51.57-21.87a42.405 42.405 0 0 1 6.48-5.67zm91.8 78.3c18.9 9.18 30.24 27.54 30.24 49.68 0 22.41-11.34 42.66-30.24 51.84a76.652 76.652 0 0 0-11.07-14.04c-9.72-9.72-12.15-22.95-12.15-36.72s2.43-27 12.15-36.72a76.652 76.652 0 0 0 11.07-14.04zm-97.47 198.45c-9.18 18.63-28.62 30.51-51.03 30.51s-41.85-11.88-51.03-30.51a76.652 76.652 0 0 0 14.04-11.07c9.99-9.72 22.95-14.04 36.99-14.04s27 4.32 36.99 14.04a76.652 76.652 0 0 0 14.04 11.07zM175.5 363.15c-18.9-9.18-29.16-28.35-29.16-50.76s10.26-41.58 29.16-50.76a76.652 76.652 0 0 0 11.07 14.04c9.72 9.72 12.96 22.95 12.96 36.72s-3.24 27-12.96 36.72a76.652 76.652 0 0 0-11.07 14.04zM324 501.66c26.19 0 48.6-15.66 59.67-37.26a72.562 72.562 0 0 0 27.54 5.4c18.9 0 41.85-2.43 55.08-15.66 13.5-13.5 15.93-36.18 15.93-55.08a73.6 73.6 0 0 0-5.4-27.54 65.756 65.756 0 0 0 0-118.26 73.6 73.6 0 0 0 5.4-27.54c0-18.9-2.97-40.77-16.2-54.27-13.5-13.23-35.91-16.47-54.81-16.47a73.939 73.939 0 0 0-27.81 5.4 66.367 66.367 0 0 0-59.4-36.72 67.089 67.089 0 0 0-59.67 36.72 72.562 72.562 0 0 0-27.54-5.4c-18.9 0-39.42 1.89-52.92 15.12-13.5 13.5-18.09 36.72-18.09 55.62a73.6 73.6 0 0 0 5.4 27.54 65.756 65.756 0 0 0 0 118.26 73.6 73.6 0 0 0-5.4 27.54c0 18.9 2.43 41.04 15.93 54.54 13.23 13.23 36.18 16.2 55.08 16.2a72.562 72.562 0 0 0 27.54-5.4c11.07 21.6 33.48 37.26 59.67 37.26zm65.34-55.35a50.554 50.554 0 0 0 1.08-11.34c0-31.05 25.65-56.43 56.97-56.43a80.562 80.562 0 0 0 11.34-1.08 49.564 49.564 0 0 1 4.86 21.6c0 14.04-7.56 25.38-17.28 35.37-9.99 9.72-21.06 16.74-35.1 16.74a50.739 50.739 0 0 1-21.87-4.86zm69.39-198.99a80.562 80.562 0 0 0-11.34-1.08c-31.32 0-56.97-25.38-56.97-56.43a50.554 50.554 0 0 0-1.08-11.34 50.739 50.739 0 0 1 21.87-4.86c14.04 0 24.57 6.75 34.56 16.74 9.72 9.72 17.82 21.33 17.82 35.37a49.564 49.564 0 0 1-4.86 21.6zm-200.07-68.85a50.554 50.554 0 0 0-1.08 11.34c0 31.05-25.65 56.43-56.97 56.43a80.562 80.562 0 0 0-11.34 1.08 49.564 49.564 0 0 1-4.86-21.6c0-14.04 8.37-25.92 18.36-35.91 9.72-9.72 19.98-16.2 34.02-16.2a50.739 50.739 0 0 1 21.87 4.86zm-69.39 198.99a80.562 80.562 0 0 0 11.34 1.08c31.32 0 56.97 25.38 56.97 56.43a50.554 50.554 0 0 0 1.08 11.34 50.739 50.739 0 0 1-21.87 4.86c-14.04 0-25.11-7.02-35.1-16.74-9.72-9.99-17.28-21.33-17.28-35.37a49.564 49.564 0 0 1 4.86-21.6z" fill-rule="evenodd"/><path d="M324 13.5c-170.912 0-309.155 139.86-309.155 312.39S153.088 638.28 324 638.28s309.155-139.861 309.155-312.39S494.912 13.5 324 13.5zm0 590.22c-151.466 0-274.865-124.74-274.865-277.829S172.534 48.059 324 48.059 598.865 172.8 598.865 325.89 475.466 603.72 324 603.72z" fill-rule="evenodd"/></svg>