<svg xmlns="http://www.w3.org/2000/svg" width="648" height="648" viewBox="0 0 648 648"><title>AdobeAnalytics_18</title><path d="M248.945 323.46h-31.59l-1.08 177.12c8.64 4.32 22.68 7.83 31.86 11.07zm49.68-11.07v214.65c4.05.27 13.5-3.51 17.55-3.51 4.86 0 9.45-.27 14.31-.54v-210.6h-31.86zM459 455.76c9.99-10.53 24.03-18.9 31.86-31.32v-143.1H459v174.42zm-294.57-121.5l65.07-75.06 56.16 30.51s58.59-33.75 59.4-35.1c.54-1.62 75.06-60.75 75.06-60.75l63.72 53.19 32.67-23.49-5.67-21.6-24.84 6.75-65.61-55.35-134.73 99.36-55.62-32.94-74.25 86.4-46.44 3.24v29.97zm2.43 32.13H135v42.93c7.83 11.88 21.87 19.17 31.59 29.16zm244.08-108h-31.59L378 512.19c9.18-3.24 23.22-7.02 31.86-11.61z"/><path d="M324.007 13.5c-170.913 0-309.156 139.86-309.156 312.39s138.243 312.389 309.156 312.389 309.142-139.86 309.142-312.389S494.919 13.5 324.007 13.5zm0 590.22c-151.467 0-274.865-124.74-274.865-277.83S172.54 48.059 324.007 48.059 598.871 172.8 598.871 325.89 475.473 603.72 324.007 603.72z" fill-rule="evenodd"/></svg>