<svg xmlns="http://www.w3.org/2000/svg" width="648" height="648" viewBox="0 0 648 648"><title>AdobeMediaOptimizer_18</title><path d="M470.075 161.19l-7.83-5.94-116.1 127.17.81-128.25-16.2-3.24c-37.26.27-81.54 19.17-107.46 43.2l-46.44-44.28-6.48 7.02c-41.31 36.18-60.21 95.58-60.75 151.2-.27 55.35 30.24 105.3 67.77 144.72l5.4 5.4 142.56-131.76 1.08 116.64 11.61.54c37.26 0 47.25-7.56 73.17-29.16L459 479.79l22.95-22.95c78.845-75.6 76.145-218.16-11.875-295.65zm-143.64 11.88l-1.89 116.64-112.86-2.97c-1.62-75.06 54.27-108.27 114.75-113.67zm-144.18 2.43l36.99 27c-25.11 26.73-27.54 51.57-27.81 91.53v14.31l125.55.54-130.41 122.31c-72.36-78.3-67.5-198.45-4.32-255.69zm166.32 245.43l1.08-111.24 87.48.81c-4.05 63.45-27 105.03-88.56 110.43zm114.48 26.73L426.875 405c25.38-27.27 35.91-68.04 35.64-109.08l-2.43-9.18-98.82 1.89 102.87-109.89c70.74 78.03 77.76 192.78-1.08 268.92z" fill-rule="evenodd"/><path d="M324.007 11.611C153.094 11.611 14.851 151.47 14.851 324s138.243 312.389 309.156 312.389S633.149 496.53 633.149 324 494.919 11.611 324.007 11.611zm0 590.22C172.54 601.83 49.142 477.09 49.142 324S172.54 46.17 324.007 46.17 598.871 170.91 598.871 324 475.473 601.83 324.007 601.83z" fill-rule="evenodd"/></svg>