<svg xmlns="http://www.w3.org/2000/svg" width="648" height="648" viewBox="0 0 648 648"><title>AdobeConnect_18</title><path d="M206.193 206.185V75.276H75.284v130.909h130.909zm366.545 0V75.276H441.829v130.909h130.909zM441.829 441.821V572.73h130.909V441.821H441.829z" fill-rule="evenodd"/><path d="M612 230.01V49.091A13.082 13.082 0 0 0 598.9 36H429.785a13.07 13.07 0 0 0-11.461 6.774L245.461 356.645V49.091A13.094 13.094 0 0 0 232.365 36H49.1A13.082 13.082 0 0 0 36 49.091v181.176a13.083 13.083 0 0 0 3.727 9.154L194.52 397.742 36 402.546V612h216V456.35l173.074 152.389a13.062 13.062 0 0 0 8.649 3.261H598.9a13.084 13.084 0 0 0 13.1-13.091V415.635a13.082 13.082 0 0 0-13.1-13.089H295.172l309.762-160.915A13.061 13.061 0 0 0 612 230.01zM62.191 62.18H219.27v323.438L62.191 224.936V62.18zm523.618 366.546v157.091H438.645L260.227 428.726h325.582zm0-206.666L254.742 394.044 437.52 62.18h148.289v159.88z" fill-rule="evenodd"/></svg>