<svg xmlns="http://www.w3.org/2000/svg" width="648" height="648" viewBox="0 0 648 648"><title>AdobeCampaign_18</title><path d="M345.6 371.52c-8.64 0-39.69-4.86-46.71-8.64l-.27 48.6c7.29 2.43 30.78 4.32 47.79 3.78 59.94-1.35 74.25-49.95 74.25-93.15l-.27-159.57c-8.1-3.24-32.13-9.45-40.5-11.61l.81 168.21c0 29.7-8.64 52.38-35.1 52.38zm-42.66-98.82c22.14 0 41.04 7.02 48.06 11.07l1.08-45.36c-7.56-2.43-31.05-8.91-51.57-8.91-52.11 0-81 47.25-81 86.94l-.27 164.7c8.1 2.97 41.04 6.21 49.41 8.1l-1.62-172.53c0-26.46 9.45-44.01 35.91-44.01zm157.14 45.36c1.08 81.54-33.21 132.84-113.94 132.84-8.1 0-39.69-2.97-47.52-4.05l-.27 22.41c7.56 1.35 27 5.13 47.25 5.13 86.94 0 141.48-59.94 139.59-152.82l-.54-120.96c-3.51-3.51-21.33-6.75-25.11-9.99zm-297 112.59c3.51 3.24 19.17 9.72 22.95 12.96V314.82c0-80.46 34.02-113.4 109.89-113.4 17.82 0 46.71 5.67 54.27 7.02v-22.41c-7.56-1.08-28.08-8.64-51.84-8.64-85.86 0-136.35 43.47-135 134.19z"/><path d="M324 13.5c-170.912 0-309.155 139.86-309.155 312.39S153.088 638.28 324 638.28s309.155-139.86 309.155-312.39S494.912 13.5 324 13.5zm0 590.22c-151.466 0-274.865-124.74-274.865-277.829S172.534 48.059 324 48.059 598.865 172.8 598.865 325.89 475.466 603.72 324 603.72z" fill-rule="evenodd"/></svg>