<svg xmlns="http://www.w3.org/2000/svg" width="648" height="648" viewBox="0 0 648 648"><title>AdobePrimetime_18</title><path d="M324.007 11.611C153.094 11.611 14.851 151.47 14.851 324s138.243 312.389 309.156 312.389S633.149 496.53 633.149 324 494.919 11.611 324.007 11.611zm0 590.22C172.54 601.83 49.142 477.09 49.142 324S172.54 46.17 324.007 46.17 598.871 170.91 598.871 324 475.473 601.83 324.007 601.83z" fill-rule="evenodd"/><path d="M272.435 429.3a3.2 3.2 0 0 1 1.35-2.43l123.93-61.29 3.78-1.08c1.89-.81 2.97.54 2.97 2.16v126.09c0 1.62-1.35 2.97-2.7 2.43l-2.97-.81L273.785 432a2.7 2.7 0 0 1-1.35-2.7zM510.3 204.93L364.775 116.1c-6.21-3.24-11.88-3.24-18.09.54a19.952 19.952 0 0 0-9.72 17.28l-.27 32.67-58.595-28.35c-3.24-1.89-8.37-2.43-11.88-2.7-.54 0-1.08.27-1.62.27h-.81c-.54 0 .54-.27 0-.27-12.96 1.35-20.79 10.8-20.79 24.03l.54 122.31c0 14.04 27.81 25.38 41.85 25.38 5.13 0 7.02-1.62 9.99-3.24l117.18-63.99c8.37-4.59 13.5-8.1 13.5-17.28-.27-9.45-3.78-17.82-12.15-22.41l-67.23-31.32-.81-35.1a11.052 11.052 0 0 1 5.67-9.18c2.97-1.89 5.4-1.89 8.64-.27l145.53 88.83a10.486 10.486 0 0 1 0 18.63l-167.13 91.26-167.13 88.29a20 20 0 0 0-.27 35.37l143.1 99.36a18.266 18.266 0 0 0 9.72 2.7c3.51 0 8.64-1.08 11.61-2.97a19.394 19.394 0 0 0 9.72-17.28l1.35-35.91 51.3 19.17a19.99 19.99 0 0 0 9.99 2.7c12.15 0 22.68-9.72 22.68-21.87V366.66c0-11.07-8.37-19.71-19.17-21.33l-4.59-.54h-1.08c-.81 0-1.62.54-2.43.54-2.16.54-4.59.54-6.75 1.89l-131.76 62.91a22.114 22.114 0 0 0-11.88 19.17c0 8.1 6.21 15.39 13.5 19.17l71.28 39.15-1.62 41.04a10.532 10.532 0 0 1-5.13 9.18 13.727 13.727 0 0 1-12.15 0l-143.1-99.36a10.784 10.784 0 0 1-5.4-9.18 10.6 10.6 0 0 1 5.67-9.45l167.13-88.29 167.4-91.26a20.02 20.02 0 0 0 10.53-17.55c-.265-7.56-4.045-14.31-10.8-17.82z" fill-rule="evenodd"/></svg>