<svg id="AlertCheck_18" xmlns="http://www.w3.org/2000/svg" width="648" height="648" viewBox="0 0 648 648"><defs><style/></defs><title>AlertCheck_18</title><path d="M264.6 486.005a222.271 222.271 0 0 1 3.946-41H248.1a7.3 7.3 0 0 1-7.3-7.3v-43.8a7.3 7.3 0 0 1 7.3-7.3h40.263a221.751 221.751 0 0 1 124.363-109.327L282.744 44.676a14.6 14.6 0 0 0-25.488 0l-244.2 437A14.6 14.6 0 0 0 25.8 503.4h239.678c-.448-5.758-.878-11.521-.878-17.395zm-23.8-311.084a7.3 7.3 0 0 1 7.3-7.3h43.8a7.3 7.3 0 0 1 7.3 7.3v175.19a7.3 7.3 0 0 1-7.3 7.3h-43.8a7.3 7.3 0 0 1-7.3-7.3v-175.19z"/><path d="M486 325.807a160.2 160.2 0 1 0 160.2 160.2 160.2 160.2 0 0 0-160.2-160.2zm-42.083 257.616l-74.3-74.3a9 9 0 0 1 0-12.728l18.656-18.656a9 9 0 0 1 12.728 0l49.165 49.161 109.908-109.905a9 9 0 0 1 12.728 0l18.77 18.77a9 9 0 0 1 0 12.728l-134.927 134.93a9 9 0 0 1-12.728 0z"/></svg>