<svg xmlns="http://www.w3.org/2000/svg" data-name="S_Alert_18_N@2x" height="36" id="S_Alert_18_N_2x" viewBox="0 0 36 36" width="36"><defs><style>.fill{fill:#707070}</style></defs><title>S_Alert_18_N@2x</title><path class="fill" d="M17.127 2.579L.4 32.512A1 1 0 0 0 1.272 34h33.456a1 1 0 0 0 .873-1.488L18.873 2.579a1 1 0 0 0-1.746 0zM20 29.5a.5.5 0 0 1-.5.5h-3a.5.5 0 0 1-.5-.5v-3a.5.5 0 0 1 .5-.5h3a.5.5 0 0 1 .5.5zm0-6a.5.5 0 0 1-.5.5h-3a.5.5 0 0 1-.5-.5v-12a.5.5 0 0 1 .5-.5h3a.5.5 0 0 1 .5.5z"/></svg>