<svg xmlns="http://www.w3.org/2000/svg" width="648" height="648" viewBox="0 0 648 648"><title>AmazonWebServices_18</title><path d="M360 548.8l-72 36V504l72-36v80.8zM180 468l72 36v80.8l-72-36V468zM359.774 439.274L270 482.127l-88.871-42.6a2.88 2.88 0 0 1 0-5.2l89.774-42.853 88.871 42.6a2.88 2.88 0 0 1 0 5.2zM468 368.8l-72 36V324l72-36v80.8zM288 288l72 36v80.8l-72-36V288zM467.774 259.274L378 302.127l-88.871-42.6a2.88 2.88 0 0 1 0-5.2l89.774-42.853 88.871 42.6a2.88 2.88 0 0 1 0 5.2zM252 368.8l-72 36V324l72-36v80.8zM72 288l72 36v80.8l-72-36V288zM251.774 259.274L162 302.127l-88.871-42.6a2.88 2.88 0 0 1 0-5.2l89.774-42.853 88.871 42.6a2.88 2.88 0 0 1 0 5.2zM576 188.8l-72 36V144l72-36v80.8zM396 108l72 36v80.8l-72-36V108zM575.774 79.274L486 122.127l-88.871-42.6a2.88 2.88 0 0 1 0-5.2l89.774-42.853 88.871 42.6a2.88 2.88 0 0 1 0 5.2z"/></svg>