<svg xmlns="http://www.w3.org/2000/svg" width="648" height="648" viewBox="0 0 648 648"><title>Answer_18</title><path d="M594 36H54a18 18 0 0 0-18 18v432a18 18 0 0 0 18 18h198l63.642 123.108a9 9 0 0 0 16.717 0L396 504h198a18 18 0 0 0 18-18V54a18 18 0 0 0-18-18zm-314.391 64.354c0-2.21 0-4.4 3.4-6.056 8.882-3.85 30.712-6.592 40.913-6.592 13.656 0 34.777 2.188 41.611 4.935a6.605 6.605 0 0 1 4.076 6.056v39.6c0 46.2-11.574 165.894-13.612 182.391 0 1.657-.708 3.313-4.774 3.313h-54.558c-2.736 0-4.109-1.107-4.774-3.313-1.362-15.39-12.283-134.543-12.283-180.738v-39.596zm44.369 344.767c-29.024 0-48.578-18.588-48.578-47.895 0-28.587 20.245-49.305 48.578-49.305 29.035 0 48.622 20 48.622 49.305 0 30.026-20.288 47.895-48.622 47.895z"/></svg>