<svg xmlns="http://www.w3.org/2000/svg" width="648" height="648" viewBox="0 0 648 648"><title>AnswerFavorite_18</title><path d="M435.868 423.031l41.619-85.265a9 9 0 0 1 16.141-.07l42.362 84.9 93.953 13.234A9 9 0 0 1 635 451.157l-67.655 66.523 16.447 93.444a9 9 0 0 1-13.017 9.545L486.6 576.884 402.814 621.4a9 9 0 0 1-13.1-9.43l15.631-93.584-68.231-65.93a9 9 0 0 1 4.921-15.373z"/><path d="M594 36H54a18 18 0 0 0-18 18v432a18 18 0 0 0 18 18h198l63.642 123.108a9 9 0 0 0 16.717 0l.114-.237.976-5.81 13.956-83.561-87.161-84.217c-20.47-19.784-10.617-53.451 15.943-60.372 2.057-26.174 21.006-44.987 47.795-44.987 22.219 0 38.716 11.839 45.316 30.476l30.5-4.566 53.165-108.918c13.087-26.815 51.249-26.978 64.564-.281l54.114 108.453L612 378.765V54a18 18 0 0 0-18-18zM369.606 138.3c0 46.2-11.575 165.894-13.614 182.391 0 1.657-.7 3.313-4.764 3.313h-54.562c-2.733 0-4.113-1.107-4.772-3.313-1.362-15.39-12.287-134.543-12.287-180.738v-39.599c0-2.21 0-4.4 3.4-6.056 8.886-3.85 30.709-6.592 40.913-6.592 13.658 0 34.778 2.188 41.616 4.935a6.6 6.6 0 0 1 4.069 6.056v39.6z"/></svg>