<svg xmlns="http://www.w3.org/2000/svg" width="648" height="648" viewBox="0 0 648 648"><title>App_18</title><path d="M576 36H72a36 36 0 0 0-36 36v504a36 36 0 0 0 36 36h504a36 36 0 0 0 36-36V72a36 36 0 0 0-36-36zM324 543.6c-121.282 0-219.6-98.318-219.6-219.6S202.718 104.4 324 104.4 543.6 202.718 543.6 324 445.282 543.6 324 543.6z"/><path d="M280.636 368.709l-19.8 59.8c-.777 2.718-2.329 3.494-4.659 3.494h-46.598c-3.106 0-3.883-1.553-3.106-4.271 20.579-58.244 53.584-153.763 78.046-220.937 1.553-3.883 3.106-8.93 3.883-24.074A2.453 2.453 0 0 1 291.12 180h62.515a2.909 2.909 0 0 1 3.106 1.941c28.345 78.046 59.408 166.965 88.142 246.176 1.165 2.718.388 3.883-2.33 3.883H391.3c-2.33 0-3.106-.777-3.883-2.718l-21.744-60.573h-85.037zm73-44.265c-7.766-26.4-23.3-70.669-31.063-98.626h-.388c-5.824 26.4-19.8 67.174-29.9 98.626h61.35z"/></svg>