<svg xmlns="http://www.w3.org/2000/svg" width="648" height="648" viewBox="0 0 648 648"><title>ArchiveRemove_18</title><rect y="36" width="576" height="108" rx="18" ry="18"/><path d="M486 325.8A160.2 160.2 0 1 0 646.2 486 160.2 160.2 0 0 0 486 325.8zM576 495a9 9 0 0 1-9 9H405a9 9 0 0 1-9-9v-18a9 9 0 0 1 9-9h162a9 9 0 0 1 9 9v18z"/><path d="M304.066 360H198a18 18 0 0 1-18-18v-72a18 18 0 0 1 18-18h180a18 18 0 0 1 18 18v13.834a218.08 218.08 0 0 1 144-12.322V180H36v270a18 18 0 0 0 18 18h211.509a219.974 219.974 0 0 1 38.557-108z"/></svg>