<svg xmlns="http://www.w3.org/2000/svg" data-name="S_AssetsPublished_18_N@2x" height="36" id="S_AssetsPublished_18_N_2x" viewBox="0 0 36 36" width="36"><defs><style>.fill{fill:#707070}</style></defs><title>S_AssetsPublished_18_N@2x</title><path class="fill" d="M19.237 26.8l9.084 5.063a.819.819 0 0 0 1.1-.366l6.485-16.146zM16.083 27.763V35.2a.5.5 0 0 0 .824.381l5.32-4.525zM7.662 24H4V4h28v7.8l1.96-.611H34V3a1 1 0 0 0-1-1H3a1 1 0 0 0-1 1v22a1 1 0 0 0 1 1h8.667z"/><path class="fill" d="M34.791 13.535L9.078 21.444a.409.409 0 0 0-.066.759l7.114 3.479z"/></svg>