<svg xmlns="http://www.w3.org/2000/svg" data-name="S_AssetsAdded_18_N@2x" height="36" id="S_AssetsAdded_18_N_2x" viewBox="0 0 36 36" width="36"><defs><style>.fill{fill:#707070}</style></defs><title>S_AssetsAdded_18_N@2x</title><path class="fill" d="M12 24H4V4h28v11.624a12.045 12.045 0 0 1 2 1.458V3a1 1 0 0 0-1-1H3a1 1 0 0 0-1 1v22a1 1 0 0 0 1 1h11a11.975 11.975 0 0 1 .181-2z"/><path class="fill" d="M26 16a10 10 0 1 0 10 10 10 10 0 0 0-10-10zm6 11.5a.5.5 0 0 1-.5.5H28v3.5a.5.5 0 0 1-.5.5h-3a.5.5 0 0 1-.5-.5V28h-3.5a.5.5 0 0 1-.5-.5v-3a.5.5 0 0 1 .5-.5H24v-3.5a.5.5 0 0 1 .5-.5h3a.5.5 0 0 1 .5.5V24h3.5a.5.5 0 0 1 .5.5z"/></svg>