<svg xmlns="http://www.w3.org/2000/svg" width="648" height="648" viewBox="0 0 648 648"><title>AssetCheck_18</title><circle cx="327.4" cy="109.801" r="32.5"/><path d="M180 183.577c-13.2-14.194-26.029-24.724-37.819-24.724C108.976 158.854 36 259.427 36 259.427V36h396v108h36V18a18 18 0 0 0-18-18H18A18 18 0 0 0 0 18v324a18 18 0 0 0 18 18h162V183.577z"/><path d="M271.055 540H261a9 9 0 0 1-9-9v-54a9 9 0 0 1 9-9h4.605a219.416 219.416 0 0 1 11.865-54H261a9 9 0 0 1-9-9v-54a9 9 0 0 1 9-9h18a9 9 0 0 1 9 9v38.16c36.3-72.705 111.217-122.76 198-122.76a221.085 221.085 0 0 1 54 6.91V225a9 9 0 0 1 9-9h18a9 9 0 0 1 9 9v54a8.776 8.776 0 0 1-2.285 5.533A221.274 221.274 0 0 1 612 305.866V216a36 36 0 0 0-36-36H252a36 36 0 0 0-36 36v324a36 36 0 0 0 36 36h30.973a219.183 219.183 0 0 1-11.918-36zM252 225a9 9 0 0 1 9-9h18a9 9 0 0 1 9 9v54a9 9 0 0 1-9 9h-18a9 9 0 0 1-9-9v-54z" fill-rule="evenodd"/><path d="M486 325.8A160.2 160.2 0 1 0 646.2 486 160.2 160.2 0 0 0 486 325.8zm-42.083 257.619l-74.3-74.3a9 9 0 0 1 0-12.728l18.656-18.656a9 9 0 0 1 12.728 0l49.166 49.165 109.907-109.909a9 9 0 0 1 12.728 0l18.77 18.77a9 9 0 0 1 0 12.728l-134.927 134.93a9 9 0 0 1-12.728 0z"/></svg>