<svg xmlns="http://www.w3.org/2000/svg" data-name="S_AssetsExpired_18_N@2x" height="36" id="S_AssetsExpired_18_N_2x" viewBox="0 0 36 36" width="36"><defs><style>.fill{fill:#707070}</style></defs><title>S_AssetsExpired_18_N@2x</title><path class="fill" d="M35.895 34.782l-11.18-20.007a.819.819 0 0 0-1.429 0L12.105 34.782A.819.819 0 0 0 12.82 36h22.36a.819.819 0 0 0 .715-1.218zm-10.527-1.974a.456.456 0 0 1-.456.456h-1.824a.456.456 0 0 1-.456-.456v-1.825a.456.456 0 0 1 .456-.456h1.824a.456.456 0 0 1 .456.456zm0-4.56a.456.456 0 0 1-.456.456h-1.824a.456.456 0 0 1-.456-.456v-8.21a.456.456 0 0 1 .456-.456h1.824a.456.456 0 0 1 .456.456z"/><path class="fill" d="M12.968 26h1.754l1.117-2H4V4h28v19.712l1.25 2.237A.986.986 0 0 0 34 25V3a1 1 0 0 0-1-1H3a1 1 0 0 0-1 1v22a1 1 0 0 0 1 1h9.968z"/></svg>