<svg xmlns="http://www.w3.org/2000/svg" width="648" height="648" viewBox="0 0 648 648"><title>AttachmentExclude_18</title><path d="M283.852 396.65c-14.766-14.757-3.164-28.252 9.475-40.889 4.8-4.8 148.465-148.274 174.111-173.859a13.157 13.157 0 0 0 .246-18.371L455.537 150.6a13.216 13.216 0 0 0-19-.264L257.344 330.188c-18.281 18.275-41.1 58.625-1.283 98.438a69.67 69.67 0 0 0 14.01 10.784 219.062 219.062 0 0 1 14.168-42.445c-.124-.128-.247-.183-.387-.315z"/><path d="M282.709 575.455c-21.6 17.866-47.971 28.033-76.078 28.033h-1.916c-32.414-.516-63.281-13.783-86.871-37.349-49.254-49.276-50.08-125.653-1.9-173.894L435.973 71.833c15.979-15.976 36.018-25.425 56.408-26.611 20.865-1.6 39.34 4.632 54.879 20.145 15.363 15.385 23.572 35.789 20.039 55.3a103.05 103.05 0 0 1-28.512 53.978s-46.6 46.512-96.258 96.073a220.512 220.512 0 0 1 66.6-3.1l61.4-61.222c45.158-45.092 62.473-118.83 8.508-172.8C555.258 9.822 527.168 0 496.617 0c-32.59 0-65.725 13.421-92.391 40.085L85.676 358.174c-66.234 66.206-66.234 173.944 0 240.15 59.748 59.821 153.105 65.054 219.445 16.886a220.256 220.256 0 0 1-22.412-39.755z"/><path d="M486 325.8A160.2 160.2 0 1 0 646.2 486 160.2 160.2 0 0 0 486 325.8zM360 486c0-28.936 10.143-55.263 26.543-76.535l175.992 175.992C541.266 601.855 514.934 612 486 612a126 126 0 0 1-126-126zm225.457 76.535L409.465 386.543C430.734 370.145 457.066 360 486 360a126 126 0 0 1 126 126c0 28.936-10.143 55.263-26.543 76.535z"/></svg>