<svg xmlns="http://www.w3.org/2000/svg" width="648" height="648" viewBox="0 0 648 648"><title>BeakerCheck_18</title><path d="M486 325.8A160.2 160.2 0 1 0 646.2 486 160.2 160.2 0 0 0 486 325.8zm-42.083 257.619l-74.3-74.3a9 9 0 0 1 0-12.728l18.656-18.656a9 9 0 0 1 12.728 0l49.166 49.165 109.907-109.909a9 9 0 0 1 12.728 0l18.77 18.77a9 9 0 0 1 0 12.728l-134.927 134.93a9 9 0 0 1-12.728 0z"/><path d="M264.6 486a220.145 220.145 0 0 1 24.117-100.138L121.1 438.546 216 260.163V72h144v188.18l17.648 32.856a219.809 219.809 0 0 1 31.86-14.585L396 252V72h18a18 18 0 0 0 18-18V18a18 18 0 0 0-18-18H162a18 18 0 0 0-18 18v36a18 18 0 0 0 18 18h18v180L16.7 571.654C.448 607.408 26.587 648 65.865 648h269.578A220.545 220.545 0 0 1 264.6 486z"/></svg>