<svg xmlns="http://www.w3.org/2000/svg" width="648" height="648" viewBox="0 0 648 648"><title>BeakerShare_18</title><path d="M216 630V414a53.211 53.211 0 0 1 .554-5.456l-95.458 30L216 260.163V72h144v170.1l36-39.931V72h18a18 18 0 0 0 18-18V18a18 18 0 0 0-18-18H162a18 18 0 0 0-18 18v36a18 18 0 0 0 18 18h18v180L16.7 571.654C.448 607.408 26.587 648 65.865 648h153.448A53.478 53.478 0 0 1 216 630z"/><path d="M535 329.964L432 216 329.258 329.964a18 18 0 0 0 13.379 30.041H396v135a9 9 0 0 0 9 9h54a9 9 0 0 0 9-9v-135h53.618A18 18 0 0 0 535 329.964z"/><path d="M540 396v180H324V396h-54a18 18 0 0 0-18 18v216a18 18 0 0 0 18 18h324a18 18 0 0 0 18-18V414a18 18 0 0 0-18-18h-54z"/></svg>