<svg xmlns="http://www.w3.org/2000/svg" data-name="S_Bell_18_N@2x" height="36" id="S_Bell_18_N_2x" viewBox="0 0 36 36" width="36"><defs><style>.fill{fill:#707070}</style></defs><title>S_Bell_18_N@2x</title><path class="fill" d="M16 36a4.407 4.407 0 0 0 4-4h-8a4.407 4.407 0 0 0 4 4zM25.143 11.385c0-3.437-3.206-4.891-7.143-5.268V3a1.079 1.079 0 0 0-1.143-1h-1.714A1.079 1.079 0 0 0 14 3v3.117c-3.937.377-7.143 1.831-7.143 5.268C6.857 26.8 2 26.111 2 28.154V30h28v-1.846C30 26 25.143 26.8 25.143 11.385z"/></svg>