<svg xmlns="http://www.w3.org/2000/svg" width="648" height="648" viewBox="0 0 648 648"><title>BidRuleAdd_18</title><path d="M254.142 198.752l-20.074-20.077a14.2 14.2 0 0 1 0-20.077L374.6 18.068a14.2 14.2 0 0 1 20.077 0l20.077 20.074a14.2 14.2 0 0 1 0 20.077L274.219 198.752a14.2 14.2 0 0 1-20.077 0zM486 325.8A160.2 160.2 0 1 0 646.2 486 160.2 160.2 0 0 0 486 325.8zM576 495a9 9 0 0 1-9 9h-63v63a9 9 0 0 1-9 9h-18a9 9 0 0 1-9-9v-63h-63a9 9 0 0 1-9-9v-18a9 9 0 0 1 9-9h63v-63a9 9 0 0 1 9-9h18a9 9 0 0 1 9 9v63h63a9 9 0 0 1 9 9zM604.987 299.495l25.524-25.52a14.21 14.21 0 0 0 0-20.077l-20.077-20.074a14.2 14.2 0 0 0-20.081 0l-40.28 40.276a220.221 220.221 0 0 1 54.914 25.395zM486 264.6c1.739 0 3.409.22 5.141.259L540 216 432 108 324 216l69.188 69.192A220.19 220.19 0 0 1 486 264.6zM358.891 304.891L324 270 34.909 536.728a27 27 0 0 0 0 38.185l38.182 38.174a26.993 26.993 0 0 0 38.178 0l157.712-170.924a221.365 221.365 0 0 1 89.91-137.272z"/></svg>