<svg xmlns="http://www.w3.org/2000/svg" width="648" height="648" viewBox="0 0 648 648"><title>BidRule_18</title><path d="M432 324L324 216l108-108 55.898 55.898L540 216 432 324zM469.9 414.508l-20.076-20.078a14.2 14.2 0 0 1 0-20.077l140.53-140.53a14.2 14.2 0 0 1 20.077 0l20.077 20.077a14.2 14.2 0 0 1 0 20.077L489.974 414.508a14.2 14.2 0 0 1-20.074 0zM254.142 198.752l-20.074-20.077a14.2 14.2 0 0 1 0-20.077L374.6 18.068a14.2 14.2 0 0 1 20.077 0l20.077 20.074a14.2 14.2 0 0 1 0 20.077L274.219 198.752a14.2 14.2 0 0 1-20.077 0zM73.087 613.087l-38.174-38.174a27 27 0 0 1 0-38.185L324 270l54 54-266.728 289.087a27 27 0 0 1-38.185 0zM612 540v-18a18 18 0 0 0-18-18H414a18 18 0 0 0-18 18v18h-27a9 9 0 0 0-9 9v54a9 9 0 0 0 9 9h270a9 9 0 0 0 9-9v-54a9 9 0 0 0-9-9z"/></svg>