<svg xmlns="http://www.w3.org/2000/svg" width="648" height="648" viewBox="0 0 648 648"><title>Blackberry_18</title><path d="M154.316 108H67.332L43.914 215.056h93.674c36.8-.669 66.91-20.742 71.594-53.528C213.491 131.362 183.878 108 154.316 108zM375.119 108h-86.983l-23.419 107.056h93.674c36.8-.669 66.91-20.742 71.594-53.528C434.294 131.362 404.681 108 375.119 108zM120.86 270H33.877L10.459 377.056h93.674c36.8-.669 66.91-20.742 71.594-53.528C180.036 293.362 150.423 270 120.86 270zM341.664 270h-86.983l-23.419 107.056h93.674c36.8-.669 66.91-20.742 71.594-53.528C400.839 293.362 371.226 270 341.664 270zM575.849 216h-86.983l-23.419 107.056h93.674c36.8-.669 66.91-20.742 71.594-53.528 4.31-30.166-25.304-53.528-54.866-53.528zM542.394 378h-86.983l-23.419 107.056h93.674c36.8-.669 66.91-20.742 71.594-53.528C601.57 401.362 571.956 378 542.394 378zM308.209 432h-86.983l-23.419 107.056h93.674c36.8-.669 66.91-20.742 71.594-53.528C367.384 455.362 337.771 432 308.209 432z"/></svg>