<svg xmlns="http://www.w3.org/2000/svg" data-name="S_Blog_18_N@2x" height="36" id="S_Blog_18_N_2x" viewBox="0 0 36 36" width="36"><defs><style>.fill{fill:#707070}</style></defs><title>S_Blog_18_N@2x</title><path class="fill" d="M10 2v4.5h4.5a15 15 0 0 1 15 15V26H34v-4.5A19.5 19.5 0 0 0 14.5 2z"/><path class="fill" d="M21.636 23.091V26H26v-2.909A13.091 13.091 0 0 0 12.909 10H10v4.364h2.909a8.727 8.727 0 0 1 8.727 8.727z"/><path class="fill" d="M10.381 17.238c-.129 0-.254.015-.381.023V21.7a3.618 3.618 0 0 1 .381-.038 3.962 3.962 0 0 1 0 7.924c-2.188 0-3.886-1.49-3.886-4.993V10H2v15.619a8.381 8.381 0 1 0 8.381-8.381z"/></svg>