<svg xmlns="http://www.w3.org/2000/svg" data-name="S_Bookmark_18_N@2x" height="36" id="S_Bookmark_18_N_2x" viewBox="0 0 36 36" width="36"><defs><style>.fill{fill:#707070}</style></defs><title>S_Bookmark_18_N@2x</title><path class="fill" d="M15.071 34.724L13 31.373l-2.071 3.351a.5.5 0 0 1-.929-.257V24h6v10.467a.5.5 0 0 1-.929.257z"/><path class="fill" d="M8 27.443A3.986 3.986 0 0 1 10 20h10.518a1 1 0 0 0 .8-.4l11.1-14.8a.5.5 0 0 0-.4-.8H16.025a1 1 0 0 0-.8.4L3.522 19.328h.008A7.942 7.942 0 0 0 8 31.716zM32.018 16h-3.236l-9 12H18v4h2.518a1 1 0 0 0 .8-.4l11.1-14.8a.5.5 0 0 0-.4-.8z"/></svg>