<svg xmlns="http://www.w3.org/2000/svg" data-name="S_Box_18_N@2x" height="36" id="S_Box_18_N_2x" viewBox="0 0 36 36" width="36"><defs><style>.fill{fill:#707070}</style></defs><title>S_Box_18_N@2x</title><path class="fill" d="M16.4 35.594L2.823 28.051A1.6 1.6 0 0 1 2 26.652V13.194l14.4 8zM33.177 28.051L19.6 35.594v-14.4l14.4-8v13.458a1.6 1.6 0 0 1-.823 1.399zM24.637 3.717L18.762.535a1.6 1.6 0 0 0-1.524 0L2.592 8.468a.825.825 0 0 0 0 1.45l5.529 2.995zM33.408 8.468L27.97 5.523l-16.516 9.2L18 18.265l15.408-8.346a.825.825 0 0 0 0-1.451z"/></svg>