<svg xmlns="http://www.w3.org/2000/svg" width="648" height="648" viewBox="0 0 648 648"><title>BoxExport_18</title><path d="M383.126 75.531L282.99 21.292a27.276 27.276 0 0 0-25.981 0L7.361 156.519a14.057 14.057 0 0 0 0 24.719l94.249 51.05zM532.639 156.519l-92.691-50.209-281.516 156.756L270 323.5l262.639-142.262a14.057 14.057 0 0 0 0-24.719zM252 377.481l-252-140v242.257a28.811 28.811 0 0 0 14.818 25.176L252 636.682v-259.2zM504 432v-59.911a9 9 0 0 1 15.59-6.13L648 504 519.59 642.041a9 9 0 0 1-15.59-6.13V576h-90a18 18 0 0 1-18-18V450a18 18 0 0 1 18-18h90z"/><path d="M486 324h54v-86.517l-252 140v259.2l72-40V414a18 18 0 0 1 18-18h90v-54a18 18 0 0 1 18-18z"/></svg>