<svg xmlns="http://www.w3.org/2000/svg" width="648" height="648" viewBox="0 0 648 648"><title>BoxImport_18</title><path d="M491.126 75.531L390.99 21.292a27.276 27.276 0 0 0-25.981 0L115.361 156.519a14.057 14.057 0 0 0 0 24.719l94.249 51.05zM640.639 156.519l-92.691-50.209-281.516 156.756L378 323.5l262.639-142.262a14.057 14.057 0 0 0 0-24.719zM396 377.481v259.2l237.182-131.767A28.811 28.811 0 0 0 648 479.738V237.483zM108 237.483v47.957l209.637 209.637a9 9 0 0 1 0 12.729l-67.711 67.72L360 636.682v-259.2z"/><path d="M108 432v-59.911a9 9 0 0 1 15.59-6.13L252 504 123.59 642.041a9 9 0 0 1-15.59-6.13V576H18a18 18 0 0 1-18-18V450a18 18 0 0 1 18-18h90z"/></svg>