<svg xmlns="http://www.w3.org/2000/svg" width="648" height="648" viewBox="0 0 648 648"><title>Brackets_18</title><path d="M231.917 554.114a13.091 13.091 0 0 0-13.091-13.091h-26.5c-7.2 0-13.091-5.4-13.091-12.011V389.455c0-30.653-50.663-65.728-50.663-65.728s50.663-33.982 50.663-65.181V118.237c0-6.521 5.759-11.808 12.867-11.808h26.725a13.091 13.091 0 0 0 13.091-13.091V49.091A13.091 13.091 0 0 0 218.826 36h-12.561c-58.036 0-98.258 47.178-97.978 105.213.244 50.523.48 103.541.48 119.547 0 21.433-28.24 41.491-48.17 52.98-8.156 4.7-8.227 15.434-.128 20.208 19.943 11.755 48.3 32.1 48.3 52.744v120.58c0 57.839 40.14 104.727 97.979 104.727h12.081a13.091 13.091 0 0 0 13.091-13.091v-44.8zM416 554.114a13.091 13.091 0 0 1 13.091-13.091h26.5c7.2 0 13.091-5.4 13.091-12.011V389.455c0-30.653 50.663-65.728 50.663-65.728s-50.663-33.982-50.663-65.181V118.237c0-6.521-5.759-11.808-12.867-11.808h-26.728A13.091 13.091 0 0 1 416 93.338V49.091A13.091 13.091 0 0 1 429.087 36h12.562c58.036 0 98.2 47.178 97.919 105.213-.244 50.523-.48 103.541-.48 119.547 0 21.433 28.24 41.491 48.17 52.98 8.156 4.7 8.227 15.434.128 20.208-19.943 11.755-48.3 32.1-48.3 52.744v120.58c0 57.839-40.081 104.727-97.92 104.727h-12.079A13.091 13.091 0 0 1 416 598.909v-44.8z"/></svg>