<svg xmlns="http://www.w3.org/2000/svg" width="648" height="648" viewBox="0 0 648 648"><title>Branch-Circle_18</title><circle cx="432" cy="432" r="36"/><circle cx="432" cy="216" r="36"/><path d="M324 35.991c-159.056 0-288 128.944-288 288s128.944 288 288 288 288-128.944 288-288-128.944-288-288-288zM255.6 324a75.506 75.506 0 0 1-1.239 12.287l117.492 50.361a79.656 79.656 0 1 1-14.221 33.073l-117.5-50.361a75.6 75.6 0 1 1 0-90.721l117.5-50.353a75.93 75.93 0 1 1 14.229 33.073l-117.5 50.353A75.506 75.506 0 0 1 255.6 324z"/></svg>