<svg xmlns="http://www.w3.org/2000/svg" width="648" height="648" viewBox="0 0 648 648"><title>Branch3_18</title><path d="M252 504c0-33.539-15.618-63.141-39.612-82.951l87.618-171.932h.018a101.149 101.149 0 0 0 47.953 0h.018l87.618 171.932C411.618 440.859 396 470.461 396 504a108.382 108.382 0 1 0 87.144-105.9l-88.265-173.205a108.172 108.172 0 0 0 15.236-16.339c.035-.053.079-.1.114-.141a107.517 107.517 0 0 0 10.793-17.8c.325-.659.738-1.257 1.046-1.916a107.374 107.374 0 0 0 6.17-17.895c.343-1.318.905-2.531 1.2-3.858a108 108 0 1 0-210.876 0c.294 1.327.857 2.54 1.2 3.858a107.374 107.374 0 0 0 6.17 17.895c.308.659.721 1.257 1.046 1.916a107.517 107.517 0 0 0 10.793 17.8c.035.044.079.088.114.141a108.172 108.172 0 0 0 15.236 16.339L164.856 398.1A107.963 107.963 0 1 0 252 504zm306 0a54 54 0 1 1-54-54 54 54 0 0 1 54 54zm-468 0a54 54 0 1 1 54 54 54 54 0 0 1-54-54z"/></svg>