<svg xmlns="http://www.w3.org/2000/svg" width="648" height="648" viewBox="0 0 648 648"><title>Branch2_18</title><path d="M504 396c-33.539 0-63.141 15.618-82.951 39.612l-171.932-87.618v-.013a101.167 101.167 0 0 0 0-47.958v-.018l171.932-87.618C440.859 236.382 470.461 252 504 252a108.382 108.382 0 1 0-105.9-87.144l-173.205 88.265a108.172 108.172 0 0 0-16.339-15.236c-.053-.035-.1-.079-.141-.114a107.517 107.517 0 0 0-17.8-10.793c-.659-.325-1.257-.738-1.916-1.046a107.374 107.374 0 0 0-17.895-6.17c-1.318-.343-2.531-.905-3.858-1.2a108 108 0 1 0 0 210.876c1.327-.294 2.54-.857 3.858-1.2a107.374 107.374 0 0 0 17.895-6.17c.659-.308 1.257-.721 1.916-1.046a107.517 107.517 0 0 0 17.8-10.793c.044-.035.088-.079.141-.114a108.172 108.172 0 0 0 16.339-15.236L398.1 483.144A107.963 107.963 0 1 0 504 396zm0-306a54 54 0 1 1-54 54 54 54 0 0 1 54-54zm0 468a54 54 0 1 1 54-54 54 54 0 0 1-54 54z"/></svg>