<svg xmlns="http://www.w3.org/2000/svg" width="648" height="648" viewBox="0 0 648 648"><title>BreakdownAdd_18</title><path d="M271.512 540H180v-72h85.509a219.808 219.808 0 0 1 18.325-72H180v-72h155.443A219.017 219.017 0 0 1 540 271.51V270a18 18 0 0 0-18-18H180V144h342a18 18 0 0 0 18-18V54a18 18 0 0 0-18-18H18A18 18 0 0 0 0 54v72a18 18 0 0 0 18 18h90v450a18 18 0 0 0 18 18h178.066a220.034 220.034 0 0 1-32.554-72z"/><path d="M486 325.8A160.2 160.2 0 1 0 646.2 486 160.2 160.2 0 0 0 486 325.8zM576 495a9 9 0 0 1-9 9h-63v63a9 9 0 0 1-9 9h-18a9 9 0 0 1-9-9v-63h-63a9 9 0 0 1-9-9v-18a9 9 0 0 1 9-9h63v-63a9 9 0 0 1 9-9h18a9 9 0 0 1 9 9v63h63a9 9 0 0 1 9 9v18z"/></svg>