<svg xmlns="http://www.w3.org/2000/svg" width="648" height="648" viewBox="0 0 648 648"><title>Browse_18</title><path d="M631.569 363.06l.092-.016S525.7 140.97 511.95 104.625C498.827 69.951 481.9 37.5 444.825 37.5c-41.586 0-63.192 30.124-67.125 67.125-1.127 10.616-3.559 44.538-6.5 76.141h-94.46c-3.612-38.349-6.286-74.409-6.437-76.141-3.281-37.656-18.338-67.125-67.128-67.125-37.076 0-52.376 33.113-67.125 67.125C124.264 131.8 13.744 368.05 13.744 368.05l.262.043a147.666 147.666 0 1 0 283.144 58.732c0-4.531-.275-26.4-.675-30.825h55.05c-.4 4.428-.675 26.294-.675 30.825a147.675 147.675 0 1 0 280.719-63.765zM149.475 523.484a96.66 96.66 0 1 1 96.663-96.659 96.661 96.661 0 0 1-96.663 96.659zm349.05 0a96.66 96.66 0 1 1 96.663-96.659 96.661 96.661 0 0 1-96.663 96.659z"/></svg>