<svg xmlns="http://www.w3.org/2000/svg" width="648" height="648" viewBox="0 0 648 648"><title>Bug_18</title><path d="M471.5 130.354C438.546 85.85 391.223 54 324 54s-114.546 31.85-147.5 76.354A214.973 214.973 0 0 0 324 189a214.973 214.973 0 0 0 147.5-58.646zM93.88 115.058L45.859 139.07a325.782 325.782 0 0 0 82.457 92.043 495.655 495.655 0 0 0-18.2 92.887H0v54h108.817c3.27 37.036 19.538 78.113 45.055 114.542a271.19 271.19 0 0 0-81.04 110.874l48.608 24.3c13.685-37.183 37.646-69.178 67.928-93.6 30.29 29.034 67.237 50.469 107.632 57.333V242.987c-86.128-8.555-160.088-57.723-203.12-127.929zM648 378v-54H537.884a495.655 495.655 0 0 0-18.2-92.887 325.782 325.782 0 0 0 82.457-92.043l-48.021-24.012C511.088 185.264 437.128 234.432 351 242.987v348.462c40.395-6.864 77.342-28.3 107.631-57.331 30.289 24.423 54.244 56.418 67.928 93.6l48.608-24.3a271.19 271.19 0 0 0-81.04-110.874c25.517-36.43 41.785-77.506 45.055-114.542H648z"/></svg>