<svg xmlns="http://www.w3.org/2000/svg" width="648" height="648" viewBox="0 0 648 648"><title>Calculator_18</title><path d="M522 36H90a18 18 0 0 0-18 18v540a18 18 0 0 0 18 18h432a18 18 0 0 0 18-18V54a18 18 0 0 0-18-18zM180 531a9 9 0 0 1-9 9h-54a9 9 0 0 1-9-9v-54a9 9 0 0 1 9-9h54a9 9 0 0 1 9 9v54zm0-108a9 9 0 0 1-9 9h-54a9 9 0 0 1-9-9v-54a9 9 0 0 1 9-9h54a9 9 0 0 1 9 9v54zm0-108a9 9 0 0 1-9 9h-54a9 9 0 0 1-9-9v-54a9 9 0 0 1 9-9h54a9 9 0 0 1 9 9v54zm108 216a9 9 0 0 1-9 9h-54a9 9 0 0 1-9-9v-54a9 9 0 0 1 9-9h54a9 9 0 0 1 9 9v54zm0-108a9 9 0 0 1-9 9h-54a9 9 0 0 1-9-9v-54a9 9 0 0 1 9-9h54a9 9 0 0 1 9 9v54zm0-108a9 9 0 0 1-9 9h-54a9 9 0 0 1-9-9v-54a9 9 0 0 1 9-9h54a9 9 0 0 1 9 9v54zm108 216a9 9 0 0 1-9 9h-54a9 9 0 0 1-9-9v-54a9 9 0 0 1 9-9h54a9 9 0 0 1 9 9v54zm0-108a9 9 0 0 1-9 9h-54a9 9 0 0 1-9-9v-54a9 9 0 0 1 9-9h54a9 9 0 0 1 9 9v54zm0-108a9 9 0 0 1-9 9h-54a9 9 0 0 1-9-9v-54a9 9 0 0 1 9-9h54a9 9 0 0 1 9 9v54zm108 216a9 9 0 0 1-9 9h-54a9 9 0 0 1-9-9V369a9 9 0 0 1 9-9h54a9 9 0 0 1 9 9v162zm0-216a9 9 0 0 1-9 9h-54a9 9 0 0 1-9-9v-54a9 9 0 0 1 9-9h54a9 9 0 0 1 9 9v54zm0-144a9 9 0 0 1-9 9H117a9 9 0 0 1-9-9V81a9 9 0 0 1 9-9h378a9 9 0 0 1 9 9v90z"/></svg>