<svg xmlns="http://www.w3.org/2000/svg" data-name="S_Calendar_18_N@2x" height="36" id="S_Calendar_18_N_2x" viewBox="0 0 36 36" width="36"><defs><style>.fill{fill:#707070}</style></defs><title>S_Calendar_18_N@2x</title><path class="fill" d="M33 6h-5V3a1 1 0 0 0-1-1h-2a1 1 0 0 0-1 1v3H10V3a1 1 0 0 0-1-1H7a1 1 0 0 0-1 1v3H1a1 1 0 0 0-1 1v26a1 1 0 0 0 1 1h32a1 1 0 0 0 1-1V7a1 1 0 0 0-1-1zm-1 26H2V8h4v1a1 1 0 0 0 1 1h2a1 1 0 0 0 1-1V8h14v1a1 1 0 0 0 1 1h2a1 1 0 0 0 1-1V8h4z"/><path class="fill" d="M6 12h4v4H6zM12 12h4v4h-4zM18 12h4v4h-4zM24 12h4v4h-4zM6 18h4v4H6zM12 18h4v4h-4zM18 18h4v4h-4zM24 18h4v4h-4zM6 24h4v4H6zM12 24h4v4h-4zM18 24h4v4h-4zM24 24h4v4h-4z"/></svg>