<svg id="CalendarAdd_18" xmlns="http://www.w3.org/2000/svg" width="648" height="648" viewBox="0 0 648 648"><defs><style/></defs><title>CalendarAdd_18</title><path d="M108 216.005h72v72h-72zM216 216.005h72v72h-72zM324 216.005h72v72h-72zM108 324.005h72v72h-72zM216 324.005h72v72h-72zM108 432.005h72v72h-72zM264.6 486.005a221.007 221.007 0 0 1 6.913-54H216v72h49.509c-.484-5.952-.909-11.922-.909-18zM486 264.6c6.078 0 12.05.426 18 .907v-49.502h-72v55.51a221.113 221.113 0 0 1 54-6.915z"/><path d="M283.838 576.005H36v-432h72v18a18 18 0 0 0 18 18h36a18 18 0 0 0 18-18v-18h252v18a18 18 0 0 0 18 18h36a18 18 0 0 0 18-18v-18h72v139.839a220.725 220.725 0 0 1 36 20.228V126.005a18 18 0 0 0-18-18h-90v-54a18 18 0 0 0-18-18h-36a18 18 0 0 0-18 18v54H180v-54a18 18 0 0 0-18-18h-36a18 18 0 0 0-18 18v54H18a18 18 0 0 0-18 18v468a18 18 0 0 0 18 18h286.066a220.98 220.98 0 0 1-20.228-36z"/><path d="M486 325.8A160.2 160.2 0 1 0 646.2 486 160.2 160.2 0 0 0 486 325.8zM576 495a9 9 0 0 1-9 9h-63v63a9 9 0 0 1-9 9h-18a9 9 0 0 1-9-9v-63h-63a9 9 0 0 1-9-9v-18a9 9 0 0 1 9-9h63v-63a9 9 0 0 1 9-9h18a9 9 0 0 1 9 9v63h63a9 9 0 0 1 9 9v18z"/></svg>