<svg xmlns="http://www.w3.org/2000/svg" width="648" height="648" viewBox="0 0 648 648"><title>CallCenter_18</title><path d="M559.636 252h-26.181c0-119.293-93.778-216-209.455-216s-209.455 96.707-209.455 216H88.364C59.446 252 36 276.175 36 306v108c0 29.823 23.446 54 52.364 54h78.545V252H165.6c0-90.215 70.92-163.35 158.4-163.35S482.4 161.785 482.4 252h-1.31v204.084c-24.443 42.435-64.259 73.9-111.8 86.445C360.275 530.322 343.483 522 324 522c-28.918 0-52.364 18.132-52.364 40.5S295.082 603 324 603c25.881 0 47.244-14.558 51.469-33.646C430.76 554.9 477.128 517.7 505 468h54.639C588.554 468 612 443.823 612 414V306c0-29.825-23.446-54-52.364-54z"/></svg>