<svg xmlns="http://www.w3.org/2000/svg" width="648" height="648" viewBox="0 0 648 648"><title>CameraRefresh_18</title><path d="M284.476 483.524a222.166 222.166 0 0 1 9.457-51.027A147.593 147.593 0 0 1 324 140.4c80.543 0 145.767 64.569 147.313 144.751 4.869-.376 9.738-.754 14.687-.754 40.368 0 81.536 13.981 115.831 38.514L612 312.532V126a18 18 0 0 0-18-18H485.1l-60.342-66.129A18.02 18.02 0 0 0 411.46 36H236.54a18.02 18.02 0 0 0-13.3 5.867L162.9 108H54a18 18 0 0 0-18 18v360a18 18 0 0 0 18 18h229.192z"/><path d="M431.552 292.449c.062-1.51.448-2.929.448-4.454a108 108 0 0 0-216 0c0 54.6 40.869 99.389 93.542 106.539 25.998-49.328 69.829-86.561 122.01-102.085z"/><g><path d="M486 600.542c-34.088 0-63.143-13.37-84.924-37.782l41.076-41.16H325.8v116.589l44.57-44.654C399.442 625.81 440.587 646.2 486 646.2c85.176 0 154.594-70.755 160.2-160.2h-40.589C600.014 550.08 548.743 600.542 486 600.542zM602.734 378.461C573.627 347.276 530.378 325.8 486 325.8c-85.176 0-154.594 70.755-160.2 160.2h40.589c5.6-64.08 56.868-114.544 119.611-114.544 40.85 0 65.333 15.823 86.705 37.673L532.29 450.4H646.2V334.076z"/></g></svg>