<svg xmlns="http://www.w3.org/2000/svg" width="648" height="648" viewBox="0 0 648 648"><title>CampaignClose_18</title><path d="M76.094 365.6H0c18.3 127.411 118.918 228.062 246.39 246.345V535.9A216.113 216.113 0 0 1 76.094 365.6zM246.39 112.1V36.042C118.918 54.327 18.3 154.978 0 282.386h76.1A216.1 216.1 0 0 1 246.39 112.1zM499.9 282.386H576C557.7 154.978 457.082 54.327 329.61 36.042V112.1A216.1 216.1 0 0 1 499.9 282.386zM486 325.8A160.2 160.2 0 1 0 646.2 486 160.2 160.2 0 0 0 486 325.8zm104.862 220.8a9 9 0 0 1 0 12.727l-31.535 31.535a9 9 0 0 1-12.727 0l-60.6-60.6-60.6 60.6a9 9 0 0 1-12.727 0l-31.535-31.535a9 9 0 0 1 0-12.727l60.6-60.6-60.6-60.6a9 9 0 0 1 0-12.729l31.535-31.533a9 9 0 0 1 12.727 0l60.6 60.6 60.6-60.6a9 9 0 0 1 12.727 0l31.535 31.533a9 9 0 0 1 0 12.729l-60.6 60.6zM362.021 302.559c-9.352-32.245-38.76-55.964-74.021-55.964a77.4 77.4 0 0 0-77.4 77.4c0 40.575 31.324 73.483 71.051 76.761a222.178 222.178 0 0 1 80.37-98.197z"/></svg>