<svg id="Campaign_18" xmlns="http://www.w3.org/2000/svg" width="648" height="648" viewBox="0 0 648 648"><defs><style/></defs><title>Campaign_18</title><circle cx="324" cy="324" r="77.4"/><path d="M112.094 365.608H36C54.3 493.017 154.918 593.667 282.39 611.95v-76.04a216.113 216.113 0 0 1-170.296-170.302zM535.906 365.608a216.113 216.113 0 0 1-170.3 170.3v76.042C493.082 593.667 593.7 493.017 612 365.608h-76.094zM282.39 112.1V36.047C154.918 54.333 54.3 154.983 36 282.391h76.1A216.1 216.1 0 0 1 282.39 112.1zM535.9 282.391H612C593.7 154.983 493.082 54.333 365.61 36.047V112.1A216.1 216.1 0 0 1 535.9 282.391z"/></svg>