<svg xmlns="http://www.w3.org/2000/svg" width="648" height="648" viewBox="0 0 648 648"><title>CampaignAdd_18</title><path d="M112.094 365.6H36c18.3 127.411 118.918 228.062 246.39 246.345V535.9a216.113 216.113 0 0 1-170.296-170.3zM282.39 112.1V36.042C154.918 54.327 54.3 154.978 36 282.386h76.1A216.1 216.1 0 0 1 282.39 112.1zM535.9 282.386H612C593.7 154.978 493.082 54.327 365.61 36.042V112.1A216.1 216.1 0 0 1 535.9 282.386zM286.181 391.137a221.892 221.892 0 0 1 104.963-104.961c-13.28-23.517-38.21-39.582-67.144-39.582a77.4 77.4 0 0 0-77.4 77.4c0 28.935 16.061 53.863 39.581 67.143zM486 325.8A160.2 160.2 0 1 0 646.2 486 160.2 160.2 0 0 0 486 325.8zM576 495a9 9 0 0 1-9 9h-63v63a9 9 0 0 1-9 9h-18a9 9 0 0 1-9-9v-63h-63a9 9 0 0 1-9-9v-18a9 9 0 0 1 9-9h63v-63a9 9 0 0 1 9-9h18a9 9 0 0 1 9 9v63h63a9 9 0 0 1 9 9v18z"/></svg>