<svg xmlns="http://www.w3.org/2000/svg" width="648" height="648" viewBox="0 0 648 648"><title>CampaignEdit_18</title><circle cx="288" cy="323.995" r="77.4"/><path d="M76.094 365.6H0c18.3 127.411 118.918 228.062 246.39 246.345V535.9A216.113 216.113 0 0 1 76.094 365.6zM246.39 112.1V36.042C118.918 54.327 18.3 154.978 0 282.386h76.1A216.1 216.1 0 0 1 246.39 112.1zM499.9 282.386H576C557.7 154.978 457.082 54.327 329.61 36.042V112.1A216.1 216.1 0 0 1 499.9 282.386zM643.29 391.758l-63.105-63.105a13.3 13.3 0 0 0-9.484-3.865s-.281 0-.421.005a15.009 15.009 0 0 0-10.148 4.447l-183.4 183.4a10.918 10.918 0 0 0-2.749 4.609L326.094 636.6c-1.247 4.121 5.026 9.311 8.571 9.311a5.458 5.458 0 0 0 .671-.069c3.025-.7 103.6-43.145 119.417-47.9a10.739 10.739 0 0 0 4.535-2.726L642.7 411.808a15.044 15.044 0 0 0 4.426-9.669 13.374 13.374 0 0 0-3.836-10.381zM445.836 577.706c-23.652 7.109-70.706 33.524-91.141 39.623l39.473-91.161z"/></svg>