<svg xmlns="http://www.w3.org/2000/svg" data-name="S_Capitals_18_N@2x" height="36" id="S_Capitals_18_N_2x" viewBox="0 0 36 36" width="36"><defs><style>.fill{fill:#707070}</style></defs><title>S_Capitals_18_N@2x</title><path class="fill" d="M35.5 8H.5a.5.5 0 0 0-.5.5v3a.5.5 0 0 0 .5.5h1a.5.5 0 0 0 .5-.5V10h6v16H6.5a.5.5 0 0 0-.5.5v1a.5.5 0 0 0 .5.5h7a.5.5 0 0 0 .5-.5v-1a.5.5 0 0 0-.5-.5H12V10h4.966v1.473a.5.5 0 0 0 .5.5h1.085a.5.5 0 0 0 .5-.5V10H24v16h-1.5a.5.5 0 0 0-.5.5v1a.5.5 0 0 0 .5.5h7a.5.5 0 0 0 .5-.5v-1a.5.5 0 0 0-.5-.5H28V10h6v1.473a.5.5 0 0 0 .5.5h1a.5.5 0 0 0 .5-.5V8.5a.5.5 0 0 0-.5-.5z"/></svg>