<svg xmlns="http://www.w3.org/2000/svg" width="648" height="648" viewBox="0 0 648 648"><title>Channel_18</title><path d="M582.754 272.249a51.539 51.539 0 0 0-44.574 25.871h-81.79c-6.183-31.8-23.81-59.191-48.067-78.774l47.171-89.622a51.833 51.833 0 1 0-45.813-24.04l-47.145 89.574C350.249 191.579 337.487 189 324 189s-26.249 2.579-38.536 6.259l-47.144-89.574a51.728 51.728 0 1 0-45.813 24.04l47.171 89.622c-24.258 19.583-41.884 46.97-48.067 78.774h-81.792a51.749 51.749 0 1 0 0 51.759h81.791c6.183 31.8 23.81 59.191 48.067 78.774l-47.171 89.622a51.833 51.833 0 1 0 45.813 24.04l47.145-89.574C297.751 456.421 310.513 459 324 459s26.249-2.579 38.536-6.259l47.145 89.574a51.728 51.728 0 1 0 45.813-24.04l-47.171-89.622c24.258-19.583 41.884-46.97 48.067-78.774h81.791a51.661 51.661 0 1 0 44.573-77.63zM324 406.35A82.35 82.35 0 1 1 406.345 324 82.344 82.344 0 0 1 324 406.35z"/></svg>