<svg xmlns="http://www.w3.org/2000/svg" data-name="S_Chat_18_N@2x" height="36" id="S_Chat_18_N_2x" viewBox="0 0 36 36" width="36"><defs><style>.fill{fill:#707070}</style></defs><title>S_Chat_18_N@2x</title><path class="fill" d="M19 14a1 1 0 0 1 1 1v12a1 1 0 0 1-1 1H9.586a1 1 0 0 0-.707.293L6 31.171V29a1 1 0 0 0-1-1H3a1 1 0 0 1-1-1V15a1 1 0 0 1 1-1zM3 12a3 3 0 0 0-3 3v12a3 3 0 0 0 3 3h1v4.793a.5.5 0 0 0 .854.354L10 30h9a3 3 0 0 0 3-3V15a3 3 0 0 0-3-3z"/><path class="fill" d="M24 14.6a4.6 4.6 0 0 0-4.6-4.6H12V5a3 3 0 0 1 3-3h18a3 3 0 0 1 3 3v12a3 3 0 0 1-3 3h-3v4.793a.5.5 0 0 1-.854.354L24 20z"/></svg>