<svg id="Check-Circle_18" xmlns="http://www.w3.org/2000/svg" width="648" height="648" viewBox="0 0 648 648"><defs><style/></defs><title>Check-Circle_18</title><path d="M324 35.993c-159.056 0-288 128.942-288 288s128.944 288 288 288 288-128.944 288-288-128.944-288-288-288zm191.988 163.448v.018L288.316 492.135a21.75 21.75 0 0 1-15.75 8.3c-.422.035-.879.035-1.3.035a21.589 21.589 0 0 1-15.293-6.328L115.84 353.83a21.6 21.6 0 0 1 0-30.551l23.871-23.854a21.622 21.622 0 0 1 30.516 0l96.223 96.24 189.21-243.157a21.652 21.652 0 0 1 30.34-3.779l26.191 20.391a21.686 21.686 0 0 1 3.797 30.321z"/></svg>