<svg xmlns="http://www.w3.org/2000/svg" width="648" height="648" viewBox="0 0 648 648"><title>CheckPause_18</title><path d="M415.74 276.17l115.031-147.863a18.008 18.008 0 0 0-3.155-25.264l-26.191-20.391a18.006 18.006 0 0 0-25.269 3.148L230.8 401.1 111.146 282.078a17.993 17.993 0 0 0-25.453 0l-23.836 23.84a18.009 18.009 0 0 0-.009 25.466l160.665 160.208a18 18 0 0 0 26.938-1.668l15.987-20.551A221.283 221.283 0 0 1 415.74 276.17z"/><path d="M486 325.8A160.2 160.2 0 1 0 646.2 486 160.2 160.2 0 0 0 486 325.8zm-18 242.528h-47.373V403.672H468v164.656zm83.373 0H504V403.672h47.373v164.656z"/></svg>