<svg xmlns="http://www.w3.org/2000/svg" width="648" height="648" viewBox="0 0 648 648"><title>ChevronDoubleRight_18</title><path d="M318.547 349.452L126.9 541.066a36 36 0 0 1-50.91 0l-5.076-5.076a36.106 36.106 0 0 1 0-50.911l161.07-161.084L70.917 162.911a36.106 36.106 0 0 1 0-50.911l5.076-5.076a36 36 0 0 1 50.91 0l191.644 191.613a36 36 0 0 1 0 50.915z"/><path d="M570.547 349.452L378.9 541.066a36 36 0 0 1-50.91 0l-5.076-5.076a36.106 36.106 0 0 1 0-50.911l161.07-161.084-161.067-161.084a36.106 36.106 0 0 1 0-50.911l5.076-5.076a36 36 0 0 1 50.91 0l191.644 191.613a36 36 0 0 1 0 50.915z"/></svg>