<svg xmlns="http://www.w3.org/2000/svg" width="648" height="648" viewBox="0 0 648 648"><title>ChevronDoubleLeft_18</title><path d="M77.453 298.537L269.1 106.923a36 36 0 0 1 50.91 0l5.072 5.077a36.106 36.106 0 0 1 0 50.911L164.016 323.995l161.067 161.084a36.106 36.106 0 0 1 0 50.911l-5.076 5.076a36 36 0 0 1-50.91 0L77.453 349.452a36 36 0 0 1 0-50.915z"/><path d="M329.453 298.537L521.1 106.923a36 36 0 0 1 50.91 0l5.072 5.077a36.106 36.106 0 0 1 0 50.911L416.016 323.995l161.067 161.084a36.106 36.106 0 0 1 0 50.911l-5.076 5.076a36 36 0 0 1-50.91 0L329.453 349.452a36 36 0 0 1 0-50.915z"/></svg>