<svg xmlns="http://www.w3.org/2000/svg" width="648" height="648" viewBox="0 0 648 648"><title>Chrome_18</title><circle cx="324.353" cy="324.353" r="101.307"/><path d="M594.595 223.046H427.54a144.138 144.138 0 0 1 41.538 101.307c0 16.485-3.343 32.063-8.423 46.825l.509-.143-72.01 235.551C517.689 577.694 613.8 463.065 613.8 325.8a286.757 286.757 0 0 0-19.205-102.754z"/><path d="M182.236 350.22a143.347 143.347 0 0 1 142.117-170.592h249.282C523.519 94.841 431.426 37.8 325.8 37.8 190 37.8 76.463 131.9 46.07 258.372zM240.183 441.678L38.805 305.849c-.452 6.62-1 13.216-1 19.951 0 159.059 128.938 288 288 288 5.4 0 10.664-.514 15.985-.807l49.18-160.872c-20.02 10.471-42.456 16.956-66.617 16.956a143.639 143.639 0 0 1-84.17-27.399z"/></svg>