<svg id="ClockCheck_18" xmlns="http://www.w3.org/2000/svg" width="648" height="648" viewBox="0 0 648 648"><defs><style/></defs><title>ClockCheck_18</title><path d="M252 289.544V126a18 18 0 0 1 18-18h36a18 18 0 0 1 18 18v190.544a18 18 0 0 1-5.272 12.728L217.794 430.206a18 18 0 0 1-25.456 0l-24.044-24.044a18 18 0 0 1 0-25.456l78.434-78.434A18 18 0 0 0 252 289.544z"/><path d="M283.729 575.78C146.544 573.478 36 461.729 36 323.991c0-139.175 112.825-252 252-252 120.617 0 221.3 84.8 246.05 197.991a219.575 219.575 0 0 1 38.58 12.234C552.344 143.016 432.826 35.991 288 35.991c-159.056 0-288 128.944-288 288s128.944 288 288 288c5.225 0 10.318-.505 15.478-.782a221.13 221.13 0 0 1-19.749-35.429z"/><path d="M486 325.8A160.2 160.2 0 1 0 646.2 486 160.2 160.2 0 0 0 486 325.8zm-42.083 257.618l-74.3-74.3a9 9 0 0 1 0-12.728l18.656-18.656a9 9 0 0 1 12.728 0l49.166 49.166 109.907-109.911a9 9 0 0 1 12.728 0l18.77 18.77a9 9 0 0 1 0 12.728l-134.927 134.93a9 9 0 0 1-12.728.001z"/></svg>