<svg xmlns="http://www.w3.org/2000/svg" data-name="S_Clock_18_N@2x" height="36" id="S_Clock_18_N_2x" viewBox="0 0 36 36" width="36"><defs><style>.fill{fill:#707070}</style></defs><title>S_Clock_18_N@2x</title><path class="fill" d="M18 2a16 16 0 1 0 16 16A16 16 0 0 0 18 2zm0 30a14 14 0 1 1 14-14 14 14 0 0 1-14 14z"/><path class="fill" d="M20 16.086V7a1 1 0 0 0-1-1h-2a1 1 0 0 0-1 1v10.586a1 1 0 0 0 .293.707L21.9 23.9a1 1 0 0 0 1.414 0l1.336-1.336a1 1 0 0 0 0-1.414l-4.357-4.357a1 1 0 0 1-.293-.707z"/></svg>