<svg id="Close-Circle_18" xmlns="http://www.w3.org/2000/svg" width="648" height="648" viewBox="0 0 648 648"><defs><style/></defs><title>Close-Circle_18</title><path d="M527.647 120.346c-112.469-112.471-294.825-112.469-407.294 0s-112.469 294.823 0 407.294 294.825 112.469 407.294 0 112.469-294.824 0-407.294zm-48.362 333.486l-25.453 25.453a21.6 21.6 0 0 1-30.551 0L324 380l-99.281 99.281a21.654 21.654 0 0 1-30.516 0l-25.453-25.467a21.6 21.6 0 0 1 0-30.551L268 324l-99.25-99.281a21.6 21.6 0 0 1 0-30.551l25.45-25.453a21.622 21.622 0 0 1 30.516 0L324 267.979l99.281-99.264a21.622 21.622 0 0 1 30.516 0l25.453 25.453a21.6 21.6 0 0 1 0 30.551L380 324l99.281 99.281a21.6 21.6 0 0 1 .004 30.551z"/></svg>