<svg xmlns="http://www.w3.org/2000/svg" width="648" height="648" viewBox="0 0 648 648"><title>CloseCaptions_18</title><path d="M567 108H81a81 81 0 0 0-81 81v270a81 81 0 0 0 81 81h486a81 81 0 0 0 81-81V189a81 81 0 0 0-81-81zM299.927 245.017c0 7.89-4.654 11.621-6.645 12.87l-5.827 3.6-8.255-3.287c-9.242-4.318-24.311-6.776-42.161-6.776-44.626 0-72.358 27.6-72.358 72.022 0 69.244 60.888 72.747 73.1 72.747 17.949 0 29.828-1.608 41.008-5.531l5.563-1.954 6.862 2.937a14.159 14.159 0 0 1 6.5 12.442v32.62c0 7.422-3.935 13.612-10.263 16.156-17.04 6.216-39.373 7.488-55.16 7.488-83.834 0-138.006-53.3-138.006-135.8 0-81.89 57.678-136.905 143.5-136.905 24.62 0 41.317 2.3 52.6 7.271a16.352 16.352 0 0 1 9.545 15.273v34.824zm243 0c0 7.89-4.654 11.621-6.645 12.87l-5.827 3.6-8.255-3.287c-9.242-4.318-24.311-6.776-42.161-6.776-44.626 0-72.358 27.6-72.358 72.022 0 69.244 60.888 72.747 73.1 72.747 17.949 0 29.828-1.608 41.008-5.531l5.563-1.954 6.862 2.937a14.159 14.159 0 0 1 6.5 12.442v32.62c0 7.422-3.935 13.612-10.263 16.156-17.04 6.216-39.373 7.488-55.16 7.488-83.834 0-138.006-53.3-138.006-135.8 0-81.89 57.678-136.905 143.5-136.905 24.62 0 41.317 2.3 52.6 7.271a16.352 16.352 0 0 1 9.545 15.273v34.824z"/></svg>