<svg xmlns="http://www.w3.org/2000/svg" data-name="S_Close_18_N@2x" height="36" id="S_Close_18_N_2x" viewBox="0 0 36 36" width="36"><defs><style>.fill{fill:#707070}</style></defs><title>S_Close_18_N@2x</title><path class="fill" d="M26.485 6.686L18 15.172 9.515 6.686a1 1 0 0 0-1.414 0L6.686 8.1a1 1 0 0 0 0 1.414L15.172 18l-8.486 8.485a1 1 0 0 0 0 1.414L8.1 29.314a1 1 0 0 0 1.414 0L18 20.828l8.485 8.485a1 1 0 0 0 1.414 0l1.415-1.413a1 1 0 0 0 0-1.414L20.828 18l8.485-8.485a1 1 0 0 0 0-1.414L27.9 6.686a1 1 0 0 0-1.415 0z"/></svg>