<svg xmlns="http://www.w3.org/2000/svg" width="648" height="648" viewBox="0 0 648 648"><title>CollectionCheck_18</title><path d="M271.512 504H252V324h52.066a222.671 222.671 0 0 1 31.377-36H252V108h144v139.834a219.73 219.73 0 0 1 36-12.322V108h144v139.834a221.053 221.053 0 0 1 36 20.232V90a18 18 0 0 0-18-18H54a18 18 0 0 0-18 18v432a18 18 0 0 0 18 18h229.834a219.73 219.73 0 0 1-12.322-36zM216 504H72V324h144v180zm0-216H72V108h144v180z"/><path d="M486 289.8A160.2 160.2 0 1 0 646.2 450 160.2 160.2 0 0 0 486 289.8zm-42.083 257.618l-74.3-74.3a9 9 0 0 1 0-12.728l18.656-18.656a9 9 0 0 1 12.728 0l49.166 49.166 109.907-109.911a9 9 0 0 1 12.728 0l18.77 18.77a9 9 0 0 1 0 12.728l-134.927 134.93a9 9 0 0 1-12.728.001z"/></svg>