<svg xmlns="http://www.w3.org/2000/svg" width="648" height="648" viewBox="0 0 648 648"><title>CollectionLink_18</title><path d="M272.443 504H252V324h144v21.735l34.857-34.866L453.727 288H432V108h144v127.143a135.86 135.86 0 0 1 36 7.7V90a18 18 0 0 0-18-18H54a18 18 0 0 0-18 18v432a18 18 0 0 0 18 18h217.178a137.952 137.952 0 0 1 1.265-36zM252 108h144v180H252V108zm-36 396H72V324h144v180zm0-216H72V108h144v180z"/><path d="M459.868 457.57a38.915 38.915 0 0 0 7.57 10.992 39.421 39.421 0 0 0 55.686 0l64.967-64.962a39.376 39.376 0 1 0-55.686-55.686l-14.747 14.747a105.334 105.334 0 0 0-47.679-8.007l34.583-34.583a78.752 78.752 0 1 1 111.372 111.367l-64.967 64.967a78.323 78.323 0 0 1-119.818-10.116zm-38.835-53.97l-64.967 64.967a78.752 78.752 0 0 0 111.372 111.367l34.583-34.583a105.334 105.334 0 0 1-47.679-8.007L439.6 552.091a39.376 39.376 0 0 1-55.686-55.686l64.967-64.967a39.42 39.42 0 0 1 55.686 0 38.915 38.915 0 0 1 7.57 10.992l28.719-28.719A78.323 78.323 0 0 0 421.033 403.6z"/></svg>