<svg xmlns="http://www.w3.org/2000/svg" width="648" height="648" viewBox="0 0 648 648"><title>CollectionEdit_18</title><path d="M340.181 504.835c.105-.29.29-.545.4-.835H252V324h144v118.468l36-36V324h82.468l20.215-20.215a51.407 51.407 0 0 1 35.6-14.994h.417a49.026 49.026 0 0 1 34.937 14.409l6.363 6.36V90a18 18 0 0 0-18-18H54a18 18 0 0 0-18 18v432a18 18 0 0 0 18 18h272.074zM432 108h144v180H432V108zm-180 0h144v180H252V108zm-36 396H72V324h144v180zm0-216H72V108h144v180z"/><path d="M643.29 391.758l-63.105-63.105a13.3 13.3 0 0 0-9.484-3.865s-.281 0-.421.005a15.009 15.009 0 0 0-10.148 4.447l-183.4 183.4a10.918 10.918 0 0 0-2.749 4.609L326.094 636.6c-1.247 4.121 5.026 9.311 8.571 9.311a5.458 5.458 0 0 0 .671-.069c3.025-.7 103.6-43.145 119.417-47.9a10.739 10.739 0 0 0 4.535-2.726L642.7 411.808a15.044 15.044 0 0 0 4.426-9.669 13.374 13.374 0 0 0-3.836-10.381zM445.836 577.706c-23.652 7.109-70.706 33.524-91.141 39.623l39.473-91.161z"/></svg>