<svg xmlns="http://www.w3.org/2000/svg" width="648" height="648" viewBox="0 0 648 648"><title>CollectionAdd_18</title><path d="M325.8 450A160.2 160.2 0 1 0 486 289.8 160.2 160.2 0 0 0 325.8 450zm70.2-9a9 9 0 0 1 9-9h63v-63a9 9 0 0 1 9-9h18a9 9 0 0 1 9 9v63h63a9 9 0 0 1 9 9v18a9 9 0 0 1-9 9h-63v63a9 9 0 0 1-9 9h-18a9 9 0 0 1-9-9v-63h-63a9 9 0 0 1-9-9v-18z"/><path d="M271.512 504H252V324h52.066a222.671 222.671 0 0 1 31.377-36H252V108h144v139.834a219.73 219.73 0 0 1 36-12.322V108h144v139.834a221.053 221.053 0 0 1 36 20.232V90a18 18 0 0 0-18-18H54a18 18 0 0 0-18 18v432a18 18 0 0 0 18 18h229.834a219.73 219.73 0 0 1-12.322-36zM216 504H72V324h144v180zm0-216H72V108h144v180z"/></svg>