<svg xmlns="http://www.w3.org/2000/svg" width="648" height="648" viewBox="0 0 648 648"><title>CollectionAddTo_18</title><path d="M360 504H252V324h108v-36H252V108h144v144h36V108h144v144h36V90a18 18 0 0 0-18-18H54a18 18 0 0 0-18 18v432a18 18 0 0 0 18 18h306v-36zm-144 0H72V324h144v180zm0-216H72V108h144v180z"/><path d="M637.091 450.909l-69.062-69.062L645.4 303.3a9 9 0 0 0-6.422-15.3H396v242.9a9.035 9.035 0 0 0 15.364 6.447l77.936-76.773 69.063 69.063a18 18 0 0 0 25.456 0l53.271-53.271a18 18 0 0 0 .001-25.457z"/></svg>