<svg xmlns="http://www.w3.org/2000/svg" width="648" height="648" viewBox="0 0 648 648"><title>CollectionExclude_18</title><path d="M271.512 504H252V324h52.066a222.671 222.671 0 0 1 31.377-36H252V108h144v139.834a219.73 219.73 0 0 1 36-12.322V108h144v139.834a221.053 221.053 0 0 1 36 20.232V90a18 18 0 0 0-18-18H54a18 18 0 0 0-18 18v432a18 18 0 0 0 18 18h229.834a219.73 219.73 0 0 1-12.322-36zM216 504H72V324h144v180zm0-216H72V108h144v180z"/><path d="M486 289.8A160.2 160.2 0 1 0 646.2 450 160.2 160.2 0 0 0 486 289.8zM360 450c0-28.936 10.143-55.263 26.543-76.535l175.992 175.992C541.266 565.855 514.934 576 486 576a126 126 0 0 1-126-126zm225.457 76.535L409.465 350.543C430.734 334.145 457.066 324 486 324a126 126 0 0 1 126 126c0 28.936-10.143 55.263-26.543 76.535z"/></svg>