<svg xmlns="http://www.w3.org/2000/svg" data-name="S_ColorWheel_18_N@2x" height="36" id="S_ColorWheel_18_N_2x" viewBox="0 0 36 36" width="36"><defs><style>.cls-1{fill:#707070}.cls-2,.cls-3{fill:#000;opacity:.2}.cls-3{opacity:.33}.cls-4,.cls-5{fill:#000;opacity:.47}.cls-5{opacity:.6}.cls-6,.cls-7{fill:#000;opacity:.7}.cls-7{opacity:.8}</style></defs><title>S_ColorWheel_18_N@2x</title><path class="cls-1" d="M18 4A14 14 0 1 1 4 18 14.016 14.016 0 0 1 18 4zm0-2a16 16 0 1 0 16 16A16 16 0 0 0 18 2z"/><path class="cls-2" d="M32 18a13.956 13.956 0 0 0-4.114-9.9L18 18z"/><path class="cls-3" d="M18 18l9.919 9.869A13.954 13.954 0 0 0 32 18z"/><path class="cls-4" d="M18 18v14a13.954 13.954 0 0 0 9.874-4.087z"/><path class="cls-5" d="M18 32V18l-9.9 9.889A13.956 13.956 0 0 0 18 32z"/><path class="cls-6" d="M18 18H4a13.956 13.956 0 0 0 4.1 9.889z"/><path class="cls-7" d="M18 18L8.09 8.122A13.955 13.955 0 0 0 4 18z"/><path class="cls-1" d="M17.939 4A13.954 13.954 0 0 0 8.07 8.143L17.939 18z"/></svg>