<svg xmlns="http://www.w3.org/2000/svg" width="648" height="648" viewBox="0 0 648 648"><title>ColumnSettings_18</title><path d="M54 36h126v576H54a18 18 0 0 1-18-18V54a18 18 0 0 1 18-18zM313.567 556.862a65.027 65.027 0 0 1-39.967-59.937v-21.85a65.014 65.014 0 0 1 39.964-59.937 65.064 65.064 0 0 1 13.948-71.068l16.532-16.541a64.506 64.506 0 0 1 45.935-19.029c2.048 0 4.008.409 6.021.6V36H252v576h63.826a65.289 65.289 0 0 1-2.259-55.138zM475.075 273.6h21.85a65.031 65.031 0 0 1 59.924 39.938A63.817 63.817 0 0 1 612 316.143V54a18 18 0 0 0-18-18H468v238.676c2.391-.268 4.614-1.076 7.075-1.076z"/><path d="M633.477 464.152h-38.256a110.6 110.6 0 0 0-16.153-39.216l27.237-27.236a10.923 10.923 0 0 0 0-15.448l-16.558-16.558a10.924 10.924 0 0 0-15.451 0l-27.236 27.238a110.651 110.651 0 0 0-39.213-16.157v-38.252a10.923 10.923 0 0 0-10.924-10.923h-21.846a10.923 10.923 0 0 0-10.923 10.923v38.251a110.651 110.651 0 0 0-39.213 16.157L397.7 365.695a10.924 10.924 0 0 0-15.451 0l-16.558 16.558a10.923 10.923 0 0 0 0 15.448l27.237 27.235a110.6 110.6 0 0 0-16.153 39.216h-38.252a10.923 10.923 0 0 0-10.923 10.923v21.848a10.925 10.925 0 0 0 10.923 10.925h38.255a110.6 110.6 0 0 0 16.153 39.216L365.695 574.3a10.922 10.922 0 0 0 0 15.446l16.557 16.554a10.924 10.924 0 0 0 15.451 0l27.237-27.235a110.64 110.64 0 0 0 39.213 16.151v38.255a10.925 10.925 0 0 0 10.924 10.929h21.847a10.925 10.925 0 0 0 10.923-10.925V595.22a110.64 110.64 0 0 0 39.213-16.151L574.3 606.3a10.924 10.924 0 0 0 15.451 0l16.558-16.558a10.922 10.922 0 0 0 0-15.446l-27.237-27.235a110.6 110.6 0 0 0 16.153-39.216h38.255a10.925 10.925 0 0 0 10.92-10.922v-21.848a10.923 10.923 0 0 0-10.923-10.923zM486 549a63 63 0 1 1 63-63 63 63 0 0 1-63 63z"/></svg>