<svg xmlns="http://www.w3.org/2000/svg" width="648" height="648" viewBox="0 0 648 648"><title>CommentAdd_18</title><path d="M265.509 504h-92.962a18 18 0 0 0-12.727 5.271L108 561.084V522a18 18 0 0 0-18-18H54a18 18 0 0 1-18-18V270a18 18 0 0 1 18-18h288a18 18 0 0 1 18 18v34.073a220.725 220.725 0 0 1 36-20.228V270a54 54 0 0 0-54-54H54a54 54 0 0 0-54 54v216a54 54 0 0 0 54 54h18v86.273a9 9 0 0 0 15.363 6.363L180 540h91.507a220.249 220.249 0 0 1-5.998-36z"/><path d="M432 262.8v8.71a219.738 219.738 0 0 1 210.476 57.869A53.484 53.484 0 0 0 648 306.005v-216a54 54 0 0 0-54-54H270a54 54 0 0 0-54 54v90h133.2A82.8 82.8 0 0 1 432 262.8zM486 325.8A160.2 160.2 0 1 0 646.2 486 160.2 160.2 0 0 0 486 325.8zM576 495a9 9 0 0 1-9 9h-63v63a9 9 0 0 1-9 9h-18a9 9 0 0 1-9-9v-63h-63a9 9 0 0 1-9-9v-18a9 9 0 0 1 9-9h63v-63a9 9 0 0 1 9-9h18a9 9 0 0 1 9 9v63h63a9 9 0 0 1 9 9v18z"/></svg>