<svg xmlns="http://www.w3.org/2000/svg" width="648" height="648" viewBox="0 0 648 648"><title>Compass_18</title><path d="M27 351h27a25.381 25.381 0 0 0 2.689-.541 266.586 266.586 0 0 0 30.349 99.612l33.638-49.814A216.382 216.382 0 0 1 106.649 324c0-120.04 97.315-217.351 217.351-217.351a216.386 216.386 0 0 1 75.285 13.671l49.946-33.727a266.543 266.543 0 0 0-98.771-29.9A26.237 26.237 0 0 0 351 54V27a27 27 0 0 0-54 0v27a26.237 26.237 0 0 0 .541 2.689C170.306 69.131 69.135 170.3 56.689 297.541A25.381 25.381 0 0 0 54 297H27a27 27 0 0 0 0 54zM621 297h-27a25.381 25.381 0 0 0-2.689.541 266.713 266.713 0 0 0-29.9-98.778l-33.73 49.949A216.419 216.419 0 0 1 541.351 324c0 120.037-97.315 217.351-217.351 217.351a216.35 216.35 0 0 1-76.254-14.027l-49.821 33.638a266.657 266.657 0 0 0 99.615 30.349A26.237 26.237 0 0 0 297 594v27a27 27 0 0 0 54 0v-27a26.237 26.237 0 0 0-.541-2.689C477.694 578.869 578.865 477.7 591.311 350.459A25.381 25.381 0 0 0 594 351h27a27 27 0 0 0 0-54zM264.726 283.416L57.108 590.892l307.476-207.618a81 81 0 0 0 21.8-21.8L594 54 286.527 261.614a81 81 0 0 0-21.801 21.802zm59.416 89.508a49.066 49.066 0 1 1 49.066-49.066 49.068 49.068 0 0 1-49.066 49.065z"/></svg>