<svg xmlns="http://www.w3.org/2000/svg" width="648" height="648" viewBox="0 0 648 648"><title>Compare_18</title><path d="M633.435 578.565l-81.813-81.813c14.7-24.357 23.662-52.585 23.662-83.11a161.642 161.642 0 1 0-161.642 161.642c30.529 0 58.753-8.958 83.11-23.662l81.813 81.813c18.277 18.277 40.485 14.385 54.87 0s15.154-39.716 0-54.87zM313.421 413.642a100.221 100.221 0 1 1 100.221 100.214 100.22 100.22 0 0 1-100.221-100.214z"/><path d="M208.8 414c0-94.605 64.116-174.045 151.2-197.78V198a18 18 0 0 0-18-18H18a18 18 0 0 0-18 18v396a18 18 0 0 0 18 18h324a17.064 17.064 0 0 0 8.912-2.782C268.471 582.592 208.8 505.3 208.8 414z"/><path d="M396 162v47.707c5.941-.519 11.918-.905 18-.905a204.006 204.006 0 0 1 90 21V54a18 18 0 0 0-18-18H162a18 18 0 0 0-18 18v90h234a18 18 0 0 1 18 18z"/></svg>