<svg xmlns="http://www.w3.org/2000/svg" width="648" height="648" viewBox="0 0 648 648"><title>ConversionFunnel_18</title><path d="M180 432v198a18 18 0 0 0 18 18h216a18 18 0 0 0 18-18V432H180zm215.547 75.6l-90.953 121.277a6.744 6.744 0 0 1-10.171.725l-65.74-65.74a6.748 6.748 0 0 1 0-9.545l28.635-28.635a6.748 6.748 0 0 1 9.545 0l27.211 27.211 58.285-77.7a6.747 6.747 0 0 1 9.446-1.348l32.392 24.3a6.748 6.748 0 0 1 1.35 9.455zM522 216H90l74.997 180h282.006L522 216zM598.5 0h-585a9 9 0 0 0-8.308 12.461L75 180h462l69.808-167.539A9 9 0 0 0 598.5 0z"/></svg>