<svg xmlns="http://www.w3.org/2000/svg" data-name="S_Copy_18_N@2x" height="36" id="S_Copy_18_N_2x" viewBox="0 0 36 36" width="36"><defs><style>.fill{fill:#707070}</style></defs><title>S_Copy_18_N@2x</title><path class="fill" d="M32 22h2v2h-2zM32 18h2v2h-2zM32 14h2v2h-2zM32 10h2v2h-2zM32 6h2v2h-2zM32 2h2v2h-2zM28 2h2v2h-2zM24 2h2v2h-2zM20 2h2v2h-2zM16 2h2v2h-2zM12 2h2v2h-2zM12 6h2v2h-2zM12 10h2v2h-2zM12 14h2v2h-2zM12 18h2v2h-2zM12 22h2v2h-2zM16 22h2v2h-2zM20 22h2v2h-2zM24 22h2v2h-2zM28 22h2v2h-2z"/><path class="fill" d="M10 12H3a1 1 0 0 0-1 1v20a1 1 0 0 0 1 1h20a1 1 0 0 0 1-1v-7H10z"/></svg>