<svg xmlns="http://www.w3.org/2000/svg" width="648" height="648" viewBox="0 0 648 648"><title>CoverImage_18</title><circle cx="428.4" cy="226.8" r="45"/><path d="M627.75 72H20.25C9.07 72 0 80.06 0 90v396c0 9.94 9.07 18 20.25 18h43.225a237.708 237.708 0 0 1 58.315-19.578c-24.249-34.55-38.364-76.869-38.364-116.442 0-.826.176-1.547.185-2.364C56.742 399.639 36 432 36 432V108h576v288c-32.247-19.037-83.188-36-111.27-36-44.341 0-83.654 50.133-126.352 66.5a210.07 210.07 0 0 1-27.905 58.359A245.307 245.307 0 0 1 402.9 504h224.85c11.18 0 20.25-8.06 20.25-18V90c0-9.94-9.07-18-20.25-18z"/><path d="M432 612.682a56.148 56.148 0 0 0-18.856-42.348c-22.178-19.434-56.136-35.428-103.285-40.216-10.645-1.081-17.824-10.814-17.824-20.668v-29.833a20.027 20.027 0 0 1 4.971-12.988c22.282-26.231 36.116-63.326 36.116-98.647 0-74.4-39.46-115.982-99.088-115.982s-100.21 43.212-100.21 115.982c0 35.355 15.6 72.486 37.889 98.718a19.889 19.889 0 0 1 4.916 12.917v29.7c0 9.876-7.194 19.749-17.877 20.679-48.809 4.245-82.764 20.372-104.56 40.171A56.274 56.274 0 0 0 36 611.932V648h396v-35.318z"/></svg>