<svg xmlns="http://www.w3.org/2000/svg" data-name="S_Curate_18_N@2x" height="36" id="S_Curate_18_N_2x" viewBox="0 0 36 36" width="36"><defs><style>.fill{fill:#707070}</style></defs><title>S_Curate_18_N@2x</title><path class="fill" d="M35 4H1a1 1 0 0 0-1 1v26a1 1 0 0 0 1 1h34a1 1 0 0 0 1-1V5a1 1 0 0 0-1-1zm-1 26H2v-6h9.663a3.478 3.478 0 0 0 6.675 0h1.325a3.478 3.478 0 0 0 6.675 0H34zm0-8h-7.663a3.478 3.478 0 0 0-6.675 0h-1.325a3.478 3.478 0 0 0-6.675 0H2v-8h1.663a3.478 3.478 0 0 0 6.675 0h1.325a3.478 3.478 0 0 0 6.675 0h7.325a3.478 3.478 0 0 0 6.675 0H34zm0-10h-1.663a3.478 3.478 0 0 0-6.675 0h-7.325a3.478 3.478 0 0 0-6.675 0h-1.325a3.478 3.478 0 0 0-6.675 0H2V6h32z"/></svg>