<svg xmlns="http://www.w3.org/2000/svg" width="648" height="648" viewBox="0 0 648 648"><title>DataAdobe_18</title><ellipse cx="324" cy="126" rx="288" ry="90"/><path d="M252 433.362c-87.24-7.875-191.294-29.32-216-68.5V522c0 41.915 91.854 77.045 216 87.047V433.362zM270 288h342V184.86c-44.051 55.705-199.16 72.079-288 72.079S68.186 235.907 36 184.86V306c0 41.915 91.854 77.045 216 87.047V306a18 18 0 0 1 18-18z" fill-rule="evenodd"/><path d="M514.931 324H648v324L514.931 324zM421.174 324H288v324l133.174-324zM468.052 436.718l84.799 211.267h-55.57l-25.369-61.51h-62.049l58.189-149.757z"/></svg>