<svg xmlns="http://www.w3.org/2000/svg" width="648" height="648" viewBox="0 0 648 648"><title>DataUpload_18</title><ellipse cx="324" cy="126" rx="288" ry="90"/><path d="M306 558l-75.762-.2c-39.032 0-59.555-46.3-33.337-75.221l45.3-50.142C157.131 423.87 59.783 402.583 36 364.86V522c0 47.8 119.373 86.8 270 89.719V558z" fill-rule="evenodd"/><g fill-rule="evenodd"><path d="M581.353 346.228C600.794 334.107 612 320.476 612 306V184.86c-21.894 27.686-71.244 45.642-126.246 56.716zM404.209 253.125c-29.145 2.654-56.962 3.814-80.209 3.814-88.84 0-255.814-21.032-288-72.079V306c0 44.613 104.01 81.554 240.328 88.664z"/></g><path d="M632.637 488.637A9 9 0 0 1 626.273 504H540v144H360V504h-86.273a9 9 0 0 1-6.363-15.363L450 288z"/></svg>