<svg xmlns="http://www.w3.org/2000/svg" width="648" height="648" viewBox="0 0 648 648"><title>DataEdit_18</title><ellipse cx="324" cy="126" rx="288" ry="90"/><path d="M319.966 497.188A68.815 68.815 0 0 1 336 471.916l36.457-36.461c-17.376.984-33.864 1.485-48.454 1.485-88.84 0-255.814-21.032-288-72.079V522c0 44.411 103.061 81.229 238.474 88.576zM416.777 391.14l102.595-102.595a72.313 72.313 0 0 1 48.41-21.3l1.151-.062h1.767A70.394 70.394 0 0 1 612 280.6v-95.74c-44.051 55.705-199.16 72.079-288 72.079S68.186 235.907 36 184.86V306c0 49.7 128.944 90 288 90a878.817 878.817 0 0 0 92.777-4.86z" fill-rule="evenodd"/><path d="M643.29 391.758l-63.105-63.105a13.3 13.3 0 0 0-9.484-3.865s-.281 0-.421.005a15.009 15.009 0 0 0-10.148 4.447l-183.4 183.4a10.918 10.918 0 0 0-2.749 4.609L326.094 636.6c-1.247 4.121 5.026 9.311 8.571 9.311a5.458 5.458 0 0 0 .671-.069c3.025-.7 103.6-43.145 119.417-47.9a10.739 10.739 0 0 0 4.535-2.726L642.7 411.808a15.044 15.044 0 0 0 4.426-9.669 13.374 13.374 0 0 0-3.836-10.381zM445.836 577.706c-23.652 7.109-70.706 33.524-91.141 39.623l39.473-91.161z"/></svg>