<svg xmlns="http://www.w3.org/2000/svg" width="648" height="648" viewBox="0 0 648 648"><title>DataUnavailable_18</title><ellipse cx="324" cy="126" rx="288" ry="90"/><path d="M264.6 486a221.222 221.222 0 0 1 6.161-51.117C180.352 428.546 62.508 406.9 36 364.86V522c0 47.575 118.222 86.432 267.829 89.684A220.252 220.252 0 0 1 264.6 486zM486 264.6a220.212 220.212 0 0 1 126 39.463V184.86c-44.051 55.705-199.16 72.079-288 72.079S68.186 235.907 36 184.86V306c0 45.483 108.079 82.986 248.3 89.051C319.017 318.182 396.176 264.6 486 264.6z" fill-rule="evenodd"/><path d="M486 325.8A160.2 160.2 0 1 0 646.2 486 160.2 160.2 0 0 0 486 325.8zM360 486c0-28.936 10.143-55.263 26.543-76.535l175.992 175.992C541.266 601.855 514.934 612 486 612a126 126 0 0 1-126-126zm225.457 76.535L409.465 386.543C430.734 370.145 457.066 360 486 360a126 126 0 0 1 126 126c0 28.936-10.143 55.263-26.543 76.535z"/></svg>