<svg xmlns="http://www.w3.org/2000/svg" width="648" height="648" viewBox="0 0 648 648"><title>DataDownload_18</title><ellipse cx="324" cy="126" rx="288" ry="90"/><path d="M193.992 453.221a43.6 43.6 0 0 1-11.312-28.745C116.3 413.209 54.316 393.908 36 364.86V522c0 49.7 128.944 90 288 90 4.992 0 9.844-.154 14.774-.233z" fill-rule="evenodd"/><g fill-rule="evenodd"><path d="M594 234v103.078c11.443-9.7 18-20.136 18-31.078V184.86C594.492 207 559.336 222.847 517.878 234H594zM227.338 378H306V256.671c-91.7-2.553-239.88-24.034-270-71.811V306c0 35.851 67.254 66.718 164.338 81.185a43.866 43.866 0 0 1 27-9.185z"/></g><path d="M632.637 447.363A9 9 0 0 0 626.273 432H540V288H360v144h-86.273a9 9 0 0 0-6.363 15.363L450 648z"/></svg>