<svg xmlns="http://www.w3.org/2000/svg" width="648" height="648" viewBox="0 0 648 648"><title>DataBook_18</title><ellipse cx="324" cy="126" rx="288" ry="90"/><path d="M190.793 535.79c0-55.4 32.748-99.9 32.748-99.9l3.762-5.062C146.1 421.348 58.4 400.395 36 364.86V522c0 36.514 69.724 67.887 169.726 82-9.29-20.969-14.933-43.873-14.933-68.21z" fill-rule="evenodd"/><g fill-rule="evenodd"><path d="M612 230.4v-45.54c-15.7 19.854-45.633 34.638-81.527 45.541H612zM355.113 259.014c.791-1.046 1.846-1.815 2.681-2.812-11.962.488-23.37.738-33.794.738-88.84 0-255.814-21.032-288-72.079V306c0 42.28 93.437 77.656 219.217 87.311z"/></g><path d="M497.806 591.9H354.981v-.007c-30.9-.038-56.035-19.041-56.035-56.1 0-36.883 25.134-56.059 56.035-56.1l5.558-.007h147.595a14.026 14.026 0 0 0 11.221-5.61l122.961-174.855A7.013 7.013 0 0 0 636.705 288H412.393a14.026 14.026 0 0 0-11.221 5.61L269.747 470.266l.11.012a111.815 111.815 0 0 0 90.323 177.679l.044.043h147.91a14.026 14.026 0 0 0 11.221-5.61l122.961-174.858a7.013 7.013 0 0 0-5.61-11.221h-45.393z"/></svg>