<svg xmlns="http://www.w3.org/2000/svg" width="648" height="648" viewBox="0 0 648 648"><title>DataUser_18</title><ellipse cx="324" cy="126" rx="288" ry="90"/><g fill-rule="evenodd"><path d="M612 506.867V364.86a86.939 86.939 0 0 1-15.609 14.66c.387 5.063 7.973 65.57-28.027 111.389zM365.66 489.8a186.344 186.344 0 0 1-23.309-53.088c-6.363.147-12.516.229-18.352.229-88.84 0-255.814-21.037-288-72.081V522c0 41.084 88.189 75.669 208.582 86.454 9.142-44.781 41.345-100.009 121.079-118.654z"/></g><path d="M336.322 395.807c0-.369-.088-.751-.088-1.121 0-85.034 53.912-144.422 131.133-144.422 60.24 0 104.854 34.963 122.115 90.664C603.984 330.188 612 318.386 612 306V184.86c-44.051 55.7-199.16 72.081-288 72.081S68.186 235.905 36 184.86V306c0 49.7 128.936 90 288 90 4.166 0 8.209-.138 12.322-.193z" fill-rule="evenodd"/><path d="M516.189 513.759v-25.111a17.378 17.378 0 0 1 4.423-11.208c18.609-22.062 30.157-53.149 30.157-82.755 0-62.626-33.216-97.622-83.4-97.622s-84.346 36.373-84.346 97.622c0 29.6 12.992 60.691 31.6 82.753a17.382 17.382 0 0 1 4.424 11.21v25c0 8.314-6.059 16.625-15.046 17.407C303.17 539.827 288.1 608.8 288.1 636c0 3.023-.1 12-.1 12h360v-12c0-26.068-17.81-94.793-116.814-104.847-8.954-.909-14.997-9.098-14.997-17.394z"/></svg>