<svg xmlns="http://www.w3.org/2000/svg" width="648" height="648" viewBox="0 0 648 648"><title>DataCorrelated_18</title><g fill-rule="evenodd"><path d="M468 252c0-7.225-.387-14.353-1.081-21.393a179.908 179.908 0 0 0-236.312 236.312c7.04.694 14.168 1.081 21.393 1.081 119.294 0 216-96.706 216-216z"/><path d="M180 396c0-119.294 96.706-216 216-216a215.811 215.811 0 0 1 62.684 9.316C431.815 100.608 349.488 36 252 36 132.706 36 36 132.706 36 252c0 97.488 64.608 179.815 153.316 206.684A215.811 215.811 0 0 1 180 396z"/></g><path d="M458.684 189.316a214.389 214.389 0 0 1 8.235 41.291 179.971 179.971 0 1 1-236.312 236.312 214.389 214.389 0 0 1-41.291-8.235C216.185 547.392 298.512 612 396 612c119.294 0 216-96.706 216-216 0-97.488-64.608-179.815-153.316-206.684z" fill-rule="evenodd"/></svg>