<svg xmlns="http://www.w3.org/2000/svg" width="648" height="648" viewBox="0 0 648 648"><title>DataRefresh_18</title><ellipse cx="324" cy="126" rx="288" ry="90"/><path d="M266.4 543.6v-59.375c0-6.847 2.083-19.828 2.083-19.828 1.389-10.072 4.087-19.635 6.671-29.232C184.2 429.223 62.938 407.593 36 364.86V522c0 43.541 98.947 79.849 230.4 88.189V543.6zM486 266.4c39.1 0 78.838 11.966 113.379 33.293l7.471-7.625 5.15-5.26V184.86c-44.051 55.705-199.16 72.079-288 72.079S68.186 235.907 36 184.86V306c0 46.072 110.848 84 253.7 89.306C325.881 318.938 400.359 266.4 486 266.4z" fill-rule="evenodd"/><path d="M486 601.829c-34.471 0-63.853-13.52-85.878-38.206L441.659 522H324v117.9l45.07-45.156C398.47 627.381 440.077 648 486 648c86.133 0 156.331-71.55 162-162h-41.045c-5.66 64.8-57.507 115.829-120.955 115.829zM604.046 377.253C574.611 345.718 530.877 324 486 324c-86.133 0-156.331 71.55-162 162h41.045c5.66-64.8 57.507-115.831 120.955-115.831 41.309 0 66.067 16 87.68 38.1L532.811 450H648V332.369z"/></svg>