<svg xmlns="http://www.w3.org/2000/svg" width="648" height="648" viewBox="0 0 648 648"><title>Deduplication_18</title><circle cx="144" cy="112.5" r="67.5"/><path fill-rule="evenodd" d="M388.212 180h-157.5l78.75-135 78.75 135z"/><circle cx="216" cy="544.5" r="67.5"/><path fill-rule="evenodd" d="M497.961 612h-157.5l78.75-135 78.75 135zM579.288 180h-157.5l78.75-135 78.75 135zM504 217.042H144v22a27.263 27.263 0 0 0 13.005 23.472l102.412 72.272a55.01 55.01 0 0 1 20.045 42.781v75.5c0 7.456 5.756 13.5 12.857 13.5h63.36c7.1 0 12.857-6.044 12.857-13.5v-75.5a55.01 55.01 0 0 1 20.045-42.781l102.412-72.272A27.263 27.263 0 0 0 504 239.04v-22z"/></svg>