<svg xmlns="http://www.w3.org/2000/svg" width="648" height="648" viewBox="0 0 648 648"><title>Delegate_18</title><path d="M493.54 358c-11.1-1.246-20.2-11.752-20.2-22.919v-32.735a23.786 23.786 0 0 1 5.316-14.617c22.343-28.767 36.206-76.4 36.206-115 0-81.645-39.883-120.158-100.139-120.158a112.545 112.545 0 0 0-30.9 4.556c23.335 29.3 38.488 71.191 38.488 128.955 0 53.84-17.934 112.755-46.135 152.824v4.98c126.465 22.993 182.826 107.591 190.1 169 .367 3.1.61 24.147.729 27.12h81V489.6C648 455.8 623.882 372.634 493.54 358z"/><path d="M347.911 392.064c-12.919-1.507-23.575-12.591-23.577-25.6V330.09a26.428 26.428 0 0 1 5.913-16.249c24.821-31.957 40.223-84.889 40.223-127.775 0-90.716-44.313-133.51-111.266-133.51S146.667 97.343 146.667 186.069c0 42.913 17.356 95.884 42.2 127.835a26.306 26.306 0 0 1 5.863 16.189v36.215c0 3.349-11.62 14.94-12.932 17.992L308.5 509.769a18 18 0 0 1 .117 25.463L268.2 576H513v-32.4c0-37.453-21.346-134.774-165.089-151.536zM123.727 399.039A9 9 0 0 0 108 405.018v63L18 468a18 18 0 0 0-18 18v72a18 18 0 0 0 18 18h90v62.982a9 9 0 0 0 15.727 5.979L241.2 522.015z"/></svg>