<svg xmlns="http://www.w3.org/2000/svg" data-name="S_DeleteOutline_18_N@2x" height="36" id="S_DeleteOutline_18_N_2x" viewBox="0 0 36 36" width="36"><defs><style>.fill{fill:#707070}</style></defs><title>S_DeleteOutline_18_N@2x</title><path class="fill" d="M27.491 8l-2.308 24H8.817L6.509 8zM22 2H12a2 2 0 0 0-2 2v2H2.5a.5.5 0 0 0-.5.5v1a.5.5 0 0 0 .5.5h2l2.413 25.1a1 1 0 0 0 1 .9h18.179a1 1 0 0 0 1-.9L29.5 8h2a.5.5 0 0 0 .5-.5v-1a.5.5 0 0 0-.5-.5H24V4a2 2 0 0 0-2-2zM12 6V4h10v2z"/><rect class="fill" height="18.08" rx=".5" ry=".5" width="2" x="16" y="10.9"/><path class="fill" d="M13.542 28.944l-1 .06a.5.5 0 0 1-.529-.469L10.87 11.49a.5.5 0 0 1 .469-.529l1-.06a.5.5 0 0 1 .529.469l1.145 17.045a.5.5 0 0 1-.471.529zM20.458 28.944l1 .06a.5.5 0 0 0 .529-.469L23.13 11.49a.5.5 0 0 0-.469-.529l-1-.06a.5.5 0 0 0-.529.469l-1.143 17.045a.5.5 0 0 0 .469.529z"/></svg>