<svg xmlns="http://www.w3.org/2000/svg" width="648" height="648" viewBox="0 0 648 648"><title>DeliveryFusion_18</title><path d="M331.055 371.987a7.068 7.068 0 0 0 8.814.918L643.751 176.7l1.9-8.717c2.8-12.8-5.446-23.19-18.421-23.19H157.59c-12.962 0-25.744 10.387-28.546 23.19l-.669 3.092zM588.377 430.225l38.264-175.197-150.647 97.288 112.383 77.909zM424.6 385.5l-77.922 50.321a28.268 28.268 0 0 1-35.241-3.672l-44.924-44.524L57.486 495.641l-4.41 20.167C50.28 528.611 58.521 539 71.5 539h469.641c12.962 0 25.744-10.387 28.546-23.19l5.646-25.827zM78.433 398.6l-5.363 25.337 151.841-78.467-110.347-111.948A455.069 455.069 0 0 0 41.7 176.85s-59.1-40.825-33.446-.3 94.239 110.972 70.179 222.05z"/></svg>