<svg xmlns="http://www.w3.org/2000/svg" width="648" height="648" viewBox="0 0 648 648"><title>S_Demographic_18_N_lt</title><path d="M144 145.807a70.2 70.2 0 1 0-70.2-70.2 70.2 70.2 0 0 0 70.2 70.2zM324 145.807a70.2 70.2 0 1 0-70.2-70.2 70.2 70.2 0 0 0 70.2 70.2zM504 145.807a70.2 70.2 0 1 0-70.2-70.2 70.2 70.2 0 0 0 70.2 70.2zM507.6 180.005h-7.2c-35.932 0-67.619 11.162-86.4 33.53-18.782-22.368-50.469-33.53-86.4-33.53h-7.2c-35.932 0-67.619 11.162-86.4 33.53-18.782-22.368-50.469-33.53-86.4-33.53h-7.2c-57.658 0-104.4 28.74-104.4 86.4v129.6a18 18 0 0 0 18 18h18l18 180a18 18 0 0 0 18 18h72a18 18 0 0 0 18-18l18-180h36l18 180a18 18 0 0 0 18 18h72a18 18 0 0 0 18-18l18-180h36l18 180a18 18 0 0 0 18 18h72a18 18 0 0 0 18-18l18-180h18a18 18 0 0 0 18-18V266.4c0-57.654-46.742-86.395-104.4-86.395z"/></svg>