<svg xmlns="http://www.w3.org/2000/svg" data-name="S_Deselect_18_N@2x" height="36" id="S_Deselect_18_N_2x" viewBox="0 0 36 36" width="36"><defs><style>.fill{fill:#707070}</style></defs><title>S_Deselect_18_N@2x</title><rect class="fill" height="43.854" rx=".818" ry=".818" transform="rotate(-45 18 18)" width="2.455" x="16.773" y="-3.927"/><path class="fill" d="M4 10.788L3.212 10H2v6h2v-5.212zM2 20h2v6H2zM4 32v-2H2v3.111a.889.889 0 0 0 .889.889H6v-2zM10 32h6v2h-6zM20 32v2h6v-1.212L25.212 32H20zM32 20v5.212l.788.788H34v-6h-2zM32 10h2v6h-2zM33.111 2H30v2h2v2h2V2.889A.889.889 0 0 0 33.111 2zM20 2h6v2h-6zM16 4V2h-6v1.212l.788.788H16z"/></svg>