<svg xmlns="http://www.w3.org/2000/svg" data-name="S_DeviceLaptop_18_N@2x" height="36" id="S_DeviceLaptop_18_N_2x" viewBox="0 0 36 36" width="36"><defs><style>.fill{fill:#707070}</style></defs><title>S_DeviceLaptop_18_N@2x</title><path class="fill" d="M35.561 30.684L32 20V3a1 1 0 0 0-1-1H5a1 1 0 0 0-1 1v17L.439 30.684A1 1 0 0 0 1.387 32h33.226a1 1 0 0 0 .948-1.316zM8 6h20v12H8zm4.155 23.379l.75-3A.5.5 0 0 1 13.39 26h9.22a.5.5 0 0 1 .485.379l.75 3a.5.5 0 0 1-.485.621H12.64a.5.5 0 0 1-.485-.621z"/></svg>