<svg xmlns="http://www.w3.org/2000/svg" data-name="S_DeviceTV_18_N@2x" height="36" id="S_DeviceTV_18_N_2x" viewBox="0 0 36 36" width="36"><defs><style>.fill{fill:#707070}</style></defs><title>S_DeviceTV_18_N@2x</title><path class="fill" d="M35 8H19.414l6.247-6.247a.972.972 0 0 0 0-1.412 1 1 0 0 0-1.417 0L18 6.586 11.776.362a.989.989 0 0 0-1.42-.006.97.97 0 0 0 .005 1.419L16.586 8H1a1 1 0 0 0-1 1v24a1 1 0 0 0 1 1h34a1 1 0 0 0 1-1V9a1 1 0 0 0-1-1zm-5 22H4V12h26zm4-1a1 1 0 0 1-2 0v-2a1 1 0 0 1 2 0z"/></svg>