<svg xmlns="http://www.w3.org/2000/svg" data-name="S_DeviceRotateLandscape_18_N@2x" height="36" id="S_DeviceRotateLandscape_18_N_2x" viewBox="0 0 36 36" width="36"><defs><style>.fill{fill:#707070}</style></defs><title>S_DeviceRotateLandscape_18_N@2x</title><path class="fill" d="M32.785 20.716L35.5 18H28v7.5l2.776-2.776a6 6 0 0 1 1.8 4.276A6.075 6.075 0 1 1 25 21.134v-2.923a8.983 8.983 0 1 0 7.784 2.5z"/><path class="fill" d="M15.158 30H8V6h16v9.21a12.271 12.271 0 0 1 2-.354V2a2 2 0 0 0-2-2H8a2 2 0 0 0-2 2v32a2 2 0 0 0 2 2h10.625a12.269 12.269 0 0 1-3.467-6zM15 2h2a1.04 1.04 0 0 1 1 1 1.04 1.04 0 0 1-1 1h-2a1.023 1.023 0 0 1-1-1 1.023 1.023 0 0 1 1-1z"/></svg>