<svg xmlns="http://www.w3.org/2000/svg" width="648" height="648" viewBox="0 0 648 648"><title>Disqus_18</title><path d="M323.89 612a283.222 283.222 0 0 1-184.738-68.356L16.541 560.395l47.368-116.911A288.673 288.673 0 0 1 38.147 324c0-159.049 127.932-288 285.743-288s285.717 128.951 285.717 288c0 159.078-127.914 288-285.717 288zm156.019-288.823v-.8c0-83.106-58.607-142.366-159.659-142.366H211.109v288h107.525c101.837 0 161.276-61.73 161.276-144.832zM321.454 397.25h-31.923V250.788h31.923c46.886 0 78.007 26.731 78.007 72.832v.8c0 46.492-31.121 72.83-78.007 72.83z"/></svg>