<svg xmlns="http://www.w3.org/2000/svg" data-name="S_DistributeSpaceVert_18_N@2x" height="36" id="S_DistributeSpaceVert_18_N_2x" viewBox="0 0 36 36" width="36"><defs><style>.fill{fill:#707070}</style></defs><title>S_DistributeSpaceVert_18_N@2x</title><path class="fill" d="M35.5 12H28V5a1 1 0 0 0-1-1H9a1 1 0 0 0-1 1v7H.5a.5.5 0 0 0-.5.5v1a.5.5 0 0 0 .5.5h35a.5.5 0 0 0 .5-.5v-1a.5.5 0 0 0-.5-.5zM35.5 22H.5a.5.5 0 0 0-.5.5v1a.5.5 0 0 0 .5.5H8v7a1 1 0 0 0 1 1h18a1 1 0 0 0 1-1v-7h7.5a.5.5 0 0 0 .5-.5v-1a.5.5 0 0 0-.5-.5z"/></svg>