<svg xmlns="http://www.w3.org/2000/svg" data-name="S_DistributeLeftEdge_18_N@2x" height="36" id="S_DistributeLeftEdge_18_N_2x" viewBox="0 0 36 36" width="36"><defs><style>.fill{fill:#707070}</style></defs><title>S_DistributeLeftEdge_18_N@2x</title><path class="fill" d="M13.074 6H6V.5a.5.5 0 0 0-.5-.5h-1a.5.5 0 0 0-.5.5v35a.5.5 0 0 0 .5.5h1a.5.5 0 0 0 .5-.5V30h7.074a.926.926 0 0 0 .926-.926V6.926A.926.926 0 0 0 13.074 6zM29 10h-7V.5a.5.5 0 0 0-.5-.5h-1a.5.5 0 0 0-.5.5v35a.5.5 0 0 0 .5.5h1a.5.5 0 0 0 .5-.5V26h7a1 1 0 0 0 1-1V11a1 1 0 0 0-1-1z"/></svg>