<svg xmlns="http://www.w3.org/2000/svg" data-name="S_DistributeSpaceHoriz_18_N@2x" height="36" id="S_DistributeSpaceHoriz_18_N_2x" viewBox="0 0 36 36" width="36"><defs><style>.fill{fill:#707070}</style></defs><title>S_DistributeSpaceHoriz_18_N@2x</title><path class="fill" d="M13.5 0h-1a.5.5 0 0 0-.5.5V8H5a1 1 0 0 0-1 1v18a1 1 0 0 0 1 1h7v7.5a.5.5 0 0 0 .5.5h1a.5.5 0 0 0 .5-.5V.5a.5.5 0 0 0-.5-.5zM31 8h-7V.5a.5.5 0 0 0-.5-.5h-1a.5.5 0 0 0-.5.5v35a.5.5 0 0 0 .5.5h1a.5.5 0 0 0 .5-.5V28h7a1 1 0 0 0 1-1V9a1 1 0 0 0-1-1z"/></svg>