<svg xmlns="http://www.w3.org/2000/svg" data-name="S_DividePath_18_N@2x" height="36" id="S_DividePath_18_N_2x" viewBox="0 0 36 36" width="36"><defs><style>.cls-1{fill:#707070}</style></defs><title>S_DividePath_18_N@2x</title><path class="cls-1" d="M12 12h12v12H12z"/><path class="cls-1" d="M10 10h14V5a1 1 0 0 0-1-1H5a1 1 0 0 0-1 1v18a1 1 0 0 0 1 1h5zM31 12h-5v14H12v5a1 1 0 0 0 1 1h18a1 1 0 0 0 1-1V13a1 1 0 0 0-1-1z"/><g><path class="cls-1" d="M12 12h12v12H12z"/><path class="cls-1" d="M10 10h14V5a1 1 0 0 0-1-1H5a1 1 0 0 0-1 1v18a1 1 0 0 0 1 1h5zM31 12h-5v14H12v5a1 1 0 0 0 1 1h18a1 1 0 0 0 1-1V13a1 1 0 0 0-1-1z"/></g></svg>