<svg xmlns="http://www.w3.org/2000/svg" width="648" height="648" viewBox="0 0 648 648"><title>DocumentFragmentGroup_18</title><path d="M630 144H90a18 18 0 0 0-18 18v396a18 18 0 0 0 18 18h540a18 18 0 0 0 18-18V162a18 18 0 0 0-18-18zm-486 72h252v159.75c-18.141-10.705-46.793-20.25-62.6-20.25-29.751 0-43.181 39.524-72.932 39.524s-30.562-67.764-60.313-67.764C173.107 327.261 144 396 144 396V216zm432 288H144v-36h432v36zm0-144H468v-36h108v36zm0-108H468v-36h108v36z"/><path d="M36 126a18 18 0 0 1 18-18h522V90a18 18 0 0 0-18-18H18A18 18 0 0 0 0 90v396a18 18 0 0 0 18 18h18V126z"/><circle cx="324" cy="288" r="36"/></svg>