<svg xmlns="http://www.w3.org/2000/svg" width="648" height="648" viewBox="0 0 648 648"><title>DocumentFragment_18</title><circle cx="267.413" cy="243" r="36"/><path d="M630 72H18A18 18 0 0 0 0 90v468a18 18 0 0 0 18 18h612a18 18 0 0 0 18-18V90a18 18 0 0 0-18-18zM72 144h288v228.489c-18.141-10.705-46.793-20.25-62.6-20.25-29.751 0-43.181 39.524-72.932 39.524s-52.84-78.354-82.591-78.354c-27.053 0-69.882 79.33-69.882 79.33V144zm504 360H72v-36h504v36zm0-108H432v-36h144v36zm0-108H432v-36h144v36zm0-108H432v-36h144v36z"/></svg>