<svg xmlns="http://www.w3.org/2000/svg" data-name="S_Download_18_N@2x" height="36" id="S_Download_18_N_2x" viewBox="0 0 36 36" width="36"><defs><style>.fill{fill:#707070}</style></defs><title>S_Download_18_N@2x</title><path class="fill" d="M24.793 20H20V2.5a.5.5 0 0 0-.5-.5h-3a.5.5 0 0 0-.5.5V20h-4.793a.5.5 0 0 0-.354.854L18 28l7.146-7.146a.5.5 0 0 0-.353-.854z"/><path class="fill" d="M30 26.5V30H6v-3.5a.5.5 0 0 0-.5-.5h-3a.5.5 0 0 0-.5.5V33a1 1 0 0 0 1 1h30a1 1 0 0 0 1-1v-6.5a.5.5 0 0 0-.5-.5h-3a.5.5 0 0 0-.5.5z"/></svg>