<svg xmlns="http://www.w3.org/2000/svg" width="648" height="648" viewBox="0 0 648 648"><title>DPS_18</title><path d="M36 36v576h576V36H36zm45.818 45.818h484.364v484.364H81.818V81.818z" fill-rule="evenodd"/><g fill-rule="evenodd"><path d="M289.659 386.452l-35.186-27.275L324 305.28l35.227 27.309 32.324-25.025-51.3-39.724a26.558 26.558 0 0 0-32.5 0l-51.338 39.748-8.013 6.212-31.781 24.6a26.3 26.3 0 0 0 0 41.555l40.721 31.524zM431.379 338.4l-23.032-17.832-32.334 25.032 17.518 13.577L324 413.074l-17.558-13.608-32.314 25.02 33.619 26.028a26.553 26.553 0 0 0 32.5 0l42.385-32.814 8.106-6.278 40.641-31.467a26.285 26.285 0 0 0 0-41.555z"/></g><path d="M289.659 386.452l16.784 13.014 69.57-53.866-16.785-13.012-69.569 53.864zM458.248 227.82l-113.3-87.589a33.771 33.771 0 0 0-41.846-.05L189.755 227.81a34.066 34.066 0 0 0-13.4 27.321 33.572 33.572 0 0 0 13.379 26.8l49.872 38.669 8.789-6.8 8.016-6.21-54.181-41.99a13.23 13.23 0 0 1-5.3-10.577 13.661 13.661 0 0 1 5.4-10.929l113.4-87.69a13.235 13.235 0 0 1 16.574.05L445.672 244.1a13.628 13.628 0 0 1 5.4 10.919 13.275 13.275 0 0 1-5.4 10.647l-54.121 41.895 16.795 13 49.8-38.556a33.61 33.61 0 0 0 13.5-26.879 34.032 34.032 0 0 0-13.398-27.306zM397.458 416.73l-6.72-5.309-8.106 6.277-8.648 6.7 10.738 8.493a13.723 13.723 0 0 1 .06 21.626L332.349 495a13.832 13.832 0 0 1-16.674.04l-52.393-40.48a13.691 13.691 0 0 1-.06-21.626l10.908-8.446-16.795-13.008-6.75 5.222a34.26 34.26 0 0 0 .06 54.09l52.493 40.56a34.458 34.458 0 0 0 41.746-.04l52.533-40.56a34.3 34.3 0 0 0 .041-54.022z"/></svg>