<svg xmlns="http://www.w3.org/2000/svg" width="648" height="648" viewBox="0 0 648 648"><title>Draft_18</title><path fill-rule="evenodd" d="M360 36v180h180L360 36z"/><path d="M644.137 390.97l-63.105-63.105a13.3 13.3 0 0 0-9.484-3.865l-.421.005a15.009 15.009 0 0 0-10.148 4.447l-194.8 194.8a10.918 10.918 0 0 0-2.749 4.609l-36.489 107.955c-1.247 4.121 5.026 9.311 8.571 9.311a5.458 5.458 0 0 0 .671-.069c3.025-.7 92.209-31.752 108.024-36.507a10.739 10.739 0 0 0 4.535-2.726l194.8-194.805a15.044 15.044 0 0 0 4.426-9.669 13.374 13.374 0 0 0-3.831-10.381zM435.29 588.311c-23.652 7.109-59.313 22.131-79.748 28.23l28.08-79.768z"/><path d="M342 252a18 18 0 0 1-18-18V36H126a18 18 0 0 0-18 18v540a18 18 0 0 0 18 18h163.424l33.1-97.98c1.9-7.1 7-15.4 13.535-21.727L540 290.285V252H342z" fill-rule="evenodd"/></svg>