<svg xmlns="http://www.w3.org/2000/svg" width="648" height="648" viewBox="0 0 648 648"><title>DragHandle_18</title><rect x="216" y="72" width="36" height="36" rx="13.5" ry="13.5"/><rect x="216" y="180" width="36" height="36" rx="13.5" ry="13.5"/><rect x="216" y="288" width="36" height="36" rx="13.5" ry="13.5"/><rect x="216" y="396" width="36" height="36" rx="13.5" ry="13.5"/><rect x="216" y="504" width="36" height="36" rx="13.5" ry="13.5"/><rect x="324" y="72" width="36" height="36" rx="13.5" ry="13.5"/><rect x="324" y="180" width="36" height="36" rx="13.5" ry="13.5"/><rect x="324" y="288" width="36" height="36" rx="13.5" ry="13.5"/><rect x="324" y="396" width="36" height="36" rx="13.5" ry="13.5"/><rect x="324" y="504" width="36" height="36" rx="13.5" ry="13.5"/></svg>