<svg xmlns="http://www.w3.org/2000/svg" width="648" height="648" viewBox="0 0 648 648"><title>Dropdown_18</title><path d="M549 36H63a27 27 0 0 0-27 27v89.339a27 27 0 0 0 27 27h486a27 27 0 0 0 27-27V63a27 27 0 0 0-27-27zm-98.921 121.744l-67.035-72.678a7.765 7.765 0 0 1 5.965-12.736H511.15a7.765 7.765 0 0 1 5.965 12.736zM549 216H63a27 27 0 0 0-27 27v342a27 27 0 0 0 27 27h486a27 27 0 0 0 27-27V243a27 27 0 0 0-27-27zm-441 67.5a13.5 13.5 0 0 1 13.5-13.5h279a13.5 13.5 0 0 1 13.5 13.5v27a13.5 13.5 0 0 1-13.5 13.5h-279a13.5 13.5 0 0 1-13.5-13.5v-27zm360 243a13.5 13.5 0 0 1-13.5 13.5h-333a13.5 13.5 0 0 1-13.5-13.5v-27a13.5 13.5 0 0 1 13.5-13.5h333a13.5 13.5 0 0 1 13.5 13.5v27zm54-108a13.5 13.5 0 0 1-13.5 13.5h-387a13.5 13.5 0 0 1-13.5-13.5v-27a13.5 13.5 0 0 1 13.5-13.5h387a13.5 13.5 0 0 1 13.5 13.5v27z"/></svg>