<svg xmlns="http://www.w3.org/2000/svg" width="648" height="648" viewBox="0 0 648 648"><title>Edit-Circle_18</title><path d="M324 35.991c-159.056 0-288 128.944-288 288s128.944 288 288 288 288-128.944 288-288-128.944-288-288-288zm174.551 214.532L296.077 453a13.177 13.177 0 0 1-5.555 3.34c-19.362 5.818-128.54 43.84-132.24 44.692-.255.053-.817.088-.817.088-4.342 0-12.023-6.354-10.494-11.4l44.675-132.161a13.3 13.3 0 0 1 3.366-5.643l202.465-202.467a18.332 18.332 0 0 1 12.419-5.44l.519-.009a16.282 16.282 0 0 1 11.6 4.729l77.256 77.256a16.388 16.388 0 0 1 4.693 12.709 18.4 18.4 0 0 1-5.413 11.829z"/><path d="M194.8 453.306c18.449-5.51 50.647-19.071 72-25.489l-46.654-46.531z"/></svg>