<svg xmlns="http://www.w3.org/2000/svg" width="648" height="648" viewBox="0 0 648 648"><title>EditExclude_18</title><path d="M264.6 486c0-122.273 99.123-221.4 221.4-221.4a223.208 223.208 0 0 1 30.753 2.373l86.476-86.473a24.727 24.727 0 0 0 7.277-15.9 21.964 21.964 0 0 0-6.3-17.068L500.44 43.77a21.876 21.876 0 0 0-15.6-6.354c-.229 0-.457 0-.686.009a24.685 24.685 0 0 0-16.69 7.313L91.512 420.7a17.941 17.941 0 0 0-4.526 7.576l-49.992 167.5c-2.048 6.776 8.271 15.311 14.1 15.311a4.9 4.9 0 0 0 1.1-.114c4.975-1.143 141.609-42.2 167.607-50.01a17.673 17.673 0 0 0 7.462-4.482l39.718-39.727A223.1 223.1 0 0 1 264.6 486zM84.023 564.082l36.158-121.148 84.955 84.744c-38.891 11.689-87.512 26.376-121.113 36.404z"/><path d="M486 325.8A160.2 160.2 0 1 0 646.2 486 160.2 160.2 0 0 0 486 325.8zM360 486c0-28.936 10.143-55.263 26.543-76.535l175.992 175.992C541.266 601.855 514.934 612 486 612a126 126 0 0 1-126-126zm225.457 76.535L409.465 386.543C430.734 370.145 457.066 360 486 360a126 126 0 0 1 126 126c0 28.936-10.143 55.263-26.543 76.535z"/></svg>