<svg xmlns="http://www.w3.org/2000/svg" width="648" height="648" viewBox="0 0 648 648"><title>Efficient_18</title><path d="M165.138 244.134a27.012 27.012 0 0 1-9.914-52.128c4.061-1.6 100.037-39.34 170.754-55.226 86.273-19.393 151.77-23.744 154.538-23.915 14.66-1.239 27.686 10.336 28.661 25.22a27.015 27.015 0 0 1-25.207 28.674c-.633.04-64.31 4.311-146.18 22.7-66.656 14.979-161.79 52.394-162.738 52.776a27.062 27.062 0 0 1-9.914 1.899zM170.857 133.293a27.012 27.012 0 0 1-9.914-52.128c4.061-1.6 94.318-36.5 165.035-52.385 14.37-3.23 28.213-6.051 41.265-8.5a27 27 0 0 1 9.967 53.077 1185.099 1185.099 0 0 0-39.419 8.108c-66.656 14.977-156.07 49.551-157.019 49.933a27.062 27.062 0 0 1-9.915 1.895z"/><path d="M243 594v15.816a27 27 0 0 0 7.908 19.092l11.184 11.184A27 27 0 0 0 281.184 648h85.632a27 27 0 0 0 19.092-7.908l11.184-11.184A27 27 0 0 0 405 609.816V594a27 27 0 0 0 27-27v-35a27 27 0 0 0-27-27H243a27 27 0 0 0-27 27v35c0 25.887 27 27 27 27z" fill-rule="evenodd"/><path d="M174.619 348.353a27.012 27.012 0 0 1-9.914-52.128c4.061-1.6 90.556-35.559 161.273-51.445 86.273-19.393 151.77-23.744 154.538-23.915 14.66-1.239 27.686 10.336 28.661 25.22a27.015 27.015 0 0 1-25.207 28.674c-.633.04-64.31 4.311-146.18 22.7-66.656 14.977-152.308 48.611-153.257 48.993a27.062 27.062 0 0 1-9.914 1.901zM243 391.5V468h54v-76.5a66.715 66.715 0 0 0-7.462-30.217c-19.3 6.107-38.153 12.6-54.04 18.286A13.418 13.418 0 0 1 243 391.5zM476.165 324H418.5a67.571 67.571 0 0 0-67.5 67.5V468h54v-76.5a13.518 13.518 0 0 1 13.5-13.5h57.665a27 27 0 1 0 0-54z"/></svg>