<svg xmlns="http://www.w3.org/2000/svg" data-name="S_Email_18_N@2x" height="36" id="S_Email_18_N_2x" viewBox="0 0 36 36" width="36"><defs><style>.fill{fill:#707070}</style></defs><title>S_Email_18_N@2x</title><path class="fill" d="M18 20.188L36 6.665v-1.5A1.146 1.146 0 0 0 34.875 4H1.125A1.147 1.147 0 0 0 0 5.167v1.469zM24.779 17.963L36 26.367V9.541l-11.221 8.422z"/><path class="fill" d="M22.866 19.4l-3.576 2.694a2.171 2.171 0 0 1-2.58 0l-3.628-2.719L0 29.068v1.765A1.147 1.147 0 0 0 1.125 32h33.75A1.146 1.146 0 0 0 36 30.834v-1.59zM11.165 17.938L0 9.512v16.683l11.165-8.257z"/></svg>