<svg xmlns="http://www.w3.org/2000/svg" width="648" height="648" viewBox="0 0 648 648"><title>EmailCancel_18</title><path d="M324 327.38L648 83.967V57c0-11.593-9.066-21-20.25-21H20.25C9.068 36.005 0 45.41 0 57v26.44zM200.971 286.88L0 135.207v300.301L200.971 286.88zM264.6 486a220.409 220.409 0 0 1 37.652-123.539c-.457-.319-1.02-.426-1.477-.769l-65.3-48.937L0 487.226V519c0 11.6 9.07 21 20.25 21h251.262a221.028 221.028 0 0 1-6.912-54zM486 264.6c64.055 0 121.57 27.363 162 70.84v-199.7L475.62 265.122c3.463-.16 6.873-.522 10.38-.522zM486 325.8A160.2 160.2 0 1 0 646.2 486 160.2 160.2 0 0 0 486 325.8zm104.862 220.8a9 9 0 0 1 0 12.727l-31.535 31.535a9 9 0 0 1-12.727 0l-60.6-60.6-60.6 60.6a9 9 0 0 1-12.727 0l-31.535-31.535a9 9 0 0 1 0-12.727l60.6-60.6-60.6-60.6a9 9 0 0 1 0-12.729l31.535-31.533a9 9 0 0 1 12.727 0l60.6 60.6 60.6-60.6a9 9 0 0 1 12.727 0l31.535 31.533a9 9 0 0 1 0 12.729l-60.6 60.6z"/></svg>