<svg xmlns="http://www.w3.org/2000/svg" width="648" height="648" viewBox="0 0 648 648"><title>EmailGear_18</title><path d="M200.971 286.875L0 135.202V435.502l200.971-148.627zM628.644 444.206h-41.67a120.475 120.475 0 0 0-17.595-42.717l29.668-29.666a11.9 11.9 0 0 0 0-16.827l-18.035-18.035a11.9 11.9 0 0 0-16.83 0l-29.668 29.668a120.528 120.528 0 0 0-42.713-17.6v-41.665a11.9 11.9 0 0 0-11.9-11.9H456.1a11.9 11.9 0 0 0-11.9 11.9v41.665a120.528 120.528 0 0 0-42.713 17.6l-29.668-29.668a11.9 11.9 0 0 0-16.83 0L336.959 355a11.9 11.9 0 0 0 0 16.827l29.668 29.666a120.475 120.475 0 0 0-17.595 42.717h-41.67a11.9 11.9 0 0 0-11.9 11.9v23.8a11.9 11.9 0 0 0 11.9 11.9h41.67a120.475 120.475 0 0 0 17.595 42.717l-29.668 29.666a11.9 11.9 0 0 0 0 16.825l18.035 18.035a11.9 11.9 0 0 0 16.83 0l29.668-29.666a120.516 120.516 0 0 0 42.713 17.593v41.67a11.9 11.9 0 0 0 11.9 11.9h23.8a11.9 11.9 0 0 0 11.9-11.9v-41.67a120.516 120.516 0 0 0 42.713-17.593l29.668 29.666a11.9 11.9 0 0 0 16.83 0l18.035-18.035a11.9 11.9 0 0 0 0-16.825l-29.672-29.673a120.475 120.475 0 0 0 17.595-42.72h41.67a11.9 11.9 0 0 0 11.9-11.9v-23.8a11.9 11.9 0 0 0-11.9-11.894zM468 532.8a64.8 64.8 0 1 1 64.8-64.8 64.8 64.8 0 0 1-64.8 64.8z"/><path d="M305.156 534.955a55.165 55.165 0 0 1-52.91-55.055v-23.8a55.171 55.171 0 0 1 52.875-55.055 54.79 54.79 0 0 1-14.871-37.635 56.092 56.092 0 0 1 .879-8.954l-55.652-41.706L0 487.222v31.772C0 530.6 9.07 540 20.25 540h281.689c1.213-1.608 1.811-3.557 3.217-5.045zM324.457 306.4a54.7 54.7 0 0 1 38.953-16.137c2.777 0 5.273 1.107 7.98 1.51L648 83.962V57c0-11.593-9.07-21-20.25-21H20.25C9.07 36 0 45.4 0 57v26.435l312.311 235.133zM534.973 305.139a55.093 55.093 0 0 1 76.5 1.16l18.141 18.141a55.281 55.281 0 0 1 1.3 76.605A54.322 54.322 0 0 1 648 404.758V135.734L491.15 253.457a55.194 55.194 0 0 1 43.823 51.682z"/></svg>