<svg xmlns="http://www.w3.org/2000/svg" width="648" height="648" viewBox="0 0 648 648"><title>EmailSchedule_18</title><path d="M627.75 36H20.25C9.07 36 0 45.409 0 57v26.439l324 243.94L648 83.966V57c0-11.591-9.07-21-20.25-21zM0 135.207v300.3l200.971-148.628L0 135.207zM300.779 361.692l-65.3-48.937L0 487.226V519c0 11.6 9.07 21 20.25 21h251.262a219.44 219.44 0 0 1 30.744-177.543c-.456-.315-1.02-.422-1.477-.765zM486 264.6c64.055 0 121.57 27.363 162 70.84v-199.7L475.62 265.122c3.463-.16 6.873-.522 10.38-.522zM486 325.8A160.2 160.2 0 1 0 646.2 486 160.2 160.2 0 0 0 486 325.8zm0 286.2a126 126 0 0 1-18-250.715v128.45a12.118 12.118 0 0 0 3.551 8.576l52.137 52.132a12.121 12.121 0 0 0 17.147 0l16.207-16.2a12.129 12.129 0 0 0 0-17.154l-36.976-36.971a12.155 12.155 0 0 1-3.551-8.576V363.729A126.013 126.013 0 0 1 486 612z"/></svg>