<svg xmlns="http://www.w3.org/2000/svg" width="648" height="648" viewBox="0 0 648 648"><title>EmailKey_18</title><path d="M200.971 322.875L0 171.202V471.502l200.971-148.627zM638 639.586v-51.95l-67.722.006-.006-19.525h67.732V527.85a8.408 8.408 0 0 0-8.41-8.41h-59.319V412.766a99.854 99.854 0 0 0 41.091-24.456 100.934 100.934 0 1 0-142.743 0 99.776 99.776 0 0 0 41.637 24.61v218.252A16.829 16.829 0 0 0 527.086 648h102.508a8.411 8.411 0 0 0 8.406-8.414zm-74.214-314.3a33.645 33.645 0 1 1 0-47.581 33.648 33.648 0 0 1 .004 47.58z"/><path d="M399.2 358.574l-51.979 39.114a39.081 39.081 0 0 1-46.441 0l-65.3-48.937L0 523.222V555c0 11.6 9.07 21 20.25 21h446.8V444.509a146.765 146.765 0 0 1-67.85-85.935z"/><path d="M540 169.616a146.467 146.467 0 0 1 35.525 4.8L648 119.962V93c0-11.593-9.07-21-20.25-21H20.25C9.07 72 0 81.4 0 93v26.437l324 243.94 69.1-51.921c3.023-78.779 67.377-141.84 146.9-141.84z"/></svg>