<svg id="EmailCheck_18" xmlns="http://www.w3.org/2000/svg" width="648" height="648" viewBox="0 0 648 648"><defs><style/></defs><title>EmailCheck_18</title><path d="M324 327.375L648 83.962V57c0-11.593-9.066-21-20.25-21H20.25C9.068 36 0 45.4 0 57v26.435zM200.971 286.875L0 135.202V435.502l200.971-148.627zM264.6 486a220.335 220.335 0 0 1 37.666-123.539c-.466-.316-1.033-.431-1.485-.773l-65.3-48.937L0 487.222v31.772C0 530.6 9.07 540 20.25 540h251.262a220.98 220.98 0 0 1-6.912-54zM486 264.6c64.05 0 121.57 27.365 162 70.844v-199.71L475.616 265.122c3.467-.158 6.877-.522 10.384-.522zM486 325.8A160.2 160.2 0 1 0 646.2 486 160.2 160.2 0 0 0 486 325.8zm-42.083 257.618l-74.3-74.3a9 9 0 0 1 0-12.728l18.656-18.656a9 9 0 0 1 12.728 0l49.166 49.166 109.907-109.911a9 9 0 0 1 12.728 0l18.77 18.77a9 9 0 0 1 0 12.728l-134.927 134.93a9 9 0 0 1-12.728.001z"/></svg>