<svg xmlns="http://www.w3.org/2000/svg" width="648" height="648" viewBox="0 0 648 648"><title>EmailRefresh_18</title><path d="M324 327.38L648 83.967V57c0-11.593-9.066-21-20.25-21H20.25C9.068 36.005 0 45.41 0 57v26.44zM200.971 286.88L0 135.207v300.301L200.971 286.88zM264.6 486a220.409 220.409 0 0 1 37.652-123.539c-.457-.319-1.02-.426-1.477-.769l-65.3-48.937L0 487.226V519c0 11.6 9.07 21 20.25 21h251.262a221.028 221.028 0 0 1-6.912-54zM486 601.829c-34.471 0-63.853-13.52-85.878-38.206L441.659 522H324v117.9l45.07-45.156C398.47 627.381 440.077 648 486 648c86.133 0 156.331-71.55 162-162h-41.045c-5.66 64.8-57.507 115.829-120.955 115.829zM604.046 377.253C574.611 345.718 530.877 324 486 324c-86.133 0-156.331 71.55-162 162h41.045c5.66-64.8 57.507-115.831 120.955-115.831 41.309 0 66.067 16 87.68 38.1L532.811 450H648V332.369zM648 255.883V135.738L475.62 265.122c3.463-.16 6.873-.523 10.38-.523a218.729 218.729 0 0 1 117.87 34.708z"/></svg>