<svg xmlns="http://www.w3.org/2000/svg" width="648" height="648" viewBox="0 0 648 648"><title>EventShare_18</title><path d="M72 72h288v144l31.307 31.307L432 202.168V0H0v432h108v-72H72V72z"/><path d="M330.917 317.274l-171.554-170.62a8.823 8.823 0 0 0-6.3-2.654 8.994 8.994 0 0 0-9.063 9.018v410.053a8.994 8.994 0 0 0 9.062 9.018 8.823 8.823 0 0 0 6.3-2.654L252 443.81V396a36 36 0 0 1 36-36h40.192a53.58 53.58 0 0 1 2.725-42.726zM571 329.964L468 216 365.258 329.964a18 18 0 0 0 13.379 30.041H432v135a9 9 0 0 0 9 9h54a9 9 0 0 0 9-9v-135h53.618A18 18 0 0 0 571 329.964z"/><path d="M576 396v180H360V396h-54a18 18 0 0 0-18 18v216a18 18 0 0 0 18 18h324a18 18 0 0 0 18-18V414a18 18 0 0 0-18-18h-54z"/></svg>