<svg xmlns="http://www.w3.org/2000/svg" width="648" height="648" viewBox="0 0 648 648"><title>ExperienceAddTo_18</title><path d="M360 468H216v-72h144v-36H216v-72h288v36h72V54a18 18 0 0 0-18-18H18A18 18 0 0 0 0 54v468a18 18 0 0 0 18 18h342v-72zM72 108h432v144H72V108zm108 360H72V288h108v180z"/><path d="M637.091 522.909l-69.062-69.062L645.4 375.3a9 9 0 0 0-6.422-15.3H396v242.9a9.035 9.035 0 0 0 15.364 6.447l77.936-76.773 69.063 69.063a18 18 0 0 0 25.456 0l53.271-53.271a18 18 0 0 0 .001-25.457z"/></svg>