<svg xmlns="http://www.w3.org/2000/svg" width="648" height="648" viewBox="0 0 648 648"><title>ExperienceAdd_18</title><path d="M264.6 487.8c0-6.684.422-13.265 1-19.8H216v-72h68.7a221.667 221.667 0 0 1 20.7-36H216v-72h175.1a219.69 219.69 0 0 1 184.9-2.362V54a18 18 0 0 0-18-18H18A18 18 0 0 0 0 54v468a18 18 0 0 0 18 18h253.055a220.306 220.306 0 0 1-6.455-52.2zM72 108h432v144H72V108zm108 360H72V288h108v180z"/><path d="M486 325.8A160.2 160.2 0 1 0 646.2 486 160.2 160.2 0 0 0 486 325.8zM576 495a9 9 0 0 1-9 9h-63v63a9 9 0 0 1-9 9h-18a9 9 0 0 1-9-9v-63h-63a9 9 0 0 1-9-9v-18a9 9 0 0 1 9-9h63v-63a9 9 0 0 1 9-9h18a9 9 0 0 1 9 9v63h63a9 9 0 0 1 9 9v18z"/></svg>