<svg xmlns="http://www.w3.org/2000/svg" data-name="S_Exposure_18_N@2x" height="36" id="S_Exposure_18_N_2x" viewBox="0 0 36 36" width="36"><defs><style>.fill{fill:#707070}</style></defs><title>S_Exposure_18_N@2x</title><path class="fill" d="M6.17 7.266a15.809 15.809 0 0 0-3.4 15.558h8.566zM24.515 3.411A15.84 15.84 0 0 0 8.786 4.94l2.643 7.966zM33.942 19.154c.03-.382.058-.765.058-1.154a15.951 15.951 0 0 0-6.458-12.812L21.043 9.9zM26.85 18.026l-5.006 15.482a16 16 0 0 0 11.448-10.862zM18.31 33.984l2.568-7.944H4.183A15.979 15.979 0 0 0 18 34c.1 0 .207-.008.31-.016z"/></svg>