<svg xmlns="http://www.w3.org/2000/svg" data-name="S_ExportOriginal_18_N@2x" height="36" id="S_ExportOriginal_18_N_2x" viewBox="0 0 36 36" width="36"><defs><style>.fill{fill:#707070}</style></defs><title>S_ExportOriginal_18_N@2x</title><path class="fill" d="M12 21v-6a1 1 0 0 1 1-1h13V5a1 1 0 0 0-1-1H1a1 1 0 0 0-1 1v26a1 1 0 0 0 1 1h24a1 1 0 0 0 1-1v-9H13a1 1 0 0 1-1-1z"/><path class="fill" d="M28 11.207V16H14.5a.5.5 0 0 0-.5.5v3a.5.5 0 0 0 .5.5H28v4.793a.5.5 0 0 0 .854.354L35.913 18l-7.06-7.146a.5.5 0 0 0-.853.353z"/></svg>