<svg xmlns="http://www.w3.org/2000/svg" width="648" height="648" viewBox="0 0 648 648"><title>Extension_18</title><path d="M576 144h-36V21.867a13.5 13.5 0 0 0-13.5-13.5h-27a13.5 13.5 0 0 0-13.5 13.5V144H378V21.867a13.5 13.5 0 0 0-13.5-13.5h-27a13.5 13.5 0 0 0-13.5 13.5V144h-36a36 36 0 0 0-36 36v36a36 36 0 0 0 36 36h.633v99a81 81 0 0 0 81 81H405v54c-6.609 45.738-46.934 81-94.5 81s-87.891-35.262-94.5-81V207.653c0-48.676-34.453-93.14-82.793-98.947a93.534 93.534 0 0 0-98.842 58.906 13.8 13.8 0 0 0 7.1 17.9l23.2 9.969c7.189 3.085 16.137.2 18.861-7.117A40.509 40.509 0 0 1 162 202.5V486c6.82 75.676 71.051 135 148.5 135S452.18 561.676 459 486v-54h34.893a81 81 0 0 0 81-81v-99H576a36 36 0 0 0 36-36v-36a36 36 0 0 0-36-36z" fill-rule="evenodd"/></svg>