<svg xmlns="http://www.w3.org/2000/svg" width="648" height="648" viewBox="0 0 648 648"><title>Eyedropper_18</title><path d="M542.576 258.159L517.12 232.7l81.457-81.457a64.8 64.8 0 0 0 0-91.642L588.4 49.421a64.8 64.8 0 0 0-91.642 0L415.3 130.88l-25.456-25.456a18 18 0 0 0-25.456 0l-60.5 60.5a18 18 0 0 0 0 25.456l12.722 12.73-182.7 182.7a107.985 107.985 0 0 0-28.865 52.09l-.444 1.917c-2.438 10.576-13.252 23.192-21.683 27.737s-22.036 11.574-31.445 20.983c-20.1 20.1-29.636 46.282-28.028 70.45 1.121 16.848 7.657 32.717 19.8 44.864 13.27 13.27 30.982 19.844 49.559 19.978 22.822.163 46.951-9.394 65.756-28.2 9.574-9.574 15.153-21.806 21.2-32.039s16.848-18.75 27.424-21.188l1.917-.444a107.985 107.985 0 0 0 52.088-28.866l182.7-182.7 12.728 12.728a18 18 0 0 0 25.456 0l60.5-60.5a18 18 0 0 0 .003-25.461zM235.735 488.633a71.934 71.934 0 0 1-34.761 19.252l-1.877.435c-19.929 4.594-39.217 19.14-50.331 37.957-1.507 2.551-2.992 5.211-4.5 7.927-3.744 6.734-7.284 13.095-11.156 16.966-9.841 9.841-22.135 15.7-33.873 17.2s-22.918-1.366-30.531-8.98-10.476-18.788-8.98-30.522 7.36-24.037 17.2-33.881c5.1-5.1 14.947-10.385 21.46-13.884l1.585-.851c15.8-8.517 34.534-28.9 39.7-51.311l.454-1.958a71.9 71.9 0 0 1 19.243-34.721l182.7-182.7 76.368 76.368z"/></svg>