<svg xmlns="http://www.w3.org/2000/svg" width="648" height="648" viewBox="0 0 648 648"><title>FacebookCoverImage_18</title><path d="M236.45 510.207v-18.24a12.7 12.7 0 0 1 3.18-8.141c13.377-16.026 21.678-38.607 21.678-60.113 0-45.491-23.876-70.912-59.949-70.912s-60.631 26.421-60.631 70.912c0 21.5 9.339 44.086 22.716 60.111a12.7 12.7 0 0 1 3.18 8.143v18.16c0 6.04-4.355 12.077-10.816 12.644C83.326 529.143 72 579.244 72 599c0 2.2.256 10.833.415 13h258.56s.225-10.8.225-13c0-18.936-12.8-68.857-83.969-76.16-6.437-.658-10.78-6.607-10.781-12.633z"/><path d="M594 72H54a18 18 0 0 0-18 18v421.2a27.92 27.92 0 0 0 5.238 16.236 132.055 132.055 0 0 1 57.973-46.147c-8.016-18.527-12.48-38.479-12.48-57.568a148.709 148.709 0 0 1 8.051-49.131A228.718 228.718 0 0 0 72 384.814V144h504v273.36a110.786 110.786 0 0 1-81.176-43.5c-24.75-32.583-58.974-71.46-81.334-71.46-30.5 0-66.973 59.533-100.811 92.9a159.134 159.134 0 0 1 2.637 28.419 149.434 149.434 0 0 1-11.918 57.9c31.2 13.085 52.734 34.44 65.971 58.377H594a18 18 0 0 0 18-18V90a18 18 0 0 0-18-18z"/></svg>