<svg xmlns="http://www.w3.org/2000/svg" width="648" height="648" viewBox="0 0 648 648"><title>Fast_18</title><path d="M502.368 241.769a85.209 85.209 0 0 0-18.944-.762L333.28 106.169s-8.51 43.049 17.364 83.462c14.537 22.717 56.513 48.531 90.5 66.783-11.483 8.987-19.687 21.164-22.077 35.663a55.132 55.132 0 0 0 1.766 25.14c-19.807-22.741-58.943-61.183-106.5-74.2-97.874-26.79-134.577-11.893-160.685-9.065a50.087 50.087 0 1 0-39.322 25.537l-5.084 12.441c-51.2 105.758 19.3 161.851 61.983 185.9 15.09 8.5 63.536 27.629 63.536 27.629l-64.9 46.992A33.293 33.293 0 0 0 159.624 576s57.854-34.813 118.43-71.715l81.975 35.643a38.54 38.54 0 0 0 47.619-14.976l-85.825-47.412c32.989-20.243 62.647-38.65 79.148-49.4 29.378-19.135 41.379-32.218 60.084-68.328a84.889 84.889 0 0 0 20.9 6.536c40.357 6.618 99.924-12.255 105.566-46.658s-44.783-71.303-85.153-77.921zM278.651 453.691l-53.911-29.782c16.793-18.639 25.777-34.24 30.45-51.323 43.052 20.822 85.909 35.888 85.909 35.888z"/></svg>