<svg xmlns="http://www.w3.org/2000/svg" width="648" height="648" viewBox="0 0 648 648"><title>FeedManagement_18</title><path d="M265.324 504H108V396h175.676a220.759 220.759 0 0 1 20.268-36H108V252h432v19.244a219.723 219.723 0 0 1 36 12.426V90a17.994 17.994 0 0 0-18-18H90a17.994 17.994 0 0 0-18 18v432a18 18 0 0 0 18 18h181.248a220.725 220.725 0 0 1-5.924-36zM108 108h432v108H108V108z"/><path d="M486 325.8A160.2 160.2 0 1 0 646.2 486 160.2 160.2 0 0 0 486 325.8zM576 495a9 9 0 0 1-9 9h-63v63a9 9 0 0 1-9 9h-18a9 9 0 0 1-9-9v-63h-63a9 9 0 0 1-9-9v-18a9 9 0 0 1 9-9h63v-63a9 9 0 0 1 9-9h18a9 9 0 0 1 9 9v63h63a9 9 0 0 1 9 9v18z"/></svg>