<svg xmlns="http://www.w3.org/2000/svg" width="648" height="648" viewBox="0 0 648 648"><title>FileChart_18</title><path fill-rule="evenodd" d="M360 36v180h180L360 36z"/><path d="M342 252h198v342a18 18 0 0 1-18 18H126a18 18 0 0 1-18-18V54a18 18 0 0 1 18-18h198v198a18 18 0 0 0 18 18zm9 180h-54a9 9 0 0 0-9 9v90a9 9 0 0 0 9 9h54a9 9 0 0 0 9-9v-90a9 9 0 0 0-9-9zm-108 36h-54a9 9 0 0 0-9 9v54a9 9 0 0 0 9 9h54a9 9 0 0 0 9-9v-54a9 9 0 0 0-9-9zm216-108h-54a9 9 0 0 0-9 9v162a9 9 0 0 0 9 9h54a9 9 0 0 0 9-9V369a9 9 0 0 0-9-9z" fill-rule="evenodd"/></svg>