<svg xmlns="http://www.w3.org/2000/svg" width="648" height="648" viewBox="0 0 648 648"><title>FileMobile_18</title><path fill-rule="evenodd" d="M180 36v180H0L180 36z"/><path d="M594 144H342a18 18 0 0 0-18 18v432a18 18 0 0 0 18 18h252a18 18 0 0 0 18-18V162a18 18 0 0 0-18-18zm-144 36.009h36c9.941 0 18 9.128 18 18s-8.059 18-18 18h-36c-9.941 0-18-8.692-18-18s8.059-18 18-18zM467.947 595.8a37.8 37.8 0 1 1 37.8-37.8 37.8 37.8 0 0 1-37.8 37.8zM576 504H360V252h216v252z"/><path d="M288 576V152.652A44.652 44.652 0 0 1 332.652 108H468V54a18 18 0 0 0-18-18H216v198a18 18 0 0 1-18 18H0v342a18 18 0 0 0 18 18h280.02A71.133 71.133 0 0 1 288 576z" fill-rule="evenodd"/></svg>