<svg xmlns="http://www.w3.org/2000/svg" width="648" height="648" viewBox="0 0 648 648"><title>FilePDF_18</title><path fill-rule="evenodd" d="M360 36v180h180L360 36z"/><path d="M293.52 306.563c0-13.737-4.271-20.347-12.832-20.347-4.148 0-6.609 1.683-8.93 5.7l-.387.91c-6.873 11.795-1.687 43.022 12.182 77.5.386 1.034 10.107-48.862 9.967-63.763zm40.57 155.391l.387-.132a5.967 5.967 0 0 1-.281.044c-.141.048-.124.07-.106.087zm-182.6 90.976c-.773 4.148.387 7.778 3.885 11.017a11.086 11.086 0 0 0 7.77 2.852c14.906 0 38.76-25.4 62.982-67-43.543 18.14-71.791 38.228-74.639 53.13zm137.25-148.781c-4.676 14-8.174 27.738-13.605 41.212-4.676 11.276-10.512 23.722-17.244 36.549 11.531-3.889 26.314-9.461 38.742-12.828 13.957-3.713 24.768-4.909 37.406-7.185-9.58-9.321-20.18-20.184-28.986-32.344a299.466 299.466 0 0 1-16.315-25.406zm124.154 59.361c-11.021-2.338-34.225-3.111-63.387 2.2 14.133 12.309 29.549 23.717 51.064 28.771a30.369 30.369 0 0 0 8.033 1.037c9.984 0 18.018-4.8 19.582-12.832 1.933-10.107-4.149-16.848-15.293-19.177zM342 252a18 18 0 0 1-18-18V36H126a18 18 0 0 0-18 18v540a18 18 0 0 0 18 18h396a18 18 0 0 0 18-18V252H342zm105.75 231.592a18.418 18.418 0 0 1-1.16 6.354c-1.951 5.054-9.334 18.141-28.266 18.141-15.293 0-44.437-7.9-79.049-39.27-13.992 2.465-27.088 4.8-42.645 8.947-14.379 3.757-30.445 9.457-43.8 14.124C228.99 534.916 197.49 576 168.979 576c-8.947 0-13.342-1.815-18.527-7-4.676-4.667-7.26-12.832-6.223-18.8 3.762-21.511 37.318-42.9 87.082-62.723 9.088-16.33 17.121-30.067 24.381-47.435 8.684-21.129 14.115-38.1 20.215-56.5-17.508-38.624-23.08-79.058-13.359-95.774 3.252-5.572 8.824-11.54 17.754-11.927 22.939-.773 29.689 28.125 29.689 43.673 0 20.61-6.609 45.105-15.82 73.358 5.572 10.107 13.605 24.754 20.479 34.211 9.457 13.351 19.178 22.166 29.549 31.887 18.018-2.984 32.01-4.412 46.406-4.412 25.646 0 43.664 6.482 52.348 15.812a19.745 19.745 0 0 1 4.8 12.964v.255z" fill-rule="evenodd"/></svg>