<svg xmlns="http://www.w3.org/2000/svg" width="648" height="648" viewBox="0 0 648 648"><title>FileGlobe_18</title><path fill-rule="evenodd" d="M360 36v180h180L360 36z"/><path d="M470.817 526.895c19.843 29.532 49.924 74.871 33.976 115.52a55 55 0 0 1-8.329-1.32c-44.715-9.48-108.024-52.758-108.024-125.381a128.1 128.1 0 0 1 52.079-102.7c2.123 25.792-19.412 38.783-11.07 68.965 9.82 35.521 24.843 20.321 41.368 44.916zm162.945-2.978c-12.834-4.886-23.842 11.756-24.819-33.189-.265-12.159 4.532-21.4 13.283-31.88a24.547 24.547 0 0 1 5.809-2.78c-1.522-2.782-3.222-5.451-4.94-8.11-.3.155-.563.353-.869.5-9.962 4.649-11.343 6.018-15.94 0-6.587-8.622-.919-15.411 2.758-18.537-23.44-25.3-56.629-41.556-92.878-41.614 16.163.222 35.44 12.19 25.61 31.314 1.477-3.038-32.095-10.282-36.659-10.282-6.154 0 12.558-23.025 10.842-21.032a128.154 128.154 0 0 0-52.719 11.341c8.709 5.629 18.42 3.662 28.239 6.089 2.1.243 4.952 1.345 8.754 3.6a29.47 29.47 0 0 0-8.754-3.6c-14.488-1.679 7.011 38.075 6.2 32.787 3.967-18.267 28.789-25.315 36.388-1.17.684 2-1.246 10.915-6.676 18.052-11.24 14.776-13.518 41.076-19.128 34.349-52.525-21.508-46.745 6.943-29.5 25.963 27.6 30.448 13.6 3.121 49.75 19.063 29.074 12.819 64.065 15.853 55.527 25.521-25.832 29.251-20.4 48.638-66.093 82.922 3.806-.1 15.93-1.314 18.42-1.72C593 632.28 637.78 583.658 642.96 526.723a19.126 19.126 0 0 1-9.198-2.806z"/><path d="M334.635 515.566A181.133 181.133 0 0 1 540 336.12V252H342a18 18 0 0 1-18-18V36H126a17.994 17.994 0 0 0-18 18v540a18 18 0 0 0 18 18h236.426a180.284 180.284 0 0 1-27.791-96.434z" fill-rule="evenodd"/></svg>