<svg xmlns="http://www.w3.org/2000/svg" width="648" height="648" viewBox="0 0 648 648"><title>FileWord_18</title><path fill-rule="evenodd" d="M360 36v180h180L360 36z"/><path d="M342 252a18 18 0 0 1-18-18V36H126a18 18 0 0 0-18 18v540a18 18 0 0 0 18 18h396a18 18 0 0 0 18-18V252H342zm77.309 287.859c-2.777 7.348-8.4 7.348-10.23 7.348H373.57c-5.941 0-8.3-3.129-9.7-5.854l-7.84-32.941c-7.7-33.135-17.473-75.3-24.4-106.418-8.086 34.031-20.461 80.859-29.5 115.031l-5.766 21.85a10.054 10.054 0 0 1-10.266 8.332H251.3c-6.152 0-8.719-4.289-9.809-6.117l-56.639-216.229 2.637-4.939 2.18-2.566 5.027-.562h37.2c8.332 0 10.055 5.959 10.406 8.525 16.1 67.57 25 106.541 30.164 131.221 1.652-6.838 3.586-14.713 5.8-23.854 6.012-24.7 14.344-58.816 25.875-107.7.633-4.641 4.816-8.191 10.266-8.191h38.109c7.031 0 8.895 5.748 9.492 7.646l4.184 17.578c8.895 37.6 18.633 78.926 26.332 114.311 5.555-27.369 14.344-68.783 28.266-131.256a10.078 10.078 0 0 1 10.3-8.279h37.828l4.148 3.2a9.789 9.789 0 0 1 1.969 8.1z" fill-rule="evenodd"/></svg>