<svg xmlns="http://www.w3.org/2000/svg" width="648" height="648" viewBox="0 0 648 648"><title>FileZip_18</title><path fill-rule="evenodd" d="M360 36v180h180L360 36z"/><path d="M342 252a18 18 0 0 1-18-18V36h-72v279a9 9 0 0 1-9 9h-18a9 9 0 0 1-9-9V36h-90a18 18 0 0 0-18 18v540a18 18 0 0 0 18 18h90v-63a9 9 0 0 1 9-9h18a9 9 0 0 1 9 9v63h270a18 18 0 0 0 18-18V252H342zm-18 234a18 18 0 0 1-18 18H162a18 18 0 0 1-18-18V306a18 18 0 0 1 18-18h18v72h108v-72h18a18 18 0 0 1 18 18v180z" fill-rule="evenodd"/><ellipse cx="234" cy="432" rx="39.34" ry="39.349"/></svg>