<svg xmlns="http://www.w3.org/2000/svg" width="648" height="648" viewBox="0 0 648 648"><title>FileImportant_18</title><path d="M342 252a18 18 0 0 1-18-18V36H126a18 18 0 0 0-18 18v540a18 18 0 0 0 18 18h396a18 18 0 0 0 18-18V252H342zm-157.729-39.1c0-2.457 0-4.887 3.076-6.724 7.945-4.271 27.492-7.348 36.633-7.348 12.27 0 31.184 2.457 37.283 5.511a7.624 7.624 0 0 1 3.674 6.724v44.007c0 51.328-10.371 123.579-12.217 141.917 0 1.837-.6 3.656-4.271 3.656h-48.885c-2.443 0-3.674-1.222-4.271-3.656-1.248-17.121-11.021-88.752-11.021-140.08V212.9zm39.709 334.817c-31.148 0-52.154-18.835-52.154-48.56 0-28.986 21.727-49.992 52.154-49.992 31.184 0 52.207 20.3 52.207 49.992.001 30.432-21.726 48.56-52.207 48.56z" fill-rule="evenodd"/><path fill-rule="evenodd" d="M360 36v180h180L360 36z"/></svg>