<svg xmlns="http://www.w3.org/2000/svg" width="648" height="648" viewBox="0 0 648 648"><title>FileHTML_18</title><path fill-rule="evenodd" d="M360 36v180h180L360 36z"/><path d="M342 252a18 18 0 0 1-18-18V36H126a17.994 17.994 0 0 0-18 18v540a18 18 0 0 0 18 18h396a18 18 0 0 0 18-18V252H342zm141.979 295.207h-50.415v-72h-57.585v72h-50.415V352.793h50.414v72h57.586v-72h50.414v194.414zm-197.15-19.624a4.63 4.63 0 0 1-3.758 7.335h-49.4a4.617 4.617 0 0 1-3.7-1.85L167.673 450l62.3-83.069a4.61 4.61 0 0 1 3.7-1.85h49.4a4.629 4.629 0 0 1 3.758 7.333L223.737 450z" fill-rule="evenodd"/></svg>