<svg xmlns="http://www.w3.org/2000/svg" width="648" height="648" viewBox="0 0 648 648"><title>FileTemplate_18</title><path fill-rule="evenodd" d="M360 36v180h180L360 36z"/><path d="M342 252a18 18 0 0 1-18-18V36H126a18 18 0 0 0-18 18v540a18 18 0 0 0 18 18h396a18 18 0 0 0 18-18V252H342zm-90 270a18 18 0 0 1-18 18h-72a18 18 0 0 1-18-18v-72a18 18 0 0 1 18-18h72a18 18 0 0 1 18 18v72zm0-144a18 18 0 0 1-18 18h-72a18 18 0 0 1-18-18v-72a18 18 0 0 1 18-18h72a18 18 0 0 1 18 18v72zm0-144a18 18 0 0 1-18 18h-72a18 18 0 0 1-18-18v-72a18 18 0 0 1 18-18h72a18 18 0 0 1 18 18v72z" fill-rule="evenodd"/></svg>