<svg xmlns="http://www.w3.org/2000/svg" width="648" height="648" viewBox="0 0 648 648"><title>FileKey_18</title><path fill-rule="evenodd" d="M360 36v180h180L360 36z"/><path d="M410.783 445.86a33.4 33.4 0 1 0 33.416 33.4 33.4 33.4 0 0 0-33.416-33.4zM342 252a18 18 0 0 1-18-18V36H126a18 18 0 0 0-18 18v540a18 18 0 0 0 18 18h396a18 18 0 0 0 18-18V252H342zm38.777 287.139c-33.908-4.913-61.488-32.44-66.3-66.353a80.887 80.887 0 0 1 .861-28.239l-38.162-39.379V369.94h-42.5a6.1 6.1 0 0 1-6.082-6.073v-42.513h-42.5a6.088 6.088 0 0 1-6.094-6.073v-60.732a6.088 6.088 0 0 1 6.082-6.073h27.826a6.286 6.286 0 0 1 4.307 1.767L358 390.037a78.131 78.131 0 0 1 36.035-7.95c44.244.817 80.227 40.14 77.326 84.27a78.966 78.966 0 0 1-90.584 72.782z" fill-rule="evenodd"/></svg>