<svg xmlns="http://www.w3.org/2000/svg" width="648" height="648" viewBox="0 0 648 648"><title>FileXML_18</title><path fill-rule="evenodd" d="M360 36v180h180L360 36z"/><path d="M342 252a18 18 0 0 1-18-18V36H126a18 18 0 0 0-18 18v540a18 18 0 0 0 18 18h396a18 18 0 0 0 18-18V252H342zm127.248 301.539h-34.77c-4.957 0-8.543-2.092-10.617-6.187 0 0-25.383-43.277-34.348-58.869a2911.052 2911.052 0 0 1-32.941 59.2 10.183 10.183 0 0 1-9.6 5.854h-33.1a8.572 8.572 0 0 1-7.312-13.047l52.928-86.445-51.68-85.61a8.573 8.573 0 0 1 7.33-13h34.031a12.044 12.044 0 0 1 10.512 6.152l32.361 57.551 30.779-57.344a12.062 12.062 0 0 1 10.617-6.359h32.15a8.572 8.572 0 0 1 7.313 13.039l-50.941 83.342 54.58 88.66a8.573 8.573 0 0 1-7.292 13.063zM263.157 522.5a4.63 4.63 0 0 1-3.758 7.335H210a4.617 4.617 0 0 1-3.7-1.85L144 444.918l62.3-83.069A4.61 4.61 0 0 1 210 360h49.4a4.629 4.629 0 0 1 3.758 7.333l-63.093 77.585z" fill-rule="evenodd"/></svg>