<svg xmlns="http://www.w3.org/2000/svg" width="648" height="648" viewBox="0 0 648 648"><title>FileAdd_18</title><path fill-rule="evenodd" d="M288 36v180H108L288 36z"/><path d="M264.6 486c0-122.276 99.123-221.4 221.4-221.4a221.756 221.756 0 0 1 54 6.645V54a17.994 17.994 0 0 0-18-18H324v198a18 18 0 0 1-18 18H108v342a18 18 0 0 0 18 18h177.943A220.335 220.335 0 0 1 264.6 486z" fill-rule="evenodd"/><path d="M486 325.8A160.2 160.2 0 1 0 646.2 486 160.2 160.2 0 0 0 486 325.8zM576 495a9 9 0 0 1-9 9h-63v63a9 9 0 0 1-9 9h-18a9 9 0 0 1-9-9v-63h-63a9 9 0 0 1-9-9v-18a9 9 0 0 1 9-9h63v-63a9 9 0 0 1 9-9h18a9 9 0 0 1 9 9v63h63a9 9 0 0 1 9 9v18z"/></svg>