<svg xmlns="http://www.w3.org/2000/svg" width="648" height="648" viewBox="0 0 648 648"><title>FileExcel_18</title><path fill-rule="evenodd" d="M360 36v180h180L360 36z"/><path d="M342 252a18 18 0 0 1-18-18V36H126a17.994 17.994 0 0 0-18 18v540a18 18 0 0 0 18 18h396a18 18 0 0 0 18-18V252H342zm8.789 297.457s-25-49.887-33.152-66.393c-7.137 16.611-17.93 39.955-24.539 54.246l-5.59 12.146H216l65.18-113.994L218.285 324h71.648l7 14.537c7.066 14.7 15.891 32.959 22.852 48.234 6.5-15.926 13.465-30.867 20.777-46.477L348.117 324H419.7l-63.637 110.232 66.762 115.225h-72.036z" fill-rule="evenodd"/></svg>