<svg xmlns="http://www.w3.org/2000/svg" width="648" height="648" viewBox="0 0 648 648"><title>FileCode_18</title><path fill-rule="evenodd" d="M360 36v180h180L360 36z"/><path d="M342 252a18 18 0 0 1-18-18V36H126a17.994 17.994 0 0 0-18 18v540a18 18 0 0 0 18 18h396a18 18 0 0 0 18-18V252H342zm-79.792 274.059a4.63 4.63 0 0 1-3.758 7.335h-49.4a4.617 4.617 0 0 1-3.7-1.85l-62.3-83.069 62.3-83.069a4.61 4.61 0 0 1 3.7-1.85h49.4a4.629 4.629 0 0 1 3.758 7.333l-63.093 77.585zM312 559.254h-33.6a9.248 9.248 0 0 1-8.907-11.737L336.9 306.1a9.268 9.268 0 0 1 8.925-6.762h33.606a9.258 9.258 0 0 1 8.907 11.74L320.91 552.492a9.247 9.247 0 0 1-8.91 6.762zm130.648-27.709a4.668 4.668 0 0 1-3.7 1.85h-49.4a4.63 4.63 0 0 1-3.758-7.335l63.093-77.583-63.093-77.585a4.629 4.629 0 0 1 3.758-7.333h49.4a4.662 4.662 0 0 1 3.7 1.85l62.3 83.069z" fill-rule="evenodd"/></svg>