<svg xmlns="http://www.w3.org/2000/svg" width="648" height="648" viewBox="0 0 648 648"><title>FileTxt_18</title><path fill-rule="evenodd" d="M360 36v180h180L360 36z"/><path d="M342 252a18 18 0 0 1-18-18V36H126a18 18 0 0 0-18 18v540a18 18 0 0 0 18 18h396a18 18 0 0 0 18-18V252H342zm126 279a9 9 0 0 1-9 9H189a9 9 0 0 1-9-9v-18a9 9 0 0 1 9-9h270a9 9 0 0 1 9 9v18zm0-72a9 9 0 0 1-9 9H189a9 9 0 0 1-9-9v-18a9 9 0 0 1 9-9h270a9 9 0 0 1 9 9v18zm0-72a9 9 0 0 1-9 9H189a9 9 0 0 1-9-9v-18a9 9 0 0 1 9-9h270a9 9 0 0 1 9 9v18z" fill-rule="evenodd"/></svg>