<svg xmlns="http://www.w3.org/2000/svg" width="648" height="648" viewBox="0 0 648 648"><title>FileCSV_18</title><path fill-rule="evenodd" d="M360 36v180h180L360 36z"/><path d="M342 252a18 18 0 0 1-18-18V36H126a17.994 17.994 0 0 0-18 18v540a18 18 0 0 0 18 18h396a18 18 0 0 0 18-18V252H342zM194.259 557.256A13.081 13.081 0 0 1 180 544.241v-6.007c0-5.337 2.972-11.164 8.231-12.087 25.628-4.5 56.453-22.82 56.453-47.357a78.009 78.009 0 0 1-63.728-89.159c5.2-33.95 33.464-61.075 67.573-65.079a77.99 77.99 0 0 1 87.4 77.415c.002 102.865-76.342 149.38-141.67 155.289z" fill-rule="evenodd"/></svg>