<svg xmlns="http://www.w3.org/2000/svg" data-name="S_FilmrollAutoAdd_18_N@2x" height="36" id="S_FilmrollAutoAdd_18_N_2x" viewBox="0 0 36 36" width="36"><defs><style>.fill{fill:#707070}</style></defs><title>S_FilmrollAutoAdd_18_N@2x</title><path class="fill" d="M32 26v-3a1 1 0 0 0-1-1h-2a1 1 0 0 0-1 1v3h-3a1 1 0 0 0-1 1v2a1 1 0 0 0 1 1h3v3a1 1 0 0 0 1 1h2a1 1 0 0 0 1-1v-3h3a1 1 0 0 0 1-1v-2a1 1 0 0 0-1-1z"/><rect class="fill" height="22" rx="1" ry="1" width="14" y="8"/><path class="fill" d="M20 24a5.015 5.015 0 0 1 5-5h1a2 2 0 0 0 2-2v-5a2 2 0 0 0-2-2H16v18h2a2 2 0 0 0 2-2zM10 6V4a1 1 0 0 0-1-1H5a1 1 0 0 0-1 1v2z"/></svg>