<svg xmlns="http://www.w3.org/2000/svg" width="648" height="648" viewBox="0 0 648 648"><title>Film_18</title><path d="M594 36H54a18 18 0 0 0-18 18v540a18 18 0 0 0 18 18h540a18 18 0 0 0 18-18V54a18 18 0 0 0-18-18zM108 567a9 9 0 0 1-9 9H81a9 9 0 0 1-9-9v-54a9 9 0 0 1 9-9h18a9 9 0 0 1 9 9v54zm0-108a9 9 0 0 1-9 9H81a9 9 0 0 1-9-9v-54a9 9 0 0 1 9-9h18a9 9 0 0 1 9 9v54zm0-108a8.995 8.995 0 0 1-9 9H81a8.995 8.995 0 0 1-9-9v-54a9 9 0 0 1 9-9h18a9 9 0 0 1 9 9v54zm0-108a9 9 0 0 1-9 9H81a9 9 0 0 1-9-9v-54a9 9 0 0 1 9-9h18a9 9 0 0 1 9 9v54zm0-108a9 9 0 0 1-9 9H81a9 9 0 0 1-9-9V81a9 9 0 0 1 9-9h18a9 9 0 0 1 9 9v54zm360 180c0 4.97-3.217 9-7.207 9H187.207c-3.99 0-7.207-4.03-7.207-9v-18c0-4.97 3.217-9 7.207-9h273.586c3.99 0 7.207 4.03 7.207 9v18zm108 252a9 9 0 0 1-9 9h-18a9 9 0 0 1-9-9v-54a9 9 0 0 1 9-9h18a9 9 0 0 1 9 9v54zm0-108a9 9 0 0 1-9 9h-18a9 9 0 0 1-9-9v-54a9 9 0 0 1 9-9h18a9 9 0 0 1 9 9v54zm0-108a8.995 8.995 0 0 1-9 9h-18a8.995 8.995 0 0 1-9-9v-54a9 9 0 0 1 9-9h18a9 9 0 0 1 9 9v54zm0-108a9 9 0 0 1-9 9h-18a9 9 0 0 1-9-9v-54a9 9 0 0 1 9-9h18a9 9 0 0 1 9 9v54zm0-108a9 9 0 0 1-9 9h-18a9 9 0 0 1-9-9V81a9 9 0 0 1 9-9h18a9 9 0 0 1 9 9v54z" fill-rule="evenodd"/></svg>