<svg xmlns="http://www.w3.org/2000/svg" width="648" height="648" viewBox="0 0 648 648"><title>FilterHeart_18</title><path d="M266.4 486c0-57.048 20.1-102.9 57.6-151.4S535.192 65.1 535.192 65.1A18 18 0 0 0 521.024 36H18.976A18 18 0 0 0 4.808 65.1L216 334.6v275.638c0 17.668 18.721 26.864 30.243 14.84l42.082-43.91A218.33 218.33 0 0 1 266.4 486z"/><path d="M486 325.8A160.2 160.2 0 1 0 646.207 486 160.206 160.206 0 0 0 486 325.8zm0 286.2s-126-97.233-126-148.909a68.722 68.722 0 0 1 68.73-68.726c23.906 0 44.965 15.825 57.27 34.361 12.3-18.536 33.363-34.361 57.27-34.361A68.722 68.722 0 0 1 612 463.091C612 514.767 486 612 486 612z"/></svg>