<svg xmlns="http://www.w3.org/2000/svg" width="648" height="648" viewBox="0 0 648 648"><title>FilterStar_18</title><path d="M266.4 486c0-57.048 20.1-102.9 57.6-151.4S535.192 65.1 535.192 65.1A18 18 0 0 0 521.024 36H18.976A18 18 0 0 0 4.808 65.1L216 334.6v275.638c0 17.668 18.721 26.864 30.243 14.84l42.082-43.91A218.33 218.33 0 0 1 266.4 486z"/><path d="M486 325.8A160.2 160.2 0 1 0 646.207 486 160.206 160.206 0 0 0 486 325.8zm123.73 127.49l-68.2 54.658 23.051 84.308a3.643 3.643 0 0 1-5.514 4L486 548.294l-73.066 47.967a3.643 3.643 0 0 1-5.514-4l23.05-84.311-68.2-54.658a3.645 3.645 0 0 1 2.108-6.488l87.3-4.136 30.917-81.754a3.639 3.639 0 0 1 6.812 0l30.917 81.754 87.3 4.136a3.645 3.645 0 0 1 2.106 6.488z"/></svg>