<svg id="FilterCheck_18" xmlns="http://www.w3.org/2000/svg" width="648" height="648" viewBox="0 0 648 648"><defs><style/></defs><title>FilterCheck_18</title><path d="M266.4 486c0-57.048 20.1-102.9 57.6-151.4S535.192 65.1 535.192 65.1A18 18 0 0 0 521.024 36H18.976A18 18 0 0 0 4.808 65.1L216 334.6v275.638c0 17.668 18.721 26.864 30.243 14.84l42.082-43.91A218.33 218.33 0 0 1 266.4 486z"/><path d="M486 325.8A160.2 160.2 0 1 0 646.2 486 160.2 160.2 0 0 0 486 325.8zm-42.083 257.618l-74.3-74.3a9 9 0 0 1 0-12.728l18.656-18.656a9 9 0 0 1 12.728 0l49.166 49.166 109.907-109.911a9 9 0 0 1 12.728 0l18.77 18.77a9 9 0 0 1 0 12.728l-134.927 134.93a9 9 0 0 1-12.728.001z"/></svg>