<svg id="FilterAdd_18" xmlns="http://www.w3.org/2000/svg" width="648" height="648" viewBox="0 0 648 648"><defs><style/></defs><title>FilterAdd_18</title><path d="M266.4 486.005c0-57.048 20.1-102.9 57.6-151.4s211.192-269.5 211.192-269.5a18 18 0 0 0-14.168-29.1H18.976a18 18 0 0 0-14.168 29.1L216 334.609v275.634c0 17.668 18.721 26.864 30.243 14.84l42.082-43.91a218.33 218.33 0 0 1-21.925-95.168z"/><path d="M486 325.8A160.2 160.2 0 1 0 646.2 486 160.2 160.2 0 0 0 486 325.8zM576 495a9 9 0 0 1-9 9h-63v63a9 9 0 0 1-9 9h-18a9 9 0 0 1-9-9v-63h-63a9 9 0 0 1-9-9v-18a9 9 0 0 1 9-9h63v-63a9 9 0 0 1 9-9h18a9 9 0 0 1 9 9v63h63a9 9 0 0 1 9 9v18z"/></svg>