<svg xmlns="http://www.w3.org/2000/svg" width="648" height="648" viewBox="0 0 648 648"><title>FindAndReplace_18</title><path d="M641.339 587.3L528.382 436.368A214.828 214.828 0 0 0 585 320.774C603.089 202.86 522.159 92.61 404.245 74.531s-228.164 62.842-246.252 180.756a215.561 215.561 0 0 0-.949 56.813 118.118 118.118 0 0 0 40.992 23.106 179.9 179.9 0 1 1 351.387-19.89c-14.168 92.4-96.381 156.612-187.822 151.532-.562.334-1.037.835-1.6 1.151a221.886 221.886 0 0 1-63.07 22.764A215.8 215.8 0 0 0 466 482.159l112.954 150.935c11.76 16.022 34.963 18.984 52.488 6.117s21.658-35.877 9.897-51.911z"/><path d="M422.411 283.265c-12.7 50.635-46.3 99.25-93.827 125.536-91.22 50.452-207.47 15.8-266.451-76.657L105.6 308.1c43.948 65.3 128.745 88.973 195.941 51.809 43.748-24.2 60.6-55.642 70.545-91.7l-67.727-20.256 121.992-67.471 68.9 124.563zM154 91.283c23.836-17 51.943-23.273 79.488-20.725a249.763 249.763 0 0 1 61.26-25.822C241.208 17.279 177.083 18.123 127.2 53.7c-37.392 26.667-59.295 67.607-64.287 111.244L0 154.354l68.45 95.976 95.8-68.309-57.99-9.773c3.604-32.88 19.671-60.948 47.74-80.965z"/></svg>