<svg xmlns="http://www.w3.org/2000/svg" data-name="S_Firefox_18_N@2x" height="36" id="S_Firefox_18_N_2x" viewBox="0 0 36 36" width="36"><defs><style>.fill{fill:#707070}</style></defs><title>S_Firefox_18_N@2x</title><path class="fill" d="M34.052 23.411c.028-.055.055-.111.083-.173a15.9 15.9 0 0 0 1.615-6.718 11.158 11.158 0 0 0-.117-1.63 8.7 8.7 0 0 0-.388-1.652c.009.034.015.065.025.1a.426.426 0 0 0-.022-.059s-.213.653-.515 1.683a18.513 18.513 0 0 0-.771-5.311 11.075 11.075 0 0 0-1-2.1 6.284 6.284 0 0 0-1.566-1.923 1.311 1.311 0 0 1 .154.142c-.1-.1-.154-.142-.154-.142.025.028.049.059.074.086l-.1-.092s.037.2.1.564A6.713 6.713 0 0 0 29.043 3.9s.037.222.1.684a16.671 16.671 0 0 0-23.86 1.475 5.881 5.881 0 0 1-.324-.478c0-.006 0-.012-.009-.009s-.062.1-.062.1a5.059 5.059 0 0 1-.533-1.962h-.006a2.118 2.118 0 0 0-.724 1.193c-.049.163-.12.354-.12.354v-.002c0-.043.012-.271.012-.268-.055.117-.176.311-.262.509a1.375 1.375 0 0 0-.123.45s-.012-.219-.028-.182c-.213.632-.345 1.211-.348 1.221A9.4 9.4 0 0 0 2.6 8.019v.018a7.436 7.436 0 0 0-.025 2.1 11.464 11.464 0 0 0-.626 1A17.336 17.336 0 0 0 .25 16.686l.006-.015v.022l.034-.1a.371.371 0 0 0-.025.083l.006-.015v.022s.037-.117.108-.317v-.018a13.389 13.389 0 0 1 .718-1.612l-.006.015-.009.022.009-.022a19.725 19.725 0 0 0-.53 6.519c0 .009.034-.234.071-.5v-.012c.049-.354.136-.869.265-1.473a15.83 15.83 0 0 0 2.173 7.44c1.217 2.148 4.386 7.058 12.362 8.9l-.068-.022.065.015a3.793 3.793 0 0 1-1.421-.78s.17.055.453.139l.015.009a16.912 16.912 0 0 0 4.685.758l-.025-.006h.025c-.681-.12-.817-.459-.817-.459l.2.009.006.006c1.1.034 6.331.068 9.2-2.259a3.533 3.533 0 0 0 1.331-1.769 10.209 10.209 0 0 0 1.008-.616 12.73 12.73 0 0 0 2.694-2.444 6.926 6.926 0 0 0 .78-1.193.78.78 0 0 1-.04.068c.025-.046.049-.092.071-.139a5.851 5.851 0 0 0 .647-2.37 1.946 1.946 0 0 1-.046.3l.046-.3c-.009.049-.018.1-.031.148a1.954 1.954 0 0 0-.158-1.309zM17.941 1.725a15.1 15.1 0 0 1 8.491 2.614 11.789 11.789 0 0 1 2.977 4 6.554 6.554 0 0 0-3.384-1.96c1.507 1.153 4.022 4.558 3.788 9.715a6.133 6.133 0 0 0-1.613-2.521 26.453 26.453 0 0 1 .074 6.137c-.092.524-.21.931-.317 1.353a5.61 5.61 0 0 0-.438-1.294 12.539 12.539 0 0 1-.314 1.751 14.13 14.13 0 0 1-.647 1.874 7.947 7.947 0 0 1-1.06 1.849c-.4.472-.752.635-.952.6a.255.255 0 0 1-.1-.025.2.2 0 0 1-.043-.025 1.527 1.527 0 0 0-.012-.61 3.009 3.009 0 0 0-.656.447c-.12.111-.259.228-.395.373-.5.53-.943 1.116-1.174.949a.807.807 0 0 0 .438-.629 3.741 3.741 0 0 1-1.8.69 7.677 7.677 0 0 1-4.95-.891 2.124 2.124 0 0 1 1.359.08c-.952-.863-2.019.327-4.161-2.225a.227.227 0 0 1 .043.012 7.094 7.094 0 0 0 2.065.207 5.971 5.971 0 0 0 3.184-.937c.82-.576 1.991-1.439 2.53-1.347l.065.009c.65.148 1.085-.521.576-1.119a3.338 3.338 0 0 0-3.4-.968c-1.276.327-2.364 1.381-4.155.65-.108-.043-.219-.1-.336-.154s.376.071.253 0a7.819 7.819 0 0 1-1.125-.536c-.025-.018.259.055.228.034a2.656 2.656 0 0 1-1.59-2.219 2.583 2.583 0 0 1 .108-.564 1.442 1.442 0 0 1 .595-.814 3.144 3.144 0 0 1 .391.17s-.114-.179-.185-.265a.26.26 0 0 1 .052-.015 9.259 9.259 0 0 1 .878.358 1.113 1.113 0 0 1 .413.324s.071-.046 0-.21a1.108 1.108 0 0 0-.447-.456h.015a3.851 3.851 0 0 1 .518.259 2.446 2.446 0 0 0 .1-1.079 1.85 1.85 0 0 0-.136-.579c-.055-.12.022-.16.136-.062-.012-.04-.028-.077-.043-.117a.675.675 0 0 1-.043-.126c.53-.66 2.644-1.671 3.116-2.182a2.8 2.8 0 0 0 .653-.866c.129-.308.265-1.045-.142-1.2a17.4 17.4 0 0 0-2.857-.16A2.046 2.046 0 0 1 12.7 8.6v.006l-.007-.006a6.047 6.047 0 0 1 2-3.125c.062-.052-.243.037-.185-.022a5.914 5.914 0 0 1 .579-.324c.1-.062-.468-.219-.959-.114a2.369 2.369 0 0 0-.841.3c.1-.111.438-.284.354-.265a5.18 5.18 0 0 0-1.7.875.721.721 0 0 1 .012-.17 2.881 2.881 0 0 0-1.02.989 1.661 1.661 0 0 0-.009-.21 3.614 3.614 0 0 0-.493.573l-.006.009a8.164 8.164 0 0 0-2.213-.259 10.387 10.387 0 0 0-1.9.293 15.3 15.3 0 0 1 11.629-5.425z"/></svg>