<svg xmlns="http://www.w3.org/2000/svg" data-name="S_Flag_18_N@2x" height="36" id="S_Flag_18_N_2x" viewBox="0 0 36 36" width="36"><defs><style>.fill{fill:#707070}</style></defs><title>S_Flag_18_N@2x</title><path class="fill" d="M28.583 5.854a19.006 19.006 0 0 0-4.113.454 1.093 1.093 0 0 1-1.3-1.085V3.609a1.086 1.086 0 0 0-.814-1.061A19.5 19.5 0 0 0 17.75 2 19.154 19.154 0 0 0 8 4.648v15.165a19.1 19.1 0 0 1 9.76-2.646 1.1 1.1 0 0 1 1.073 1.1v3.739a.99.99 0 0 0 1.406.907 19.291 19.291 0 0 1 12.515-1.435A1.006 1.006 0 0 0 34 20.511V7.4a1 1 0 0 0-.751-.98 19.489 19.489 0 0 0-4.666-.566z"/><rect class="fill" height="34" rx=".5" ry=".5" width="4" x="2" y="2"/></svg>