<svg xmlns="http://www.w3.org/2000/svg" width="648" height="648" viewBox="0 0 648 648"><title>FlagExclude_18</title><path d="M336.006 323.49A220.655 220.655 0 0 1 612 304.066V137.658a18.1 18.1 0 0 0-13.517-17.645 350.894 350.894 0 0 0-83.99-10.15 341.933 341.933 0 0 0-74.021 8.165c-12.129 2.681-23.467-7.11-23.467-19.521V69.46a19.56 19.56 0 0 0-14.66-19.09A351.089 351.089 0 0 0 319.5 40.5c-64.529 0-124.559 23.906-175.5 53.93v272.979c50.906-30.111 111.041-53.938 175.658-53.9 7.084-.003 12.973 4.198 16.348 9.981z"/><rect x="36" y="36" width="72" height="576" rx="18" ry="18"/><path d="M486 325.8A160.2 160.2 0 1 0 646.2 486 160.2 160.2 0 0 0 486 325.8zM360 486c0-28.936 10.143-55.263 26.543-76.535l175.992 175.992C541.266 601.855 514.934 612 486 612a126 126 0 0 1-126-126zm225.457 76.535L409.465 386.543C430.734 370.145 457.066 360 486 360a126 126 0 0 1 126 126c0 28.936-10.143 55.263-26.543 76.535z"/></svg>