<svg xmlns="http://www.w3.org/2000/svg" data-name="S_FlashOff_18_N@2x" height="36" id="S_FlashOff_18_N_2x" viewBox="0 0 36 36" width="36"><defs><style>.fill{fill:#707070}</style></defs><title>S_FlashOff_18_N@2x</title><path class="fill" d="M13.823 20.473L8 36h.9l9.493-10.935-4.57-4.592zM18.26 13.609L26 2H12l-1.286 4.026 7.546 7.583zM23.643 19.019L28 14h-9.351l4.994 5.019zM7.976 14.598L6.25 20h7.102l-5.376-5.402zM32.734 32.535l-1.142 1.219a.418.418 0 0 1-.59.019L1.164 4a.418.418 0 0 1-.019-.59l1.142-1.215a.418.418 0 0 1 .59-.019l29.837 29.769a.418.418 0 0 1 .02.59z"/></svg>