<svg xmlns="http://www.w3.org/2000/svg" width="648" height="648" viewBox="0 0 648 648"><title>FolderLockedAdobe_18</title><path d="M252 108H36V54a18 18 0 0 1 18-18h118.544a18 18 0 0 1 12.728 5.272zM539.288 360H644.42v255.978L539.288 360zM465.215 360H360v255.978L465.215 360zM502.251 449.054l66.996 166.912h-43.903L505.3 567.37h-49.021l45.972-118.316z"/><path d="M396 288V144H36v378a18 18 0 0 0 18 18h270V324h288v-36H396z"/><path d="M630 108h-18V72a72 72 0 0 0-144 0v36h-18a18 18 0 0 0-18 18v108a18 18 0 0 0 18 18h180a18 18 0 0 0 18-18V126a18 18 0 0 0-18-18zm-126 0V72a36 36 0 0 1 72 0v36h-72z"/></svg>