<svg xmlns="http://www.w3.org/2000/svg" width="648" height="648" viewBox="0 0 648 648"><title>FolderDelete_18</title><path d="M252 108H36V54a18 18 0 0 1 18-18h118.544a18 18 0 0 1 12.728 5.272zM264.6 486c0-122.273 99.123-221.4 221.4-221.4a220.192 220.192 0 0 1 126 39.463V162a18 18 0 0 0-18-18H36v378a18 18 0 0 0 18 18h217.512a220.553 220.553 0 0 1-6.912-54z"/><path d="M486 325.8A160.2 160.2 0 1 0 646.2 486 160.2 160.2 0 0 0 486 325.8zM576 495a9 9 0 0 1-9 9H405a9 9 0 0 1-9-9v-18a9 9 0 0 1 9-9h162a9 9 0 0 1 9 9v18z"/></svg>