<svg xmlns="http://www.w3.org/2000/svg" width="648" height="648" viewBox="0 0 648 648"><title>FolderSearch_18</title><path d="M252 108H36V54a18 18 0 0 1 18-18h118.544a18 18 0 0 1 12.728 5.272zM202.008 409.219c0-114.926 93.516-208.441 208.441-208.441 96.539 0 177.979 66 201.551 155.25V162a18 18 0 0 0-18-18H36v378a18 18 0 0 0 18 18h194.273a207.457 207.457 0 0 1-46.265-130.781z"/><path d="M636.921 580.839l-88.5-88.5c14.7-24.357 23.662-52.585 23.662-83.11a161.642 161.642 0 1 0-161.645 161.639c30.529 0 58.753-8.958 83.11-23.662l88.5 88.5c18.277 18.277 40.485 14.385 54.87 0s15.157-39.713.003-54.867zm-326.7-171.613a100.221 100.221 0 1 1 100.217 100.213 100.22 100.22 0 0 1-100.221-100.213z"/></svg>