<svg xmlns="http://www.w3.org/2000/svg" width="648" height="648" viewBox="0 0 648 648"><title>FolderGear_18</title><path d="M252 108H36V54a18 18 0 0 1 18-18h118.544a18 18 0 0 1 12.728 5.272zM264.6 486c0-122.273 99.123-221.4 221.4-221.4a220.192 220.192 0 0 1 126 39.463V162a18 18 0 0 0-18-18H36v378a18 18 0 0 0 18 18h217.512a220.553 220.553 0 0 1-6.912-54z"/><path d="M633.477 464.152h-38.256a110.6 110.6 0 0 0-16.153-39.216l27.237-27.236a10.923 10.923 0 0 0 0-15.448l-16.558-16.558a10.924 10.924 0 0 0-15.451 0l-27.236 27.238a110.651 110.651 0 0 0-39.213-16.157v-38.252a10.923 10.923 0 0 0-10.924-10.923h-21.846a10.923 10.923 0 0 0-10.923 10.923v38.251a110.651 110.651 0 0 0-39.213 16.157L397.7 365.695a10.924 10.924 0 0 0-15.451 0l-16.558 16.558a10.923 10.923 0 0 0 0 15.448l27.237 27.235a110.6 110.6 0 0 0-16.153 39.216h-38.252a10.923 10.923 0 0 0-10.923 10.923v21.848a10.925 10.925 0 0 0 10.923 10.925h38.255a110.6 110.6 0 0 0 16.153 39.216L365.695 574.3a10.922 10.922 0 0 0 0 15.446l16.557 16.554a10.924 10.924 0 0 0 15.451 0l27.237-27.235a110.64 110.64 0 0 0 39.213 16.151v38.255a10.925 10.925 0 0 0 10.924 10.929h21.847a10.925 10.925 0 0 0 10.923-10.925V595.22a110.64 110.64 0 0 0 39.213-16.151L574.3 606.3a10.924 10.924 0 0 0 15.451 0l16.558-16.558a10.922 10.922 0 0 0 0-15.446l-27.237-27.235a110.6 110.6 0 0 0 16.153-39.216h38.255a10.925 10.925 0 0 0 10.92-10.922v-21.848a10.923 10.923 0 0 0-10.923-10.923zM486 542.953A56.953 56.953 0 1 1 542.953 486 56.955 56.955 0 0 1 486 542.953z"/></svg>