<svg xmlns="http://www.w3.org/2000/svg" width="648" height="648" viewBox="0 0 648 648"><title>FolderLocked_18</title><path d="M252 108H36V54a18 18 0 0 1 18-18h118.544a18 18 0 0 1 12.728 5.272zM288 450.211a54.131 54.131 0 0 1 38.531-51.75C333.879 316.477 402.961 252 486.844 252c2.848 0 5.73.07 8.578.211 47.391 2.5 88.84 26.543 116.578 62.543V162a18 18 0 0 0-18-18H36v378a18 18 0 0 0 18 18h234v-89.789z"/><path d="M630 432h-17.187v-18.149a125.982 125.982 0 0 0-251.965 0V432H342a18 18 0 0 0-18 18v180a18 18 0 0 0 18 18h288a18 18 0 0 0 18-18V450a18 18 0 0 0-18-18zM511.813 565.6v34.708a12.493 12.493 0 0 1-12.489 12.492h-24.987a12.493 12.493 0 0 1-12.489-12.489V565.6a37.477 37.477 0 1 1 49.965 0zm56-133.6H405.848v-18.149a80.983 80.983 0 0 1 161.965 0V432z"/></svg>