<svg id="FolderAdd_18" xmlns="http://www.w3.org/2000/svg" width="648" height="648" viewBox="0 0 648 648"><defs><style/></defs><title>FolderAdd_18</title><path d="M252 144H36V90a18 18 0 0 1 18-18h118.544a18 18 0 0 1 12.728 5.272zM264.6 486c0-122.276 99.127-221.4 221.4-221.4a220.232 220.232 0 0 1 126 39.467V198a18 18 0 0 0-18-18H36v378a18 18 0 0 0 18 18h229.838a220.3 220.3 0 0 1-19.238-90z"/><path d="M486 325.8A160.2 160.2 0 1 0 646.2 486 160.2 160.2 0 0 0 486 325.8zM576 495a9 9 0 0 1-9 9h-63v63a9 9 0 0 1-9 9h-18a9 9 0 0 1-9-9v-63h-63a9 9 0 0 1-9-9v-18a9 9 0 0 1 9-9h63v-63a9 9 0 0 1 9-9h18a9 9 0 0 1 9 9v63h63a9 9 0 0 1 9 9v18z"/></svg>