<svg xmlns="http://www.w3.org/2000/svg" width="648" height="648" viewBox="0 0 648 648"><title>CheckPause_18</title><path d="M252 144H36V90a18 18 0 0 1 18-18h118.544a18 18 0 0 1 12.728 5.272zM252 428.906A54.054 54.054 0 0 1 216 378v-36a54.059 54.059 0 0 1 54-54h342v-90a18 18 0 0 0-18-18H36v378a18 18 0 0 0 18 18h198V428.906z"/><path d="M630 396H270a18 18 0 0 1-18-18v-36a18 18 0 0 1 18-18h360a18 18 0 0 1 18 18v36a18 18 0 0 1-18 18zm-18 36v198a18 18 0 0 1-18 18H306a18 18 0 0 1-18-18V432h324zM504 540v-18a18 18 0 0 0-18-18h-72a18 18 0 0 0-18 18v18a18 18 0 0 0 18 18h72a18 18 0 0 0 18-18z"/></svg>