<svg xmlns="http://www.w3.org/2000/svg" width="648" height="648" viewBox="0 0 648 648"><title>FolderRemove_18</title><path d="M252 108H36V54a18 18 0 0 1 18-18h118.544a18 18 0 0 1 12.728 5.272zM264.6 486c0-122.273 99.123-221.4 221.4-221.4a220.33 220.33 0 0 1 126 39.34V162a18 18 0 0 0-18-18H36v378a18 18 0 0 0 18 18h217.248a221.38 221.38 0 0 1-6.648-54z"/><path d="M487.8 327.595A160.2 160.2 0 1 0 648 487.8a160.2 160.2 0 0 0-160.2-160.205zM592.664 548.4a9 9 0 0 1 0 12.727l-31.535 31.535a9 9 0 0 1-12.727 0l-60.6-60.6-60.6 60.6a9 9 0 0 1-12.727 0l-31.535-31.535a9 9 0 0 1 0-12.727l60.6-60.6-60.6-60.6a9 9 0 0 1 0-12.729l31.535-31.533a9 9 0 0 1 12.727 0l60.6 60.6 60.6-60.6a9 9 0 0 1 12.727 0l31.535 31.533a9 9 0 0 1 0 12.729l-60.6 60.6z"/></svg>