<svg xmlns="http://www.w3.org/2000/svg" width="648" height="648" viewBox="0 0 648 648"><title>FolderAddTo_18</title><path d="M252 144H36V90a18 18 0 0 1 18-18h118.544a18 18 0 0 1 12.728 5.272zM217.16 493.523l150.4-163.371c11.391-11.391 25.1-17.3 39.832-17.3a54.787 54.787 0 0 1 54.738 54.668v16.98c65.917 9.188 114.661 39.273 149.87 76.4V198a18 18 0 0 0-18-18H36v378a18 18 0 0 0 18 18h239.133z"/><path d="M418.909 424.782v-57.25a11.454 11.454 0 0 0-19.553-8.1L275.868 493.509l123.488 134.076a11.454 11.454 0 0 0 19.553-8.1v-58.11c123.908-20.856 189.783 49.854 214.493 83.37 4.536 6.147 14.6 3.031 14.6-4.687-.002-34.565-39.466-215.276-229.093-215.276z"/></svg>