<svg xmlns="http://www.w3.org/2000/svg" width="648" height="648" viewBox="0 0 648 648"><title>FollowOff_18</title><path d="M142.232 520.243l-13.649 1.769a52.256 52.256 0 0 1-58.539-45.106l-5.469-49.043 117.294-15.2 5.469 49.043a52.256 52.256 0 0 1-45.106 58.537zM103.658 24.082c-30.155-35.153-63.88-38.47-87.7 35.469-35.283 156.579-7.931 219.776 41.8 322.559l117.294-15.2c-12.583-97.086 11.584-140.672 6.521-179.742-9.485-73.182-48.496-128.79-77.915-163.086zM246.41 490.5l18.334 3.085a217.228 217.228 0 0 1-.141-7.585c0-102.138 69.17-188.112 163.213-213.662-1.459-24.627-4.922-51.908-10.67-82.89-20.971-74.795-54.791-72.773-86.273-38.795-30.709 33.144-71.824 87.214-84.094 159.987-6.556 38.848 15.926 83.321-.369 179.86zM271.934 542.646l-34.154-5.757-7.26 47.865a52.259 52.259 0 0 0 42.838 60.223l13.57 2.285a52.067 52.067 0 0 0 38.619-8.7 221.017 221.017 0 0 1-53.613-95.916z"/><path d="M486 325.8A160.2 160.2 0 1 0 646.2 486 160.2 160.2 0 0 0 486 325.8zM360 486c0-28.936 10.143-55.263 26.543-76.535l175.992 175.992C541.266 601.855 514.934 612 486 612a126 126 0 0 1-126-126zm225.457 76.535L409.465 386.543C430.734 370.145 457.066 360 486 360a126 126 0 0 1 126 126c0 28.936-10.143 55.263-26.543 76.535z"/></svg>