<svg xmlns="http://www.w3.org/2000/svg" width="648" height="648" viewBox="0 0 648 648"><title>Follow_18</title><path d="M253.588 520.243l-13.649 1.769a52.256 52.256 0 0 1-58.539-45.107l-5.469-49.043 117.294-15.2 5.469 49.043a52.256 52.256 0 0 1-45.106 58.538zM215.014 24.082c-30.155-35.153-63.88-38.47-87.7 35.469-35.283 156.579-7.931 219.776 41.8 322.559l117.294-15.2c-12.583-97.086 11.584-140.672 6.521-179.742-9.485-73.182-48.496-128.79-77.915-163.086zM384.709 644.974l13.571 2.289a52.256 52.256 0 0 0 60.22-42.835l7.259-47.869-116.626-19.675-7.259 47.869a52.256 52.256 0 0 0 42.835 60.221zm57.516-494.323c31.477-33.975 65.3-36 86.285 38.8 29.265 157.813-.483 219.918-54.107 320.725L357.775 490.5c16.286-96.534-6.2-141.012.356-179.86 12.276-72.768 53.385-126.84 84.094-159.989z"/></svg>