<svg xmlns="http://www.w3.org/2000/svg" width="648" height="648" viewBox="0 0 648 648"><title>Forecast_18</title><path d="M521.486 631.059H126.013A18 18 0 0 1 108.86 607.6L141.824 504h363.85l32.964 103.6a18 18 0 0 1-17.152 23.459zM591.307 84.159L553.993 128.5a47.218 47.218 0 0 0-8.627 45.457l18.476 54.927-44.342-37.317a47.218 47.218 0 0 0-45.457-8.627l-54.927 18.476 37.314-44.339a47.218 47.218 0 0 0 8.627-45.457l-18.473-54.927 44.339 37.314a47.218 47.218 0 0 0 45.457 8.627z"/><path d="M524.426 275.7l-38.32-32.238-47.461 15.961A61.2 61.2 0 0 1 372.3 162l32.238-38.32-7.471-22.192a221.28 221.28 0 0 0-79.418-14.669c-122.818 0-222.363 99.554-222.363 222.354A221.694 221.694 0 0 0 162.053 468h311.185A221.694 221.694 0 0 0 540 309.173a226.213 226.213 0 0 0-1.354-24.539 61.48 61.48 0 0 1-14.22-8.934z"/></svg>