<svg xmlns="http://www.w3.org/2000/svg" width="648" height="648" viewBox="0 0 648 648"><title>ForPlacementOnly_18</title><path d="M296.719 255.261c-5.449 0-10.406.105-14.273.246V315.1c2.566.035 10.441.035 10.793.035 39.586 0 39.586-23.133 39.586-30.727-.001-24.085-19.618-29.147-36.106-29.147zM492.434 253.4c-28.547 0-45.562 24.574-45.562 65.777 0 32.273 12.375 66.727 47.109 66.727 28.125 0 44.93-24.926 44.93-66.727-.282-41.803-17.227-65.777-46.477-65.777z"/><path d="M324 36C164.936 36 36 164.944 36 324s128.936 288 288 288 288-128.944 288-288S483.064 36 324 36zM216.316 253.679l-2.145 2.6-5.379.6h-76.815V298.4h75.516l2.215 9.422v35.613l-9.422 2.215h-68.309v81.844l-9.738 2.531H82.793l-1.9-9.738V211.456l9.422-2.18h115c5.449 0 9.07 3.129 9.984 8.543l3.164 31.605zM293.238 362.1c-4.887 0-7.98-.105-10.793-.211v65.918l-9.422 2.215h-39.128l-2.18-9.422V212.124l9.105-2.531c15.68-.422 35.3-.949 54.633-.949 64.969 0 88.1 38.813 88.1 75.129.002 48.304-34.627 78.327-90.315 78.327zm199.477 70.77c-59.66 0-98.191-44.648-98.191-113.7 0-66.375 40.5-112.746 98.508-112.746 58.395 0 97.875 44.93 98.227 111.762-.001 69.684-38.673 114.684-98.544 114.684z"/></svg>