<svg xmlns="http://www.w3.org/2000/svg" data-name="S_FullScreen_18_N@2x" height="36" id="S_FullScreen_18_N_2x" viewBox="0 0 36 36" width="36"><defs><style>.fill{fill:#707070}</style></defs><title>S_FullScreen_18_N@2x</title><path class="fill" d="M32 24.5V30h-5.5a.5.5 0 0 0-.5.5v1a.5.5 0 0 0 .5.5H34v-7.5a.5.5 0 0 0-.5-.5h-1a.5.5 0 0 0-.5.5zM4 30v-5.5a.5.5 0 0 0-.5-.5h-1a.5.5 0 0 0-.5.5V32h7.5a.5.5 0 0 0 .5-.5v-1a.5.5 0 0 0-.5-.5zM26 4.5v1a.5.5 0 0 0 .5.5H32v5.5a.5.5 0 0 0 .5.5h1a.5.5 0 0 0 .5-.5V4h-7.5a.5.5 0 0 0-.5.5zM4 6h5.5a.5.5 0 0 0 .5-.5v-1a.5.5 0 0 0-.5-.5H2v7.5a.5.5 0 0 0 .5.5h1a.5.5 0 0 0 .5-.5z"/><rect class="fill" height="16" rx=".5" ry=".5" width="20" x="8" y="10"/></svg>