<svg xmlns="http://www.w3.org/2000/svg" width="648" height="648" viewBox="0 0 648 648"><title>Game_18</title><path d="M631.636 447.367l-45.527-152.129c-31.072-103.813-118.32-186.87-216.593-186.87H264.738c-98.273 0-185.5 83.057-216.593 186.87L2.618 447.367c-13.088 43.694 25.182 84.752 63.909 68.582l28.99-23.292c132.32-106.282 310.9-106.282 443.22 0l28.99 23.292c38.726 16.17 76.997-24.888 63.909-68.582zM203.05 373.841a90 90 0 1 1 90-90 90 90 0 0 1-90 90zm213-82.244a63 63 0 1 1 62.987-63 63 63 0 0 1-62.99 63.003zm96.966 122.409A63 63 0 1 1 576 351a63 63 0 0 1-62.987 63.006z"/><circle cx="203.051" cy="283.841" r="45"/></svg>