<svg xmlns="http://www.w3.org/2000/svg" width="648" height="648" viewBox="0 0 648 648"><title>Gauge1_18</title><path d="M611.367 337.577c-9.65-145.738-131.273-263.766-277.242-268.772C170.438 63.193 36 194.212 36 356.632c0 1.3.229 2.558.246 3.854L90.6 354.6c.158-17.086 1.723-34.416 6.188-52.053 27.141-107.229 126.545-184.3 237.059-179.708C458.314 128.01 558 230.9 558 356.632a231.775 231.775 0 0 1-12.445 74.1 8.854 8.854 0 0 0 2.092 9.11l28.125 28.129A9.054 9.054 0 0 0 590.5 465.2a285.189 285.189 0 0 0 20.867-127.623z"/><path d="M15.219 417.851C1.031 419.9 1 440.369 15.176 442.472l305.479 45.312A57.939 57.939 0 0 0 388.6 430.8a57.939 57.939 0 0 0-67.782-57.181z"/></svg>