<svg xmlns="http://www.w3.org/2000/svg" width="648" height="648" viewBox="0 0 648 648"><title>Gauge2_18</title><path d="M120.635 245.032l-27.668-59.873A286.4 286.4 0 0 0 36 356.627c0 37.325 9.773 72.916 25.084 105.6a9.013 9.013 0 0 0 14.5 2.393l24.75-24.77a8.84 8.84 0 0 0 2.092-9.145c-13.412-39.894-17-83.36-5.643-128.169 5.202-20.55 13.78-39.53 23.852-57.504zm490.729 92.54C601.713 191.834 480.09 73.806 334.122 68.8a286.886 286.886 0 0 0-129.99 26.262l35.754 44.82c29.355-11.793 61-18.42 93.955-17.051C458.311 128.006 558 230.895 558 356.627a231.775 231.775 0 0 1-12.445 74.1 8.854 8.854 0 0 0 2.092 9.11l28.125 28.129a9.054 9.054 0 0 0 14.73-2.775 285.189 285.189 0 0 0 20.862-127.619zM162.171 127.6c-11.2-14.654-34.085-1.174-26.7 15.727l138.8 317.573a57.939 57.939 0 0 0 83.628 29.5 57.939 57.939 0 0 0 14.74-87.446z"/></svg>