<svg xmlns="http://www.w3.org/2000/svg" width="648" height="648" viewBox="0 0 648 648"><title>Gauge4_18</title><path d="M527.365 245.032l27.668-59.873A286.4 286.4 0 0 1 612 356.627c0 37.325-9.773 72.916-25.084 105.6a9.013 9.013 0 0 1-14.5 2.393l-24.75-24.77a8.84 8.84 0 0 1-2.092-9.145c13.412-39.894 17-83.36 5.643-128.169-5.202-20.55-13.78-39.53-23.852-57.504zm-490.729 92.54C46.287 191.834 167.91 73.806 313.878 68.8a286.886 286.886 0 0 1 129.99 26.262l-35.754 44.82c-29.355-11.793-61-18.42-93.955-17.051C189.689 128.006 90 230.895 90 356.627a231.775 231.775 0 0 0 12.445 74.1 8.854 8.854 0 0 1-2.092 9.11l-28.121 28.13a9.054 9.054 0 0 1-14.73-2.775 285.189 285.189 0 0 1-20.866-127.62zM485.829 127.6c11.2-14.654 34.085-1.174 26.7 15.727L373.729 460.9a57.939 57.939 0 0 1-83.628 29.5 57.939 57.939 0 0 1-14.74-87.446z"/></svg>