<svg xmlns="http://www.w3.org/2000/svg" width="648" height="648" viewBox="0 0 648 648"><title>Gauge5_18</title><path d="M36.633 337.577c9.65-145.738 131.273-263.766 277.242-268.772C477.563 63.193 612 194.212 612 356.632c0 1.3-.229 2.558-.246 3.854L557.4 354.6c-.158-17.086-1.723-34.416-6.187-52.053-27.141-107.229-126.545-184.3-237.059-179.708C189.686 128.01 90 230.9 90 356.632a231.775 231.775 0 0 0 12.445 74.1 8.854 8.854 0 0 1-2.092 9.11l-28.124 28.129A9.054 9.054 0 0 1 57.5 465.2a285.189 285.189 0 0 1-20.867-127.623z"/><path d="M632.781 417.851c14.188 2.054 14.224 22.518.043 24.622l-305.479 45.311A57.939 57.939 0 0 1 259.4 430.8a57.939 57.939 0 0 1 67.782-57.181z"/></svg>