<svg xmlns="http://www.w3.org/2000/svg" width="648" height="648" viewBox="0 0 648 648"><title>Gears_18</title><path d="M309.477 464.152h-38.256a110.6 110.6 0 0 0-16.153-39.216l27.237-27.236a10.923 10.923 0 0 0 0-15.448l-16.558-16.558a10.924 10.924 0 0 0-15.451 0l-27.236 27.238a110.651 110.651 0 0 0-39.213-16.157v-38.252a10.923 10.923 0 0 0-10.924-10.923h-21.846a10.923 10.923 0 0 0-10.923 10.923v38.251a110.651 110.651 0 0 0-39.213 16.157L73.7 365.695a10.924 10.924 0 0 0-15.451 0l-16.554 16.557a10.923 10.923 0 0 0 0 15.448l27.237 27.235a110.6 110.6 0 0 0-16.153 39.216H14.523A10.923 10.923 0 0 0 3.6 475.075v21.848a10.925 10.925 0 0 0 10.923 10.925h38.256a110.6 110.6 0 0 0 16.153 39.216L41.695 574.3a10.922 10.922 0 0 0 0 15.446L58.252 606.3a10.924 10.924 0 0 0 15.451 0l27.237-27.235a110.64 110.64 0 0 0 39.213 16.151v38.255a10.925 10.925 0 0 0 10.924 10.929h21.847a10.925 10.925 0 0 0 10.923-10.925V595.22a110.64 110.64 0 0 0 39.213-16.151L250.3 606.3a10.924 10.924 0 0 0 15.451 0l16.558-16.558a10.922 10.922 0 0 0 0-15.446l-27.237-27.235a110.6 110.6 0 0 0 16.153-39.216h38.255a10.925 10.925 0 0 0 10.92-10.922v-21.848a10.923 10.923 0 0 0-10.923-10.923zM162 542.953A56.953 56.953 0 1 1 218.953 486 56.955 56.955 0 0 1 162 542.953zM636.515 268.315l-50.467-20.58a157.651 157.651 0 0 0-.218-60.427l50.588-21.279a15.565 15.565 0 0 0 8.31-20.378L631.784 114.9a15.555 15.555 0 0 0-20.378-8.311l-50.58 21.279a157.65 157.65 0 0 0-43.039-42.41L538.36 35a15.561 15.561 0 0 0-8.536-20.29L501 2.954a15.564 15.564 0 0 0-20.288 8.534L460.138 61.95a157.687 157.687 0 0 0-60.427.22l-21.282-50.582a15.555 15.555 0 0 0-20.378-8.311L327.3 16.211a15.569 15.569 0 0 0-8.31 20.378l21.282 50.582a157.506 157.506 0 0 0-42.407 43.047L247.4 109.639a15.561 15.561 0 0 0-20.288 8.536L215.357 147a15.563 15.563 0 0 0 8.528 20.288l50.467 20.58a157.641 157.641 0 0 0 .218 60.425l-50.588 21.279a15.567 15.567 0 0 0-8.31 20.38l12.943 30.75a15.557 15.557 0 0 0 20.378 8.311l50.58-21.279a157.679 157.679 0 0 0 43.047 42.4L322.04 400.6a15.559 15.559 0 0 0 8.536 20.288l28.824 11.759a15.566 15.566 0 0 0 20.288-8.536l20.582-50.469a157.613 157.613 0 0 0 60.419-.211l21.282 50.582a15.558 15.558 0 0 0 20.378 8.311L533.1 419.39a15.572 15.572 0 0 0 8.31-20.38l-21.282-50.582a157.5 157.5 0 0 0 42.407-43.045L613 325.96a15.558 15.558 0 0 0 20.288-8.534l11.755-28.826a15.562 15.562 0 0 0-8.528-20.285zM430.2 293.185a75.386 75.386 0 1 1 75.383-75.385 75.381 75.381 0 0 1-75.383 75.385z"/></svg>