<svg id="Gear_18" xmlns="http://www.w3.org/2000/svg" width="648" height="648" viewBox="0 0 648 648"><defs><style/></defs><title>Gear_18</title><path d="M592.138 284.271h-69.551a201.2 201.2 0 0 0-29.371-71.3l49.519-49.519a19.859 19.859 0 0 0 0-28.086l-30.106-30.1a19.858 19.858 0 0 0-28.089 0l-49.522 49.519a201.156 201.156 0 0 0-71.294-29.385V55.857a19.863 19.863 0 0 0-19.862-19.862h-39.724a19.863 19.863 0 0 0-19.862 19.862V125.4a201.156 201.156 0 0 0-71.294 29.376L163.46 105.26a19.858 19.858 0 0 0-28.089 0l-30.106 30.1a19.859 19.859 0 0 0 0 28.086l49.519 49.519a201.2 201.2 0 0 0-29.371 71.3H55.862A19.863 19.863 0 0 0 36 304.133v39.724a19.863 19.863 0 0 0 19.862 19.862h69.551a201.2 201.2 0 0 0 29.371 71.3l-49.519 49.521a19.859 19.859 0 0 0 0 28.086l30.106 30.1a19.858 19.858 0 0 0 28.089 0l49.519-49.519a201.151 201.151 0 0 0 71.3 29.366v69.556a19.863 19.863 0 0 0 19.862 19.862h39.724a19.863 19.863 0 0 0 19.862-19.862v-69.552a201.151 201.151 0 0 0 71.3-29.366l49.513 49.519a19.858 19.858 0 0 0 28.089 0l30.106-30.1a19.859 19.859 0 0 0 0-28.086l-49.519-49.519a201.2 201.2 0 0 0 29.371-71.3h69.551A19.863 19.863 0 0 0 612 343.857v-39.724a19.863 19.863 0 0 0-19.862-19.862zM324 403.443a79.448 79.448 0 1 1 79.448-79.448A79.451 79.451 0 0 1 324 403.443z"/></svg>