<svg xmlns="http://www.w3.org/2000/svg" width="648" height="648" viewBox="0 0 648 648"><title>GearsEdit_18</title><path d="M309.477 464.152h-38.256a110.6 110.6 0 0 0-16.153-39.216l27.237-27.236a10.923 10.923 0 0 0 0-15.448l-16.558-16.558a10.924 10.924 0 0 0-15.451 0l-27.236 27.238a110.651 110.651 0 0 0-39.213-16.157v-38.252a10.923 10.923 0 0 0-10.924-10.923h-21.846a10.923 10.923 0 0 0-10.923 10.923v38.251a110.651 110.651 0 0 0-39.213 16.157L73.7 365.695a10.924 10.924 0 0 0-15.451 0l-16.554 16.557a10.923 10.923 0 0 0 0 15.448l27.237 27.235a110.6 110.6 0 0 0-16.153 39.216H14.523A10.923 10.923 0 0 0 3.6 475.075v21.848a10.925 10.925 0 0 0 10.923 10.925h38.256a110.6 110.6 0 0 0 16.153 39.216L41.695 574.3a10.922 10.922 0 0 0 0 15.446L58.252 606.3a10.924 10.924 0 0 0 15.451 0l27.237-27.235a110.64 110.64 0 0 0 39.213 16.151v38.255a10.925 10.925 0 0 0 10.924 10.929h21.847a10.925 10.925 0 0 0 10.923-10.925V595.22a110.64 110.64 0 0 0 39.213-16.151L250.3 606.3a10.924 10.924 0 0 0 15.451 0l16.558-16.558a10.922 10.922 0 0 0 0-15.446l-27.237-27.235a110.6 110.6 0 0 0 16.153-39.216h38.255a10.925 10.925 0 0 0 10.92-10.922v-21.848a10.923 10.923 0 0 0-10.923-10.923zM162 542.953A56.953 56.953 0 1 1 218.953 486 56.955 56.955 0 0 1 162 542.953zM359.4 432.646a15.565 15.565 0 0 0 20.285-8.534l20.584-50.471c18.123 3.5 36.272 3.19 53.921.446l75.393-75.393a57.991 57.991 0 0 1 39.366-17.082l1.09-.024h.661a56.146 56.146 0 0 1 40.025 16.519L632 319.375a14.832 14.832 0 0 0 1.292-1.949l11.76-28.824a15.569 15.569 0 0 0-8.534-20.287l-50.467-20.58a157.529 157.529 0 0 0-.22-60.427l50.59-21.278a15.575 15.575 0 0 0 8.314-20.38l-12.951-30.75a15.559 15.559 0 0 0-20.382-8.312l-50.572 21.28a157.707 157.707 0 0 0-43.049-42.409L538.356 35a15.557 15.557 0 0 0-8.534-20.29L501 2.953a15.573 15.573 0 0 0-20.294 8.534L460.143 61.95a157.692 157.692 0 0 0-60.434.22l-21.278-50.584a15.558 15.558 0 0 0-20.382-8.31L327.3 16.211a15.565 15.565 0 0 0-8.306 20.377l21.278 50.583a157.567 157.567 0 0 0-42.407 43.047l-50.467-20.58a15.556 15.556 0 0 0-20.285 8.534L215.358 147a15.564 15.564 0 0 0 8.525 20.287l50.467 20.582a157.692 157.692 0 0 0 .22 60.425l-50.59 21.278a15.569 15.569 0 0 0-8.306 20.38l12.947 30.748a15.545 15.545 0 0 0 20.373 8.31l50.581-21.278a157.561 157.561 0 0 0 43.049 42.4L322.04 400.6a15.563 15.563 0 0 0 8.534 20.29zm70.8-290.232a75.386 75.386 0 1 1-75.386 75.386 75.378 75.378 0 0 1 75.386-75.386z"/><path d="M643.289 391.757l-63.105-63.105a13.3 13.3 0 0 0-9.483-3.863h-.422a15.028 15.028 0 0 0-10.151 4.447l-194.792 194.8a11.041 11.041 0 0 0-2.751 4.61L326.092 636.6c-1.248 4.122 5.027 9.312 8.578 9.312a5.458 5.458 0 0 0 .668-.07c3.023-.7 92.206-31.753 108.018-36.505a10.68 10.68 0 0 0 4.535-2.727L642.7 411.807a15 15 0 0 0 4.421-9.67 13.347 13.347 0 0 0-3.832-10.38zm-288.6 225.571l28.081-79.767 51.673 51.539c-23.651 7.108-59.308 22.131-79.752 28.228z"/></svg>