<svg xmlns="http://www.w3.org/2000/svg" width="648" height="648" viewBox="0 0 648 648"><title>GearsAdd_18</title><path d="M255.067 547.064a110.621 110.621 0 0 0 16.154-39.217h14.414a193.218 193.218 0 0 1 0-43.7h-14.413a110.611 110.611 0 0 0-16.154-39.215L282.3 397.7a10.914 10.914 0 0 0 0-15.449L265.746 365.7a10.921 10.921 0 0 0-15.451 0l-27.237 27.23a110.623 110.623 0 0 0-39.208-16.156v-38.252a10.927 10.927 0 0 0-10.925-10.922h-21.85a10.927 10.927 0 0 0-10.925 10.923v38.252a110.623 110.623 0 0 0-39.208 16.156L73.705 365.7a10.921 10.921 0 0 0-15.451 0L41.7 382.252a10.914 10.914 0 0 0 0 15.449l27.237 27.235a110.611 110.611 0 0 0-16.159 39.214H14.52A10.92 10.92 0 0 0 3.6 475.075v21.847a10.92 10.92 0 0 0 10.92 10.925h38.258a110.621 110.621 0 0 0 16.154 39.217L41.7 574.3a10.912 10.912 0 0 0 0 15.447L58.254 606.3a10.925 10.925 0 0 0 15.451 0l27.237-27.235a110.615 110.615 0 0 0 39.208 16.152v38.254a10.928 10.928 0 0 0 10.925 10.929h21.85a10.928 10.928 0 0 0 10.925-10.925v-38.256a110.615 110.615 0 0 0 39.208-16.152l27.237 27.233a10.925 10.925 0 0 0 15.451 0l16.554-16.554a10.912 10.912 0 0 0 0-15.447zM162 542.953A56.953 56.953 0 1 1 218.953 486 56.958 56.958 0 0 1 162 542.953zM339.671 347.737a201.722 201.722 0 0 1 88.4-54.767 75.45 75.45 0 1 1 33.847-6.994 197.593 197.593 0 0 1 140.326 35.6L613 325.96a15.554 15.554 0 0 0 20.285-8.534l11.76-28.824a15.569 15.569 0 0 0-8.534-20.287l-50.467-20.58a157.529 157.529 0 0 0-.22-60.427l50.59-21.278a15.575 15.575 0 0 0 8.314-20.38l-12.944-30.75a15.559 15.559 0 0 0-20.382-8.312l-50.572 21.28a157.707 157.707 0 0 0-43.049-42.409L538.356 35a15.557 15.557 0 0 0-8.534-20.29L501 2.953a15.573 15.573 0 0 0-20.294 8.534L460.143 61.95a157.692 157.692 0 0 0-60.434.22l-21.278-50.584a15.558 15.558 0 0 0-20.382-8.31L327.3 16.211a15.565 15.565 0 0 0-8.306 20.377l21.278 50.583a157.567 157.567 0 0 0-42.407 43.047l-50.467-20.58a15.556 15.556 0 0 0-20.285 8.534L215.358 147a15.564 15.564 0 0 0 8.525 20.287l50.467 20.582a157.692 157.692 0 0 0 .22 60.425l-50.59 21.278a15.569 15.569 0 0 0-8.306 20.38l12.947 30.748a15.545 15.545 0 0 0 20.373 8.31l50.581-21.278a158.031 158.031 0 0 0 40.096 40.005z"/><path d="M486 325.8A160.2 160.2 0 1 0 646.2 486 160.2 160.2 0 0 0 486 325.8zM576 495a9 9 0 0 1-9 9h-63v63a9 9 0 0 1-9 9h-18a9 9 0 0 1-9-9v-63h-63a9 9 0 0 1-9-9v-18a9 9 0 0 1 9-9h63v-63a9 9 0 0 1 9-9h18a9 9 0 0 1 9 9v63h63a9 9 0 0 1 9 9v18z"/></svg>