<svg xmlns="http://www.w3.org/2000/svg" width="648" height="648" viewBox="0 0 648 648"><title>GenderFemale_18</title><circle cx="324" cy="66.329" r="66.329"/><path d="M231.505 238.454l9.316 108.7-73.945 127.22a10.05 10.05 0 0 0 9.66 12.823h75.87l29.777 152.724A9.991 9.991 0 0 0 291.99 648h64.02a9.991 9.991 0 0 0 9.807-8.079L395.593 487.2h75.87a10.05 10.05 0 0 0 9.66-12.823L407.867 347.15l8.772-109c2.156-26.792-9.359-54.467-32.92-67.4a70.8 70.8 0 0 0-34.134-8.75h-51.17a70.8 70.8 0 0 0-34.015 8.679c-23.707 12.957-35.2 40.858-32.895 67.775z"/></svg>