<svg xmlns="http://www.w3.org/2000/svg" width="648" height="648" viewBox="0 0 648 648"><title>Gift_18</title><path d="M36 594a18 18 0 0 0 18 18h234V360H36v234zM0 234v72a18 18 0 0 0 18 18h270V216H18a17.994 17.994 0 0 0-18 18zm360 378h234a18 18 0 0 0 18-18V360H360v252zm270-396H360v108h270a18 18 0 0 0 18-18v-72a17.994 17.994 0 0 0-18-18zM468 36c-32.572 0-101.479 25.02-144 93.1C281.479 61.02 212.572 36 180 36a72 72 0 0 0 0 144h288a72 72 0 0 0 0-144zM180 144a36 36 0 0 1 0-72c20.672 0 75.938 18.1 111.621 72H180zm288 0H356.379C392.063 90.1 447.328 72 468 72a36 36 0 0 1 0 72z"/></svg>