<svg xmlns="http://www.w3.org/2000/svg" width="648" height="648" viewBox="0 0 648 648"><title>GlobeStrike_18</title><path d="M128.621 247.838a109.073 109.073 0 0 1-3.78-33.89l-43.682-43.7C52.312 215.842 36 269.147 36 324.032c0 164.016 142.981 261.76 243.968 283.168a124 124 0 0 0 18.806 2.981c36.018-91.8-31.9-194.2-76.727-260.9-37.32-55.55-71.247-21.202-93.426-101.443zM328.482 612c8.6-.234 35.982-2.97 41.591-3.884a280.933 280.933 0 0 0 107.262-41.692l-55.548-55.548c-17.367 29.862-39.78 60.962-93.305 101.124zm261.58-269.442c-29-11.034-53.86 26.546-56.056-74.959-.6-27.461 10.231-48.334 29.988-72a55.808 55.808 0 0 1 13.133-6.275c-3.449-6.282-7.279-12.312-11.164-18.317-.67.349-1.267.8-1.969 1.12-22.5 10.5-25.61 13.59-36 0-14.872-19.472-2.074-34.8 6.239-41.864C481.288 73.116 406.336 36.4 324.475 36.277c36.493.5 80.032 27.533 57.83 70.722 3.341-6.865-72.49-23.224-82.793-23.224-13.9 0 28.354-52 24.487-47.5a289.531 289.531 0 0 0-119.073 25.616c19.688 12.712 41.605 8.273 63.792 13.752 4.745.551 11.178 3.035 19.775 8.132a66.79 66.79 0 0 0-19.775-8.132c-32.731-3.794 15.836 85.993 13.99 74.048 8.968-41.256 65.023-57.175 82.177-2.642 1.548 4.511-2.812 24.649-15.062 40.77-10.915 14.346-18 33.3-23.645 49.27L566.19 477.1c24.469-38.153 40.432-81.914 44.633-128.21-6.066-.025-12.939-1.933-20.761-6.332zM568.433 606.618L43.722 81.907a9.163 9.163 0 0 1 0-12.953l25.232-25.232a9.163 9.163 0 0 1 12.953 0l524.711 524.711a9.158 9.158 0 0 1 0 12.949l-25.236 25.236a9.158 9.158 0 0 1-12.949 0z"/></svg>