<svg xmlns="http://www.w3.org/2000/svg" width="648" height="648" viewBox="0 0 648 648"><title>GlobeEnter_18</title><path d="M129.8 247.838c-18.844-68.164 29.795-97.506 25-155.755C81.369 145.916 37.178 232.994 37.178 324.031c0 164.017 142.98 261.76 243.967 283.17a123.764 123.764 0 0 0 18.809 2.979c36.018-91.8-31.9-194.2-76.729-260.895-37.319-55.555-71.245-21.207-93.425-101.447z"/><path d="M430.049 393.144l33.539-34.708c7.488-8.508 19.723-14.01 32.52-14.01a45.094 45.094 0 0 1 45.07 45.018v36.809h52.172A280.748 280.748 0 0 0 612 348.9c-6.064-.031-12.937-1.938-20.76-6.337-29-11.035-53.859 26.547-56.057-74.958-.6-27.461 10.23-48.335 29.988-72a55.6 55.6 0 0 1 13.131-6.275c-3.445-6.284-7.277-12.313-11.162-18.316-.668.347-1.266.8-1.969 1.116-22.5 10.5-25.611 13.592-36 0-14.871-19.472-2.074-34.8 6.24-41.862-52.945-57.146-127.9-93.858-209.76-93.986 36.492.5 80.033 27.532 57.832 70.721 3.34-6.864-72.492-23.221-82.793-23.221-13.9 0 28.354-52 24.486-47.5A289.486 289.486 0 0 0 206.1 61.893c19.688 12.709 41.607 8.271 63.791 13.75 4.746.549 11.18 3.037 19.775 8.134a66.733 66.733 0 0 0-19.775-8.134c-32.73-3.792 15.838 85.992 13.992 74.048 8.965-41.256 65.021-57.173 82.178-2.641 1.547 4.509-2.812 24.649-15.064 40.768-25.4 33.372-30.533 92.769-43.207 77.577-118.635-48.577-105.574 15.68-66.639 58.636 62.35 68.766 30.709 7.049 112.359 43.053 25.738 11.338 53.424 19.274 76.539 26.06zM371.021 577.081A442.95 442.95 0 0 1 329.66 612c8.6-.233 35.982-2.971 41.59-3.885 8.578-1.4 17-3.252 25.313-5.427z"/><path d="M488.273 383.457A9 9 0 0 1 504 389.436v72.818h126a18 18 0 0 1 18 18v72a18 18 0 0 1-18 18H504v68.727a9 9 0 0 1-15.727 5.979L360 516.255z"/></svg>