<svg xmlns="http://www.w3.org/2000/svg" width="648" height="648" viewBox="0 0 648 648"><title>GlobeSearch_18</title><path d="M128.619 247.838c-18.842-68.166 29.795-97.506 25-155.755C80.189 145.916 36 232.994 36 324.031c0 164.017 142.98 261.76 243.969 283.17a124.214 124.214 0 0 0 18.811 2.982c36.02-91.8-31.917-194.2-76.733-260.9-37.323-55.555-71.247-21.207-93.428-101.445zM525.377 323.245c-46.115 6.053-84.128 42.747-91.826 88.616-6.62 39.442 8.5 75.205 34.836 98.705l-67.532 105.386a9 9 0 0 0 2.721 12.433l15.15 9.711a9 9 0 0 0 12.434-2.722l67.513-105.361a108.175 108.175 0 0 0 69.029 4.725c38.957-9.989 69.881-42.21 77.953-81.609 15.291-74.629-46.462-139.572-120.278-129.884zM540 502.283a72 72 0 1 1 72-72 72 72 0 0 1-72 72z"/><path d="M577.125 189.325c-3.445-6.284-7.277-12.313-11.162-18.316-.668.347-1.266.8-1.969 1.116-22.5 10.5-25.611 13.592-36 0-14.871-19.472-2.074-34.8 6.24-41.862-52.945-57.146-127.9-93.858-209.76-93.986 36.492.5 80.033 27.532 57.832 70.721 3.34-6.864-72.492-23.221-82.793-23.221-13.9 0 28.354-52 24.486-47.5a289.486 289.486 0 0 0-119.073 25.616c19.688 12.709 41.607 8.271 63.791 13.75 4.746.549 11.18 3.037 19.775 8.134a66.733 66.733 0 0 0-19.775-8.134c-32.73-3.792 15.838 85.992 13.992 74.048 8.965-41.256 65.021-57.173 82.178-2.641 1.547 4.509-2.812 24.649-15.064 40.768-25.4 33.372-30.533 92.769-43.207 77.577-118.635-48.577-105.574 15.68-66.639 58.636 62.35 68.766 30.709 7.049 112.359 43.053 17.262 7.611 35.4 13.667 52.488 18.9 16.787-51.877 62.6-91.217 117.6-98.437 4.184-.545 8.279-.62 12.393-.813a461.02 461.02 0 0 1-.809-19.129c-.6-27.461 10.23-48.335 29.988-72a55.6 55.6 0 0 1 13.129-6.28z"/></svg>