<svg xmlns="http://www.w3.org/2000/svg" width="648" height="648" viewBox="0 0 648 648"><title>GlobeCheck_18</title><path d="M264.6 486a221.676 221.676 0 0 1 7.348-55.747c-15.873-30.008-34.26-57.691-49.9-80.969-37.318-55.556-71.244-21.208-93.428-101.446-18.844-68.166 29.795-97.506 25-155.755C80.191 145.916 36 232.994 36 324.031c0 164.017 142.98 261.76 243.967 283.17a124.06 124.06 0 0 0 18.809 2.982c.545-1.38.844-2.784 1.354-4.168A220.078 220.078 0 0 1 264.6 486z"/><path d="M288.492 83.777a66.674 66.674 0 0 0-19.775-8.134c-32.73-3.792 15.838 85.992 13.992 74.048 8.965-41.256 65.021-57.173 82.178-2.643 1.547 4.511-2.812 24.651-15.064 40.77-25.4 33.372-30.533 92.769-43.207 77.577-118.635-48.575-105.574 15.68-66.639 58.636 46.037 50.774 40.923 30.469 67.923 30.836C348.223 300.208 412.875 264.6 486 264.6a221.621 221.621 0 0 1 48.094 5.392c-.018-.848-.07-1.523-.088-2.391-.6-27.461 10.23-48.335 29.988-72a55.7 55.7 0 0 1 13.131-6.278c-3.445-6.282-7.277-12.311-11.162-18.316-.668.349-1.266.8-1.969 1.118-22.5 10.5-25.611 13.592-36 0-14.871-19.472-2.074-34.8 6.24-41.865-52.945-57.144-127.9-93.854-209.76-93.984 36.492.5 80.033 27.532 57.832 70.721 3.34-6.862-72.492-23.221-82.793-23.221-13.9 0 28.354-52 24.486-47.5A289.519 289.519 0 0 0 204.926 61.89c19.688 12.713 41.607 8.271 63.791 13.753 4.746.549 11.183 3.037 19.775 8.134zM486 325.8A160.2 160.2 0 1 0 646.2 486 160.2 160.2 0 0 0 486 325.8zm-42.083 257.619l-74.3-74.3a9 9 0 0 1 0-12.728l18.656-18.656a9 9 0 0 1 12.728 0l49.166 49.165 109.907-109.909a9 9 0 0 1 12.728 0l18.77 18.77a9 9 0 0 1 0 12.728l-134.927 134.93a9 9 0 0 1-12.728 0z"/></svg>