<svg xmlns="http://www.w3.org/2000/svg" width="648" height="648" viewBox="0 0 648 648"><title>GlobeStrikeClock_18</title><path d="M486 325.514a160.2 160.2 0 1 0 160.207 160.2A160.206 160.206 0 0 0 486 325.514zm0 286.2a126 126 0 1 1 126-126 126 126 0 0 1-126 125.998z"/><path d="M502.292 477.3V403a9 9 0 0 0-9-9h-18a9 9 0 0 0-9 9v94.122l58.945 37.292a9 9 0 0 0 12.417-2.794l9.624-15.212A9 9 0 0 0 544.486 504zM264.6 486a221.694 221.694 0 0 1 7.348-55.749c-15.873-30.006-34.26-57.687-49.9-80.965-37.318-55.556-71.244-21.208-93.428-101.448a109.128 109.128 0 0 1-3.779-33.891l-43.683-43.694C52.313 215.842 36 269.147 36 324.031c0 164.017 142.98 261.76 243.967 283.17a123.764 123.764 0 0 0 18.809 2.979c.545-1.38.844-2.786 1.336-4.175A220.181 220.181 0 0 1 264.6 486zM311.66 349.844a222.488 222.488 0 0 1 38.18-38.184L81.914 43.721a9.169 9.169 0 0 0-12.955 0L43.717 68.955a9.172 9.172 0 0 0 0 12.951zM288.492 83.777a66.733 66.733 0 0 0-19.775-8.134c-32.73-3.792 15.838 85.992 13.992 74.048 8.965-41.256 65.021-57.173 82.178-2.641 1.547 4.509-2.812 24.649-15.064 40.768-10.916 14.348-18 33.3-23.643 49.271l54.246 54.25a220.366 220.366 0 0 1 153.668-21.349c-.018-.848-.07-1.521-.088-2.391-.6-27.461 10.23-48.335 29.988-72a55.6 55.6 0 0 1 13.131-6.275c-3.445-6.284-7.277-12.313-11.162-18.316-.668.347-1.266.8-1.969 1.116-22.5 10.5-25.611 13.592-36 0-14.871-19.472-2.074-34.8 6.24-41.862-52.945-57.146-127.9-93.858-209.76-93.986 36.492.5 80.033 27.532 57.832 70.721 3.34-6.864-72.492-23.221-82.793-23.221-13.9 0 28.354-52 24.486-47.5a289.486 289.486 0 0 0-119.073 25.617c19.688 12.709 41.607 8.271 63.791 13.75 4.746.549 11.183 3.037 19.775 8.134z"/></svg>