<svg xmlns="http://www.w3.org/2000/svg" width="648" height="648" viewBox="0 0 648 648"><title>GlobeRemove_18</title><path d="M271.951 430.251c-15.873-30.006-34.26-57.691-49.9-80.965-37.318-55.556-71.244-21.208-93.428-101.448-18.844-68.164 29.795-97.506 25-155.755C80.191 145.916 36 232.994 36 324.031c0 164.017 142.98 261.76 243.967 283.17a123.764 123.764 0 0 0 18.809 2.979c.545-1.38.844-2.782 1.354-4.166a218.846 218.846 0 0 1-28.179-175.763zm305.174-240.926c-3.445-6.284-7.277-12.313-11.162-18.316-.668.347-1.266.8-1.969 1.116-22.5 10.5-25.611 13.592-36 0-14.871-19.472-2.074-34.8 6.24-41.862-52.945-57.146-127.9-93.858-209.76-93.986 36.492.5 80.033 27.532 57.832 70.721 3.34-6.864-72.492-23.221-82.793-23.221-13.9 0 28.354-52 24.486-47.5a289.486 289.486 0 0 0-119.073 25.616c19.688 12.709 41.607 8.271 63.791 13.75 4.746.549 11.18 3.037 19.775 8.134a66.733 66.733 0 0 0-19.775-8.134c-32.73-3.792 15.838 85.992 13.992 74.048 8.965-41.256 65.021-57.173 82.178-2.641 1.547 4.509-2.812 24.649-15.064 40.768-25.4 33.372-30.533 92.769-43.207 77.577-118.635-48.577-105.574 15.68-66.639 58.636 46.037 50.774 40.922 30.476 67.922 30.836C348.223 300.208 412.875 264.6 486 264.6a221.757 221.757 0 0 1 48.094 5.392c-.018-.848-.07-1.521-.088-2.391-.6-27.461 10.23-48.335 29.988-72a55.6 55.6 0 0 1 13.131-6.276zM486 325.8A160.2 160.2 0 1 0 646.2 486 160.2 160.2 0 0 0 486 325.8zM576 495a9 9 0 0 1-9 9H405a9 9 0 0 1-9-9v-18a9 9 0 0 1 9-9h162a9 9 0 0 1 9 9v18z"/></svg>