<svg xmlns="http://www.w3.org/2000/svg" width="648" height="648" viewBox="0 0 648 648"><title>GooglePlus1_18</title><path d="M648 199.678v285.345h-39.358V258.715h-49.2v-19.679zm-485.648 119.48h153.305a149.33 149.33 0 0 1 2.552 26.9c0 92.773-62.158 158.64-155.857 158.64a162.351 162.351 0 1 1 0-324.7c43.834 0 80.479 16 108.775 42.443l-44.067 42.444c-12.061-11.6-33.167-25.049-64.709-25.049-55.432 0-100.658 45.922-100.658 102.513s45.227 102.515 100.659 102.515c64.244 0 88.365-46.154 92.076-70.043h-92.076v-55.663zm347.9 0h-46.391v-46.387h-46.386v46.387h-46.386v46.385h46.385v46.387h46.387v-46.386h46.386v-46.386z"/></svg>