<svg xmlns="http://www.w3.org/2000/svg" data-name="S_Gradient_18_N@2x" height="36" id="S_Gradient_18_N_2x" viewBox="0 0 36 36" width="36"><defs><style>.cls-14{fill:#707070}.cls-1{fill:#000;opacity:.9}.cls-2,.cls-3{fill:#000;opacity:.8}.cls-3{opacity:.7}.cls-4,.cls-5{fill:#000;opacity:.6}.cls-5{opacity:.5}.cls-6,.cls-7{fill:#000;opacity:.4}.cls-7{opacity:.25}.cls-8,.cls-9{fill:#000;opacity:.3}.cls-9{opacity:.35}.cls-10,.cls-11{fill:#000;opacity:.2}.cls-11{opacity:.15}.cls-12,.cls-13{fill:#000;opacity:.1}.cls-13{opacity:.05}</style></defs><title>S_Gradient_18_N@2x</title><path class="cls-1" d="M4 6h2v24H4z"/><path class="cls-2" d="M6 6h2v24H6z"/><path class="cls-3" d="M8 6h2v24H8z"/><path class="cls-4" d="M10 6h2v24h-2z"/><path class="cls-5" d="M12 6h2v24h-2z"/><path class="cls-6" d="M14 6h2v24h-2z"/><path class="cls-7" d="M20 6h2v24h-2z"/><path class="cls-8" d="M18 6h2v24h-2z"/><path class="cls-9" d="M16 6h2v24h-2z"/><path class="cls-10" d="M22 6h2v24h-2z"/><path class="cls-11" d="M24 6h2v24h-2z"/><path class="cls-12" d="M26 6h2v24h-2z"/><path class="cls-13" d="M28 6h2v24h-2z"/><path class="cls-14" d="M2 5v26a1 1 0 0 0 1 1h30a1 1 0 0 0 1-1V5a1 1 0 0 0-1-1H3a1 1 0 0 0-1 1zm30 25H4V6h28z"/></svg>