<svg xmlns="http://www.w3.org/2000/svg" width="648" height="648" viewBox="0 0 648 648"><title>GraphBarHorizontalAdd_18</title><path d="M412.91 216H108v108h227.443A220.49 220.49 0 0 1 432 271.512V235.09A19.088 19.088 0 0 0 412.91 216zM594 72H108v108h486a18 18 0 0 0 18-18V90a18 18 0 0 0-18-18zM193.957 504H108v108h85.957A22.05 22.05 0 0 0 216 589.957v-63.914A22.05 22.05 0 0 0 193.957 504zm73.916-144H108v108h157.5a219.878 219.878 0 0 1 22.5-80.64v-7.233A20.13 20.13 0 0 0 267.873 360zM486 325.8A160.2 160.2 0 1 0 646.2 486 160.2 160.2 0 0 0 486 325.8zM576 495a9 9 0 0 1-9 9h-63v63a9 9 0 0 1-9 9h-18a9 9 0 0 1-9-9v-63h-63a9 9 0 0 1-9-9v-18a9 9 0 0 1 9-9h63v-63a9 9 0 0 1 9-9h18a9 9 0 0 1 9 9v63h63a9 9 0 0 1 9 9v18z"/></svg>