<svg xmlns="http://www.w3.org/2000/svg" width="648" height="648" viewBox="0 0 648 648"><title>GraphStreamRanked_18</title><path d="M403.559 495.58C291.338 500.094 255.1 531 180 531c-70.729 0-125.294-36-144-36v117h576v-81c-135.984 0-172.441-30.586-208.441-35.42zM180 261c46.477 0 78.855 21.938 107.4 41.309C311.73 318.762 332.719 333 360 333c14.027 0 20.5-76.641 23.238-109.371.7-8.227 1.441-16.787 2.25-25.453C377.965 208.978 369.949 216 360 216c-58.887 0-101.074-72-180-72-107.648 0-95.906 72-144 72v117c13.816 0 24.082-8.859 41.063-24.469C98.824 288.457 128.637 261 180 261z"/><path d="M437.063 228.164C430.488 306.246 423.668 387 360 387c-43.84 0-75.2-21.27-102.867-40.008C231.785 329.836 209.918 315 180 315c-30.27 0-47 15.4-66.34 33.223C93.938 366.4 71.578 387 36 387v54c30.938 0 52.031 9.7 70.664 18.281C126.422 468.387 145.125 477 180 477c28.652 0 51.223-5.8 79.77-13.113 33.574-8.613 74.338-18.932 136.23-21.946a60.608 60.608 0 0 1 8.051-.4c8.894-.33 18.14-.541 27.949-.541 11.813 0 16.84-14.133 23.344-65.777C462.9 315.387 474.328 225 576 225h36V63H504c-49.254 0-58.816 68.449-66.937 165.164z"/><path d="M508.922 381.973c-3.357 26.648-7.77 58.447-21.621 81.633C515.285 470.769 553.254 477 612 477V279h-36c-48.937 0-58.043 31.395-67.078 102.973z"/></svg>