<svg xmlns="http://www.w3.org/2000/svg" width="648" height="648" viewBox="0 0 648 648"><title>GraphAreaStacked_18</title><path d="M546.685 301.37L612 432v162a18 18 0 0 1-18 18H54a18 18 0 0 1-18-18V324l180 216 64.512-96.767a9 9 0 0 1 14.977 0L360 540l171.312-239.836a9 9 0 0 1 15.373 1.206z"/><path d="M211.834 461.887l38.725-58.087a44.994 44.994 0 0 1 74.883 0l35.895 53.82 142.311-199.244c19.723-27.6 61.717-24.3 76.869 6.034L612 327.362V144l-64.266-96.4a9 9 0 0 0-15.117.224L360 324l-64.512-96.768a9 9 0 0 0-14.977 0L216 324 36 144v106.893z"/></svg>