<svg xmlns="http://www.w3.org/2000/svg" width="648" height="648" viewBox="0 0 648 648"><title>GraphPathing_18</title><rect x="36" y="36" width="108" height="216" rx="9" ry="9"/><rect x="468" y="36" width="144" height="144" rx="9" ry="9"/><rect x="468" y="252" width="144" height="144" rx="9" ry="9"/><rect x="468" y="468" width="144" height="144" rx="9" ry="9"/><path d="M432 116.627a9.142 9.142 0 0 1-9.242 9.048c-59.486-.9-96.465-10.383-132.3-19.584-30.6-7.854-59.594-15.309-101.5-16.248A9.069 9.069 0 0 1 180 80.912V62.918a9.181 9.181 0 0 1 9.317-9.074c46.31 1 78.7 9.324 110.073 17.373C333.1 79.861 367.858 88.791 423 89.673a9.069 9.069 0 0 1 9 8.955v18zM432 325.052a8.979 8.979 0 0 1-9.45 9.044c-52.865-4.248-75.858-44.262-98.128-83.02-27.575-47.985-53.675-93.412-135.559-96.448a9.051 9.051 0 0 1-8.863-8.9v-18.039a9.1 9.1 0 0 1 9.3-9.065c102.556 3.495 137.831 64.911 166.342 114.523 22.051 38.379 36.816 61.414 67.842 64.867 4.748.528 8.517 4.192 8.517 8.969v18.069z"/><path d="M432 548.133a9.181 9.181 0 0 1-10.64 8.912c-57.605-7.761-82.807-78.935-109.418-154.023-28.307-79.86-57.52-162.342-123.437-168.863a9.091 9.091 0 0 1-8.5-8.887v-18.12a9.033 9.033 0 0 1 9.449-9.076C279.813 204.508 314.829 303.391 345.867 391c22.481 63.4 43.773 123.51 79.509 130.141 3.986.74 6.624 4.613 6.624 8.667v18.327z"/></svg>