<svg xmlns="http://www.w3.org/2000/svg" width="648" height="648" viewBox="0 0 648 648"><title>GraphProfitCurve_18</title><path d="M45.229 36.105a9.183 9.183 0 0 0-9.264 9.141v17.983a8.928 8.928 0 0 0 8.859 8.877C187.664 74.268 308.145 129.278 396.65 216H360v36h70.014c79.541 94.605 125.947 218.127 127.881 351.211a8.886 8.886 0 0 0 8.877 8.824h18a9.145 9.145 0 0 0 9.123-9.211C589.412 302.238 365.537 41.045 45.229 36.105zM396 504h36v72h-36z"/><path d="M396 396h36v72h-36zM396 288h36v72h-36zM252 216h72v36h-72zM144 216h72v36h-72zM36 216h72v36H36z"/></svg>