<svg xmlns="http://www.w3.org/2000/svg" width="648" height="648" viewBox="0 0 648 648"><title>GraphConfidenceBands_18</title><path d="M286.277 377.719a18 18 0 0 0 10.477-32.66l-29.285-20.918a18.019 18.019 0 1 0-20.953 29.32l29.284 20.918a18.161 18.161 0 0 0 10.477 3.34zM184.992 354.023l26.649-24.223a17.994 17.994 0 1 0-24.187-26.648L160.8 327.375a17.994 17.994 0 1 0 24.192 26.648zM105.082 426.691l26.648-24.223a17.994 17.994 0 0 0-24.188-26.648l-26.647 24.223a17.994 17.994 0 1 0 24.187 26.648zM465.047 396a18.206 18.206 0 0 0-9.773 5.027l-165.34 165.34-95.52-127.406a18.232 18.232 0 0 0-12.34-7.1 18.861 18.861 0 0 0-13.605 4.078L0 576.325v46.855L176.977 475.7l96.609 128.848a18.094 18.094 0 0 0 13.148 7.172 17.245 17.245 0 0 0 13.992-5.238l175.922-175.923L648 402v-36.489zM51.82 475.1a17.994 17.994 0 0 0-24.187-26.648L.984 472.676c-.352.316-.668.65-.984.984v24.68a17.957 17.957 0 0 0 25.172.984zM505.9 250.77l29.355-8.4a17.993 17.993 0 1 0-9.914-34.594l-31.219 8.93a17.835 17.835 0 0 0-7.77 4.57l-2.5 2.5c-7.031 7.031-5.766 17.191 1.23 24.223a16.91 16.91 0 0 0 12.059 4.676 21.551 21.551 0 0 0 8.759-1.905z"/><path d="M647.561 0L438.4 78.434a17.7 17.7 0 0 0-6.4 4.113L295.207 219.34 161.086 185.8A18.129 18.129 0 0 0 144 190.547l-144 144v50.906l162.246-162.246 134.121 33.539A18.153 18.153 0 0 0 313.453 252l141.258-141.258L648 38.259V0h-.439zM629.191 178.1l-34.629 9.914a18 18 0 0 0 4.957 35.3 17.408 17.408 0 0 0 4.957-.7l34.629-9.914a17.9 17.9 0 0 0 8.895-5.81v-23.01a17.715 17.715 0 0 0-18.809-5.78zM356.555 401.977l25.488-25.488a18 18 0 0 0-25.453-25.453l-25.49 25.487a18 18 0 1 0 25.455 25.454zM432.949 325.582l25.451-25.453a18 18 0 0 0-25.453-25.453L407.5 300.129a18 18 0 1 0 25.449 25.453z"/></svg>