<svg xmlns="http://www.w3.org/2000/svg" width="648" height="648" viewBox="0 0 648 648"><title>GraphTrendAlert_18</title><path d="M630.07 608.555l-155.935-308.83c-9.984-19.775-38.215-19.775-48.2 0L269.93 608.555A27.9 27.9 0 0 0 295.33 648h309.34a27.9 27.9 0 0 0 25.4-39.445zM441 360h18a9 9 0 0 1 9 9v126a9 9 0 0 1-9 9h-18a9 9 0 0 1-9-9V369a9 9 0 0 1 9-9zm26.84 223.2h-35.68a7.36 7.36 0 0 1-7.36-7.36v-35.686a7.36 7.36 0 0 1 7.36-7.36h35.68a7.36 7.36 0 0 1 7.36 7.36v35.687a7.36 7.36 0 0 1-7.36 7.359zM595.688 37.1L456.363 231.768a79.611 79.611 0 0 1 61.611 37.327l92.408-132a9.015 9.015 0 0 0 1.618-5.162v-89.6a9 9 0 0 0-16.312-5.233zM359.6 96.724l-98.1 269.851-73.459-73.468a9 9 0 0 0-12.129-.554L39.234 406.424A9.049 9.049 0 0 0 36 413.341v75.393a9 9 0 0 0 14.924 6.776l126.861-110.83 96.17 96.152 80.666-159.68 27.58-52.225a79.643 79.643 0 0 1 61.893-37.213L376.1 95.774a9 9 0 0 0-16.5.95z"/></svg>