<svg xmlns="http://www.w3.org/2000/svg" width="648" height="648" viewBox="0 0 648 648"><title>GraphDonut_18</title><path d="M360 49.111v129.4a8.8 8.8 0 0 0 6.355 8.38C425.118 205.015 468 259.291 468 324.005s-42.882 118.982-101.645 137.1a8.8 8.8 0 0 0-6.355 8.38v129.4a9.239 9.239 0 0 0 10.561 9.109C507.443 585.711 612 467.175 612 324S507.443 62.282 370.561 40A9.239 9.239 0 0 0 360 49.111zM233.266 212.877a144.635 144.635 0 0 1 48.416-25.989 8.743 8.743 0 0 0 6.318-8.33V49.122a9.25 9.25 0 0 0-10.573-9.116 287.568 287.568 0 0 0-164.088 88 9.2 9.2 0 0 0 1.745 13.809l107.763 71.674a8.726 8.726 0 0 0 10.419-.612zM180 324.005a142.467 142.467 0 0 1 5.991-40.949 8.737 8.737 0 0 0-3.466-9.913l-107.5-71.5a9.242 9.242 0 0 0-13.461 3.7A286.341 286.341 0 0 0 36 324c0 143.175 104.557 261.711 241.439 283.99A9.239 9.239 0 0 0 288 598.882v-129.4a8.8 8.8 0 0 0-6.355-8.38C222.882 442.987 180 388.711 180 324.005z"/></svg>