<svg xmlns="http://www.w3.org/2000/svg" width="648" height="648" viewBox="0 0 648 648"><title>GraphPie_18</title><path d="M288 227.894V49.139a9.265 9.265 0 0 0-10.589-9.127 287.133 287.133 0 0 0-150.911 74.94 9.2 9.2 0 0 0 1.031 14.018l146.18 106.2A9 9 0 0 0 288 227.894zm72-178.78v549.77a9.239 9.239 0 0 0 10.561 9.109C507.445 585.714 612 467.179 612 324S507.445 62.286 370.561 40.006A9.239 9.239 0 0 0 360 49.115zM36 324c0 143.179 104.555 261.714 241.439 283.994A9.239 9.239 0 0 0 288 598.885V354.724a9 9 0 0 0-3.71-7.281L77.585 197.268a9.174 9.174 0 0 0-13.608 3.31A285.7 285.7 0 0 0 36 324z"/></svg>