<svg xmlns="http://www.w3.org/2000/svg" width="648" height="648" viewBox="0 0 648 648"><title>GraphBarVerticalStacked_18</title><rect y="576" width="612" height="36" rx="9" ry="9"/><path d="M180 432h108v108H180zM468 288h108v252H468zM36 468h108v72H36zM324 360h108v180H324zM432 198v126H324V198a18 18 0 0 1 18-18h72a18 18 0 0 1 18 18zM576 54v198H468V54a18 18 0 0 1 18-18h72a18 18 0 0 1 18 18zM288 342v54H180v-54a18 18 0 0 1 18-18h72a18 18 0 0 1 18 18zM144 378v54H36v-54a18 18 0 0 1 18-18h72a18 18 0 0 1 18 18z"/></svg>