<svg xmlns="http://www.w3.org/2000/svg" width="648" height="648" viewBox="0 0 648 648"><title>GraphStream_18</title><path d="M432 180c-89.051 0-96.416-108-180-108-75.832 0-106.172 118.2-216 140.177v51.293c51.188-5.458 83.2-22.008 114.047-38.294C180.879 208.9 210.023 193.5 252 193.5c51.328 0 84.832 22.992 114.363 43.242C388.863 252.176 408.27 265.5 432 265.5c25.418 0 47.672-6.363 73.477-13.711 27.723-7.945 61.453-17.112 106.523-20.61V110.971C533.619 124.488 510.223 180 432 180zm0 238.5c-22.078 0-48.445 7.77-76.359 15.961C322.207 444.3 287.648 454.5 252 454.5c-52.453 0-92.426-9.457-131.1-18.6-27.6-6.539-54.211-12.718-84.9-15.627v50.977C113.924 485.209 165.023 540 252 540c62.279 0 127.16-36 180-36 47.461 0 81.316 57.911 180 69.75V452.6c-37.582-3.674-72.246-12.261-103.676-20.109C478.3 424.969 452.355 418.5 432 418.5zm0-108c-37.687 0-64.828-18.633-91.09-36.633C314.4 255.656 289.371 238.5 252 238.5c-30.832 0-52.945 11.672-80.93 26.473-32.57 17.2-72.14 37.801-135.07 43.716v66.375c35.754 3.032 65.918 10.1 95.273 17.033C169.1 401.063 204.82 409.5 252 409.5c29.18 0 60.574-9.246 90.949-18.176C374.027 382.148 403.418 373.5 432 373.5c25.91 0 54.352 7.1 87.258 15.328 28.477 7.137 59.818 14.9 92.742 18.536v-131.2c-38.848 3.313-68.027 11.4-94.184 18.87C490.008 302.977 463.711 310.5 432 310.5z"/></svg>