<svg xmlns="http://www.w3.org/2000/svg" width="648" height="648" viewBox="0 0 648 648"><title>GraphTrendAdd_18</title><path d="M361.143 303.223l16.084-44.262 13.673 27.334a214.578 214.578 0 0 1 128.285-18.94l91.2-130.263a9.015 9.015 0 0 0 1.615-5.159v-89.6a9 9 0 0 0-16.312-5.233L449.156 241.84 376.1 95.774a9 9 0 0 0-16.506.949l-98.1 269.851-73.459-73.468a9 9 0 0 0-12.129-.554L39.234 406.424A9.049 9.049 0 0 0 36 413.341v75.393a9 9 0 0 0 14.924 6.776l126.861-110.83 87.5 87.5a221.066 221.066 0 0 1 95.858-168.957z"/><path d="M486 325.8A160.2 160.2 0 1 0 646.2 486 160.2 160.2 0 0 0 486 325.8zM576 495a9 9 0 0 1-9 9h-63v63a9 9 0 0 1-9 9h-18a9 9 0 0 1-9-9v-63h-63a9 9 0 0 1-9-9v-18a9 9 0 0 1 9-9h63v-63a9 9 0 0 1 9-9h18a9 9 0 0 1 9 9v63h63a9 9 0 0 1 9 9v18z"/></svg>