<svg xmlns="http://www.w3.org/2000/svg" width="648" height="648" viewBox="0 0 648 648"><title>GraphStreamRankedAdd_18</title><path d="M504 63c-49.254 0-58.816 68.449-66.937 165.164-1.23 14.511-2.584 28.96-4.184 43.119A221.422 221.422 0 0 1 486 264.6c.932 0 1.828.123 2.76.141C506 241.392 532.811 225 576 225h36V63H504zM180 477c28.652 0 51.223-5.8 79.77-13.113 1.916-.492 4.148-1.02 6.117-1.521a219.624 219.624 0 0 1 31.148-91.3c-14.449-7.225-27.668-15.776-39.9-24.073C231.785 329.836 209.918 315 180 315c-30.27 0-47 15.4-66.34 33.223C93.938 366.4 71.578 387 36 387v54c30.938 0 52.031 9.7 70.664 18.281C126.422 468.387 145.125 477 180 477zm0 54c-70.734 0-125.3-36-144-36v117h268.066a220.068 220.068 0 0 1-36.949-94.3C239.1 524.856 213.293 531 180 531zm180-315c-58.887 0-101.074-72-180-72-107.648 0-95.906 72-144 72v117c13.816 0 24.082-8.859 41.063-24.469C98.824 288.457 128.637 261 180 261c46.477 0 78.855 21.938 107.4 41.309 15.293 10.345 29.391 19.354 44.438 24.961a221.835 221.835 0 0 1 43.277-32.7c4.113-24.073 6.662-53.587 8.121-70.945.7-8.227 1.441-16.787 2.25-25.453C377.965 208.978 369.949 216 360 216zM486 325.8A160.2 160.2 0 1 0 646.2 486 160.2 160.2 0 0 0 486 325.8zM576 495a9 9 0 0 1-9 9h-63v63a9 9 0 0 1-9 9h-18a9 9 0 0 1-9-9v-63h-63a9 9 0 0 1-9-9v-18a9 9 0 0 1 9-9h63v-63a9 9 0 0 1 9-9h18a9 9 0 0 1 9 9v63h63a9 9 0 0 1 9 9v18z"/></svg>