<svg xmlns="http://www.w3.org/2000/svg" width="648" height="648" viewBox="0 0 648 648"><title>GraphSunburst_18</title><path d="M198.114 285.122h59.92a8.9 8.9 0 0 0 7.347-4.065 72.045 72.045 0 0 1 19.357-19.357 8.9 8.9 0 0 0 4.067-7.348v-59.92c0-6.058-5.953-10.644-11.665-8.629a143.788 143.788 0 0 0-87.654 87.654c-2.016 5.713 2.57 11.665 8.628 11.665zM337.7 464.555c68.36-6 124.521-62.147 130.531-130.506 5.973-67.939-35.664-126.751-95.093-148.011a9.091 9.091 0 0 0-12.337 8.4v59.881a8.946 8.946 0 0 0 4.091 7.395c23.725 16.007 37.628 45.457 29.645 77.611a71.516 71.516 0 0 1-51.589 51.549c-32.14 7.954-61.553-5.948-77.558-29.66a8.946 8.946 0 0 0-7.394-4.09h-59.879a9.091 9.091 0 0 0-8.4 12.336c21.251 59.413 80.051 101.055 147.983 95.095z"/><path d="M367.051 76.466v54.986a8.9 8.9 0 0 0 6.91 8.615c78.6 19.3 137.09 90.343 137.09 174.809a160.45 160.45 0 0 1-1.971 23.824 8.987 8.987 0 0 0 5.555 9.756l51.543 20.29a9.022 9.022 0 0 0 12.176-6.514 246.714 246.714 0 0 0 4.7-47.356c0-122.993-88.69-225.425-205.413-247.369a9.062 9.062 0 0 0-10.59 8.959zM180.317 128.6l14.289 14.284a8.853 8.853 0 0 0 11.222 1.035 214.536 214.536 0 0 1 75.752-31.346 8.872 8.872 0 0 0 7.225-8.665V82.744a9.089 9.089 0 0 0-10.623-8.976 250.037 250.037 0 0 0-96.8 41.065 9.057 9.057 0 0 0-1.065 13.767zm-93.9 156.522h18.832a8.88 8.88 0 0 0 8.649-7.114 214.306 214.306 0 0 1 30.829-72.979 8.865 8.865 0 0 0-1.035-11.24l-13.932-13.932a9.045 9.045 0 0 0-13.842 1.191 250.345 250.345 0 0 0-38.469 93.473 9.074 9.074 0 0 0 8.967 10.601zM128.213 357.122H86.43a9.093 9.093 0 0 0-8.981 10.618 252.36 252.36 0 0 0 200.736 200.779 9.093 9.093 0 0 0 10.62-8.98v-39.36a8.891 8.891 0 0 0-7.036-8.635 192.32 192.32 0 0 1-144.892-147.256 8.894 8.894 0 0 0-8.664-7.166zm356.437 73.3a192.013 192.013 0 0 1-116.792 81.113 8.921 8.921 0 0 0-7.053 8.66v39.3a9.1 9.1 0 0 0 10.625 8.984 252.318 252.318 0 0 0 166.478-113.371 9.076 9.076 0 0 0-4.46-13.166l-38.085-14.992a8.922 8.922 0 0 0-10.713 3.476z"/></svg>