<svg xmlns="http://www.w3.org/2000/svg" width="648" height="648" viewBox="0 0 648 648"><title>GraphDonutAdd_18</title><path d="M61.559 205.348A286.5 286.5 0 0 0 36 324c0 143.174 104.555 261.712 241.436 283.992A9.239 9.239 0 0 0 288 598.878V584.64a214.84 214.84 0 0 1-21.023-129.366C215.982 433.2 180 383.124 180 324a142.256 142.256 0 0 1 5.994-40.939 8.738 8.738 0 0 0-3.463-9.914l-107.508-71.5a9.243 9.243 0 0 0-13.464 3.701zM233.262 212.871a144.809 144.809 0 0 1 48.41-25.98 8.747 8.747 0 0 0 6.328-8.332V49.122a9.253 9.253 0 0 0-10.582-9.114 287.589 287.589 0 0 0-164.074 88 9.193 9.193 0 0 0 1.74 13.808l107.771 71.675a8.7 8.7 0 0 0 10.407-.62zM455.66 266.924a216.838 216.838 0 0 1 155.391 36.439C601.559 169.576 500.8 61.2 370.564 40A9.243 9.243 0 0 0 360 49.113v129.4a8.773 8.773 0 0 0 6.363 8.376 144.228 144.228 0 0 1 89.297 80.035zM486 646.2A160.2 160.2 0 1 0 325.793 486 160.211 160.211 0 0 0 486 646.2zM396 477a8.995 8.995 0 0 1 9-9h63v-63a8.995 8.995 0 0 1 9-9h18a8.995 8.995 0 0 1 9 9v63h63a8.995 8.995 0 0 1 9 9v18a8.995 8.995 0 0 1-9 9h-63v63a8.995 8.995 0 0 1-9 9h-18a8.995 8.995 0 0 1-9-9v-63h-63a8.995 8.995 0 0 1-9-9v-18z"/></svg>