<svg xmlns="http://www.w3.org/2000/svg" width="648" height="648" viewBox="0 0 648 648"><title>GraphBullet_18</title><path d="M36 153v54a8.995 8.995 0 0 0 9 9h99v-72H45a8.995 8.995 0 0 0-9 9zM531 144H288v72h243a8.995 8.995 0 0 0 9-9v-54a8.995 8.995 0 0 0-9-9zM252 288H42.8a6.8 6.8 0 0 0-6.8 6.8v58.4a6.8 6.8 0 0 0 6.8 6.8H252zM36 441v54a8.995 8.995 0 0 0 9 9h315v-72H45a8.995 8.995 0 0 0-9 9zM603 432h-99v72h99a8.995 8.995 0 0 0 9-9v-54a8.995 8.995 0 0 0-9-9z"/><rect x="180" y="108" width="72" height="144" rx="18" ry="18"/><rect x="288" y="252" width="72" height="144" rx="18" ry="18"/><rect x="396" y="396" width="72" height="144" rx="18" ry="18"/></svg>