<svg xmlns="http://www.w3.org/2000/svg" width="648" height="648" viewBox="0 0 648 648"><title>GraphHistogram_18</title><path d="M603 540h-54a8.995 8.995 0 0 0-9 9v-72a8.995 8.995 0 0 0-9-9h-54a8.995 8.995 0 0 0-9 9V369a8.995 8.995 0 0 0-9-9h-54a8.995 8.995 0 0 0-9 9V225a8.995 8.995 0 0 0-9-9h-54a8.995 8.995 0 0 0-9 9V117.334a9.34 9.34 0 0 0-9.334-9.334h-53.332a9.34 9.34 0 0 0-9.334 9.334V189a8.995 8.995 0 0 0-9-9h-54a8.995 8.995 0 0 0-9 9v180a8.995 8.995 0 0 0-9-9h-54a8.995 8.995 0 0 0-9 9v144a8.995 8.995 0 0 0-9-9H45a8.995 8.995 0 0 0-9 9v99h576v-63a8.995 8.995 0 0 0-9-9z"/></svg>