<svg xmlns="http://www.w3.org/2000/svg" width="648" height="648" viewBox="0 0 648 648"><title>GraphBarVerticalAdd_18</title><path d="M414 216h-72a18 18 0 0 0-18 18v101.439a220.835 220.835 0 0 1 108-63.927V234a18 18 0 0 0-18-18zM325.793 486A160.207 160.207 0 1 0 486 325.8 160.208 160.208 0 0 0 325.793 486zM396 477a9 9 0 0 1 9-9h63v-63a9 9 0 0 1 9-9h18a9 9 0 0 1 9 9v63h63a9 9 0 0 1 9 9v18a9 9 0 0 1-9 9h-63v63a9 9 0 0 1-9 9h-18a9 9 0 0 1-9-9v-63h-63a9 9 0 0 1-9-9v-18zM576 283.838V54a18 18 0 0 0-18-18h-72a18 18 0 0 0-18 18v211.509c5.959-.483 11.918-.91 18-.91a220.325 220.325 0 0 1 90 19.239zM9 612h295.066a221.9 221.9 0 0 1-20.232-36H9a9 9 0 0 0-9 9v18a9 9 0 0 0 9 9zM288 378a18 18 0 0 0-18-18h-72a18 18 0 0 0-18 18v162h91.512A217.836 217.836 0 0 1 288 387.36V378zM54 432a18 18 0 0 0-18 18v90h108v-90a18 18 0 0 0-18-18H54z"/></svg>