<svg xmlns="http://www.w3.org/2000/svg" width="648" height="648" viewBox="0 0 648 648"><title>GraphArea_18</title><path d="M546.685 301.37L612 432v162a18 18 0 0 1-18 18H54a18 18 0 0 1-18-18V324l180 216 64.512-96.767a9 9 0 0 1 14.977 0L360 540l171.312-239.836a9 9 0 0 1 15.373 1.206z"/><path d="M211.834 461.887l37.23-55.846 1.492-2.238a45 45 0 0 1 74.888 0l1.492 2.238 34.4 51.583L501.926 260.8l1.729-2.421c19.711-27.6 61.707-24.3 76.87 6.034l1.329 2.658L612 327.362V36L468 216 367.032 115.032a9 9 0 0 0-13.329.665L140.484 376.286z"/></svg>