<svg xmlns="http://www.w3.org/2000/svg" width="648" height="648" viewBox="0 0 648 648"><title>Group_18</title><path d="M396 252v-54a18 18 0 0 0-18-18H198a18 18 0 0 0-18 18v180a18 18 0 0 0 18 18h54V252h144z"/><path d="M450 288H288v162a18 18 0 0 0 18 18h144a18 18 0 0 0 18-18V306a18 18 0 0 0-18-18z"/><path d="M594 144a18 18 0 0 0 18-18V54a18 18 0 0 0-18-18h-72a18 18 0 0 0-18 18v18H144V54a18 18 0 0 0-18-18H54a18 18 0 0 0-18 18v72a18 18 0 0 0 18 18h18v360H54a18 18 0 0 0-18 18v72a18 18 0 0 0 18 18h72a18 18 0 0 0 18-18v-18h360v18a18 18 0 0 0 18 18h72a18 18 0 0 0 18-18v-72a18 18 0 0 0-18-18h-18V144h18zm-54 360h-18a18 18 0 0 0-18 18v18H144v-18a18 18 0 0 0-18-18h-18V144h18a18 18 0 0 0 18-18v-18h360v18a18 18 0 0 0 18 18h18v360z"/></svg>