<svg xmlns="http://www.w3.org/2000/svg" width="648" height="648" viewBox="0 0 648 648"><title>Hammer_18</title><path d="M208.631 73.191l-91.441 91.441a26.2 26.2 0 0 0 .07 37.129l6.186 5.943-27.173 28.31S83.489 223 71.2 235.284l-27.9 27.9a13.1 13.1 0 0 0 0 18.53l73.959 73.959a13.1 13.1 0 0 0 18.53 0l27.9-27.9c10.235-10.235-.419-24.746-.419-24.746l28.644-27.628a26.2 26.2 0 0 0 36.82-.237l15.59-15.59 303.644 303.634a26.2 26.2 0 0 0 37.059 0l24.6-24.6a26.2 26.2 0 0 0 0-37.059L305.989 197.909l10.16-10.16a26.2 26.2 0 0 0 0-37.059l-12.3-12.3s36.2-40.636 43.806-48.242C379.64 58.162 450.449 78.779 453.725 62.4s-157.23-77.073-245.094 10.791z"/></svg>