<svg xmlns="http://www.w3.org/2000/svg" width="648" height="648" viewBox="0 0 648 648"><title>Hand2_18</title><path d="M508.332 352.392c-9.58-5.409-19.775-49.438-58.638-49.438-1.992 0-7.734.494-10.474-1.256-2.417-1.549-8.672-45.007-51.182-45.007-6.4 0-25.283-.154-28.872-2.084-2.607-1.41-14.706-20.932-41.558-20.607-22.424.271-39.263 14.048-48.311 20.72-5.317 1.846-12.51.051-14.5-5.75-14.751-43-47.153-140.3-47.153-140.3-6.885-20.222-27.07-34.255-48.135-30.714a42.9 42.9 0 0 0-33.765 56.144l58.388 169.81a144.191 144.191 0 0 1 5.361 23.057s6.958 26.14-16.069 39.294c-3.237 1.853-16.216-4.153-30.82-12.158-26.719-19.49-54.1-41.232-54.1-41.232C45.646 283.7 19.22 293.795 8.146 306.92c-11.792 13.967-3.574 36.9 13.447 54.573l109.79 124.695c6.431 7.764 16.069 19.135 27.92 31.959 10.459 18.007 26.06 43.51 37.339 55.851 30 32.856 72.51 50 135.7 50l.1-.007a.106.106 0 0 1 .044.007s.557-.048.82-.048c52.192-.165 95.215-13.59 124.7-36.7 21.123-14.784 37.192-33 45.806-53.254 14.722-42.671 27.026-89.421 31.611-110.035 8.827-39.712-13.732-64.021-27.091-71.569z"/></svg>