<svg xmlns="http://www.w3.org/2000/svg" width="648" height="648" viewBox="0 0 648 648"><title>Hand0_18</title><path d="M508.3 350.217c-9.932-5.611-20.5-51.269-60.807-51.269-2.059 0-8.02.513-10.857-1.3-2.5-1.6-9-46.67-53.075-46.67-6.637 0-26.227-.16-29.943-2.163-2.711-1.462-14.12-33.469-50.692-33.469-4.183 0-24.984 4.691-25.61 4.691-22.689 0-29.961-22.5-65.283-14.19-40.005 9.413-41.522 57.636-41.522 83.192 0 12.085-38.061 53.394-38.061 53.394a101.026 101.026 0 0 0-9.948 93.246C141.261 483.169 184.889 624 332.736 624c85.2 0 148.407-32.573 170.888-85.448 15.267-44.25 28.028-92.732 32.781-114.112 9.156-41.187-14.254-66.398-28.105-74.223z"/></svg>