<svg xmlns="http://www.w3.org/2000/svg" width="648" height="648" viewBox="0 0 648 648"><title>Hand1_18</title><path d="M508.332 352.392c-9.58-5.409-19.775-49.438-58.638-49.438-1.992 0-7.734.494-10.474-1.256-2.417-1.549-8.672-45.007-51.182-45.007-6.4 0-25.283-.154-28.872-2.084-2.607-1.41-13.608-32.274-48.882-32.274-4.028 0-24.082 4.526-24.7 4.526-21.87 0-28.887-21.7-62.944-13.685-38.584 9.078-40.034 55.58-40.034 80.219 0 4.9 0 25.435-4.014 44.238a32.014 32.014 0 0 1-16.274 22.859c-8.335 4.761-73.813-47.618-73.813-47.618C45.646 283.7 19.22 293.795 8.146 306.92c-11.792 13.967-3.574 36.9 13.447 54.573l109.79 124.695C159.85 520.552 248.761 624 332.521 624c82.163 0 149.619-39.012 171.3-90 14.722-42.671 27.026-89.421 31.611-110.035 8.818-39.716-13.741-64.025-27.1-71.573z"/></svg>