<svg xmlns="http://www.w3.org/2000/svg" width="648" height="648" viewBox="0 0 648 648"><title>Hand_18</title><path d="M613.973 175.631c-20.42-6.284-42.891 9.432-52.383 28.572l-58.813 90.855c-4.292 8.643-15.308 16.683-23.13 13.288s-9.99-12.528-6.035-27.2l28.271-166.071a42.886 42.886 0 0 0-37.324-53.837c-21.24-2.177-40.488 13.129-46.04 33.754L391.6 249.822s-1.963 20.112-17.988 19.415-14.282-21.255-14.282-21.255V66.856a42.854 42.854 0 1 0-85.708 0v180.375c0 11.318-17.227 11.038-20.42 1.741-14.751-43.006-47.153-140.3-47.153-140.3-6.885-20.222-27.07-34.257-48.135-30.714a42.9 42.9 0 0 0-33.77 56.142l58.389 169.81a144.1 144.1 0 0 1 5.361 23.055s6.958 26.14-16.069 39.3c-8.335 4.763-87.905-56.135-94.307-59.013-37.251-21.576-60.747-12.452-70.972-.332-11.792 13.967-3.574 36.9 13.447 54.573L145.4 503.855a191.392 191.392 0 0 1 20.125 27.5c9.511 15.717 20.8 33.1 29.517 42.642 30 32.856 72.51 50 135.7 50 79.775 0 138.955-30.5 160-80 14.282-41.428 27.8-97.344 34.292-116.8 4.233-12.717 108.091-194.874 108.091-194.874 11.551-23.293 6.849-48.682-19.152-56.692z"/></svg>