<svg id="Help-Circle_18" xmlns="http://www.w3.org/2000/svg" width="648" height="648" viewBox="0 0 648 648"><defs><style/></defs><title>Help-Circle_18</title><path d="M324 36C164.943 36 36 164.943 36 324s128.943 288 288 288 288-128.943 288-288S483.057 36 324 36zm.844 483.768c-30.135 0-50.4-19.573-50.4-48.7 0-28.279 20.737-48.055 50.4-48.055s50.4 19.775 50.4 48.055c0 29.566-19.792 48.7-50.4 48.7zm64.2-230.719l-3.568 3.78c-14.2 14.916-30.3 31.823-30.3 42.309 0 8.332 1.934 15.566 6.451 24.264l2.619 5-2.039 7.722a11.106 11.106 0 0 1-10.213 6.787h-48.3a15.631 15.631 0 0 1-11.707-4.227c-10.02-12.721-15.205-29.181-15.205-45.439 0-30.2 16.8-48.853 40.043-74.7 3.533-3.942 7.031-7.56 10.354-10.974 11.32-11.705 18.246-19.265 18.246-27.271 0-5.527 0-22.394-32.15-22.394-26.455 0-45.123 9.429-56.865 16.542a10.717 10.717 0 0 1-11.76-.366l-4.254-3.048-1-7.966v-52.147c0-2.682 0-10.892 7.084-14.753 14.889-8.982 40.711-19.874 77.449-19.874 59.238 0 99.053 38.123 99.053 94.9-.017 40.724-17.156 64.256-33.943 81.855z"/></svg>