<svg xmlns="http://www.w3.org/2000/svg" data-name="S_History_18_N@2x" height="36" id="S_History_18_N_2x" viewBox="0 0 36 36" width="36"><defs><style>.fill{fill:#707070}</style></defs><title>S_History_18_N@2x</title><path class="fill" d="M19 6h-2a1 1 0 0 0-1 1v10.586a1 1 0 0 0 .293.707L21.9 23.9a1 1 0 0 0 1.414 0l1.336-1.336a1 1 0 0 0 0-1.414l-4.357-4.357a1 1 0 0 1-.293-.707V7a1 1 0 0 0-1-1z"/><path class="fill" d="M18 2A15.946 15.946 0 0 0 6.856 6.519 13.129 13.129 0 0 0 2.847 14H.585a.5.5 0 0 0-.416.777L4 20l5.146-5.146A.5.5 0 0 0 8.793 14H4.969a11.707 11.707 0 0 1 3.489-6.245A14 14 0 1 1 8.1 27.9l-1.413 1.413A16 16 0 1 0 18 2z"/></svg>