<svg xmlns="http://www.w3.org/2000/svg" width="648" height="648" viewBox="0 0 648 648"><title>ImageMapRectangle_18</title><path d="M603 180a9 9 0 0 0 9-9V45a9 9 0 0 0-9-9H477a9 9 0 0 0-9 9v27H180V45a9 9 0 0 0-9-9H45a9 9 0 0 0-9 9v126a9 9 0 0 0 9 9h27v288H45a9 9 0 0 0-9 9v126a9 9 0 0 0 9 9h126a9 9 0 0 0 9-9v-27h288v27a9 9 0 0 0 9 9h126a9 9 0 0 0 9-9V477a9 9 0 0 0-9-9h-27V180h27zM72 72h72v72H72V72zm72 504H72v-72h72v72zm324-99v63H180v-63a9 9 0 0 0-9-9h-63V180h63a9 9 0 0 0 9-9v-63h288v63a9 9 0 0 0 9 9h63v288h-63a9 9 0 0 0-9 9zm108 99h-72v-72h72v72zm-72-432V72h72v72h-72z"/></svg>