<svg xmlns="http://www.w3.org/2000/svg" data-name="S_Image_18_N@2x" height="36" id="S_Image_18_N_2x" viewBox="0 0 36 36" width="36"><defs><style>.fill{fill:#707070}</style></defs><title>S_Image_18_N@2x</title><circle class="fill" cx="23.8" cy="12.6" r="2.5"/><path class="fill" d="M34.875 4H1.125A1.068 1.068 0 0 0 0 5v26a1.068 1.068 0 0 0 1.125 1h33.75A1.068 1.068 0 0 0 36 31V5a1.068 1.068 0 0 0-1.125-1zM34 22a15.166 15.166 0 0 0-6.182-2c-2.939 0-5.477 4-8.416 4s-6.679-8-9.618-8C7.113 16 2 24 2 24V6h32z"/></svg>