<svg xmlns="http://www.w3.org/2000/svg" data-name="S_ImageAlbum_18_N@2x" height="36" id="S_ImageAlbum_18_N_2x" viewBox="0 0 36 36" width="36"><defs><style>.fill{fill:#707070}</style></defs><title>S_ImageAlbum_18_N@2x</title><circle class="fill" cx="25.8" cy="13.393" r="2.5"/><path class="fill" d="M34.875 6H5a1 1 0 0 0-1 1v22a1 1 0 0 0 1 1h29.875A1.068 1.068 0 0 0 36 29V7a1.068 1.068 0 0 0-1.125-1zM7 26H6v-4h1a1 1 0 0 1 1 1v2a1 1 0 0 1-1 1zm0-12H6v-4h1a1 1 0 0 1 1 1v2a1 1 0 0 1-1 1zm27 10c-1.792-1.058-3.44-2.656-5-2.656-2.939 0-3.061 2.656-6 2.656s-4.061-6-7-6c-2.672 0-6 6-6 6V8h24zM4 14H1a1 1 0 0 1-1-1v-2a1 1 0 0 1 1-1h3zM4 26H1a1 1 0 0 1-1-1v-2a1 1 0 0 1 1-1h3z"/></svg>