<svg xmlns="http://www.w3.org/2000/svg" width="648" height="648" viewBox="0 0 648 648"><title>ImageMapCircle_18</title><path d="M576 188.292V81a9 9 0 0 0-9-9H459.7a286.343 286.343 0 0 0-271.4 0H81a9 9 0 0 0-9 9v107.292a286.3 286.3 0 0 0 0 271.415V567a9 9 0 0 0 9 9h107.3a286.343 286.343 0 0 0 271.4 0H567a9 9 0 0 0 9-9V459.708a286.3 286.3 0 0 0 0-271.416zM468 108h72v72h-72v-72zm-360 0h72v72h-72v-72zm72 432h-72v-72h72v72zm360 0h-72v-72h72v72zm9.668-108H441a9 9 0 0 0-9 9v108.677a248.011 248.011 0 0 1-216 0V441a9 9 0 0 0-9-9H98.332a248.011 248.011 0 0 1 0-216H207a9 9 0 0 0 9-9V98.323a248.011 248.011 0 0 1 216 0V207a9 9 0 0 0 9 9h108.668a248.011 248.011 0 0 1 0 216z"/></svg>