<svg xmlns="http://www.w3.org/2000/svg" width="648" height="648" viewBox="0 0 648 648"><title>ImageMapPolygon_18</title><path d="M639 36H513a9 9 0 0 0-9 9v79.418l-108.193 64.107A8.909 8.909 0 0 0 387 180H261a9 9 0 0 0-9 9v17.139l-108-40V81a9 9 0 0 0-9-9H9a9 9 0 0 0-9 9v126a9 9 0 0 0 9 9h69.785l66.445 216H117a9 9 0 0 0-9 9v126a9 9 0 0 0 9 9h126a9 9 0 0 0 9-9v-46.257l180-30V531a9 9 0 0 0 9 9h126a9 9 0 0 0 9-9V405a9 9 0 0 0-9-9h-26.086l33.223-216H639a9 9 0 0 0 9-9V45a9 9 0 0 0-9-9zM288 216h72v72h-72v-72zm-180-36H36v-72h72v72zm108 360h-72v-72h72v72zm216-135v49.254L252 484.26V441a9 9 0 0 0-9-9h-60.082l-66.48-216H135a9 9 0 0 0 9-9v-2.47l108 40V315a9 9 0 0 0 9 9h126a9 9 0 0 0 9-9v-84.744l108-64.006V171a9 9 0 0 0 9 9h24.7l-33.225 216H441a9 9 0 0 0-9 9zm108 99h-72v-72h72v72zm72-360h-72V72h72v72z"/></svg>