<svg xmlns="http://www.w3.org/2000/svg" width="648" height="648" viewBox="0 0 648 648"><title>ImageProfile_18</title><path d="M630 72H18A18 18 0 0 0 0 90v468a18 18 0 0 0 18 18h612a18 18 0 0 0 18-18V90a18 18 0 0 0-18-18zm-18 468h-62.2c-22.289-32.8-63.29-64.011-137.338-71.53-12.419-1.261-20.795-12.617-20.795-24.113v-34.8a24.141 24.141 0 0 1 6.126-15.535c25.8-30.582 41.81-73.67 41.81-114.706C439.6 192.507 393.565 144 324 144s-116.912 50.414-116.912 135.312c0 41.036 18.018 84.125 43.8 114.7a24.06 24.06 0 0 1 6.135 15.539v34.655c0 11.522-8.394 23.041-20.856 24.126C159.768 474.979 118.828 506.58 97.225 540H36V108h576v432z"/></svg>