<svg id="ImageAdd_18" xmlns="http://www.w3.org/2000/svg" width="648" height="648" viewBox="0 0 648 648"><defs><style/></defs><title>ImageAdd_18</title><circle cx="428.4" cy="226.805" r="45"/><path d="M264.6 486.005a220.113 220.113 0 0 1 22.715-97.22c-37.947-42.423-77.493-100.78-111.19-100.78-48.094 0-140.124 144-140.124 144v-324H612v196.067a222.538 222.538 0 0 1 36 31.373V90.005c0-9.94-9.066-18-20.25-18H20.25c-11.18 0-20.25 8.06-20.25 18v468c0 9.94 9.07 18 20.25 18h263.588a220.3 220.3 0 0 1-19.238-90z"/><path d="M486 325.8A160.2 160.2 0 1 0 646.2 486 160.2 160.2 0 0 0 486 325.8zM576 495a9 9 0 0 1-9 9h-63v63a9 9 0 0 1-9 9h-18a9 9 0 0 1-9-9v-63h-63a9 9 0 0 1-9-9v-18a9 9 0 0 1 9-9h63v-63a9 9 0 0 1 9-9h18a9 9 0 0 1 9 9v63h63a9 9 0 0 1 9 9v18z"/></svg>