<svg xmlns="http://www.w3.org/2000/svg" data-name="S_ImageText_18_N@2x" height="36" id="S_ImageText_18_N_2x" viewBox="0 0 36 36" width="36"><defs><style>.fill{fill:#707070}</style></defs><title>S_ImageText_18_N@2x</title><circle class="fill" cx="21.8" cy="9.393" r="2.5"/><path class="fill" d="M14 17.677C12.8 15.989 11.693 14 10 14c-2.672 0-8 6-8 6V4h28v10h2V3a1.068 1.068 0 0 0-1.125-1H1.125A1.068 1.068 0 0 0 0 3v22a1.068 1.068 0 0 0 1.125 1H14z"/><path class="fill" d="M17 16a1 1 0 0 0-1 1v6a1 1 0 0 0 1 1h2a1 1 0 0 0 1-1v-3h4v12h-1a1 1 0 0 0-1 1v2a1 1 0 0 0 1 1h6a1 1 0 0 0 1-1v-2a1 1 0 0 0-1-1h-1V20h4v3a1 1 0 0 0 1 1h2a1 1 0 0 0 1-1v-6a1 1 0 0 0-1-1z"/></svg>