<svg xmlns="http://www.w3.org/2000/svg" width="648" height="648" viewBox="0 0 648 648"><title>ImageNext_18</title><circle cx="284.4" cy="241.071" r="45"/><path d="M534.03 426.991l110.37-103-110.37-102.738A17.993 17.993 0 0 0 504 234.632V288H369a9 9 0 0 0-9 9v54a9 9 0 0 0 9 9h135v53.612a17.993 17.993 0 0 0 30.03 13.379z"/><path d="M447.75 108H20.25C9.07 108 0 116.06 0 126v396c0 9.94 9.07 18 20.25 18h427.5c11.18 0 20.25-8.06 20.25-18V396h-36v36c-32.238-19.037-55.213-33.113-83.3-33.113-52.893 0-52.084 36.519-104.994 36.519-52.893 0-58.939-79.884-111.832-79.884C83.777 355.522 36 432 36 432V144h396v108h36V126c0-9.94-9.07-18-20.25-18z"/></svg>