<svg xmlns="http://www.w3.org/2000/svg" data-name="S_Inbox_18_N@2x" height="36" id="S_Inbox_18_N_2x" viewBox="0 0 36 36" width="36"><defs><style>.fill{fill:#707070}</style></defs><title>S_Inbox_18_N@2x</title><rect class="fill" height="2" rx=".5" ry=".5" width="24" x="6" y="4"/><rect class="fill" height="2" rx=".5" ry=".5" width="24" x="6" y="8"/><rect class="fill" height="2" rx=".5" ry=".5" width="24" x="6" y="12"/><rect class="fill" height="2" rx=".5" ry=".5" width="24" x="6" y="16"/><path class="fill" d="M32 10v10h-5a1 1 0 0 0-1 1v2a1 1 0 0 1-1 1H11a1 1 0 0 1-1-1v-2a1 1 0 0 0-1-1H4V10H1a1 1 0 0 0-1 1v20a1 1 0 0 0 1 1h34a1 1 0 0 0 1-1V11a1 1 0 0 0-1-1z"/></svg>