<svg xmlns="http://www.w3.org/2000/svg" width="648" height="648" viewBox="0 0 648 648"><title>Individual_18</title><rect x="261" y="261" width="126" height="126" rx="18" ry="18"/><path d="M531 216a9 9 0 0 0 9-9v-90a9 9 0 0 0-9-9h-90a9 9 0 0 0-9 9v27H216v-27a9 9 0 0 0-9-9h-90a9 9 0 0 0-9 9v90a9 9 0 0 0 9 9h27v216h-27a9 9 0 0 0-9 9v90a9 9 0 0 0 9 9h90a9 9 0 0 0 9-9v-27h216v27a9 9 0 0 0 9 9h90a9 9 0 0 0 9-9v-90a9 9 0 0 0-9-9h-27V216h27zm-63 216h-27a9 9 0 0 0-9 9v27H216v-27a9 9 0 0 0-9-9h-27V216h27a9 9 0 0 0 9-9v-27h216v27a9 9 0 0 0 9 9h27v216z"/></svg>