<svg xmlns="http://www.w3.org/2000/svg" data-name="S_InfoOutline_18_N@2x" height="36" id="S_InfoOutline_18_N_2x" viewBox="0 0 36 36" width="36"><defs><style>.fill{fill:#707070}</style></defs><title>S_InfoOutline_18_N@2x</title><circle class="fill" cx="18" cy="12" r="2.15"/><path class="fill" d="M20.333 24H20v-7.6a.4.4 0 0 0-.4-.4h-3.933s-1.167.032-1.167 1 1.167 1 1.167 1H16v6h-.333s-1.167.032-1.167 1 1.167 1 1.167 1h4.667s1.167-.033 1.167-1-1.168-1-1.168-1z"/><path class="fill" d="M18 2.1A15.9 15.9 0 1 0 33.9 18 15.9 15.9 0 0 0 18 2.1zm0 29.812A13.912 13.912 0 1 1 31.913 18 13.912 13.912 0 0 1 18 31.913z"/></svg>