<svg id="Info-Circle_18" xmlns="http://www.w3.org/2000/svg" width="648" height="648" viewBox="0 0 648 648"><defs><style/></defs><title>Info-Circle_18</title><path d="M324 36C164.942 36 36 164.941 36 324s128.942 288 288 288 288-128.946 288-288S483.058 36 324 36zm-5.4 77.385c30.924 0 51.557 21.357 51.557 50.827 0 30.929-19.149 51.557-51.557 51.557-29.457 0-51.557-19.151-51.557-51.557-.001-30.947 22.1-50.828 51.557-50.828zm77.4 372.62a18 18 0 0 1-18 18H270a18 18 0 0 1-18-18v-36a18 18 0 0 1 18-18h18v-108h-18a18 18 0 0 1-18-18v-36a18 18 0 0 1 18-18h72a18 18 0 0 1 18 18v162h18a18 18 0 0 1 18 18v36z"/></svg>