<svg xmlns="http://www.w3.org/2000/svg" data-name="S_InvertAdjl_18_N@2x" height="36" id="S_InvertAdjl_18_N_2x" viewBox="0 0 36 36" width="36"><defs><style>.fill{fill:#707070}</style></defs><title>S_InvertAdjl_18_N@2x</title><path class="fill" d="M8 18.5a10.4 10.4 0 0 0 2.182 6.341L25.919 11.07A10.5 10.5 0 0 0 8 18.5z"/><path class="fill" d="M35 2H1a1 1 0 0 0-1 1v30a1 1 0 0 0 1 1h34a1 1 0 0 0 1-1V3a1 1 0 0 0-1-1zm-6 16.5a10.466 10.466 0 0 1-18.818 6.341L2 32V4h32l-8.081 7.07A10.469 10.469 0 0 1 29 18.5z"/></svg>