<svg xmlns="http://www.w3.org/2000/svg" width="648" height="648" viewBox="0 0 648 648"><title>Keyboard_18</title><rect y="144" width="72" height="72" rx="9" ry="9"/><rect y="252" width="144" height="72" rx="9" ry="9"/><rect x="504" y="252" width="108" height="72" rx="9" ry="9"/><rect x="468" y="360" width="144" height="72" rx="9" ry="9"/><rect y="360" width="108" height="72" rx="9" ry="9"/><rect x="144" y="360" width="288" height="72" rx="9" ry="9"/><rect x="108" y="144" width="72" height="72" rx="9" ry="9"/><rect x="216" y="144" width="72" height="72" rx="9" ry="9"/><rect x="324" y="144" width="72" height="72" rx="9" ry="9"/><rect x="180" y="252" width="72" height="72" rx="9" ry="9"/><rect x="288" y="252" width="72" height="72" rx="9" ry="9"/><rect x="396" y="252" width="72" height="72" rx="9" ry="9"/><rect x="432" y="144" width="72" height="72" rx="9" ry="9"/><rect x="540" y="144" width="72" height="72" rx="9" ry="9"/></svg>