<svg xmlns="http://www.w3.org/2000/svg" width="648" height="648" viewBox="0 0 648 648"><title>Launch_18</title><path d="M629.611 6.791C294.166 81.39 187.387 353.128 172.54 395.826a9.414 9.414 0 0 0 2.256 9.8l67.533 67.533a9.419 9.419 0 0 0 9.744 2.274c42.628-14.521 314.491-119.5 389.076-457.112a9.785 9.785 0 0 0-11.538-11.53zM140.354 344.662H16.16a9.438 9.438 0 0 1-8.274-14.092c28.5-49.612 134.67-213.218 295.374-213.218-37.292 37.293-159.945 198.896-162.906 227.31zM303.26 507.568V631.9a9.436 9.436 0 0 0 14.029 8.309c49.536-27.976 213.282-132.766 213.282-295.549-37.293 37.296-198.897 159.947-227.311 162.908z" fill-rule="evenodd"/></svg>