<svg xmlns="http://www.w3.org/2000/svg" width="648" height="648" viewBox="0 0 648 648"><title>Lightbulb_18</title><path d="M518.405 191.033C518.366 88.473 431.211 5.362 323.739 5.4a203.589 203.589 0 0 0-39.025 3.786c-88.632 21.386-151.83 96.04-155.11 183.228C129.605 290.672 216 342.8 216 432v36h216v-36c0-90.065 86.405-144.872 86.405-240.967zM216 504v42.6a27 27 0 0 0 6.455 17.515l63.438 74.4A27 27 0 0 0 306.442 648h35.127a27 27 0 0 0 20.545-9.482l63.435-74.4A27 27 0 0 0 432 546.6V504H216z"/></svg>