<svg xmlns="http://www.w3.org/2000/svg" data-name="S_Light_18_N@2x" height="36" id="S_Light_18_N_2x" viewBox="0 0 36 36" width="36"><defs><style>.fill{fill:#707070}</style></defs><title>S_Light_18_N@2x</title><circle class="fill" cx="18" cy="18" r="7.9"/><rect class="fill" height="6" rx=".5" ry=".5" width="3.6" x="16.2"/><rect class="fill" height="6" rx=".5" ry=".5" width="3.6" x="16.2" y="30"/><rect class="fill" height="3.6" rx=".5" ry=".5" width="6" y="16.2"/><rect class="fill" height="3.6" rx=".5" ry=".5" width="6" x="30" y="16.2"/><rect class="fill" height="3.6" rx=".5" ry=".5" transform="rotate(-45 29.02 7.02)" width="6" x="26.02" y="5.22"/><rect class="fill" height="3.6" rx=".5" ry=".5" transform="rotate(-45 7.02 29.02)" width="6" x="4.02" y="27.22"/><rect class="fill" height="6" rx=".5" ry=".5" transform="rotate(-45 7 7)" width="3.6" x="5.2" y="4"/><rect class="fill" height="6" rx=".5" ry=".5" transform="rotate(-45 28.98 28.98)" width="3.6" x="27.18" y="25.98"/></svg>