<svg xmlns="http://www.w3.org/2000/svg" data-name="S_Lightroom_18_N@2x" height="36" id="S_Lightroom_18_N_2x" viewBox="0 0 36 36" width="36"><defs><style>.fill{fill:#707070}</style></defs><title>S_Lightroom_18_N@2x</title><path class="fill" d="M0 0v34h36V0zm34 32H2V2h32z"/><path class="fill" d="M10.344 24.627c-.188 0-.244-.075-.244-.244l.094-16.175c0-.131.038-.206.169-.206H12.9c.131 0 .15.056.15.188l-.075 13.83h6.568c.131 0 .188.056.15.188l-.394 2.233a.2.2 0 0 1-.225.188zM21.887 14.362c0-.169 0-.657-.075-1.539 0-.131.019-.169.131-.206a16.71 16.71 0 0 1 5.836-1.107c.131 0 .188.019.188.15v2.308c0 .131-.056.169-.188.169a8.867 8.867 0 0 0-3.021.319V24.5c0 .131-.056.188-.188.188h-2.5c-.131 0-.188-.056-.188-.188z"/></svg>