<svg xmlns="http://www.w3.org/2000/svg" data-name="S_LineHeight_18_N@2x" height="36" id="S_LineHeight_18_N_2x" viewBox="0 0 36 36" width="36"><defs><style>.fill{fill:#707070}</style></defs><title>S_LineHeight_18_N@2x</title><rect class="fill" height="4" rx="1" ry="1" width="22" x="12" y="4"/><rect class="fill" height="4" rx="1" ry="1" width="22" x="12" y="16"/><rect class="fill" height="4" rx="1" ry="1" width="22" x="12" y="28"/><path class="fill" d="M9.621 28H7V8h2.621a.381.381 0 0 0 .262-.655L5.558 3.039 1.242 7.345A.381.381 0 0 0 1.5 8H4v20H1.5a.381.381 0 0 0-.262.655l4.316 4.307 4.324-4.307A.381.381 0 0 0 9.621 28z"/></svg>