<svg xmlns="http://www.w3.org/2000/svg" width="648" height="648" viewBox="0 0 648 648"><title>LinkUser_18</title><path d="M310.166 511.409c-20.232.325-40.518-2.7-59.5-10.573-9.352 9.352-26.965 27.844-30.832 31.711a73.807 73.807 0 1 1-104.381-104.379C127.863 415.749 232.4 311.212 244.811 298.8c15.908-15.9 38.6-24.021 60.592-23.265 17.877.615 35.279 7.084 48.2 20.013a113.236 113.236 0 0 1 9.422 10.96 119.52 119.52 0 0 1 36.4-37.02 115.089 115.089 0 0 0-9.085-10.688c-50.449-50.44-134.227-49.588-184.676.861L76.307 389.021a129.144 129.144 0 0 0 182.355 182.918 141.635 141.635 0 0 1 51.504-60.53zM426.99 116.622A73.807 73.807 0 1 1 531.369 221c-3.867 3.867-16.559 16.559-32.572 32.563a114.69 114.69 0 0 1 51.328 26.965c10.072-10.063 17.684-17.684 20.391-20.382a129.169 129.169 0 0 0-182.672-182.67c-6.926 6.935-76.746 76-96.311 95.563a149.4 149.4 0 0 1 67.359 10.925c9.37-9.364 64.231-63.475 68.098-67.342z"/><path d="M344.83 423.4c-2.5-11.241-4.254-22.518-4.254-33.565 0-6.091.861-11.742 1.406-17.552-17.842-.677-35.191-7.066-48.006-19.89-9.158-9.149-19-17.64-22.342-29.259a36.827 36.827 0 0 0-7.7 5.73l-29.443 30.814a129.071 129.071 0 0 0 22.078 30.111c23.363 23.35 55.513 33.703 88.261 33.611zM516.021 508.085v-24.938a17.258 17.258 0 0 1 4.393-11.13c18.481-21.91 29.948-52.782 29.948-82.183 0-62.193-32.986-96.947-82.822-96.947s-83.763 36.121-83.763 96.947c0 29.4 12.9 60.271 31.383 82.18a17.262 17.262 0 0 1 4.394 11.132v24.828c0 8.257-6.017 16.51-14.942 17.287-100.136 8.711-115.782 77.207-115.782 104.219 0 3 .353 14.811.573 17.769h357.206s.311-14.767.311-17.769c0-25.888-17.686-94.138-116.006-104.122-8.892-.902-14.893-9.035-14.893-17.273z"/></svg>