<svg xmlns="http://www.w3.org/2000/svg" width="648" height="648" viewBox="0 0 648 648"><title>LinkOff_18</title><path d="M200.449 171.42l-26.925 25.908-95.911-94.314 26.925-25.909 95.911 94.315zM572.419 544.986l-26.925 25.909-95.392-96.015 26.924-25.909 95.393 96.015zM199.029 32.4h41.657v83.314h-41.657zM32.4 199.029h83.314v41.657H32.4zM532.286 407.314H615.6v41.657h-83.314zM407.314 532.286h41.657V615.6h-41.657zM324.949 426.753c-40.395 40.649-102.41 103.1-105.117 105.794a73.809 73.809 0 1 1-104.379-104.383c9.281-9.294 70.207-70.2 105.451-105.451l-39.146-39.143L76.307 389.021a129.167 129.167 0 0 0 182.672 182.668c4.254-4.267 59.045-59.37 105.152-105.741zM322.418 220.61C363.2 180.053 424.336 119.285 426.99 116.622A73.807 73.807 0 1 1 531.369 221c-9.281 9.29-69.4 69.4-104.273 104.282l39.146 39.142c32.01-32.014 95.2-95.208 104.273-104.278a129.169 129.169 0 0 0-182.671-182.67c-4.219 4.219-58.342 58.078-104.52 104.036z"/></svg>