<svg xmlns="http://www.w3.org/2000/svg" width="648" height="648" viewBox="0 0 648 648"><title>LinkPage_18</title><path d="M288 510.4a146.758 146.758 0 0 1-37.336-9.562c-9.352 9.352-26.965 27.844-30.832 31.711a73.807 73.807 0 1 1-104.379-104.381C127.863 415.749 232.4 311.212 244.811 298.8c15.908-15.9 38.6-24.021 60.592-23.265A73.084 73.084 0 0 1 344.3 288h67.553a127.97 127.97 0 0 0-21.516-29.2c-50.449-50.44-134.227-49.588-184.676.861L76.307 389.021a129.169 129.169 0 0 0 182.672 182.672c3.885-3.885 15.838-16.128 29.021-29.54V510.4zM426.99 116.622A73.807 73.807 0 1 1 531.369 221l-66.99 67h78.275c13.764-13.746 24.521-24.521 27.861-27.853A129.169 129.169 0 0 0 387.844 77.476c-6.926 6.935-76.746 76-96.311 95.563a149.4 149.4 0 0 1 67.359 10.925c9.37-9.364 64.231-63.475 68.098-67.342z"/><path d="M288 346.5c-7.137-7.084-13.746-14.256-16.365-23.361a36.827 36.827 0 0 0-7.7 5.73l-29.443 30.814a129.071 129.071 0 0 0 22.078 30.111c9.193 9.176 20.039 15.785 31.43 21.2V346.5z"/><path d="M324 342v288a18 18 0 0 0 18 18h288a18 18 0 0 0 18-18V342a18 18 0 0 0-18-18H342a18 18 0 0 0-18 18zm288 270H360V396h252v216z" fill-rule="evenodd"/></svg>