<svg xmlns="http://www.w3.org/2000/svg" width="648" height="648" viewBox="0 0 648 648"><title>LinkCheck_18</title><path d="M294.559 350.956c-9.156-9.154-19-17.635-22.344-29.257a36.382 36.382 0 0 0-7.686 5.719l-29.441 30.822a128.371 128.371 0 0 0 22.08 30.109 110.129 110.129 0 0 0 22.214 17.123 221.055 221.055 0 0 1 24.776-46.639 64.461 64.461 0 0 1-9.599-7.877zM359.488 182.514c9.352-9.354 64.226-63.475 68.093-67.342a73.81 73.81 0 0 1 104.384 104.383l-44.2 44.2a221.2 221.2 0 0 1 67.307 10.98l16.04-16.036A129.168 129.168 0 0 0 388.439 76.03c-6.937 6.937-76.753 76-96.315 95.563a149.51 149.51 0 0 1 67.364 10.921z"/><path d="M265.366 504.4a146.391 146.391 0 0 1-14.113-5c-9.354 9.352-26.967 27.837-30.834 31.7a73.809 73.809 0 0 1-104.381-104.378C128.45 414.308 232.987 309.771 245.4 297.358c15.9-15.9 38.6-24.025 60.6-23.267 17.868.617 35.275 7.093 48.195 20.01 2.608 2.61 5.071 5.234 7.343 7.919a220.855 220.855 0 0 1 45.932-23.935 122.5 122.5 0 0 0-16.537-20.722c-50.443-50.443-134.238-49.59-184.676.857L76.889 387.576a129.168 129.168 0 0 0 182.67 182.672c2.509-2.507 8.383-8.488 15.77-16.025a220.449 220.449 0 0 1-9.963-49.823z"/><path d="M486 325.8A160.2 160.2 0 1 0 646.2 486 160.2 160.2 0 0 0 486 325.8zm-42.083 257.619l-74.3-74.3a9 9 0 0 1 0-12.728l18.656-18.656a9 9 0 0 1 12.728 0l49.166 49.165 109.907-109.909a9 9 0 0 1 12.728 0l18.77 18.77a9 9 0 0 1 0 12.728l-134.927 134.93a9 9 0 0 1-12.728 0z"/></svg>