<svg xmlns="http://www.w3.org/2000/svg" data-name="S_LinkedIn_18_N@2x" height="36" id="S_LinkedIn_18_N_2x" viewBox="0 0 36 36" width="36"><defs><style>.fill{fill:#707070}</style></defs><title>S_LinkedIn_18_N@2x</title><path class="fill" d="M29.927 4H6.067A2.044 2.044 0 0 0 4 6.018v23.961A2.045 2.045 0 0 0 6.067 32h23.86A2.049 2.049 0 0 0 32 29.979V6.018A2.048 2.048 0 0 0 29.927 4zM12.3 27.859H8.151V14.5H12.3zm-2.071-15.188a2.408 2.408 0 1 1 2.407-2.408 2.408 2.408 0 0 1-2.407 2.408zm17.63 15.189h-4.15v-6.5c0-1.549-.028-3.543-2.158-3.543-2.161 0-2.493 1.688-2.493 3.431v6.61h-4.149V14.5h3.983v1.826h.056a4.364 4.364 0 0 1 3.929-2.158c4.205 0 4.982 2.768 4.982 6.365z"/></svg>