<svg xmlns="http://www.w3.org/2000/svg" width="648" height="648" viewBox="0 0 648 648"><title>LinkFacebook_18</title><path d="M288 510.4a146.758 146.758 0 0 1-37.336-9.562c-9.352 9.352-26.965 27.844-30.832 31.711a73.807 73.807 0 1 1-104.379-104.381C127.863 415.749 232.4 311.212 244.811 298.8c15.908-15.9 38.6-24.021 60.592-23.265a72.883 72.883 0 0 1 39.428 12.894c1.424-.105 2.777-.431 4.236-.431h62.789a127.851 127.851 0 0 0-21.516-29.193c-50.449-50.445-134.227-49.592-184.676.853L76.307 389.021a129.169 129.169 0 0 0 182.672 182.672c3.885-3.885 15.838-16.128 29.021-29.54V510.4zM426.99 116.622A73.807 73.807 0 1 1 531.369 221l-66.99 67h78.275c13.764-13.75 24.521-24.521 27.861-27.853A129.169 129.169 0 0 0 387.844 77.476c-6.926 6.935-76.746 76-96.311 95.563a149.4 149.4 0 0 1 67.359 10.925c9.37-9.356 64.231-63.475 68.098-67.342z"/><path d="M288 349.058c0-.8.211-1.538.229-2.329-7.225-7.154-13.957-14.388-16.594-23.59a36.827 36.827 0 0 0-7.7 5.73l-29.443 30.814a129.071 129.071 0 0 0 22.078 30.111c9.193 9.176 20.039 15.785 31.43 21.2v-61.936zM622.938 324H349.062A25.127 25.127 0 0 0 324 349.055v273.89A25.127 25.127 0 0 0 349.062 648h149.884V525.472H451.3v-50.335h47.646v-45.695a63.973 63.973 0 0 1 63.914-63.914l38.839 2.479v52.629h-39.366a17.836 17.836 0 0 0-17.824 17.824v36.677h52.629l-.211 1.556-7.33 48.779h-45.088V648h78.429A25.127 25.127 0 0 0 648 622.945v-273.89A25.127 25.127 0 0 0 622.938 324z"/></svg>