<svg xmlns="http://www.w3.org/2000/svg" width="648" height="648" viewBox="0 0 648 648"><title>LinkGlobe_18</title><path d="M431.74 501.867c24.93 37.1 62.719 94.061 42.681 145.128a69.09 69.09 0 0 1-10.465-1.66c-56.174-11.909-135.709-66.279-135.709-157.515a160.928 160.928 0 0 1 65.426-129.02c2.668 32.4-24.386 48.723-13.907 86.638 12.341 44.632 31.213 25.527 51.974 56.429zm204.7-3.744c-16.124-6.138-29.952 14.767-31.18-41.7-.331-15.275 5.692-26.888 16.686-40.05a30.918 30.918 0 0 1 7.3-3.492c-1.912-3.5-4.047-6.847-6.206-10.188-.374.194-.709.443-1.091.623-12.517 5.839-14.249 7.56-20.027 0-8.277-10.832-1.156-19.361 3.467-23.288-29.448-31.788-71.14-52.207-116.68-52.279 20.3.277 44.521 15.314 32.173 39.337 1.854-3.816-40.32-12.917-46.055-12.917-7.729 0 15.775-28.926 13.619-26.42A161.075 161.075 0 0 0 422.221 342c10.941 7.07 23.141 4.6 35.478 7.65 2.642.306 6.221 1.688 11 4.525a37 37 0 0 0-11-4.525c-18.2-2.11 8.806 47.833 7.787 41.188 4.982-22.95 36.166-31.8 45.713-1.469.86 2.509-1.566 13.712-8.388 22.68-14.119 18.562-16.981 51.6-24.03 43.153-65.984-27.022-58.723 8.723-37.066 32.616 34.675 38.25 17.082 3.921 62.5 23.947 36.526 16.1 80.485 19.915 69.757 32.062-32.454 36.749-25.628 61.1-83.03 104.173 4.781-.129 20.012-1.652 23.141-2.16C585.234 634.259 641.492 573.174 648 501.648c-3.37-.019-7.2-1.077-11.556-3.525zM359.488 183.376c9.353-9.353 64.227-63.475 68.094-67.342a73.81 73.81 0 1 1 104.383 104.384l-44.2 44.2a221.135 221.135 0 0 1 67.306 10.98l16.04-16.037A129.167 129.167 0 1 0 388.439 76.893c-6.937 6.937-76.752 76-96.314 95.562a149.538 149.538 0 0 1 67.363 10.921z"/><path d="M265.445 505.284a147.351 147.351 0 0 1-14.191-5.026c-9.353 9.353-26.968 27.839-30.834 31.705a73.809 73.809 0 0 1-104.383-104.379c12.413-12.413 116.95-116.95 129.359-129.362 15.9-15.9 38.6-24.026 60.6-23.267 17.867.616 35.273 7.092 48.193 20.009 2.61 2.61 5.072 5.234 7.344 7.92a220.822 220.822 0 0 1 45.932-23.936 122.563 122.563 0 0 0-16.538-20.722c-50.441-50.442-134.235-49.589-184.675.858L76.89 388.439a129.167 129.167 0 0 0 182.669 182.672c2.534-2.531 8.489-8.6 15.977-16.236a220.326 220.326 0 0 1-10.091-49.591z"/><path d="M294.559 351.819c-9.156-9.155-19-17.636-22.343-29.257a36.358 36.358 0 0 0-7.686 5.72L235.089 359.1a128.406 128.406 0 0 0 22.079 30.11 110.116 110.116 0 0 0 22.216 17.122 221.035 221.035 0 0 1 24.775-46.632 64.487 64.487 0 0 1-9.6-7.881z"/></svg>