<svg xmlns="http://www.w3.org/2000/svg" data-name="S_LinkOutLight_18_N@2x" height="36" id="S_LinkOutLight_18_N_2x" viewBox="0 0 36 36" width="36"><defs><style>.fill{fill:#707070}</style></defs><title>S_LinkOutLight_18_N@2x</title><path class="fill" d="M32 17.5V30H4V4h14.5a.5.5 0 0 0 .5-.5v-1a.5.5 0 0 0-.5-.5H3a1 1 0 0 0-1 1v28a1 1 0 0 0 1 1h30a1 1 0 0 0 1-1V17.5a.5.5 0 0 0-.5-.5h-1a.5.5 0 0 0-.5.5z"/><path class="fill" d="M23.54 2.853l3.389 3.389-9.546 9.546a.5.5 0 0 0 0 .707l2.117 2.122a.5.5 0 0 0 .707 0l9.546-9.546 3.389 3.389a.5.5 0 0 0 .858-.353V2H23.893a.5.5 0 0 0-.353.853z"/></svg>