<svg xmlns="http://www.w3.org/2000/svg" width="648" height="648" viewBox="0 0 648 648"><title>Linux_18</title><path d="M252.906 537.469s12.938-12.938-.013-31.3c-7.215-10.232-57.762-38.914-71.1-52.786 0 0-6.248-9.622-6.509-25.879-.141-8.8 3.917-30.373 6.469-45.281 10.41-61.453 64.321-131.087 63.816-157.669-.3-17.283 16.374 21.276 33.1 29.412 18.749 9.147 39.318-17.183 68.476-30.524 8.237-3.79 18.849-8.137 18.142-11.32-3.437-15.539-38.357 19.153-69.537 20.316-14.2.556-19.507-2.577-25.016-7.53-16.576-14.858 1.719-2.426 26.431-6.57 10.967-1.87 14.656-3.588 26.329-7.934 11.623-4.345 24.965-10.814 38.154-14.149 9.147-2.3 8.389-8.692 4.851-10.613-2.072-1.112-5.155-1.011-7.53 2.855-5.66 9.1-32.242 14.327-40.58 16.678-10.613 3.007-22.438 5.836-38.1 5.229-23.8-.858-18.243-10.991-35.275-20.037-5-2.653-3.639-9.627 2.982-15.768 3.487-3.234 13.039-5.054 17.738-12.382a62.28 62.28 0 0 1 11.522-10.006c1.617-1.061 1.769-26.886-13.14-27.442-12.685-.48-14.353 7.5-13.8 16.576.506 9.071 3.79 16.576 7.227 16.526 6.62-.051.3 6.469-3.184 7.833-7.934 3.058-16.576-20.19-15.666-30.676.859-10.941 10.461-33.91 25.369-33.531 13.443.354 23.2 19.558 22.691 46.519-.051 4.573 21.781-2.173 29.109 4.953 5.205 5.13-17.941-52.988 33.556-56.652 13.543 2.426 32.864 14.219 34.162 40.758.176 3.591 1.162 23.171-7.176 25.572-10.209 2.931-19.456 2.2-13.543-6.822 4.042-9.046-.2-39.495-17.637-33.329-21.174 7.454-17.941 35.376-12.28 36.058s19.962 10.057 29.917 11.876c32.7 5.888 8.641 23.272 12.886 44.32 4.852 23.752 65.444 86.822 77.724 135.135 11.017 43.563-9.2 69.892-10.41 97.409-7.832.151-13.846.733-18.9 6.317-18.546 20.442-9.5 64.46-28.452 83.538-16.121 16.171-40.176 27.289-65.8 30.245-25.722 3.007-41.31-2.37-57.6-10.514-12.934-6.474-19.403-19.411-19.403-19.411zm-24.977 3.844c9.2 13.442 41.591 69.942-15.211 77.27-19 2.476-49.55-10.209-79.215-16.98-26.582-6.014-53.669-9.6-68.83-13.544-9.1-2.35-12.938-5.382-13.7-8.945-2.122-9.375 11.067-22.539 11.725-33.632.657-11.118-4.4-16.9-8.49-25.951-4.144-9.1-5.205-15.894-1.92-19.811 2.577-3.007 7.783-4.3 16.273-3.513 10.815.985 23.8-1.061 30.826-5.028 11.825-6.646 17.334-20.316 12.078-36.766 0 16.1-5.711 22.211-20.011 29.564-13.493 6.949-34.213 1.314-43.765 9.021-11.472 9.223 4.093 33.076 2.83 50.588-.96 13.442-16.121 28.6-9.349 42.1 6.772 13.569 38.408 15.06 71.508 21.428 46.9 9.147 74.213 24.965 95.893 25.724 31.635 1.061 36.486-29.008 86.163-29.463 14.5-.657 28.654-1.112 42.8-1.264 16.071-.2 32.09-.051 48.515.3 33.051.758 21.681 16.728 43.108 26.936 18.142 8.642 50.586 5.256 58.419-1.668 10.511-9.3 38.761-31.687 60.441-41.819 27.036-12.635 90.409-34.364 44.37-60.846-10.713-6.166-36.083-12.71-38.206-57.865-9.651 7.909-8.54 50.007 18.295 58.345 29.917 9.324 48.616 24.965-6.974 42.6-36.891 11.7-43.157 15.287-72.316 37.8-29.514 22.792-73.277 13.746-65.645-34.239 3.992-24.989 6.267-45.634-.4-67.39-3.285-10.613-4.9-24.207-2.679-33.759 4.346-18.572 15.16-24.182 25.773-6.343 6.67 11.194 9 24.283 32.849 25.345 37.5 1.668 44.927-33.607 56.9-35.224 7.985-1.061 15.968-22.058 9.9-55.994-6.519-36.361-29.564-93.8-59.128-122.855-24.561-24.207-40.025-45.433-49.727-75.653-8.236-25.445-12.785-50.209-11.117-73.86C432.1 95.276 413.8 52.6 384.592 32.534c-18.246-12.557-46.9-19.3-72.824-19.026-14.5.151-28.25 2.1-38.762 7.4-43.258 21.786-52.444 54.092-52.444 89.623 0 32.344 5.648 70.3 9.691 106.538-4.8 16.626-27.741 50.33-46.139 67.366-21.771 20.159-33.6 57.683-47.646 91.316-7.479 17.89-19.406 32.344-19.406 51.75 0 6.448-.844 20.85 5.827 16.1 25.369-18.218 57.081 27.694 105.039 97.714z"/></svg>