<svg id="LockOff_18" xmlns="http://www.w3.org/2000/svg" width="648" height="648" viewBox="0 0 648 648"><defs><style/></defs><title>LockOff_18</title><path d="M522 288.005H214.2V186.351c0-53.646 36.46-102.576 89.194-112.427 51.011-9.53 99.3 17.4 119.751 59.618A133.644 133.644 0 0 1 428.61 148a8.967 8.967 0 0 0 11.868 5.519l48.256-19.244a9.1 9.1 0 0 0 5.346-11.2C468.671 47.052 394.56-6.621 308.384.668 217.692 8.338 144 94.249 144 185.265v102.74h-18a18 18 0 0 0-18 18v288a18 18 0 0 0 18 18h396a18 18 0 0 0 18-18v-288a18 18 0 0 0-18-18zM360 472v50.01a18 18 0 0 1-18 18h-36a18 18 0 0 1-18-18V472a54 54 0 1 1 72 0z"/></svg>