<svg xmlns="http://www.w3.org/2000/svg" data-name="S_LockOpen_18_N@2x" height="36" id="S_LockOpen_18_N_2x" viewBox="0 0 36 36" width="36"><defs><style>.fill{fill:#707070}</style></defs><title>S_LockOpen_18_N@2x</title><path class="fill" d="M29 16H11.9v-5.648a6.279 6.279 0 0 1 4.955-6.246 6.15 6.15 0 0 1 6.653 3.312 7.425 7.425 0 0 1 .3.8.5.5 0 0 0 .659.307l2.685-1.065a.506.506 0 0 0 .3-.622A9.965 9.965 0 0 0 17.133.037C12.094.463 8 5.236 8 10.292V16H7a1 1 0 0 0-1 1v16a1 1 0 0 0 1 1h22a1 1 0 0 0 1-1V17a1 1 0 0 0-1-1zm-9 10.222V29a1 1 0 0 1-1 1h-2a1 1 0 0 1-1-1v-2.778a3 3 0 1 1 4 0z"/></svg>