<svg xmlns="http://www.w3.org/2000/svg" width="648" height="648" viewBox="0 0 648 648"><title>Login_18</title><path d="M208.775 543.19c0-78.3 63.721-142 142.031-142a136.231 136.231 0 0 1 35.121 4.6l16.225-16.233c-.035-.58-.3-1.125-.3-1.714V347.8c0-6.574 2.672-12.674 7.049-17.868C438.574 294.759 456.979 245.2 456.979 198c0-99.844-52.945-155.637-132.961-155.637-80 0-134.455 57.99-134.455 155.637 0 47.2 20.707 96.759 50.379 131.933 4.377 5.194 7.049 11.294 7.049 17.868v39.858c0 13.254-9.668 26.508-23.994 27.747C62.244 429.4 37.125 539.358 37.125 582.724c0 4.816.563 23.774.914 28.521h188.895c-11.215-20.304-18.159-43.269-18.159-68.055z"/><path d="M641.978 376.047l-70.954-70.959a16.475 16.475 0 0 0-23.3 0L396.653 456.165a97.674 97.674 0 0 0-45.855-11.78 98.808 98.808 0 1 0 98.808 98.808 97.75 97.75 0 0 0-11.515-45.373l73.838-73.843 41.063 41.06a8.231 8.231 0 0 0 11.643 0l36.72-36.718-46.884-46.884 13.52-13.512 46.873 46.877 27.114-27.114a8.231 8.231 0 0 0 0-11.639zM340.11 586.816a32.936 32.936 0 1 1 32.936-32.936 32.941 32.941 0 0 1-32.936 32.936z"/></svg>