<svg xmlns="http://www.w3.org/2000/svg" data-name="S_MagicWand_18_N@2x" height="36" id="S_MagicWand_18_N_2x" viewBox="0 0 36 36" width="36"><defs><style>.fill{fill:#707070}</style></defs><title>S_MagicWand_18_N@2x</title><rect class="fill" height="4" rx="1" ry="1" transform="rotate(-45 12.249 21.751)" width="30.118" x="-2.811" y="19.752"/><path class="fill" d="M31.506 13.559l.078 2.156a1.758 1.758 0 0 0 .9 1.47l1.882 1.054-2.156.078a1.758 1.758 0 0 0-1.47.9L29.684 21.1l-.078-2.156a1.758 1.758 0 0 0-.9-1.47l-1.882-1.054 2.156-.078a1.758 1.758 0 0 0 1.47-.9zM29.732.1l.108 2.99a2.438 2.438 0 0 0 1.245 2.039l2.615 1.46-2.99.108a2.438 2.438 0 0 0-2.039 1.245l-1.471 2.61-.1-2.99a2.438 2.438 0 0 0-1.245-2.039l-2.61-1.462 2.99-.108a2.438 2.438 0 0 0 2.035-1.245zM12.7 1.68l.139 3.851a3.14 3.14 0 0 0 1.6 2.626L17.8 10.04l-3.851.139a3.14 3.14 0 0 0-2.626 1.6l-1.88 3.365-.143-3.851a3.14 3.14 0 0 0-1.6-2.626L4.339 6.784l3.851-.139a3.14 3.14 0 0 0 2.626-1.6z"/></svg>