<svg xmlns="http://www.w3.org/2000/svg" data-name="S_Maximize_18_N@2x" height="36" id="S_Maximize_18_N_2x" viewBox="0 0 36 36" width="36"><defs><style>.fill{fill:#707070}</style></defs><title>S_Maximize_18_N@2x</title><path class="fill" d="M24.514 2a.5.5 0 0 0-.353.854l3.181 3.174-6.988 6.988a.5.5 0 0 0 0 .707l1.923 1.923a.5.5 0 0 0 .707 0l6.991-6.991 3.172 3.166a.5.5 0 0 0 .853-.354V2zM11.486 34a.5.5 0 0 0 .353-.854l-3.181-3.174 6.988-6.988a.5.5 0 0 0 0-.707l-1.923-1.923a.5.5 0 0 0-.707 0l-6.991 6.99-3.171-3.165a.5.5 0 0 0-.854.354V34z"/></svg>