<svg xmlns="http://www.w3.org/2000/svg" width="648" height="648" viewBox="0 0 648 648"><title>MBox_18</title><path d="M594 72H54a17.994 17.994 0 0 0-18 18v468a18 18 0 0 0 18 18h540a18 18 0 0 0 18-18V90a17.994 17.994 0 0 0-18-18zm-18 468H72V180h504v360z"/><path d="M108 216h36v36h-36zM108 396h36v36h-36zM180 216h72v36h-72zM288 216h72v36h-72zM396 216h72v36h-72zM180 468h72v36h-72zM288 468h72v36h-72zM396 468h72v36h-72zM504 216h36v36h-36zM504 288h36v36h-36zM108 288h36v72h-36zM504 360h36v72h-36zM108 468h36v36h-36zM504 468h36v36h-36z"/></svg>