<svg xmlns="http://www.w3.org/2000/svg" data-name="S_MergeLayers_18_N@2x" height="36" id="S_MergeLayers_18_N_2x" viewBox="0 0 36 36" width="36"><defs><style>.fill{fill:#707070}</style></defs><title>S_MergeLayers_18_N@2x</title><path class="fill" d="M25.094 18l8.161-5.662a.25.25 0 0 0 0-.41L18.4 1.667a.7.7 0 0 0-.8 0L2.746 11.922a.25.25 0 0 0 0 .411L10.916 18l-8.17 5.664a.25.25 0 0 0 0 .411L17.6 34.385a.7.7 0 0 0 .8 0l14.854-10.307a.25.25 0 0 0 0-.411zm-1.2 6.358L18 30.25l-5.9-5.9a.5.5 0 0 1 .354-.854H16.5v-4.909l-9.309-6.459L18 4.628l10.809 7.5-9.309 6.459V23.5h4.043a.5.5 0 0 1 .357.854z"/></svg>