<svg xmlns="http://www.w3.org/2000/svg" data-name="S_Minimize_18_N@2x" height="36" id="S_Minimize_18_N_2x" viewBox="0 0 36 36" width="36"><defs><style>.fill{fill:#707070}</style></defs><title>S_Minimize_18_N@2x</title><path class="fill" d="M6.513 20a.5.5 0 0 0-.353.854l3.182 3.175-6.988 6.987a.5.5 0 0 0 0 .707l1.923 1.923a.5.5 0 0 0 .707 0l6.991-6.991 3.172 3.166a.5.5 0 0 0 .853-.354V20zM29.487 16a.5.5 0 0 0 .353-.854l-3.182-3.175 6.988-6.988a.5.5 0 0 0 0-.707l-1.922-1.922a.5.5 0 0 0-.707 0l-6.992 6.99-3.171-3.165a.5.5 0 0 0-.854.354V16z"/></svg>