<svg xmlns="http://www.w3.org/2000/svg" width="648" height="648" viewBox="0 0 648 648"><title>Money_18</title><circle cx="396" cy="252" r="72"/><path d="M144 378V126a18 18 0 0 1 18-18h468a18 18 0 0 1 18 18v252a18 18 0 0 1-18 18H162a18 18 0 0 1-18-18zm468-168.172A108.284 108.284 0 0 1 546.17 144H245.83A108.282 108.282 0 0 1 180 209.83v84.342A108.284 108.284 0 0 1 245.83 360h300.34A108.282 108.282 0 0 1 612 294.17v-84.342z"/><path d="M594 468H90a18 18 0 0 1-18-18V162a18 18 0 0 1 18-18h18v288h504v18a18 18 0 0 1-18 18z"/><path d="M522 540H18a18 18 0 0 1-18-18V234a18 18 0 0 1 18-18h18v288h504v18a18 18 0 0 1-18 18z"/></svg>