<svg xmlns="http://www.w3.org/2000/svg" data-name="S_MoveTo_18_N@2x" height="36" id="S_MoveTo_18_N_2x" viewBox="0 0 36 36" width="36"><defs><style>.fill{fill:#707070}</style></defs><title>S_MoveTo_18_N@2x</title><path class="fill" d="M21.879 20.344a1 1 0 0 1-1.414 0l-4.809-4.809a1 1 0 0 1 0-1.414L23.777 6H3a1 1 0 0 0-1 1v26a1 1 0 0 0 1 1h26a1 1 0 0 0 1-1V12.223z"/><path class="fill" d="M23.707 2a.5.5 0 0 0-.354.854l3.482 3.482-8.135 8.139a.5.5 0 0 0 0 .707l2.118 2.118a.5.5 0 0 0 .707 0l8.139-8.139 3.482 3.482a.5.5 0 0 0 .854-.35V2z"/></svg>