<svg xmlns="http://www.w3.org/2000/svg" data-name="S_Move_18_N@2x" height="36" id="S_Move_18_N_2x" viewBox="0 0 36 36" width="36"><defs><style>.fill{fill:#707070}</style></defs><title>S_Move_18_N@2x</title><path class="fill" d="M30.854 12.854a.5.5 0 0 0-.854.354V16H20V6h2.793a.5.5 0 0 0 .354-.854L18 0l-5.146 5.146a.5.5 0 0 0 .353.854H16v10H6v-2.793a.5.5 0 0 0-.854-.354L0 18l5.146 5.146A.5.5 0 0 0 6 22.793V20h10v10h-2.793a.5.5 0 0 0-.354.854L18 36l5.146-5.146a.5.5 0 0 0-.353-.854H20V20h10v2.793a.5.5 0 0 0 .854.354L36 18z"/></svg>