<svg xmlns="http://www.w3.org/2000/svg" width="648" height="648" viewBox="0 0 648 648"><title>MultipleCheck_18</title><path d="M522 36H342a18 18 0 0 0-18 18v90h72a36 36 0 0 1 36 36v72h90a18 18 0 0 0 18-18V54a18 18 0 0 0-18-18z"/><rect x="36" y="324" width="216" height="216" rx="18" ry="18"/><path d="M288 324v62.857a222.319 222.319 0 0 1 108-103.188V198a17.994 17.994 0 0 0-18-18H198a17.994 17.994 0 0 0-18 18v90h72a36 36 0 0 1 36 36zM487.8 327.6A160.2 160.2 0 1 0 648 487.8a160.2 160.2 0 0 0-160.2-160.2zm-42.081 257.619l-74.3-74.3a9 9 0 0 1 0-12.728l18.656-18.656a9 9 0 0 1 12.728 0l49.166 49.165 109.906-109.909a9 9 0 0 1 12.728 0l18.77 18.77a9 9 0 0 1 0 12.728l-134.926 134.93a9 9 0 0 1-12.728 0z"/></svg>