<svg xmlns="http://www.w3.org/2000/svg" width="648" height="648" viewBox="0 0 648 648"><title>MultipleExclude_18</title><path d="M522 36H342a18 18 0 0 0-18 18v90h72a36 36 0 0 1 36 36v72h90a18 18 0 0 0 18-18V54a18 18 0 0 0-18-18z"/><rect x="36" y="324" width="216" height="216" rx="18" ry="18"/><path d="M288 324v62.859a222.327 222.327 0 0 1 108-103.192V198a18 18 0 0 0-18-18H198a18 18 0 0 0-18 18v90h72a36 36 0 0 1 36 36zM487.8 327.6A160.2 160.2 0 1 0 648 487.8a160.2 160.2 0 0 0-160.2-160.2zm-126 160.2c0-28.936 10.143-55.263 26.543-76.535l175.994 175.992c-21.27 16.4-47.6 26.543-76.535 26.543a126 126 0 0 1-126.002-126zm225.457 76.535l-175.99-175.992c21.27-16.4 47.6-26.543 76.535-26.543a126 126 0 0 1 126 126c-.002 28.935-10.143 55.263-26.543 76.535z"/></svg>