<svg xmlns="http://www.w3.org/2000/svg" data-name="S_News_18_N@2x" height="36" id="S_News_18_N_2x" viewBox="0 0 36 36" width="36"><defs><style>.fill{fill:#707070}</style></defs><title>S_News_18_N@2x</title><path class="fill" d="M33 6H5a1 1 0 0 0-1 1v20a1 1 0 0 1-2 0V10.5a.5.5 0 0 0-.5-.5h-1a.5.5 0 0 0-.5.5V27a3 3 0 0 0 3 3h28a3 3 0 0 0 3-3V7a1 1 0 0 0-1-1zm-2 22H6V8h26v19a1 1 0 0 1-1 1z"/><path class="fill" d="M20 12h10v2H20zM20 20h10v2H20zM8 24h10v2H8zM20 16h10v2H20zM20 24h10v2H20zM8 12h10v10H8z"/></svg>