<svg xmlns="http://www.w3.org/2000/svg" width="648" height="648" viewBox="0 0 648 648"><title>NewsAdd_18</title><path d="M264.6 486c0-6.078.422-12.05.9-18H216v-36h55.512a219.73 219.73 0 0 1 12.322-36H216V216h144v88.066a220.746 220.746 0 0 1 36-20.228V216h144v55.512a220.1 220.1 0 0 1 72 32.555V54a18 18 0 0 0-18-18H162a18 18 0 0 0-18 18v412.066c0 9.686-6.5 18.316-14.836 19.67A18.028 18.028 0 0 1 108 468V144a18 18 0 0 0-18-18H54a18 18 0 0 0-18 18v324c0 .672.018 1.336.035 2 1.3 38.5 33.451 70 71.965 70h163.512a220.58 220.58 0 0 1-6.912-54zM216 108h324v72H216v-72z"/><path d="M486 325.8A160.2 160.2 0 1 0 646.2 486 160.2 160.2 0 0 0 486 325.8zM576 495a9 9 0 0 1-9 9h-63v63a9 9 0 0 1-9 9h-18a9 9 0 0 1-9-9v-63h-63a9 9 0 0 1-9-9v-18a9 9 0 0 1 9-9h63v-63a9 9 0 0 1 9-9h18a9 9 0 0 1 9 9v63h63a9 9 0 0 1 9 9v18z"/></svg>