<svg xmlns="http://www.w3.org/2000/svg" width="648" height="648" viewBox="0 0 648 648"><title>Nielsen_18</title><path d="M221.988 198.377c20.4-20.334 37.62-34.937 54.311-45.535q24.837-15.842 62.325-15.863 58.914 0 83.851 40.2 24.937 40.285 24.97 106.039v285.765q0 18.082-18.148 23.214-18.131 5.067-48.747 7.353V612H612v-10.2c-6.789-.7-14.207-1.656-22.122-2.815a174.559 174.559 0 0 1-22.122-4.537 50.956 50.956 0 0 1-17.552-8.478c-4.9-3.842-7.385-8.345-7.385-13.61V239.009q0-77.044-35.136-125.842-35.17-48.731-100.906-48.714a150.63 150.63 0 0 0-58.947 11.922 237.247 237.247 0 0 0-52.158 30 269.805 269.805 0 0 0-42.488 40.27 401.076 401.076 0 0 0-31.162 41.363zm-28.42 20.914v351.892c1.523 7.584 4.173 13.015 7.915 16.393a34.285 34.285 0 0 0 13.611 7.451 83.552 83.552 0 0 0 18.148 2.815 145.351 145.351 0 0 1 21.559 2.848v11.293H36v-11.292q26.079-2.336 44.773-10.2c12.452-5.331 18.711-13.942 18.711-26.1V174.417c0-6.061-.6-10.564-1.722-13.61-1.126-3.014-4.338-6.458-9.6-10.232q-10.233-5.664-23.811-13.015a299.881 299.881 0 0 0-27.222-13.082v-6.788l148.524-53.218h7.65z"/></svg>