<svg id="NoteAdd_18" xmlns="http://www.w3.org/2000/svg" width="648" height="648" viewBox="0 0 648 648"><defs><style/></defs><title>NoteAdd_18</title><path d="M264.6 486.005a220.3 220.3 0 0 1 19.239-90H117a9 9 0 0 1-9-9v-18a9 9 0 0 1 9-9h187.066a222.129 222.129 0 0 1 83.294-72H117a9 9 0 0 1-9-9v-18a9 9 0 0 1 9-9h378a9 9 0 0 1 9 9v4.507a219.843 219.843 0 0 1 72 18.332V54.005a18 18 0 0 0-18-18H18a18 18 0 0 0-18 18v432a18 18 0 0 0 18 18h162l63.642 123.108a9 9 0 0 0 16.717 0l24.9-48.164a220.146 220.146 0 0 1-20.659-92.944zm-156.6-333a9 9 0 0 1 9-9h306a9 9 0 0 1 9 9v18a9 9 0 0 1-9 9H117a9 9 0 0 1-9-9v-18z"/><path d="M486 325.8A160.2 160.2 0 1 0 646.2 486 160.2 160.2 0 0 0 486 325.8zM576 495a9 9 0 0 1-9 9h-63v63a9 9 0 0 1-9 9h-18a9 9 0 0 1-9-9v-63h-63a9 9 0 0 1-9-9v-18a9 9 0 0 1 9-9h63v-63a9 9 0 0 1 9-9h18a9 9 0 0 1 9 9v63h63a9 9 0 0 1 9 9v18z"/></svg>