<svg xmlns="http://www.w3.org/2000/svg" data-name="S_Note_18_N@2x" height="36" id="S_Note_18_N_2x" viewBox="0 0 36 36" width="36"><defs><style>.fill{fill:#707070}</style></defs><title>S_Note_18_N@2x</title><path class="fill" d="M33 2H3a1 1 0 0 0-1 1v24a1 1 0 0 0 1 1h11l3.536 6.839a.5.5 0 0 0 .928 0L22 28h11a1 1 0 0 0 1-1V3a1 1 0 0 0-1-1zM8.5 8h17a.5.5 0 0 1 .5.5v1a.5.5 0 0 1-.5.5h-17a.5.5 0 0 1-.5-.5v-1a.5.5 0 0 1 .5-.5zm17 14h-17a.5.5 0 0 1-.5-.5v-1a.5.5 0 0 1 .5-.5h17a.5.5 0 0 1 .5.5v1a.5.5 0 0 1-.5.5zm4-6h-21a.5.5 0 0 1-.5-.5v-1a.5.5 0 0 1 .5-.5h21a.5.5 0 0 1 .5.5v1a.5.5 0 0 1-.5.5z"/></svg>