<svg xmlns="http://www.w3.org/2000/svg" width="648" height="648" viewBox="0 0 648 648"><title>OneDrive_18</title><path d="M211.3 501.656c-39.1-9.771-60.89-40.855-60.959-86.976-.022-14.745 1.045-21.811 4.726-31.295 9.022-23.248 32.91-40.787 64.342-47.243 15.641-3.212 20.459-6.662 20.459-14.645 0-2.505 1.862-9.965 4.137-16.578 10.336-30.042 29.473-55.086 49.922-65.331 21.4-10.722 32.207-13.14 58.1-13 36.768.2 55.112 8.173 80.768 35.118l14.11 14.819 12.641-4.375c61.179-21.172 122.168 14.869 127.085 75.1l1.345 16.477 12.048 4.316c34.406 12.327 50.578 38.213 47.646 76.265-1.917 24.885-13.552 44.752-31.984 54.615l-8.665 4.637-192.568.371c-147.978.285-195.018-.241-203.149-2.273z"/><path d="M66.938 475.054c-22.829-5.425-47.018-25.589-58.361-48.648-6.434-13.08-6.776-15-6.776-38.144 0-22.01.549-25.541 5.671-36.47 10.8-23.039 31.487-39.685 57.446-46.222 5.479-1.379 10.626-3.581 11.44-4.893s1.717-8.457 2.008-15.879c1.807-46.093 32.05-86.707 74.279-99.75 22.815-7.047 51.477-5.313 76.292 4.614 7.87 3.149 6.984 3.824 23.625-18 9.841-12.9 29.727-28.953 46-37.129 17.567-8.823 35.838-12.888 57.686-12.835 61.066.15 113.694 38.346 133.155 96.64 6.218 18.625 5.908 23.842-1.426 24-3.2.067-12.371 1.83-20.379 3.917l-14.56 3.795-13.286-13.286c-37.452-37.464-98.589-45.557-150.56-19.941a124.962 124.962 0 0 0-50.049 44.071c-8.984 13.65-20.44 39.114-20.44 45.436 0 4.485-3.632 6.726-19.142 11.813-48.019 15.748-76.047 52.117-76.028 98.653.006 16.938 4.369 37.663 10.425 49.534 2.283 4.475 3.557 8.73 2.831 9.456-1.857 1.857-61.593 1.231-69.851-.732z"/></svg>