<svg xmlns="http://www.w3.org/2000/svg" data-name="S_OpenIn_18_N@2x" height="36" id="S_OpenIn_18_N_2x" viewBox="0 0 36 36" width="36"><defs><style>.fill{fill:#707070}</style></defs><title>S_OpenIn_18_N@2x</title><path class="fill" d="M6 16.5V6h24v24H19.5a.5.5 0 0 0-.5.5v3a.5.5 0 0 0 .5.5H33a1 1 0 0 0 1-1V3a1 1 0 0 0-1-1H3a1 1 0 0 0-1 1v13.5a.5.5 0 0 0 .5.5h3a.5.5 0 0 0 .5-.5z"/><path class="fill" d="M5.54 20.853l3.389 3.389-7.546 7.547a.5.5 0 0 0 0 .707L3.5 34.617a.5.5 0 0 0 .707 0l7.546-7.546 3.389 3.389a.5.5 0 0 0 .858-.353V20H5.893a.5.5 0 0 0-.353.853z"/></svg>