<svg xmlns="http://www.w3.org/2000/svg" width="648" height="648" viewBox="0 0 648 648"><title>Organize_18</title><path d="M252 144H36V90a18 18 0 0 1 18-18h118.544a18 18 0 0 1 12.728 5.272zM594 180H36v378a18 18 0 0 0 18 18h540a18 18 0 0 0 18-18V198a18 18 0 0 0-18-18zm-378 81a8.995 8.995 0 0 1 9-9h252a8.995 8.995 0 0 1 9 9v18a8.995 8.995 0 0 1-9 9H225a8.995 8.995 0 0 1-9-9v-18zm-63 238.5a13.492 13.492 0 0 1-13.5 13.5h-27A13.492 13.492 0 0 1 99 499.5v-27a13.492 13.492 0 0 1 13.5-13.5h27a13.492 13.492 0 0 1 13.5 13.5v27zm0-108a13.492 13.492 0 0 1-13.5 13.5h-27A13.492 13.492 0 0 1 99 391.5v-27a13.492 13.492 0 0 1 13.5-13.5h27a13.492 13.492 0 0 1 13.5 13.5v27zm0-108a13.492 13.492 0 0 1-13.5 13.5h-27A13.492 13.492 0 0 1 99 283.5v-27a13.492 13.492 0 0 1 13.5-13.5h27a13.492 13.492 0 0 1 13.5 13.5v27zM450 495a8.995 8.995 0 0 1-9 9H225a8.995 8.995 0 0 1-9-9v-18a8.995 8.995 0 0 1 9-9h216a8.995 8.995 0 0 1 9 9v18zm108-108a8.995 8.995 0 0 1-9 9H225a8.995 8.995 0 0 1-9-9v-18a8.995 8.995 0 0 1 9-9h324a8.995 8.995 0 0 1 9 9v18z"/></svg>