<svg xmlns="http://www.w3.org/2000/svg" width="648" height="648" viewBox="0 0 648 648"><title>OS_18</title><path d="M349.5 322.165c.524 108.624-66.644 179.462-162.15 179.462-101.8 0-162.671-75.564-162.671-177.887 0-100.752 66.117-177.367 162.671-177.367 102.85 0 161.626 78.714 162.15 175.792zM189.452 445.481c59.3 0 94.979-48.8 94.452-121.742 0-73.465-36.207-121.218-97.6-121.218-55.622 0-96.03 43.555-96.03 121.218-.002 67.692 34.633 121.742 99.178 121.742zM399.336 482.739c-2.623-1.575-3.674-3.674-3.674-7.872v-54.574c0-2.1 2.1-3.15 4.2-2.1 28.335 18.367 62.97 27.287 93.407 27.287 43.028 0 61.395-16.792 61.395-39.357 0-19.415-12.594-34.108-52.475-50.9L477 344.729c-64.545-27.287-81.337-59.823-81.337-99.18 0-56.146 42.5-99.177 121.742-99.177 33.06 0 62.97 4.725 80.286 13.645 2.623 1.572 3.15 3.147 3.15 6.821v50.9c0 2.1-1.575 4.2-4.725 2.1-19.939-11.543-48.8-17.316-79.235-17.316-45.13 0-59.3 18.891-59.3 37.258 0 18.891 12.07 32.009 53.526 49.325l19.942 8.4c68.216 28.338 87.631 61.395 87.631 102.851 0 61.4-48.277 101.276-127.515 101.276-38.306-.005-70.315-7.35-91.829-18.893z"/></svg>