<svg xmlns="http://www.w3.org/2000/svg" data-name="S_OutlinePath_18_N@2x" height="36" id="S_OutlinePath_18_N_2x" viewBox="0 0 36 36" width="36"><defs><style>.fill{fill:#707070}</style></defs><title>S_OutlinePath_18_N@2x</title><path class="fill" d="M10.5 22H6V6h16v4.5h2V5a1 1 0 0 0-1-1H5a1 1 0 0 0-1 1v18a1 1 0 0 0 1 1h5.5zM31 12h-5.5v2H30v16H14v-4.5h-2V31a1 1 0 0 0 1 1h18a1 1 0 0 0 1-1V13a1 1 0 0 0-1-1z"/><path class="fill" d="M22 15.5V22h-6.5v2H23a1 1 0 0 0 1-1v-7.5zM20.5 12H13a1 1 0 0 0-1 1v7.5h2V14h6.5z"/></svg>