<svg xmlns="http://www.w3.org/2000/svg" width="648" height="648" viewBox="0 0 648 648"><title>PageTag_18</title><path d="M291.516 540H36V180h504v111.524l36 35.991V90a18 18 0 0 0-18-18H18A18 18 0 0 0 0 90v468a18 18 0 0 0 18 18h309.516z" fill-rule="evenodd"/><path d="M642.022 469.9L464.19 292.07a13.9 13.9 0 0 0-9.826-4.07H301.9a13.9 13.9 0 0 0-13.9 13.9v152.47a13.9 13.9 0 0 0 4.07 9.826L469.9 642.025a13.9 13.9 0 0 0 19.652 0l152.468-152.47a13.9 13.9 0 0 0 .002-19.655zM367.2 413.069a45.869 45.869 0 1 1 45.864-45.869 45.871 45.871 0 0 1-45.864 45.869z"/></svg>