<svg id="Pages_18" xmlns="http://www.w3.org/2000/svg" width="648" height="648" viewBox="0 0 648 648"><defs><style>.cls-2{fill-rule:evenodd}</style></defs><title>Pages_18</title><path class="cls-2" d="M108 162.005v432a18 18 0 0 0 18 18h468a18 18 0 0 0 18-18v-432a18 18 0 0 0-18-18H126a18 18 0 0 0-18 18zm468 414H144v-324h432v324z"/><path class="cls-2" d="M72 108.005h468v-54a18 18 0 0 0-18-18H54a18 18 0 0 0-18 18v432a18 18 0 0 0 18 18h18v-396z"/><path class="cls-2" d="M108 162.005v432a18 18 0 0 0 18 18h468a18 18 0 0 0 18-18v-432a18 18 0 0 0-18-18H126a18 18 0 0 0-18 18zm468 414H144v-324h432v324z"/><path class="cls-2" d="M72 108.005h468v-54a18 18 0 0 0-18-18H54a18 18 0 0 0-18 18v432a18 18 0 0 0 18 18h18v-396z"/></svg>