<svg xmlns="http://www.w3.org/2000/svg" width="648" height="648" viewBox="0 0 648 648"><title>PageExclude_18</title><path d="M271.055 540H36V180h504v93.3a220.875 220.875 0 0 1 36 12.331V90a18 18 0 0 0-18-18H18A18 18 0 0 0 0 90v468a18 18 0 0 0 18 18h264.973a219.321 219.321 0 0 1-11.918-36z" fill-rule="evenodd"/><path d="M486 325.8A160.2 160.2 0 1 0 646.2 486 160.2 160.2 0 0 0 486 325.8zM360 486c0-28.936 10.143-55.263 26.543-76.535l175.992 175.992C541.266 601.855 514.934 612 486 612a126 126 0 0 1-126-126zm225.457 76.535L409.465 386.543C430.734 370.145 457.066 360 486 360a126 126 0 0 1 126 126c0 28.936-10.143 55.263-26.543 76.535z"/></svg>