<svg xmlns="http://www.w3.org/2000/svg" width="648" height="648" viewBox="0 0 648 648"><title>PagesExclude_18</title><path d="M36 108h468V54a18 18 0 0 0-18-18H18A18 18 0 0 0 0 54v432a18 18 0 0 0 18 18h18V108z" fill-rule="evenodd"/><path d="M282.973 576H108V252h432v21.3a220.875 220.875 0 0 1 36 12.331V162a18 18 0 0 0-18-18H90a18 18 0 0 0-18 18v432a18 18 0 0 0 18 18h212.73a220.843 220.843 0 0 1-19.757-36z" fill-rule="evenodd"/><path d="M486 325.8A160.2 160.2 0 1 0 646.2 486 160.2 160.2 0 0 0 486 325.8zM360 486c0-28.936 10.143-55.263 26.543-76.535l175.992 175.992C541.266 601.855 514.934 612 486 612a126 126 0 0 1-126-126zm225.457 76.535L409.465 386.543C430.734 370.145 457.066 360 486 360a126 126 0 0 1 126 126c0 28.936-10.143 55.263-26.543 76.535z"/></svg>