<svg xmlns="http://www.w3.org/2000/svg" width="648" height="648" viewBox="0 0 648 648"><title>PageShare_18</title><path d="M535 329.964L432 216 329.258 329.964a18 18 0 0 0 13.379 30.041H396v135a9 9 0 0 0 9 9h54a9 9 0 0 0 9-9v-135h53.618A18 18 0 0 0 535 329.964z"/><path d="M540 396v180H324V396h-54a18 18 0 0 0-18 18v216a18 18 0 0 0 18 18h324a18 18 0 0 0 18-18V414a18 18 0 0 0-18-18h-54z"/><path d="M216 540H72V180h504v180h36V90a18 18 0 0 0-18-18H54a18 18 0 0 0-18 18v468a18 18 0 0 0 18 18h162v-36z" fill-rule="evenodd"/></svg>