<svg xmlns="http://www.w3.org/2000/svg" width="648" height="648" viewBox="0 0 648 648"><title>PaintBucket_18</title><path d="M607.078 426.094c-4.2-41.977-23.5-119.373-23.5-119.373-11.225-43.853-52.545-53.648-96.119-59.542L341.537 101.252a18 18 0 0 0-25.469.012l-43.634 43.72 87.693 87.693a27 27 0 0 1-38.18 38.184l-87.7-87.693L33.4 384.021a18 18 0 0 0 .008 25.466l193.544 193.3a18 18 0 0 0 25.461-.019l280.272-280.69a18 18 0 0 0 .268-25.16s6.5-4.291 10.188 2.678c8.936 16.9 12.423 50.361-9.49 100.349-6.787 15.473-24.992 38.659-24.992 58.6 0 31.025 16.37 50.379 50.019 50.379 29.554.007 53.913-27.724 48.4-82.83zM272.351 144.9L169.156 41.7a27 27 0 0 0-38.186 38.188l103.2 103.2z"/></svg>