<svg xmlns="http://www.w3.org/2000/svg" width="648" height="648" viewBox="0 0 648 648"><title>PasteText_18</title><path d="M396 108V72a72 72 0 0 0-144 0v36h-72v72h288v-72h-72zm-36 0h-72V72a36 36 0 0 1 72 0v36z"/><path d="M558 108h-54v90a18 18 0 0 1-18 18H162a18 18 0 0 1-18-18v-90H90a18 18 0 0 0-18 18v468a18 18 0 0 0 18 18h468a18 18 0 0 0 18-18V126a18 18 0 0 0-18-18zm-90 243a8.995 8.995 0 0 1-9 9h-18a8.995 8.995 0 0 1-9-9v-27h-72v180h27a8.995 8.995 0 0 1 9 9v18a8.995 8.995 0 0 1-9 9H261a8.995 8.995 0 0 1-9-9v-18a8.995 8.995 0 0 1 9-9h27V324h-72v26.508a8.995 8.995 0 0 1-9 9h-18a9 9 0 0 1-9-9V297a9.029 9.029 0 0 1 9-9h270a9.029 9.029 0 0 1 9 9v54z"/></svg>