<svg xmlns="http://www.w3.org/2000/svg" width="648" height="648" viewBox="0 0 648 648"><title>PasteHTML_18</title><path d="M396 108V72a72 72 0 0 0-144 0v36h-72v72h288v-72h-72zm-36 0h-72V72a36 36 0 0 1 72 0v36z"/><path d="M558 108h-54v90a18 18 0 0 1-18 18H162a18 18 0 0 1-18-18v-90H90a18 18 0 0 0-18 18v468a18 18 0 0 0 18 18h468a18 18 0 0 0 18-18V126a18 18 0 0 0-18-18zM252.877 453.3a7.159 7.159 0 0 1 0 10.128l-30.385 30.385a7.159 7.159 0 0 1-10.128 0l-87.674-87.685a14.317 14.317 0 0 1 0-20.257l87.674-87.683a7.159 7.159 0 0 1 10.128 0l30.385 30.385a7.159 7.159 0 0 1 0 10.128L195.58 396zm69 84.547a7.176 7.176 0 0 1-8.433 5.616l-42.127-8.433a7.166 7.166 0 0 1-5.617-8.43l54.489-272.447a7.166 7.166 0 0 1 8.424-5.616l42.137 8.433a7.16 7.16 0 0 1 5.616 8.424zM523.31 406.128l-87.683 87.683a7.159 7.159 0 0 1-10.128 0l-30.376-30.385a7.159 7.159 0 0 1 0-10.128L452.411 396l-57.288-57.3a7.159 7.159 0 0 1 0-10.128l30.377-30.383a7.159 7.159 0 0 1 10.128 0l87.683 87.683a14.317 14.317 0 0 1-.001 20.256z"/></svg>