<svg xmlns="http://www.w3.org/2000/svg" data-name="S_Pattern_18_N@2x" height="36" id="S_Pattern_18_N_2x" viewBox="0 0 36 36" width="36"><defs><style>.fill{fill:#707070}</style></defs><title>S_Pattern_18_N@2x</title><rect class="fill" height="4" rx=".5" ry=".5" width="6" x="2" y="4"/><rect class="fill" height="8" rx=".5" ry=".5" width="2" x="10" y="2"/><rect class="fill" height="4" rx=".5" ry=".5" width="6" x="14" y="4"/><rect class="fill" height="4" rx=".5" ry=".5" width="6" x="26" y="4"/><rect class="fill" height="8" rx=".5" ry=".5" width="2" x="22" y="2"/><rect class="fill" height="4" rx=".5" ry=".5" width="6" x="2" y="20"/><rect class="fill" height="8" rx=".5" ry=".5" width="2" x="10" y="18"/><rect class="fill" height="4" rx=".5" ry=".5" width="6" x="14" y="20"/><rect class="fill" height="4" rx=".5" ry=".5" width="6" x="26" y="20"/><rect class="fill" height="8" rx=".5" ry=".5" width="2" x="22" y="18"/><rect class="fill" height="8" rx=".5" ry=".5" width="2" x="4" y="10"/><rect class="fill" height="4" rx=".5" ry=".5" width="6" x="8" y="12"/><rect class="fill" height="4" rx=".5" ry=".5" width="6" x="20" y="12"/><rect class="fill" height="8" rx=".5" ry=".5" width="2" x="16" y="10"/><rect class="fill" height="8" rx=".5" ry=".5" width="2" x="28" y="10"/><rect class="fill" height="8" rx=".5" ry=".5" width="2" x="4" y="26"/><rect class="fill" height="4" rx=".5" ry=".5" width="6" x="8" y="28"/><rect class="fill" height="4" rx=".5" ry=".5" width="6" x="20" y="28"/><rect class="fill" height="8" rx=".5" ry=".5" width="2" x="16" y="26"/><rect class="fill" height="8" rx=".5" ry=".5" width="2" x="28" y="26"/></svg>