<svg xmlns="http://www.w3.org/2000/svg" width="648" height="648" viewBox="0 0 648 648"><title>PersonalizationField_18</title><path d="M558 36H90a17.994 17.994 0 0 0-18 18v540a18 18 0 0 0 18 18h468a18 18 0 0 0 18-18V54a17.994 17.994 0 0 0-18-18zM216 531a9 9 0 0 1-9 9h-90a9 9 0 0 1-9-9v-18a9 9 0 0 1 9-9h90a9 9 0 0 1 9 9v18zm324 0a9 9 0 0 1-9 9H297a9 9 0 0 1-9-9v-18a9 9 0 0 1 9-9h234a9 9 0 0 1 9 9v18zm0-135h-44.455c-17.033-25.058-48.357-38.9-104.924-44.642-9.492-.962-15.873-9.637-15.873-18.42v-26.586a18.434 18.434 0 0 1 4.676-11.865c19.705-23.361 31.922-56.276 31.922-87.623 0-66.311-35.156-103.364-88.295-103.364s-89.314 38.509-89.314 103.364c0 31.346 13.764 64.261 33.469 87.618a18.348 18.348 0 0 1 4.676 11.87v26.473c0 8.8-6.416 17.6-15.926 18.431C197.6 356.331 166.324 370.47 149.818 396H108V72h432v324z"/></svg>