<svg xmlns="http://www.w3.org/2000/svg" data-name="S_PinOn_18_N@2x" height="36" id="S_PinOn_18_N_2x" viewBox="0 0 36 36" width="36"><defs><style>.fill{fill:#707070}</style></defs><title>S_PinOn_18_N@2x</title><path class="fill" d="M5.646 28l2.379 2.381-3.74 3.669a.5.5 0 0 1-.713-.009l-1.589-1.66a.5.5 0 0 1 .007-.7zM17.951 32.32h.008L18 26.289 26.293 18l2.27-.023.006-.009a1.446 1.446 0 0 0 1.01-2.47l-4.538-4.538L20.5 6.424a1.445 1.445 0 0 0-2.469 1.011h-.008L18 9.708 9.707 18l-6.025.044v.007a1.44 1.44 0 0 0-1.106 2.461l6.459 6.458 6.457 6.459a1.442 1.442 0 0 0 2.463-1.107z"/></svg>