<svg xmlns="http://www.w3.org/2000/svg" width="648" height="648" viewBox="0 0 648 648"><title>Plug_18</title><path d="M60.392 467.685a110.133 110.133 0 0 1 0-155.752l95.182-95.182-.608-.608a48.95 48.95 0 0 1 0-69.223l34.611-34.611a48.949 48.949 0 0 1 69.223 0l34.611 34.611L410.833 29.5a18.358 18.358 0 0 1 25.959 0l25.958 25.957a18.358 18.358 0 0 1 0 25.959L345.328 198.838l103.834 103.834L566.585 185.25a18.358 18.358 0 0 1 25.959 0l25.956 25.958a18.358 18.358 0 0 1 0 25.959L501.08 354.589l34.611 34.611a48.949 48.949 0 0 1 0 69.223l-34.611 34.612a48.95 48.95 0 0 1-69.223 0l-1.065-1.065-95.182 95.182a110.133 110.133 0 0 1-155.752 0z" fill-rule="evenodd"/></svg>