<svg xmlns="http://www.w3.org/2000/svg" data-name="S_Polygon_18_N@2x" height="36" id="S_Polygon_18_N_2x" viewBox="0 0 36 36" width="36"><defs><style>.fill{fill:#707070}</style></defs><title>S_Polygon_18_N@2x</title><path class="fill" d="M34.61 17.53L26.942 4.565A1.077 1.077 0 0 0 25.995 4H10.046a1.077 1.077 0 0 0-.945.561l-7.708 12.9a1.077 1.077 0 0 0 0 1.03L9.1 31.438a1.077 1.077 0 0 0 .946.563H26a1.077 1.077 0 0 0 .946-.563l7.666-12.882a1.077 1.077 0 0 0-.002-1.026zM25.447 30H10.6L3.388 17.98 10.593 6h14.85l7.169 12.04z"/></svg>