<svg xmlns="http://www.w3.org/2000/svg" data-name="S_Preset_18_N@2x" height="36" id="S_Preset_18_N_2x" viewBox="0 0 36 36" width="36"><defs><style>.fill{fill:#707070}</style></defs><title>S_Preset_18_N@2x</title><path class="fill" d="M34 14a12 12 0 0 0-23.483-3.483 11.939 11.939 0 0 1 2.3-.458A10 10 0 1 1 25.94 23.185a11.939 11.939 0 0 1-.458 2.3A12 12 0 0 0 34 14z"/><path class="fill" d="M14 12h2v2h-2zM12 14h2v2h-2zM14 16h2v2h-2zM12 18h2v2h-2zM14 20h2v2h-2zM16 22h2v2h-2zM16 18h2v2h-2zM16 14h2v2h-2zM18 16h2v2h-2zM18 20h2v2h-2z"/><path class="fill" d="M24 25.817V24h-2v2a12.05 12.05 0 0 1-2-.18V24h-2v1.3a11.919 11.919 0 0 1-2-.921V24h-.628A12.015 12.015 0 0 1 14 22.926V22h-.926A12.071 12.071 0 0 1 12 20.628V20h-.381a11.927 11.927 0 0 1-.921-2H12v-2h-1.82a12.024 12.024 0 0 1-.18-2h2v-2h-1.817a12.111 12.111 0 0 1 .335-1.482 12 12 0 1 0 14.965 14.964 12.2 12.2 0 0 1-1.483.335z"/><path class="fill" d="M20 22h2v2h-2zM22 20h2v2h-2zM20 18h2v2h-2zM22 16h2v2h-2zM20 14h2v2h-2zM18 12h2v2h-2zM26 22h-2v2h1.817A11.89 11.89 0 0 0 26 22zM25.3 18H24v2h1.82a11.894 11.894 0 0 0-.52-2zM24 15.372V16h.381a11.785 11.785 0 0 0-.381-.628zM12 12h2v-2a11.89 11.89 0 0 0-2 .183zM16 10.18V12h2v-1.3a11.894 11.894 0 0 0-2-.52zM20 11.619V12h.628a11.785 11.785 0 0 0-.628-.381zM22 13.074V14h.926a12.1 12.1 0 0 0-.926-.926z"/></svg>