<svg xmlns="http://www.w3.org/2000/svg" width="648" height="648" viewBox="0 0 648 648"><title>PrintPreview_18</title><path fill-rule="evenodd" d="M180 35.995v144H36l144-144z"/><path d="M210.6 414c0-112.335 91.055-203.4 203.4-203.4 6.082 0 12.059.387 18 .91V53.993a18 18 0 0 0-18-18H216v162a17.994 17.994 0 0 1-18 18H36v270a17.994 17.994 0 0 0 18 18h177.8A202.152 202.152 0 0 1 210.6 414z" fill-rule="evenodd"/><path d="M633.435 578.565l-81.813-81.813c14.7-24.357 23.662-52.585 23.662-83.11a161.642 161.642 0 1 0-161.642 161.642c30.529 0 58.753-8.958 83.11-23.662l81.813 81.813c18.277 18.277 40.485 14.385 54.87 0s15.154-39.716 0-54.87zM313.421 413.642a100.221 100.221 0 1 1 100.221 100.214 100.22 100.22 0 0 1-100.221-100.214z"/></svg>