<svg xmlns="http://www.w3.org/2000/svg" data-name="S_ProjectNameEdit_18_N@2x" height="36" id="S_ProjectNameEdit_18_N_2x" viewBox="0 0 36 36" width="36"><defs><style>.fill{fill:#707070}</style></defs><title>S_ProjectNameEdit_18_N@2x</title><path class="fill" d="M19.6 24H4V4h28v7.6h2V3a1 1 0 0 0-1-1H3a1 1 0 0 0-1 1v22a1 1 0 0 0 1 1h16.6z"/><path class="fill" d="M34 14H16a2 2 0 0 0-2 2v5a1 1 0 0 0 1 1h2a1 1 0 0 0 1-1v-3h4v14h-1a1 1 0 0 0-1 1v2a1 1 0 0 0 1 1h8a1 1 0 0 0 1-1v-2a1 1 0 0 0-1-1h-1V18h4v3a1 1 0 0 0 1 1h2a1 1 0 0 0 1-1v-5a2 2 0 0 0-2-2z"/></svg>