<svg xmlns="http://www.w3.org/2000/svg" width="648" height="648" viewBox="0 0 648 648"><title>Project_18</title><path d="M252 144H36V90a18 18 0 0 1 18-18h118.544a18 18 0 0 1 12.728 5.272zM594 180H36v378a18 18 0 0 0 18 18h540a18 18 0 0 0 18-18V198a18 18 0 0 0-18-18zM180 495a9 9 0 0 1-9 9h-54a9 9 0 0 1-9-9V261a9 9 0 0 1 9-9h54a9 9 0 0 1 9 9v234zm108 0a9 9 0 0 1-9 9h-54a9 9 0 0 1-9-9V333a9 9 0 0 1 9-9h54a9 9 0 0 1 9 9v162zm108 0a9 9 0 0 1-9 9h-54a9 9 0 0 1-9-9v-90a9 9 0 0 1 9-9h54a9 9 0 0 1 9 9v90zm108 0a9 9 0 0 1-9 9h-54a9 9 0 0 1-9-9v-18a9 9 0 0 1 9-9h54a9 9 0 0 1 9 9v18z"/></svg>