<svg xmlns="http://www.w3.org/2000/svg" width="648" height="648" viewBox="0 0 648 648"><title>ProjectAdd_18</title><path d="M216 144H0V90a18 18 0 0 1 18-18h118.544a18 18 0 0 1 12.728 5.272zM264.6 487.8c0-122.276 99.123-221.4 221.4-221.4a220.361 220.361 0 0 1 90 19.239V198a18 18 0 0 0-18-18H0v378a18 18 0 0 0 18 18h264.973a220.541 220.541 0 0 1-18.373-88.2zM144 495a9 9 0 0 1-9 9H81a9 9 0 0 1-9-9V261a9 9 0 0 1 9-9h54a9 9 0 0 1 9 9v234zm108 0a9 9 0 0 1-9 9h-54a9 9 0 0 1-9-9V333a9 9 0 0 1 9-9h54a9 9 0 0 1 9 9v162z"/><path d="M486 325.8A160.2 160.2 0 1 0 646.2 486 160.2 160.2 0 0 0 486 325.8zM576 495a9 9 0 0 1-9 9h-63v63a9 9 0 0 1-9 9h-18a9 9 0 0 1-9-9v-63h-63a9 9 0 0 1-9-9v-18a9 9 0 0 1 9-9h63v-63a9 9 0 0 1 9-9h18a9 9 0 0 1 9 9v63h63a9 9 0 0 1 9 9v18z"/></svg>