<svg xmlns="http://www.w3.org/2000/svg" width="648" height="648" viewBox="0 0 648 648"><title>PublishCheck_18</title><path d="M597.441 20.033l-565 168.575A9 9 0 0 0 31 205.285l142.514 71.163zM281.057 402.394l-99.615-55.9V484a12.829 12.829 0 0 0 21.129 9.784l67.729-57.05a219.743 219.743 0 0 1 10.757-34.34zM486 264.6a221.341 221.341 0 0 1 50.889 6.111L641.461 42.543 235.6 306.567l78.8 39.61A220.93 220.93 0 0 1 486 264.6zM486 325.8A160.2 160.2 0 1 0 646.2 486 160.2 160.2 0 0 0 486 325.8zm-42.083 257.618l-74.3-74.3a9 9 0 0 1 0-12.728l18.656-18.656a9 9 0 0 1 12.728 0l49.166 49.166 109.907-109.911a9 9 0 0 1 12.728 0l18.77 18.77a9 9 0 0 1 0 12.728l-134.927 134.93a9 9 0 0 1-12.728.001z"/></svg>