<svg xmlns="http://www.w3.org/2000/svg" width="648" height="648" viewBox="0 0 648 648"><title>PublishRemove_18</title><path d="M597.441 20.033l-565 168.575A9 9 0 0 0 31 205.285l142.514 71.163zM281.6 402.7l-100.16-56.2V484a12.83 12.83 0 0 0 21.129 9.787l68.309-57.546A220.237 220.237 0 0 1 281.6 402.7zM486 266.4a221.358 221.358 0 0 1 50.15 5.924L641.461 42.543 235.6 306.567l79.822 40.118A220.915 220.915 0 0 1 486 266.4zM486 325.8A160.2 160.2 0 1 0 646.2 486 160.2 160.2 0 0 0 486 325.8zm104.862 220.8a9 9 0 0 1 0 12.727l-31.535 31.535a9 9 0 0 1-12.727 0l-60.6-60.6-60.6 60.6a9 9 0 0 1-12.727 0l-31.535-31.535a9 9 0 0 1 0-12.727l60.6-60.6-60.6-60.6a9 9 0 0 1 0-12.729l31.535-31.533a9 9 0 0 1 12.727 0l60.6 60.6 60.6-60.6a9 9 0 0 1 12.727 0l31.535 31.533a9 9 0 0 1 0 12.729l-60.6 60.6z"/></svg>