<svg xmlns="http://www.w3.org/2000/svg" data-name="S_Public_18_N@2x" height="36" id="S_Public_18_N_2x" viewBox="0 0 36 36" width="36"><defs><style>.fill{fill:#707070}</style></defs><title>S_Public_18_N@2x</title><circle class="fill" cx="18" cy="18" r="3.771"/><path class="fill" d="M28 15v2.6a10.275 10.275 0 0 1-8.6 10.3 9.881 9.881 0 0 1-8.182-2.6 1.012 1.012 0 0 0-1.373-.049l-3.006 2.67a1 1 0 0 0-.063 1.447A15.884 15.884 0 0 0 18 34a16.224 16.224 0 0 0 15.8-14H35a1 1 0 0 0 1-1v-4a1 1 0 0 0-1-1h-6a1 1 0 0 0-1 1zM8 16.929A10 10 0 0 1 18.121 8a9.857 9.857 0 0 1 5.755 1.953 1.016 1.016 0 0 0 1.375-.112l2.658-2.99a1 1 0 0 0-.105-1.44A15.782 15.782 0 0 0 18 2C10.753 2 4.168 7.392 2.2 14H1a1 1 0 0 0-1 1v4a1 1 0 0 0 1 1h6a1 1 0 0 0 1-1z"/></svg>