<svg xmlns="http://www.w3.org/2000/svg" width="648" height="648" viewBox="0 0 648 648"><title>PublishPending_18</title><path d="M597.441 20.033l-565 168.575A9 9 0 0 0 31 205.285l142.514 71.163zM281.6 402.7l-100.16-56.2V484a12.829 12.829 0 0 0 21.129 9.784l68.309-57.549A220.21 220.21 0 0 1 281.6 402.7zM486 266.4a221.358 221.358 0 0 1 50.15 5.922L641.461 42.543 235.6 306.567l79.822 40.118A220.906 220.906 0 0 1 486 266.4zM468 479.109l-56.373 56.371 25.471 25.456L504 494.022V365.816h-36v113.293zM606.9 509.4a125.262 125.262 0 0 1-18.738 45.657l25.857 25.862a160.716 160.716 0 0 0 29.393-71.519H606.9zM643.535 462.6a159.034 159.034 0 0 0-28.723-70.488l-25.98 25.545a123.542 123.542 0 0 1 18.246 44.943h36.457z"/><path d="M555.275 588.362A121.9 121.9 0 0 1 486 610.2 124.347 124.347 0 0 1 361.793 486c0-61.033 44.508-111.184 102.6-121.515v-36.123c-78.1 10.668-138.6 76.6-138.6 157.638A160.21 160.21 0 0 0 486 646.2c35.824 0 68.361-12.309 94.887-32.234zM507.6 328.278v36.316a123.934 123.934 0 0 1 48.428 19.681l25.8-25.394a158.983 158.983 0 0 0-74.228-30.603z"/></svg>