<svg xmlns="http://www.w3.org/2000/svg" width="648" height="648" viewBox="0 0 648 648"><title>PublishReject_18</title><path d="M597.441 20.033l-565 168.575A9 9 0 0 0 31 205.285l142.514 71.163zM281.6 402.7l-100.16-56.2V484a12.829 12.829 0 0 0 21.129 9.784l68.309-57.549A220.21 220.21 0 0 1 281.6 402.7zM486 266.4a221.358 221.358 0 0 1 50.15 5.922L641.461 42.543 235.6 306.567l79.822 40.118A220.906 220.906 0 0 1 486 266.4zM486 325.8A160.2 160.2 0 1 0 646.2 486 160.2 160.2 0 0 0 486 325.8zM576 495a9 9 0 0 1-9 9H405a9 9 0 0 1-9-9v-18a9 9 0 0 1 9-9h162a9 9 0 0 1 9 9v18z"/></svg>