<svg xmlns="http://www.w3.org/2000/svg" width="648" height="648" viewBox="0 0 648 648"><title>PushNotification_18</title><path d="M486 1.8A160.2 160.2 0 1 0 646.2 162 160.2 160.2 0 0 0 486 1.8zM534.3 252H432.949c-2.285 0-2.936-.976-2.61-2.936l-.079-33.407c.334-1.951 1.3-2.927 3.586-2.927h30.19l.079-98.051c-10.424 3.261-26.033 7.822-35.156 9.123-2.276.325-2.927-.325-2.927-2.285V93.182c0-1.635.325-2.61 2.276-2.936 13.685-3.261 29.065-10.1 42.1-16.62A12.02 12.02 0 0 1 475.945 72h26.613c1.635 0 1.96.976 1.96 2.285l-.079 138.445h29.136c2.276 0 2.927.976 3.252 2.927l.079 32.757c.325 2.61-.65 3.586-2.606 3.586z"/><path d="M486 383.4c-122.273 0-221.4-99.123-221.4-221.4 0-6.082.422-12.05.905-18H72a36 36 0 0 0-36 36v396a36 36 0 0 0 36 36h396a36 36 0 0 0 36-36V382.491c-5.95.484-11.918.909-18 .909z"/></svg>