<svg xmlns="http://www.w3.org/2000/svg" width="648" height="648" viewBox="0 0 648 648"><title>Question_18</title><path d="M594 72H54a18 18 0 0 0-18 18v396a18 18 0 0 0 18 18h198l63.65 123.108a8.991 8.991 0 0 0 16.7 0L396 504h198a18 18 0 0 0 18-18V90a18 18 0 0 0-18-18zM319.57 457.987c-29.057 0-48.586-19.538-48.586-48.621 0-27.859 20.443-48.076 48.586-48.076 28.16 0 48.621 20.217 48.621 48.076 0 29.534-19.091 48.621-48.621 48.621zm54.984-202.449l-3.111 2.953c-12.6 11.911-26.877 25.411-26.877 33.691 0 6.6 1.705 12.353 5.344 18.71a10.814 10.814 0 0 1-9.176 17.062h-37.546c-2.812 0-6.645 0-12.463-4.869-11.637-13.579-12.533-30.72-12.533-35.648 0-24.453 15.064-39.509 35.895-60.348 13.764-13.761 19.793-20.788 19.793-30.32 0-4.746 0-17.35-27.668-17.35-23.309 0-39.762 7.508-50.4 13.3l-3.252 1.29h-2.127a10.958 10.958 0 0 1-11.092-11.061v-41.886c0-2.215 0-8.958 6.434-12.241 13.658-7.383 36.879-16.183 69.926-16.183 53.42 0 89.3 30.856 89.3 76.781-.001 32.85-15.382 51.858-30.446 66.119z"/></svg>