<svg xmlns="http://www.w3.org/2000/svg" width="648" height="648" viewBox="0 0 648 648"><title>RailRight_18</title><path d="M0 93v462c0 11.6 9.07 21 20.25 21h607.5c11.18 0 20.25-9.4 20.25-21V93c0-11.593-9.07-21-20.25-21H20.25C9.07 72 0 81.4 0 93zm599.4 114a9 9 0 0 1-9 9H489.6a9 9 0 0 1-9-9v-18a9 9 0 0 1 9-9h100.8a9 9 0 0 1 9 9v18zm0 108a9 9 0 0 1-9 9H489.6a9 9 0 0 1-9-9v-18a9 9 0 0 1 9-9h100.8a9 9 0 0 1 9 9v18zm-118.8 90a9 9 0 0 1 9-9h100.8a9 9 0 0 1 9 9v18a9 9 0 0 1-9 9H489.6a9 9 0 0 1-9-9v-18zM36 180h396v360H36V180z"/></svg>