<svg xmlns="http://www.w3.org/2000/svg" width="648" height="648" viewBox="0 0 648 648"><title>ReflectVertical_18</title><path d="M241.2 482.4A9 9 0 0 0 234 468h-54V54a17.994 17.994 0 0 0-18-18h-36a18 18 0 0 0-18 18v414H54a9 9 0 0 0-7.2 14.4L144 612zM589.017 271.617L266.568 45.914a9 9 0 0 0-14.161 7.365V279a9 9 0 0 0 9 9h322.448a9.005 9.005 0 0 0 5.162-16.383zM288.407 252V105.135L498.2 252H288.407zm-21.839 314.086l322.449-225.7A9.005 9.005 0 0 0 583.855 324H261.407a9 9 0 0 0-9 9v95.186a52 52 0 0 1 23.8 80.1l-23.8 31.729v18.7a9 9 0 0 0 14.161 7.371z"/></svg>