<svg xmlns="http://www.w3.org/2000/svg" width="648" height="648" viewBox="0 0 648 648"><title>ReflectHorizontal_18</title><path d="M482.4 406.8A9 9 0 0 0 468 414v54H54a17.994 17.994 0 0 0-18 18v36a18 18 0 0 0 18 18h414v54a9 9 0 0 0 14.4 7.2L612 504zM271.617 59.39L45.914 381.839A9 9 0 0 0 53.279 396H279a9 9 0 0 0 9-9V64.551a9.005 9.005 0 0 0-16.383-5.161zM252 360H105.135L252 150.205V360zm314.086 21.839L340.383 59.39A9.005 9.005 0 0 0 324 64.551V387a9 9 0 0 0 9 9h95.186a52 52 0 0 1 80.1-23.8l31.732 23.8h18.7a9 9 0 0 0 7.368-14.161z"/></svg>