<svg xmlns="http://www.w3.org/2000/svg" width="648" height="648" viewBox="0 0 648 648"><title>ReportAdd_18</title><path d="M271.512 540h-82.565a9 9 0 0 1-9-9l.018-54a9.016 9.016 0 0 1 9-8.991H265.5A220.841 220.841 0 0 1 271.512 432H189a9 9 0 0 1-9-9v-54a9 9 0 0 1 9-9h115.066a222.244 222.244 0 0 1 31.377-36H297a9 9 0 0 1-9-9V189a9 9 0 0 1 9-9h54a9 9 0 0 1 9 9v115.066a220.746 220.746 0 0 1 36-20.228V117a9 9 0 0 1 9-9h54a9 9 0 0 1 9 9v148.509c5.959-.483 11.918-.91 18-.91s12.041.426 18 .91V90a18 18 0 0 0-18-18H162a18 18 0 0 0-18 18v468a18 18 0 0 0 18 18h121.834a219.73 219.73 0 0 1-12.322-36zM180 261a9 9 0 0 1 9-9h54a9 9 0 0 1 9 9v54a9 9 0 0 1-9 9h-54a9 9 0 0 1-9-9v-54z"/><path d="M487.8 327.6A160.2 160.2 0 1 0 648 487.8a160.2 160.2 0 0 0-160.2-160.2zm90 169.2a9 9 0 0 1-9 9h-63v63a9 9 0 0 1-9 9h-18a9 9 0 0 1-9-9v-63h-63a9 9 0 0 1-9-9v-18a9 9 0 0 1 9-9h63v-63a9 9 0 0 1 9-9h18a9 9 0 0 1 9 9v63h63a9 9 0 0 1 9 9v18z"/></svg>