<svg xmlns="http://www.w3.org/2000/svg" width="648" height="648" viewBox="0 0 648 648"><title>Report_18</title><path d="M486 72H162a17.994 17.994 0 0 0-18 18v468a18 18 0 0 0 18 18h324a18 18 0 0 0 18-18V90a17.994 17.994 0 0 0-18-18zM288 189a9 9 0 0 1 9-9h54a9 9 0 0 1 9 9v126a9 9 0 0 1-9 9h-54a9 9 0 0 1-9-9V189zm-108 72a9 9 0 0 1 9-9h54a9 9 0 0 1 9 9v54a9 9 0 0 1-9 9h-54a9 9 0 0 1-9-9v-54zm215.982 270.007a9 9 0 0 1-9 9H188.947a9 9 0 0 1-9-9l.018-54a9.016 9.016 0 0 1 9-8.993H387a8.989 8.989 0 0 1 9 9zM468 423a9 9 0 0 1-9 9H189a9 9 0 0 1-9-9v-54a9 9 0 0 1 9-9h270a9 9 0 0 1 9 9v54zm0-108a9 9 0 0 1-9 9h-54a9 9 0 0 1-9-9V117a9 9 0 0 1 9-9h54a9 9 0 0 1 9 9v198z"/></svg>