<svg xmlns="http://www.w3.org/2000/svg" width="648" height="648" viewBox="0 0 648 648"><title>Revenue_18</title><path d="M324 425.848V594a18 18 0 0 0 18 18h72a18 18 0 0 0 18-18V394.119L355.148 457zM36 594a18 18 0 0 0 18 18h72a18 18 0 0 0 18-18V372.516L36 465.1V594zM180 341.657V594a18 18 0 0 0 18 18h72a18 18 0 0 0 18-18V389.848l-75.8-75.8zM468 364.667V594a18 18 0 0 0 18 18h72a18 18 0 0 0 18-18V373.834l-50.344-56.342z"/><path d="M442.747 159l39.035 43.683-119.356 97.134-138.634-138.634a9 9 0 0 0-12.221-.469L36 311.2V406l178.1-152.66 137.725 137.724a9 9 0 0 0 12.05.612l163.009-140.652 33.405 39.512a9 9 0 0 0 15.711-6V144H449.458a9 9 0 0 0-6.711 15z"/></svg>