<svg xmlns="http://www.w3.org/2000/svg" width="648" height="648" viewBox="0 0 648 648"><title>Ribbon_18</title><path d="M211.975 407.9L136.16 544.324a9 9 0 0 0 11.092 12.476l72.281-25.774a9 9 0 0 1 11.5 5.454l25.77 72.277a9.006 9.006 0 0 0 16.682.694l30.247-66.751-54.755-115.938a205.857 205.857 0 0 1-37.002-18.862zM511.84 544.324L442.213 403.8a202.555 202.555 0 0 1-147.937 34.831l80.262 170.82a8.992 8.992 0 0 0 16.664-.694l25.77-72.277a9.015 9.015 0 0 1 11.514-5.454l72.262 25.774a9 9 0 0 0 11.092-12.476zM324 72a162 162 0 1 0 162 162A162 162 0 0 0 324 72zm0 261a99 99 0 1 1 99-99 99 99 0 0 1-99 99z"/></svg>