<svg xmlns="http://www.w3.org/2000/svg" data-name="S_RotateCWBold_18_N@2x" height="36" id="S_RotateCWBold_18_N_2x" viewBox="0 0 36 36" width="36"><defs><style>.fill{fill:#707070}</style></defs><title>S_RotateCWBold_18_N@2x</title><path class="fill" d="M4.108 10.062a16 16 0 0 1 21.83-5.954 15.753 15.753 0 0 1 3.094 2.347L32.445 4.1a.5.5 0 0 1 .781.463l-1.05 10.226-9.9-2.679a.5.5 0 0 1-.153-.895l3.527-2.431a11.749 11.749 0 0 0-1.7-1.2A11.991 11.991 0 0 0 7.521 23.822l.064.118a2.005 2.005 0 1 1-3.477 2c-.034-.059-.091-.17-.091-.17a15.984 15.984 0 0 1 .091-15.708z"/><circle class="fill" cx="18" cy="32" r="2"/><circle class="fill" cx="11.054" cy="30.155" r="2" transform="rotate(-60.255 11.054 30.156)"/><circle class="fill" cx="24.637" cy="30.327" r="2" transform="rotate(-28.301 24.636 30.326)"/><circle class="fill" cx="29.618" cy="25.812" r="2" transform="rotate(-56.085 29.618 25.812)"/></svg>