<svg xmlns="http://www.w3.org/2000/svg" data-name="S_RotateCCWBold_18_N@2x" height="36" id="S_RotateCCWBold_18_N_2x" viewBox="0 0 36 36" width="36"><defs><style>.fill{fill:#707070}</style></defs><title>S_RotateCCWBold_18_N@2x</title><path class="fill" d="M31.892 10.062a16 16 0 0 0-21.83-5.954 15.753 15.753 0 0 0-3.094 2.347L3.555 4.1a.5.5 0 0 0-.781.463l1.05 10.226 9.9-2.679a.5.5 0 0 0 .153-.895L10.35 8.784a11.749 11.749 0 0 1 1.7-1.2 11.991 11.991 0 0 1 16.429 16.238l-.064.118a2.005 2.005 0 1 0 3.477 2c.034-.059.091-.17.091-.17a15.984 15.984 0 0 0-.091-15.708z"/><circle class="fill" cx="18" cy="32" r="2"/><circle class="fill" cx="24.946" cy="30.155" r="2" transform="rotate(-29.745 24.946 30.155)"/><circle class="fill" cx="11.363" cy="30.327" r="2" transform="rotate(-61.699 11.363 30.326)"/><circle class="fill" cx="6.382" cy="25.812" r="2" transform="rotate(-33.915 6.381 25.811)"/></svg>