<svg xmlns="http://www.w3.org/2000/svg" width="648" height="648" viewBox="0 0 648 648"><title>RSS_18</title><circle cx="143.881" cy="504.119" r="72"/><path d="M395.7 576.119h-72.044a8.991 8.991 0 0 1-8.931-8.788C310.186 440.357 207.716 337.884 80.741 333.28a8.991 8.991 0 0 1-8.783-8.938l.056-72.042a9.042 9.042 0 0 1 9.2-9.052c176.228 4.872 318.734 147.412 323.54 323.674a9.042 9.042 0 0 1-9.054 9.197z"/><path d="M575.727 576.119h-72a8.973 8.973 0 0 1-8.94-8.861c-4.669-226.29-187.839-412.667-414.047-417.421a8.973 8.973 0 0 1-8.859-8.939V72.273a9.075 9.075 0 0 1 9.17-9.073c275.6 4.856 498.894 228.146 503.749 503.749a9.075 9.075 0 0 1-9.073 9.17z"/></svg>