<svg id="SaveAs_18" xmlns="http://www.w3.org/2000/svg" width="648" height="648" viewBox="0 0 648 648"><defs><style/></defs><title>SaveAs_18</title><path d="M360 35.995h72v108h-72z"/><path d="M283.838 576H144V288h243.36A220.316 220.316 0 0 1 612 304.066v-152.5a18 18 0 0 0-5.265-12.72s-97.651-97.589-100.02-99.637-6.908-3.215-10.107-3.215H468v144H216v-144H54a18 18 0 0 0-18 18v540a18 18 0 0 0 18 18h250.062A220.57 220.57 0 0 1 283.838 576z"/><path d="M486 325.8A160.2 160.2 0 1 0 646.2 486 160.2 160.2 0 0 0 486 325.8zM576 495a9 9 0 0 1-9 9h-63v63a9 9 0 0 1-9 9h-18a9 9 0 0 1-9-9v-63h-63a9 9 0 0 1-9-9v-18a9 9 0 0 1 9-9h63v-63a9 9 0 0 1 9-9h18a9 9 0 0 1 9 9v63h63a9 9 0 0 1 9 9v18z"/></svg>