<svg xmlns="http://www.w3.org/2000/svg" width="648" height="648" viewBox="0 0 648 648"><title>Scribble</title><path d="M503.378 82.3c6.564-6.618 6.2-17.561-.766-24.521-6.985-6.988-17.955-7.382-24.522-.791a24.4 24.4 0 0 0-2.109 2.611l-.211-.265-157.307 157.249.211.292a12.225 12.225 0 0 0-2.608 2.136c-6.566 6.539-6.169 17.534.815 24.443 6.964 7.012 17.931 7.382 24.47.815a16.4 16.4 0 0 0 2.136-2.611l.238.238L501.032 84.615l-.265-.235a15.471 15.471 0 0 0 2.611-2.08zM535.36 109.717c-12.971 12.974-171.677 173.6-172.6 174.525-7.86 7.83-33.963 9.069-42.506.526-.632-.6-13.816-13.052-13.816-13.052L112.129 462.345a27 27 0 0 0-5.888 8.644L72.561 586.3a6.75 6.75 0 0 0 8.905 8.836l115.8-35.211a27 27 0 0 0 8.273-5.626l388.516-387.061zM553.633 78.921l55.9 53.209c6.828-12.814 7.408-36.15-14.529-58.193-20.223-20.2-43.98-23.992-57.955-19.089-3.216 1.161 1.161 5.484 2.479 6.75 1.291 1.317 13.236 15.584 14.105 17.323zM613.336 521.051c-39.762-22.816-89.93-28.74-141.012-16.682-39.8 9.352-80.3 29.373-123.855 61.154-14.309 10.389-30.3 21.27-40.992 16.541-5.766-2.514-10.406-9.791-15.785-18.229a152.749 152.749 0 0 0-10.758-15.435 81.726 81.726 0 0 0-6.979-6.957L248.1 567.31c1.582 1.452 3.621 2.259 5.027 3.962a121.066 121.066 0 0 1 8.227 11.918c7.453 11.707 15.926 24.979 31.781 31.887a49.017 49.017 0 0 0 19.723 4.1c23.063 0 44.191-15.363 56.813-24.557 39.621-28.916 75.9-46.969 110.883-55.2 41.8-9.844 83.566-5.08 114.855 12.85a18 18 0 0 0 17.927-31.219z"/></svg>