<svg xmlns="http://www.w3.org/2000/svg" width="648" height="648" viewBox="0 0 648 648"><title>SeatAdd</title><path d="M90 324H72a36 36 0 0 0-36 36v234a18 18 0 0 0 18 18h36a18 18 0 0 0 18-18V342a17.994 17.994 0 0 0-18-18zM162 360h141.943A221.136 221.136 0 0 1 486 264.6c6.064 0 12.059.255 18 .732V180A108 108 0 0 0 396 72H252a108 108 0 0 0-108 108v162a18 18 0 0 0 18 18zM264.6 486a220.589 220.589 0 0 1 19.072-90H162a17.994 17.994 0 0 0-18 18v108a18 18 0 0 0 18 18h109.248a221.393 221.393 0 0 1-6.648-54zM487.8 327.6A160.2 160.2 0 1 0 648 487.8a160.2 160.2 0 0 0-160.2-160.2zm90 169.2a9 9 0 0 1-9 9h-63v63a9 9 0 0 1-9 9h-18a9 9 0 0 1-9-9v-63h-63a9 9 0 0 1-9-9v-18a9 9 0 0 1 9-9h63v-63a9 9 0 0 1 9-9h18a9 9 0 0 1 9 9v63h63a9 9 0 0 1 9 9v18z"/></svg>