<svg xmlns="http://www.w3.org/2000/svg" width="648" height="648" viewBox="0 0 648 648"><title>SelectGear</title><path d="M108 157.166V108h48.727c.176 0 .352-.053.527-.053.088 0 .176.053.264.053H288v109.918l72 71.67V72a36 36 0 0 0-36-36H72a36 36 0 0 0-36 36v252a36 36 0 0 0 36 36h36V157.166zM633.477 464.152h-38.256a110.6 110.6 0 0 0-16.153-39.216l27.237-27.236a10.923 10.923 0 0 0 0-15.448l-16.558-16.558a10.924 10.924 0 0 0-15.451 0l-27.236 27.238a110.651 110.651 0 0 0-39.213-16.157v-38.252a10.923 10.923 0 0 0-10.924-10.923h-21.846a10.923 10.923 0 0 0-10.923 10.923v38.251a110.651 110.651 0 0 0-39.213 16.157L397.7 365.695a10.924 10.924 0 0 0-15.451 0l-16.558 16.558a10.923 10.923 0 0 0 0 15.448l27.237 27.235a110.6 110.6 0 0 0-16.153 39.216h-38.252a10.923 10.923 0 0 0-10.923 10.923v21.848a10.925 10.925 0 0 0 10.923 10.925h38.255a110.6 110.6 0 0 0 16.153 39.216L365.695 574.3a10.922 10.922 0 0 0 0 15.446l16.557 16.554a10.924 10.924 0 0 0 15.451 0l27.237-27.235a110.64 110.64 0 0 0 39.213 16.151v38.255a10.925 10.925 0 0 0 10.924 10.929h21.847a10.925 10.925 0 0 0 10.923-10.925V595.22a110.64 110.64 0 0 0 39.213-16.151L574.3 606.3a10.924 10.924 0 0 0 15.451 0l16.558-16.558a10.922 10.922 0 0 0 0-15.446l-27.237-27.235a110.6 110.6 0 0 0 16.153-39.216h38.255a10.925 10.925 0 0 0 10.92-10.922v-21.848a10.923 10.923 0 0 0-10.923-10.923zM486 542.953A56.953 56.953 0 1 1 542.953 486 56.955 56.955 0 0 1 486 542.953z"/><path d="M333.4 325.85l-180.949-180.3a5.125 5.125 0 0 0-3.67-1.55 5.246 5.246 0 0 0-5.291 5.265v344.487a5.246 5.246 0 0 0 5.291 5.265 5.125 5.125 0 0 0 3.674-1.549l78.658-101.819h52.9A221.746 221.746 0 0 1 333.4 325.85z"/></svg>