<svg xmlns="http://www.w3.org/2000/svg" width="648" height="648" viewBox="0 0 648 648"><title>SelectAll</title><path d="M525.6 144H230.4a86.4 86.4 0 0 0-86.4 86.4v295.2a86.4 86.4 0 0 0 86.4 86.4h295.2a86.4 86.4 0 0 0 86.4-86.4V230.4a86.4 86.4 0 0 0-86.4-86.4zm22.011 162.885L341.789 514.307a14.386 14.386 0 0 1-20.355 0L208.389 401.3a14.4 14.4 0 0 1 0-20.364l44.842-44.831a14.38 14.38 0 0 1 20.355.007l58.025 58.043 150.8-152.464a14.386 14.386 0 0 1 20.355 0l44.842 44.831a14.394 14.394 0 0 1 .003 20.363z"/><path d="M468 36H122.4A86.4 86.4 0 0 0 36 122.4V468a72 72 0 0 0 72 72V108h432a72 72 0 0 0-72-72z"/></svg>