<svg xmlns="http://www.w3.org/2000/svg" data-name="S_Selection_18_N@2x" height="36" id="S_Selection_18_N_2x" viewBox="0 0 36 36" width="36"><defs><style>.fill{fill:#707070}</style></defs><title>S_Selection_18_N@2x</title><path class="fill" d="M2 20h2v6H2zM2 10h2v6H2zM4 32v-2H2v3.111a.889.889 0 0 0 .889.889H6v-2zM10 32h6v2h-6zM20 32h6v2h-6zM32 10h2v6h-2zM32 20h2v6h-2zM32 30v2h-2v2h3a1 1 0 0 0 1-1v-3zM33.111 2H30v2h2v2h2V2.889A.889.889 0 0 0 33.111 2zM20 2h6v2h-6zM10 2h6v2h-6zM6 2H3a1 1 0 0 0-1 1v3h2V4h2z"/></svg>