<svg xmlns="http://www.w3.org/2000/svg" data-name="S_SelectionMove_18_N@2x" height="36" id="S_SelectionMove_18_N_2x" viewBox="0 0 36 36" width="36"><defs><style>.fill{fill:#707070}</style></defs><title>S_SelectionMove_18_N@2x</title><path class="fill" d="M2 20h2v6H2zM2 10h2v6H2zM4 32v-2H2v3.111a.889.889 0 0 0 .889.889H6v-2zM10 32h6v2h-6zM32 10h2v6h-2zM33.111 2H30v2h2v2h2V2.889A.889.889 0 0 0 33.111 2zM20 2h6v2h-6zM10 2h6v2h-6zM6 2H3a1 1 0 0 0-1 1v3h2V4h2zM32 22.25V24h-6v-6h1.749a.25.25 0 0 0 .177-.427L25 14.5l-2.926 3.073a.25.25 0 0 0 .177.427H24v6h-6v-1.75a.25.25 0 0 0-.427-.177L14.5 25l3.073 2.926A.25.25 0 0 0 18 27.75V26h6v6h-1.75a.25.25 0 0 0-.177.427L25 35.5l2.926-3.073a.25.25 0 0 0-.177-.427H26v-6h6v1.75a.25.25 0 0 0 .42.183L35.5 25l-3.08-2.933a.25.25 0 0 0-.42.183z"/></svg>