<svg xmlns="http://www.w3.org/2000/svg" data-name="S_SentimentPositive_18_N@2x" height="36" id="S_SentimentPositive_18_N_2x" viewBox="0 0 36 36" width="36"><defs><style>.fill{fill:#707070}</style></defs><title>S_SentimentPositive_18_N@2x</title><path class="fill" d="M18 2a16 16 0 1 0 16 16A16 16 0 0 0 18 2zm-5.635 6.534c1.657 0 3 1.679 3 3.75s-1.343 3.75-3 3.75-3-1.679-3-3.75 1.343-3.75 3-3.75zm11.108-.1c1.657 0 3 1.679 3 3.75s-1.343 3.75-3 3.75-3-1.679-3-3.75 1.343-3.752 3-3.752zM18 28.04c-5.033 0-9.556-3.633-10-8.14h20c-.444 4.507-4.967 8.14-10 8.14z"/></svg>