<svg xmlns="http://www.w3.org/2000/svg" width="648" height="648" viewBox="0 0 648 648"><title>Servers</title><path d="M198 180h396a18 18 0 0 0 18-18V54a18 18 0 0 0-18-18H198a18 18 0 0 0-18 18v54H72V45a9 9 0 0 0-9-9H45a9 9 0 0 0-9 9v558a9 9 0 0 0 9 9h18a9 9 0 0 0 9-9v-63h108v54a18 18 0 0 0 18 18h396a18 18 0 0 0 18-18V486a18 18 0 0 0-18-18H198a18 18 0 0 0-18 18v18H72V360h108v18a18 18 0 0 0 18 18h396a18 18 0 0 0 18-18V270a18 18 0 0 0-18-18H198a18 18 0 0 0-18 18v54H72V144h108v18a18 18 0 0 0 18 18zm18 324h72v36h-72v-36zm0-216h72v36h-72v-36zm0-216h72v36h-72V72z"/></svg>