<svg xmlns="http://www.w3.org/2000/svg" width="648" height="648" viewBox="0 0 648 648"><title>ShareCheck_18</title><path d="M486 325.8A160.2 160.2 0 1 0 646.2 486 160.2 160.2 0 0 0 486 325.8zm-42.083 257.619l-74.3-74.3a9 9 0 0 1 0-12.728l18.656-18.656a9 9 0 0 1 12.728 0l49.166 49.165 109.907-109.909a9 9 0 0 1 12.728 0l18.77 18.77a9 9 0 0 1 0 12.728l-134.927 134.93a9 9 0 0 1-12.728 0zM324 335.439V144h53.613A18 18 0 0 0 391 113.963L288 0 185.256 113.963A18 18 0 0 0 198.633 144H252v207a9 9 0 0 0 9 9h43.066A222 222 0 0 1 324 335.439zM504 265.507a219.843 219.843 0 0 1 72 18.332V162a18 18 0 0 0-18-18H432v72h72v49.507zM265.509 504H72V216h72v-72H18a18 18 0 0 0-18 18v396a18 18 0 0 0 18 18h265.843a219.638 219.638 0 0 1-18.334-72z"/></svg>