<svg xmlns="http://www.w3.org/2000/svg" data-name="S_Share_18_N@2x" height="36" id="S_Share_18_N_2x" viewBox="0 0 36 36" width="36"><defs><style>.fill{fill:#707070}</style></defs><title>S_Share_18_N@2x</title><path class="fill" d="M24.476 7.165L18 0l-6.46 7.165a.5.5 0 0 0 .371.835H16v11.5a.5.5 0 0 0 .5.5h3a.5.5 0 0 0 .5-.5V8h4.1a.5.5 0 0 0 .376-.835z"/><path class="fill" d="M33 8h-6.5a.5.5 0 0 0-.5.5v3a.5.5 0 0 0 .5.5H30v16H6V12h3.5a.5.5 0 0 0 .5-.5v-3a.5.5 0 0 0-.5-.5H3a1 1 0 0 0-1 1v22a1 1 0 0 0 1 1h30a1 1 0 0 0 1-1V9a1 1 0 0 0-1-1z"/></svg>