<svg xmlns="http://www.w3.org/2000/svg" data-name="S_ShoppingCart_18_N@2x" height="36" id="S_ShoppingCart_18_N_2x" viewBox="0 0 36 36" width="36"><defs><style>.fill{fill:#707070}</style></defs><title>S_ShoppingCart_18_N@2x</title><ellipse class="fill" cx="10.445" cy="31.143" rx="2.667" ry="2.917"/><ellipse class="fill" cx="25.778" cy="31.143" rx="2.667" ry="2.917"/><path class="fill" d="M29.326 23.857H10.469l.762-2.458H28a1.333 1.333 0 0 0 1.307-1.072L33.974 7.66a1.333 1.333 0 0 0-1.307-1.595h-.127v-.03H6.5l-1.289-3.5A1.333 1.333 0 0 0 3.889 1.4H1.333a1.333 1.333 0 1 0 0 2.667h1.406L8.667 20l-1.294 5.075A1.569 1.569 0 0 0 8.667 27h20.666a1.589 1.589 0 0 0 1.333-1.6 1.534 1.534 0 0 0-1.34-1.543zM7.529 8.836H30.6l-3.693 9.9H11.174z"/></svg>