<svg xmlns="http://www.w3.org/2000/svg" width="648" height="648" viewBox="0 0 648 648"><title>SinaWeibo</title><path d="M573.943 120.75a147.555 147.555 0 0 0-140.577-45.5 21.336 21.336 0 0 0 8.93 41.727 105.007 105.007 0 0 1 121.87 135.035 21.364 21.364 0 0 0 40.649 13.165v-.077a147.344 147.344 0 0 0-30.872-144.35z"/><path d="M517.666 171.561a71.711 71.711 0 0 0-68.441-22.1 18.376 18.376 0 1 0 7.622 35.953 35.1 35.1 0 0 1 40.8 45.191 18.406 18.406 0 0 0 35.029 11.317 71.886 71.886 0 0 0-15.01-70.361zM293.559 381.118c-3.233 5.543-10.393 8.161-15.936 5.851-5.543-2.233-7.237-8.468-4.08-13.858 3.233-5.389 10.085-8.007 15.551-5.851 5.543 2.002 7.545 8.24 4.465 13.858zm-29.486 37.723c-8.93 14.242-28.1 20.478-42.5 13.935-14.165-6.467-18.4-23.019-9.469-36.953 8.853-13.858 27.33-20.016 41.65-14.012 14.477 6.236 19.096 22.634 10.319 37.03zm33.566-100.852c-43.959-11.471-93.615 10.47-112.708 49.194-19.478 39.494-.616 83.376 43.728 97.7 46.038 14.858 100.236-7.93 119.1-50.5 18.629-41.733-4.621-84.615-50.12-96.394z"/><path d="M288.478 490.9c-92.384 9.161-172.141-32.642-178.146-93.23-6-60.665 64.053-117.173 156.359-126.335 92.384-9.161 172.141 32.642 178.069 93.23 6.082 60.666-63.975 117.251-156.282 126.335zm184.69-201.319c-7.853-2.387-13.242-3.926-9.161-14.242 8.93-22.4 9.854-41.727.154-55.584-18.092-25.867-67.671-24.482-124.487-.693 0 0-17.861 7.776-13.242-6.313 8.7-28.1 7.391-51.581-6.159-65.207-30.794-30.872-112.785 1.158-183.073 71.443-52.582 52.582-83.145 108.4-83.145 156.667C54.055 467.882 172.383 524 288.093 524c151.74 0 252.669-88.149 252.669-158.13.077-42.338-35.568-66.357-67.594-76.289z"/></svg>