<svg xmlns="http://www.w3.org/2000/svg" data-name="S_Slice_18_N@2x" height="36" id="S_Slice_18_N_2x" viewBox="0 0 36 36" width="36"><defs><style>.fill{fill:#707070}</style></defs><title>S_Slice_18_N@2x</title><path class="fill" d="M34.242 8.868l-9.188-7.232a1 1 0 0 0-1.4.16l-4.505 6.293a.988.988 0 0 0 .138 1.293v.03l-.679.858a7.483 7.483 0 0 1-1.027 1.063l-2.807 2.384a7.5 7.5 0 0 0-1.31 1.445L.063 34.486l22.971-10.227 3.507-6.02a7.544 7.544 0 0 1 .6-.878l.9-1.133s.138.106.19.148a1.02 1.02 0 0 0 1.423-.161c.5-.627 4.754-5.935 4.754-5.935a1 1 0 0 0-.166-1.412zm-8.67 7.251a9.582 9.582 0 0 0-.759 1.112l-3.182 5.463L5.78 29.751 15.108 16.3a5.5 5.5 0 0 1 .96-1.059l2.807-2.384a9.515 9.515 0 0 0 1.3-1.347l.679-.858 5.613 4.334z"/></svg>