<svg xmlns="http://www.w3.org/2000/svg" width="648" height="648" viewBox="0 0 648 648"><title>Slow_18</title><path d="M596.109 192.12a51.891 51.891 0 0 0-51.89 51.88c0 13.61 12.568 31.869 18.633 37.934L459 453c-.211-.044 21-193 21-193 37 4 50.191-25.728 50.191-49.168a51.891 51.891 0 0 0-103.781 0c0 21.146 10.229 34.695 24.432 41.168L432 432H323.016C367.066 399.19 396 347.159 396 288a180 180 0 0 0-360 0c0 76.315 39.491 148.4 145.619 162.484-60.343 46.207-114.781 34.231-153.775 42.666C2.35 498.665 12.814 540 38.918 540h531.527c29.725-1.143 5.245-23.942-19-31.9-14.877-4.885-19.888-33.141-19.888-33.141-4.342-13.012-17.41-21.325-27.412-29.758l81.492-152.679c1.371.141 8.508 3.371 10.477 3.371a51.884 51.884 0 1 0-.005-103.773z"/></svg>