<svg xmlns="http://www.w3.org/2000/svg" data-name="S_SmallCaps_18_N@2x" height="36" id="S_SmallCaps_18_N_2x" viewBox="0 0 36 36" width="36"><defs><style>.fill{fill:#707070}</style></defs><title>S_SmallCaps_18_N@2x</title><path class="fill" d="M1 4a1 1 0 0 0-1 1v6a1 1 0 0 0 1 1h2a1 1 0 0 0 1-1V8h6v20H7a1 1 0 0 0-1 1v2a1 1 0 0 0 1 1h12a1 1 0 0 0 1-1v-2a1 1 0 0 0-1-1h-3V8h6v2.973a1 1 0 0 0 1 1h2a1 1 0 0 0 1-1V5a1 1 0 0 0-1-1z"/><path class="fill" d="M20.5 16a.5.5 0 0 0-.5.5v3a.5.5 0 0 0 .5.5h1a.5.5 0 0 0 .5-.5V18h4v12h-1.5a.5.5 0 0 0-.5.5v1a.5.5 0 0 0 .5.5h7a.5.5 0 0 0 .5-.5v-1a.5.5 0 0 0-.5-.5H30V18h4v1.473a.5.5 0 0 0 .5.5h1a.5.5 0 0 0 .5-.5V16.5a.5.5 0 0 0-.5-.5z"/></svg>