<svg xmlns="http://www.w3.org/2000/svg" width="648" height="648" viewBox="0 0 648 648"><title>SMSKey</title><path d="M381.217 517.86a33.4 33.4 0 1 1-33.416 33.4 33.4 33.4 0 0 1 33.416-33.4zm30.006 93.278c33.908-4.913 61.488-32.44 66.3-66.353a80.887 80.887 0 0 0-.861-28.239l38.162-39.379v-35.226h42.5a6.1 6.1 0 0 0 6.082-6.073v-42.513h42.5a6.088 6.088 0 0 0 6.094-6.074v-60.732a6.088 6.088 0 0 0-6.082-6.073h-27.826a6.286 6.286 0 0 0-4.307 1.767L434 462.037a78.131 78.131 0 0 0-36.035-7.95c-44.244.817-80.227 40.14-77.326 84.27a78.966 78.966 0 0 0 90.584 72.782z" fill-rule="evenodd"/><path d="M594 72H54a18 18 0 0 0-18 18v396a18 18 0 0 0 18 18h90l63.65 123.108a8.991 8.991 0 0 0 16.7 0L288 504h1a116.436 116.436 0 0 1 26.174-48.445c21.34-23.238 51.293-36.879 82.09-37.477h.176a126.33 126.33 0 0 1 26.824 2.777l45.492-45.492a79.657 79.657 0 0 1-14.977-5.8c-5.66-3.375-5.66-8.719-5.66-11V321.4l7.313-2.32c19.828 10.23 36.809 15.258 53.4 15.258.334 0 .686-.066 1.02-.07l23.818-23.814c-2.672-4.487-8.508-9.743-23.08-16.932l-13.008-5.73c-34.7-16.277-49.465-35.754-49.465-65.145 0-39.129 29.637-64.406 75.551-64.406 20.18 0 36.984 3.023 47.355 8.578 2.391.914 5.66 3.586 5.66 10.055v35.191l-7.242 2.6-4.359-.281c-11.32-6.574-25.629-9.633-41.414-9.633-7.98 0-26.543 1.477-26.543 15.152 0 6.012 1.969 12.3 25.559 23.168l11.039 4.887c22.764 10.459 36.721 22.333 44.789 36.527h26.4c2.162 0 4.008.914 6.082 1.23V90A18 18 0 0 0 594 72zM119.883 380.6c-21.656 0-40.852-3.9-54.105-11.039-5.66-3.41-5.66-8.93-5.66-11V321.4l7.313-2.32c19.828 10.23 36.809 15.258 53.4 15.258 12.375 0 27.176-2.848 27.176-16.348 0-6.047-1.969-12.9-25.383-24.469l-13.043-5.73c-34.7-16.277-49.465-35.754-49.465-65.145 0-39.129 29.637-64.406 75.551-64.406 20.215 0 37.02 3.023 47.355 8.578 2.391.914 5.66 3.586 5.66 10.055v35.191l-7.242 2.6-4.359-.281c-11.25-6.609-25.559-9.633-41.414-9.633-7.98 0-26.543 1.477-26.543 15.152 0 6.012 1.969 12.3 25.559 23.168l11.039 4.887c37.3 17.121 53.156 37.125 53.156 66.938.001 39.937-31.007 65.705-78.995 65.705zm311.344-6.891l-.879 1.02-2.918 2.426-4.113.633h-38.462l-3.41-7.91c-.949-39.129-1.512-84.832-1.758-120.059-6.785 24.152-14.871 52.137-22.078 76.992l-13.289 46.23-7.594 4.5-30.726.248c-5.062 0-8.437-2.391-9.949-7.1-8.508-31.816-21.3-81.176-31.324-121.5-1.09 35.613-2.812 80.332-4.465 119.566l-.105 2.391-2.355 4.289-5.66 2.145-36.633.211-3.41-8.3 11.5-205.383 8.227-2.637 48.164-.141c4.676 0 7.945 2.215 9.773 6.609 4.887 17.016 22.957 81.316 33.4 123.469 6.363-22.324 15.258-51.68 22.922-76.992 5.7-18.773 10.758-35.508 13.711-45.7l.492-1.09 2.18-3.164 4.957-2.707 52.945-.422 3.727 6.645 8.648 202.043z"/></svg>