<svg xmlns="http://www.w3.org/2000/svg" width="648" height="648" viewBox="0 0 648 648"><title>SMSRefresh</title><path d="M594 73.8H54a18 18 0 0 0-18 18v396a18 18 0 0 0 18 18h90l63.65 123.108a8.991 8.991 0 0 0 16.7 0l46.459-89.851a218.381 218.381 0 0 1 25.875-165.63c-.158-.378-.492-.527-.633-.94-8.508-31.816-21.3-81.176-31.324-121.5-1.09 35.613-2.812 80.332-4.465 119.566l-.105 2.391-2.355 4.289-5.66 2.145-36.633.211-3.41-8.3 11.5-205.383 8.227-2.637 48.164-.141c4.676 0 7.945 2.215 9.773 6.609 4.887 17.016 22.957 81.316 33.4 123.469 6.363-22.324 15.258-51.68 22.922-76.992 5.7-18.773 10.758-35.508 13.711-45.7l.492-1.09 2.18-3.164 4.957-2.707 52.945-.422 3.727 6.645 4.465 104.414a220.452 220.452 0 0 1 37.969-6.812c-11.443-11.848-17.4-25.523-17.4-42.935 0-39.129 29.637-64.406 75.551-64.406 20.18 0 36.984 3.023 47.355 8.578 2.391.914 5.66 3.586 5.66 10.055v35.191l-7.242 2.6-4.359-.281c-11.32-6.574-25.629-9.633-41.414-9.633-7.98 0-26.543 1.477-26.543 15.152 0 6.012 1.969 12.3 25.559 23.168l11.039 4.887c23.52 10.806 37.688 23.1 45.563 37.942a220.936 220.936 0 0 1 31.7 18.17V91.8a18 18 0 0 0-18-18zM119.883 382.4c-21.656 0-40.852-3.9-54.105-11.039-5.66-3.41-5.66-8.93-5.66-11V323.2l7.313-2.32c19.828 10.23 36.809 15.258 53.4 15.258 12.375 0 27.176-2.848 27.176-16.348 0-6.047-1.969-12.9-25.383-24.469l-13.043-5.73c-34.7-16.277-49.465-35.754-49.465-65.145 0-39.129 29.637-64.406 75.551-64.406 20.215 0 37.02 3.023 47.355 8.578 2.391.914 5.66 3.586 5.66 10.055v35.191l-7.242 2.6-4.359-.281c-11.25-6.609-25.559-9.633-41.414-9.633-7.98 0-26.543 1.477-26.543 15.152 0 6.012 1.969 12.3 25.559 23.168l11.039 4.887c37.3 17.121 53.156 37.125 53.156 66.937.001 39.938-31.007 65.706-78.995 65.706zm245.3-79.989c4.869-3.182 9.791-6.275 14.906-9.07a7885.386 7885.386 0 0 1-.4-41.722c-4.501 15.989-9.511 33.461-14.503 50.793z"/><path d="M487.8 602.342c-34.088 0-63.143-13.37-84.924-37.782l41.076-41.16H327.6v116.589l44.57-44.654C401.242 627.61 442.387 648 487.8 648c85.176 0 154.594-70.755 160.2-160.2h-40.589c-5.597 64.08-56.868 114.542-119.611 114.542zM604.534 380.261C575.427 349.076 532.178 327.6 487.8 327.6c-85.176 0-154.594 70.755-160.2 160.2h40.589c5.6-64.08 56.868-114.544 119.611-114.544 40.85 0 65.333 15.823 86.705 37.673L534.09 452.2H648V335.876z"/></svg>