<svg xmlns="http://www.w3.org/2000/svg" data-name="S_SortOrderDown_18_N@2x" height="36" id="S_SortOrderDown_18_N_2x" viewBox="0 0 36 36" width="36"><defs><style>.fill{fill:#707070}</style></defs><title>S_SortOrderDown_18_N@2x</title><path class="fill" d="M32 9.044v15h2.565a.431.431 0 0 1 .262.724l-3.971 3.955a.5.5 0 0 1-.706 0l-3.963-3.954a.431.431 0 0 1 .262-.724h2.565l.006-15a1 1 0 0 1 1-1h.993a.988.988 0 0 1 .987.999z"/><rect class="fill" height="4" rx="1" ry="1" width="12" x="2" y="24"/><rect class="fill" height="4" rx="1" ry="1" width="16" x="2" y="16"/><rect class="fill" height="4" rx="1" ry="1" width="20" x="2" y="8"/></svg>