<svg xmlns="http://www.w3.org/2000/svg" width="648" height="648" viewBox="0 0 648 648"><title>Spam</title><path d="M486 325.8A160.2 160.2 0 1 0 646.2 486 160.2 160.2 0 0 0 486 325.8zM360 486c0-28.936 10.143-55.263 26.543-76.535l175.992 175.992C541.266 601.855 514.934 612 486 612a126 126 0 0 1-126-126zm225.457 76.535L409.465 386.543C430.734 370.145 457.066 360 486 360a126 126 0 0 1 126 126c0 28.936-10.143 55.263-26.543 76.535zM324 327.38L648 83.967V57c0-11.593-9.066-21-20.25-21H20.25C9.068 36.005 0 45.41 0 57v26.44zM200.971 286.88L0 135.207v300.301L200.971 286.88zM264.6 486a220.409 220.409 0 0 1 37.652-123.539c-.457-.319-1.02-.426-1.477-.769l-65.3-48.937L0 487.226V519c0 11.6 9.07 21 20.25 21h251.262a221.028 221.028 0 0 1-6.912-54zM486 264.6c64.055 0 121.57 27.363 162 70.84v-199.7L475.62 265.122c3.463-.16 6.873-.522 10.38-.522z"/></svg>