<svg xmlns="http://www.w3.org/2000/svg" width="648" height="648" viewBox="0 0 648 648"><title>Spellcheck</title><path d="M605.054 204.188L578.859 183.8a18 18 0 0 0-25.263 3.148l-245.364 315.3-119.646-119.024a18 18 0 0 0-25.455 0l-23.841 23.841a18.012 18.012 0 0 0-.008 25.465l160.663 160.208a18 18 0 0 0 26.942-1.666L608.2 229.453a18.005 18.005 0 0 0-3.146-25.265z"/><path d="M521.578 123.961c-6.223-2.672-16.453-4.289-32.1-4.289-55.3 0-90.879 37.2-90.879 91.16 0 35.455 13.377 59.458 33.346 73.819l19.3-24.794c-11.795-9.747-20.3-25.62-20.3-50.115 0-38.285 22.922-62.051 58.254-62.051 12.973 0 24.293 1.9 31.852 5.7 1.055.246 2.145.246 2.145-1.9v-24.542a2.891 2.891 0 0 0-1.618-2.988zM346.254 203.52c7-5.1 16.98-16.172 16.98-35.332 0-17.262-8.895-46.371-62.3-46.371-17.543 0-40.465.527-49.078.809-1.371.281-1.617 1.09-1.617 2.426v171.28a2.051 2.051 0 0 0 1.617 2.145c9.7.281 27.246.527 48.27.527 43.172.281 71.754-20.215 71.754-53.93.003-24.82-15.396-36.668-25.626-41.554zm-65.531-54.457c5.1 0 11.6-.281 19.406-.281 21.023 0 32.625 7.84 32.625 23.73 0 11.074-4.289 17.262-10.23 21.867a196.458 196.458 0 0 0-22.676-1.371h-19.125v-43.945zm18.6 123.5c-7.277 0-12.937-.246-18.6-.527v-52.063h22.359a68.922 68.922 0 0 1 17.543 1.9c13.219 3.516 18.879 12.41 18.879 24.012-.004 18.595-16.172 26.681-40.184 26.681zM164.742 122.344H128.6a1.636 1.636 0 0 0-1.617 1.9c-.281 8.613-1.09 11.32-2.145 14.027L73.3 296.051c-.527 1.617 0 2.426 1.617 2.426h25.91a2.618 2.618 0 0 0 2.707-1.9l14.027-45.316h59.309l14.836 45.6a2.371 2.371 0 0 0 2.426 1.617H223c1.617 0 1.9-.809 1.617-2.145l-57.976-172.372c-.282-1.336-.809-1.617-1.899-1.617zm-39.375 100.617c7.559-24.82 17.262-56.109 21.586-74.18h.247c4.605 19.16 16.734 56.109 21.867 74.18h-43.7z"/></svg>