<svg xmlns="http://www.w3.org/2000/svg" width="648" height="648" viewBox="0 0 648 648"><title>Spin</title><path d="M432 270v54.971c-123.049 3.328-137.413 4.576-173.672-.694-56.474-8.125-123.072-35.416-125.139-71.42-2.569-36.937 37.263-74.324 92.109-92.764 19.578-6.879 41.1-11.22 62.7-13.693V288h72V54a18 18 0 0 0-18-18H306a18 18 0 0 0-18 18v54.4c-25.752 1.59-50.142 4.813-75.006 12.089-66.416 19.467-130.47 65.377-129.973 134.9 1.36 72.9 93.36 113.232 164.971 128.382 41.262 8.28 56.858 7.815 184.008 11.254V450a9 9 0 0 0 14.4 7.2L576 360l-129.6-97.2A9 9 0 0 0 432 270z"/><path d="M412.207 144a19.8 19.8 0 1 0-19.807-19.8 19.8 19.8 0 0 0 19.807 19.8zM485.42 152.468a19.8 19.8 0 1 0-19.811-19.8 19.794 19.794 0 0 0 19.811 19.8zM556.207 180a19.8 19.8 0 1 0-19.807-19.8 19.8 19.8 0 0 0 19.807 19.8zM288 594a18 18 0 0 0 18 18h36a18 18 0 0 0 18-18V432h-72v162z"/></svg>