<svg xmlns="http://www.w3.org/2000/svg" width="648" height="648" viewBox="0 0 648 648"><title>Stamp_18</title><path d="M454.909 276c0-26.508-21.981-48-49.091-48s-49.091 21.492-49.091 48v96c0 26.508 21.981 48 49.091 48s49.091-21.492 49.091-48v-96z"/><path d="M648 100V72h-84.343c0 36.149-14.326 39.27-31.992 39.27s-32.01-3.12-32.01-39.27h-73.763c0 36.149-14.335 39.27-32 39.27s-32-3.12-32-39.27h-74.471c0 36.149-14.326 39.27-32 39.27s-31.992-3.12-31.992-39.27h-76.552c0 36.149-14.326 39.27-32 39.27s-32-3.12-32-39.27H0v28c36.149 0 39.27 14.326 39.27 32S36.149 164 0 164v64c36.149 0 39.27 14.331 39.27 32S36.149 292 0 292v64c36.149 0 39.27 14.326 39.27 32S36.149 420 0 420v64c36.149 0 39.27 14.326 39.27 32S36.149 548 0 548v28h82.533c0-36.149 14.326-39.27 32-39.27s32 3.12 32 39.27h75.82c0-36.149 14.326-39.27 31.992-39.27s32 3.12 32 39.27h77.3c0-36.149 14.326-39.27 32-39.27s32 3.12 32 39.27h69.907c0-36.149 14.335-39.27 32.01-39.27s31.992 3.12 31.992 39.27H648v-28c-36.149 0-32.73-14.326-32.73-32s-3.419-32 32.73-32v-64c-36.149 0-39.27-14.326-39.27-32s3.12-32 39.27-32v-64c-36.149 0-39.27-14.326-39.27-32s3.12-32 39.27-32v-64c-36.149 0-39.27-14.331-39.27-32s3.121-32 39.27-32zM291.27 276c0-61.853 51.284-112 114.548-112s114.548 50.146 114.548 112v96c0 61.857-51.284 112-114.548 112S291.27 433.854 291.27 372v-96zM127.635 164h98.183v320h-65.453V228h-32.73v-64z"/></svg>