<svg xmlns="http://www.w3.org/2000/svg" width="648" height="648" viewBox="0 0 648 648"><title>StarStroke_18</title><path d="M325.063 91.472l63.971 171.1 183.946 8.662-143.542 115.287 48.081 176.884L323.9 463.175 169.862 564.249l48.656-177.71L74.993 271.375l183.568-8.811zm.4-76.654a13.282 13.282 0 0 0-12.577 8.609l-79.414 204.3-219.533 10.536a13.5 13.5 0 0 0-7.8 24.016l171.418 137.549-58.136 212.321a13.538 13.538 0 0 0 13.047 17.112 13.354 13.354 0 0 0 7.379-2.261l184.109-120.8 183.406 119.665a13.354 13.354 0 0 0 7.352 2.241 13.536 13.536 0 0 0 13.052-17.09L470.36 399.828l171.51-137.751a13.5 13.5 0 0 0-7.818-24.007l-219.613-10.345L338.12 23.594a13.293 13.293 0 0 0-12.652-8.776z"/></svg>