<svg xmlns="http://www.w3.org/2000/svg" width="648" height="648" viewBox="0 0 648 648"><title>Starburst</title><path d="M325.879 59.845l45.364 127.565 122.279-58.125a9 9 0 0 1 11.992 11.992l-58.125 122.279 127.565 45.364a9 9 0 0 1 0 16.96l-127.565 45.363 58.125 122.279a9 9 0 0 1-11.992 11.992l-122.279-58.125-45.364 127.565a9 9 0 0 1-16.96 0l-45.363-127.565-122.279 58.125a9 9 0 0 1-11.992-11.992l58.125-122.279-127.565-45.364a9 9 0 0 1 0-16.96l127.565-45.363-58.125-122.279a9 9 0 0 1 11.992-11.992l122.279 58.125L308.92 59.845a9 9 0 0 1 16.959 0z"/></svg>