<svg xmlns="http://www.w3.org/2000/svg" data-name="S_Straighten_18_N@2x" height="36" id="S_Straighten_18_N_2x" viewBox="0 0 36 36" width="36"><defs><style>.fill{fill:#707070}</style></defs><title>S_Straighten_18_N@2x</title><circle class="fill" cx="7" cy="11" r="1.3"/><circle class="fill" cx="27" cy="11" r="1.3"/><circle class="fill" cx="17" cy="5" r="1.3"/><circle class="fill" cx="11" cy="7" r="1.3"/><circle class="fill" cx="23" cy="7" r="1.3"/><path class="fill" d="M6 14H.5a.5.5 0 0 0-.5.5v11a.5.5 0 0 0 .5.5H6zM33.5 14H28v12h5.5a.5.5 0 0 0 .5-.5v-11a.5.5 0 0 0-.5-.5zM17 18c1.807 0 4.983-1 4.983-2.983L21.965 14H12v1.041C12 17 15.18 18 17 18z"/><path class="fill" d="M24.1 14v1c0 3-3.234 5.1-7.1 5.1S9.9 18 9.9 15v-1H8v12h18V14z"/><g><path class="fill" d="M17 18c1.807 0 4.983-1 4.983-2.983L21.965 14H12v1.041C12 17 15.18 18 17 18z"/><path class="fill" d="M24.1 14v1c0 3-3.234 5.1-7.1 5.1S9.9 18 9.9 15v-1H8v12h18V14z"/></g></svg>