<svg xmlns="http://www.w3.org/2000/svg" data-name="S_Subscribe_18_N@2x" height="36" id="S_Subscribe_18_N_2x" viewBox="0 0 36 36" width="36"><defs><style>.fill{fill:#707070}</style></defs><title>S_Subscribe_18_N@2x</title><path class="fill" d="M24.779 21.963L36 30.367V13.541l-11.221 8.422zM22.866 23.4l-3.576 2.694a2.171 2.171 0 0 1-2.58 0l-3.628-2.719L0 33.068A.981.981 0 0 0 1 34h34a.883.883 0 0 0 1-.756zM11.165 21.938L0 13.511v16.684l11.165-8.257z"/><path class="fill" d="M19.067.672a2 2 0 0 0-2.134 0L0 11.365V14h6V9a1 1 0 0 1 1-1h22a1 1 0 0 1 1 1v5h6v-2.665z"/><rect class="fill" height="2" rx=".5" ry=".5" width="16" x="10" y="12"/><path class="fill" d="M21.83 20h-7.66a.5.5 0 0 1-.3-.1l-1.883-1.448a.25.25 0 0 1 .148-.452h11.73a.25.25 0 0 1 .152.448L22.135 19.9a.5.5 0 0 1-.305.1z"/></svg>