<svg xmlns="http://www.w3.org/2000/svg" width="648" height="648" viewBox="0 0 648 648"><title>SuccessMetric</title><rect x="72" y="468" width="144" height="144" rx="18" ry="18"/><rect x="252" y="180" width="144" height="432" rx="18" ry="18"/><rect x="432" y="396" width="144" height="216" rx="18" ry="18"/><path d="M216 288h-99a9 9 0 0 1-9-9v-18a9 9 0 0 1 9-9h99v36zM139.815 112.852L216 161.622l-19.409 30.32-76.185-48.77a9 9 0 0 1-2.728-12.432l9.7-15.16a9 9 0 0 1 12.437-2.728zM299.338 144L265.21 36.527a4.5 4.5 0 0 0-5.651-2.927l-25.734 8.174a4.5 4.5 0 0 0-2.927 5.651L261.58 144h37.758zM432 288h99a9 9 0 0 0 9-9v-18a9 9 0 0 0-9-9h-99v36zM508.185 112.852L432 161.622l19.409 30.32 76.185-48.77a9 9 0 0 0 2.728-12.432l-9.7-15.16a9 9 0 0 0-12.437-2.728zM348.662 144L382.79 36.527a4.5 4.5 0 0 1 5.651-2.927l25.734 8.174a4.5 4.5 0 0 1 2.927 5.651L386.42 144h-37.758z" fill-rule="evenodd"/></svg>