<svg xmlns="http://www.w3.org/2000/svg" width="648" height="648" viewBox="0 0 648 648"><title>SyncRemove</title><path d="M396 234V126a18 18 0 0 0-18-18H180V21.727a9 9 0 0 0-15.363-6.363L0 180l95.941 95.941a221.407 221.407 0 0 1 64.266-9.545c6.68 0 13.254.422 19.793 1V252h198a18 18 0 0 0 18-18zm87.363-2.637A9 9 0 0 0 468 237.727V324H308.777A220.554 220.554 0 0 1 380.6 468H468v86.273a9 9 0 0 0 15.363 6.363L648 396zM160.2 327.6a160.2 160.2 0 1 0 160.2 160.2 160.2 160.2 0 0 0-160.2-160.2zm104.861 220.8a9 9 0 0 1 0 12.727l-31.535 31.535a9 9 0 0 1-12.727 0l-60.6-60.6-60.6 60.6a9 9 0 0 1-12.727 0l-31.536-31.535a9 9 0 0 1 0-12.727l60.6-60.6-60.6-60.6a9 9 0 0 1 0-12.729l31.535-31.533a9 9 0 0 1 12.727 0l60.6 60.6 60.6-60.6a9 9 0 0 1 12.727 0l31.535 31.533a9 9 0 0 1 0 12.729l-60.6 60.6z"/></svg>