<svg xmlns="http://www.w3.org/2000/svg" width="648" height="648" viewBox="0 0 648 648"><title>TableColumnAddLeft_18</title><path d="M162 325.8A160.2 160.2 0 1 0 322.2 486 160.2 160.2 0 0 0 162 325.8zM252 495a9 9 0 0 1-9 9h-63v63a9 9 0 0 1-9 9h-18a9 9 0 0 1-9-9v-63H81a9 9 0 0 1-9-9v-18a9 9 0 0 1 9-9h63v-63a9 9 0 0 1 9-9h18a9 9 0 0 1 9 9v63h63a9 9 0 0 1 9 9v18z"/><path d="M594 36H54a18 18 0 0 0-18 18v250.066a220.564 220.564 0 0 1 216-20.228V252h144v144h-31.834a219.73 219.73 0 0 1 12.322 36H396v144h-31.834a221.9 221.9 0 0 1-20.232 36H594a18 18 0 0 0 18-18V54a18 18 0 0 0-18-18zM396 216H252V72h144v144zm180 360H432V432h144v144zm0-180H432V252h144v144zm0-180H432V72h144v144z"/></svg>