<svg xmlns="http://www.w3.org/2000/svg" width="648" height="648" viewBox="0 0 648 648"><title>TableRowRemoveCenter_18</title><path d="M646.2 342A160.2 160.2 0 1 0 486 502.2 160.2 160.2 0 0 0 646.2 342zm-70.2 9a9 9 0 0 1-9 9H405a9 9 0 0 1-9-9v-18a9 9 0 0 1 9-9h162a9 9 0 0 1 9 9v18z"/><path d="M36 54v576a18 18 0 0 0 18 18h540a18 18 0 0 0 18-18V523.934a220.222 220.222 0 0 1-35.956 20.206s-.026.018-.044.026V612H432v-55.512a219.552 219.552 0 0 1-35.974-12.313l-.026-.009V612H252V468h59.538a220.1 220.1 0 0 1-32.555-72H108V288h170.984a220.1 220.1 0 0 1 32.555-72H252V72h144v67.834l.026-.009A219.552 219.552 0 0 1 432 127.512V72h144v67.834a.109.109 0 0 1 .026.018A220.35 220.35 0 0 1 612 160.066V54a18 18 0 0 0-18-18H54a18 18 0 0 0-18 18zm180 414v144H72V468h144zm0-396v144H72V72h144z"/></svg>