<svg xmlns="http://www.w3.org/2000/svg" width="648" height="648" viewBox="0 0 648 648"><title>TableRowAddBottom_18</title><path d="M325.8 486A160.2 160.2 0 1 0 486 325.8 160.2 160.2 0 0 0 325.8 486zm70.2-9a9 9 0 0 1 9-9h63v-63a9 9 0 0 1 9-9h18a9 9 0 0 1 9 9v63h63a9 9 0 0 1 9 9v18a9 9 0 0 1-9 9h-63v63a9 9 0 0 1-9 9h-18a9 9 0 0 1-9-9v-63h-63a9 9 0 0 1-9-9v-18z"/><path d="M264.6 486a220.36 220.36 0 0 1 19.23-90H252V252h144v31.834a219.73 219.73 0 0 1 36-12.322V252h144v31.834a221.053 221.053 0 0 1 36 20.232V54a18 18 0 0 0-18-18H54a18 18 0 0 0-18 18v540a18 18 0 0 0 18 18h250.066A220.212 220.212 0 0 1 264.6 486zM432 72h144v144H432V72zm-180 0h144v144H252V72zm-36 324H72V252h144v144zm0-180H72V72h144v144z"/></svg>