<svg xmlns="http://www.w3.org/2000/svg" width="648" height="648" viewBox="0 0 648 648"><title>TableAndChart_18</title><path d="M594 360H54a18 18 0 0 0-18 18v216a18 18 0 0 0 18 18h540a18 18 0 0 0 18-18V378a18 18 0 0 0-18-18zM216 576H72v-72h144v72zm0-108H72v-72h144v72zm360 108H252v-72h324v72zm0-108H252v-72h324v72z"/><rect x="468" y="36" width="144" height="288" rx="18" ry="18"/><rect x="252" y="144" width="144" height="180" rx="18" ry="18"/><rect x="36" y="216" width="144" height="108" rx="18" ry="18"/></svg>