<svg xmlns="http://www.w3.org/2000/svg" width="648" height="648" viewBox="0 0 648 648"><title>TableRowAddTop_18</title><path d="M486 322.2A160.2 160.2 0 1 0 325.8 162 160.2 160.2 0 0 0 486 322.2zM396 153a9 9 0 0 1 9-9h63V81a9 9 0 0 1 9-9h18a9 9 0 0 1 9 9v63h63a9 9 0 0 1 9 9v18a9 9 0 0 1-9 9h-63v63a9 9 0 0 1-9 9h-18a9 9 0 0 1-9-9v-63h-63a9 9 0 0 1-9-9v-18z"/><path d="M304.066 36H54a18 18 0 0 0-18 18v540a18 18 0 0 0 18 18h540a18 18 0 0 0 18-18V343.934a221.053 221.053 0 0 1-36 20.232V396H432v-19.512a219.73 219.73 0 0 1-36-12.322V396H252V252h31.834a220.613 220.613 0 0 1 20.232-216zM432 432h144v144H432V432zm-180 0h144v144H252V432zm-36-36H72V252h144v144zm0 180H72V432h144v144z"/></svg>