<svg xmlns="http://www.w3.org/2000/svg" width="648" height="648" viewBox="0 0 648 648"><title>TableColumnRemoveCenter_18</title><path d="M145.8 486A160.2 160.2 0 1 0 306 325.8 160.2 160.2 0 0 0 145.8 486zm70.2-9a9 9 0 0 1 9-9h162a9 9 0 0 1 9 9v18a9 9 0 0 1-9 9H225a9 9 0 0 1-9-9v-18z"/><path d="M594 36H18A18 18 0 0 0 0 54v540a18 18 0 0 0 18 18h106.066a220.222 220.222 0 0 1-20.206-35.956.109.109 0 0 0-.018-.026L36 576V432h55.512a219.552 219.552 0 0 1 12.313-35.974.027.027 0 0 0 .009-.018L36 396V252h144v59.538a220.1 220.1 0 0 1 72-32.555V108h108v170.984a220.1 220.1 0 0 1 72 32.555V252h144v144h-67.834a.043.043 0 0 0 .009.026A219.552 219.552 0 0 1 520.488 432H576v144h-67.834s-.018.026-.026.044A220.222 220.222 0 0 1 487.934 612H594a18 18 0 0 0 18-18V54a18 18 0 0 0-18-18zM180 216H36V72h144v144zm396 0H432V72h144v144z"/></svg>