<svg xmlns="http://www.w3.org/2000/svg" width="648" height="648" viewBox="0 0 648 648"><title>TableEdit_18</title><path d="M311.247 511.893a64.55 64.55 0 0 1 3.621-7.893H216v-72h165.006l36-36H216v-72h273.006l32.915-32.911c1.151-1.156 2.5-2.026 3.718-3.089H216v-72h324v62.231a63.935 63.935 0 0 1 26.974-7.334l2.074-.11h1.652c1.8 0 3.524.374 5.3.514V54a18 18 0 0 0-18-18H54a18 18 0 0 0-18 18v468a18 18 0 0 0 18 18h247.746zM72 72h468v108H72V72zm108 432H72v-72h108v72zm0-108H72v-72h108v72zm0-108H72v-72h108v72zM643.29 391.758l-63.105-63.105a13.3 13.3 0 0 0-9.484-3.865s-.281 0-.421.005a15.009 15.009 0 0 0-10.148 4.447l-183.4 183.4a10.918 10.918 0 0 0-2.749 4.609L326.094 636.6c-1.247 4.121 5.026 9.311 8.571 9.311a5.458 5.458 0 0 0 .671-.069c3.025-.7 103.6-43.145 119.417-47.9a10.739 10.739 0 0 0 4.535-2.726L642.7 411.808a15.044 15.044 0 0 0 4.426-9.669 13.374 13.374 0 0 0-3.836-10.381zM445.836 577.706c-23.652 7.109-70.706 33.524-91.141 39.623l39.473-91.161z"/></svg>