<svg xmlns="http://www.w3.org/2000/svg" width="648" height="648" viewBox="0 0 648 648"><title>Tableau_18</title><path d="M432 297h-81v-81h-54v81h-81v54h81v81h54v-81h81v-54zM378 67.5h-40.5V27h-27v40.5H270v27h40.5V135h27V94.5H378v-27zM378 553.5h-40.5V513h-27v40.5H270v27h40.5V621h27v-40.5H378v-27zM621 310.5h-40.5V270h-27v40.5H513v27h40.5V378h27v-40.5H621v-27zM135 310.5H94.5V270h-27v40.5H27v27h40.5V378h27v-40.5H135v-27zM561.601 147.147h-60.748V86.399H460.35v60.748h-60.749v40.503h60.749v60.749h40.503V187.65h60.748v-40.503zM248.399 147.147H187.65V86.399h-40.503v60.748H86.399v40.503h60.748v60.749h40.503V187.65h60.749v-40.503zM561.601 460.35h-60.748v-60.749H460.35v60.749h-60.749v40.503h60.749v60.748h40.503v-60.748h60.748V460.35zM248.399 460.35H187.65v-60.749h-40.503v60.749H86.399v40.503h60.748v60.748h40.503v-60.748h60.749V460.35z"/></svg>