<svg xmlns="http://www.w3.org/2000/svg" width="648" height="648" viewBox="0 0 648 648"><title>TagExclude_18</title><path d="M264.6 487.8c0-122.276 99.127-221.4 221.4-221.4a220.635 220.635 0 0 1 85.57 17.183L329.273 41.265a18.018 18.018 0 0 0-12.727-5.273H54a18 18 0 0 0-18 18v262.546a18.012 18.012 0 0 0 5.273 12.731L279.7 567.694a220.5 220.5 0 0 1-15.1-79.894zM144 190.8a46.806 46.806 0 1 1 46.793-46.811A46.806 46.806 0 0 1 144 190.8z"/><path d="M486 325.8A160.2 160.2 0 1 0 646.2 486 160.2 160.2 0 0 0 486 325.8zM360 486c0-28.936 10.143-55.263 26.543-76.535l175.992 175.992C541.266 601.855 514.934 612 486 612a126 126 0 0 1-126-126zm225.457 76.535L409.465 386.543C430.734 370.145 457.066 360 486 360a126 126 0 0 1 126 126c0 28.936-10.143 55.263-26.543 76.535z"/></svg>