<svg xmlns="http://www.w3.org/2000/svg" width="648" height="648" viewBox="0 0 648 648"><title>Tags_18</title><path d="M599.27 275.267l-270-270A18 18 0 0 0 316.541 0H90a18 18 0 0 0-18 18v226.541a18.015 18.015 0 0 0 5.27 12.73l270 270a18.008 18.008 0 0 0 25.459 0L599.27 300.722a18 18 0 0 0 0-25.455zM180 154.8a46.805 46.805 0 1 1 46.8-46.8 46.806 46.806 0 0 1-46.8 46.8z"/><path d="M599.274 387.122L585 372.856l-212.274 212.27a18 18 0 0 1-25.452 0l-270-270A17.991 17.991 0 0 1 72 302.4v54a18.02 18.02 0 0 0 5.274 12.737l270 270a18.012 18.012 0 0 0 25.452 0l226.548-226.552a18.006 18.006 0 0 0 0-25.463z"/></svg>