<svg xmlns="http://www.w3.org/2000/svg" width="648" height="648" viewBox="0 0 648 648"><title>Teapot_18</title><path d="M468.844 198c-32.66-31.535-74.25-52.141-120.146-56.457 9.387-7.418 15.8-18.4 15.8-31.293a40.5 40.5 0 0 0-81 0c0 13.9 7.453 25.554 18.105 32.849-41.432 6.4-78.979 25.958-108.949 54.9h276.19zM500.748 252H152.543c-11.021 21.3-20.057 47.848-25.541 74.856-.158-.044-.475.009-.6-.044-23.361-9.659-20.215-17.6-40.131-69.363-11.461-29.812-47.707-33.592-60.891-36.6a13.28 13.28 0 0 0-14.766 7.361l-8.03 16.056c-3.533 7.269-.334 18.053 7.734 18.606 12.9.883 21.006 8.367 23.115 13.408 5.309 12.713 7.506 24.675 9.861 37.349 3.885 21.19 7.436 60.6 28.441 87.021 16.857 21.2 39.533 32.827 59.2 40.043 15.557 55.617 49.605 102.362 94.57 131.128A27.571 27.571 0 0 0 240.346 576h180.808a27.571 27.571 0 0 0 14.836-4.179c40.113-25.664 71.543-65.646 88.945-113.44 1.758-.633 3.533-1.235 5.186-1.942 21.621-9.229 42.469-20.87 60.8-35.71 33.117-26.82 53.982-68.313 52.594-111.463-2.494-77.687-90.085-109.499-142.767-57.266zm75.709 127.635c-10.9 11.637-24.574 20.641-38.988 28.31A252.277 252.277 0 0 0 540 373.5c0-28.749-6.328-59.691-15.926-87.328 15.592-17.543 45.7-29.58 65.689-11.347 28.846 26.306 8.667 81.33-13.306 104.81z"/></svg>