<svg xmlns="http://www.w3.org/2000/svg" width="648" height="648" viewBox="0 0 648 648"><title>TestABEdit_18</title><path d="M86.742 320.076l-23.553 71.748c-.856 2.609-2.141 3.479-4.71 3.479H15.656c-2.569 0-3.426-1.3-3-4.348l88.215-254.812c1.713-4.348 3-8.7 3.854-23.481 0-1.739.856-3.044 2.569-3.044h59.526c2.141 0 2.569.435 3 2.609l98.92 279.163c.428 2.609 0 3.913-2.569 3.913h-47.964a4.292 4.292 0 0 1-4.282-2.609l-24.837-72.617H86.742zm88.643-47.4c-8.993-28.7-29.119-89.141-37.684-119.579h-.428c-6.852 29.134-23.981 80.009-36.827 119.579h74.939zM315.872 411.826c-.428 1.739-1.285 2.174-3 2.174h-35.541c-2.141 0-2.569-.87-2.141-2.609l84.36-318.732c.429-1.739.857-1.739 2.569-1.739h35.971c1.713 0 2.141.435 1.713 2.174zM482.959 345.318v-76.553h38.971c11.566 0 21.41.87 29.127 3.045a43.5 43.5 0 0 1 18.756 9.857c16.559.171 30.533 6 41.027 16.545l22.746 22.755a83.753 83.753 0 0 0 1.406-12.63c0-40.008-25.277-59.142-41.115-67.4 10.705-7.822 26.982-25.655 26.982-56.527 0-27.831-13.711-75.661-103.219-75.661-28.687 0-67.658.87-83.074 1.305-2.145.435-2.566 1.736-2.566 3.916v277.855c0 1.2 1.107 1.749 2.074 2.391zm0-191.351c9 0 20.127-.431 33.838-.431 35.1 0 53.947 12.608 53.947 38.263 0 16.958-7.277 26.96-16.26 34.352-6.434-1.305-23.555-2.61-38.971-2.61h-32.554v-69.574z"/><path d="M643.29 391.758l-63.105-63.105a13.3 13.3 0 0 0-9.484-3.865s-.281 0-.421.005a15.009 15.009 0 0 0-10.148 4.447l-194.8 194.8a10.918 10.918 0 0 0-2.749 4.609L326.094 636.6c-1.247 4.121 5.026 9.311 8.571 9.311a5.458 5.458 0 0 0 .671-.069c3.025-.7 92.209-31.752 108.024-36.507a10.739 10.739 0 0 0 4.535-2.726L642.7 411.808a15.044 15.044 0 0 0 4.426-9.669 13.374 13.374 0 0 0-3.836-10.381zM434.443 589.1c-23.652 7.109-59.313 22.131-79.748 28.23l28.08-79.768z"/></svg>