<svg xmlns="http://www.w3.org/2000/svg" width="648" height="648" viewBox="0 0 648 648"><title>TestABRemove_18</title><path d="M86.742 320.076l-23.553 71.748c-.856 2.609-2.141 3.479-4.71 3.479H15.656c-2.569 0-3.426-1.3-3-4.348l88.215-254.812c1.713-4.348 3-8.7 3.854-23.481 0-1.739.856-3.044 2.569-3.044h59.526c2.141 0 2.569.435 3 2.609l98.92 279.163c.428 2.609 0 3.913-2.569 3.913h-47.964a4.292 4.292 0 0 1-4.282-2.609l-24.837-72.617H86.742zm88.643-47.4c-8.993-28.7-29.119-89.141-37.684-119.579h-.428c-6.852 29.134-23.981 80.009-36.827 119.579h74.939zM277.33 414h.141a221.363 221.363 0 0 1 62.029-91.89l60.3-229.016c.439-1.74 0-2.175-1.705-2.175h-35.968c-1.723 0-2.145 0-2.584 1.74L275.186 411.39c-.422 1.74 0 2.61 2.144 2.61zM486 266.4a222.6 222.6 0 0 1 30.656 2.369h5.273c11.566 0 21.41.87 29.127 3.045 9.6 2.435 16.207 6.732 21.129 11.988a221.064 221.064 0 0 1 61.189 39.111 84.807 84.807 0 0 0 1.617-14.572c0-40.008-25.277-59.142-41.115-67.4 10.705-7.822 26.982-25.655 26.982-56.527 0-27.831-13.711-75.661-103.219-75.661-28.687 0-67.658.87-83.074 1.305-2.145.435-2.566 1.736-2.566 3.916V273.3A221.191 221.191 0 0 1 486 266.4zm-3.041-112.43c9 0 20.127-.431 33.838-.431 35.1 0 53.947 12.608 53.947 38.263 0 16.958-7.277 26.96-16.26 34.352-6.434-1.305-23.555-2.61-38.971-2.61h-32.554v-69.577zM486 325.8A160.2 160.2 0 1 0 646.2 486 160.2 160.2 0 0 0 486 325.8zm104.862 220.8a9 9 0 0 1 0 12.727l-31.535 31.535a9 9 0 0 1-12.727 0l-60.6-60.6-60.6 60.6a9 9 0 0 1-12.727 0l-31.535-31.535a9 9 0 0 1 0-12.727l60.6-60.6-60.6-60.6a9 9 0 0 1 0-12.729l31.535-31.533a9 9 0 0 1 12.727 0l60.6 60.6 60.6-60.6a9 9 0 0 1 12.727 0l31.535 31.533a9 9 0 0 1 0 12.729l-60.6 60.6z"/></svg>