<svg xmlns="http://www.w3.org/2000/svg" width="648" height="648" viewBox="0 0 648 648"><title>TestAB_18</title><path d="M86.742 392.076l-23.553 71.748c-.856 2.609-2.141 3.479-4.71 3.479H15.656c-2.569 0-3.426-1.3-3-4.348l88.215-254.812c1.713-4.348 3-8.7 3.854-23.481 0-1.739.856-3.044 2.569-3.044h59.526c2.141 0 2.569.435 3 2.609l98.92 279.163c.428 2.609 0 3.913-2.569 3.913h-47.964a4.292 4.292 0 0 1-4.282-2.609l-24.837-72.617H86.742zm88.643-47.4c-8.993-28.7-29.119-89.141-37.684-119.579h-.428c-6.852 29.134-23.981 80.009-36.827 119.579h74.939zM315.872 483.826c-.428 1.739-1.285 2.174-3 2.174h-35.541c-2.141 0-2.569-.87-2.141-2.609l84.36-318.732c.429-1.739.857-1.739 2.569-1.739h35.971c1.713 0 2.141.435 1.713 2.174zM432 185.965c0-2.174.428-3.479 2.569-3.913 15.416-.435 54.385-1.3 83.076-1.3 89.5 0 103.2 47.832 103.2 75.661 0 30.873-16.273 48.7-26.978 56.528 15.845 8.262 41.11 27.394 41.11 67.4 0 54.789-46.677 87.836-117.334 87.836-37.256 0-66.375-.435-82.648-.87a3.3 3.3 0 0 1-3-3.479V185.965zm50.959 109.578h32.545c15.416 0 32.545 1.3 38.969 2.609 8.993-7.392 16.273-17.393 16.273-34.352 0-25.655-18.842-38.265-53.956-38.265-13.7 0-24.837.435-33.83.435v69.573zm0 127.841c9.421.435 20.127.87 32.974.87 40.253.435 65.946-13.48 65.946-42.614 0-17.828-8.564-32.178-30.832-37.83-7.708-2.174-17.557-3.044-29.12-3.044h-38.965v82.618z"/></svg>