<svg xmlns="http://www.w3.org/2000/svg" width="648" height="648" viewBox="0 0 648 648"><title>TestProfile_18</title><path d="M636.082 581.37L429.557 374.84A214.836 214.836 0 0 0 468 252c0-119.294-96.715-216-216-216S36 132.706 36 252s96.715 216 216 216a214.81 214.81 0 0 0 122.836-38.439l206.525 206.525c14.063 14.058 37.459 13.469 52.822-1.9 15.381-15.379 15.962-38.753 1.899-52.816zM72 252a180 180 0 0 1 360 0c0 42.328-15.223 80.723-39.674 111.458-9.053-24.183-32.7-53.583-89.209-59.322-7.242-.738-12.111-7.348-12.111-14.041v-20.266a14.044 14.044 0 0 1 3.568-9.048c15.012-17.807 24.346-42.9 24.346-66.788 0-50.546-26.807-78.794-67.324-78.794-40.5 0-68.062 29.355-68.062 78.794 0 23.893 10.477 48.981 25.506 66.788a14.044 14.044 0 0 1 3.568 9.048V290c0 6.715-4.9 13.421-12.146 14.054-57.551 5-80.648 34.277-89.314 58.772C87.012 332.191 72 294.029 72 252z"/></svg>