<svg xmlns="http://www.w3.org/2000/svg" width="648" height="648" viewBox="0 0 648 648"><title>TestABGear_18</title><path d="M87.241 320.076l-23.553 71.748c-.856 2.609-2.141 3.479-4.71 3.479H16.155c-2.569 0-3.426-1.3-3-4.348l88.215-254.812c1.713-4.348 3-8.7 3.854-23.481 0-1.739.856-3.044 2.569-3.044h59.523c2.141 0 2.569.435 3 2.609l98.92 279.163c.428 2.609 0 3.913-2.569 3.913h-47.961a4.292 4.292 0 0 1-4.282-2.609l-24.837-72.617H87.241zm88.643-47.4c-8.993-28.7-29.119-89.141-37.684-119.579h-.428c-6.852 29.134-23.981 80.009-36.827 119.579h74.939zM300.03 332.807c.158-.031 4.148-5.66 6.961-8.42l17.965-17.987a54.507 54.507 0 0 1 22.711-13.443L400.3 93.094c.439-1.74 0-2.175-1.705-2.175h-35.969c-1.723 0-2.145 0-2.584 1.74 0 0-62.719 240.675-60.012 240.148zM456.616 252.264h23.8a54.75 54.75 0 0 1 39.111 16.5h2.9c11.566 0 21.41.87 29.127 3.045 13.465 3.419 21.428 10.266 26.016 18.9a54.6 54.6 0 0 1 34.4 15.592l18.141 18.141c1.2 1.191 1.635 2.76 2.689 4.025a80.657 80.657 0 0 0 2.689-20.127c0-40.008-25.277-59.142-41.115-67.4 10.705-7.822 26.982-25.655 26.982-56.527 0-27.831-13.711-75.661-103.219-75.661-28.687 0-67.658.87-83.074 1.305-2.145.435-2.566 1.736-2.566 3.916v144.1a54.461 54.461 0 0 1 24.119-5.809zm26.842-98.3c9 0 20.127-.431 33.838-.431 35.1 0 53.947 12.608 53.947 38.263 0 16.958-7.277 26.96-16.26 34.352-6.434-1.305-23.555-2.61-38.971-2.61h-32.554v-69.571zM629.143 444.206h-41.67a120.475 120.475 0 0 0-17.595-42.717l29.668-29.666a11.9 11.9 0 0 0 0-16.827l-18.036-18.035a11.9 11.9 0 0 0-16.83 0l-29.668 29.668a120.528 120.528 0 0 0-42.713-17.6v-41.665a11.9 11.9 0 0 0-11.9-11.9H456.6a11.9 11.9 0 0 0-11.9 11.9v41.665a120.528 120.528 0 0 0-42.713 17.6l-29.668-29.668a11.9 11.9 0 0 0-16.83 0L337.458 355a11.9 11.9 0 0 0 0 16.827l29.668 29.666a120.475 120.475 0 0 0-17.595 42.717h-41.67a11.9 11.9 0 0 0-11.9 11.9v23.8a11.9 11.9 0 0 0 11.9 11.9h41.67a120.475 120.475 0 0 0 17.595 42.717l-29.668 29.666a11.9 11.9 0 0 0 0 16.825l18.035 18.035a11.9 11.9 0 0 0 16.83 0l29.668-29.666a120.516 120.516 0 0 0 42.713 17.593v41.67a11.9 11.9 0 0 0 11.9 11.9h23.8a11.9 11.9 0 0 0 11.9-11.9v-41.67a120.516 120.516 0 0 0 42.713-17.593l29.668 29.666a11.9 11.9 0 0 0 16.83 0l18.035-18.035a11.9 11.9 0 0 0 0-16.825l-29.672-29.673a120.475 120.475 0 0 0 17.595-42.72h41.67a11.9 11.9 0 0 0 11.9-11.9v-23.8a11.9 11.9 0 0 0-11.9-11.894zM468.5 532.8a64.8 64.8 0 1 1 64.8-64.8 64.8 64.8 0 0 1-64.8 64.8z"/></svg>