<svg xmlns="http://www.w3.org/2000/svg" data-name="S_TextKerning_18_N@2x" height="36" id="S_TextKerning_18_N_2x" viewBox="0 0 36 36" width="36"><defs><style>.fill{fill:#707070}</style></defs><title>S_TextKerning_18_N@2x</title><path class="fill" d="M10.4 16.759c.595-2.106 1.945-6.7 4.51-14.287.054-.162.108-.216.243-.216H18.1c.135 0 .215.081.161.243l-6.188 17.312A.235.235 0 0 1 11.8 20H8.67a.239.239 0 0 1-.27-.162L2.054 2.5c-.054-.135 0-.243.161-.243h3.107a.188.188 0 0 1 .215.162C8.1 9.521 9.858 14.76 10.345 16.759zM26.8 22.167a.5.5 0 0 0-.8.4V26H10v-3.4a.5.5 0 0 0-.8-.4L2 28l7.2 5.833a.5.5 0 0 0 .8-.4V30h16v3.433a.5.5 0 0 0 .8.4L34 28zM26.418 2.417c-.026-.135-.054-.162-.189-.162h-3.754c-.107 0-.161.081-.161.189A4.128 4.128 0 0 1 22.07 3.9l-5.563 15.83c-.028.189.026.27.189.27h2.7a.266.266 0 0 0 .3-.216L20.954 16h6.913l1.333 3.838a.273.273 0 0 0 .271.162H32.5c.161 0 .189-.081.161-.243zm-2.052 2.54h.026c.541 1.89 2.1 6.481 2.664 8.264h-5.3c.813-2.457 2.178-6.455 2.61-8.264z"/></svg>