<svg xmlns="http://www.w3.org/2000/svg" data-name="S_TextSizeAdd_18_N@2x" height="36" id="S_TextSizeAdd_18_N_2x" viewBox="0 0 36 36" width="36"><defs><style>.fill{fill:#707070}</style></defs><title>S_TextSizeAdd_18_N@2x</title><path class="fill" d="M15.5 16a.5.5 0 0 1 .5.5v3a.5.5 0 0 1-.5.5h-1a.5.5 0 0 1-.5-.5V18h-4v12h1.5a.5.5 0 0 1 .5.5v1a.5.5 0 0 1-.5.5h-7a.5.5 0 0 1-.5-.5v-1a.5.5 0 0 1 .5-.5H6V18H2v1.473a.5.5 0 0 1-.5.5h-1a.5.5 0 0 1-.5-.5V16.5a.5.5 0 0 1 .5-.5zM27 18.1a8.9 8.9 0 1 0 8.9 8.9 8.9 8.9 0 0 0-8.9-8.9zm5 9.4a.5.5 0 0 1-.5.5H28v3.5a.5.5 0 0 1-.5.5h-1a.5.5 0 0 1-.5-.5V28h-3.5a.5.5 0 0 1-.5-.5v-1a.5.5 0 0 1 .5-.5H26v-3.5a.5.5 0 0 1 .5-.5h1a.5.5 0 0 1 .5.5V26h3.5a.5.5 0 0 1 .5.5zM20 16.893a12.221 12.221 0 0 1 6-2.142V8h6v3a1 1 0 0 0 1 1h2a1 1 0 0 0 1-1V5a1 1 0 0 0-1-1H11a1 1 0 0 0-1 1v5.973a1 1 0 0 0 1 1h2a1 1 0 0 0 1-1V8h6z"/></svg>