<svg xmlns="http://www.w3.org/2000/svg" data-name="S_TextSubscript_18_N@2x" height="36" id="S_TextSubscript_18_N_2x" viewBox="0 0 36 36" width="36"><defs><style>.fill{fill:#707070}</style></defs><title>S_TextSubscript_18_N@2x</title><path class="fill" d="M3 4a1 1 0 0 0-1 1v6a1 1 0 0 0 1 1h2a1 1 0 0 0 1-1V8h6v20H9a1 1 0 0 0-1 1v2a1 1 0 0 0 1 1h10a1 1 0 0 0 1-1v-2a1 1 0 0 0-1-1h-3V8h6v3a1 1 0 0 0 1 1h2a1 1 0 0 0 1-1V5a1 1 0 0 0-1-1zM26.514 34c-.1 0-.12-.045-.12-.135v-1.076a.214.214 0 0 1 .075-.194 36.745 36.745 0 0 0 2.812-2.528c1.182-1.152 1.7-1.9 1.7-2.733 0-.942-.768-1.494-1.905-1.494a5.369 5.369 0 0 0-2.408.658c-.09.045-.15.015-.15-.09v-1.481a.171.171 0 0 1 .09-.179A5.7 5.7 0 0 1 29.565 24a3 3 0 0 1 3.335 2.982 4.407 4.407 0 0 1-1.545 3.413 23.118 23.118 0 0 1-1.9 1.831c1.032 0 3.158-.028 4.04-.028.1 0 .12.03.1.135l-.446 1.549a.148.148 0 0 1-.165.12z"/></svg>