<svg xmlns="http://www.w3.org/2000/svg" width="648" height="648" viewBox="0 0 648 648"><title>TextSpaceBefore_18</title><rect x="216" y="432" width="396" height="72" rx="18" ry="18"/><rect x="216" y="324" width="396" height="72" rx="18" ry="18"/><rect x="216" y="540" width="396" height="72" rx="18" ry="18"/><path d="M36 48.089a9 9 0 0 1 15.59-6.13L144 144 51.59 246.041a9 9 0 0 1-15.59-6.13zM594 36H234a18 18 0 0 0-18 18v180a18 18 0 0 0 18 18h360a18 18 0 0 0 18-18V54a18 18 0 0 0-18-18zm-18 180H252V72h324z"/></svg>