<svg xmlns="http://www.w3.org/2000/svg" width="648" height="648" viewBox="0 0 648 648"><title>TextRomanLowercase_18</title><rect x="252" y="72" width="396" height="72" rx="18" ry="18" transform="rotate(-180 450 108)"/><rect x="252" y="288" width="396" height="72" rx="18" ry="18" transform="rotate(-180 450 324)"/><rect x="252" y="504" width="396" height="72" rx="18" ry="18" transform="rotate(-180 450 540)"/><path d="M180 36V9a9 9 0 0 0-9-9h-18a9 9 0 0 0-9 9v27h36zM144 72v99a9 9 0 0 0 9 9h18a9 9 0 0 0 9-9V72h-36zM144 252v-27a9 9 0 0 0-9-9h-18a9 9 0 0 0-9 9v27h36zM108 288v99a9 9 0 0 0 9 9h18a9 9 0 0 0 9-9v-99h-36zM216 252v-27a9 9 0 0 0-9-9h-18a9 9 0 0 0-9 9v27h36zM180 288v99a9 9 0 0 0 9 9h18a9 9 0 0 0 9-9v-99h-36z"/><g><path d="M144 468v-27a9 9 0 0 0-9-9h-18a9 9 0 0 0-9 9v27h36zM108 504v99a9 9 0 0 0 9 9h18a9 9 0 0 0 9-9v-99h-36z"/></g><g><path d="M216 468v-27a9 9 0 0 0-9-9h-18a9 9 0 0 0-9 9v27h36zM180 504v99a9 9 0 0 0 9 9h18a9 9 0 0 0 9-9v-99h-36z"/></g><g><path d="M72 468v-27a9 9 0 0 0-9-9H45a9 9 0 0 0-9 9v27h36zM36 504v99a9 9 0 0 0 9 9h18a9 9 0 0 0 9-9v-99H36z"/></g></svg>