<svg xmlns="http://www.w3.org/2000/svg" data-name="S_TextDecrease_18_N@2x" height="36" id="S_TextDecrease_18_N_2x" viewBox="0 0 36 36" width="36"><defs><style>.fill{fill:#707070}</style></defs><title>S_TextDecrease_18_N@2x</title><path class="fill" d="M35.9 27a8.9 8.9 0 1 0-8.9 8.9 8.9 8.9 0 0 0 8.9-8.9zm-3.863-2.171L27 32.8l-5.037-7.971A.5.5 0 0 1 22.34 24h9.321a.5.5 0 0 1 .376.829z"/><path class="fill" d="M14.7 27a12.228 12.228 0 0 1 1.3-5.48V8h6v3a1 1 0 0 0 1 1h2a1 1 0 0 0 1-1V5a1 1 0 0 0-1-1H1a1 1 0 0 0-1 1v5.973a1 1 0 0 0 1 1h2a1 1 0 0 0 1-1V8h6v20H7a1 1 0 0 0-1 1v2a1 1 0 0 0 1 1h8.769a12.242 12.242 0 0 1-1.069-5z"/></svg>