<svg xmlns="http://www.w3.org/2000/svg" width="648" height="648" viewBox="0 0 648 648"><title>TextSpaceAfter_18</title><rect x="252" y="144" width="360" height="72" rx="18" ry="18"/><rect x="252" y="252" width="360" height="72" rx="18" ry="18"/><rect x="252" y="36" width="360" height="72" rx="18" ry="18"/><path d="M72 599.911a9 9 0 0 0 15.59 6.13L180 504 87.59 401.959a9 9 0 0 0-15.59 6.13zM612 594V414a18 18 0 0 0-18-18H270a18 18 0 0 0-18 18v180a18 18 0 0 0 18 18h324a18 18 0 0 0 18-18zm-36-18H288V432h288z"/></svg>