<svg xmlns="http://www.w3.org/2000/svg" width="648" height="648" viewBox="0 0 648 648"><title>TextIndentIncrease_18</title><rect x="144" y="504" width="432" height="72" rx="18" ry="18" transform="rotate(-180 360 540)"/><rect x="360" y="360" width="216" height="72" rx="18" ry="18" transform="rotate(-180 468 396)"/><rect x="360" y="216" width="216" height="72" rx="18" ry="18" transform="rotate(-180 468 252)"/><rect x="144" y="72" width="432" height="72" rx="18" ry="18" transform="rotate(-180 360 108)"/><path d="M144 252v-59.911a9 9 0 0 1 15.59-6.13L288 324 159.59 462.041a9 9 0 0 1-15.59-6.13V396H18a18 18 0 0 1-18-18V270a18 18 0 0 1 18-18h126z"/></svg>