<svg xmlns="http://www.w3.org/2000/svg" data-name="S_TextBold_18_N@2x" height="36" id="S_TextBold_18_N_2x" viewBox="0 0 36 36" width="36"><defs><style>.fill{fill:#707070}</style></defs><title>S_TextBold_18_N@2x</title><path class="fill" d="M6 4.508c0-.212.045-.339.279-.381 1.67-.042 5.894-.127 9-.127 9.7 0 11.185 4.659 11.185 7.37a6.461 6.461 0 0 1-2.923 5.507A7.113 7.113 0 0 1 28 23.443C28 28.78 22.942 32 15.284 32c-4.038 0-7.194-.042-8.96-.085-.231-.042-.324-.17-.324-.339zm5.978 11.474h3.359a24.319 24.319 0 0 1 4.021.3 4.89 4.89 0 0 0 1.681-3.91c0-2.922-1.946-4.357-5.568-4.357-1.415 0-2.563.05-3.493.05zm0 11.971c.978.042 2.089.084 3.424.084 4.176.042 6.843-1.307 6.843-4.133 0-1.73-.887-3.121-3.2-3.669a12.29 12.29 0 0 0-3.022-.3h-4.045z"/></svg>