<svg xmlns="http://www.w3.org/2000/svg" data-name="S_TextUnderline_18_N@2x" height="36" id="S_TextUnderline_18_N_2x" viewBox="0 0 36 36" width="36"><defs><style>.fill{fill:#707070}</style></defs><title>S_TextUnderline_18_N@2x</title><rect class="fill" height="2" rx=".5" ry=".5" width="28" x="4" y="32"/><path class="fill" d="M5 4a1 1 0 0 0-1 1v6a1 1 0 0 0 1 1h2a1 1 0 0 0 1-1V8h8v18h-3a1 1 0 0 0-1 1v2a1 1 0 0 0 1 1h10a1 1 0 0 0 1-1v-2a1 1 0 0 0-1-1h-3V8h8v3a1 1 0 0 0 1 1h2a1 1 0 0 0 1-1V5a1 1 0 0 0-1-1z"/></svg>