<svg xmlns="http://www.w3.org/2000/svg" data-name="S_TextStrikethrough_18_N@2x" height="36" id="S_TextStrikethrough_18_N_2x" viewBox="0 0 36 36" width="36"><defs><style>.cls-1{fill:#707070}</style></defs><title>S_TextStrikethrough_18_N@2x</title><path class="cls-1" d="M23 28h-3v-6h-4v6h-3a1 1 0 0 0-1 1v2a1 1 0 0 0 1 1h10a1 1 0 0 0 1-1v-2a1 1 0 0 0-1-1zM31 4H5a1 1 0 0 0-1 1v6a1 1 0 0 0 1 1h2a1 1 0 0 0 1-1V8h8v8h4V8h8v3a1 1 0 0 0 1 1h2a1 1 0 0 0 1-1V5a1 1 0 0 0-1-1z"/><g><path class="cls-1" d="M23 28h-3v-6h-4v6h-3a1 1 0 0 0-1 1v2a1 1 0 0 0 1 1h10a1 1 0 0 0 1-1v-2a1 1 0 0 0-1-1zM31 4H5a1 1 0 0 0-1 1v6a1 1 0 0 0 1 1h2a1 1 0 0 0 1-1V8h8v8h4V8h8v3a1 1 0 0 0 1 1h2a1 1 0 0 0 1-1V5a1 1 0 0 0-1-1z"/></g><rect class="cls-1" height="2" rx=".5" ry=".5" width="28" x="4" y="18"/></svg>