<svg xmlns="http://www.w3.org/2000/svg" data-name="S_TextSize_18_N@2x" height="36" id="S_TextSize_18_N_2x" viewBox="0 0 36 36" width="36"><defs><style>.fill{fill:#707070}</style></defs><title>S_TextSize_18_N@2x</title><path class="fill" d="M35 4a1 1 0 0 1 1 1v6a1 1 0 0 1-1 1h-2a1 1 0 0 1-1-1V8h-6v20h3a1 1 0 0 1 1 1v2a1 1 0 0 1-1 1H17a1 1 0 0 1-1-1v-2a1 1 0 0 1 1-1h3V8h-6v2.973a1 1 0 0 1-1 1h-2a1 1 0 0 1-1-1V5a1 1 0 0 1 1-1z"/><path class="fill" d="M15.5 16a.5.5 0 0 1 .5.5v3a.5.5 0 0 1-.5.5h-1a.5.5 0 0 1-.5-.5V18h-4v12h1.5a.5.5 0 0 1 .5.5v1a.5.5 0 0 1-.5.5h-7a.5.5 0 0 1-.5-.5v-1a.5.5 0 0 1 .5-.5H6V18H2v1.473a.5.5 0 0 1-.5.5h-1a.5.5 0 0 1-.5-.5V16.5a.5.5 0 0 1 .5-.5z"/></svg>