<svg xmlns="http://www.w3.org/2000/svg" data-name="S_ThumbUp_18_N@2x" height="36" id="S_ThumbUp_18_N_2x" viewBox="0 0 36 36" width="36"><defs><style>.fill{fill:#707070}</style></defs><title>S_ThumbUp_18_N@2x</title><rect class="fill" height="18" rx="1" ry="1" width="6" x="2" y="14"/><path class="fill" d="M30.967 14H21a54.936 54.936 0 0 0 1-9.08C22 3.259 20.968 2 20 2a1.839 1.839 0 0 0-2 2 11.33 11.33 0 0 1-2.516 6.258A46.28 46.28 0 0 1 10 15.042V30s2.809-.033 14 0a3.945 3.945 0 0 0 3.677-2.424l5.128-10.788A2 2 0 0 0 30.967 14z"/></svg>