<svg xmlns="http://www.w3.org/2000/svg" width="648" height="648" viewBox="0 0 648 648"><title>Trap_18</title><path d="M615.445 122.555c-3.973-3.964-13.324-10-20.654-13.087-36.331-15.283-184.623-77.107-263.127-86.92-74.2-9.277-141.451 0-176.238 34.783s-11.6 129.863 20.865 197.112c20.039 41.506 51.539 92.681 72.738 125.811L47.918 581.37c-14.062 14.063-13.482 37.437 1.9 52.813 15.363 15.372 38.76 15.961 52.822 1.9l182.32-182.32c11.953 11.747 28.424 17.679 48.428 17.679 17.684 0 38.074-4.57 60.469-13.816 43.031-17.684 100.2-60.785 133.031-93.806 32.854-33.021 75.059-88.937 92.742-131.968 19.792-48.02 18.28-86.832-4.185-109.297zm-29.074 95.59c-15.961 38.742-46.3 81.6-85.465 120.762s-82.02 69.5-120.762 85.465c-32.625 13.5-58.887 14.836-70.137 3.621-11.215-11.18-9.844-37.406 3.621-70.137 15.961-38.742 46.3-81.6 85.465-120.762s82.02-69.5 120.762-85.465c18-7.418 34.066-11.145 46.723-11.145 10.3 0 18.387 2.5 23.414 7.523 11.215 11.181 9.844 37.407-3.621 70.138z"/></svg>