<svg xmlns="http://www.w3.org/2000/svg" width="648" height="648" viewBox="0 0 648 648"><title>TreeExpandAll_18</title><path d="M162 144h306V54a18 18 0 0 0-18-18H54a18 18 0 0 0-18 18v396a18 18 0 0 0 18 18h90V162a18 18 0 0 1 18-18z" fill-rule="evenodd"/><path d="M180 198v396a18 18 0 0 0 18 18h396a18 18 0 0 0 18-18V198a18 18 0 0 0-18-18H198a18 18 0 0 0-18 18zm351 234h-99v99a9 9 0 0 1-9 9h-54a9 9 0 0 1-9-9v-99h-99a9 9 0 0 1-9-9v-54a9 9 0 0 1 9-9h99v-99a9 9 0 0 1 9-9h54a9 9 0 0 1 9 9v99h99a9 9 0 0 1 9 9v54a9 9 0 0 1-9 9z" fill-rule="evenodd"/></svg>