<svg xmlns="http://www.w3.org/2000/svg" width="648" height="648" viewBox="0 0 648 648"><title>TrendInspect_18</title><path d="M160.242 479.14l-28.934 32.225-66.27-130.1-63.808 47.87 25.295 42.908 21.34-18.36 81 148.5 71.191-95.041a252.312 252.312 0 0 1-39.814-28.002zM415.266 347.972l52.646-60.8a142.733 142.733 0 0 0-12.112-56.78l-34.611 41-59.607-85.662c-1.2-.448-2.461-.747-3.674-1.151l-137.3 203.238A143.7 143.7 0 0 0 260 416.32l99.861-147.99zM558.264 195.746l87.275-97.976-35.7-32.959-75.539 84.717a250.238 250.238 0 0 1 23.964 46.218z"/><path d="M636.09 545.371L501.561 410.84A214.866 214.866 0 0 0 540 288c0-119.294-96.706-216-216-216s-216 96.706-216 216 96.706 216 216 216a214.866 214.866 0 0 0 122.84-38.439l134.527 134.527c14.056 14.058 37.444 13.469 52.818-1.9s15.967-38.754 1.905-52.817zM144 288a180 180 0 1 1 180 180 180 180 0 0 1-180-180z"/></svg>