<svg xmlns="http://www.w3.org/2000/svg" data-name="S_TrimPath_18_N@2x" height="36" id="S_TrimPath_18_N_2x" viewBox="0 0 36 36" width="36"><defs><style>.cls-1{fill:#707070}</style></defs><title>S_TrimPath_18_N@2x</title><rect class="cls-1" height="20" rx="1" ry="1" width="20" x="12" y="12"/><path class="cls-1" d="M10 10h14V5a1 1 0 0 0-1-1H5a1 1 0 0 0-1 1v18a1 1 0 0 0 1 1h5z"/><g><rect class="cls-1" height="20" rx="1" ry="1" width="20" x="12" y="12"/><path class="cls-1" d="M10 10h14V5a1 1 0 0 0-1-1H5a1 1 0 0 0-1 1v18a1 1 0 0 0 1 1h5z"/></g></svg>