<svg xmlns="http://www.w3.org/2000/svg" width="648" height="648" viewBox="0 0 648 648"><title>Type_18</title><path d="M426.862 88.364h64.281A12.976 12.976 0 0 0 504 75.273V49.091A12.976 12.976 0 0 0 491.143 36h-68.7a50.967 50.967 0 0 0-36.363 15.337L324 114.545l-62.08-63.208A50.967 50.967 0 0 0 225.555 36h-68.7A12.976 12.976 0 0 0 144 49.091v26.182a12.976 12.976 0 0 0 12.857 13.091h64.289l68.239 78.545V396h-81.1a12.976 12.976 0 0 0-12.857 13.091v26.182a12.976 12.976 0 0 0 12.857 13.091h81.1v32.727l-68.239 78.545h-64.289A12.976 12.976 0 0 0 144 572.727v26.182A12.976 12.976 0 0 0 156.857 612h68.7a50.967 50.967 0 0 0 36.365-15.337L324 533.455l62.08 63.209A50.967 50.967 0 0 0 422.445 612h68.7A12.976 12.976 0 0 0 504 598.909v-26.182a12.976 12.976 0 0 0-12.857-13.091h-64.281l-68.246-78.545v-32.727h81.1a12.976 12.976 0 0 0 12.857-13.091v-26.182A12.976 12.976 0 0 0 439.714 396h-81.1V166.909z" fill-rule="evenodd" opacity=".65"/></svg>