<svg xmlns="http://www.w3.org/2000/svg" data-name="S_Undo_18_N@2x" height="36" id="S_Undo_18_N_2x" viewBox="0 0 36 36" width="36"><defs><style>.fill{fill:#707070}</style></defs><title>S_Undo_18_N@2x</title><path class="fill" d="M30.664 12.542A10.4 10.4 0 0 0 23.672 10H10V4.5a.5.5 0 0 0-.856-.351l-7.4 7.5a.5.5 0 0 0 0 .7l7.4 7.5A.5.5 0 0 0 10 19.5V14h13.878a6.139 6.139 0 0 1 6.222 5.8A5.889 5.889 0 0 1 24 26h-5a1 1 0 0 0-1 1v2a1 1 0 0 0 1 1h4.527a10.336 10.336 0 0 0 10.426-9.013 9.949 9.949 0 0 0-3.289-8.445z"/></svg>