<svg xmlns="http://www.w3.org/2000/svg" width="648" height="648" viewBox="0 0 648 648"><title>Ungroup_18</title><rect x="369" y="369" width="126" height="126" rx="18" ry="18"/><path d="M639 324a9 9 0 0 0 9-9v-90a9 9 0 0 0-9-9h-90a9 9 0 0 0-9 9v27H324v-27a9 9 0 0 0-9-9h-90a9 9 0 0 0-9 9v90a9 9 0 0 0 9 9h27v216h-27a9 9 0 0 0-9 9v90a9 9 0 0 0 9 9h90a9 9 0 0 0 9-9v-27h216v27a9 9 0 0 0 9 9h90a9 9 0 0 0 9-9v-90a9 9 0 0 0-9-9h-27V324h27zm-63 216h-27a9 9 0 0 0-9 9v27H324v-27a9 9 0 0 0-9-9h-27V324h27a9 9 0 0 0 9-9v-27h216v27a9 9 0 0 0 9 9h27v216z"/><path d="M180 198a18 18 0 0 1 18-18h81v-9a18 18 0 0 0-18-18h-90a18 18 0 0 0-18 18v90a18 18 0 0 0 18 18h9v-81z"/><path d="M180 360h-72v-27a8.995 8.995 0 0 0-9-9H72V108h27a8.995 8.995 0 0 0 9-9V72h216v27a8.995 8.995 0 0 0 9 9h27v72h36v-72h27a8.995 8.995 0 0 0 9-9V9a8.995 8.995 0 0 0-9-9h-90a8.995 8.995 0 0 0-9 9v27H108V9a8.995 8.995 0 0 0-9-9H9a8.995 8.995 0 0 0-9 9v90a8.995 8.995 0 0 0 9 9h27v216H9a8.995 8.995 0 0 0-9 9v90a8.995 8.995 0 0 0 9 9h90a8.995 8.995 0 0 0 9-9v-27h72v-36z"/></svg>