<svg id="Upload_18" xmlns="http://www.w3.org/2000/svg" width="648" height="648" viewBox="0 0 648 648"><defs><style>.cls-2{fill-rule:evenodd}</style></defs><title>Upload_18</title><path class="cls-2" d="M360 468h-72v135a9 9 0 0 0 9 9h54a9 9 0 0 0 9-9V468zM524.6 202.36a133.479 133.479 0 0 0 2.162-22.882c0-81.026-55.9-153.27-145.345-153.27-75.676 0-126.433 61.6-144.2 125.158a139.019 139.019 0 0 0-39.841-5.851c-70.277 0-121.5 58.293-121.5 121.966a105.142 105.142 0 0 0 5.047 31.9c-1.7-.116-3.318-.466-5.047-.466-43.651 0-75.162 51.1-75.162 85.821s31.078 83.248 69.409 83.248H288V360h-77.952a9 9 0 0 1-6.339-15.385L324 225.177l120.292 119.436a9 9 0 0 1-6.34 15.387H360v107.988h172.848l23.135-3.8C608.783 454.47 648 409.6 648 339.733c0-75.201-69.554-128.414-123.4-137.373z"/></svg>