<svg xmlns="http://www.w3.org/2000/svg" width="648" height="648" viewBox="0 0 648 648"><title>USA_18</title><path d="M193.668 441.663c2.8-22.117 33.67 13.13 35.013 14.124 8.143 6.033 14.321 18.373 24.478 21.8 4.8 1.62 10.161-9.686 12.1-8.784 17.238 8.011 37.7 50.821 54.2 54.332 14.519 3.09 25.821-49.739 56.438-57.114 11.288-2.719 57.264 11.641 61.43 5.863.391-.542-14.507-11.635-5.171-15.992.818-.4 24.4-11.514 16.418-11.514 16.488 0 92.806 17.272 77.561 33.21 6.645 18.274 16.7 25.972 28.359 35.267-3.255 1.619-1.585 6.581-.747 9.724 35.178-21.825-24.038-71.837-20.98-99.457 1.2-10.845 48.086-75.042 53.87-70.751-3.785.12 2.436-6.373 2.186-12.634-1.437-2.472-37.147-54.959-18.177-54.959-3.855 6.625 9.782 34.7 9.6 34.649 0 1.085 3.006-34.235 3.891-28.519 10.212 0 2.028-24.108 3.478-26.447 3.643-5.877 12.957-13.856 17.256-20.408 4.228-6.443 23.137-10.417 8.744-25.7-10.619-11.273.162-13.6 5.817-25.587 2.793-5.923 18.786-12.411 17.691-24.148.213 2.281-25.007-27.118-21.536-26.44-35.009-6.842-7.317 15.185-17.8 28.519-13.044 16.586-29.52 29.388-46.836 42.832-3.094 2.4-68.634 75.247-71.387 59.278.235 1.365 9.131-44.717-4.954-36.209q-3.106 4.6-6.2 9.208c-6.975 0 8.17-20.892-3.238-24.621-25.7-8.4-9.4 10.068-19.257 10.068-22.079-3.513 10.519 37.441-6.983 48.349-20.525 8.1-5.133-50.888-8.476-54.692A46.5 46.5 0 0 1 420.114 240c-14.732-22.222 37.469-24.674 40.62-29.052-1.172-1.029-16.337-11.158-14.446-10.288.768.353-33.972 5.932-36.035 6.717a13 13 0 0 0 6.184-11.514c-12.982-5.77-18.85 18.7-26.973 11.514a145.207 145.207 0 0 1-17.058 6.184c0-4.542 25.374-20.723 24.254-22.442 2.063 3.17-60.446-13.746-56.5-14.339-73.473 11.982-185.713 5.12-267.018-26.81-5.772 5.188 8 14.371-.533 19.35a161.225 161.225 0 0 1-18.071-15.246c-4.978 1.333-19.061 89.733-20.63 96.538-.605 2.627-20.078 75.5 1.173 62.422a59.122 59.122 0 0 0 .64 9.808 14.631 14.631 0 0 0-4.371-4.265c-24.079 17 38.949 77.056 50.321 84.011 10.227 6.254 110.985 46.915 112 39.074 1.17-9.274-.216 1.654-.003.001zm420.375-205.71a.416.416 0 0 0-.267-.107.253.253 0 0 1 .267.107zm-4.1-23.721z"/></svg>