<svg xmlns="http://www.w3.org/2000/svg" width="648" height="648" viewBox="0 0 648 648"><title>UserEdit_18</title><path d="M641.357 393.843l-63.105-63.105a13.3 13.3 0 0 0-9.484-3.865s-.281 0-.421.005a15.009 15.009 0 0 0-10.148 4.447l-194.8 194.8a10.918 10.918 0 0 0-2.749 4.609l-36.489 107.955c-1.247 4.121 5.026 9.311 8.571 9.311a5.458 5.458 0 0 0 .671-.069c3.025-.7 92.209-31.752 108.024-36.507a10.739 10.739 0 0 0 4.535-2.726l194.8-194.805a15.044 15.044 0 0 0 4.426-9.669 13.374 13.374 0 0 0-3.831-10.381zM432.51 591.184c-23.652 7.109-59.313 22.131-79.748 28.23l28.08-79.768zM319.957 497.188a69.042 69.042 0 0 1 16.031-25.273l103.764-103.759c-20.883-8.837-46.02-15.313-76.588-17.974-13.412-1.168-22.464-13.582-22.464-25.989 0-12.981.773-18.288 1.512-38.092 0-6.161 2.5-11.874 6.592-16.734 15.732-18.653 27.563-41.768 35.314-66.21 6.258-18.51 10.389-37.692 10.389-56.626 0-23.01-3.252-43.642-9.281-61.677C368 29.925 325.934 0 269.3 0c-28.16 0-52.928 7.686-72.9 22.118-9.018 6.425-16.594 14.741-23.467 23.933-18.6 24.623-29.6 58.083-29.6 99.725 0 12.766 2 25.635 4.975 38.391 6.609 31.7 20.795 62.328 40.729 85.957 4.1 4.86 6.609 10.573 6.609 16.734.563 15.064 1.494 26.391 1.494 36.58 0 12.41-9.053 24.82-22.465 25.989C24.082 362.531.563 465.53.563 506.145c0 4.518.861 27.475.861 27.475H305.35z"/></svg>