<svg xmlns="http://www.w3.org/2000/svg" width="648" height="648" viewBox="0 0 648 648"><title>UserShare_18</title><path d="M338.52 310.356l3.683-4.087v-13.787c0-6.161 2.5-11.874 6.6-16.734 27.791-32.95 45.035-79.374 45.035-123.592 0-93.516-49.6-145.775-124.545-145.775S143.341 60.7 143.341 152.156c0 44.218 19.4 90.633 47.193 123.583 4.1 4.86 6.6 10.582 6.6 16.743v37.336c0 12.41-9.048 24.82-22.469 25.989C24.091 368.912.563 471.911.563 512.525c0 4.518.861 26.719.861 26.719H252V396a36 36 0 0 1 36-36h35.46s-2.124-34.743 15.06-49.644zM571 329.964L468 216 365.258 329.964a18 18 0 0 0 13.379 30.041H432v135a9 9 0 0 0 9 9h54a9 9 0 0 0 9-9v-135h53.618A18 18 0 0 0 571 329.964z"/><path d="M576 396v180H360V396h-54a18 18 0 0 0-18 18v216a18 18 0 0 0 18 18h324a18 18 0 0 0 18-18V414a18 18 0 0 0-18-18h-54z"/></svg>