<svg id="Users_18" xmlns="http://www.w3.org/2000/svg" width="648" height="648" viewBox="0 0 648 648"><defs><style/></defs><title>Users_18</title><path d="M342.2 365.985v-37.5c0-6.157 2.5-11.874 6.606-16.737 27.79-32.947 45.035-79.37 45.035-123.582 0-93.522-49.6-145.784-124.543-145.784S143.341 96.7 143.341 188.167c0 44.211 19.4 90.633 47.192 123.578 4.1 4.864 6.607 10.581 6.607 16.74v37.335c0 12.416-9.048 24.827-22.469 25.995C24.091 404.915.563 507.915.563 548.535c0 4.514.531 58.272.862 62.721h537.15s.468-58.206.468-62.721c0-38.929-26.6-141.56-174.444-156.573-13.372-1.362-22.399-13.587-22.399-25.977z"/><path d="M492.74 351.605c-12.467-1.289-20.883-12.674-20.883-24.223v-18.231c0-5.739 2.761-10.739 6.159-15.6 19.329-27.655 33.639-74.013 33.639-115.233 0-78.376-46.252-135.932-116.13-135.932-4.181 0-8 .756-12.017 1.116 33.783 33.021 53.536 82.6 53.536 144.668 0 51.943-19.219 106.479-51.64 147.085v15.776c155.2 23.063 196.842 138.015 196.842 197.5 0 1.942-.086 13.825-.185 26.719h64.547s.437-56.7.437-60.908c-.001-44.098-37.002-150.606-154.305-162.737z"/></svg>