<svg xmlns="http://www.w3.org/2000/svg" width="648" height="648" viewBox="0 0 648 648"><title>UserArrow_18</title><path d="M195.727 353.2A9 9 0 0 0 180 359.182V432H54a18 18 0 0 0-18 18v72a18 18 0 0 0 18 18h126v68.727a9 9 0 0 0 15.727 5.979L324 486zM472.6 355.957c-13.368-1.362-22.395-13.588-22.395-25.98v-37.495c0-6.161 2.5-11.874 6.6-16.734 27.791-32.95 45.035-79.374 45.035-123.592 0-93.516-49.6-145.775-124.545-145.775S251.341 60.7 251.341 152.156c0 44.438 19.6 91.107 47.615 124.084a24.983 24.983 0 0 1 6.183 16.242v38.268a25.143 25.143 0 0 1-24.618 25.084L406.248 486l-53.82 54h294.42c.105-13.166.193-25.5.193-27.475.001-38.925-26.595-141.556-174.441-156.568z"/></svg>