<svg xmlns="http://www.w3.org/2000/svg" width="648" height="648" viewBox="0 0 648 648"><title>UsersShare_18</title><path d="M370.53 393.1c-3.313-.442-2.488-.8-5.934-1.148-13.367-1.352-22.396-13.583-22.396-25.973v-37.5c0-6.157 2.5-11.874 6.6-16.737 27.791-32.946 45.035-79.37 45.035-123.583 0-93.522-49.6-145.784-124.541-145.784S143.341 96.7 143.341 188.161c0 44.211 19.4 90.633 47.188 123.579 4.1 4.865 6.609 10.582 6.609 16.741v37.334c0 12.417-9.053 24.829-22.465 26C24.091 404.908.563 507.909.563 548.53c0 4.513.527 58.271.861 62.719H234.5c0-65.049 27.1-162.93 136.03-218.149z"/><path d="M385.4 335.25v15.776a290.3 290.3 0 0 1 61.33 15.961c7.269-1.459 14.493-2.979 22.228-3.885V339.8c0-5.067 1.415-9.712 2.9-14.3l-.009-16.361c0-5.739 2.769-10.74 6.161-15.6 19.327-27.655 33.645-74.013 33.645-115.233 0-78.376-46.257-135.932-116.13-135.932-4.184 0-8.007.756-12.023 1.116 33.785 33.021 53.543 82.6 53.543 144.668 0 51.95-19.222 106.487-51.645 147.092z"/><path d="M504.959 397.054V339.8a11.454 11.454 0 0 1 19.553-8.1L648 465.781 524.512 599.858a11.454 11.454 0 0 1-19.553-8.1v-58.111c-123.908-20.856-189.783 49.854-214.493 83.37-4.536 6.147-14.6 3.031-14.6-4.687.002-34.565 39.466-215.276 229.093-215.276z"/></svg>