<svg xmlns="http://www.w3.org/2000/svg" width="648" height="648" viewBox="0 0 648 648"><title>UsersAdd_18</title><path d="M264.6 486c0-101.68 53.262-137.5 83.637-173.507 27.791-32.946 45.035-79.37 45.035-123.581 0-93.522-49.605-145.784-124.541-145.784S142.77 97.444 142.77 188.912c0 44.209 19.406 90.633 47.2 123.579 4.113 4.863 6.609 10.58 6.609 16.739v37.336c0 12.417-9.053 24.827-22.465 25.994C23.52 405.659 0 508.66 0 549.279c0 4.513.527 58.272.861 62.721h303.205A220.272 220.272 0 0 1 264.6 486zM419.168 274.917A221.132 221.132 0 0 1 486 264.6c2.32 0 4.588.277 6.891.347 10.9-25.759 18.193-56.938 18.193-85.885 0-78.376-46.248-135.932-116.121-135.932-4.184 0-8 .756-12.023 1.116 33.785 33.021 53.543 82.6 53.543 144.668-.001 28.894-6.452 58.349-17.315 86.003z"/><path d="M486 325.8A160.2 160.2 0 1 0 646.2 486 160.2 160.2 0 0 0 486 325.8zM576 495a9 9 0 0 1-9 9h-63v63a9 9 0 0 1-9 9h-18a9 9 0 0 1-9-9v-63h-63a9 9 0 0 1-9-9v-18a9 9 0 0 1 9-9h63v-63a9 9 0 0 1 9-9h18a9 9 0 0 1 9 9v63h63a9 9 0 0 1 9 9v18z"/></svg>