<svg xmlns="http://www.w3.org/2000/svg" width="648" height="648" viewBox="0 0 648 648"><title>UserLock_18</title><path d="M252 450.229c0-24.108 10.355-44.578 33-51.486 0-57.936 36.882-87.872 55.941-107.354 6.65-6.8 52.9-53.788 52.9-139.232 0-93.516-49.6-145.775-124.545-145.775S143.341 60.7 143.341 152.156c0 44.218 19.4 90.633 47.193 123.583 4.1 4.86 6.6 10.582 6.6 16.743v37.336c0 12.41-9.048 24.82-22.469 25.989C24.091 368.912.563 471.911.563 512.525.563 517.043 0 540 0 540h252v-89.771z"/><path d="M594 432h-17.187v-18.149a125.983 125.983 0 0 0-251.965 0V432H306a18 18 0 0 0-18 18v180a18 18 0 0 0 18 18h288a18 18 0 0 0 18-18V450a18 18 0 0 0-18-18zM475.813 565.6v34.708a12.493 12.493 0 0 1-12.489 12.492h-24.987a12.493 12.493 0 0 1-12.489-12.489V565.6a37.477 37.477 0 1 1 49.965 0zm56-133.6H369.848v-18.149a80.983 80.983 0 0 1 161.965 0V432z"/></svg>