<svg xmlns="http://www.w3.org/2000/svg" width="648" height="648" viewBox="0 0 648 648"><title>UsersLock_18</title><path d="M426.287 254.347c12.479-1.928 20.716-2.8 33.17-2.118 11.042.576 25.7 3.663 35.648 6.616l.035.009c9.545-24.532 15.943-53.027 15.943-79.792 0-82.98-51.84-142.621-128.672-135.328 34.107 33.019 54.07 82.79 54.07 145.181.001 21.831-3.708 43.978-10.194 65.432zM252 450.229a54.1 54.1 0 0 1 38.531-51.75c4.852-54.25 37.037-100.351 82.336-125.666l.018-.007c12.6-26.183 20.391-55.325 20.391-83.894 0-93.522-49.605-145.784-124.541-145.784S142.77 97.444 142.77 188.912c0 44.209 19.406 90.633 47.2 123.579 4.113 4.863 6.609 10.58 6.609 16.739v37.336c0 12.417-9.053 24.827-22.465 25.994C23.52 405.659 0 508.66 0 549.279c0 4.513.527 58.272.861 62.721H252V450.229z"/><path d="M594 432h-17.187v-18.149a125.982 125.982 0 0 0-251.965 0V432H306a18 18 0 0 0-18 18v180a18 18 0 0 0 18 18h288a18 18 0 0 0 18-18V450a18 18 0 0 0-18-18zM475.813 565.6v34.708a12.493 12.493 0 0 1-12.489 12.492h-24.987a12.493 12.493 0 0 1-12.489-12.489V565.6a37.477 37.477 0 1 1 49.965 0zm56-133.6H369.848v-18.149a80.983 80.983 0 0 1 161.965 0V432z"/></svg>