<svg xmlns="http://www.w3.org/2000/svg" width="648" height="648" viewBox="0 0 648 648"><title>UserExclude_18</title><path d="M264.6 486a220.778 220.778 0 0 1 77.6-168.152v-25.366c0-6.161 2.5-11.874 6.6-16.734 27.791-32.95 45.035-79.374 45.035-123.592 0-93.516-49.6-145.775-124.545-145.775S143.341 60.7 143.341 152.156c0 44.218 19.4 90.633 47.193 123.583 4.1 4.86 6.6 10.582 6.6 16.743v37.336c0 12.41-9.048 24.82-22.469 25.989C24.091 368.912.563 471.911.563 512.525c0 4.518.861 26.719.861 26.719h269.89A221.126 221.126 0 0 1 264.6 486zM486 325.8A160.2 160.2 0 1 0 646.2 486 160.2 160.2 0 0 0 486 325.8zM363.6 486a121.468 121.468 0 0 1 23.2-71.218L557.218 585.2A122.041 122.041 0 0 1 363.6 486zm221.6 71.218L414.782 386.8A122.036 122.036 0 0 1 585.2 557.218z"/></svg>