<svg xmlns="http://www.w3.org/2000/svg" width="648" height="648" viewBox="0 0 648 648"><title>ViewDetail_18</title><path d="M633.435 578.565l-81.813-81.813c14.7-24.357 23.662-52.585 23.662-83.11a161.642 161.642 0 1 0-161.642 161.642c30.529 0 58.753-8.958 83.11-23.662l81.813 81.813c18.277 18.277 40.485 14.385 54.87 0s15.154-39.716 0-54.87zM313.421 413.642a100.221 100.221 0 1 1 100.221 100.214 100.22 100.22 0 0 1-100.221-100.214z"/><path d="M231.8 504H108V108h396v123.8a203.848 203.848 0 0 1 72 59.563V54a18 18 0 0 0-18-18H54a18 18 0 0 0-18 18v504a18 18 0 0 0 18 18h237.375a203.872 203.872 0 0 1-59.575-72z"/></svg>