<svg xmlns="http://www.w3.org/2000/svg" width="648" height="648" viewBox="0 0 648 648"><title>ViewAllTags_18</title><rect x="36" y="36" width="72" height="72" rx="18" ry="18"/><rect x="180" y="36" width="396" height="72" rx="18" ry="18"/><rect x="36" y="180" width="72" height="72" rx="18" ry="18"/><rect x="180" y="180" width="396" height="72" rx="18" ry="18"/><rect x="36" y="324" width="72" height="72" rx="18" ry="18"/><rect x="36" y="468" width="72" height="72" rx="18" ry="18"/><path d="M642.022 469.9L464.19 292.07a13.9 13.9 0 0 0-9.826-4.07H301.9a13.9 13.9 0 0 0-13.9 13.9v152.47a13.9 13.9 0 0 0 4.07 9.826L469.9 642.025a13.9 13.9 0 0 0 19.652 0l152.468-152.47a13.9 13.9 0 0 0 .002-19.655zM367.2 413.069a45.869 45.869 0 1 1 45.864-45.869 45.871 45.871 0 0 1-45.864 45.869zM257.294 489.656c-5.977-5.968-4.015-13.605-6.353-21.656H198a18 18 0 0 0-18 18v36a18 18 0 0 0 18 18h109.638zM252 324h-54a18 18 0 0 0-18 18v36a18 18 0 0 0 18 18h54v-72z"/></svg>