<svg xmlns="http://www.w3.org/2000/svg" data-name="S_ViewWeek_18_N@2x" height="36" id="S_ViewWeek_18_N_2x" viewBox="0 0 36 36" width="36"><defs><style>.fill{fill:#707070}</style></defs><title>S_ViewWeek_18_N@2x</title><path class="fill" d="M35 6h-5V3a1 1 0 0 0-1-1h-2a1 1 0 0 0-1 1v3H12V3a1 1 0 0 0-1-1H9a1 1 0 0 0-1 1v3H3a1 1 0 0 0-1 1v26a1 1 0 0 0 1 1h32a1 1 0 0 0 1-1V7a1 1 0 0 0-1-1zm-1 26H4V8h4v1a1 1 0 0 0 1 1h2a1 1 0 0 0 1-1V8h14v1a1 1 0 0 0 1 1h2a1 1 0 0 0 1-1V8h4z"/><rect class="fill" height="4" rx=".5" ry=".5" width="22" x="8" y="14"/></svg>