<svg xmlns="http://www.w3.org/2000/svg" width="648" height="648" viewBox="0 0 648 648"><title>ViewedMarkAs_18</title><path d="M410.291 279.967A89.937 89.937 0 0 0 415.125 252a84.437 84.437 0 0 0-3.146-21.516c-8.49 13.526-22.834 23.019-39.973 23.019A48.012 48.012 0 0 1 324 205.5c0-17.7 10.037-32.52 24.293-40.843A88.376 88.376 0 0 0 324 160.875 91.126 91.126 0 0 0 232.875 252c0 48.647 38.215 88.031 86.221 90.633a221.373 221.373 0 0 1 91.195-62.666z"/><path d="M278.578 410.959C209.109 391.1 157.957 327.841 157.957 252a166.043 166.043 0 1 1 332.086 0c0 4.975-1.02 9.668-1.459 14.528a220.144 220.144 0 0 1 106.1 28.5c8.227-14.071 12.814-26.736 12.814-36.545 0-42.557-75.85-132.135-164.461-176.045C403.066 62.807 363.023 52.857 324 52.857c-155.953 0-283.5 155.259-283.5 205.629 0 47.276 103.113 159.627 228.287 186.688a219.189 219.189 0 0 1 9.791-34.215z"/><path d="M486 325.8A160.2 160.2 0 1 0 646.2 486 160.2 160.2 0 0 0 486 325.8zm-42.083 257.619l-74.3-74.3a9 9 0 0 1 0-12.728l18.656-18.656a9 9 0 0 1 12.728 0l49.166 49.165 109.907-109.909a9 9 0 0 1 12.728 0l18.77 18.77a9 9 0 0 1 0 12.728l-134.927 134.93a9 9 0 0 1-12.728 0z"/></svg>