<svg id="ViewOn_18" xmlns="http://www.w3.org/2000/svg" width="648" height="648" viewBox="0 0 648 648"><defs><style/></defs><title>ViewOn_18</title><path d="M443.035 154.446c-39.963-19.637-80.008-29.584-119.035-29.584-155.949 0-283.5 155.257-283.5 205.625 0 53.947 134.248 192.652 282.353 192.652 149.309 0 284.647-138.7 284.647-192.652 0-42.557-75.856-132.14-164.465-176.041zM324 490.05A166.05 166.05 0 1 1 490.05 324 166.053 166.053 0 0 1 324 490.05z"/><path d="M372 325.5a48 48 0 0 1-48-48c0-17.7 10.036-32.521 24.292-40.846A88.473 88.473 0 0 0 324 232.875 91.125 91.125 0 1 0 415.125 324a84.581 84.581 0 0 0-3.147-21.516C403.487 316.011 389.143 325.5 372 325.5z"/></svg>