<svg xmlns="http://www.w3.org/2000/svg" data-name="S_Vignette_18_N@2x" height="36" id="S_Vignette_18_N_2x" viewBox="0 0 36 36" width="36"><defs><style>.fill{fill:#707070}</style></defs><title>S_Vignette_18_N@2x</title><path class="fill" d="M2 3v30a1 1 0 0 0 1 1h30a1 1 0 0 0 1-1V3a1 1 0 0 0-1-1H3a1 1 0 0 0-1 1zm30 29H4V4h28z"/><path class="fill" d="M30 15.854V6h-9.854A12.2 12.2 0 0 1 30 15.854zM15.854 6H6v9.855A12.2 12.2 0 0 1 15.854 6zM6 20.145V30h9.855A12.2 12.2 0 0 1 6 20.145zM20.145 30H30v-9.854A12.2 12.2 0 0 1 20.145 30z"/></svg>