<svg xmlns="http://www.w3.org/2000/svg" width="648" height="648" viewBox="0 0 648 648"><title>Visit_18</title><path d="M594 72H54a18 18 0 0 0-18 18v432a18 18 0 0 0 18 18h41.66a161.873 161.873 0 0 1 35.086-36H72V180h504v324h-61.857a170.177 170.177 0 0 1 36.439 36H594a18 18 0 0 0 18-18V90a18 18 0 0 0-18-18z" fill-rule="evenodd"/><path d="M381.827 486.91v-30.133a20.854 20.854 0 0 1 5.308-13.449c22.331-26.475 36.188-63.779 36.188-99.306 0-75.151-39.859-117.147-100.078-117.147s-101.217 43.648-101.217 117.147c0 35.526 15.591 72.829 37.922 99.3a20.859 20.859 0 0 1 5.309 13.452v30c0 9.977-7.271 19.95-18.055 20.888C126.2 518.192 108.118 600.96 108.118 633.6c0 3.628-.118 14.4-.118 14.4h432v-14.4c0-31.282-21.372-113.752-140.177-125.816-10.745-1.091-17.996-10.918-17.996-20.874z"/></svg>