<svg xmlns="http://www.w3.org/2000/svg" width="648" height="648" viewBox="0 0 648 648"><title>VisitShare_18</title><path d="M36 144h468v48.783l36 39.832V54a18 18 0 0 0-18-18H18A18 18 0 0 0 0 54v396a18 18 0 0 0 18 18h38.769a148.752 148.752 0 0 1 40.5-36H36V144z" fill-rule="evenodd"/><path d="M571 329.964L468 216 365.258 329.964a18 18 0 0 0 13.379 30.041H432v135a9 9 0 0 0 9 9h54a9 9 0 0 0 9-9v-135h53.618A18 18 0 0 0 571 329.964zM72 576l180-.149V396a36 36 0 0 1 36-36h40.192a53.778 53.778 0 0 1 10.327-54.143l21.911-24.3c-3.138-62.985-38.382-98.33-90.976-98.33-55.116 0-92.637 39.944-92.637 107.209 0 32.513 14.273 66.652 34.708 90.879a19.107 19.107 0 0 1 4.86 12.311v27.457c0 9.13-6.662 18.257-16.523 19.116-110.741 9.632-127.524 87.817-127.524 117.689z"/><path d="M576 396v180H360V396h-54a18 18 0 0 0-18 18v216a18 18 0 0 0 18 18h324a18 18 0 0 0 18-18V414a18 18 0 0 0-18-18h-54z"/></svg>