<svg xmlns="http://www.w3.org/2000/svg" data-name="S_Visibility_18_N@2x" height="36" id="S_Visibility_18_N_2x" viewBox="0 0 36 36" width="36"><defs><style>.fill{fill:#707070}</style></defs><title>S_Visibility_18_N@2x</title><path class="fill" d="M24.613 8.58A14.973 14.973 0 0 0 18 6.937c-8.664 0-15.75 8.625-15.75 11.424 0 3 7.458 10.7 15.686 10.7 8.295 0 15.814-7.706 15.814-10.7 0-2.361-4.214-7.342-9.137-9.781zM18 27.225A9.225 9.225 0 1 1 27.225 18 9.225 9.225 0 0 1 18 27.225z"/><path class="fill" d="M20.667 18.083A2.667 2.667 0 0 1 18 15.417a2.631 2.631 0 0 1 1.35-2.269 4.912 4.912 0 0 0-1.35-.21A5.063 5.063 0 1 0 23.063 18a4.7 4.7 0 0 0-.175-1.2 2.623 2.623 0 0 1-2.221 1.283z"/></svg>