<svg xmlns="http://www.w3.org/2000/svg" width="648" height="648" viewBox="0 0 648 648"><title>VK_18</title><path d="M320.562 488.108h36.579s11.047-1.219 16.7-7.3c5.192-5.585 5.026-16.068 5.026-16.068s-.716-49.082 22.062-56.311c22.462-7.124 51.3 47.439 81.863 68.419 23.112 15.873 40.677 12.4 40.677 12.4l81.73-1.141s42.752-2.639 22.479-36.253c-1.659-2.746-11.809-24.865-60.771-70.311-51.25-47.567-44.381-39.871 17.352-122.148 37.594-50.108 52.622-80.7 47.925-93.8-4.474-12.482-32.126-9.184-32.126-9.184l-92.021.57s-6.827-.93-11.884 2.1c-4.946 2.958-8.119 9.871-8.119 9.871s-14.57 38.772-33.988 71.751c-40.976 69.577-57.362 73.26-64.06 68.933-15.584-10.07-11.689-40.448-11.689-62.036 0-67.432 10.228-95.546-19.917-102.823-10-2.415-17.369-4.012-42.952-4.271-32.836-.336-60.623.1-76.358 7.808-10.47 5.129-18.546 16.549-13.624 17.208 6.083.81 19.854 3.717 27.156 13.652 9.432 12.834 9.1 41.642 9.1 41.642s5.42 79.376-12.655 89.235c-12.4 6.762-29.418-7.044-65.951-70.17-18.714-32.333-32.848-68.08-32.848-68.08s-2.722-6.678-7.585-10.254c-5.9-4.331-14.135-5.7-14.135-5.7l-87.447.571s-13.125.367-17.947 6.075c-4.291 5.081-.343 15.58-.343 15.58s68.452 160.164 145.972 240.878c71.089 74.015 151.8 69.158 151.8 69.158z" fill-rule="evenodd"/></svg>