<svg xmlns="http://www.w3.org/2000/svg" width="648" height="648" viewBox="0 0 648 648"><title>Wand_18</title><path d="M567.111 244.068l1.4 38.8a31.637 31.637 0 0 0 16.155 26.458l33.879 18.974-38.8 1.4a31.637 31.637 0 0 0-26.458 16.155l-18.975 33.875-1.4-38.8a31.637 31.637 0 0 0-16.155-26.458L482.876 295.5l38.8-1.4a31.637 31.637 0 0 0 26.458-16.155zM535.182 1.756l1.946 53.821a43.881 43.881 0 0 0 22.408 36.7l46.987 26.323-53.823 1.941a43.881 43.881 0 0 0-36.7 22.408l-26.319 46.987-1.946-53.821a43.881 43.881 0 0 0-22.408-36.7L418.343 73.1l53.821-1.946a43.881 43.881 0 0 0 36.7-22.408zM228.577 30.238l2.506 69.315a56.514 56.514 0 0 0 28.859 47.263l60.513 33.9-69.315 2.506a56.514 56.514 0 0 0-47.263 28.859l-33.9 60.513-2.506-69.315a56.514 56.514 0 0 0-28.859-47.263L78.1 122.117l69.315-2.506a56.514 56.514 0 0 0 47.263-28.859zM424.865 238.052L66.936 595.888a18 18 0 0 1-25.456 0l-25.452-25.463a18 18 0 0 1 0-25.456l263.246-263.175 94.686-94.661a18 18 0 0 1 25.456 0l25.452 25.467a18 18 0 0 1-.003 25.452z"/></svg>