<svg xmlns="http://www.w3.org/2000/svg" width="648" height="648" viewBox="0 0 648 648"><title>Windows7_18</title><path d="M528.521 110.911c-63.024 0-101.627-24.72-115.814-35.848l-59.568 227.478c14.853 11.4 52.721 34.806 114.4 34.806 63.955 0 100.831-9.458 113.824-13.543L648 100.621s-38.143 10.29-119.479 10.29zM369.478 53.406C355.191 42.244 317.031 18 254.25 18c-63.955 0-100.778 9.458-113.781 13.543l-66.63 223.183s38.132-10.29 119.479-10.29c64.2 0 103.066 25.658 116.586 36.461zM454.681 385.553c-60.785 0-98.861-23-114.216-34.619L280.9 578.393C296.767 590.165 334.125 612 393.7 612c63.955 0 100.831-9.469 113.835-13.543l66.625-223.183s-38.132 10.279-119.479 10.279zM297.2 329.43c-12.911-10.471-51.505-36.647-116.732-36.647-63.955 0-100.831 9.469-113.825 13.543L0 529.509s38.143-10.28 119.479-10.28c66.866 0 106.243 27.826 118.136 37.723z"/></svg>