<svg xmlns="http://www.w3.org/2000/svg" width="648" height="648" viewBox="0 0 648 648"><title>Wordpress_18</title><path d="M324.007 36.015C165.211 36.015 36.018 165.2 36.018 324s129.193 288 287.989 288S612 482.8 612 324 482.8 36.015 324.007 36.015zM65.083 324A257.926 257.926 0 0 1 87.5 218.621l123.513 338.4C124.636 515.061 65.083 426.484 65.083 324zm258.924 258.94a258.82 258.82 0 0 1-73.15-10.55l77.7-225.743 79.584 218.047a24.192 24.192 0 0 0 1.854 3.568 258.43 258.43 0 0 1-85.988 14.678zm35.685-380.34c15.586-.82 29.633-2.461 29.633-2.461 13.952-1.65 12.306-22.156-1.652-21.339 0 0-41.939 3.292-69.013 3.292-25.441 0-68.193-3.292-68.193-3.292-13.962-.817-15.6 20.514-1.643 21.339 0 0 13.208 1.641 27.158 2.461l40.338 110.529-56.67 169.939L165.366 202.6c15.6-.82 29.632-2.461 29.632-2.461 13.943-1.65 12.3-22.156-1.656-21.339 0 0-41.932 3.292-69.008 3.292-4.859 0-10.585-.119-16.665-.314 46.3-70.287 125.877-116.7 216.339-116.7a257.954 257.954 0 0 1 174.847 67.982c-1.116-.07-2.205-.21-3.354-.21-25.434 0-43.481 22.157-43.481 45.954 0 21.339 12.312 39.392 25.434 60.73 9.848 17.244 21.347 39.4 21.347 71.409 0 22.159-8.523 47.875-19.7 83.7l-25.833 86.289zm191.524-2.82A257.666 257.666 0 0 1 582.929 324c0 95.525-51.769 178.922-128.746 223.8l79.084-228.657c14.77-36.939 19.69-66.475 19.69-92.74a198.674 198.674 0 0 0-1.741-26.624z"/></svg>