<svg xmlns="http://www.w3.org/2000/svg" width="648" height="648" viewBox="0 0 648 648"><title>WorkflowAdd_18</title><path d="M594 72h-72a17.994 17.994 0 0 0-18 18v72a18 18 0 0 0 18 18h72a18 18 0 0 0 18-18V90a17.994 17.994 0 0 0-18-18zm0 180h-72a17.749 17.749 0 0 0-17.1 13.553A219.967 219.967 0 0 1 612 304.066V270a17.994 17.994 0 0 0-18-18zM459 108H333a9 9 0 0 0-9 9v171h-99a9 9 0 0 0-9 9v18a9 9 0 0 0 9 9h99v11.439A221.911 221.911 0 0 1 387.352 288H360V144h99a9 9 0 0 0 9-9v-18a9 9 0 0 0-9-9zM162 216H54a17.994 17.994 0 0 0-18 18v165.6a18 18 0 0 0 18 18h108a18 18 0 0 0 18-18V234a17.994 17.994 0 0 0-18-18zM487.8 327.6A160.2 160.2 0 1 0 648 487.8a160.2 160.2 0 0 0-160.2-160.2zm90 169.2a9 9 0 0 1-9 9h-63v63a9 9 0 0 1-9 9h-18a9 9 0 0 1-9-9v-63h-63a9 9 0 0 1-9-9v-18a9 9 0 0 1 9-9h63v-63a9 9 0 0 1 9-9h18a9 9 0 0 1 9 9v63h63a9 9 0 0 1 9 9v18z"/></svg>