<svg xmlns="http://www.w3.org/2000/svg" width="648" height="648" viewBox="0 0 648 648"><title>Workflow_18</title><rect x="36" y="216" width="144" height="201.6" rx="18" ry="18"/><rect x="504" y="72" width="108" height="108" rx="18" ry="18"/><rect x="504" y="252" width="108" height="108" rx="18" ry="18"/><rect x="504" y="432" width="108" height="108" rx="18" ry="18"/><path d="M468 135v-18a9 9 0 0 0-9-9H333a9 9 0 0 0-9 9v171h-99a9 9 0 0 0-9 9v18a9 9 0 0 0 9 9h99v171a9 9 0 0 0 9 9h126a9 9 0 0 0 9-9v-18a9 9 0 0 0-9-9h-99V324h99a9 9 0 0 0 9-9v-18a9 9 0 0 0-9-9h-99V144h99a9 9 0 0 0 9-9z"/></svg>