<svg xmlns="http://www.w3.org/2000/svg" width="648" height="648" viewBox="0 0 648 648"><title>Wrench_18</title><path d="M116.394 47.137s5.293-5.576 16.152-6.613c10.6-1.066 121.823-20.79 166.483 21.838 34.238 32.667 41.858 63.962 42.392 88.356.218 24.612 7.958 76.459 15.855 97.883 7.147 20.4 27.584 52.46 27.584 52.46l205.473 206.125s21.876 31.828-20.515 74.535c-42.115 42.628-72.165 19.41-72.165 19.41L283.671 383.118s-20.1-28.866-49.2-36.824c-28.886-7.956-72.838-5.192-109.917-26.14-37.377-21.207-80.736-100.578-82.315-114.33-1.838-13.791-2.923-28.1-2.923-28.1s2.369-3.7 5.845-1.332c3.672 2.39 103.578 58.552 103.578 58.552S174.4 241.827 221.3 194.4c19.844-67.268 4.009-77.614 4.009-77.614l-103.07-63.824z" fill-rule="evenodd"/></svg>