<svg xmlns="http://www.w3.org/2000/svg"><symbol id="spectrum-css-icon-AlertMedium" viewBox="0 0 18 18"><path d="M8.564 1.289L.2 16.256A.5.5 0 0 0 .636 17h16.728a.5.5 0 0 0 .5-.5.494.494 0 0 0-.064-.244L9.436 1.289a.5.5 0 0 0-.872 0zM10 14.75a.25.25 0 0 1-.25.25h-1.5a.25.25 0 0 1-.25-.25v-1.5a.25.25 0 0 1 .25-.25h1.5a.25.25 0 0 1 .25.25zm0-3a.25.25 0 0 1-.25.25h-1.5a.25.25 0 0 1-.25-.25v-6a.25.25 0 0 1 .25-.25h1.5a.25.25 0 0 1 .25.25z"/></symbol><symbol id="spectrum-css-icon-AlertSmall" viewBox="0 0 14 14"><path d="M6.661 1L.156 12.644a.388.388 0 0 0 .339.578h13.01a.389.389 0 0 0 .389-.389.379.379 0 0 0-.05-.189L7.339 1A.388.388 0 0 0 6.81.854.381.381 0 0 0 6.661 1zm1.117 10.472a.2.2 0 0 1-.195.2H6.417a.2.2 0 0 1-.195-.2v-1.166a.2.2 0 0 1 .195-.195h1.166a.2.2 0 0 1 .195.195zm0-2.333a.194.194 0 0 1-.195.194H6.417a.194.194 0 0 1-.195-.194V4.472a.194.194 0 0 1 .195-.194h1.166a.194.194 0 0 1 .195.194z"/></symbol><symbol id="spectrum-css-icon-ArrowDownSmall" viewBox="0 0 8 10"><path d="M7.99 6.01a1 1 0 0 0-1.707-.71L5 6.586V1a1 1 0 0 0-2 0v5.586L1.717 5.3A1 1 0 1 0 .3 6.717L3.293 9.7a1 1 0 0 0 1.414 0L7.7 6.717a1 1 0 0 0 .29-.707z"/></symbol><symbol id="spectrum-css-icon-ArrowLeftMedium" viewBox="0 0 14 10"><path d="M12.99 4H3.414L5.7 1.717A1 1 0 1 0 4.283.3L.3 4.293a1 1 0 0 0 0 1.414L4.283 9.7A1 1 0 1 0 5.7 8.283L3.414 6h9.576a1 1 0 1 0 0-2z"/></symbol><symbol id="spectrum-css-icon-CheckmarkMedium" viewBox="0 0 12 12"><path d="M4.5 10a1.023 1.023 0 0 1-.8-.384l-2.488-3a1 1 0 0 1 1.577-1.233L4.5 7.376l4.712-5.991a1 1 0 1 1 1.576 1.23l-5.511 7A.977.977 0 0 1 4.5 10z"/></symbol><symbol id="spectrum-css-icon-CheckmarkSmall" viewBox="0 0 10 10"><path d="M3.788 9A1 1 0 0 1 3 8.615l-2.288-3a1 1 0 1 1 1.576-1.23l1.5 1.991 3.924-4.991a1 1 0 1 1 1.576 1.23l-4.712 6A1 1 0 0 1 3.788 9z"/></symbol><symbol id="spectrum-css-icon-ChevronDownMedium" viewBox="0 0 10 6"><path d="M9.99 1.01A1 1 0 0 0 8.283.3L5 3.586 1.717.3A1 1 0 1 0 .3 1.717L4.293 5.7a1 1 0 0 0 1.414 0L9.7 1.717a1 1 0 0 0 .29-.707z"/></symbol><symbol id="spectrum-css-icon-ChevronDownSmall" viewBox="0 0 8 6"><path d="M4 5.5a.749.749 0 0 0 .531-.22C5.137 4.7 6.5 3.242 7.77 2.041A.75.75 0 1 0 6.709.98L4 3.689 1.291.98A.75.75 0 1 0 .23 2.041L3.469 5.28A.749.749 0 0 0 4 5.5z"/></symbol><symbol id="spectrum-css-icon-ChevronLeftLarge" viewBox="0 0 12 16"><path d="M9.605 13.843L3.551 8l6.056-5.84A1.25 1.25 0 0 0 8.74.01a1.237 1.237 0 0 0-.864.353L.882 7.1a1.244 1.244 0 0 0 0 1.8l6.988 6.742a1.248 1.248 0 1 0 1.732-1.8z"/></symbol><symbol id="spectrum-css-icon-ChevronLeftMedium" viewBox="0 0 6 10"><path d="M5.7 8.283L2.414 5 5.7 1.717A1 1 0 1 0 4.283.3L.3 4.293a1 1 0 0 0 0 1.414L4.283 9.7A1 1 0 1 0 5.7 8.283z"/></symbol><symbol id="spectrum-css-icon-ChevronRightLarge" viewBox="0 0 12 16"><path d="M11.5 8a1.236 1.236 0 0 0-.386-.9L4.128.36A1.248 1.248 0 1 0 2.4 2.157L8.45 8l-6.058 5.841a1.248 1.248 0 1 0 1.733 1.8L11.117 8.9A1.246 1.246 0 0 0 11.5 8z"/></symbol><symbol id="spectrum-css-icon-ChevronRightMedium" viewBox="0 0 6 10"><path d="M5.99 5a1 1 0 0 0-.29-.707L1.717.3A1 1 0 1 0 .3 1.717L3.586 5 .3 8.283A1 1 0 1 0 1.717 9.7L5.7 5.707A1 1 0 0 0 5.99 5z"/></symbol><symbol id="spectrum-css-icon-ChevronRightSmall" viewBox="0 0 6 8"><path d="M5.5 4a.749.749 0 0 0-.22-.531C4.7 2.863 3.242 1.5 2.041.23A.75.75 0 1 0 .98 1.291L3.689 4 .98 6.709A.75.75 0 1 0 2.041 7.77L5.28 4.531A.749.749 0 0 0 5.5 4z"/></symbol><symbol id="spectrum-css-icon-ChevronUpSmall" viewBox="0 0 8 6"><path d="M4 .5a.749.749 0 0 0-.531.22C2.863 1.3 1.5 2.758.23 3.959A.75.75 0 1 0 1.291 5.02L4 2.311 6.709 5.02A.75.75 0 1 0 7.77 3.959L4.531.72A.749.749 0 0 0 4 .5z"/></symbol><symbol id="spectrum-css-icon-CornerTriangle" viewBox="0 0 5 5"><path d="M4.74.01a.25.25 0 0 0-.177.073l-4.48 4.48a.25.25 0 0 0 .177.427h4.48a.25.25 0 0 0 .25-.25V.26a.25.25 0 0 0-.25-.25z"/></symbol><symbol id="spectrum-css-icon-CrossLarge" viewBox="0 0 12 12"><path d="M11.7 10.283L7.414 6 11.7 1.717A1 1 0 1 0 10.283.3L6 4.586 1.717.3A1 1 0 1 0 .3 1.717L4.586 6 .3 10.283A1 1 0 1 0 1.717 11.7L6 7.414l4.283 4.286a1 1 0 1 0 1.417-1.417z"/></symbol><symbol id="spectrum-css-icon-CrossMedium" viewBox="0 0 8 8"><path d="M7.77 6.709L5.061 4 7.77 1.291A.75.75 0 1 0 6.709.23L4 2.939 1.291.23A.75.75 0 1 0 .23 1.291L2.939 4 .23 6.709A.75.75 0 1 0 1.291 7.77L4 5.061 6.709 7.77A.75.75 0 1 0 7.77 6.709z"/></symbol><symbol id="spectrum-css-icon-CrossSmall" viewBox="0 0 8 8"><path d="M7.317 6.433L4.884 4l2.433-2.433a.625.625 0 0 0-.884-.884L4 3.116 1.567.683a.625.625 0 0 0-.884.884L3.116 4 .683 6.433a.625.625 0 0 0 .884.884L4 4.884l2.433 2.433a.625.625 0 0 0 .884-.884z"/></symbol><symbol id="spectrum-css-icon-DashSmall" viewBox="0 0 10 10"><path d="M8 4H2a1 1 0 0 0 0 2h6a1 1 0 0 0 0-2z"/></symbol><symbol id="spectrum-css-icon-DoubleGripper" viewBox="0 0 16 4"><path d="M15.49 3H.51a.5.5 0 1 0 0 1h14.98a.5.5 0 1 0 0-1zM.51 1h14.98a.5.5 0 0 0 0-1H.51a.5.5 0 0 0 0 1z"/></symbol><symbol id="spectrum-css-icon-InfoMedium" viewBox="0 0 18 18"><path d="M9 1a8 8 0 1 0 8 8 8 8 0 0 0-8-8zm-.15 2.15a1.359 1.359 0 0 1 1.431 1.283v.129a1.332 1.332 0 0 1-1.223 1.432 1.444 1.444 0 0 1-.208 0 1.353 1.353 0 0 1-1.432-1.269 1.5 1.5 0 0 1 0-.164 1.359 1.359 0 0 1 1.3-1.412c.047-.002.089-.001.132.001zM11 13.5a.5.5 0 0 1-.5.5h-3a.5.5 0 0 1-.5-.5v-1a.5.5 0 0 1 .5-.5H8V9h-.5a.5.5 0 0 1-.5-.5v-1a.5.5 0 0 1 .5-.5h2a.5.5 0 0 1 .5.5V12h.5a.5.5 0 0 1 .5.5z"/></symbol><symbol id="spectrum-css-icon-InfoSmall" viewBox="0 0 14 14"><path d="M7 .778A6.222 6.222 0 1 0 13.222 7 6.222 6.222 0 0 0 7 .778zM6.883 2.45A1.056 1.056 0 0 1 8 3.448v.1a1.036 1.036 0 0 1-.952 1.114 1.1 1.1 0 0 1-.162 0 1.052 1.052 0 0 1-1.116-.987.911.911 0 0 1 0-.128 1.056 1.056 0 0 1 1.014-1.1l.099.003zm1.673 8.05a.389.389 0 0 1-.389.389H5.833a.389.389 0 0 1-.389-.389v-.778a.389.389 0 0 1 .389-.389h.389V7h-.389a.389.389 0 0 1-.389-.389v-.778a.39.39 0 0 1 .389-.389h1.556a.389.389 0 0 1 .389.389v3.5h.389a.389.389 0 0 1 .389.389z"/></symbol><symbol id="spectrum-css-icon-Magnifier" viewBox="0 0 16 16"><path d="M15.77 14.709l-4.534-4.534a6.013 6.013 0 1 0-1.061 1.061l4.534 4.534a.75.75 0 1 0 1.061-1.061zM6.5 11A4.5 4.5 0 1 1 11 6.5 4.505 4.505 0 0 1 6.5 11z"/></symbol><symbol id="spectrum-css-icon-SkipLeft" viewBox="0 0 9 10"><path d="M8.7 8.283L5.414 5 8.7 1.717A1 1 0 1 0 7.283.3l-3.99 3.99a1 1 0 0 0 0 1.414L7.283 9.7A1 1 0 1 0 8.7 8.283zM1 .01a1 1 0 0 0-1 1v7.98a1 1 0 0 0 2 0V1.01a1 1 0 0 0-1-1z"/></symbol><symbol id="spectrum-css-icon-SkipRight" viewBox="0 0 9 10"><path d="M8 .01a1 1 0 0 0-1 1v7.98a1 1 0 1 0 2 0V1.01a1 1 0 0 0-1-1zM6 5a1 1 0 0 0-.293-.707L1.717.3A1 1 0 1 0 .3 1.717L3.586 5 .3 8.283A1 1 0 1 0 1.717 9.7l3.99-3.99A1 1 0 0 0 6 5z"/></symbol><symbol id="spectrum-css-icon-Star" viewBox="0 0 18 18"><path d="M9.241.3L11.4 6.015l6.106.289a.255.255 0 0 1 .147.454l-4.77 3.823 1.612 5.9a.255.255 0 0 1-.386.28L9 13.4l-5.11 3.358a.255.255 0 0 1-.386-.28l1.612-5.9L.348 6.757A.255.255 0 0 1 .5 6.3l6.1-.285L8.763.3a.255.255 0 0 1 .478 0z"/></symbol><symbol id="spectrum-css-icon-StarOutline" viewBox="0 0 18 18"><path d="M9.031 2.541l1.777 4.753 5.11.241-3.987 3.2 1.336 4.913L9 12.866l-4.281 2.808 1.352-4.937-3.987-3.2 5.1-.245zM9.042.412a.369.369 0 0 0-.349.239L6.486 6.326l-6.1.293a.375.375 0 0 0-.217.667l4.762 3.821L3.318 17a.376.376 0 0 0 .264.462.406.406 0 0 0 .1.013.367.367 0 0 0 .2-.063L9 14.061l5.1 3.324a.371.371 0 0 0 .576-.314.369.369 0 0 0-.013-.1l-1.6-5.866 4.768-3.825a.375.375 0 0 0-.217-.667l-6.1-.287L9.393.655a.369.369 0 0 0-.351-.243z"/></symbol><symbol id="spectrum-css-icon-SuccessMedium" viewBox="0 0 18 18"><path d="M9 1a8 8 0 1 0 8 8 8 8 0 0 0-8-8zm5.333 4.54l-6.324 8.13a.6.6 0 0 1-.437.23h-.037a.6.6 0 0 1-.425-.176l-3.893-3.9a.6.6 0 0 1 0-.849l.663-.663a.6.6 0 0 1 .848 0L7.4 10.991l5.256-6.754a.6.6 0 0 1 .843-.1l.728.566a.6.6 0 0 1 .106.837z"/></symbol><symbol id="spectrum-css-icon-SuccessSmall" viewBox="0 0 14 14"><path d="M7 .778A6.222 6.222 0 1 0 13.222 7 6.222 6.222 0 0 0 7 .778zm4.148 3.531l-4.919 6.323a.464.464 0 0 1-.34.179h-.028a.468.468 0 0 1-.331-.137L2.5 7.641a.467.467 0 0 1 0-.66l.516-.516a.466.466 0 0 1 .659 0l2.081 2.084L9.844 3.3a.467.467 0 0 1 .655-.078l.566.44a.466.466 0 0 1 .083.647z"/></symbol><symbol id="spectrum-css-icon-TripleGripper" viewBox="0 0 10 7"><path d="M9.49 6H.51a.5.5 0 1 0 0 1h8.98a.5.5 0 0 0 0-1zM9.49 3H.51a.5.5 0 1 0 0 1h8.98a.5.5 0 0 0 0-1zM.51 1h8.98a.5.5 0 0 0 0-1H.51a.5.5 0 0 0 0 1z"/></symbol></svg>