<svg xmlns="http://www.w3.org/2000/svg"><symbol id="spectrum-css-icon-AlertMedium"><path d="M8.564 1.289L.2 16.256A.5.5 0 0 0 .636 17h16.728a.5.5 0 0 0 .5-.5.494.494 0 0 0-.064-.244L9.436 1.289a.5.5 0 0 0-.872 0zM10 14.75a.25.25 0 0 1-.25.25h-1.5a.25.25 0 0 1-.25-.25v-1.5a.25.25 0 0 1 .25-.25h1.5a.25.25 0 0 1 .25.25zm0-3a.25.25 0 0 1-.25.25h-1.5a.25.25 0 0 1-.25-.25v-6a.25.25 0 0 1 .25-.25h1.5a.25.25 0 0 1 .25.25z" class="spectrum-UIIcon--medium"/><path d="M10.563 2.206l-9.249 16.55a.5.5 0 0 0 .436.744h18.5a.5.5 0 0 0 .5-.5.494.494 0 0 0-.064-.244l-9.251-16.55a.5.5 0 0 0-.872 0zM12 17.25a.25.25 0 0 1-.25.25h-1.5a.25.25 0 0 1-.25-.25v-1.5a.25.25 0 0 1 .25-.25h1.5a.25.25 0 0 1 .25.25zm0-3.5a.25.25 0 0 1-.25.25h-1.5a.25.25 0 0 1-.25-.25v-6a.25.25 0 0 1 .25-.25h1.5a.25.25 0 0 1 .25.25z" class="spectrum-UIIcon--large"/></symbol><symbol id="spectrum-css-icon-AlertSmall"><path d="M6.661 1L.156 12.644a.388.388 0 0 0 .339.578h13.01a.389.389 0 0 0 .389-.389.379.379 0 0 0-.05-.189L7.339 1A.388.388 0 0 0 6.81.854.381.381 0 0 0 6.661 1zm1.117 10.472a.2.2 0 0 1-.195.2H6.417a.2.2 0 0 1-.195-.2v-1.166a.2.2 0 0 1 .195-.195h1.166a.2.2 0 0 1 .195.195zm0-2.333a.194.194 0 0 1-.195.194H6.417a.194.194 0 0 1-.195-.194V4.472a.194.194 0 0 1 .195-.194h1.166a.194.194 0 0 1 .195.194z" class="spectrum-UIIcon--medium"/><path d="M8.564 1.289L.2 16.256A.5.5 0 0 0 .636 17h16.728a.5.5 0 0 0 .5-.5.494.494 0 0 0-.064-.244L9.436 1.289a.5.5 0 0 0-.872 0zM10 14.75a.25.25 0 0 1-.25.25h-1.5a.25.25 0 0 1-.25-.25v-1.5a.25.25 0 0 1 .25-.25h1.5a.25.25 0 0 1 .25.25zm0-3a.25.25 0 0 1-.25.25h-1.5a.25.25 0 0 1-.25-.25v-6a.25.25 0 0 1 .25-.25h1.5a.25.25 0 0 1 .25.25z" class="spectrum-UIIcon--large"/></symbol><symbol id="spectrum-css-icon-ArrowDownSmall"><path d="M7.99 6.01a1 1 0 0 0-1.707-.71L5 6.586V1a1 1 0 0 0-2 0v5.586L1.717 5.3A1 1 0 1 0 .3 6.717L3.293 9.7a1 1 0 0 0 1.414 0L7.7 6.717a1 1 0 0 0 .29-.707z" class="spectrum-UIIcon--medium"/><path d="M9.99 7.01a1 1 0 0 0-1.707-.71L6 8.586V1.01a1 1 0 0 0-2 0v7.576L1.717 6.3A1 1 0 1 0 .3 7.717l3.99 3.98a1 1 0 0 0 1.414 0L9.7 7.717a1 1 0 0 0 .29-.707z" class="spectrum-UIIcon--large"/></symbol><symbol id="spectrum-css-icon-ArrowLeftMedium"><path d="M12.99 4H3.414L5.7 1.717A1 1 0 1 0 4.283.3L.3 4.293a1 1 0 0 0 0 1.414L4.283 9.7A1 1 0 1 0 5.7 8.283L3.414 6h9.576a1 1 0 1 0 0-2z" class="spectrum-UIIcon--medium"/><path d="M16.99 6H3.414L7.7 1.717A1 1 0 1 0 6.283.3L.3 6.293a1 1 0 0 0 0 1.414l5.98 5.99a1 1 0 1 0 1.42-1.414L3.414 8H16.99a1 1 0 0 0 0-2z" class="spectrum-UIIcon--large"/></symbol><symbol id="spectrum-css-icon-CheckmarkMedium"><path d="M4.5 10a1.023 1.023 0 0 1-.8-.384l-2.488-3a1 1 0 0 1 1.577-1.233L4.5 7.376l4.712-5.991a1 1 0 1 1 1.576 1.23l-5.511 7A.977.977 0 0 1 4.5 10z" class="spectrum-UIIcon--medium"/><path d="M6 14a1 1 0 0 1-.788-.385l-4-5a1 1 0 1 1 1.576-1.23L6 11.376l7.213-8.991a1 1 0 1 1 1.576 1.231l-8 10A1 1 0 0 1 6 14z" class="spectrum-UIIcon--large"/></symbol><symbol id="spectrum-css-icon-CheckmarkSmall"><path d="M3.788 9A1 1 0 0 1 3 8.615l-2.288-3a1 1 0 1 1 1.576-1.23l1.5 1.991 3.924-4.991a1 1 0 1 1 1.576 1.23l-4.712 6A1 1 0 0 1 3.788 9z" class="spectrum-UIIcon--medium"/><path d="M4.5 11a1 1 0 0 1-.788-.385l-3-4A.991.991 0 0 1 .5 6a1 1 0 0 1 1.788-.616L4.5 8.376l5.212-6.991a1 1 0 1 1 1.576 1.231l-6 8A1 1 0 0 1 4.5 11z" class="spectrum-UIIcon--large"/></symbol><symbol id="spectrum-css-icon-ChevronDownMedium"><path d="M9.99 1.01A1 1 0 0 0 8.283.3L5 3.586 1.717.3A1 1 0 1 0 .3 1.717L4.293 5.7a1 1 0 0 0 1.414 0L9.7 1.717a1 1 0 0 0 .29-.707z" class="spectrum-UIIcon--medium"/><path d="M11.99 1.51A1 1 0 0 0 10.283.8L6 5.086 1.717.8A1 1 0 1 0 .3 2.217l4.99 4.99a1 1 0 0 0 1.414 0l4.99-4.99a1 1 0 0 0 .296-.707z" class="spectrum-UIIcon--large"/></symbol><symbol id="spectrum-css-icon-ChevronDownSmall"><path d="M4 5.5a.749.749 0 0 0 .531-.22C5.137 4.7 6.5 3.242 7.77 2.041A.75.75 0 1 0 6.709.98L4 3.689 1.291.98A.75.75 0 1 0 .23 2.041L3.469 5.28A.749.749 0 0 0 4 5.5z" class="spectrum-UIIcon--medium"/><path d="M5 7a.749.749 0 0 0 .531-.22L9.77 2.541A.75.75 0 1 0 8.709 1.48L5 5.189 1.291 1.48A.75.75 0 1 0 .23 2.541L4.469 6.78A.749.749 0 0 0 5 7z" class="spectrum-UIIcon--large"/></symbol><symbol id="spectrum-css-icon-ChevronLeftLarge"><path d="M9.605 13.843L3.551 8l6.056-5.84A1.25 1.25 0 0 0 8.74.01a1.237 1.237 0 0 0-.864.353L.882 7.1a1.244 1.244 0 0 0 0 1.8l6.988 6.742a1.248 1.248 0 1 0 1.732-1.8z" class="spectrum-UIIcon--medium"/><path d="M12.109 17.853L4.043 10l8.066-7.839a1.242 1.242 0 0 0 .381-.894 1.24 1.24 0 0 0-2.119-.891L1.378 9.108a1.245 1.245 0 0 0 0 1.79l8.99 8.744a1.247 1.247 0 1 0 1.738-1.789z" class="spectrum-UIIcon--large"/></symbol><symbol id="spectrum-css-icon-ChevronLeftMedium"><path d="M5.7 8.283L2.414 5 5.7 1.717A1 1 0 1 0 4.283.3L.3 4.293a1 1 0 0 0 0 1.414L4.283 9.7A1 1 0 1 0 5.7 8.283z" class="spectrum-UIIcon--medium"/><path d="M7.2 10.283L2.914 6 7.2 1.717A1 1 0 1 0 5.783.3L.793 5.293a1 1 0 0 0 0 1.414l4.99 4.99A1 1 0 1 0 7.2 10.283z" class="spectrum-UIIcon--large"/></symbol><symbol id="spectrum-css-icon-ChevronRightLarge"><path d="M11.5 8a1.236 1.236 0 0 0-.386-.9L4.128.36A1.248 1.248 0 1 0 2.4 2.157L8.45 8l-6.058 5.841a1.248 1.248 0 1 0 1.733 1.8L11.117 8.9A1.246 1.246 0 0 0 11.5 8z" class="spectrum-UIIcon--medium"/><path d="M15 10a1.24 1.24 0 0 0-.381-.894L5.632.364a1.249 1.249 0 1 0-1.741 1.791L11.957 10l-8.069 7.851a1.245 1.245 0 0 0 .872 2.139 1.235 1.235 0 0 0 .869-.348l8.992-8.742A1.243 1.243 0 0 0 15 10z" class="spectrum-UIIcon--large"/></symbol><symbol id="spectrum-css-icon-ChevronRightMedium"><path d="M5.99 5a1 1 0 0 0-.29-.707L1.717.3A1 1 0 1 0 .3 1.717L3.586 5 .3 8.283A1 1 0 1 0 1.717 9.7L5.7 5.707A1 1 0 0 0 5.99 5z" class="spectrum-UIIcon--medium"/><path d="M7.5 6a1 1 0 0 0-.293-.707L2.217.3A1 1 0 1 0 .8 1.717L5.086 6 .8 10.283A1 1 0 1 0 2.217 11.7l4.99-4.99A1 1 0 0 0 7.5 6z" class="spectrum-UIIcon--large"/></symbol><symbol id="spectrum-css-icon-ChevronRightSmall"><path d="M5.5 4a.749.749 0 0 0-.22-.531C4.7 2.863 3.242 1.5 2.041.23A.75.75 0 1 0 .98 1.291L3.689 4 .98 6.709A.75.75 0 1 0 2.041 7.77L5.28 4.531A.749.749 0 0 0 5.5 4z" class="spectrum-UIIcon--medium"/><path d="M7 5a.749.749 0 0 0-.22-.531L2.541.23A.75.75 0 1 0 1.48 1.291L5.189 5 1.48 8.709A.75.75 0 1 0 2.541 9.77L6.78 5.531A.749.749 0 0 0 7 5z" class="spectrum-UIIcon--large"/></symbol><symbol id="spectrum-css-icon-ChevronUpSmall"><path d="M4 .5a.749.749 0 0 0-.531.22C2.863 1.3 1.5 2.758.23 3.959A.75.75 0 1 0 1.291 5.02L4 2.311 6.709 5.02A.75.75 0 1 0 7.77 3.959L4.531.72A.749.749 0 0 0 4 .5z" class="spectrum-UIIcon--medium"/><path d="M5 1a.749.749 0 0 0-.531.22L.23 5.459A.75.75 0 1 0 1.291 6.52L5 2.811 8.709 6.52A.75.75 0 1 0 9.77 5.459L5.531 1.22A.749.749 0 0 0 5 1z" class="spectrum-UIIcon--large"/></symbol><symbol id="spectrum-css-icon-CornerTriangle"><path d="M4.74.01a.25.25 0 0 0-.177.073l-4.48 4.48a.25.25 0 0 0 .177.427h4.48a.25.25 0 0 0 .25-.25V.26a.25.25 0 0 0-.25-.25z" class="spectrum-UIIcon--medium"/><path d="M5.74.01a.25.25 0 0 0-.177.073l-5.48 5.48a.25.25 0 0 0 .177.427h5.48a.25.25 0 0 0 .25-.25V.26a.25.25 0 0 0-.25-.25z" class="spectrum-UIIcon--large"/></symbol><symbol id="spectrum-css-icon-CrossLarge"><path d="M11.7 10.283L7.414 6 11.7 1.717A1 1 0 1 0 10.283.3L6 4.586 1.717.3A1 1 0 1 0 .3 1.717L4.586 6 .3 10.283A1 1 0 1 0 1.717 11.7L6 7.414l4.283 4.286a1 1 0 1 0 1.417-1.417z" class="spectrum-UIIcon--medium"/><path d="M15.7 14.283L9.414 8 15.7 1.717A1 1 0 1 0 14.283.3L8 6.586 1.717.3A1 1 0 1 0 .3 1.717L6.586 8 .3 14.283A1 1 0 1 0 1.717 15.7L8 9.414l6.283 6.286a1 1 0 1 0 1.417-1.417z" class="spectrum-UIIcon--large"/></symbol><symbol id="spectrum-css-icon-CrossMedium"><path d="M7.77 6.709L5.061 4 7.77 1.291A.75.75 0 1 0 6.709.23L4 2.939 1.291.23A.75.75 0 1 0 .23 1.291L2.939 4 .23 6.709A.75.75 0 1 0 1.291 7.77L4 5.061 6.709 7.77A.75.75 0 1 0 7.77 6.709z" class="spectrum-UIIcon--medium"/><path d="M9.77 8.709L6.061 5 9.77 1.291A.75.75 0 1 0 8.709.23L5 3.939 1.291.23A.75.75 0 1 0 .23 1.291L3.939 5 .23 8.709A.75.75 0 1 0 1.291 9.77L5 6.061 8.709 9.77A.75.75 0 1 0 9.77 8.709z" class="spectrum-UIIcon--large"/></symbol><symbol id="spectrum-css-icon-CrossSmall"><path d="M7.317 6.433L4.884 4l2.433-2.433a.625.625 0 0 0-.884-.884L4 3.116 1.567.683a.625.625 0 0 0-.884.884L3.116 4 .683 6.433a.625.625 0 0 0 .884.884L4 4.884l2.433 2.433a.625.625 0 0 0 .884-.884z" class="spectrum-UIIcon--medium"/><path d="M9.317 8.433L5.884 5l3.433-3.433a.625.625 0 0 0-.884-.884L5 4.116 1.567.683a.625.625 0 0 0-.884.884C.83 1.713 2.769 3.657 4.116 5L.683 8.433a.625.625 0 0 0 .884.884L5 5.884l3.433 3.433a.625.625 0 0 0 .884-.884z" class="spectrum-UIIcon--large"/></symbol><symbol id="spectrum-css-icon-DashSmall"><path d="M8 4H2a1 1 0 0 0 0 2h6a1 1 0 0 0 0-2z" class="spectrum-UIIcon--medium"/><path d="M10.99 5H1.01a1 1 0 0 0 0 2h9.98a1 1 0 1 0 0-2z" class="spectrum-UIIcon--large"/></symbol><symbol id="spectrum-css-icon-DoubleGripper"><path d="M15.49 3H.51a.5.5 0 1 0 0 1h14.98a.5.5 0 1 0 0-1zM.51 1h14.98a.5.5 0 0 0 0-1H.51a.5.5 0 0 0 0 1z" class="spectrum-UIIcon--medium"/><path d="M19.49 4H.51a.5.5 0 1 0 0 1h18.98a.5.5 0 0 0 0-1zM.51 1h18.98a.5.5 0 0 0 0-1H.51a.5.5 0 0 0 0 1z" class="spectrum-UIIcon--large"/></symbol><symbol id="spectrum-css-icon-InfoMedium"><path d="M9 1a8 8 0 1 0 8 8 8 8 0 0 0-8-8zm-.15 2.15a1.359 1.359 0 0 1 1.431 1.283v.129a1.332 1.332 0 0 1-1.223 1.432 1.444 1.444 0 0 1-.208 0 1.353 1.353 0 0 1-1.432-1.269 1.5 1.5 0 0 1 0-.164 1.359 1.359 0 0 1 1.3-1.412c.047-.002.089-.001.132.001zM11 13.5a.5.5 0 0 1-.5.5h-3a.5.5 0 0 1-.5-.5v-1a.5.5 0 0 1 .5-.5H8V9h-.5a.5.5 0 0 1-.5-.5v-1a.5.5 0 0 1 .5-.5h2a.5.5 0 0 1 .5.5V12h.5a.5.5 0 0 1 .5.5z" class="spectrum-UIIcon--medium"/><path d="M11 2a9 9 0 1 0 9 9 9 9 0 0 0-9-9zm-.15 2.65a1.359 1.359 0 0 1 1.431 1.283v.129a1.332 1.332 0 0 1-1.224 1.432 1.444 1.444 0 0 1-.208 0 1.353 1.353 0 0 1-1.431-1.269 1.5 1.5 0 0 1 0-.164 1.359 1.359 0 0 1 1.3-1.412c.047-.002.089-.001.132.001zM13.5 16a.5.5 0 0 1-.5.5H9a.5.5 0 0 1-.5-.5v-1a.5.5 0 0 1 .5-.5h1v-4H9a.5.5 0 0 1-.5-.5V9a.5.5 0 0 1 .5-.5h2.5a.5.5 0 0 1 .5.5v5.5h1a.5.5 0 0 1 .5.5z" class="spectrum-UIIcon--large"/></symbol><symbol id="spectrum-css-icon-InfoSmall"><path d="M7 .778A6.222 6.222 0 1 0 13.222 7 6.222 6.222 0 0 0 7 .778zM6.883 2.45A1.056 1.056 0 0 1 8 3.448v.1a1.036 1.036 0 0 1-.952 1.114 1.1 1.1 0 0 1-.162 0 1.052 1.052 0 0 1-1.116-.987.911.911 0 0 1 0-.128 1.056 1.056 0 0 1 1.014-1.1l.099.003zm1.673 8.05a.389.389 0 0 1-.389.389H5.833a.389.389 0 0 1-.389-.389v-.778a.389.389 0 0 1 .389-.389h.389V7h-.389a.389.389 0 0 1-.389-.389v-.778a.39.39 0 0 1 .389-.389h1.556a.389.389 0 0 1 .389.389v3.5h.389a.389.389 0 0 1 .389.389z" class="spectrum-UIIcon--medium"/><path d="M9 1a8 8 0 1 0 8 8 8 8 0 0 0-8-8zm-.15 2.15a1.359 1.359 0 0 1 1.431 1.283v.129a1.332 1.332 0 0 1-1.223 1.432 1.444 1.444 0 0 1-.208 0 1.353 1.353 0 0 1-1.432-1.269 1.5 1.5 0 0 1 0-.164 1.359 1.359 0 0 1 1.3-1.412c.047-.002.089-.001.132.001zM11 13.5a.5.5 0 0 1-.5.5h-3a.5.5 0 0 1-.5-.5v-1a.5.5 0 0 1 .5-.5H8V9h-.5a.5.5 0 0 1-.5-.5v-1a.5.5 0 0 1 .5-.5h2a.5.5 0 0 1 .5.5V12h.5a.5.5 0 0 1 .5.5z" class="spectrum-UIIcon--large"/></symbol><symbol id="spectrum-css-icon-Magnifier"><path d="M15.77 14.709l-4.534-4.534a6.013 6.013 0 1 0-1.061 1.061l4.534 4.534a.75.75 0 1 0 1.061-1.061zM6.5 11A4.5 4.5 0 1 1 11 6.5 4.505 4.505 0 0 1 6.5 11z" class="spectrum-UIIcon--medium"/><path d="M19.77 18.709l-5.464-5.463a7.5 7.5 0 1 0-1.06 1.06l5.463 5.464a.75.75 0 1 0 1.061-1.061zM2.5 8.5a6 6 0 1 1 6 6 6.007 6.007 0 0 1-6-6z" class="spectrum-UIIcon--large"/></symbol><symbol id="spectrum-css-icon-SkipLeft"><path d="M8.7 8.283L5.414 5 8.7 1.717A1 1 0 1 0 7.283.3l-3.99 3.99a1 1 0 0 0 0 1.414L7.283 9.7A1 1 0 1 0 8.7 8.283zM1 .01a1 1 0 0 0-1 1v7.98a1 1 0 0 0 2 0V1.01a1 1 0 0 0-1-1z" class="spectrum-UIIcon--medium"/><path d="M9.7 10.283L5.414 6 9.7 1.717A1 1 0 1 0 8.283.3l-4.99 4.99a1 1 0 0 0 0 1.414l4.99 4.99A1 1 0 1 0 9.7 10.283zM1 .01a1 1 0 0 0-1 1v9.98a1 1 0 0 0 2 0V1.01a1 1 0 0 0-1-1z" class="spectrum-UIIcon--large"/></symbol><symbol id="spectrum-css-icon-SkipRight"><path d="M8 .01a1 1 0 0 0-1 1v7.98a1 1 0 1 0 2 0V1.01a1 1 0 0 0-1-1zM6 5a1 1 0 0 0-.293-.707L1.717.3A1 1 0 1 0 .3 1.717L3.586 5 .3 8.283A1 1 0 1 0 1.717 9.7l3.99-3.99A1 1 0 0 0 6 5z" class="spectrum-UIIcon--medium"/><path d="M9 .01a1 1 0 0 0-1 1v9.98a1 1 0 1 0 2 0V1.01a1 1 0 0 0-1-1zM7 6a1 1 0 0 0-.293-.707L1.717.3A1 1 0 1 0 .3 1.717L4.586 6 .3 10.283A1 1 0 1 0 1.717 11.7l4.99-4.99A1 1 0 0 0 7 6z" class="spectrum-UIIcon--large"/></symbol><symbol id="spectrum-css-icon-Star"><path d="M9.241.3L11.4 6.015l6.106.289a.255.255 0 0 1 .147.454l-4.77 3.823 1.612 5.9a.255.255 0 0 1-.386.28L9 13.4l-5.11 3.358a.255.255 0 0 1-.386-.28l1.612-5.9L.348 6.757A.255.255 0 0 1 .5 6.3l6.1-.285L8.763.3a.255.255 0 0 1 .478 0z" class="spectrum-UIIcon--medium"/><path d="M11.361 1.68l2.259 5.975a.257.257 0 0 0 .228.166l6.381.3a.386.386 0 0 1 .223.686L15.467 12.8a.256.256 0 0 0-.087.268l1.684 6.162a.386.386 0 0 1-.584.424l-5.34-3.506a.258.258 0 0 0-.282 0l-5.34 3.506a.386.386 0 0 1-.584-.424l1.686-6.158a.256.256 0 0 0-.087-.268l-4.985-4a.386.386 0 0 1 .223-.686l6.381-.3a.257.257 0 0 0 .228-.166l2.259-5.972a.386.386 0 0 1 .722 0z" class="spectrum-UIIcon--large"/></symbol><symbol id="spectrum-css-icon-StarOutline"><path d="M9.031 2.541l1.777 4.753 5.11.241-3.987 3.2 1.336 4.913L9 12.866l-4.281 2.808 1.352-4.937-3.987-3.2 5.1-.245zM9.042.412a.369.369 0 0 0-.349.239L6.486 6.326l-6.1.293a.375.375 0 0 0-.217.667l4.762 3.821L3.318 17a.376.376 0 0 0 .264.462.406.406 0 0 0 .1.013.367.367 0 0 0 .2-.063L9 14.061l5.1 3.324a.371.371 0 0 0 .576-.314.369.369 0 0 0-.013-.1l-1.6-5.866 4.768-3.825a.375.375 0 0 0-.217-.667l-6.1-.287L9.393.655a.369.369 0 0 0-.351-.243z" class="spectrum-UIIcon--medium"/><path d="M11 4.9l1.231 3.255A1.777 1.777 0 0 0 13.809 9.3l3.476.165-2.715 2.18a1.777 1.777 0 0 0-.6 1.855l.918 3.357-2.909-1.91a1.777 1.777 0 0 0-1.951 0l-2.909 1.91.914-3.357a1.779 1.779 0 0 0-.6-1.856L4.715 9.469 8.191 9.3a1.777 1.777 0 0 0 1.578-1.142zm0-3.458a.449.449 0 0 0-.426.294L8.35 7.621a.26.26 0 0 1-.231.168l-6.282.3a.456.456 0 0 0-.434.476.461.461 0 0 0 .171.334l4.907 3.933a.26.26 0 0 1 .088.271l-1.657 6.064a.457.457 0 0 0 .321.561.438.438 0 0 0 .119.016.45.45 0 0 0 .249-.076l5.257-3.452a.259.259 0 0 1 .285 0l5.257 3.451a.45.45 0 0 0 .249.076.458.458 0 0 0 .456-.458.438.438 0 0 0-.016-.119L15.43 13.1a.26.26 0 0 1 .088-.271L20.426 8.9a.455.455 0 0 0-.263-.81l-6.282-.3a.26.26 0 0 1-.231-.168l-2.224-5.883A.449.449 0 0 0 11 1.445z" class="spectrum-UIIcon--large"/></symbol><symbol id="spectrum-css-icon-SuccessMedium"><path d="M9 1a8 8 0 1 0 8 8 8 8 0 0 0-8-8zm5.333 4.54l-6.324 8.13a.6.6 0 0 1-.437.23h-.037a.6.6 0 0 1-.425-.176l-3.893-3.9a.6.6 0 0 1 0-.849l.663-.663a.6.6 0 0 1 .848 0L7.4 10.991l5.256-6.754a.6.6 0 0 1 .843-.1l.728.566a.6.6 0 0 1 .106.837z" class="spectrum-UIIcon--medium"/><path d="M11 2a9 9 0 1 0 9 9 9 9 0 0 0-9-9zm5.638 5.609L10.1 15.652a.5.5 0 0 1-.7.073.44.44 0 0 1-.039-.035L5.086 11.5a.5.5 0 0 1 0-.707l.707-.707a.5.5 0 0 1 .707 0L9.6 13.1l5.486-6.751a.5.5 0 0 1 .7-.073l.776.631a.5.5 0 0 1 .076.702z" class="spectrum-UIIcon--large"/></symbol><symbol id="spectrum-css-icon-SuccessSmall"><path d="M7 .778A6.222 6.222 0 1 0 13.222 7 6.222 6.222 0 0 0 7 .778zm4.148 3.531l-4.919 6.323a.464.464 0 0 1-.34.179h-.028a.468.468 0 0 1-.331-.137L2.5 7.641a.467.467 0 0 1 0-.66l.516-.516a.466.466 0 0 1 .659 0l2.081 2.084L9.844 3.3a.467.467 0 0 1 .655-.078l.566.44a.466.466 0 0 1 .083.647z" class="spectrum-UIIcon--medium"/><path d="M9 1a8 8 0 1 0 8 8 8 8 0 0 0-8-8zm5.333 4.54l-6.324 8.13a.6.6 0 0 1-.437.23h-.037a.6.6 0 0 1-.425-.176l-3.893-3.9a.6.6 0 0 1 0-.849l.663-.663a.6.6 0 0 1 .848 0L7.4 10.991l5.256-6.754a.6.6 0 0 1 .843-.1l.728.566a.6.6 0 0 1 .106.837z" class="spectrum-UIIcon--large"/></symbol><symbol id="spectrum-css-icon-TripleGripper"><path d="M9.49 6H.51a.5.5 0 1 0 0 1h8.98a.5.5 0 0 0 0-1zM9.49 3H.51a.5.5 0 1 0 0 1h8.98a.5.5 0 0 0 0-1zM.51 1h8.98a.5.5 0 0 0 0-1H.51a.5.5 0 0 0 0 1z" class="spectrum-UIIcon--medium"/><path d="M11.49 8H.51a.5.5 0 1 0 0 1h10.98a.5.5 0 1 0 0-1zM11.49 4H.51a.5.5 0 1 0 0 1h10.98a.5.5 0 0 0 0-1zM.51 1h10.98a.5.5 0 0 0 0-1H.51a.5.5 0 0 0 0 1z" class="spectrum-UIIcon--large"/></symbol></svg>