<svg xmlns="http://www.w3.org/2000/svg"><symbol id="spectrum-css-icon-AccordionChevron" viewBox="0 0 6 10"><path d="M6 5.013a.987.987 0 0 0-.281-.708l-4-4A1 1 0 1 0 .305 1.72l3.293 3.293L.305 8.305A.945.945 0 0 0 0 9a1.001 1.001 0 0 0 1 1 .943.943 0 0 0 .72-.281l3.999-4A.985.985 0 0 0 6 5.013z"/></symbol><symbol id="spectrum-css-icon-AlertError" viewBox="0 0 17 16"><path d="M16.911 14.901L9.164.397a.754.754 0 0 0-1.328 0L.09 14.901A.748.748 0 0 0 .753 16h15.494a.748.748 0 0 0 .664-1.099zm-7.385-1.144a.25.25 0 0 1-.25.249H7.772a.25.25 0 0 1-.25-.25v-1.495a.25.25 0 0 1 .25-.25h1.504a.25.25 0 0 1 .25.25zm0-2.991a.25.25 0 0 1-.25.249H7.772a.25.25 0 0 1-.25-.25V5.283a.25.25 0 0 1 .25-.25h1.504a.25.25 0 0 1 .25.25z"/></symbol><symbol id="spectrum-css-icon-AlertHelp" viewBox="0 0 16 16"><path d="M8 0a8 8 0 1 0 8 8 8 8 0 0 0-8-8zm1.3 12.3a1.222 1.222 0 0 1-.3.9 1.223 1.223 0 0 1-.9.3 1.2 1.2 0 0 1 0-2.4c.8 0 1.3.5 1.2 1.2zm.1-4.5c-.4.4-.8.8-.8 1.2a1.135 1.135 0 0 0 .3.8v.1a.098.098 0 0 1-.1.1H7.4a.229.229 0 0 1-.2-.1 1.666 1.666 0 0 1-.4-1.1 2.772 2.772 0 0 1 1-1.7 2.772 2.772 0 0 0 1-1.7c0-.5-.4-1.1-1.4-1.1a5.018 5.018 0 0 0-2 .4h-.2V3.3c0-.1 0-.2.1-.2a6.183 6.183 0 0 1 2.4-.5c1.9 0 3.1 1.1 3.1 2.7a3.704 3.704 0 0 1-1.4 2.5z"/></symbol><symbol id="spectrum-css-icon-AlertInfo" viewBox="0 0 16 16"><path d="M8 0a8 8 0 1 0 8 8 8 8 0 0 0-8-8zm-.15 2.15a1.359 1.359 0 0 1 1.431 1.283q.004.064.001.129A1.333 1.333 0 0 1 7.85 4.994a1.353 1.353 0 0 1-1.432-1.432A1.359 1.359 0 0 1 7.72 2.149q.065-.003.13.001zM10 12.5a.5.5 0 0 1-.5.5h-3a.5.5 0 0 1-.5-.5v-1a.5.5 0 0 1 .5-.5H7V8h-.5a.5.5 0 0 1-.5-.5v-1a.5.5 0 0 1 .5-.5h2a.5.5 0 0 1 .5.5V11h.5a.5.5 0 0 1 .5.5z"/></symbol><symbol id="spectrum-css-icon-AlertSuccess" viewBox="0 0 16 16"><path d="M8 0a8 8 0 1 0 8 8 8.023 8.023 0 0 0-8-8zm5.396 6.104l-6.682 6.682a.5.5 0 0 1-.707 0L2.964 9.743a.5.5 0 0 1 0-.707l1.032-1.032a.5.5 0 0 1 .708 0L6.36 9.66l5.296-5.297a.5.5 0 0 1 .708 0l1.031 1.032a.5.5 0 0 1 0 .708z"/></symbol><symbol id="spectrum-css-icon-BreadcrumbChevron" viewBox="0 0 4 7"><path d="M4 3.5a.497.497 0 0 0-.147-.353L.86.153a.5.5 0 0 0-.72.693l.012.012L2.795 3.5.152 6.142a.5.5 0 1 0 .694.718l.012-.012 2.996-2.995A.497.497 0 0 0 4 3.5z"/></symbol><symbol id="spectrum-css-icon-CarouselLeftChevron" viewBox="0 0 12 16"><path d="M.5 7.999a1.24 1.24 0 0 0 .386.896l-.003.003 7 6.748.002-.003a1.246 1.246 0 1 0 1.746-1.777l-.016-.016.003-.003L3.55 7.999 9.618 2.15l-.003-.003A1.246 1.246 0 1 0 7.896.344l-.011.01-.003-.002-.015.015h-.001L.883 7.1l.002.003A1.24 1.24 0 0 0 .5 8z"/></symbol><symbol id="spectrum-css-icon-CarouselRightChevron" viewBox="0 0 12 16"><path d="M11.5 8.001a1.24 1.24 0 0 0-.386-.896l.003-.003-7-6.748-.002.003a1.246 1.246 0 1 0-1.746 1.777l.016.016-.003.003L8.45 8.001 2.382 13.85l.003.003a1.246 1.246 0 1 0 1.719 1.803l.011-.01.003.002.015-.015h.001L11.117 8.9l-.003-.003A1.24 1.24 0 0 0 11.5 8z"/></symbol><symbol id="spectrum-css-icon-CellGripper" viewBox="0 0 10 7"><path d="M.5 0h9a.5.5 0 0 1 .5.5.5.5 0 0 1-.5.5h-9A.5.5 0 0 1 0 .5.5.5 0 0 1 .5 0zm0 6h9a.5.5 0 0 1 .5.5.5.5 0 0 1-.5.5h-9a.5.5 0 0 1-.5-.5.5.5 0 0 1 .5-.5zm0-3h9a.5.5 0 0 1 .5.5.5.5 0 0 1-.5.5h-9a.5.5 0 0 1-.5-.5.5.5 0 0 1 .5-.5z"/></symbol><symbol id="spectrum-css-icon-CheckboxCheckmark" viewBox="0 0 12 12"><path d="M12 2.501a1 1 0 0 0-1.707-.708L4.5 7.586 2.207 5.293A1 1 0 1 0 .793 6.707l3 3a1 1 0 0 0 1.414 0l6.5-6.5A.997.997 0 0 0 12 2.501z"/></symbol><symbol id="spectrum-css-icon-CheckboxPartialCheckmark" viewBox="0 0 12 12"><path d="M1 5h10a1 1 0 0 1 0 2H1a1 1 0 0 1 0-2z"/></symbol><symbol id="spectrum-css-icon-CornerTriangle" viewBox="0 0 6 6"><path d="M6 .25v5.5a.25.25 0 0 1-.25.25H.25a.25.25 0 0 1-.177-.427l5.5-5.5A.25.25 0 0 1 6 .25z"/></symbol><symbol id="spectrum-css-icon-DragBarGripper" viewBox="0 0 16 4"><path d="M.5 0h15a.5.5 0 0 1 .5.5.5.5 0 0 1-.5.5H.5A.5.5 0 0 1 0 .5.5.5 0 0 1 .5 0zm0 3h15a.5.5 0 0 1 .5.5.5.5 0 0 1-.5.5H.5a.5.5 0 0 1-.5-.5.5.5 0 0 1 .5-.5z"/></symbol><symbol id="spectrum-css-icon-InlineError" viewBox="0 0 15 15"><path d="M14.929 13.94L8.164.545a.738.738 0 0 0-1.332.007L.074 13.927a.746.746 0 0 0 .663 1.07h13.5l.013.003a.745.745 0 0 0 .679-1.06zM8.5 12.75a.25.25 0 0 1-.25.25h-1.5a.25.25 0 0 1-.25-.25v-1.5a.25.25 0 0 1 .25-.25h1.5a.25.25 0 0 1 .25.25zm0-3a.25.25 0 0 1-.25.25h-1.5a.25.25 0 0 1-.25-.25v-5.5A.25.25 0 0 1 6.75 4h1.5a.25.25 0 0 1 .25.25z"/></symbol><symbol id="spectrum-css-icon-InlineHelp" viewBox="0 0 14 14"><path d="M7 0a7 7 0 1 0 7 7 7 7 0 0 0-7-7zm.095 12.438a1.414 1.414 0 1 1 0-2.825 1.377 1.377 0 0 1 1.472 1.403 1.357 1.357 0 0 1-1.472 1.422zm1.712-6.19l-.1.09c-.394.358-.841.765-.841 1.016a1.075 1.075 0 0 0 .179.583l.073.12-.057.186a.313.313 0 0 1-.284.163H6.436a.479.479 0 0 1-.326-.101 1.628 1.628 0 0 1-.422-1.092c0-.726.467-1.174 1.112-1.795.098-.095.196-.182.288-.264.314-.281.507-.463.507-.655 0-.133 0-.538-.893-.538a3.295 3.295 0 0 0-1.58.397.337.337 0 0 1-.327-.008l-.118-.074-.028-.191V2.832a.362.362 0 0 1 .197-.354A4.636 4.636 0 0 1 6.998 2c1.645 0 2.751.916 2.751 2.28a2.5 2.5 0 0 1-.942 1.967z"/></symbol><symbol id="spectrum-css-icon-InlineInfo" viewBox="0 0 14 14"><path d="M7 0a7 7 0 1 0 7 7 7 7 0 0 0-7-7zm.004 1.433a1.337 1.337 0 0 1 1.408 1.262q.003.063 0 .127A1.31 1.31 0 0 1 7.005 4.23a1.33 1.33 0 0 1-1.409-1.409 1.336 1.336 0 0 1 1.281-1.389q.064-.003.128 0zM9 10.563a.438.438 0 0 1-.438.437H5.438A.438.438 0 0 1 5 10.562V9.438A.438.438 0 0 1 5.438 9H6V6.75h-.563A.438.438 0 0 1 5 6.312v-.875A.438.438 0 0 1 5.438 5h2.125A.438.438 0 0 1 8 5.438V9h.563A.438.438 0 0 1 9 9.438z"/></symbol><symbol id="spectrum-css-icon-InlineSuccess" viewBox="0 0 14 14"><path d="M7 0a7 7 0 1 0 7 7 7.02 7.02 0 0 0-7-7zm4.722 5.34l-5.847 5.847a.438.438 0 0 1-.619 0L2.594 8.525a.437.437 0 0 1 0-.619l.903-.903a.438.438 0 0 1 .619 0l1.45 1.45L10.2 3.82a.438.438 0 0 1 .619 0l.903.903a.437.437 0 0 1 0 .619z"/></symbol><symbol id="spectrum-css-icon-MenuCheckmark" viewBox="0 0 16 16"><path d="M16 2.537a1 1 0 0 0-1.707-.708L6.5 9.622 3.207 6.329a1 1 0 1 0-1.414 1.414l4 4a1 1 0 0 0 1.414 0l8.5-8.5A.997.997 0 0 0 16 2.537z"/></symbol><symbol id="spectrum-css-icon-MillerColumnLeftChevron" viewBox="0 0 6 10"><path d="M0 4.999V5a.994.994 0 0 0 .293.705l3.991 3.99A.998.998 0 1 0 5.72 8.308l-.025-.024L2.41 5l3.286-3.285A.998.998 0 0 0 4.31.28l-.025.025-3.991 3.99A.994.994 0 0 0 0 4.998z"/></symbol><symbol id="spectrum-css-icon-MillerColumnRightChevron" viewBox="0 0 6 10"><path d="M6 5.001V5a.994.994 0 0 0-.293-.705L1.716.304A.998.998 0 1 0 .28 1.692l.025.024L3.59 5 .305 8.285A.998.998 0 0 0 1.69 9.72l.025-.025 3.991-3.99A.994.994 0 0 0 6 5.002z"/></symbol><symbol id="spectrum-css-icon-More" viewBox="0 0 16 4"><circle cx="8" cy="2" r="2"/><circle cx="14" cy="2" r="2"/><circle cx="2" cy="2" r="2"/></symbol><symbol id="spectrum-css-icon-PanelGripper" viewBox="0 0 20 4"><path d="M.5 0h19a.5.5 0 0 1 .5.5.5.5 0 0 1-.5.5H.5A.5.5 0 0 1 0 .5.5.5 0 0 1 .5 0zm0 3h19a.5.5 0 0 1 .5.5.5.5 0 0 1-.5.5H.5a.5.5 0 0 1-.5-.5.5.5 0 0 1 .5-.5z"/></symbol><symbol id="spectrum-css-icon-SearchClear" viewBox="0 0 8 8"><path d="M7.775 6.716L5.059 4l2.716-2.716A.749.749 0 1 0 6.727.214l-.011.011L4 2.941 1.284.225a.749.749 0 0 0-1.07 1.048l.011.011L2.941 4 .225 6.716a.749.749 0 1 0 1.048 1.07l.011-.011L4 5.059l2.716 2.716a.749.749 0 1 0 1.07-1.048z"/></symbol><symbol id="spectrum-css-icon-SearchMagGlass" viewBox="0 0 16 16"><path d="M9.508.495h-.01A5.993 5.993 0 0 0 3.505 6.48v.007A5.993 5.993 0 0 0 4.77 10.17L.225 14.714a.75.75 0 1 0 1.05 1.072l.011-.011L5.83 11.23A5.998 5.998 0 1 0 9.508.495zm-.003 10.5a4.5 4.5 0 1 1 4.5-4.5 4.5 4.5 0 0 1-4.5 4.5z"/></symbol><symbol id="spectrum-css-icon-SelectDownChevron" viewBox="0 0 10 6"><path d="M10 1a1 1 0 0 0-1-1 .985.985 0 0 0-.695.305L5.012 3.598 1.719.305a1 1 0 0 0-1.438 1.39l4.024 4.024A.958.958 0 0 0 5 6a1.012 1.012 0 0 0 .719-.28v-.001l4-4A.955.955 0 0 0 10 1z"/></symbol><symbol id="spectrum-css-icon-Star" viewBox="0 0 36 36"><path d="M18.477.593L22.8 12.029l12.212.578a.51.51 0 0 1 .295.907l-9.54 7.646 3.224 11.793a.51.51 0 0 1-.772.561L18 26.8 7.78 33.515a.51.51 0 0 1-.772-.561l3.224-11.793-9.54-7.646a.51.51 0 0 1 .295-.907l12.213-.579L17.523.593a.51.51 0 0 1 .954 0z"/></symbol><symbol id="spectrum-css-icon-StarOutline" viewBox="0 0 36 36"><path d="M18.059 5.082l3.554 9.505 10.219.481-7.975 6.405 2.672 9.827-8.534-5.568-8.558 5.615 2.7-9.873-7.974-6.4 10.2-.49zm.023-4.259a.738.738 0 0 0-.7.478l-4.412 11.35-12.2.585a.75.75 0 0 0-.434 1.334l9.523 7.642-3.23 11.8a.752.752 0 0 0 .725.951.742.742 0 0 0 .41-.125L18 28.122l10.187 6.648a.742.742 0 0 0 .408.125.752.752 0 0 0 .725-.949l-3.189-11.733 9.528-7.653a.75.75 0 0 0-.434-1.334l-12.2-.575-4.241-11.34a.738.738 0 0 0-.702-.488z"/></symbol><symbol id="spectrum-css-icon-StepperDownChevron" viewBox="0 0 8 6"><path d="M8 1.501V1.5a1 1 0 0 0-.998-1 .998.998 0 0 0-.707.293L4.006 3.086 1.716.793A1 1 0 0 0 .28 2.183l.025.024 2.995 3a.997.997 0 0 0 1.412 0l2.995-3A.997.997 0 0 0 8 1.501z"/></symbol><symbol id="spectrum-css-icon-StepperUpChevron" viewBox="0 0 8 6"><path d="M8 4.499V4.5a1 1 0 0 1-.999 1 .998.998 0 0 1-.706-.293L4.006 2.914l-2.29 2.293A1 1 0 0 1 .28 3.817l.025-.024 2.995-3a.997.997 0 0 1 1.412 0l2.995 3A.997.997 0 0 1 8 4.499z"/></symbol><symbol id="spectrum-css-icon-TableSortArrow" viewBox="0 0 10 14"><path d="M10 9a.996.996 0 0 0-1.701-.707l-2.293 2.293V1A1.005 1.005 0 0 0 5 0a.995.995 0 0 0-.994 1v9.586L1.713 8.293A.996.996 0 0 0 0 9a.963.963 0 0 0 .275.683l4.024 4.024A.983.983 0 0 0 5 14a1.01 1.01 0 0 0 .713-.293l4-4A.991.991 0 0 0 10 9z"/></symbol><symbol id="spectrum-css-icon-TagClose" viewBox="0 0 10 10"><path d="M5.884 5.036l3.433-3.433a.625.625 0 0 0-.884-.884L5 4.152 1.567.719a.625.625 0 0 0-.884.884l3.433 3.433L.683 8.469a.625.625 0 0 0 .884.884L5 5.92l3.433 3.433a.626.626 0 1 0 .885-.885z"/></symbol><symbol id="spectrum-css-icon-ToastClose" viewBox="0 0 8 8"><path d="M7.78 6.721L5.064 4.005 7.78 1.29A.749.749 0 1 0 6.732.22l-.01.01-2.717 2.716L1.29.23A.749.749 0 0 0 .22 1.278l.01.012 2.716 2.715L.23 6.721a.749.749 0 1 0 1.048 1.07l.012-.01 2.715-2.717L6.721 7.78a.749.749 0 1 0 1.07-1.048z"/></symbol></svg>